<svg width="436" height="335" viewBox="0 0 436 335" fill="none" xmlns="http://www.w3.org/2000/svg">
<path d="M159.401 193.933C159.314 193.933 159.227 193.933 159.14 193.845L82.491 156.262C82.2294 156.088 82.055 155.739 82.2294 155.477C82.4038 155.216 82.7526 155.041 83.0142 155.216L159.663 192.799C159.925 192.973 160.099 193.322 159.925 193.584C159.925 193.845 159.663 193.933 159.401 193.933Z" fill="#D1D3D4"/>
<path d="M86.9382 342.434C86.7638 342.434 86.5894 342.347 86.5022 342.26C86.2406 341.998 86.3278 341.65 86.5894 341.388L146.409 291.422C146.67 291.248 147.019 291.248 147.281 291.51C147.542 291.771 147.455 292.12 147.193 292.382L87.3742 342.347C87.1998 342.347 87.0254 342.434 86.9382 342.434Z" fill="#D1D3D4"/>
<path d="M362.142 321.244C361.967 321.244 361.88 321.244 361.793 321.157L270.146 251.746C269.884 251.572 269.797 251.136 270.058 250.874C270.233 250.612 270.669 250.525 270.93 250.787L362.578 320.198C362.839 320.372 362.926 320.808 362.752 321.07C362.49 321.244 362.316 321.332 362.142 321.244Z" fill="#D1D3D4"/>
<path d="M168.819 167.511C168.645 167.511 168.47 167.424 168.383 167.337L123.649 117.371C123.388 117.11 123.475 116.761 123.649 116.499C123.911 116.238 124.26 116.325 124.521 116.586L169.255 166.639C169.517 166.901 169.429 167.25 169.168 167.511C169.168 167.511 168.993 167.598 168.819 167.511Z" fill="#D1D3D4"/>
<path d="M321.593 205.356C321.332 205.356 321.157 205.181 321.07 205.007C320.983 204.658 321.07 204.309 321.419 204.222L368.594 185.823C368.943 185.736 369.292 185.823 369.379 186.172C369.466 186.521 369.379 186.869 369.03 186.957L321.768 205.269C321.68 205.269 321.593 205.269 321.593 205.356Z" fill="#D1D3D4"/>
<path d="M247.909 163.326C247.822 163.326 247.735 163.326 247.648 163.238C247.386 163.064 247.212 162.715 247.386 162.454L264.216 128.446C264.39 128.184 264.739 128.01 265.001 128.184C265.262 128.358 265.437 128.707 265.262 128.969L248.433 162.977C248.345 163.151 248.171 163.326 247.909 163.326Z" fill="#D1D3D4"/>
<path d="M362.141 245.904L306.944 238.754C306.595 238.666 306.42 238.405 306.42 238.056C306.42 237.707 306.769 237.533 307.118 237.533L362.228 244.683C362.577 244.77 362.752 245.032 362.752 245.381C362.664 245.73 362.403 245.991 362.141 245.904Z" fill="#D1D3D4"/>
<path d="M259.856 183.643C259.681 183.643 259.507 183.556 259.42 183.381C259.245 183.12 259.245 182.684 259.507 182.509L267.704 175.882C267.965 175.708 268.314 175.708 268.576 175.969C268.75 176.231 268.75 176.667 268.489 176.841L260.292 183.469C260.117 183.643 260.03 183.643 259.856 183.643Z" fill="#D1D3D4"/>
<path d="M312.612 342.434C312.437 342.434 312.176 342.347 312.089 342.172L280.435 288.632C280.261 288.37 280.348 288.021 280.609 287.76C280.609 287.76 280.609 287.76 280.697 287.76C280.958 287.585 281.394 287.672 281.569 287.934C281.569 287.934 281.569 287.934 281.569 288.021L313.135 341.475C313.309 341.736 313.222 342.085 312.961 342.347C312.961 342.347 312.961 342.347 312.873 342.347C312.873 342.347 312.699 342.434 312.612 342.434Z" fill="#D1D3D4"/>
<path d="M139.171 345.486C139.084 345.486 138.997 345.486 138.909 345.399C138.648 345.225 138.473 344.876 138.648 344.614L151.466 320.46C151.641 320.198 151.989 320.024 152.251 320.198C152.513 320.373 152.687 320.721 152.513 321.07L139.694 345.225C139.607 345.312 139.345 345.486 139.171 345.486Z" fill="#D1D3D4"/>
<path d="M67.231 269.273C66.8822 269.273 66.6206 269.012 66.6206 268.663C66.6206 268.401 66.795 268.14 67.0566 268.053L106.384 259.158C106.733 259.071 107.081 259.333 107.081 259.594C107.169 259.943 106.994 260.292 106.645 260.292L67.3182 269.273H67.231Z" fill="#D1D3D4"/>
<path d="M192.45 125.219C192.189 125.219 191.927 125.045 191.84 124.783L182.51 92.3446C182.422 91.9958 182.597 91.647 182.946 91.5598C183.294 91.4726 183.643 91.647 183.73 91.9958L193.061 124.434C193.148 124.783 192.974 125.132 192.625 125.219C192.625 125.219 192.538 125.219 192.45 125.219Z" fill="#D1D3D4"/>
<path d="M234.045 114.842C233.958 114.842 233.958 114.842 233.87 114.842C233.522 114.755 233.347 114.406 233.434 114.145L239.974 85.2815C240.062 84.9327 240.41 84.7583 240.672 84.8455C240.934 84.9327 241.195 85.2815 241.108 85.5431L234.481 114.406C234.481 114.581 234.219 114.755 234.045 114.842Z" fill="#D1D3D4"/>
<path d="M103.157 209.192H78.9156C78.5668 209.192 78.3052 208.931 78.3052 208.582C78.3052 208.233 78.5668 207.972 78.9156 207.972H103.244C103.593 207.972 103.855 208.233 103.855 208.582C103.768 208.931 103.506 209.192 103.157 209.192Z" fill="#D1D3D4"/>
<path d="M299.793 171.348C299.793 171.348 303.369 164.198 302.845 161.233C302.322 158.268 301.363 149.548 301.363 149.548L325.43 151.816L317.669 179.72" fill="white"/>
<path d="M317.67 180.33C317.583 180.33 317.583 180.33 317.495 180.33C317.147 180.243 316.972 179.894 317.059 179.545L324.559 152.339L302.061 150.246C302.323 152.426 303.107 158.792 303.456 161.146C303.979 164.285 300.491 171.348 300.317 171.61C300.143 171.959 299.794 172.046 299.445 171.872C299.096 171.697 299.009 171.348 299.183 171C300.143 169.081 302.584 163.5 302.235 161.32C301.712 158.443 300.753 149.984 300.666 149.636C300.666 149.461 300.753 149.287 300.84 149.112C300.927 148.938 301.189 148.938 301.363 148.938L325.431 151.205C325.779 151.205 326.041 151.554 326.041 151.903V151.99L318.28 179.894C318.193 180.156 317.931 180.33 317.67 180.33Z" fill="#231F20"/>
<path d="M131.585 206.49C131.585 206.49 131.846 192.276 131.585 189.05C131.323 185.823 136.206 168.035 134.986 165.244C133.765 162.454 130.626 161.407 129.492 164.634C128.358 167.86 126.266 175.272 126.266 175.272C126.266 175.272 113.709 167.511 111.18 172.918C108.651 178.324 106.297 188.178 108.913 190.707C110.57 192.189 112.575 193.148 114.842 193.41L114.145 211.46L131.585 206.49Z" fill="white"/>
<path d="M114.145 211.983C113.97 211.983 113.883 211.896 113.796 211.809C113.622 211.722 113.534 211.46 113.534 211.286L114.232 193.846C112.139 193.497 110.134 192.538 108.564 191.055C105.338 188.09 108.39 177.365 110.657 172.569C111.093 171.61 111.965 170.825 113.011 170.563C116.935 169.43 123.737 173.005 125.917 174.313C126.44 172.307 128.01 167.075 128.882 164.459C129.405 162.89 130.451 162.018 131.672 162.018C133.154 161.93 134.724 163.151 135.509 164.982C136.206 166.639 135.247 171.871 133.678 179.632C132.806 183.818 132.021 187.654 132.108 188.962C132.37 192.189 132.108 205.879 132.108 206.402C132.108 206.664 131.934 206.926 131.672 207.013L114.232 211.896C114.232 211.983 114.145 211.983 114.145 211.983ZM114.755 171.697C114.319 171.697 113.796 171.784 113.36 171.871C112.662 172.046 112.052 172.569 111.703 173.266C109.174 178.586 106.994 188.09 109.349 190.27C110.831 191.666 112.75 192.538 114.842 192.712C115.191 192.712 115.453 193.061 115.453 193.322L114.755 210.501L130.887 205.966C130.887 203.438 131.062 191.927 130.887 189.05C130.8 187.654 131.585 183.818 132.457 179.37C133.503 174.138 134.986 166.901 134.375 165.418C133.852 164.11 132.806 163.151 131.759 163.151C130.713 163.151 130.364 164.023 130.102 164.721C128.969 167.947 126.963 175.272 126.876 175.272C126.789 175.446 126.702 175.621 126.527 175.708C126.353 175.795 126.178 175.795 126.004 175.621C125.917 175.795 119.115 171.697 114.755 171.697Z" fill="#231F20"/>
<path d="M180.155 291.859L163.151 356.736L205.705 353.945L215.123 321.856L229.947 352.724H268.053L244.858 264.216L180.155 291.859Z" fill="#231F20"/>
<path d="M240.585 283.4L177.452 295.172L193.148 201.955C193.148 201.955 225.238 195.502 232.999 195.502C239.626 195.502 240.585 283.4 240.585 283.4Z" fill="white"/>
<path d="M177.452 295.783C177.278 295.783 177.103 295.695 177.016 295.608C176.842 295.434 176.842 295.259 176.842 295.085L192.538 201.868C192.538 201.606 192.799 201.432 193.061 201.345C194.369 201.083 225.325 194.892 233.086 194.892C234.481 194.892 237.795 194.979 239.887 239.451C240.934 261.164 241.195 283.226 241.195 283.4C241.195 283.662 241.021 283.923 240.672 284.01L177.539 295.783H177.452ZM193.671 202.478L178.237 294.387L239.975 282.877C239.451 234.132 236.399 196.113 233.086 196.113C225.935 196.113 197.421 201.694 193.671 202.478Z" fill="#231F20"/>
<path d="M203.873 195.503C202.914 196.113 205.705 209.629 205.792 210.937C207.187 223.232 207.885 235.615 207.797 247.997C207.71 261.775 205.007 275.465 199.775 288.284C197.421 294.213 194.717 299.968 191.84 305.724C188.962 311.479 183.381 312.351 177.452 311.915C171.086 311.479 164.808 310.258 158.617 308.427C156.524 307.729 154.257 306.944 152.861 305.2C150.333 302.061 153.036 297.876 154.518 294.911C156.524 290.638 158.355 286.365 160.186 282.092C162.977 275.116 170.65 258.461 172.569 251.224C175.097 241.806 171.348 241.806 171.784 232.04C171.958 228.116 172.045 224.192 172.133 220.268C172.22 217.913 171.522 210.501 173.092 208.757C184.951 195.154 203.873 195.503 203.873 195.503Z" fill="url(#paint0_linear_597_1461)"/>
<path d="M250.962 193.323C251.398 193.41 249.392 224.976 249.566 226.546C250.613 238.492 268.14 285.58 268.14 285.58C268.14 289.94 224.366 315.839 221.575 308.078C234.568 239.713 225.586 195.503 225.325 195.503C225.238 195.503 240.846 191.404 250.962 193.323Z" fill="url(#paint1_linear_597_1461)"/>
<path d="M218.872 212.245L214.076 216.954L218 219.657C218 219.657 213.902 250.09 199.514 254.363C185.126 258.636 179.545 257.24 179.545 257.24L171.61 267.53C171.61 267.53 183.905 271.018 184.777 271.367C185.649 271.716 211.809 265.612 215.907 249.392C218.349 239.888 220.006 230.121 220.703 220.268L223.319 217.041L218.872 212.245Z" fill="#231F20"/>
<path d="M200.909 242.329C200.735 242.329 200.56 242.242 200.386 242.067L188.265 225.499C188.091 225.238 188.091 224.889 188.352 224.715L195.939 216.867L186.434 214.512C186.085 214.425 185.911 214.076 185.998 213.727C185.998 213.64 186.085 213.553 186.172 213.466L197.334 201.519C197.595 201.258 197.944 201.258 198.206 201.519C198.467 201.781 198.467 202.13 198.206 202.391L187.742 213.553L197.247 216.082C197.595 216.169 197.77 216.518 197.683 216.779C197.683 216.867 197.595 216.954 197.508 217.041L189.573 225.238L201.432 241.37C201.607 241.631 201.607 242.067 201.258 242.242C201.171 242.329 200.996 242.329 200.909 242.329Z" fill="#231F20"/>
<path d="M231.429 240.585C231.342 240.585 231.254 240.585 231.167 240.498C230.818 240.324 230.731 239.975 230.818 239.713L239.8 218.872L230.644 214.251C230.47 214.164 230.382 214.076 230.295 213.902C230.295 213.728 230.295 213.553 230.382 213.379L237.184 202.217L228.202 198.032C227.854 197.857 227.766 197.508 227.941 197.247C228.115 196.985 228.464 196.811 228.726 196.985L238.318 201.432C238.492 201.52 238.579 201.607 238.666 201.781C238.754 201.956 238.666 202.13 238.579 202.304L231.69 213.466L240.846 218C241.108 218.175 241.282 218.524 241.108 218.785L231.952 240.236C231.865 240.411 231.603 240.585 231.429 240.585Z" fill="#231F20"/>
<path d="M250.962 193.323C250.962 193.323 273.808 200.996 279.738 199.339C285.667 197.683 297.527 169.517 297.527 169.517L321.594 172.482C321.594 172.482 311.566 231.952 292.469 235.179C273.372 238.405 247.997 229.859 247.997 229.859L250.962 193.323Z" fill="url(#paint2_linear_597_1461)"/>
<path d="M195.241 171.348C194.282 166.901 192.974 162.541 192.538 158.094C192.102 153.647 192.712 148.851 195.328 145.101C198.031 141.09 201.607 141.526 205.792 141.003C211.373 140.305 216.431 137.427 221.575 135.422C222.535 135.073 224.104 134.986 224.279 136.032C224.279 136.381 224.279 136.73 224.104 136.991C223.407 138.648 222.535 140.218 221.314 141.526C225.412 140.567 229.336 139.084 232.911 136.991C233.696 141.003 232.563 145.188 229.947 148.327L236.835 144.927C238.056 150.682 233.958 157.047 228.203 158.181" fill="white"/>
<path d="M195.241 171.959C194.979 171.959 194.718 171.784 194.63 171.435C194.369 170.302 194.107 169.168 193.846 167.947C192.974 164.721 192.363 161.407 191.927 158.007C191.578 154.257 191.84 148.938 194.805 144.578C197.246 141.003 200.298 140.741 203.612 140.479C204.31 140.392 205.007 140.392 205.705 140.305C209.716 139.782 213.466 138.125 217.128 136.555C218.523 135.945 219.918 135.335 221.314 134.811C222.186 134.463 223.232 134.463 224.104 134.811C224.54 135.073 224.802 135.422 224.889 135.858C224.976 136.294 224.889 136.73 224.714 137.166C224.278 138.299 223.668 139.433 222.97 140.479C226.371 139.52 229.598 138.212 232.65 136.468C232.824 136.381 233.086 136.381 233.26 136.468C233.434 136.555 233.609 136.73 233.609 136.904C234.219 140.218 233.609 143.706 231.952 146.583L236.574 144.316C236.748 144.229 236.922 144.229 237.097 144.316C237.271 144.403 237.446 144.578 237.446 144.752C238.579 151.118 234.568 157.309 228.29 158.791C227.941 158.879 227.592 158.617 227.505 158.355C227.418 158.094 227.679 157.658 227.941 157.571C230.644 156.96 232.998 155.303 234.481 152.949C235.876 150.856 236.486 148.415 236.225 145.886L230.121 148.938C229.859 149.112 229.51 149.025 229.336 148.763C229.162 148.502 229.162 148.153 229.336 147.979C231.69 145.275 232.737 141.613 232.301 138.038C228.9 139.956 225.15 141.351 221.401 142.223C221.052 142.311 220.703 142.049 220.616 141.787C220.529 141.613 220.616 141.351 220.79 141.264C221.924 139.956 222.796 138.474 223.494 136.904C223.581 136.73 223.668 136.555 223.668 136.294C223.668 136.207 223.581 136.119 223.494 136.119C222.883 135.945 222.273 135.945 221.75 136.207C220.354 136.73 218.959 137.34 217.564 137.951C213.814 139.607 209.978 141.264 205.792 141.787C205.007 141.875 204.31 141.962 203.612 142.049C200.386 142.311 197.857 142.572 195.764 145.624C192.974 149.635 192.799 154.693 193.061 158.181C193.41 161.495 194.02 164.721 194.892 167.947C195.154 169.081 195.415 170.215 195.677 171.435C195.764 171.784 195.502 172.133 195.241 172.22V171.959Z" fill="#231F20"/>
<path d="M225.325 190.271L226.72 199.688C226.72 199.688 225.238 213.466 214.774 211.024C204.31 208.583 200.211 199.252 200.211 199.252L198.903 174.226C198.903 174.226 206.577 170.04 204.135 153.298C212.681 156.873 222.011 158.094 231.167 156.786C231.167 156.786 234.83 173.964 233.696 182.074C232.563 190.183 225.238 190.183 225.238 190.183L225.325 190.271Z" fill="white"/>
<path d="M217.215 211.984C216.343 211.984 215.559 211.896 214.687 211.635C204.048 209.193 199.863 199.863 199.688 199.427C199.688 199.339 199.601 199.252 199.601 199.252L198.293 174.226C198.293 173.964 198.38 173.79 198.642 173.616C198.729 173.616 205.879 169.343 203.525 153.385C203.525 153.036 203.699 152.688 204.048 152.688C204.135 152.688 204.223 152.688 204.397 152.688C212.855 156.176 222.011 157.396 231.08 156.088C231.429 156.001 231.691 156.263 231.778 156.612C231.952 157.309 235.527 174.051 234.307 182.074C233.26 189.05 227.854 190.358 225.935 190.707L227.331 199.514C227.331 199.601 227.331 199.601 227.331 199.688C227.331 200.037 226.459 207.188 221.924 210.414C220.529 211.46 218.872 211.984 217.215 211.984ZM200.909 199.165C201.432 200.124 205.618 208.321 214.948 210.501C217.128 211.111 219.395 210.763 221.227 209.542C225.063 206.839 226.023 200.56 226.11 199.776L224.627 190.358C224.54 190.009 224.802 189.66 225.151 189.66H225.238C225.499 189.66 232.039 189.486 233.086 182.074C234.132 175.011 231.342 160.623 230.644 157.571C221.924 158.617 213.03 157.571 204.833 154.344C206.577 168.645 200.996 173.528 199.427 174.575L200.909 199.165Z" fill="#231F20"/>
<path d="M219.918 166.901C219.918 166.901 224.889 175.97 223.406 177.365C221.924 178.76 218.174 177.365 218.174 177.365" fill="white"/>
<path d="M221.313 178.586C220.18 178.586 219.046 178.324 218 177.975C217.651 177.888 217.564 177.539 217.651 177.19C217.738 176.842 218.087 176.754 218.436 176.842C219.308 177.19 222.011 177.801 223.057 176.929C223.668 176.406 221.924 171.784 219.482 167.25C219.308 166.988 219.395 166.552 219.744 166.465C220.005 166.29 220.441 166.378 220.616 166.639C220.616 166.639 220.616 166.639 220.616 166.726C222.185 169.604 225.586 176.406 223.929 177.888C223.145 178.411 222.273 178.673 221.313 178.586Z" fill="#231F20"/>
<path d="M211.119 167.683C211.697 167.658 212.121 166.585 212.066 165.286C212.011 163.987 211.499 162.954 210.921 162.978C210.344 163.002 209.92 164.075 209.975 165.374C210.03 166.673 210.542 167.707 211.119 167.683Z" fill="#231F20"/>
<path d="M227.513 167.681C228.09 167.656 228.514 166.583 228.459 165.284C228.405 163.985 227.892 162.952 227.315 162.976C226.738 163 226.314 164.073 226.369 165.372C226.423 166.671 226.936 167.705 227.513 167.681Z" fill="#231F20"/>
<path d="M205.618 169.953C204.658 168.383 203.438 166.988 202.042 165.855C201.258 165.157 200.386 164.808 199.339 164.634C198.554 164.634 197.77 164.895 197.072 165.331C194.979 166.552 193.497 168.558 193.061 170.912C192.799 171.959 192.886 173.092 193.148 174.139C193.758 175.795 194.892 177.191 196.374 178.063C197.857 178.935 199.426 179.632 201.083 180.155" fill="white"/>
<path d="M201.17 180.853C201.083 180.853 200.996 180.853 200.996 180.853C199.252 180.33 197.682 179.632 196.113 178.76C194.456 177.801 193.235 176.318 192.625 174.487C192.276 173.354 192.276 172.133 192.45 170.912C192.974 168.383 194.543 166.203 196.723 164.895C197.508 164.372 198.38 164.11 199.339 164.11C200.473 164.198 201.519 164.721 202.391 165.418C203.874 166.552 205.182 168.034 206.141 169.691C206.315 169.953 206.228 170.389 205.879 170.563C205.618 170.738 205.182 170.65 205.007 170.302C204.135 168.819 203.002 167.511 201.606 166.378C200.996 165.767 200.124 165.418 199.339 165.331C198.642 165.331 197.944 165.593 197.421 165.942C195.502 167.075 194.107 168.994 193.758 171.174C193.584 172.133 193.584 173.179 193.846 174.138C194.369 175.621 195.415 176.929 196.81 177.714C198.293 178.498 199.862 179.196 201.432 179.632C201.781 179.719 201.955 180.068 201.868 180.417C201.781 180.678 201.519 180.853 201.17 180.853Z" fill="#231F20"/>
<path d="M225.325 190.271C219.395 191.143 213.204 190.183 207.885 187.393C207.885 187.393 216.779 201.083 226.72 199.165L225.325 190.271Z" fill="#231F20"/>
<path d="M224.714 199.95C215.384 199.95 207.623 188.265 207.362 187.742C207.187 187.48 207.274 187.219 207.449 186.957C207.623 186.783 207.972 186.696 208.146 186.783C213.378 189.486 219.395 190.445 225.238 189.573C225.586 189.486 225.935 189.748 225.935 190.009L227.33 198.904C227.418 199.252 227.156 199.514 226.807 199.601C226.11 199.863 225.412 199.95 224.714 199.95ZM209.716 188.876C212.419 192.364 218.959 199.514 226.022 198.555L224.802 190.881C219.657 191.666 214.425 190.881 209.716 188.876Z" fill="#231F20"/>
<path d="M212.071 173.615C207.536 173.615 203.787 169.953 203.787 165.331C203.787 160.797 207.449 157.047 212.071 157.047C216.605 157.047 220.355 160.71 220.355 165.331C220.355 169.866 216.605 173.528 212.071 173.615ZM212.071 158.268C208.234 158.268 205.007 161.407 205.007 165.331C205.007 169.255 208.147 172.395 212.071 172.395C215.995 172.395 219.134 169.255 219.134 165.331C219.047 161.407 215.907 158.268 212.071 158.268Z" fill="#231F20"/>
<path d="M228.551 173.615C224.017 173.615 220.267 169.953 220.267 165.331C220.267 160.71 223.929 157.047 228.551 157.047C233.173 157.047 236.835 160.71 236.835 165.331C236.835 169.866 233.173 173.528 228.551 173.615ZM228.551 158.268C224.714 158.268 221.488 161.407 221.488 165.244C221.488 169.081 224.627 172.307 228.464 172.307C232.301 172.307 235.527 169.168 235.527 165.331C235.614 161.407 232.475 158.268 228.551 158.268Z" fill="#231F20"/>
<path d="M220.006 183.643C216.082 183.643 212.332 181.289 208.844 176.755C208.67 176.493 208.757 176.057 209.019 175.883C209.28 175.708 209.629 175.795 209.803 175.97C213.03 180.243 216.431 182.335 219.919 182.423H220.006C224.802 182.423 228.115 178.324 228.115 178.237C228.29 177.975 228.726 177.888 228.987 178.15C229.249 178.324 229.336 178.76 229.075 179.022C228.9 179.283 225.325 183.643 220.006 183.643Z" fill="#231F20"/>
<path d="M177.452 204.571C173.092 208.757 141.003 241.195 138.648 235.179C136.294 229.162 134.55 201.694 134.55 201.694L112.575 204.92C112.575 204.92 99.9313 266.745 121.906 273.547C143.88 280.348 177.452 247.91 177.452 247.91V204.571Z" fill="url(#paint3_linear_597_1461)"/>
<path d="M159.402 284.621C159.315 284.621 159.227 284.621 159.053 284.534C158.791 284.359 158.617 284.011 158.791 283.749C158.966 283.487 173.005 258.374 177.539 218.524C177.627 218.175 177.888 217.913 178.237 218C178.586 218 178.847 218.349 178.76 218.698C174.139 258.81 160.012 284.098 159.838 284.359C159.838 284.534 159.663 284.621 159.402 284.621Z" fill="#231F20"/>
<path d="M287.673 235.789C271.279 235.789 240.672 228.9 240.41 228.813C240.062 228.726 239.887 228.377 239.974 228.115C240.062 227.767 240.323 227.592 240.672 227.679C241.021 227.767 271.366 234.568 287.673 234.568C288.109 234.568 288.545 234.568 288.981 234.568C289.33 234.568 289.591 234.83 289.591 235.179C289.591 235.527 289.33 235.789 288.981 235.789H287.673Z" fill="#231F20"/>
<path d="M121.644 172.918C121.644 172.918 125.481 177.016 123.65 184.254C121.818 191.492 118.592 192.887 113.186 189.573" fill="white"/>
<path d="M117.895 191.927C116.063 191.84 114.319 191.23 112.837 190.183C112.575 190.009 112.488 189.573 112.663 189.311C112.837 189.05 113.273 188.962 113.535 189.137C115.976 190.619 117.895 191.055 119.29 190.445C120.947 189.747 122.167 187.742 123.127 184.166C124.871 177.365 121.47 173.615 121.295 173.441C121.034 173.179 121.034 172.83 121.295 172.569C121.557 172.307 121.906 172.307 122.167 172.569C122.342 172.743 126.266 177.016 124.26 184.515C123.214 188.526 121.731 190.794 119.726 191.666C119.115 191.84 118.505 191.927 117.895 191.927Z" fill="#231F20"/>
<path d="M307.031 79.7881L321.594 109.349L354.119 114.058L330.575 136.991L336.156 169.517L307.031 154.17L277.906 169.517L283.4 136.991L259.856 114.058L292.469 109.349L307.031 79.7881Z" fill="white"/>
<path d="M336.156 170.127C336.069 170.127 335.981 170.127 335.894 170.04L307.031 154.867L278.168 170.04C277.993 170.127 277.732 170.127 277.557 169.953C277.383 169.779 277.296 169.604 277.296 169.343L282.789 137.253L259.42 114.494C259.158 114.232 259.158 113.883 259.42 113.622C259.507 113.535 259.681 113.447 259.769 113.447L292.033 108.739L306.421 79.5266C306.595 79.265 307.031 79.0906 307.293 79.265C307.38 79.3522 307.467 79.4394 307.554 79.5266L321.942 108.739L354.206 113.447C354.468 113.447 354.642 113.622 354.729 113.883C354.817 114.145 354.729 114.319 354.555 114.494L331.185 137.253L336.679 169.343C336.766 169.604 336.592 169.779 336.417 169.953C336.417 170.04 336.33 170.127 336.156 170.127ZM307.031 153.559C307.118 153.559 307.205 153.559 307.293 153.647L335.284 168.383L329.965 137.166C329.965 136.991 329.965 136.73 330.139 136.643L352.811 114.494L321.506 109.959C321.332 109.959 321.157 109.785 321.07 109.611L307.031 81.2706L292.992 109.611C292.905 109.785 292.73 109.959 292.556 109.959L261.251 114.494L283.923 136.643C284.097 136.817 284.097 136.991 284.097 137.166L278.778 168.383L306.769 153.647C306.769 153.559 306.944 153.559 307.031 153.559Z" fill="#231F20"/>
<path d="M302.933 161.233C302.933 161.233 295.87 149.374 297.614 148.153C299.358 146.932 303.369 151.554 305.549 154.693C305.549 154.693 312.351 155.914 311.217 163.5" fill="white"/>
<path d="M311.13 164.111H311.043C310.694 164.023 310.432 163.762 310.519 163.413C311.566 156.524 305.636 155.39 305.375 155.39C305.2 155.39 305.026 155.303 304.939 155.129C302.061 151.03 298.835 148.066 297.875 148.763C297.439 149.548 299.968 155.216 303.369 160.971C303.543 161.233 303.456 161.669 303.195 161.843C302.933 162.018 302.497 161.93 302.323 161.669C299.009 156.001 295.347 149.025 297.178 147.804C299.619 146.06 304.241 152.077 305.811 154.257C307.119 154.606 312.787 156.524 311.74 163.674C311.74 163.936 311.479 164.111 311.13 164.111Z" fill="#231F20"/>
<defs>
<linearGradient id="paint0_linear_597_1461" x1="179.814" y1="195.502" x2="179.814" y2="312.011" gradientUnits="userSpaceOnUse">
<stop stop-color="#68E1FD"/>
<stop offset="1" stop-color="#0D54DB"/>
</linearGradient>
<linearGradient id="paint1_linear_597_1461" x1="244.858" y1="192.812" x2="244.858" y2="309.52" gradientUnits="userSpaceOnUse">
<stop stop-color="#68E1FD"/>
<stop offset="1" stop-color="#0D54DB"/>
</linearGradient>
<linearGradient id="paint2_linear_597_1461" x1="284.795" y1="169.517" x2="284.795" y2="235.907" gradientUnits="userSpaceOnUse">
<stop stop-color="#68E1FD"/>
<stop offset="1" stop-color="#0D54DB"/>
</linearGradient>
<linearGradient id="paint3_linear_597_1461" x1="143.204" y1="201.694" x2="143.204" y2="274.484" gradientUnits="userSpaceOnUse">
<stop stop-color="#68E1FD"/>
<stop offset="1" stop-color="#0D54DB"/>
</linearGradient>
</defs>
</svg>
