<svg width="116" height="116" viewBox="0 0 116 116" fill="none" xmlns="http://www.w3.org/2000/svg">
<path d="M88.6624 42.098C85.2453 42.098 82.4806 44.8627 82.4806 48.275V70.17C82.4806 71.8096 83.1319 73.3819 84.2912 74.5413C85.4505 75.7006 87.0229 76.3519 88.6624 76.3519C90.302 76.3519 91.8743 75.7006 93.0337 74.5413C94.193 73.3819 94.8443 71.8096 94.8443 70.17V48.275C94.8443 44.8627 92.0796 42.098 88.6624 42.098ZM27.3371 42.098C23.9199 42.098 21.1553 44.8627 21.1553 48.275V70.17C21.1553 71.8096 21.8066 73.3819 22.9659 74.5413C24.1252 75.7006 25.6976 76.3519 27.3371 76.3519C28.9766 76.3519 30.549 75.7006 31.7083 74.5413C32.8676 73.3819 33.5189 71.8096 33.5189 70.17V48.275C33.5196 47.4633 33.3601 46.6594 33.0496 45.9093C32.7391 45.1593 32.2837 44.4779 31.7094 43.9041C31.1352 43.3303 30.4535 42.8755 29.7032 42.5655C28.9529 42.2556 28.1489 42.0968 27.3371 42.098ZM70.3006 23.6879L74.0126 16.9792C74.1211 16.7882 74.1906 16.5776 74.217 16.3595C74.2433 16.1414 74.2261 15.9203 74.1663 15.7089C74.1065 15.4976 74.0053 15.3002 73.8686 15.1283C73.7318 14.9564 73.5623 14.8134 73.3698 14.7075C73.1778 14.5993 72.9663 14.5303 72.7474 14.5046C72.5286 14.4788 72.3068 14.4968 72.095 14.5575C71.8832 14.6182 71.6856 14.7204 71.5136 14.8582C71.3416 14.996 71.1987 15.1666 71.0933 15.36L67.2798 22.2234C64.4378 21.0875 61.3058 20.4447 57.9998 20.4447C54.6938 20.4447 51.5618 21.0827 48.7198 22.2185L44.9063 15.3649C44.8008 15.1714 44.6579 15.0008 44.486 14.8631C44.314 14.7253 44.1164 14.6231 43.9045 14.5624C43.6927 14.5016 43.4709 14.4836 43.2521 14.5094C43.0333 14.5351 42.8217 14.6041 42.6298 14.7124C42.4382 14.8191 42.2696 14.9626 42.1336 15.1347C41.9976 15.3067 41.8968 15.5038 41.8371 15.7149C41.7774 15.9259 41.7599 16.1466 41.7856 16.3644C41.8113 16.5822 41.8797 16.7927 41.9869 16.984L45.6989 23.6927C39.0144 27.5014 34.5484 34.3115 34.5484 42.098C34.5484 42.1512 34.5484 42.1995 34.5581 42.2624C34.5484 42.2914 34.5484 42.3252 34.5484 42.3542V42.359H81.4463V42.098C81.4511 34.3115 76.9851 27.5062 70.3006 23.6879ZM47.1731 33.1999C46.9532 33.1983 46.7357 33.1534 46.5331 33.0678C46.3305 32.9821 46.1468 32.8574 45.9924 32.7008C45.6806 32.3845 45.5072 31.9572 45.5104 31.513C45.5136 31.0689 45.6932 30.6442 46.0095 30.3323C46.3259 30.0205 46.7531 29.8472 47.1973 29.8504C47.6414 29.8536 48.0661 30.0331 48.378 30.3494C48.6898 30.6658 48.8631 31.093 48.8599 31.5372C48.8567 31.9814 48.6772 32.4061 48.3609 32.7179C48.0445 33.0297 47.6173 33.2031 47.1731 33.1999ZM68.8264 33.1999C68.4049 33.1678 68.011 32.9777 67.7236 32.6676C67.4362 32.3575 67.2765 31.9503 67.2765 31.5275C67.2765 31.1047 67.4362 30.6976 67.7236 30.3875C68.011 30.0774 68.4049 29.8873 68.8264 29.8552C69.27 29.8552 69.6953 30.0314 70.009 30.345C70.3226 30.6586 70.4988 31.084 70.4988 31.5275C70.4988 31.9711 70.3226 32.3964 70.009 32.7101C69.6953 33.0237 69.27 33.1999 68.8264 33.1999ZM34.5484 77.913C34.5484 81.0354 37.0859 83.5729 40.2228 83.5729H43.0551V95.1777C43.0551 96.8172 43.7064 98.3896 44.8657 99.5489C46.025 100.708 47.5974 101.36 49.2369 101.36C50.8765 101.36 52.4488 100.708 53.6082 99.5489C54.7675 98.3896 55.4188 96.8172 55.4188 95.1777V83.5729H60.5711V95.1777C60.5711 98.5949 63.3358 101.355 66.7433 101.355C70.1701 101.355 72.9348 98.5949 72.9348 95.1777V83.5729H75.7671C78.8991 83.5729 81.4414 81.0402 81.4414 77.913V43.635H34.5484V77.913Z" fill="url(#paint0_linear_597_1788)"/>
<defs>
<linearGradient id="paint0_linear_597_1788" x1="38.6664" y1="29.7733" x2="175.546" y2="278.013" gradientUnits="userSpaceOnUse">
<stop stop-color="white"/>
<stop offset="1" stop-color="#565656"/>
</linearGradient>
</defs>
</svg>
