<?xml version="1.0" encoding="UTF-8"?>
<svg id="Layer_2" data-name="Layer 2" xmlns="http://www.w3.org/2000/svg" viewBox="0 0 414.88 91.62">
  <defs>
    <style>
      .cls-1 {
        fill: #fff;
      }
    </style>
  </defs>
  <g id="Layer_1-2" data-name="Layer 1">
    <path class="cls-1" d="M49.43,90.39c-1.49-1.2-5.69-7.89-7.03-9.95-4.29-6.61-7.81-14.86-12.27-21.11-4.17-5.84-15.08-19.55-20.27-23.79-2.21-1.81-5.05-2.69-6.82-4.96-5.08-6.49-4.12-14.19,5.43-14.18,2.22,0,3.94,1,5.83,1.17,16.4,1.51,36.71-5.79,53.34-7.09,4.11-.32,11.49-.43,15.36.73.77.23,2.07.98,2.6,1.55.87.94,1.18,4.38.88,5.58-.43,1.71-4.72,3.36-6.33,3.99-12.3,4.8-25.62,6.72-38.5,9.32l-.59.67c6.7,3.02,13.53,5.98,20.52,8.33,38.69,12.96,84.58,22.11,125.11,25.51,73.3,6.15,148.26-19.63,208.88-58.9C398.17,5.58,404.55-.05,407.3,0c1.12.02,5.76,1.12,6.48,1.89,3.01,3.2-.9,8.72-3.21,11.27-6.86,7.56-24.32,16.24-33.56,21.28-52.68,28.74-107.33,46.28-168.06,46.83-23.33.21-49.26-4.69-72.34-8.53-29.95-4.98-62.02-12.2-90.6-22.99-3.3-1.25-6.86-3.79-10.57-4.02-.66.45,3.46,5.3,3.95,6.12,2.56,4.26,4.1,9.08,6.4,13.35,3.25,6.04,8.85,12.02,9.06,19.37.11,3.82-.73,9.59-5.42,5.82Z"/>
  </g>
</svg>