<svg width="464" height="363" viewBox="0 0 464 363" fill="none" xmlns="http://www.w3.org/2000/svg">
<path d="M63.3544 358.886H193.97L182.185 277.583H51.8101L63.3544 358.886Z" fill="#231F20" stroke="#231F20" stroke-width="1.392" stroke-linecap="round" stroke-linejoin="round"/>
<path d="M66.7138 358.886H197.32L185.544 277.583H55.1602L66.7138 358.886Z" fill="white" stroke="#231F20" stroke-width="1.392" stroke-linecap="round" stroke-linejoin="round"/>
<path d="M70.0639 358.886H200.68L188.894 277.583H58.5195L70.0639 358.886Z" fill="#231F20" stroke="#231F20" stroke-width="1.392" stroke-linecap="round" stroke-linejoin="round"/>
<path d="M73.4232 358.886H204.03L192.254 277.583H61.8696L73.4232 358.886Z" fill="white" stroke="#231F20" stroke-width="1.392" stroke-linecap="round" stroke-linejoin="round"/>
<path d="M78.991 285.258L81.1996 300.802C81.4316 302.417 82.8144 303.614 84.4476 303.614C86.4428 303.614 87.974 301.842 87.6864 299.865L84.1971 275.802C83.7331 272.61 80.9955 270.243 77.7753 270.243C73.8313 270.243 70.7968 273.742 71.3443 277.649" stroke="#231F20" stroke-width="1.392" stroke-miterlimit="10"/>
<path d="M74.3232 308.885H121.113" stroke="#231F20" stroke-width="1.392" stroke-miterlimit="10"/>
<path d="M130.792 288.395H177.582" stroke="#231F20" stroke-width="1.392" stroke-miterlimit="10"/>
<path d="M76.105 318.239H176.199" stroke="#231F20" stroke-width="1.392" stroke-miterlimit="10"/>
<path d="M77.5435 326.499H177.638" stroke="#231F20" stroke-width="1.392" stroke-miterlimit="10"/>
<path d="M78.9727 334.767H179.067" stroke="#231F20" stroke-width="1.392" stroke-miterlimit="10"/>
<path d="M80.4019 343.026H180.496" stroke="#231F20" stroke-width="1.392" stroke-miterlimit="10"/>
<path d="M81.8311 351.285H181.925" stroke="#231F20" stroke-width="1.392" stroke-miterlimit="10"/>
<path d="M125.763 167.782L129.79 195.669L142.114 257.705L137.919 260.74L76.0032 261.028L66.6212 195.669L62.9741 170.186L66.0829 167.782H125.763Z" fill="white" stroke="#231F20" stroke-width="1.392" stroke-miterlimit="10"/>
<path d="M70.0734 195.669H133.233L129.252 167.782H66.083L70.0734 195.669Z" fill="white" stroke="#231F20" stroke-width="1.392" stroke-miterlimit="10"/>
<path d="M70.0732 195.669H133.233L142.114 257.706H78.9913L70.0732 195.669Z" fill="white" stroke="#231F20" stroke-width="1.392" stroke-miterlimit="10"/>
<path d="M75.0939 189.358H126.422L124.306 174.752H73.0151L75.0939 189.358Z" fill="url(#paint0_linear_597_316)" stroke="#231F20" stroke-width="1.392" stroke-miterlimit="10"/>
<path d="M120.779 211.77H128.045C128.918 211.807 129.66 211.102 129.66 210.239C129.66 210.118 129.66 210.034 129.623 209.904L129.038 205.756C128.871 204.717 127.962 203.928 126.922 203.891H119.656C118.784 203.854 118.042 204.559 118.042 205.422C118.042 205.543 118.042 205.626 118.079 205.756L118.663 209.904C118.83 210.981 119.703 211.77 120.779 211.77Z" fill="white" stroke="#231F20" stroke-width="1.392" stroke-miterlimit="10"/>
<path d="M107.165 211.77H114.432C115.304 211.807 116.046 211.102 116.046 210.239C116.046 210.118 116.046 210.034 116.009 209.904L115.425 205.756C115.257 204.717 114.348 203.928 113.309 203.891H106.042C105.17 203.854 104.428 204.559 104.428 205.422C104.428 205.543 104.428 205.626 104.465 205.756L105.049 209.904C105.17 210.981 106.089 211.77 107.165 211.77Z" fill="white" stroke="#231F20" stroke-width="1.392" stroke-miterlimit="10"/>
<path d="M93.5609 211.77H100.827C101.699 211.807 102.442 211.102 102.442 210.239C102.442 210.118 102.442 210.034 102.405 209.904L101.82 205.756C101.653 204.717 100.744 203.928 99.6578 203.891H92.3916C91.5193 203.854 90.7769 204.559 90.7769 205.422C90.7769 205.543 90.7769 205.626 90.814 205.756L91.3986 209.904C91.5657 210.981 92.4751 211.77 93.5609 211.77Z" fill="white" stroke="#231F20" stroke-width="1.392" stroke-miterlimit="10"/>
<path d="M79.9007 211.77H87.1669C88.0392 211.807 88.7816 211.102 88.7816 210.239C88.7816 210.118 88.7816 210.034 88.7445 209.904L88.1599 205.756C87.9928 204.717 87.0834 203.928 86.044 203.891H78.7778C77.9055 203.854 77.1631 204.559 77.1631 205.422C77.1631 205.543 77.1631 205.626 77.2002 205.756L77.7848 209.904C77.9519 210.981 78.8242 211.77 79.9007 211.77Z" fill="white" stroke="#231F20" stroke-width="1.392" stroke-miterlimit="10"/>
<path d="M122.153 221.226H129.419C130.291 221.263 131.034 220.558 131.034 219.695C131.034 219.574 131.034 219.491 130.996 219.361L130.412 215.213C130.245 214.173 129.335 213.384 128.296 213.347H121.03C120.157 213.31 119.415 214.016 119.415 214.879C119.415 214.999 119.415 215.083 119.452 215.213L120.037 219.361C120.157 220.4 121.076 221.189 122.153 221.226Z" fill="white" stroke="#231F20" stroke-width="1.392" stroke-miterlimit="10"/>
<path d="M108.502 221.226H115.768C116.64 221.263 117.383 220.558 117.383 219.695C117.383 219.574 117.383 219.491 117.346 219.361L116.761 215.213C116.594 214.173 115.684 213.384 114.645 213.347H107.379C106.507 213.31 105.764 214.016 105.764 214.879C105.764 214.999 105.764 215.083 105.801 215.213L106.386 219.361C106.553 220.4 107.462 221.189 108.502 221.226Z" fill="white" stroke="#231F20" stroke-width="1.392" stroke-miterlimit="10"/>
<path d="M94.888 221.226H102.154C103.027 221.263 103.769 220.558 103.769 219.695C103.769 219.574 103.769 219.491 103.732 219.361L103.147 215.213C102.98 214.173 102.071 213.384 101.031 213.347H93.7651C92.8928 213.31 92.1504 214.016 92.1504 214.879C92.1504 214.999 92.1504 215.083 92.1875 215.213L92.7721 219.361C92.9392 220.4 93.8115 221.189 94.888 221.226Z" fill="white" stroke="#231F20" stroke-width="1.392" stroke-miterlimit="10"/>
<path d="M81.2742 221.226H88.5405C89.4128 221.263 90.1552 220.558 90.1552 219.695C90.1552 219.574 90.1552 219.491 90.1181 219.361L89.5334 215.213C89.3664 214.173 88.4569 213.384 87.4176 213.347H80.1513C79.279 213.31 78.5366 214.016 78.5366 214.879C78.5366 214.999 78.5366 215.083 78.5737 215.213L79.1584 219.361C79.279 220.4 80.1977 221.189 81.2742 221.226Z" fill="white" stroke="#231F20" stroke-width="1.392" stroke-miterlimit="10"/>
<path d="M123.48 230.654H130.746C131.618 230.691 132.361 229.986 132.361 229.123C132.361 229.002 132.361 228.919 132.324 228.789L131.739 224.641C131.572 223.602 130.662 222.813 129.623 222.776H122.357C121.485 222.738 120.742 223.444 120.742 224.307C120.742 224.427 120.742 224.511 120.779 224.641L121.364 228.789C121.531 229.828 122.403 230.617 123.48 230.654Z" fill="white" stroke="#231F20" stroke-width="1.392" stroke-miterlimit="10"/>
<path d="M109.866 230.654H117.132C118.005 230.691 118.747 229.986 118.747 229.123C118.747 229.002 118.747 228.919 118.71 228.789L118.125 224.641C117.958 223.602 117.049 222.813 116.009 222.776H108.743C107.871 222.738 107.128 223.444 107.128 224.307C107.128 224.427 107.128 224.511 107.166 224.641L107.75 228.789C107.871 229.828 108.79 230.617 109.866 230.654Z" fill="white" stroke="#231F20" stroke-width="1.392" stroke-miterlimit="10"/>
<path d="M96.2523 230.654H103.472C104.344 230.691 105.087 229.986 105.087 229.123C105.087 229.002 105.087 228.919 105.05 228.789L104.465 224.641C104.298 223.602 103.389 222.813 102.349 222.776H95.083C94.2107 222.738 93.4683 223.444 93.4683 224.307C93.4683 224.427 93.4683 224.511 93.5054 224.641L94.09 228.789C94.2571 229.828 95.1665 230.617 96.2523 230.654Z" fill="white" stroke="#231F20" stroke-width="1.392" stroke-miterlimit="10"/>
<path d="M82.6014 230.654H89.8676C90.7399 230.691 91.4823 229.986 91.4823 229.123C91.4823 229.002 91.4823 228.919 91.4452 228.789L90.8606 224.641C90.6935 223.602 89.7841 222.813 88.7447 222.776H81.4785C80.6062 222.738 79.8638 223.444 79.8638 224.307C79.8638 224.427 79.8638 224.511 79.9009 224.641L80.4855 228.789C80.6526 229.828 81.562 230.617 82.6014 230.654Z" fill="white" stroke="#231F20" stroke-width="1.392" stroke-miterlimit="10"/>
<path d="M124.853 240.073H132.12C132.992 240.111 133.734 239.405 133.734 238.542C133.734 238.422 133.734 238.338 133.697 238.208L133.113 234.06C132.945 233.021 132.036 232.232 130.997 232.195H123.73C122.858 232.158 122.116 232.863 122.116 233.726C122.116 233.847 122.116 233.93 122.153 234.06L122.737 238.208C122.858 239.248 123.777 240.036 124.853 240.073Z" fill="white" stroke="#231F20" stroke-width="1.392" stroke-miterlimit="10"/>
<path d="M111.193 240.073H118.459C119.332 240.111 120.074 239.405 120.074 238.542C120.074 238.422 120.074 238.338 120.037 238.208L119.452 234.06C119.285 233.021 118.376 232.232 117.337 232.195H110.07C109.198 232.158 108.456 232.863 108.456 233.726C108.456 233.847 108.456 233.93 108.493 234.06L109.077 238.208C109.244 239.248 110.117 240.036 111.193 240.073Z" fill="white" stroke="#231F20" stroke-width="1.392" stroke-miterlimit="10"/>
<path d="M97.5794 240.073H104.846C105.718 240.111 106.46 239.405 106.46 238.542C106.46 238.422 106.46 238.338 106.423 238.208L105.839 234.06C105.672 233.021 104.762 232.232 103.723 232.195H96.4565C95.5842 232.158 94.8418 232.863 94.8418 233.726C94.8418 233.847 94.8418 233.93 94.8789 234.06L95.4636 238.208C95.6306 239.248 96.5029 240.036 97.5794 240.073Z" fill="white" stroke="#231F20" stroke-width="1.392" stroke-miterlimit="10"/>
<path d="M83.9749 240.073H91.2411C92.1135 240.111 92.8559 239.405 92.8559 238.542C92.8559 238.422 92.8559 238.338 92.8187 238.208L92.2341 234.06C92.0671 233.021 91.1576 232.232 90.1183 232.195H82.852C81.9797 232.158 81.2373 232.863 81.2373 233.726C81.2373 233.847 81.2373 233.93 81.2744 234.06L81.8591 238.208C82.0261 239.248 82.8984 240.036 83.9749 240.073Z" fill="white" stroke="#231F20" stroke-width="1.392" stroke-miterlimit="10"/>
<path d="M111.444 241.604H132.314C133.391 241.642 134.263 242.43 134.43 243.47L135.015 247.618C135.182 248.49 134.597 249.316 133.725 249.446C133.604 249.446 133.521 249.483 133.391 249.483H112.52C111.444 249.446 110.571 248.657 110.404 247.618L109.82 243.47C109.652 242.597 110.237 241.772 111.109 241.642C111.193 241.605 111.314 241.604 111.444 241.604Z" fill="white" stroke="#231F20" stroke-width="1.392" stroke-miterlimit="10"/>
<path d="M98.9529 249.493H106.219C107.091 249.53 107.834 248.825 107.834 247.962C107.834 247.841 107.834 247.758 107.797 247.628L107.212 243.479C107.045 242.44 106.136 241.651 105.096 241.614H97.8301C96.9577 241.577 96.2153 242.282 96.2153 243.145C96.2153 243.266 96.2153 243.35 96.2525 243.479L96.8371 247.628C96.9577 248.667 97.8764 249.456 98.9529 249.493Z" fill="white" stroke="#231F20" stroke-width="1.392" stroke-miterlimit="10"/>
<path d="M85.3016 249.493H92.5678C93.4401 249.53 94.1825 248.825 94.1825 247.962C94.1825 247.841 94.1825 247.758 94.1454 247.628L93.5608 243.479C93.3937 242.44 92.4843 241.651 91.4449 241.614H84.1787C83.3064 241.577 82.564 242.282 82.564 243.145C82.564 243.266 82.564 243.35 82.6011 243.479L83.1857 247.628C83.3528 248.667 84.2622 249.456 85.3016 249.493Z" fill="white" stroke="#231F20" stroke-width="1.392" stroke-miterlimit="10"/>
<path d="M119.062 177.823H117.364C116.91 177.823 116.492 177.991 116.241 178.325C115.954 178.659 115.824 179.113 115.907 179.531L116.529 183.809C116.613 184.264 116.817 184.719 117.197 185.015C117.531 185.35 117.986 185.517 118.487 185.517H120.148C120.603 185.517 121.021 185.35 121.271 185.015C121.559 184.681 121.689 184.227 121.605 183.809L120.983 179.531C120.9 179.076 120.696 178.622 120.315 178.325C119.981 177.991 119.526 177.823 119.072 177.823H119.062ZM117.568 179.401C117.568 179.03 117.856 178.696 118.237 178.696H118.32C118.571 178.696 118.775 178.779 118.942 178.946C119.109 179.113 119.23 179.318 119.276 179.531L119.694 182.436L117.578 179.41L117.568 179.401ZM119.888 183.967C119.888 184.171 119.805 184.338 119.684 184.505C119.517 184.626 119.35 184.709 119.146 184.672C118.645 184.672 118.237 184.301 118.153 183.8L117.735 180.895L119.898 183.967H119.888Z" fill="white" stroke="#231F20" stroke-width="1.392" stroke-miterlimit="10"/>
<path d="M78.9916 257.706L76.0034 261.028" stroke="#231F20" stroke-width="1.392" stroke-miterlimit="10"/>
<path d="M103.314 139.488C103.314 139.488 93.7093 139.005 94.3868 148.582H110.72C110.72 148.582 108.251 139.488 103.305 139.488H103.314Z" fill="white" stroke="#231F20" stroke-width="1.392" stroke-miterlimit="10"/>
<path d="M111.703 154.791C111.703 154.791 109.736 154.828 109.003 152.935C108.242 150.976 107.768 147.515 106.683 142.634C106.386 141.297 105.755 139.497 103.314 139.497H129.14C128.027 146.216 123.813 152.563 117.717 154.8C117.596 154.837 111.703 154.8 111.703 154.8V154.791Z" fill="white" stroke="#231F20" stroke-width="1.392" stroke-miterlimit="10"/>
<path d="M124.584 123.229C124.584 123.229 117.336 122.171 116.269 132.055C115.202 141.938 122.654 155.672 111.703 154.791H158.001C158.001 154.791 146.178 121.68 124.584 123.229Z" fill="white" stroke="#231F20" stroke-width="1.392" stroke-miterlimit="10"/>
<path d="M287.968 123.229H122.774C128.565 123.229 131.711 135.145 132.129 137.817L167.532 361.363H333.829L298.074 135.609C296.116 123.229 287.958 123.266 287.958 123.266V123.229H287.968Z" fill="#231F20"/>
<path d="M294.974 123.229H124.584C130.375 123.229 134.031 126.783 136.184 130.078C137.743 132.472 138.708 135.135 139.126 137.817L172.589 349.086L171.522 356.454L188.978 361.363H340.827L305.071 135.609C303.113 123.229 294.955 123.266 294.955 123.266V123.229H294.974Z" fill="white" stroke="#231F20" stroke-width="1.392" stroke-miterlimit="10"/>
<path d="M157.11 148.591H170.975L172.784 160.015H158.92L157.11 148.591Z" fill="white" stroke="#231F20" stroke-width="1.392" stroke-miterlimit="10"/>
<path d="M202.118 208.021H229.847L233.466 230.868H205.737L202.118 208.021Z" fill="url(#paint1_linear_597_316)" stroke="#231F20" stroke-width="1.392" stroke-miterlimit="10"/>
<path d="M168.478 215.528H196.197L198.629 230.868H170.909L168.478 215.528Z" fill="url(#paint2_linear_597_316)" stroke="#231F20" stroke-width="1.392" stroke-miterlimit="10"/>
<path d="M233.865 188.551H261.594L268.285 230.803H240.565L233.865 188.551Z" fill="url(#paint3_linear_597_316)" stroke="#231F20" stroke-width="1.392" stroke-miterlimit="10"/>
<path d="M266.057 171.866H293.786L303.131 230.868H275.402L266.057 171.866Z" fill="url(#paint4_linear_597_316)" stroke="#231F20" stroke-width="1.392" stroke-miterlimit="10"/>
<path d="M183.883 257.446C178.13 263.311 175.355 271.588 176.162 280.46H190.788C190.639 276.952 191.493 273.63 193.256 270.874C193.98 269.732 194.852 268.693 195.854 267.784C198.267 265.584 201.367 264.202 204.81 263.793L202.49 249.168C195.186 249.641 188.644 252.546 183.874 257.436L183.883 257.446Z" fill="white" stroke="#231F20" stroke-width="1.392" stroke-miterlimit="10"/>
<path d="M243.108 280.451C241.465 273.083 237.447 266.067 231.684 260.527L222.98 270.874C229.55 277.76 231.09 287.513 226.701 294.39C225.977 295.54 225.105 296.58 224.102 297.48C218.089 302.955 208.336 302.955 200.587 297.48C199.297 296.57 198.091 295.531 196.996 294.39C194.36 291.624 192.448 288.302 191.483 284.794H176.849C178.491 292.172 182.509 299.178 188.282 304.718C189.414 305.823 190.611 306.853 191.864 307.808C198.174 312.699 205.644 315.613 213.087 316.077C213.82 316.123 214.553 316.151 215.286 316.151C216.02 316.151 216.743 316.151 217.458 316.077C224.761 315.604 231.304 312.699 236.074 307.808C237.02 306.853 237.892 305.823 238.672 304.718C242.681 299.178 244.481 292.172 243.785 284.794C243.72 284.07 243.628 283.337 243.516 282.613C243.405 281.889 243.293 281.166 243.099 280.451H243.108Z" fill="url(#paint5_linear_597_316)" stroke="#231F20" stroke-width="1.392" stroke-miterlimit="10"/>
<path d="M228.112 257.446C221.792 252.555 214.321 249.641 206.87 249.177L209.19 263.803C212.762 264.211 216.307 265.594 219.416 267.793L228.121 257.455L228.112 257.446Z" fill="#231F20"/>
<path d="M186.435 326.294C188.783 326.294 190.193 327.649 191.437 328.818C192.68 329.987 193.683 330.971 195.502 330.971C197.321 330.971 198.035 329.969 198.88 328.818C199.724 327.667 200.736 326.294 203.083 326.294C205.431 326.294 206.842 327.649 208.085 328.818C209.329 329.987 210.331 330.971 212.15 330.971C213.969 330.971 214.683 329.969 215.528 328.818C216.372 327.667 217.384 326.294 219.732 326.294C222.08 326.294 223.49 327.649 224.734 328.818C225.977 329.987 226.979 330.971 228.798 330.971C230.617 330.971 231.332 329.969 232.176 328.818C233.021 327.667 234.032 326.294 236.38 326.294C238.728 326.294 240.138 327.649 241.382 328.818C242.625 329.987 243.628 330.971 245.447 330.971C247.265 330.971 247.98 329.969 248.825 328.818C249.669 327.667 250.681 326.294 253.028 326.294C255.376 326.294 256.787 327.649 258.03 328.818C259.274 329.987 260.276 330.971 262.095 330.971C263.914 330.971 264.628 329.969 265.473 328.818C266.317 327.667 267.329 326.294 269.677 326.294C272.025 326.294 273.435 327.649 274.679 328.818C275.922 329.987 276.924 330.971 278.743 330.971C280.562 330.971 281.277 329.969 282.121 328.818C282.966 327.667 283.977 326.294 286.325 326.294C288.673 326.294 290.083 327.649 291.327 328.818C292.57 329.987 293.573 330.971 295.392 330.971C297.21 330.971 297.934 329.969 298.769 328.818C299.605 327.667 300.625 326.294 302.973 326.294C305.321 326.294 306.732 327.649 307.984 328.818C309.237 329.987 310.23 330.971 312.058 330.971C313.887 330.971 314.601 329.969 315.446 328.818C316.29 327.667 317.302 326.294 319.649 326.294" fill="white"/>
<path d="M186.435 326.294C188.783 326.294 190.193 327.649 191.437 328.818C192.68 329.987 193.683 330.971 195.502 330.971C197.321 330.971 198.035 329.969 198.88 328.818C199.724 327.667 200.736 326.294 203.083 326.294C205.431 326.294 206.842 327.649 208.085 328.818C209.329 329.987 210.331 330.971 212.15 330.971C213.969 330.971 214.683 329.969 215.528 328.818C216.372 327.667 217.384 326.294 219.732 326.294C222.08 326.294 223.49 327.649 224.734 328.818C225.977 329.987 226.979 330.971 228.798 330.971C230.617 330.971 231.332 329.969 232.176 328.818C233.021 327.667 234.032 326.294 236.38 326.294C238.728 326.294 240.138 327.649 241.382 328.818C242.625 329.987 243.628 330.971 245.447 330.971C247.265 330.971 247.98 329.969 248.825 328.818C249.669 327.667 250.681 326.294 253.028 326.294C255.376 326.294 256.787 327.649 258.03 328.818C259.274 329.987 260.276 330.971 262.095 330.971C263.914 330.971 264.628 329.969 265.473 328.818C266.317 327.667 267.329 326.294 269.677 326.294C272.025 326.294 273.435 327.649 274.679 328.818C275.922 329.987 276.924 330.971 278.743 330.971C280.562 330.971 281.277 329.969 282.121 328.818C282.966 327.667 283.977 326.294 286.325 326.294C288.673 326.294 290.083 327.649 291.327 328.818C292.57 329.987 293.573 330.971 295.392 330.971C297.21 330.971 297.934 329.969 298.769 328.818C299.605 327.667 300.625 326.294 302.973 326.294C305.321 326.294 306.732 327.649 307.984 328.818C309.237 329.987 310.23 330.971 312.058 330.971C313.887 330.971 314.601 329.969 315.446 328.818C316.29 327.667 317.302 326.294 319.649 326.294" stroke="#231F20" stroke-width="1.392" stroke-miterlimit="10"/>
<path d="M188.356 338.396C190.704 338.396 192.114 339.75 193.358 340.92C194.601 342.089 195.604 343.073 197.423 343.073C199.241 343.073 199.956 342.07 200.8 340.92C201.645 339.769 202.656 338.396 205.004 338.396C207.352 338.396 208.763 339.75 210.006 340.92C211.25 342.089 212.252 343.073 214.071 343.073C215.89 343.073 216.604 342.07 217.449 340.92C218.293 339.769 219.305 338.396 221.653 338.396C224 338.396 225.411 339.75 226.655 340.92C227.898 342.089 228.9 343.073 230.719 343.073C232.538 343.073 233.253 342.07 234.097 340.92C234.942 339.769 235.953 338.396 238.301 338.396C240.649 338.396 242.059 339.75 243.303 340.92C244.546 342.089 245.549 343.073 247.367 343.073C249.186 343.073 249.901 342.07 250.745 340.92C251.59 339.769 252.601 338.396 254.949 338.396C257.297 338.396 258.708 339.75 259.951 340.92C261.195 342.089 262.197 343.073 264.016 343.073C265.835 343.073 266.549 342.07 267.394 340.92C268.238 339.769 269.25 338.396 271.598 338.396C273.945 338.396 275.356 339.75 276.599 340.92C277.843 342.089 278.845 343.073 280.664 343.073C282.483 343.073 283.198 342.07 284.042 340.92C284.886 339.769 285.898 338.396 288.246 338.396C290.594 338.396 292.004 339.75 293.248 340.92C294.491 342.089 295.494 343.073 297.312 343.073C299.131 343.073 299.855 342.07 300.69 340.92C301.526 339.769 302.546 338.396 304.894 338.396C307.242 338.396 308.653 339.75 309.905 340.92C311.158 342.089 312.151 343.073 313.979 343.073C315.807 343.073 316.522 342.07 317.367 340.92C318.211 339.769 319.223 338.396 321.57 338.396" fill="white"/>
<path d="M188.356 338.396C190.704 338.396 192.114 339.75 193.358 340.92C194.601 342.089 195.604 343.073 197.423 343.073C199.241 343.073 199.956 342.07 200.8 340.92C201.645 339.769 202.656 338.396 205.004 338.396C207.352 338.396 208.763 339.75 210.006 340.92C211.25 342.089 212.252 343.073 214.071 343.073C215.89 343.073 216.604 342.07 217.449 340.92C218.293 339.769 219.305 338.396 221.653 338.396C224 338.396 225.411 339.75 226.655 340.92C227.898 342.089 228.9 343.073 230.719 343.073C232.538 343.073 233.253 342.07 234.097 340.92C234.942 339.769 235.953 338.396 238.301 338.396C240.649 338.396 242.059 339.75 243.303 340.92C244.546 342.089 245.549 343.073 247.367 343.073C249.186 343.073 249.901 342.07 250.745 340.92C251.59 339.769 252.601 338.396 254.949 338.396C257.297 338.396 258.708 339.75 259.951 340.92C261.195 342.089 262.197 343.073 264.016 343.073C265.835 343.073 266.549 342.07 267.394 340.92C268.238 339.769 269.25 338.396 271.598 338.396C273.945 338.396 275.356 339.75 276.599 340.92C277.843 342.089 278.845 343.073 280.664 343.073C282.483 343.073 283.198 342.07 284.042 340.92C284.887 339.769 285.898 338.396 288.246 338.396C290.594 338.396 292.004 339.75 293.248 340.92C294.491 342.089 295.494 343.073 297.312 343.073C299.131 343.073 299.855 342.07 300.69 340.92C301.526 339.769 302.546 338.396 304.894 338.396C307.242 338.396 308.653 339.75 309.905 340.92C311.158 342.089 312.151 343.073 313.979 343.073C315.807 343.073 316.522 342.07 317.367 340.92C318.211 339.769 319.223 338.396 321.57 338.396" stroke="#231F20" stroke-width="1.392" stroke-miterlimit="10"/>
<path d="M172.599 349.086L188.987 361.363" stroke="#231F20" stroke-width="1.392" stroke-miterlimit="10"/>
<path d="M183.883 151.255H291.912" stroke="#231F20" stroke-width="1.392" stroke-miterlimit="10"/>
<path d="M184.848 157.342H250.996" stroke="#231F20" stroke-width="1.392" stroke-miterlimit="10"/>
<path d="M160.47 169.796H174.334L176.144 181.22H162.279L160.47 169.796Z" fill="white" stroke="#231F20" stroke-width="1.392" stroke-miterlimit="10"/>
<path d="M187.242 172.469H253.39" stroke="#231F20" stroke-width="1.392" stroke-miterlimit="10"/>
<path d="M188.208 178.556H228.715" stroke="#231F20" stroke-width="1.392" stroke-miterlimit="10"/>
<path d="M163.829 191.01H177.693L179.503 202.434H165.639L163.829 191.01Z" fill="white" stroke="#231F20" stroke-width="1.392" stroke-miterlimit="10"/>
<path d="M190.602 193.674H220.604" stroke="#231F20" stroke-width="1.392" stroke-miterlimit="10"/>
<path d="M191.567 199.77H209.941" stroke="#231F20" stroke-width="1.392" stroke-miterlimit="10"/>
<path d="M363.943 317.571L366.272 315.567C367.59 314.425 367.739 312.439 366.606 311.112L342.896 283.588L335.788 289.713L359.489 317.228C360.63 318.546 362.616 318.694 363.943 317.562V317.571Z" fill="white" stroke="#231F20" stroke-width="1.392" stroke-miterlimit="10"/>
<path d="M345.337 277.63L322.796 251.275L307.836 264.062L330.378 290.418C333.913 294.547 340.122 295.03 344.251 291.503C348.381 287.968 348.863 281.759 345.337 277.63Z" fill="url(#paint6_linear_597_316)" stroke="#231F20" stroke-width="1.392" stroke-miterlimit="10"/>
<path d="M356.642 306.768L356.635 306.774C352.566 310.28 352.108 316.421 355.614 320.49L392.879 363.754C396.384 367.823 402.525 368.281 406.594 364.775L406.602 364.769C410.671 361.264 411.129 355.123 407.623 351.053L370.358 307.79C366.853 303.72 360.712 303.263 356.642 306.768Z" fill="url(#paint7_linear_597_316)" stroke="#231F20" stroke-width="1.392" stroke-miterlimit="10"/>
<path d="M302.584 299.234C332.915 299.234 357.503 274.646 357.503 244.315C357.503 213.984 332.915 189.396 302.584 189.396C272.253 189.396 247.665 213.984 247.665 244.315C247.665 274.646 272.253 299.234 302.584 299.234Z" fill="#D1D3D4" stroke="#231F20" stroke-width="1.392" stroke-linecap="round" stroke-linejoin="round"/>
<path d="M335.708 277.44C354.002 259.146 354.002 229.485 335.708 211.191C317.413 192.896 287.753 192.896 269.458 211.191C251.164 229.485 251.164 259.146 269.458 277.44C287.753 295.734 317.413 295.734 335.708 277.44Z" fill="white" stroke="#231F20" stroke-width="1.392" stroke-miterlimit="10"/>
<path d="M317.2 211.194L287.977 277.426" stroke="#231F20" stroke-width="1.392" stroke-miterlimit="10"/>
<path d="M291.253 230.933C294.907 230.933 297.87 227.97 297.87 224.316C297.87 220.662 294.907 217.699 291.253 217.699C287.599 217.699 284.636 220.662 284.636 224.316C284.636 227.97 287.599 230.933 291.253 230.933Z" fill="white" stroke="#231F20" stroke-width="1.392" stroke-miterlimit="10"/>
<path d="M313.924 270.921C317.578 270.921 320.54 267.958 320.54 264.304C320.54 260.65 317.578 257.687 313.924 257.687C310.27 257.687 307.307 260.65 307.307 264.304C307.307 267.958 310.27 270.921 313.924 270.921Z" fill="white" stroke="#231F20" stroke-width="1.392" stroke-miterlimit="10"/>
<defs>
<linearGradient id="paint0_linear_597_316" x1="99.7183" y1="174.752" x2="99.7183" y2="189.358" gradientUnits="userSpaceOnUse">
<stop stop-color="#68E1FD"/>
<stop offset="1" stop-color="#0D54DB"/>
</linearGradient>
<linearGradient id="paint1_linear_597_316" x1="217.792" y1="208.021" x2="217.792" y2="230.868" gradientUnits="userSpaceOnUse">
<stop stop-color="#68E1FD"/>
<stop offset="1" stop-color="#0D54DB"/>
</linearGradient>
<linearGradient id="paint2_linear_597_316" x1="183.553" y1="215.528" x2="183.553" y2="230.868" gradientUnits="userSpaceOnUse">
<stop stop-color="#68E1FD"/>
<stop offset="1" stop-color="#0D54DB"/>
</linearGradient>
<linearGradient id="paint3_linear_597_316" x1="251.075" y1="188.551" x2="251.075" y2="230.803" gradientUnits="userSpaceOnUse">
<stop stop-color="#68E1FD"/>
<stop offset="1" stop-color="#0D54DB"/>
</linearGradient>
<linearGradient id="paint4_linear_597_316" x1="284.594" y1="171.866" x2="284.594" y2="230.868" gradientUnits="userSpaceOnUse">
<stop stop-color="#68E1FD"/>
<stop offset="1" stop-color="#0D54DB"/>
</linearGradient>
<linearGradient id="paint5_linear_597_316" x1="210.39" y1="260.527" x2="210.39" y2="316.151" gradientUnits="userSpaceOnUse">
<stop stop-color="#68E1FD"/>
<stop offset="1" stop-color="#0D54DB"/>
</linearGradient>
<linearGradient id="paint6_linear_597_316" x1="327.766" y1="251.275" x2="327.766" y2="293.862" gradientUnits="userSpaceOnUse">
<stop stop-color="#68E1FD"/>
<stop offset="1" stop-color="#0D54DB"/>
</linearGradient>
<linearGradient id="paint7_linear_597_316" x1="356.639" y1="306.771" x2="406.598" y2="364.772" gradientUnits="userSpaceOnUse">
<stop stop-color="#68E1FD"/>
<stop offset="1" stop-color="#0D54DB"/>
</linearGradient>
</defs>
</svg>
