<svg width="363" height="241" viewBox="0 0 363 241" fill="none" xmlns="http://www.w3.org/2000/svg">
<path d="M12.3546 236.885H142.971L131.185 155.583H0.810303L12.3546 236.885Z" fill="#231F20" stroke="#231F20" stroke-width="1.392" stroke-linecap="round" stroke-linejoin="round"/>
<path d="M15.7139 236.885H146.321L134.544 155.583H4.16028L15.7139 236.885Z" fill="white" stroke="#231F20" stroke-width="1.392" stroke-linecap="round" stroke-linejoin="round"/>
<path d="M19.064 236.885H149.68L137.894 155.583H7.51965L19.064 236.885Z" fill="#231F20" stroke="#231F20" stroke-width="1.392" stroke-linecap="round" stroke-linejoin="round"/>
<path d="M22.4234 236.885H153.03L141.254 155.583H10.8698L22.4234 236.885Z" fill="white" stroke="#231F20" stroke-width="1.392" stroke-linecap="round" stroke-linejoin="round"/>
<path d="M27.9915 163.258L30.2001 178.802C30.4321 180.417 31.8149 181.614 33.4481 181.614C35.4433 181.614 36.9745 179.841 36.6869 177.865L33.1976 153.802C32.7336 150.609 29.996 148.243 26.7758 148.243C22.8318 148.243 19.7973 151.741 20.3448 155.648" stroke="#231F20" stroke-width="1.392" stroke-miterlimit="10"/>
<path d="M23.3236 186.885H70.1134" stroke="#231F20" stroke-width="1.392" stroke-miterlimit="10"/>
<path d="M79.7924 166.395H126.582" stroke="#231F20" stroke-width="1.392" stroke-miterlimit="10"/>
<path d="M25.1053 196.239H125.199" stroke="#231F20" stroke-width="1.392" stroke-miterlimit="10"/>
<path d="M26.5437 204.498H126.638" stroke="#231F20" stroke-width="1.392" stroke-miterlimit="10"/>
<path d="M27.9729 212.767H128.067" stroke="#231F20" stroke-width="1.392" stroke-miterlimit="10"/>
<path d="M29.402 221.026H129.496" stroke="#231F20" stroke-width="1.392" stroke-miterlimit="10"/>
<path d="M30.8311 229.285H130.925" stroke="#231F20" stroke-width="1.392" stroke-miterlimit="10"/>
<path d="M74.7625 45.7822L78.79 73.6686L91.1138 135.705L86.9193 138.74L25.0031 139.028L15.621 73.6686L11.974 48.1858L15.0828 45.7822H74.7625Z" fill="white" stroke="#231F20" stroke-width="1.392" stroke-miterlimit="10"/>
<path d="M19.0733 73.6687H82.233L78.2518 45.7823H15.0829L19.0733 73.6687Z" fill="white" stroke="#231F20" stroke-width="1.392" stroke-miterlimit="10"/>
<path d="M19.0732 73.6688H82.2329L91.1139 135.706H27.9913L19.0732 73.6688Z" fill="white" stroke="#231F20" stroke-width="1.392" stroke-miterlimit="10"/>
<path d="M24.0937 67.3585H75.4214L73.3056 52.7518H22.015L24.0937 67.3585Z" fill="url(#paint0_linear_96_26)" stroke="#231F20" stroke-width="1.392" stroke-miterlimit="10"/>
<path d="M69.7791 89.7698H77.0453C77.9177 89.8069 78.6601 89.1016 78.6601 88.2386C78.6601 88.118 78.6601 88.0344 78.6229 87.9045L78.0383 83.7564C77.8713 82.717 76.9618 81.9282 75.9225 81.8911H68.6562C67.7839 81.854 67.0415 82.5592 67.0415 83.4223C67.0415 83.5429 67.0415 83.6264 67.0786 83.7564L67.6633 87.9045C67.8303 88.981 68.7026 89.7698 69.7791 89.7698Z" fill="white" stroke="#231F20" stroke-width="1.392" stroke-miterlimit="10"/>
<path d="M56.1653 89.7698H63.4316C64.3039 89.8069 65.0463 89.1016 65.0463 88.2386C65.0463 88.118 65.0463 88.0344 65.0092 87.9045L64.4245 83.7564C64.2575 82.717 63.3481 81.9282 62.3087 81.8911H55.0425C54.1701 81.854 53.4277 82.5592 53.4277 83.4223C53.4277 83.5429 53.4277 83.6264 53.4649 83.7564L54.0495 87.9045C54.1701 88.981 55.0889 89.7698 56.1653 89.7698Z" fill="white" stroke="#231F20" stroke-width="1.392" stroke-miterlimit="10"/>
<path d="M42.561 89.7698H49.8272C50.6995 89.8069 51.4419 89.1016 51.4419 88.2386C51.4419 88.118 51.4419 88.0344 51.4048 87.9045L50.8202 83.7564C50.6531 82.717 49.7437 81.9282 48.6579 81.8911H41.3917C40.5194 81.854 39.777 82.5592 39.777 83.4223C39.777 83.5429 39.777 83.6264 39.8141 83.7564L40.3987 87.9045C40.5658 88.981 41.4752 89.7698 42.561 89.7698Z" fill="white" stroke="#231F20" stroke-width="1.392" stroke-miterlimit="10"/>
<path d="M28.9008 89.7698H36.167C37.0394 89.8069 37.7818 89.1016 37.7818 88.2386C37.7818 88.118 37.7818 88.0344 37.7446 87.9045L37.16 83.7564C36.993 82.717 36.0835 81.9282 35.0442 81.8911H27.7779C26.9056 81.854 26.1632 82.5592 26.1632 83.4223C26.1632 83.5429 26.1632 83.6264 26.2003 83.7564L26.785 87.9045C26.952 88.981 27.8243 89.7698 28.9008 89.7698Z" fill="white" stroke="#231F20" stroke-width="1.392" stroke-miterlimit="10"/>
<path d="M71.1527 99.226H78.4189C79.2912 99.2632 80.0336 98.5579 80.0336 97.6948C80.0336 97.5742 80.0336 97.4907 79.9965 97.3608L79.4118 93.2126C79.2448 92.1732 78.3354 91.3844 77.296 91.3473H70.0298C69.1574 91.3102 68.415 92.0155 68.415 92.8785C68.415 92.9992 68.415 93.0827 68.4522 93.2126L69.0368 97.3608C69.1575 98.4001 70.0762 99.1889 71.1527 99.226Z" fill="white" stroke="#231F20" stroke-width="1.392" stroke-miterlimit="10"/>
<path d="M57.5018 99.226H64.768C65.6403 99.2632 66.3827 98.5579 66.3827 97.6948C66.3827 97.5742 66.3827 97.4907 66.3456 97.3608L65.761 93.2126C65.5939 92.1732 64.6845 91.3844 63.6451 91.3473H56.3789C55.5066 91.3102 54.7642 92.0155 54.7642 92.8785C54.7642 92.9992 54.7642 93.0827 54.8013 93.2126L55.3859 97.3608C55.553 98.4001 56.4624 99.1889 57.5018 99.226Z" fill="white" stroke="#231F20" stroke-width="1.392" stroke-miterlimit="10"/>
<path d="M43.888 99.226H51.1542C52.0266 99.2632 52.7689 98.5579 52.7689 97.6948C52.7689 97.5742 52.7689 97.4907 52.7318 97.3608L52.1472 93.2126C51.9801 92.1732 51.0707 91.3844 50.0314 91.3473H42.7651C41.8928 91.3102 41.1504 92.0155 41.1504 92.8785C41.1504 92.9992 41.1504 93.0827 41.1875 93.2126L41.7721 97.3608C41.9392 98.4001 42.8115 99.1889 43.888 99.226Z" fill="white" stroke="#231F20" stroke-width="1.392" stroke-miterlimit="10"/>
<path d="M30.2742 99.226H37.5405C38.4128 99.2632 39.1552 98.5579 39.1552 97.6948C39.1552 97.5742 39.1552 97.4907 39.1181 97.3608L38.5334 93.2126C38.3664 92.1732 37.4569 91.3844 36.4176 91.3473H29.1513C28.279 91.3102 27.5366 92.0155 27.5366 92.8785C27.5366 92.9992 27.5366 93.0827 27.5737 93.2126L28.1584 97.3608C28.279 98.4001 29.1977 99.1889 30.2742 99.226Z" fill="white" stroke="#231F20" stroke-width="1.392" stroke-miterlimit="10"/>
<path d="M72.4797 108.654H79.7459C80.6182 108.691 81.3606 107.986 81.3606 107.123C81.3606 107.003 81.3606 106.919 81.3235 106.789L80.7389 102.641C80.5718 101.602 79.6624 100.813 78.623 100.776H71.3568C70.4845 100.739 69.7421 101.444 69.7421 102.307C69.7421 102.427 69.7421 102.511 69.7792 102.641L70.3638 106.789C70.5309 107.828 71.4032 108.617 72.4797 108.654Z" fill="white" stroke="#231F20" stroke-width="1.392" stroke-miterlimit="10"/>
<path d="M58.866 108.654H66.1323C67.0046 108.691 67.747 107.986 67.747 107.123C67.747 107.003 67.747 106.919 67.7099 106.789L67.1252 102.641C66.9582 101.602 66.0487 100.813 65.0094 100.776H57.7431C56.8708 100.739 56.1284 101.444 56.1284 102.307C56.1284 102.427 56.1284 102.511 56.1655 102.641L56.7502 106.789C56.8708 107.828 57.7895 108.617 58.866 108.654Z" fill="white" stroke="#231F20" stroke-width="1.392" stroke-miterlimit="10"/>
<path d="M45.2521 108.654H52.472C53.3443 108.691 54.0867 107.986 54.0867 107.123C54.0867 107.003 54.0867 106.919 54.0496 106.789L53.4649 102.641C53.2979 101.602 52.3885 100.813 51.3491 100.776H44.0829C43.2105 100.739 42.4681 101.444 42.4681 102.307C42.4681 102.427 42.4681 102.511 42.5053 102.641L43.0899 106.789C43.2569 107.828 44.1664 108.617 45.2521 108.654Z" fill="white" stroke="#231F20" stroke-width="1.392" stroke-miterlimit="10"/>
<path d="M31.6013 108.654H38.8675C39.7398 108.691 40.4822 107.986 40.4822 107.123C40.4822 107.003 40.4822 106.919 40.4451 106.789L39.8605 102.641C39.6934 101.602 38.784 100.813 37.7446 100.776H30.4784C29.6061 100.739 28.8636 101.444 28.8636 102.307C28.8636 102.427 28.8636 102.511 28.9008 102.641L29.4854 106.789C29.6525 107.828 30.5619 108.617 31.6013 108.654Z" fill="white" stroke="#231F20" stroke-width="1.392" stroke-miterlimit="10"/>
<path d="M73.8531 118.074H81.1193C81.9916 118.111 82.734 117.405 82.734 116.542C82.734 116.422 82.734 116.338 82.6969 116.208L82.1123 112.06C81.9452 111.021 81.0358 110.232 79.9964 110.195H72.7302C71.8579 110.158 71.1155 110.863 71.1155 111.726C71.1155 111.847 71.1155 111.93 71.1526 112.06L71.7372 116.208C71.8579 117.248 72.7766 118.036 73.8531 118.074Z" fill="white" stroke="#231F20" stroke-width="1.392" stroke-miterlimit="10"/>
<path d="M60.1929 118.074H67.4592C68.3315 118.111 69.0739 117.405 69.0739 116.542C69.0739 116.422 69.0739 116.338 69.0368 116.208L68.4521 112.06C68.2851 111.021 67.3756 110.232 66.3363 110.195H59.07C58.1977 110.158 57.4553 110.863 57.4553 111.726C57.4553 111.847 57.4553 111.93 57.4924 112.06L58.0771 116.208C58.2441 117.248 59.1164 118.036 60.1929 118.074Z" fill="white" stroke="#231F20" stroke-width="1.392" stroke-miterlimit="10"/>
<path d="M46.5792 118.074H53.8454C54.7177 118.111 55.4601 117.405 55.4601 116.542C55.4601 116.422 55.4601 116.338 55.423 116.208L54.8384 112.06C54.6713 111.021 53.7619 110.232 52.7225 110.195H45.4563C44.584 110.158 43.8416 110.863 43.8416 111.726C43.8416 111.847 43.8416 111.93 43.8787 112.06L44.4633 116.208C44.6304 117.248 45.5027 118.036 46.5792 118.074Z" fill="white" stroke="#231F20" stroke-width="1.392" stroke-miterlimit="10"/>
<path d="M32.9748 118.074H40.241C41.1133 118.111 41.8557 117.405 41.8557 116.542C41.8557 116.422 41.8557 116.338 41.8186 116.208L41.234 112.06C41.0669 111.021 40.1575 110.232 39.1181 110.195H31.8519C30.9796 110.158 30.2372 110.863 30.2372 111.726C30.2372 111.847 30.2372 111.93 30.2743 112.06L30.8589 116.208C31.026 117.248 31.8983 118.036 32.9748 118.074Z" fill="white" stroke="#231F20" stroke-width="1.392" stroke-miterlimit="10"/>
<path d="M60.4434 119.605H81.3141C82.3906 119.642 83.2629 120.431 83.43 121.47L84.0146 125.618C84.1817 126.49 83.597 127.316 82.7247 127.446C82.6041 127.446 82.5205 127.483 82.3906 127.483H61.5199C60.4434 127.446 59.5711 126.657 59.404 125.618L58.8194 121.47C58.6524 120.598 59.237 119.772 60.1093 119.642C60.1929 119.605 60.3135 119.605 60.4434 119.605Z" fill="white" stroke="#231F20" stroke-width="1.392" stroke-miterlimit="10"/>
<path d="M47.9526 127.493H55.2188C56.0911 127.53 56.8335 126.825 56.8335 125.962C56.8335 125.841 56.8335 125.758 56.7964 125.628L56.2118 121.48C56.0447 120.44 55.1353 119.651 54.0959 119.614H46.8297C45.9574 119.577 45.215 120.282 45.215 121.146C45.215 121.266 45.215 121.35 45.2521 121.48L45.8367 125.628C45.9574 126.667 46.8761 127.456 47.9526 127.493Z" fill="white" stroke="#231F20" stroke-width="1.392" stroke-miterlimit="10"/>
<path d="M34.3017 127.493H41.5679C42.4402 127.53 43.1826 126.825 43.1826 125.962C43.1826 125.841 43.1826 125.758 43.1455 125.628L42.5609 121.48C42.3938 120.44 41.4844 119.651 40.445 119.614H33.1788C32.3065 119.577 31.5641 120.282 31.5641 121.146C31.5641 121.266 31.5641 121.35 31.6012 121.48L32.1858 125.628C32.3529 126.667 33.2623 127.456 34.3017 127.493Z" fill="white" stroke="#231F20" stroke-width="1.392" stroke-miterlimit="10"/>
<path d="M68.0623 55.8234H66.3641C65.9094 55.8234 65.4918 55.9904 65.2412 56.3245C64.9535 56.6586 64.8236 57.1133 64.9071 57.5309L65.5289 61.809C65.6124 62.2637 65.8166 62.7184 66.1971 63.0154C66.5311 63.3495 66.9859 63.5165 67.487 63.5165H69.1481C69.6028 63.5165 70.0204 63.3495 70.271 63.0154C70.5587 62.6813 70.6886 62.2266 70.6051 61.809L69.9833 57.5309C69.8998 57.0762 69.6956 56.6215 69.3151 56.3245C68.9811 55.9904 68.5263 55.8234 68.0716 55.8234H68.0623ZM66.5683 57.401C66.5683 57.0298 66.8559 56.6957 67.2364 56.6957H67.3199C67.5705 56.6957 67.7747 56.7792 67.9417 56.9463C68.1087 57.1133 68.2294 57.3175 68.2758 57.5309L68.6934 60.4356L66.5775 57.4103L66.5683 57.401ZM68.8883 61.9668C68.8883 62.1709 68.8047 62.338 68.6841 62.505C68.5171 62.6256 68.35 62.7092 68.1459 62.672C67.6447 62.672 67.2364 62.3008 67.1529 61.7997L66.7353 58.8951L68.8975 61.9668H68.8883Z" fill="white" stroke="#231F20" stroke-width="1.392" stroke-miterlimit="10"/>
<path d="M27.9913 135.706L25.0032 139.028" stroke="#231F20" stroke-width="1.392" stroke-miterlimit="10"/>
<path d="M52.3142 17.4878C52.3142 17.4878 42.7094 17.0052 43.3869 26.5822H59.7197C59.7197 26.5822 57.2512 17.4878 52.305 17.4878H52.3142Z" fill="white" stroke="#231F20" stroke-width="1.392" stroke-miterlimit="10"/>
<path d="M60.7033 32.7905C60.7033 32.7905 58.736 32.8276 58.0028 30.9345C57.2419 28.9764 56.7686 25.5149 55.6828 20.6337C55.3859 19.2973 54.7548 17.497 52.3142 17.497H78.1404C77.0268 24.2157 72.8137 30.5633 66.7168 32.7997C66.5961 32.8369 60.7033 32.7997 60.7033 32.7997V32.7905Z" fill="white" stroke="#231F20" stroke-width="1.392" stroke-miterlimit="10"/>
<path d="M73.584 1.22925C73.584 1.22925 66.3363 0.171341 65.2691 10.0545C64.2019 19.9377 71.6538 33.6721 60.7034 32.7905H107.001C107.001 32.7905 95.1786 -0.320508 73.584 1.22925Z" fill="white" stroke="#231F20" stroke-width="1.392" stroke-miterlimit="10"/>
<path d="M236.968 1.22928H71.7744C77.5651 1.22928 80.7111 13.1448 81.1287 15.8174L116.532 239.363H282.829L247.074 13.6088C245.116 1.22929 236.958 1.26641 236.958 1.26641V1.22928H236.968Z" fill="#231F20"/>
<path d="M243.974 1.22928H73.584C79.3747 1.22928 83.031 4.78352 85.184 8.07792C86.743 10.4722 87.7081 13.1355 88.1257 15.8174L121.589 227.086L120.522 234.454L137.978 239.363H289.827L254.071 13.6088C252.113 1.22929 243.955 1.26641 243.955 1.26641V1.22928H243.974Z" fill="white" stroke="#231F20" stroke-width="1.392" stroke-miterlimit="10"/>
<path d="M106.11 26.5913H119.975L121.784 38.015H107.92L106.11 26.5913Z" fill="white" stroke="#231F20" stroke-width="1.392" stroke-miterlimit="10"/>
<path d="M151.119 86.0205H178.847L182.466 108.868H154.738L151.119 86.0205Z" fill="url(#paint1_linear_96_26)" stroke="#231F20" stroke-width="1.392" stroke-miterlimit="10"/>
<path d="M117.479 93.528H145.198L147.629 108.868H119.91L117.479 93.528Z" fill="url(#paint2_linear_96_26)" stroke="#231F20" stroke-width="1.392" stroke-miterlimit="10"/>
<path d="M182.865 66.5507H210.594L217.285 108.803H189.566L182.865 66.5507Z" fill="url(#paint3_linear_96_26)" stroke="#231F20" stroke-width="1.392" stroke-miterlimit="10"/>
<path d="M215.058 49.8655H242.786L252.131 108.868H224.403L215.058 49.8655Z" fill="url(#paint4_linear_96_26)" stroke="#231F20" stroke-width="1.392" stroke-miterlimit="10"/>
<path d="M132.883 135.446C127.129 141.311 124.355 149.588 125.162 158.46H139.787C139.639 154.952 140.493 151.63 142.256 148.874C142.98 147.732 143.852 146.693 144.854 145.784C147.267 143.584 150.367 142.202 153.809 141.793L151.489 127.168C144.186 127.641 137.644 130.546 132.874 135.436L132.883 135.446Z" fill="white" stroke="#231F20" stroke-width="1.392" stroke-miterlimit="10"/>
<path d="M192.108 158.451C190.466 151.083 186.447 144.067 180.684 138.527L171.98 148.874C178.55 155.76 180.09 165.513 175.701 172.389C174.977 173.54 174.105 174.58 173.103 175.48C167.089 180.955 157.336 180.955 149.587 175.48C148.297 174.57 147.091 173.531 145.996 172.389C143.36 169.624 141.449 166.302 140.483 162.794H125.849C127.491 170.172 131.51 177.178 137.282 182.718C138.414 183.822 139.611 184.852 140.864 185.808C147.174 190.699 154.645 193.613 162.087 194.077C162.82 194.123 163.554 194.151 164.287 194.151C165.02 194.151 165.744 194.151 166.458 194.077C173.762 193.604 180.304 190.699 185.074 185.808C186.02 184.852 186.893 183.822 187.672 182.718C191.681 177.178 193.482 170.172 192.786 162.794C192.721 162.07 192.628 161.337 192.516 160.613C192.405 159.889 192.294 159.165 192.099 158.451H192.108Z" fill="url(#paint5_linear_96_26)" stroke="#231F20" stroke-width="1.392" stroke-miterlimit="10"/>
<path d="M177.112 135.446C170.792 130.555 163.322 127.641 155.87 127.177L158.19 141.803C161.763 142.211 165.308 143.594 168.416 145.793L177.121 135.455L177.112 135.446Z" fill="#231F20"/>
<path d="M135.435 204.294C137.783 204.294 139.194 205.649 140.437 206.818C141.681 207.987 142.683 208.971 144.502 208.971C146.321 208.971 147.035 207.969 147.88 206.818C148.724 205.667 149.736 204.294 152.084 204.294C154.431 204.294 155.842 205.649 157.086 206.818C158.329 207.987 159.331 208.971 161.15 208.971C162.969 208.971 163.684 207.969 164.528 206.818C165.373 205.667 166.384 204.294 168.732 204.294C171.08 204.294 172.49 205.649 173.734 206.818C174.977 207.987 175.98 208.971 177.799 208.971C179.617 208.971 180.332 207.969 181.176 206.818C182.021 205.667 183.032 204.294 185.38 204.294C187.728 204.294 189.139 205.649 190.382 206.818C191.626 207.987 192.628 208.971 194.447 208.971C196.266 208.971 196.98 207.969 197.825 206.818C198.669 205.667 199.681 204.294 202.029 204.294C204.376 204.294 205.787 205.649 207.03 206.818C208.274 207.987 209.276 208.971 211.095 208.971C212.914 208.971 213.629 207.969 214.473 206.818C215.318 205.667 216.329 204.294 218.677 204.294C221.025 204.294 222.435 205.649 223.679 206.818C224.922 207.987 225.925 208.971 227.743 208.971C229.562 208.971 230.277 207.969 231.121 206.818C231.966 205.667 232.977 204.294 235.325 204.294C237.673 204.294 239.084 205.649 240.327 206.818C241.571 207.987 242.573 208.971 244.392 208.971C246.211 208.971 246.935 207.969 247.77 206.818C248.605 205.667 249.626 204.294 251.974 204.294C254.321 204.294 255.732 205.649 256.985 206.818C258.238 207.987 259.23 208.971 261.059 208.971C262.887 208.971 263.601 207.969 264.446 206.818C265.29 205.667 266.302 204.294 268.65 204.294" fill="white"/>
<path d="M135.435 204.294C137.783 204.294 139.194 205.649 140.437 206.818C141.681 207.987 142.683 208.971 144.502 208.971C146.321 208.971 147.035 207.969 147.88 206.818C148.724 205.667 149.736 204.294 152.084 204.294C154.431 204.294 155.842 205.649 157.086 206.818C158.329 207.987 159.331 208.971 161.15 208.971C162.969 208.971 163.684 207.969 164.528 206.818C165.373 205.667 166.384 204.294 168.732 204.294C171.08 204.294 172.49 205.649 173.734 206.818C174.977 207.987 175.98 208.971 177.799 208.971C179.617 208.971 180.332 207.969 181.176 206.818C182.021 205.667 183.032 204.294 185.38 204.294C187.728 204.294 189.139 205.649 190.382 206.818C191.626 207.987 192.628 208.971 194.447 208.971C196.266 208.971 196.98 207.969 197.825 206.818C198.669 205.667 199.681 204.294 202.029 204.294C204.376 204.294 205.787 205.649 207.03 206.818C208.274 207.987 209.276 208.971 211.095 208.971C212.914 208.971 213.629 207.969 214.473 206.818C215.318 205.667 216.329 204.294 218.677 204.294C221.025 204.294 222.435 205.649 223.679 206.818C224.922 207.987 225.925 208.971 227.743 208.971C229.562 208.971 230.277 207.969 231.121 206.818C231.966 205.667 232.977 204.294 235.325 204.294C237.673 204.294 239.084 205.649 240.327 206.818C241.571 207.987 242.573 208.971 244.392 208.971C246.211 208.971 246.935 207.969 247.77 206.818C248.605 205.667 249.626 204.294 251.974 204.294C254.321 204.294 255.732 205.649 256.985 206.818C258.238 207.987 259.23 208.971 261.059 208.971C262.887 208.971 263.601 207.969 264.446 206.818C265.29 205.667 266.302 204.294 268.65 204.294" stroke="#231F20" stroke-width="1.392" stroke-miterlimit="10"/>
<path d="M137.356 216.395C139.704 216.395 141.115 217.75 142.358 218.92C143.602 220.089 144.604 221.073 146.423 221.073C148.242 221.073 148.956 220.07 149.801 218.92C150.645 217.769 151.657 216.395 154.005 216.395C156.352 216.395 157.763 217.75 159.006 218.92C160.25 220.089 161.252 221.073 163.071 221.073C164.89 221.073 165.605 220.07 166.449 218.92C167.293 217.769 168.305 216.395 170.653 216.395C173.001 216.395 174.411 217.75 175.655 218.92C176.898 220.089 177.901 221.073 179.719 221.073C181.538 221.073 182.253 220.07 183.097 218.92C183.942 217.769 184.953 216.395 187.301 216.395C189.649 216.395 191.06 217.75 192.303 218.92C193.547 220.089 194.549 221.073 196.368 221.073C198.187 221.073 198.901 220.07 199.746 218.92C200.59 217.769 201.602 216.395 203.949 216.395C206.297 216.395 207.708 217.75 208.951 218.92C210.195 220.089 211.197 221.073 213.016 221.073C214.835 221.073 215.549 220.07 216.394 218.92C217.238 217.769 218.25 216.395 220.598 216.395C222.946 216.395 224.356 217.75 225.6 218.92C226.843 220.089 227.845 221.073 229.664 221.073C231.483 221.073 232.198 220.07 233.042 218.92C233.887 217.769 234.898 216.395 237.246 216.395C239.594 216.395 241.005 217.75 242.248 218.92C243.492 220.089 244.494 221.073 246.313 221.073C248.132 221.073 248.855 220.07 249.691 218.92C250.526 217.769 251.547 216.395 253.894 216.395C256.242 216.395 257.653 217.75 258.906 218.92C260.158 220.089 261.151 221.073 262.98 221.073C264.808 221.073 265.522 220.07 266.367 218.92C267.211 217.769 268.223 216.395 270.571 216.395" fill="white"/>
<path d="M137.356 216.395C139.704 216.395 141.115 217.75 142.358 218.92C143.602 220.089 144.604 221.073 146.423 221.073C148.242 221.073 148.956 220.07 149.801 218.92C150.645 217.769 151.657 216.395 154.005 216.395C156.352 216.395 157.763 217.75 159.006 218.92C160.25 220.089 161.252 221.073 163.071 221.073C164.89 221.073 165.605 220.07 166.449 218.92C167.293 217.769 168.305 216.395 170.653 216.395C173.001 216.395 174.411 217.75 175.655 218.92C176.898 220.089 177.901 221.073 179.719 221.073C181.538 221.073 182.253 220.07 183.097 218.92C183.942 217.769 184.953 216.395 187.301 216.395C189.649 216.395 191.06 217.75 192.303 218.92C193.547 220.089 194.549 221.073 196.368 221.073C198.187 221.073 198.901 220.07 199.746 218.92C200.59 217.769 201.602 216.395 203.949 216.395C206.297 216.395 207.708 217.75 208.951 218.92C210.195 220.089 211.197 221.073 213.016 221.073C214.835 221.073 215.549 220.07 216.394 218.92C217.238 217.769 218.25 216.395 220.598 216.395C222.946 216.395 224.356 217.75 225.6 218.92C226.843 220.089 227.845 221.073 229.664 221.073C231.483 221.073 232.198 220.07 233.042 218.92C233.887 217.769 234.898 216.395 237.246 216.395C239.594 216.395 241.005 217.75 242.248 218.92C243.492 220.089 244.494 221.073 246.313 221.073C248.132 221.073 248.855 220.07 249.691 218.92C250.526 217.769 251.547 216.395 253.894 216.395C256.242 216.395 257.653 217.75 258.906 218.92C260.158 220.089 261.151 221.073 262.98 221.073C264.808 221.073 265.522 220.07 266.367 218.92C267.211 217.769 268.223 216.395 270.571 216.395" stroke="#231F20" stroke-width="1.392" stroke-miterlimit="10"/>
<path d="M121.599 227.086L137.987 239.363" stroke="#231F20" stroke-width="1.392" stroke-miterlimit="10"/>
<path d="M132.883 29.2548H240.912" stroke="#231F20" stroke-width="1.392" stroke-miterlimit="10"/>
<path d="M133.848 35.3423H199.996" stroke="#231F20" stroke-width="1.392" stroke-miterlimit="10"/>
<path d="M109.47 47.7962H123.334L125.144 59.2198H111.279L109.47 47.7962Z" fill="white" stroke="#231F20" stroke-width="1.392" stroke-miterlimit="10"/>
<path d="M136.242 50.4688H202.39" stroke="#231F20" stroke-width="1.392" stroke-miterlimit="10"/>
<path d="M137.208 56.5564H177.715" stroke="#231F20" stroke-width="1.392" stroke-miterlimit="10"/>
<path d="M112.829 69.0101H126.693L128.503 80.4338H114.639L112.829 69.0101Z" fill="white" stroke="#231F20" stroke-width="1.392" stroke-miterlimit="10"/>
<path d="M139.602 71.6736H169.604" stroke="#231F20" stroke-width="1.392" stroke-miterlimit="10"/>
<path d="M140.567 77.7704H158.941" stroke="#231F20" stroke-width="1.392" stroke-miterlimit="10"/>
<path d="M312.943 195.571L315.272 193.567C316.59 192.425 316.739 190.439 315.606 189.112L291.896 161.588L284.787 167.713L308.489 195.228C309.63 196.545 311.616 196.694 312.943 195.562V195.571Z" fill="white" stroke="#231F20" stroke-width="1.392" stroke-miterlimit="10"/>
<path d="M294.337 155.63L271.796 129.275L256.836 142.063L279.377 168.418C282.913 172.547 289.121 173.03 293.251 169.503C297.38 165.968 297.863 159.76 294.337 155.63Z" fill="url(#paint6_linear_96_26)" stroke="#231F20" stroke-width="1.392" stroke-miterlimit="10"/>
<path d="M305.643 184.768L305.635 184.774C301.566 188.28 301.108 194.421 304.614 198.49L341.879 241.754C345.384 245.823 351.525 246.281 355.595 242.775L355.602 242.769C359.671 239.264 360.129 233.123 356.623 229.053L319.358 185.79C315.853 181.72 309.712 181.263 305.643 184.768Z" fill="url(#paint7_linear_96_26)" stroke="#231F20" stroke-width="1.392" stroke-miterlimit="10"/>
<path d="M251.584 177.234C281.915 177.234 306.503 152.646 306.503 122.315C306.503 91.9839 281.915 67.3958 251.584 67.3958C221.253 67.3958 196.665 91.9839 196.665 122.315C196.665 152.646 221.253 177.234 251.584 177.234Z" fill="#D1D3D4" stroke="#231F20" stroke-width="1.392" stroke-linecap="round" stroke-linejoin="round"/>
<path d="M284.708 155.44C303.002 137.146 303.002 107.485 284.708 89.1906C266.413 70.8963 236.752 70.8963 218.458 89.1906C200.164 107.485 200.164 137.146 218.458 155.44C236.752 173.734 266.413 173.734 284.708 155.44Z" fill="white" stroke="#231F20" stroke-width="1.392" stroke-miterlimit="10"/>
<path d="M266.2 89.1945L236.977 155.426" stroke="#231F20" stroke-width="1.392" stroke-miterlimit="10"/>
<path d="M240.253 108.933C243.907 108.933 246.869 105.97 246.869 102.316C246.869 98.6619 243.907 95.6996 240.253 95.6996C236.598 95.6996 233.636 98.6619 233.636 102.316C233.636 105.97 236.598 108.933 240.253 108.933Z" fill="white" stroke="#231F20" stroke-width="1.392" stroke-miterlimit="10"/>
<path d="M262.924 148.921C266.578 148.921 269.54 145.958 269.54 142.304C269.54 138.65 266.578 135.687 262.924 135.687C259.269 135.687 256.307 138.65 256.307 142.304C256.307 145.958 259.269 148.921 262.924 148.921Z" fill="white" stroke="#231F20" stroke-width="1.392" stroke-miterlimit="10"/>
<defs>
<linearGradient id="paint0_linear_96_26" x1="48.7182" y1="52.7518" x2="48.7182" y2="67.3585" gradientUnits="userSpaceOnUse">
<stop stop-color="#68E1FD"/>
<stop offset="1" stop-color="#0D54DB"/>
</linearGradient>
<linearGradient id="paint1_linear_96_26" x1="166.792" y1="86.0205" x2="166.792" y2="108.868" gradientUnits="userSpaceOnUse">
<stop stop-color="#68E1FD"/>
<stop offset="1" stop-color="#0D54DB"/>
</linearGradient>
<linearGradient id="paint2_linear_96_26" x1="132.554" y1="93.528" x2="132.554" y2="108.868" gradientUnits="userSpaceOnUse">
<stop stop-color="#68E1FD"/>
<stop offset="1" stop-color="#0D54DB"/>
</linearGradient>
<linearGradient id="paint3_linear_96_26" x1="200.075" y1="66.5507" x2="200.075" y2="108.803" gradientUnits="userSpaceOnUse">
<stop stop-color="#68E1FD"/>
<stop offset="1" stop-color="#0D54DB"/>
</linearGradient>
<linearGradient id="paint4_linear_96_26" x1="233.595" y1="49.8655" x2="233.595" y2="108.868" gradientUnits="userSpaceOnUse">
<stop stop-color="#68E1FD"/>
<stop offset="1" stop-color="#0D54DB"/>
</linearGradient>
<linearGradient id="paint5_linear_96_26" x1="159.39" y1="138.527" x2="159.39" y2="194.151" gradientUnits="userSpaceOnUse">
<stop stop-color="#68E1FD"/>
<stop offset="1" stop-color="#0D54DB"/>
</linearGradient>
<linearGradient id="paint6_linear_96_26" x1="276.766" y1="129.275" x2="276.766" y2="171.862" gradientUnits="userSpaceOnUse">
<stop stop-color="#68E1FD"/>
<stop offset="1" stop-color="#0D54DB"/>
</linearGradient>
<linearGradient id="paint7_linear_96_26" x1="305.639" y1="184.771" x2="355.598" y2="242.772" gradientUnits="userSpaceOnUse">
<stop stop-color="#68E1FD"/>
<stop offset="1" stop-color="#0D54DB"/>
</linearGradient>
</defs>
</svg>
