<svg width="48" height="48" viewBox="0 0 48 48" fill="none" xmlns="http://www.w3.org/2000/svg">
<path d="M43.6576 33.4284H40.2856V28.9079C40.2842 27.8339 39.857 26.8044 39.0976 26.045C38.3382 25.2856 37.3087 24.8584 36.2347 24.857H24.857V17.9999H29.6399C30.1897 17.999 30.7168 17.7801 31.1056 17.3913C31.4944 17.0025 31.7132 16.4754 31.7141 15.9256V4.64558C31.7132 4.09572 31.4944 3.56864 31.1056 3.17983C30.7168 2.79103 30.1897 2.5722 29.6399 2.57129H18.3599C17.81 2.5722 17.2829 2.79103 16.8941 3.17983C16.5053 3.56864 16.2865 4.09572 16.2856 4.64558V15.9256C16.2865 16.4754 16.5053 17.0025 16.8941 17.3913C17.2829 17.7801 17.81 17.999 18.3599 17.9999H23.1427V24.857H11.765C10.6911 24.8584 9.66151 25.2856 8.90212 26.045C8.14273 26.8044 7.71551 27.8339 7.71415 28.9079V33.4284H4.34215C3.87278 33.4284 3.42262 33.6148 3.09057 33.9465C2.75852 34.2782 2.57174 34.7282 2.57129 35.1976V43.6593C2.57174 44.1287 2.75852 44.5786 3.09057 44.9104C3.42262 45.2421 3.87278 45.4284 4.34215 45.4284H12.8004C13.2698 45.4284 13.72 45.2421 14.052 44.9104C14.3841 44.5786 14.5708 44.1287 14.5713 43.6593V35.1976C14.5708 34.7282 14.3841 34.2782 14.052 33.9465C13.72 33.6148 13.2698 33.4284 12.8004 33.4284H9.42843V28.9079C9.42889 28.2883 9.67521 27.6943 10.1133 27.2562C10.5514 26.8181 11.1454 26.5717 11.765 26.5713H23.1427V33.4284H19.7707C19.3014 33.4284 18.8512 33.6148 18.5191 33.9465C18.1871 34.2782 18.0003 34.7282 17.9999 35.1976V43.6593C18.0003 44.1287 18.1871 44.5786 18.5191 44.9104C18.8512 45.2421 19.3014 45.4284 19.7707 45.4284H28.229C28.6984 45.4284 29.1485 45.2421 29.4806 44.9104C29.8126 44.5786 29.9994 44.1287 29.9999 43.6593V35.1976C29.9994 34.7282 29.8126 34.2782 29.4806 33.9465C29.1485 33.6148 28.6984 33.4284 28.229 33.4284H24.857V26.5713H36.2347C36.8543 26.5717 37.4483 26.8181 37.8864 27.2562C38.3245 27.6943 38.5708 28.2883 38.5713 28.9079V33.4284H35.1993C34.7299 33.4284 34.2798 33.6148 33.9477 33.9465C33.6157 34.2782 33.4289 34.7282 33.4284 35.1976V43.6593C33.4289 44.1287 33.6157 44.5786 33.9477 44.9104C34.2798 45.2421 34.7299 45.4284 35.1993 45.4284H43.6576C44.1269 45.4284 44.5771 45.2421 44.9092 44.9104C45.2412 44.5786 45.428 44.1287 45.4284 43.6593V35.1976C45.428 34.7282 45.2412 34.2782 44.9092 33.9465C44.5771 33.6148 44.1269 33.4284 43.6576 33.4284ZM17.9999 15.9256V4.64558C17.9999 4.5983 18.0092 4.55149 18.0273 4.50781C18.0454 4.46413 18.0719 4.42445 18.1053 4.39102C18.1387 4.35759 18.1784 4.33107 18.2221 4.31298C18.2658 4.29489 18.3126 4.28557 18.3599 4.28557H29.6399C29.7353 4.28557 29.8269 4.3235 29.8944 4.39102C29.9619 4.45853 29.9999 4.5501 29.9999 4.64558V15.9256C29.9999 15.9729 29.9906 16.0197 29.9725 16.0633C29.9544 16.107 29.9278 16.1467 29.8944 16.1801C29.861 16.2136 29.8213 16.2401 29.7776 16.2582C29.734 16.2763 29.6871 16.2856 29.6399 16.2856H18.3599C18.3126 16.2856 18.2658 16.2763 18.2221 16.2582C18.1784 16.2401 18.1387 16.2136 18.1053 16.1801C18.0719 16.1467 18.0454 16.107 18.0273 16.0633C18.0092 16.0197 17.9999 15.9729 17.9999 15.9256ZM12.857 35.1976V43.6593C12.8566 43.674 12.8504 43.688 12.8398 43.6982C12.8293 43.7084 12.8151 43.7142 12.8004 43.7141L4.28557 43.6593L4.34215 35.1427L12.857 35.1976ZM28.2856 35.1976V43.6593C28.2851 43.674 28.279 43.688 28.2684 43.6982C28.2579 43.7084 28.2437 43.7142 28.229 43.7141L19.7141 43.6593L19.7707 35.1427L28.2856 35.1976ZM43.7141 43.6593C43.7137 43.674 43.7075 43.688 43.697 43.6982C43.6864 43.7084 43.6723 43.7142 43.6576 43.7141L35.1427 43.6593L35.1993 35.1427L43.7141 35.1976V43.6593Z" fill="white"/>
</svg>
