<svg width="48" height="48" viewBox="0 0 48 48" fill="none" xmlns="http://www.w3.org/2000/svg">
<path d="M6.02002 22.4399V31.4199C6.02002 40.3999 9.62002 43.9999 18.6 43.9999H29.38C38.36 43.9999 41.96 40.3999 41.96 31.4199V22.4399" stroke="white" stroke-width="1.5" stroke-linecap="round" stroke-linejoin="round"/>
<path d="M24 24C27.66 24 30.36 21.02 30 17.36L28.68 4H19.34L18 17.36C17.64 21.02 20.34 24 24 24Z" stroke="white" stroke-width="1.5" stroke-linecap="round" stroke-linejoin="round"/>
<path d="M36.6201 24C40.6601 24 43.6201 20.72 43.2201 16.7L42.6601 11.2C41.9401 6 39.9401 4 34.7001 4H28.6001L30.0001 18.02C30.3401 21.32 33.3201 24 36.6201 24Z" stroke="white" stroke-width="1.5" stroke-linecap="round" stroke-linejoin="round"/>
<path d="M11.28 24C14.58 24 17.56 21.32 17.88 18.02L18.32 13.6L19.28 4H13.18C7.94001 4 5.94001 6 5.22001 11.2L4.68001 16.7C4.28001 20.72 7.24001 24 11.28 24Z" stroke="white" stroke-width="1.5" stroke-linecap="round" stroke-linejoin="round"/>
<path d="M24 34C20.66 34 19 35.66 19 39V44H29V39C29 35.66 27.34 34 24 34Z" stroke="white" stroke-width="1.5" stroke-linecap="round" stroke-linejoin="round"/>
</svg>
