<svg width="48" height="48" viewBox="0 0 48 48" fill="none" xmlns="http://www.w3.org/2000/svg">
<g clip-path="url(#clip0_1_99)">
<path d="M37.3322 27.1884C38.0672 26.9916 38.5603 26.3494 38.5603 25.5891V24.5634H42.9197C43.1737 25.6078 44.1169 26.3869 45.2381 26.3869C46.5544 26.3869 47.6241 25.3162 47.6241 24C47.6241 22.6838 46.5534 21.6131 45.2381 21.6131C44.1159 21.6131 43.1737 22.3913 42.9197 23.4366H38.5603V22.4109C38.5603 21.6506 38.0662 21.0084 37.3322 20.8116L35.6438 20.3587C35.4272 19.6631 35.1469 18.9862 34.8075 18.3403L35.6803 16.8281C36.0619 16.1691 35.9569 15.3647 35.4187 14.8266L34.6931 14.1009L37.6856 11.1084H42.9197C43.1737 12.1528 44.1169 12.9319 45.2381 12.9319C46.5544 12.9319 47.6241 11.8612 47.6241 10.545C47.6241 9.22875 46.5534 8.15812 45.2381 8.15812C44.1159 8.15812 43.1737 8.93625 42.9197 9.98156H37.4522C37.3031 9.98156 37.1597 10.0406 37.0537 10.1466L33.8962 13.3041L33.1734 12.5812C32.6353 12.0431 31.8309 11.9372 31.1728 12.3187L29.6597 13.1925C29.0119 12.8531 28.3359 12.5728 27.6413 12.3544L27.1884 10.6678C26.9916 9.93281 26.3494 9.43969 25.5891 9.43969H24.5634V5.08031C25.6078 4.82625 26.3869 3.88312 26.3869 2.76187C26.3869 1.44562 25.3163 0.375 24.0009 0.375C22.6856 0.375 21.6141 1.44562 21.6141 2.76187C21.6141 3.88406 22.3922 4.82625 23.4375 5.08031V9.43969H22.4119C21.6525 9.43969 21.0094 9.93281 20.8125 10.6678L20.3597 12.3544C19.6659 12.5719 18.9891 12.8531 18.3412 13.1925L16.8263 12.3159C16.1672 11.9381 15.3637 12.045 14.8266 12.5822L14.1038 13.305L10.9462 10.1475C10.8939 10.0952 10.8318 10.0537 10.7634 10.0254C10.6951 9.99706 10.6218 9.98249 10.5478 9.9825H5.08031C4.82625 8.93813 3.88312 8.15906 2.76187 8.15906C1.44562 8.15906 0.375 9.22969 0.375 10.5459C0.375 11.8622 1.44562 12.9328 2.76187 12.9328C3.88406 12.9328 4.82625 12.1547 5.08031 11.1094H10.3144L13.3069 14.1019L12.5812 14.8275C12.0431 15.3656 11.9381 16.17 12.3187 16.8281L13.1925 18.3412C12.8531 18.9872 12.5728 19.6641 12.3563 20.3597L10.6678 20.8125C9.93281 21.0094 9.43969 21.6516 9.43969 22.4119V23.4375H5.08031C4.82625 22.3931 3.88312 21.6141 2.76187 21.6141C1.44562 21.6141 0.375 22.6847 0.375 24.0009C0.375 25.3172 1.44562 26.3878 2.76187 26.3878C3.88406 26.3878 4.82625 25.6097 5.08031 24.5644H9.43969V25.5872C9.43969 26.3484 9.93281 26.9925 10.6678 27.1894L12.3563 27.6422C12.5728 28.3369 12.8531 29.0128 13.1925 29.6587L12.3197 31.1737C11.9381 31.8328 12.0431 32.6372 12.5822 33.1753L13.3059 33.8991L10.3153 36.8897H5.08125C4.82719 35.8453 3.88406 35.0662 2.76281 35.0662C1.44656 35.0662 0.375938 36.1369 0.375938 37.4531C0.375938 38.7694 1.44656 39.84 2.76281 39.84C3.885 39.84 4.82719 39.0619 5.08125 38.0166H10.5487C10.6978 38.0166 10.8412 37.9575 10.9472 37.8516L14.1028 34.6959L14.8284 35.4216C15.3684 35.9578 16.1719 36.0619 16.8281 35.6822L18.3412 34.8084C18.99 35.1488 19.6669 35.4291 20.3597 35.6447L20.8125 37.3341C21.0103 38.0681 21.6525 38.5612 22.4119 38.5612H23.4375V42.9206C22.3931 43.1747 21.6141 44.1178 21.6141 45.2391C21.6141 46.5553 22.6847 47.6259 24.0009 47.6259C25.3172 47.6259 26.3869 46.5553 26.3869 45.2391C26.3869 44.1169 25.6088 43.1747 24.5634 42.9206V38.5612H25.5891C26.3475 38.5612 26.9906 38.0681 27.1884 37.3331L27.6413 35.6447C28.3341 35.4291 29.0109 35.1488 29.6597 34.8084L31.1719 35.6822C31.8281 36.0619 32.6316 35.9578 33.1734 35.4197L33.8972 34.6959L37.0528 37.8516C37.1051 37.9039 37.1673 37.9454 37.2356 37.9737C37.304 38.002 37.3773 38.0166 37.4513 38.0166H42.9187C43.1728 39.0609 44.1159 39.84 45.2372 39.84C46.5534 39.84 47.6231 38.7694 47.6231 37.4531C47.6231 36.1369 46.5525 35.0662 45.2372 35.0662C44.115 35.0662 43.1728 35.8444 42.9187 36.8897H37.6847L34.6941 33.8991L35.4187 33.1744C35.9569 32.6362 36.0619 31.8319 35.6813 31.1737L34.8075 29.6578C35.1459 29.0128 35.4272 28.3369 35.6456 27.6413L37.3322 27.1884ZM45.2391 22.74C45.9338 22.74 46.4991 23.3053 46.4991 24C46.4991 24.6947 45.9338 25.26 45.2391 25.26C44.5444 25.26 43.9791 24.6947 43.9791 24C43.9791 23.3053 44.5444 22.74 45.2391 22.74ZM45.2391 9.285C45.9338 9.285 46.4991 9.85031 46.4991 10.545C46.4991 11.2397 45.9338 11.805 45.2391 11.805C44.5444 11.805 43.9791 11.2397 43.9791 10.545C43.9791 9.85031 44.5444 9.285 45.2391 9.285ZM22.74 2.76187C22.74 2.06719 23.3053 1.50188 24 1.50188C24.6947 1.50188 25.26 2.06719 25.26 2.76187C25.26 3.45656 24.6947 4.02188 24 4.02188C23.3053 4.02188 22.74 3.45656 22.74 2.76187ZM2.76187 11.805C2.06719 11.805 1.50188 11.2397 1.50188 10.545C1.50188 9.85031 2.06719 9.285 2.76187 9.285C3.45656 9.285 4.02188 9.85031 4.02188 10.545C4.02188 11.2397 3.45656 11.805 2.76187 11.805ZM2.76187 25.26C2.06719 25.26 1.50188 24.6947 1.50188 24C1.50188 23.3053 2.06719 22.74 2.76187 22.74C3.45656 22.74 4.02188 23.3053 4.02188 24C4.02188 24.6947 3.45656 25.26 2.76187 25.26ZM2.76187 38.7122C2.06719 38.7122 1.50188 38.1469 1.50188 37.4522C1.50188 36.7575 2.06719 36.1922 2.76187 36.1922C3.45656 36.1922 4.02188 36.7575 4.02188 37.4522C4.02188 38.1469 3.45656 38.7122 2.76187 38.7122ZM25.26 45.2391C25.26 45.9338 24.6947 46.4991 24 46.4991C23.3053 46.4991 22.74 45.9338 22.74 45.2391C22.74 44.5444 23.3053 43.9791 24 43.9791C24.6947 43.9791 25.26 44.5444 25.26 45.2391ZM45.2391 36.1931C45.9338 36.1931 46.4991 36.7584 46.4991 37.4531C46.4991 38.1478 45.9338 38.7131 45.2391 38.7131C44.5444 38.7131 43.9791 38.1478 43.9791 37.4531C43.9791 36.7584 44.5444 36.1931 45.2391 36.1931ZM34.6547 27.0244C34.4203 27.8475 34.0894 28.6444 33.6712 29.3906C33.6237 29.4758 33.599 29.572 33.5997 29.6696C33.6003 29.7672 33.6263 29.8629 33.675 29.9475L34.7063 31.7372C34.83 31.9509 34.7972 32.2022 34.6228 32.3766L32.3784 34.6209C32.2022 34.7962 31.95 34.8291 31.7362 34.7053L29.9503 33.6741C29.8659 33.6253 29.7703 33.5994 29.6728 33.5987C29.5754 33.598 29.4794 33.6227 29.3944 33.6703C28.6416 34.0903 27.8447 34.4203 27.0262 34.6509C26.9322 34.6774 26.8468 34.7278 26.7782 34.7974C26.7097 34.8669 26.6604 34.9531 26.6353 35.0475L26.1009 37.0397C26.0363 37.2788 25.8356 37.4334 25.59 37.4334H22.4119C22.1663 37.4334 21.9656 37.2788 21.9009 37.0406L21.3666 35.0475C21.3413 34.9532 21.292 34.8671 21.2235 34.7976C21.155 34.728 21.0696 34.6775 20.9756 34.6509C20.1572 34.4203 19.3603 34.0903 18.6075 33.6703C18.5224 33.6227 18.4264 33.5981 18.3289 33.5989C18.2314 33.5998 18.1358 33.626 18.0516 33.675L16.2647 34.7063C16.0519 34.83 15.7997 34.7962 15.6253 34.6228L13.3791 32.3766C13.2047 32.2022 13.1719 31.9509 13.2956 31.7353L14.3269 29.9466C14.3756 29.862 14.4016 29.7662 14.4022 29.6686C14.4029 29.571 14.3782 29.4749 14.3306 29.3897C13.9125 28.6425 13.5825 27.8466 13.35 27.0244C13.3234 26.9304 13.2729 26.845 13.2034 26.7765C13.1339 26.708 13.0477 26.6587 12.9534 26.6334L10.9603 26.0991C10.7213 26.0353 10.5675 25.8337 10.5675 25.5853V22.41C10.5675 22.1634 10.7222 21.9628 10.9603 21.8991L12.9534 21.3647C13.0477 21.3395 13.1339 21.2902 13.2034 21.2216C13.2729 21.1531 13.3234 21.0677 13.35 20.9738C13.5825 20.1506 13.9116 19.3538 14.3306 18.6066C14.3784 18.5214 14.4032 18.4253 14.4026 18.3276C14.4019 18.23 14.3758 18.1342 14.3269 18.0497L13.2956 16.2628C13.1719 16.0491 13.2047 15.7978 13.3791 15.6225L15.6244 13.3772C15.7997 13.2019 16.0519 13.1691 16.2647 13.2909L18.0506 14.325C18.1351 14.3739 18.2308 14.4 18.3284 14.4008C18.426 14.4016 18.5222 14.3771 18.6075 14.3297C19.3584 13.9106 20.1562 13.5797 20.9775 13.3453C21.0711 13.3186 21.1562 13.2681 21.2245 13.1988C21.2929 13.1295 21.3421 13.0437 21.3675 12.9497L21.9019 10.9594C21.9656 10.7203 22.1663 10.5666 22.4128 10.5666H25.5909C25.8375 10.5666 26.0381 10.7203 26.1019 10.9594L26.6362 12.9497C26.6616 13.0437 26.7109 13.1295 26.7792 13.1988C26.8475 13.2681 26.9326 13.3186 27.0262 13.3453C27.8475 13.5797 28.6453 13.9106 29.3962 14.3297C29.4813 14.3773 29.5773 14.402 29.6747 14.4013C29.7722 14.4006 29.8678 14.3747 29.9522 14.3259L31.7391 13.2947C31.9528 13.1709 32.2041 13.2037 32.3794 13.3781L34.6247 15.6234C34.7991 15.7978 34.8319 16.0491 34.7081 16.2638L33.6769 18.0497C33.6281 18.1343 33.6022 18.23 33.6015 18.3276C33.6009 18.4252 33.6255 18.5213 33.6731 18.6066C34.0912 19.3538 34.4213 20.1506 34.6538 20.9738C34.68 21.0678 34.7305 21.1534 34.8 21.222C34.8696 21.2906 34.9559 21.3398 35.0503 21.3647L37.0434 21.8991C37.2825 21.9628 37.4362 22.1634 37.4362 22.41V25.5881C37.4362 25.8347 37.2816 26.0353 37.0434 26.0991L35.0531 26.6334C34.9591 26.6588 34.8733 26.7081 34.804 26.7764C34.7347 26.8447 34.6842 26.9298 34.6575 27.0234L34.6547 27.0244ZM24.0009 15.9056C19.5394 15.9056 15.9094 19.5366 15.9094 24C15.9094 28.4634 19.5394 32.0925 24.0009 32.0925C28.4625 32.0925 32.0925 28.4625 32.0925 24C32.0925 19.5375 28.4625 15.9056 24.0009 15.9056ZM18.1163 27.7191L20.2378 25.5975C20.3093 25.526 20.3603 25.4366 20.3854 25.3386C20.4105 25.2406 20.4087 25.1377 20.3803 25.0406C20.282 24.7028 20.2325 24.3527 20.2331 24.0009C20.2331 22.0153 21.7772 20.3831 23.7272 20.2425L22.4119 21.5588C22.3419 21.6286 22.2917 21.7156 22.2662 21.8111C22.2406 21.9066 22.2408 22.0071 22.2666 22.1025L22.9491 24.6534C23.0016 24.8484 23.1534 25.0003 23.3475 25.0519L25.8984 25.7353C25.9939 25.7609 26.0943 25.7609 26.1898 25.7354C26.2852 25.7099 26.3722 25.6598 26.4422 25.59L27.7584 24.2747C27.6178 26.2247 25.9856 27.7688 24 27.7688C23.6428 27.7688 23.2922 27.7191 22.9566 27.6216C22.8596 27.5934 22.7569 27.5918 22.6591 27.6168C22.5613 27.6419 22.4721 27.6927 22.4006 27.7641L20.2819 29.8856C19.41 29.3325 18.6684 28.5919 18.1153 27.7191H18.1163ZM24.0009 30.9656C23.055 30.9656 22.1522 30.7753 21.3291 30.4322L22.9725 28.7869C23.3081 28.8591 23.6531 28.8956 24.0009 28.8956C26.7 28.8956 28.8956 26.7 28.8956 24.0009C28.8956 23.6334 28.8534 23.2603 28.77 22.8928C28.725 22.6931 28.5741 22.5328 28.3772 22.4766C28.1803 22.4203 27.9675 22.4738 27.8222 22.6191L25.8759 24.5634L23.9531 24.0487L23.4384 22.1259L25.3828 20.1797C25.4541 20.1084 25.505 20.0193 25.53 19.9217C25.5551 19.8241 25.5535 19.7215 25.5253 19.6247C25.4973 19.528 25.444 19.4406 25.3708 19.3715C25.2976 19.3024 25.2072 19.2542 25.1091 19.2319C24.7416 19.1484 24.3694 19.1063 24.0009 19.1063C21.3019 19.1063 19.1063 21.3019 19.1063 24.0009C19.1063 24.3497 19.1428 24.6937 19.215 25.0275L17.5697 26.6728C17.2168 25.8263 17.0355 24.9181 17.0363 24.0009C17.0363 20.1591 20.1609 17.0334 24.0019 17.0334C27.8428 17.0334 30.9675 20.1591 30.9675 24.0009C30.9675 27.8428 27.8428 30.9666 24.0019 30.9666L24.0009 30.9656Z" fill="white"/>
</g>
<defs>
<clipPath id="clip0_1_99">
<rect width="48" height="48" fill="white"/>
</clipPath>
</defs>
</svg>
