<svg width="494" height="342" viewBox="0 0 494 342" fill="none" xmlns="http://www.w3.org/2000/svg">
<path d="M346.282 128.539H81.0548C72.1709 128.539 64.9829 137.826 64.9829 149.287V321.297C64.9829 332.758 72.1709 342.045 81.0548 342.045H346.363C355.247 342.045 362.435 332.758 362.435 321.297V149.287C362.435 137.826 355.166 128.539 346.282 128.539Z" fill="white"/>
<path d="M346.282 342.836H81.0548C71.8477 342.836 64.4175 333.252 64.4175 321.396V149.287C64.4175 137.431 71.9285 127.847 81.0548 127.847H346.363C355.57 127.847 363 137.431 363 149.287V321.396C363 333.154 355.489 342.836 346.282 342.836ZM81.0548 129.23C72.4938 129.23 65.5482 138.221 65.5482 149.287V321.396C65.5482 332.462 72.4938 341.453 81.0548 341.453H346.363C354.924 341.453 361.869 332.462 361.869 321.396V149.287C361.869 138.221 354.924 129.23 346.363 129.23H81.0548Z" fill="#D1D3D4"/>
<path d="M313.097 150.275V355.779H114.312V113.917H274.466L313.097 150.275Z" fill="white"/>
<path d="M274.466 113.916L313.097 150.275V355.779H114.311V113.916H274.466ZM274.466 112.533H114.311C113.521 112.533 112.928 113.126 112.928 113.916V355.779C112.928 356.569 113.521 357.162 114.311 357.162H313.097C313.887 357.162 314.48 356.569 314.48 355.779V150.275C314.48 149.88 314.283 149.583 313.986 149.287L275.355 112.928C275.059 112.731 274.763 112.632 274.466 112.533Z" fill="#231F20"/>
<path d="M230.105 190.388H141.383C140.987 190.388 140.691 190.091 140.691 189.696C140.691 189.301 140.987 189.004 141.383 189.004H230.105C230.5 189.004 230.797 189.301 230.797 189.696C230.797 190.091 230.5 190.388 230.105 190.388Z" fill="#D1D3D4"/>
<path d="M286.026 190.388H255.892C255.497 190.388 255.2 190.091 255.2 189.696C255.2 189.301 255.497 189.004 255.892 189.004H286.026C286.421 189.004 286.717 189.301 286.717 189.696C286.717 190.091 286.421 190.388 286.026 190.388Z" fill="#D1D3D4"/>
<path d="M210.049 209.654H141.383C140.987 209.654 140.691 209.357 140.691 208.962C140.691 208.567 140.987 208.271 141.383 208.271H210.049C210.444 208.271 210.74 208.567 210.74 208.962C210.74 209.259 210.444 209.654 210.049 209.654Z" fill="#D1D3D4"/>
<path d="M282.667 209.654H255.892C255.497 209.654 255.2 209.357 255.2 208.962C255.2 208.567 255.497 208.271 255.892 208.271H282.667C283.062 208.271 283.358 208.567 283.358 208.962C283.358 209.357 283.062 209.654 282.667 209.654Z" fill="#D1D3D4"/>
<path d="M220.027 228.821H141.383C140.987 228.821 140.691 228.524 140.691 228.129C140.691 227.734 140.987 227.438 141.383 227.438H220.027C220.423 227.438 220.719 227.734 220.719 228.129C220.719 228.524 220.423 228.821 220.027 228.821Z" fill="#D1D3D4"/>
<path d="M286.026 228.821H255.892C255.497 228.821 255.2 228.524 255.2 228.129C255.2 227.734 255.497 227.438 255.892 227.438H286.026C286.421 227.438 286.717 227.734 286.717 228.129C286.717 228.524 286.421 228.821 286.026 228.821Z" fill="#D1D3D4"/>
<path d="M210.049 247.988H141.383C140.987 247.988 140.691 247.692 140.691 247.297C140.691 246.901 140.987 246.605 141.383 246.605H210.049C210.444 246.605 210.74 246.901 210.74 247.297C210.74 247.692 210.444 247.988 210.049 247.988Z" fill="#D1D3D4"/>
<path d="M280.987 247.988H255.892C255.497 247.988 255.2 247.692 255.2 247.297C255.2 246.901 255.497 246.605 255.892 246.605H280.987C281.382 246.605 281.679 246.901 281.679 247.297C281.679 247.692 281.382 247.988 280.987 247.988Z" fill="#D1D3D4"/>
<path d="M230.105 267.155H141.383C140.987 267.155 140.691 266.859 140.691 266.464C140.691 266.068 140.987 265.772 141.383 265.772H230.105C230.5 265.772 230.797 266.068 230.797 266.464C230.797 266.859 230.5 267.155 230.105 267.155Z" fill="#D1D3D4"/>
<path d="M286.026 267.155H255.892C255.497 267.155 255.2 266.859 255.2 266.464C255.2 266.068 255.497 265.772 255.892 265.772H286.026C286.421 265.772 286.717 266.068 286.717 266.464C286.717 266.859 286.421 267.155 286.026 267.155Z" fill="#D1D3D4"/>
<path d="M200.169 286.322H141.383C140.987 286.322 140.691 286.026 140.691 285.631C140.691 285.235 140.987 284.939 141.383 284.939H200.169C200.564 284.939 200.86 285.235 200.86 285.631C200.86 286.026 200.564 286.322 200.169 286.322Z" fill="#D1D3D4"/>
<path d="M286.026 286.322H255.892C255.497 286.322 255.2 286.026 255.2 285.631C255.2 285.235 255.497 284.939 255.892 284.939H286.026C286.421 284.939 286.717 285.235 286.717 285.631C286.717 286.026 286.421 286.322 286.026 286.322Z" fill="#D1D3D4"/>
<path d="M288.2 307.169H139.209C138.814 307.169 138.518 306.873 138.518 306.478C138.518 306.083 138.814 305.786 139.209 305.786H288.2C288.595 305.786 288.891 306.083 288.891 306.478C288.891 306.873 288.595 307.169 288.2 307.169Z" fill="url(#paint0_linear_597_1547)"/>
<path d="M288.2 326.534H258.066C257.67 326.534 257.374 326.238 257.374 325.842C257.374 325.447 257.67 325.151 258.066 325.151H288.2C288.595 325.151 288.891 325.447 288.891 325.842C288.891 326.238 288.595 326.534 288.2 326.534Z" fill="#D1D3D4"/>
<path d="M274.466 113.917V149.88H313.097" fill="#231F20"/>
<defs>
<linearGradient id="paint0_linear_597_1547" x1="138.518" y1="306.478" x2="288.891" y2="306.478" gradientUnits="userSpaceOnUse">
<stop stop-color="#68E1FD"/>
<stop offset="1" stop-color="#0D54DB"/>
</linearGradient>
</defs>
</svg>
