<svg width="1440" height="363" viewBox="0 0 1440 363" fill="none" xmlns="http://www.w3.org/2000/svg">
<g filter="url(#filter0_i_85_37)">
<rect x="-133" width="1630" height="363" rx="35" fill="url(#paint0_linear_85_37)"/>
</g>
<rect x="-132.5" y="0.5" width="1629" height="362" rx="34.5" stroke="#272727"/>
<g filter="url(#filter1_df_85_37)">
<ellipse cx="184.523" cy="376.813" rx="302.703" ry="58.5197" transform="rotate(-1.95515 184.523 376.813)" fill="url(#paint1_linear_85_37)"/>
</g>
<circle opacity="0.3" cx="1" cy="1" r="1" transform="matrix(-0.779574 -0.62631 -0.62631 0.779574 1305.81 215.883)" fill="#0D54DB"/>
<circle opacity="0.3" cx="1" cy="1" r="1" transform="matrix(-0.779574 -0.62631 -0.62631 0.779574 486.757 212.215)" fill="#0D54DB"/>
<circle opacity="0.3" cx="1" cy="1" r="1" transform="matrix(0.434376 -0.900732 -0.900732 -0.434376 347.837 101.327)" fill="#0D54DB"/>
<circle opacity="0.3" cx="1" cy="1" r="1" transform="matrix(0.996191 -0.0872031 -0.0872031 -0.996191 568.454 282.266)" fill="#0D54DB"/>
<circle opacity="0.3" cx="1" cy="1" r="1" transform="matrix(0.137782 -0.990463 -0.990463 -0.137782 204.951 89.634)" fill="#0D54DB"/>
<circle opacity="0.3" cx="1" cy="1" r="1" transform="matrix(0.921668 -0.387979 -0.387979 -0.921668 505.449 153.487)" fill="#0D54DB"/>
<circle opacity="0.3" cx="1" cy="1" r="1" transform="matrix(-0.240121 -0.970743 -0.970743 0.240121 113.422 254.941)" fill="#0D54DB"/>
<circle opacity="0.3" cx="1" cy="1" r="1" transform="matrix(-0.779574 -0.62631 -0.62631 0.779574 460.514 185.215)" fill="#0D54DB"/>
<circle opacity="0.3" cx="1" cy="1" r="1" transform="matrix(0.434376 -0.900732 -0.900732 -0.434376 368.224 69.6702)" fill="#0D54DB"/>
<circle opacity="0.3" cx="1" cy="1" r="1" transform="matrix(0.996191 -0.0872031 -0.0872031 -0.996191 606.083 283.601)" fill="#0D54DB"/>
<circle opacity="0.3" cx="1" cy="1" r="1" transform="matrix(0.137782 -0.990463 -0.990463 -0.137782 214.667 53.2566)" fill="#0D54DB"/>
<circle opacity="0.3" cx="1" cy="1" r="1" transform="matrix(0.921668 -0.387979 -0.387979 -0.921668 541.681 143.239)" fill="#0D54DB"/>
<circle opacity="0.3" cx="1" cy="1" r="1" transform="matrix(-0.240121 -0.970743 -0.970743 0.240121 126.005 179.329)" fill="#0D54DB"/>
<circle opacity="0.3" cx="1" cy="1" r="1" transform="matrix(-0.225509 -0.974241 -0.974241 0.225509 306.323 86.2446)" fill="#0D54DB"/>
<circle opacity="0.3" cx="1" cy="1" r="1" transform="matrix(0.721988 -0.691906 -0.691906 -0.721988 560.19 238.876)" fill="#0D54DB"/>
<circle opacity="0.3" cx="1" cy="1" r="1" transform="matrix(-0.512926 -0.858433 -0.858433 0.512926 160.812 87.9849)" fill="#0D54DB"/>
<circle opacity="0.3" cx="1" cy="1" r="1" transform="matrix(0.475513 -0.879709 -0.879709 -0.475513 484.3 114.71)" fill="#0D54DB"/>
<circle opacity="0.3" cx="1" cy="1" r="1" transform="matrix(-0.795178 -0.606376 -0.606376 0.795178 88.9102 231.582)" fill="#0D54DB"/>
<circle opacity="0.3" cx="1" cy="1" r="1" transform="matrix(-1 0 0 1 482.702 282.259)" fill="#0D54DB"/>
<circle opacity="0.3" cx="1" cy="1" r="1" transform="matrix(-0.225509 -0.974241 -0.974241 0.225509 278.684 113.171)" fill="#0D54DB"/>
<circle opacity="0.3" cx="1" cy="1" r="1" transform="matrix(0.721988 -0.691906 -0.691906 -0.721988 522.918 228.888)" fill="#0D54DB"/>
<circle opacity="0.3" cx="1" cy="1" r="1" transform="matrix(-0.512926 -0.858433 -0.858433 0.512926 142.743 122.08)" fill="#0D54DB"/>
<circle opacity="0.3" cx="1" cy="1" r="1" transform="matrix(0.475513 -0.879709 -0.879709 -0.475513 445.759 116.613)" fill="#0D54DB"/>
<circle opacity="0.3" cx="1" cy="1" r="1" transform="matrix(-0.795178 -0.606376 -0.606376 0.795178 84.8032 269.951)" fill="#0D54DB"/>
<defs>
<filter id="filter0_i_85_37" x="-133" y="0" width="1630" height="363" filterUnits="userSpaceOnUse" color-interpolation-filters="sRGB">
<feFlood flood-opacity="0" result="BackgroundImageFix"/>
<feBlend mode="normal" in="SourceGraphic" in2="BackgroundImageFix" result="shape"/>
<feColorMatrix in="SourceAlpha" type="matrix" values="0 0 0 0 0 0 0 0 0 0 0 0 0 0 0 0 0 0 127 0" result="hardAlpha"/>
<feOffset/>
<feGaussianBlur stdDeviation="15.1"/>
<feComposite in2="hardAlpha" operator="arithmetic" k2="-1" k3="1"/>
<feColorMatrix type="matrix" values="0 0 0 0 0.996154 0 0 0 0 0.996154 0 0 0 0 0.996154 0 0 0 0.05 0"/>
<feBlend mode="normal" in2="shape" result="effect1_innerShadow_85_37"/>
</filter>
<filter id="filter1_df_85_37" x="-418.01" y="17.4126" width="1205.07" height="718.801" filterUnits="userSpaceOnUse" color-interpolation-filters="sRGB">
<feFlood flood-opacity="0" result="BackgroundImageFix"/>
<feColorMatrix in="SourceAlpha" type="matrix" values="0 0 0 0 0 0 0 0 0 0 0 0 0 0 0 0 0 0 127 0" result="hardAlpha"/>
<feOffset dy="4"/>
<feGaussianBlur stdDeviation="2"/>
<feComposite in2="hardAlpha" operator="out"/>
<feColorMatrix type="matrix" values="0 0 0 0 0 0 0 0 0 0 0 0 0 0 0 0 0 0 0.25 0"/>
<feBlend mode="normal" in2="BackgroundImageFix" result="effect1_dropShadow_85_37"/>
<feBlend mode="normal" in="SourceGraphic" in2="effect1_dropShadow_85_37" result="shape"/>
<feGaussianBlur stdDeviation="150" result="effect2_foregroundBlur_85_37"/>
</filter>
<linearGradient id="paint0_linear_85_37" x1="-479.437" y1="-136.58" x2="-260.555" y2="1070.82" gradientUnits="userSpaceOnUse">
<stop stop-color="#000B1E"/>
<stop offset="1"/>
</linearGradient>
<linearGradient id="paint1_linear_85_37" x1="184.63" y1="325.837" x2="184.63" y2="416.904" gradientUnits="userSpaceOnUse">
<stop stop-color="#0754E3"/>
<stop offset="1" stop-color="#042E7D"/>
</linearGradient>
</defs>
</svg>
