<svg width="1440" height="363" viewBox="0 0 1440 363" fill="none" xmlns="http://www.w3.org/2000/svg">
<g filter="url(#filter0_i_85_36)">
<rect x="-126" width="1630" height="363" rx="35" fill="url(#paint0_linear_85_36)"/>
</g>
<rect x="-125.5" y="0.5" width="1629" height="362" rx="34.5" stroke="#272727"/>
<circle opacity="0.3" cx="1" cy="1" r="1" transform="matrix(-1 0 0 1 1295 279.297)" fill="#0D54DB"/>
<g filter="url(#filter1_df_85_36)">
<ellipse cx="1158.52" cy="314.813" rx="302.703" ry="58.5197" transform="rotate(-1.95515 1158.52 314.813)" fill="url(#paint1_linear_85_36)"/>
</g>
<circle opacity="0.3" cx="1" cy="1" r="1" transform="matrix(-0.779574 -0.62631 -0.62631 0.779574 1354.06 209.253)" fill="#0D54DB"/>
<circle opacity="0.3" cx="1" cy="1" r="1" transform="matrix(0.434376 -0.900732 -0.900732 -0.434376 1215.14 98.3643)" fill="#0D54DB"/>
<circle opacity="0.3" cx="1" cy="1" r="1" transform="matrix(-0.240121 -0.970743 -0.970743 0.240121 997.799 213.75)" fill="#0D54DB"/>
<circle opacity="0.3" cx="1" cy="1" r="1" transform="matrix(-1 0 0 1 1332 308.297)" fill="#0D54DB"/>
<circle opacity="0.3" cx="1" cy="1" r="1" transform="matrix(-1 0 0 1 1267 248.297)" fill="#0D54DB"/>
<circle opacity="0.3" cx="1" cy="1" r="1" transform="matrix(-0.779574 -0.62631 -0.62631 0.779574 1327.81 182.253)" fill="#0D54DB"/>
<circle opacity="0.3" cx="1" cy="1" r="1" transform="matrix(0.434376 -0.900732 -0.900732 -0.434376 1235.52 66.7078)" fill="#0D54DB"/>
<circle opacity="0.3" cx="1" cy="1" r="1" transform="matrix(-0.240121 -0.970743 -0.970743 0.240121 993.302 176.366)" fill="#0D54DB"/>
<circle opacity="0.3" cx="1" cy="1" r="1" transform="matrix(-1 0 0 1 1267 310.297)" fill="#0D54DB"/>
<circle opacity="0.3" cx="1" cy="1" r="1" transform="matrix(-0.779574 -0.62631 -0.62631 0.779574 1312.81 215.883)" fill="#0D54DB"/>
<circle opacity="0.3" cx="1" cy="1" r="1" transform="matrix(-1 0 0 1 1330 246.297)" fill="#0D54DB"/>
<circle opacity="0.3" cx="1" cy="1" r="1" transform="matrix(-0.225509 -0.974241 -0.974241 0.225509 1173.62 83.2822)" fill="#0D54DB"/>
<circle opacity="0.3" cx="1" cy="1" r="1" transform="matrix(-0.795178 -0.606376 -0.606376 0.795178 956.208 228.62)" fill="#0D54DB"/>
<circle opacity="0.3" cx="1" cy="1" r="1" transform="matrix(-1 0 0 1 1350 279.297)" fill="#0D54DB"/>
<circle opacity="0.3" cx="1" cy="1" r="1" transform="matrix(-0.225509 -0.974241 -0.974241 0.225509 1145.98 110.209)" fill="#0D54DB"/>
<circle opacity="0.3" cx="1" cy="1" r="1" transform="matrix(-0.795178 -0.606376 -0.606376 0.795178 952.101 266.988)" fill="#0D54DB"/>
<defs>
<filter id="filter0_i_85_36" x="-126" y="0" width="1630" height="363" filterUnits="userSpaceOnUse" color-interpolation-filters="sRGB">
<feFlood flood-opacity="0" result="BackgroundImageFix"/>
<feBlend mode="normal" in="SourceGraphic" in2="BackgroundImageFix" result="shape"/>
<feColorMatrix in="SourceAlpha" type="matrix" values="0 0 0 0 0 0 0 0 0 0 0 0 0 0 0 0 0 0 127 0" result="hardAlpha"/>
<feOffset/>
<feGaussianBlur stdDeviation="15.1"/>
<feComposite in2="hardAlpha" operator="arithmetic" k2="-1" k3="1"/>
<feColorMatrix type="matrix" values="0 0 0 0 0.996154 0 0 0 0 0.996154 0 0 0 0 0.996154 0 0 0 0.05 0"/>
<feBlend mode="normal" in2="shape" result="effect1_innerShadow_85_36"/>
</filter>
<filter id="filter1_df_85_36" x="555.99" y="-44.5874" width="1205.07" height="718.801" filterUnits="userSpaceOnUse" color-interpolation-filters="sRGB">
<feFlood flood-opacity="0" result="BackgroundImageFix"/>
<feColorMatrix in="SourceAlpha" type="matrix" values="0 0 0 0 0 0 0 0 0 0 0 0 0 0 0 0 0 0 127 0" result="hardAlpha"/>
<feOffset dy="4"/>
<feGaussianBlur stdDeviation="2"/>
<feComposite in2="hardAlpha" operator="out"/>
<feColorMatrix type="matrix" values="0 0 0 0 0 0 0 0 0 0 0 0 0 0 0 0 0 0 0.25 0"/>
<feBlend mode="normal" in2="BackgroundImageFix" result="effect1_dropShadow_85_36"/>
<feBlend mode="normal" in="SourceGraphic" in2="effect1_dropShadow_85_36" result="shape"/>
<feGaussianBlur stdDeviation="150" result="effect2_foregroundBlur_85_36"/>
</filter>
<linearGradient id="paint0_linear_85_36" x1="-472.437" y1="-136.58" x2="-253.555" y2="1070.82" gradientUnits="userSpaceOnUse">
<stop stop-color="#000B1E"/>
<stop offset="1"/>
</linearGradient>
<linearGradient id="paint1_linear_85_36" x1="1158.63" y1="263.837" x2="1158.63" y2="354.904" gradientUnits="userSpaceOnUse">
<stop stop-color="#0754E3"/>
<stop offset="1" stop-color="#042E7D"/>
</linearGradient>
</defs>
</svg>
