<svg width="1134" height="201" viewBox="0 0 1134 201" fill="none" xmlns="http://www.w3.org/2000/svg">
<path d="M126.204 272.956C85.1047 272.956 53.797 261.125 32.2811 237.462C10.7652 213.8 0.00484265 180.204 0 136.674C0 115.032 3.28331 95.7135 9.84994 78.7187C16.4166 61.7239 25.4142 47.3735 36.8429 35.6676C48.4554 23.8449 62.4017 14.7637 77.7245 9.04742C93.526 3.03155 110.669 0.0236159 129.153 0.0236159C138.931 -0.0542333 148.695 0.766138 158.333 2.47508C166.097 3.87473 173.77 5.76831 181.309 8.14504C186.938 9.90179 192.427 12.1093 197.725 14.7474C202.084 17.0184 205.231 18.7731 207.168 20.0113L190.766 67.5743C182.107 62.9423 172.998 59.2723 163.592 56.6254C153.248 53.6175 141.514 52.1135 128.391 52.1135C119.635 52.1073 110.941 53.6328 102.676 56.6254C94.286 59.6509 86.6755 64.623 80.4267 71.1612C73.986 77.8539 68.8189 86.4766 64.9254 97.0295C61.0319 107.582 59.0948 120.421 59.1142 135.546C59.0319 146.932 60.3178 158.283 62.9423 169.34C65.4895 179.783 69.6227 188.781 75.3419 196.336C81.0611 203.891 88.5309 209.88 97.7513 214.301C106.991 218.708 118.178 220.911 131.311 220.911C138.753 220.971 146.189 220.468 153.56 219.407C159.455 218.537 165.299 217.335 171.066 215.805C175.677 214.597 180.19 213.018 184.563 211.083C188.437 209.323 191.963 207.689 195.139 206.18L210.822 253.374C202.803 258.408 191.498 262.93 176.907 266.94C162.316 270.951 145.415 272.956 126.204 272.956Z" fill="#111111"/>
<path d="M418.731 168.031C418.731 183.642 416.552 197.93 412.194 210.894C407.835 223.858 401.504 234.933 393.199 244.117C384.877 253.345 374.741 260.619 363.474 265.451C351.92 270.464 338.971 272.97 324.627 272.97C310.52 272.97 297.687 270.464 286.128 265.451C274.865 260.619 264.735 253.345 256.418 244.117C248.152 234.928 241.709 223.851 237.089 210.887C232.469 197.922 230.159 183.635 230.159 168.024C230.159 152.422 232.529 138.2 237.27 125.356C242.011 112.512 248.575 101.558 256.963 92.4943C265.421 83.3927 275.605 76.1987 286.876 71.3636C298.416 66.3504 311.007 63.8438 324.649 63.8438C338.508 63.8438 351.213 66.3504 362.763 71.3636C373.987 76.1744 384.109 83.3736 392.472 92.4943C400.734 101.558 407.177 112.51 411.802 125.349C416.426 138.187 418.736 152.415 418.731 168.031ZM363.293 168.031C363.293 150.66 359.949 137.004 353.261 127.063C346.574 117.122 337.029 112.149 324.627 112.144C312.225 112.144 302.619 117.117 295.811 127.063C289.002 137.009 285.598 150.665 285.598 168.031C285.598 185.402 289.002 199.188 295.811 209.39C302.619 219.592 312.225 224.691 324.627 224.686C337.029 224.686 346.574 219.587 353.261 209.39C359.949 199.193 363.293 185.407 363.293 168.031Z" fill="#111111"/>
<path d="M566.088 162.369C566.088 144.246 563.839 131.407 559.34 123.852C554.841 116.297 547.119 112.522 536.175 112.527C532.785 112.527 529.26 112.715 525.599 113.091C521.938 113.467 518.41 113.908 515.015 114.415V267.707H460.673V75.8982C465.293 74.6449 470.705 73.3239 476.908 71.9352C483.112 70.5466 489.676 69.2933 496.601 68.1753C503.55 67.0323 510.657 66.1449 517.921 65.5133C525.185 64.8816 532.357 64.5683 539.437 64.5733C553.306 64.5733 564.553 66.3981 573.178 70.0477C581.802 73.6974 588.916 78.0388 594.519 83.0721C602.693 77.0833 611.743 72.4928 621.323 69.4762C631.41 66.2126 640.713 64.5783 649.231 64.5733C664.549 64.5733 677.14 66.7741 687.004 71.1757C696.868 75.5773 704.709 81.8088 710.525 89.87C716.365 97.9313 720.377 107.497 722.561 118.566C724.854 130.755 725.954 143.153 725.844 155.571V267.707H671.503V162.369C671.503 144.246 669.253 131.407 664.754 123.852C660.256 116.297 652.534 112.522 641.59 112.527C638.684 112.527 634.611 113.279 629.372 114.783C624.808 115.999 620.444 117.908 616.42 120.446C618.151 126.408 619.252 132.548 619.703 138.756C620.188 145.178 620.43 152.039 620.43 159.338V267.707H566.088V162.369Z" fill="#111111"/>
<path d="M765.972 169.951C765.972 152.329 768.584 136.911 773.81 123.696C779.035 110.481 785.904 99.4674 794.417 90.6542C802.766 81.955 812.766 75.1416 823.786 70.6439C834.646 66.1586 846.234 63.8615 857.926 63.876C885.152 63.876 906.67 72.4988 922.481 89.7443C938.292 106.99 946.196 132.352 946.191 165.83C946.191 169.099 946.07 172.686 945.828 176.591C945.585 180.496 945.343 183.958 945.101 186.976H821.774C822.994 198.556 828.224 207.743 837.464 214.536C846.703 221.329 859.103 224.728 874.662 224.733C884.516 224.743 894.349 223.794 904.031 221.898C913.634 220.013 921.474 217.684 927.551 214.912L934.815 260.602C931.052 262.438 927.147 263.947 923.142 265.114C917.804 266.739 912.384 268.062 906.907 269.077C900.951 270.21 894.568 271.155 887.759 271.912C880.975 272.663 874.156 273.039 867.333 273.04C850.069 273.04 835.057 270.398 822.297 265.114C809.536 259.83 798.957 252.591 790.56 243.397C782.094 234.076 775.739 222.92 771.957 210.738C767.868 197.561 765.847 183.791 765.972 169.951ZM893.629 148.429C893.395 143.689 892.599 138.997 891.261 134.457C889.984 130.044 887.876 125.937 885.057 122.373C882.145 118.757 878.545 115.8 874.481 113.687C870.224 111.426 864.936 110.293 858.616 110.288C852.539 110.288 847.311 111.359 842.934 113.499C838.742 115.494 835.01 118.391 831.987 121.997C829.02 125.618 826.732 129.78 825.238 134.269C823.673 138.871 822.513 143.61 821.774 148.429H893.629Z" fill="#111111"/>
<path d="M1132.18 106.857C1127.79 111.895 1121.88 118.693 1114.45 127.25C1107.02 135.808 1099.03 145.248 1090.48 155.57C1081.95 165.897 1073.36 176.721 1064.71 188.041C1056.06 199.361 1048.2 210.312 1041.14 220.895H1133.97V267.706H975.333V234.491C980.437 225.422 986.577 215.666 993.754 205.224C1000.93 194.781 1008.47 184.276 1016.37 173.708C1024.27 163.135 1032.11 152.878 1039.89 142.937C1047.68 132.996 1054.85 123.997 1061.42 115.941H979.713V69.0996H1132.18V106.857Z" fill="#111111"/>
</svg>
