<svg width="48" height="48" viewBox="0 0 48 48" fill="none" xmlns="http://www.w3.org/2000/svg">
<path d="M43.6576 33.4286H40.2856V28.908C40.2842 27.834 39.857 26.8045 39.0976 26.0451C38.3382 25.2857 37.3087 24.8585 36.2347 24.8571H24.857V18H29.6399C30.1897 17.9991 30.7168 17.7802 31.1056 17.3914C31.4944 17.0026 31.7132 16.4756 31.7141 15.9257V4.6457C31.7132 4.09584 31.4944 3.56876 31.1056 3.17996C30.7168 2.79115 30.1897 2.57232 29.6399 2.57141H18.3599C17.81 2.57232 17.2829 2.79115 16.8941 3.17996C16.5053 3.56876 16.2865 4.09584 16.2856 4.6457V15.9257C16.2865 16.4756 16.5053 17.0026 16.8941 17.3914C17.2829 17.7802 17.81 17.9991 18.3599 18H23.1427V24.8571H11.765C10.6911 24.8585 9.66151 25.2857 8.90212 26.0451C8.14273 26.8045 7.71551 27.834 7.71415 28.908V33.4286H4.34215C3.87278 33.4286 3.42262 33.6149 3.09057 33.9466C2.75852 34.2784 2.57174 34.7283 2.57129 35.1977V43.6594C2.57174 44.1288 2.75852 44.5788 3.09057 44.9105C3.42262 45.2422 3.87278 45.4286 4.34215 45.4286H12.8004C13.2698 45.4286 13.72 45.2422 14.052 44.9105C14.3841 44.5788 14.5708 44.1288 14.5713 43.6594V35.1977C14.5708 34.7283 14.3841 34.2784 14.052 33.9466C13.72 33.6149 13.2698 33.4286 12.8004 33.4286H9.42843V28.908C9.42889 28.2884 9.67521 27.6944 10.1133 27.2563C10.5514 26.8182 11.1454 26.5719 11.765 26.5714H23.1427V33.4286H19.7707C19.3014 33.4286 18.8512 33.6149 18.5191 33.9466C18.1871 34.2784 18.0003 34.7283 17.9999 35.1977V43.6594C18.0003 44.1288 18.1871 44.5788 18.5191 44.9105C18.8512 45.2422 19.3014 45.4286 19.7707 45.4286H28.229C28.6984 45.4286 29.1485 45.2422 29.4806 44.9105C29.8126 44.5788 29.9994 44.1288 29.9999 43.6594V35.1977C29.9994 34.7283 29.8126 34.2784 29.4806 33.9466C29.1485 33.6149 28.6984 33.4286 28.229 33.4286H24.857V26.5714H36.2347C36.8543 26.5719 37.4483 26.8182 37.8864 27.2563C38.3245 27.6944 38.5708 28.2884 38.5713 28.908V33.4286H35.1993C34.7299 33.4286 34.2798 33.6149 33.9477 33.9466C33.6157 34.2784 33.4289 34.7283 33.4284 35.1977V43.6594C33.4289 44.1288 33.6157 44.5788 33.9477 44.9105C34.2798 45.2422 34.7299 45.4286 35.1993 45.4286H43.6576C44.1269 45.4286 44.5771 45.2422 44.9092 44.9105C45.2412 44.5788 45.428 44.1288 45.4284 43.6594V35.1977C45.428 34.7283 45.2412 34.2784 44.9092 33.9466C44.5771 33.6149 44.1269 33.4286 43.6576 33.4286ZM17.9999 15.9257V4.6457C17.9999 4.59842 18.0092 4.55161 18.0273 4.50793C18.0454 4.46425 18.0719 4.42457 18.1053 4.39114C18.1387 4.35771 18.1784 4.33119 18.2221 4.3131C18.2658 4.29501 18.3126 4.2857 18.3599 4.2857H29.6399C29.7353 4.2857 29.8269 4.32363 29.8944 4.39114C29.9619 4.45865 29.9999 4.55022 29.9999 4.6457V15.9257C29.9999 15.973 29.9906 16.0198 29.9725 16.0635C29.9544 16.1071 29.9278 16.1468 29.8944 16.1803C29.861 16.2137 29.8213 16.2402 29.7776 16.2583C29.734 16.2764 29.6871 16.2857 29.6399 16.2857H18.3599C18.3126 16.2857 18.2658 16.2764 18.2221 16.2583C18.1784 16.2402 18.1387 16.2137 18.1053 16.1803C18.0719 16.1468 18.0454 16.1071 18.0273 16.0635C18.0092 16.0198 17.9999 15.973 17.9999 15.9257ZM12.857 35.1977V43.6594C12.8566 43.6741 12.8504 43.6881 12.8398 43.6983C12.8293 43.7086 12.8151 43.7143 12.8004 43.7143L4.28557 43.6594L4.34215 35.1428L12.857 35.1977ZM28.2856 35.1977V43.6594C28.2851 43.6741 28.279 43.6881 28.2684 43.6983C28.2579 43.7086 28.2437 43.7143 28.229 43.7143L19.7141 43.6594L19.7707 35.1428L28.2856 35.1977ZM43.7141 43.6594C43.7137 43.6741 43.7075 43.6881 43.697 43.6983C43.6864 43.7086 43.6723 43.7143 43.6576 43.7143L35.1427 43.6594L35.1993 35.1428L43.7141 35.1977V43.6594Z" fill="white"/>
</svg>
