<svg width="460" height="314" viewBox="0 0 460 314" fill="none" xmlns="http://www.w3.org/2000/svg">
<path d="M350.612 254.932H275.632V350.428H350.612V254.932Z" fill="white"/>
<path d="M350.612 351.072H275.632C275.264 351.072 274.988 350.796 274.988 350.428V254.932C274.988 254.564 275.264 254.288 275.632 254.288H350.612C350.98 254.288 351.256 254.564 351.256 254.932V350.428C351.256 350.796 350.98 351.072 350.612 351.072ZM276.276 349.784H349.968V255.576H276.276V349.784Z" fill="#D1D3D4"/>
<path d="M343.528 261.464H282.624V343.896H343.528V261.464Z" fill="white"/>
<path d="M343.528 344.54H282.624C282.256 344.54 281.98 344.264 281.98 343.896V261.464C281.98 261.096 282.256 260.82 282.624 260.82H343.528C343.896 260.82 344.172 261.096 344.172 261.464V343.896C344.172 344.264 343.896 344.54 343.528 344.54ZM283.36 343.252H342.884V262.108H283.36V343.252Z" fill="#D1D3D4"/>
<path d="M343.528 335.984V343.896H338.56L311.88 308.752L306.452 301.668L282.624 270.388V261.464H286.764L311.88 294.4L317.308 301.668L343.528 335.984Z" fill="white"/>
<path d="M343.528 344.54H338.56C338.376 344.54 338.192 344.448 338.008 344.264L282.072 270.664C281.98 270.572 281.98 270.388 281.98 270.296V261.372C281.98 261.004 282.256 260.728 282.624 260.728H286.764C286.948 260.728 287.132 260.82 287.316 261.004L317.86 301.208L344.08 335.616C344.172 335.708 344.172 335.892 344.172 335.984V343.896C344.264 344.264 343.896 344.54 343.528 344.54ZM338.928 343.252H342.884V336.26L311.328 294.86L286.488 262.108H283.36V270.112L338.928 343.252Z" fill="#D1D3D4"/>
<path d="M343.528 261.464V267.26L317.308 301.668L311.88 308.752L285.2 343.896H282.624V332.856L306.452 301.668L311.88 294.4L336.996 261.464H343.528Z" fill="white"/>
<path d="M285.2 344.54H282.624C282.256 344.54 281.98 344.264 281.98 343.896V332.856C281.98 332.672 282.072 332.58 282.072 332.488L336.444 261.096C336.536 260.912 336.72 260.82 336.996 260.82H343.528C343.896 260.82 344.172 261.096 344.172 261.464V267.26C344.172 267.444 344.08 267.536 344.08 267.628L285.752 344.356C285.568 344.448 285.384 344.54 285.2 344.54ZM283.36 343.252H284.924L342.884 266.984V262.108H337.364L283.36 333.04V343.252Z" fill="#D1D3D4"/>
<path d="M275.54 254.932H181.7V350.428H275.54V254.932Z" fill="white"/>
<path d="M275.632 351.072H181.792C181.424 351.072 181.148 350.796 181.148 350.428V254.932C181.148 254.564 181.424 254.288 181.792 254.288H275.632C276 254.288 276.276 254.564 276.276 254.932V350.428C276.276 350.796 276 351.072 275.632 351.072ZM182.436 349.784H274.988V255.576H182.436V349.784Z" fill="#D1D3D4"/>
<path d="M268.732 261.464H188.508V343.896H268.732V261.464Z" fill="white"/>
<path d="M268.824 344.54H188.6C188.232 344.54 187.956 344.264 187.956 343.896V261.464C187.956 261.096 188.232 260.82 188.6 260.82H268.824C269.192 260.82 269.468 261.096 269.468 261.464V343.896C269.468 344.264 269.192 344.54 268.824 344.54ZM189.244 343.252H268.18V262.108H189.244V343.252Z" fill="#D1D3D4"/>
<path d="M188.508 335.984V343.896H195.132L230.276 308.752L237.452 301.668L268.824 270.388V261.464H263.304L230.276 294.4L223.1 301.668L188.508 335.984Z" fill="white"/>
<path d="M195.132 344.54H188.6C188.232 344.54 187.956 344.264 187.956 343.896V335.984C187.956 335.8 188.048 335.616 188.14 335.524L229.908 293.94L263.028 260.912C263.12 260.82 263.304 260.728 263.488 260.728H268.916C269.284 260.728 269.56 261.004 269.56 261.372V270.296C269.56 270.48 269.468 270.664 269.376 270.756L195.684 344.264C195.5 344.54 195.316 344.54 195.132 344.54ZM189.244 343.252H194.856L268.18 270.112V262.108H263.672L223.56 302.128L189.152 336.26L189.244 343.252Z" fill="#D1D3D4"/>
<path d="M188.508 261.464V267.26L223.1 301.668L230.276 308.752L265.42 343.896H268.824V332.856L237.452 301.668L230.276 294.4L197.156 261.464H188.508Z" fill="white"/>
<path d="M268.824 344.54H265.512C265.328 344.54 265.144 344.448 265.052 344.356L222.732 302.128L188.048 267.72C187.956 267.628 187.864 267.444 187.864 267.26V261.464C187.864 261.096 188.14 260.82 188.508 260.82H197.156C197.34 260.82 197.524 260.912 197.616 261.004L238.004 301.208L269.284 332.488C269.376 332.58 269.468 332.764 269.468 332.948V343.988C269.468 344.264 269.1 344.54 268.824 344.54ZM265.696 343.252H268.088V333.132L229.724 294.86L196.88 262.108H189.244V266.984L230.828 308.384L265.696 343.252Z" fill="#D1D3D4"/>
<path d="M386.86 159.436H311.88V254.932H386.86V159.436Z" fill="white"/>
<path d="M386.86 255.576H311.88C311.512 255.576 311.236 255.3 311.236 254.932V159.436C311.236 159.068 311.512 158.792 311.88 158.792H386.86C387.228 158.792 387.504 159.068 387.504 159.436V254.932C387.504 255.3 387.228 255.576 386.86 255.576ZM312.524 254.288H386.216V160.08H312.524V254.288Z" fill="#D1D3D4"/>
<path d="M379.868 165.968H318.964V248.4H379.868V165.968Z" fill="white"/>
<path d="M379.868 249.044H318.964C318.596 249.044 318.32 248.768 318.32 248.4V165.968C318.32 165.6 318.596 165.324 318.964 165.324H379.868C380.236 165.324 380.512 165.6 380.512 165.968V248.4C380.512 248.768 380.236 249.044 379.868 249.044ZM319.608 247.756H379.132V166.612H319.608V247.756Z" fill="#D1D3D4"/>
<path d="M379.868 240.488V248.4H374.808L348.128 213.256L342.7 206.08L318.964 174.8V165.968H323.104L348.128 198.904L353.648 206.08L379.868 240.488Z" fill="white"/>
<path d="M379.868 249.044H374.9C374.716 249.044 374.532 248.952 374.348 248.768L318.412 175.26C318.32 175.168 318.32 174.984 318.32 174.8V165.876C318.32 165.508 318.596 165.232 318.964 165.232H323.104C323.288 165.232 323.472 165.324 323.656 165.508L354.2 205.712L380.328 240.12C380.42 240.212 380.42 240.396 380.42 240.488V248.4C380.512 248.768 380.144 249.044 379.868 249.044ZM375.176 247.756H379.132V240.764L347.576 199.364L322.736 166.612H319.608V174.616L375.176 247.756Z" fill="#D1D3D4"/>
<path d="M379.868 165.968V171.672L353.648 206.08L348.128 213.256L321.54 248.4H318.964V237.36L342.7 206.08L348.128 198.904L373.336 165.968H379.868Z" fill="white"/>
<path d="M321.54 249.044H318.964C318.596 249.044 318.32 248.768 318.32 248.4V237.36C318.32 237.176 318.412 237.084 318.412 236.992L372.784 165.6C372.876 165.416 373.06 165.324 373.336 165.324H379.868C380.236 165.324 380.512 165.6 380.512 165.968V171.764C380.512 171.948 380.42 172.04 380.42 172.132L322 248.768C321.908 248.952 321.724 249.044 321.54 249.044ZM319.608 247.756H321.172L379.132 171.488V166.612H373.612L319.608 237.636V247.756Z" fill="#D1D3D4"/>
<path d="M311.88 159.436H218.04V254.932H311.88V159.436Z" fill="white"/>
<path d="M311.88 255.576H218.04C217.672 255.576 217.396 255.3 217.396 254.932V159.436C217.396 159.068 217.672 158.792 218.04 158.792H311.88C312.248 158.792 312.524 159.068 312.524 159.436V254.932C312.524 255.3 312.248 255.576 311.88 255.576ZM218.684 254.288H311.236V160.08H218.684V254.288Z" fill="#D1D3D4"/>
<path d="M305.072 165.968H224.848V248.4H305.072V165.968Z" fill="white"/>
<path d="M305.072 249.044H224.848C224.48 249.044 224.204 248.768 224.204 248.4V165.968C224.204 165.6 224.48 165.324 224.848 165.324H305.072C305.44 165.324 305.716 165.6 305.716 165.968V248.4C305.716 248.768 305.44 249.044 305.072 249.044ZM225.492 247.756H304.428V166.612H225.492V247.756Z" fill="#D1D3D4"/>
<path d="M224.848 240.488V248.4H231.38L266.524 213.256L273.792 206.08L305.072 174.8V165.968H299.644L266.524 198.904L259.348 206.08L224.848 240.488Z" fill="white"/>
<path d="M231.38 249.044H224.848C224.48 249.044 224.204 248.768 224.204 248.4V240.488C224.204 240.304 224.296 240.12 224.388 240.028L266.156 198.444L299.184 165.416C299.276 165.324 299.46 165.232 299.644 165.232H305.072C305.44 165.232 305.716 165.508 305.716 165.876V174.8C305.716 174.984 305.624 175.168 305.532 175.26L231.84 248.86C231.748 248.952 231.564 249.044 231.38 249.044ZM225.492 247.756H231.104L304.428 174.616V166.612H299.92L259.808 206.632L225.492 240.764V247.756Z" fill="#D1D3D4"/>
<path d="M224.848 165.968V171.672L259.348 206.08L266.524 213.256L301.76 248.4H305.072V237.36L273.792 206.08L266.524 198.904L233.404 165.968H224.848Z" fill="white"/>
<path d="M305.072 249.044H301.76C301.576 249.044 301.392 248.952 301.3 248.86L258.888 206.632L224.388 172.224C224.296 172.132 224.204 171.948 224.204 171.764V165.968C224.204 165.6 224.48 165.324 224.848 165.324H233.496C233.68 165.324 233.864 165.416 233.956 165.508L274.252 205.712L305.532 236.992C305.624 237.084 305.716 237.268 305.716 237.452V248.492C305.716 248.768 305.44 249.044 305.072 249.044ZM302.036 247.756H304.428V237.636L266.064 199.364L233.128 166.612H225.492V171.488L267.076 212.888L302.036 247.756Z" fill="#D1D3D4"/>
<path d="M425.592 254.932H350.612V350.428H425.592V254.932Z" fill="white"/>
<path d="M425.592 351.072H350.612C350.244 351.072 349.968 350.796 349.968 350.428V254.932C349.968 254.564 350.244 254.288 350.612 254.288H425.592C425.96 254.288 426.236 254.564 426.236 254.932V350.428C426.328 350.796 425.96 351.072 425.592 351.072ZM351.256 349.784H424.948V255.576H351.256V349.784Z" fill="#D1D3D4"/>
<path d="M418.6 261.464H357.696V343.896H418.6V261.464Z" fill="white"/>
<path d="M418.6 344.54H357.696C357.328 344.54 357.052 344.264 357.052 343.896V261.464C357.052 261.096 357.328 260.82 357.696 260.82H418.6C418.968 260.82 419.244 261.096 419.244 261.464V343.896C419.244 344.264 418.968 344.54 418.6 344.54ZM358.34 343.252H417.864V262.108H358.248L358.34 343.252Z" fill="#D1D3D4"/>
<path d="M418.508 335.984V343.896H413.54L386.86 308.752L381.432 301.668L357.696 270.388V261.464H361.836L386.86 294.4L392.38 301.668L418.508 335.984Z" fill="white"/>
<path d="M418.6 344.54H413.632C413.448 344.54 413.264 344.448 413.08 344.264L357.144 270.664C357.052 270.572 356.96 270.388 357.052 270.296V261.372C357.052 261.004 357.328 260.728 357.696 260.728H361.836C362.02 260.728 362.204 260.82 362.388 261.004L392.84 301.208L419.06 335.616C419.152 335.708 419.152 335.892 419.152 335.984V343.896C419.152 344.264 418.968 344.54 418.6 344.54ZM413.908 343.252H417.956V336.26L386.4 294.86L361.56 262.108H358.432V270.112L413.908 343.252Z" fill="#D1D3D4"/>
<path d="M418.508 261.464V267.26L392.38 301.668L386.86 308.752L360.18 343.896H357.696V332.856L381.432 301.668L386.86 294.4L412.068 261.464H418.508Z" fill="white"/>
<path d="M360.18 344.54H357.604C357.236 344.54 356.96 344.264 356.96 343.896V332.856C356.96 332.672 357.052 332.58 357.052 332.488L411.424 261.096C411.516 260.912 411.7 260.82 411.976 260.82H418.508C418.876 260.82 419.152 261.096 419.152 261.464V267.26C419.152 267.444 419.152 267.536 419.06 267.628L360.732 344.356C360.64 344.448 360.456 344.54 360.18 344.54ZM358.34 343.252H359.904L417.864 266.984V262.108H412.344L358.34 333.132V343.252Z" fill="#D1D3D4"/>
<path d="M315.008 271.86H288.88V294.124H315.008V271.86Z" fill="white"/>
<path d="M315.1 294.86H288.88C288.512 294.86 288.236 294.584 288.236 294.216V271.952C288.236 271.584 288.512 271.308 288.88 271.308H315.008C315.376 271.308 315.652 271.584 315.652 271.952V294.216C315.744 294.492 315.468 294.86 315.1 294.86ZM289.616 293.48H314.456V272.596H289.616V293.48Z" fill="#D1D3D4"/>
<path d="M310.592 278.116H293.388C293.02 278.116 292.744 277.84 292.744 277.472C292.744 277.104 293.02 276.828 293.388 276.828H310.592C310.96 276.828 311.236 277.104 311.236 277.472C311.236 277.84 310.96 278.116 310.592 278.116Z" fill="#D1D3D4"/>
<path d="M310.592 283.728H293.388C293.02 283.728 292.744 283.452 292.744 283.084C292.744 282.716 293.02 282.44 293.388 282.44H310.592C310.96 282.44 311.236 282.716 311.236 283.084C311.236 283.452 310.96 283.728 310.592 283.728Z" fill="#D1D3D4"/>
<path d="M304.888 289.34H293.388C293.02 289.34 292.744 288.972 292.836 288.604C292.836 288.328 293.112 288.052 293.388 288.052H304.888C305.256 288.052 305.624 288.236 305.624 288.604C305.624 288.972 305.44 289.34 305.072 289.34C304.98 289.34 304.98 289.34 304.888 289.34Z" fill="#D1D3D4"/>
<path d="M392.84 271.86H366.712V294.124H392.84V271.86Z" fill="white"/>
<path d="M392.932 294.86H366.804C366.436 294.86 366.16 294.584 366.16 294.216V271.952C366.16 271.584 366.436 271.308 366.804 271.308H392.932C393.3 271.308 393.576 271.584 393.576 271.952V294.216C393.576 294.492 393.3 294.86 392.932 294.86ZM367.356 293.48H392.196V272.596H367.356V293.48Z" fill="#D1D3D4"/>
<path d="M388.424 278.116H371.22C370.852 278.116 370.576 277.84 370.576 277.472C370.576 277.104 370.852 276.828 371.22 276.828H388.424C388.792 276.828 389.068 277.104 389.068 277.472C389.068 277.84 388.792 278.116 388.424 278.116Z" fill="#D1D3D4"/>
<path d="M388.424 283.728H371.22C370.852 283.728 370.576 283.452 370.576 283.084C370.576 282.716 370.852 282.44 371.22 282.44H388.424C388.792 282.44 389.068 282.716 389.068 283.084C389.068 283.452 388.792 283.728 388.424 283.728Z" fill="#D1D3D4"/>
<path d="M382.72 289.34H371.22C370.852 289.34 370.484 289.156 370.484 288.788C370.484 288.42 370.668 288.052 371.036 288.052C371.128 288.052 371.128 288.052 371.22 288.052H382.72C383.088 288.052 383.456 288.236 383.456 288.604C383.456 288.972 383.272 289.34 382.904 289.34C382.812 289.34 382.812 289.34 382.72 289.34Z" fill="#D1D3D4"/>
<path d="M353.832 174.984H327.704V197.248H353.832V174.984Z" fill="white"/>
<path d="M353.832 197.892H327.612C327.244 197.892 326.968 197.616 326.968 197.248V174.984C326.968 174.616 327.244 174.34 327.612 174.34H353.832C354.2 174.34 354.476 174.616 354.476 174.984V197.248C354.568 197.616 354.2 197.892 353.832 197.892ZM328.348 196.604H353.188V175.628H328.348V196.604Z" fill="#D1D3D4"/>
<path d="M349.416 181.148H332.212C331.844 181.148 331.476 180.964 331.476 180.596C331.476 180.228 331.66 179.86 332.028 179.86C332.12 179.86 332.12 179.86 332.212 179.86H349.416C349.784 179.86 350.152 180.044 350.152 180.412C350.152 180.78 349.968 181.148 349.6 181.148C349.508 181.148 349.416 181.148 349.416 181.148Z" fill="#D1D3D4"/>
<path d="M349.416 186.76H332.212C331.844 186.76 331.568 186.484 331.568 186.116C331.568 185.748 331.844 185.472 332.212 185.472H349.416C349.784 185.472 350.06 185.748 350.06 186.116C350.06 186.484 349.784 186.76 349.416 186.76Z" fill="#D1D3D4"/>
<path d="M343.712 192.372H332.212C331.844 192.372 331.568 192.096 331.568 191.728C331.568 191.36 331.844 191.084 332.212 191.084H343.712C344.08 191.084 344.356 191.36 344.356 191.728C344.356 192.096 344.08 192.372 343.712 192.372Z" fill="#D1D3D4"/>
<path d="M81.1441 137.632C81.1441 137.632 33.5801 208.656 34.5921 209.392C35.6041 210.128 57.8681 219.236 57.8681 219.236L85.8361 192.096L81.1441 137.632Z" fill="#231F20"/>
<path d="M57.7759 219.88C57.6839 219.88 57.5919 219.88 57.4999 219.788C53.7279 218.224 35.0519 210.588 34.0399 209.852C33.3039 209.3 32.9359 209.024 56.7639 172.868C68.4479 155.204 80.3159 137.448 80.4079 137.264C80.5919 136.988 81.0519 136.896 81.3279 137.08C81.5119 137.172 81.6039 137.356 81.6039 137.54L86.2959 192.004C86.2959 192.188 86.2039 192.372 86.1119 192.556L58.1439 219.696C58.1439 219.788 57.9599 219.88 57.7759 219.88ZM35.3279 209.024C37.7199 210.22 49.4959 215.096 57.6839 218.408L85.1919 191.82L80.6839 139.472C62.9279 165.968 37.5359 204.332 35.3279 209.024Z" fill="#231F20"/>
<path d="M157.228 138L187.772 189.98C187.772 189.98 180.78 206.724 172.5 204.7C164.22 202.676 143.704 158.976 143.704 158.976L157.228 138Z" fill="#231F20"/>
<path d="M173.972 205.528C173.42 205.528 172.96 205.436 172.408 205.344C163.852 203.32 143.98 161.092 143.152 159.252C143.06 159.068 143.06 158.792 143.152 158.608L156.676 137.632C156.768 137.448 157.044 137.356 157.228 137.356C157.412 137.356 157.688 137.448 157.78 137.724L188.324 189.704C188.416 189.888 188.416 190.072 188.324 190.256C188.14 190.9 181.976 205.528 173.972 205.528ZM144.532 159.068C150.328 171.396 166.244 202.492 172.776 204.056C179.86 205.804 186.208 192.188 187.128 190.072L157.32 139.288L144.532 159.068Z" fill="#231F20"/>
<path d="M83.3521 209.3L77.5562 356.96H97.7041L115.736 251.712L125.764 355.12H146.372L147.016 219.236L83.3521 209.3Z" fill="#231F20"/>
<path d="M97.7041 357.604H77.5561C77.3721 357.604 77.1881 357.512 77.0961 357.42C77.0041 357.328 76.9121 357.144 76.9121 356.96L82.7081 209.392C82.7081 209.208 82.8001 209.024 82.9841 208.932C83.1681 208.84 83.3521 208.748 83.5361 208.748L147.2 218.592C147.476 218.684 147.752 218.96 147.752 219.236L147.016 355.12C147.016 355.488 146.74 355.764 146.372 355.764H125.764C125.396 355.764 125.12 355.488 125.12 355.12L115.552 256.588L98.3481 357.052C98.2561 357.328 97.9801 357.604 97.7041 357.604ZM78.2001 356.316H97.1521L115 251.528C115.092 251.16 115.368 250.976 115.644 250.976C116.012 250.976 116.196 251.252 116.288 251.528L126.316 354.384H145.636L146.28 219.696L83.9041 210.036L78.2001 356.316Z" fill="#231F20"/>
<path d="M138.644 133.86C138.644 133.86 99.452 129.904 91.908 136.16C84.364 142.416 81.144 224.664 81.144 224.664L146.556 227.056C146.556 227.056 152.904 147.66 138.644 133.86Z" fill="#231F20"/>
<path d="M146.556 227.7L81.144 225.308C80.96 225.308 80.776 225.216 80.684 225.124C80.592 225.032 80.5 224.848 80.5 224.664C80.592 221.26 83.72 142.048 91.54 135.7C99.36 129.352 137.172 133.124 138.828 133.308C139.012 133.308 139.104 133.4 139.196 133.492C145.268 139.38 148.488 156.952 148.672 185.748C148.856 207.092 147.292 227.056 147.2 227.24C147.2 227.424 146.924 227.7 146.556 227.7ZM81.788 224.02L145.912 226.32C146.464 218.868 151.432 147.66 138.368 134.504C135.148 134.228 99.36 130.916 92.276 136.62C86.296 141.588 82.708 200.744 81.788 224.02Z" fill="#231F20"/>
<path d="M116.656 178.02C116.38 178.02 116.104 177.836 116.012 177.56C113.712 171.304 102.304 140.208 103.592 137.264C103.776 136.896 104.144 136.804 104.42 136.896C104.696 136.988 104.88 137.448 104.788 137.724C104.144 139.564 110.308 158.24 116.656 175.444C118.956 170.108 126.5 151.616 128.432 140.116C128.524 139.748 128.892 139.564 129.26 139.656C129.536 139.748 129.72 140.024 129.72 140.3C127.42 154.008 117.3 177.192 117.116 177.468C117.208 177.928 116.932 178.02 116.656 178.02Z" fill="white"/>
<path d="M106.352 131.56L105.156 161.736L104.788 170.016L104.328 181.608L103.96 189.888L102.856 216.016L72.2197 214.636C72.2197 214.636 72.4037 203.412 72.9557 189.52C73.0477 186.852 73.1397 184 73.3237 181.148C73.5077 177.284 73.6917 173.42 73.9677 169.556C74.1517 166.704 74.3357 163.944 74.5197 161.276C75.3477 150.052 76.4517 140.576 78.0157 137.448C82.4317 128.156 106.352 131.56 106.352 131.56Z" fill="url(#paint0_linear_597_501)"/>
<path d="M159.344 170.752C159.344 174.616 159.252 178.48 159.16 182.344C159.068 185.196 158.976 187.956 158.976 190.624C158.516 206.264 157.78 219.144 157.78 219.144L127.236 216.66L127.788 190.256L127.972 181.884L128.156 170.292L128.34 162.012L128.984 131.928C128.984 131.928 152.904 128.524 157.412 137.908C158.884 140.944 159.436 150.696 159.528 162.38C159.344 165.14 159.344 167.9 159.344 170.752Z" fill="url(#paint1_linear_597_501)"/>
<path d="M85.8359 241.316C85.4679 241.316 85.1919 240.948 85.1919 240.672C85.1919 240.396 85.3759 240.212 85.5599 240.12C90.2519 238.004 93.6559 233.772 94.8519 228.712C94.8519 228.344 95.2199 228.068 95.5879 228.068C95.9559 228.068 96.2319 228.436 96.2319 228.804C96.2319 228.896 96.2319 228.896 96.2319 228.988C95.0359 234.416 91.3559 239.016 86.2039 241.316C86.0199 241.316 85.9279 241.316 85.8359 241.316Z" fill="white"/>
<path d="M144.256 241.316C144.072 241.316 143.98 241.224 143.888 241.224C140.208 238.188 138.184 233.588 138.276 228.804C138.276 228.436 138.552 228.16 138.92 228.16C139.288 228.16 139.564 228.528 139.564 228.804C139.564 228.896 139.196 235.704 144.716 240.12C144.992 240.304 145.084 240.764 144.808 241.04C144.624 241.224 144.44 241.316 144.256 241.316Z" fill="white"/>
<path d="M115.644 249.872C115.276 249.872 115 249.596 115 249.228C115 248.584 116.104 229.632 116.104 228.804C116.104 228.436 116.38 228.16 116.748 228.16H116.84C117.208 228.16 117.484 228.528 117.484 228.896C117.208 234.324 116.38 248.676 116.38 249.228C116.288 249.596 116.012 249.872 115.644 249.872Z" fill="white"/>
<path d="M146.556 227.7L81.144 225.308C80.776 225.308 80.5 224.94 80.592 224.572C80.592 224.296 80.868 224.02 81.144 224.02L146.556 226.412C146.924 226.412 147.2 226.688 147.2 227.056C147.2 227.424 146.924 227.7 146.556 227.7Z" fill="white"/>
<path d="M74.428 161.368L105.064 161.736L104.696 170.016L73.876 169.648C74.06 166.888 74.244 164.036 74.428 161.368Z" fill="white"/>
<path d="M159.344 170.752L128.064 170.384L128.248 162.104L159.344 162.472C159.344 165.14 159.344 167.9 159.344 170.752Z" fill="white"/>
<path d="M73.324 181.24L104.328 181.608L103.96 189.888L72.9561 189.52C73.0481 186.944 73.14 184.092 73.324 181.24Z" fill="white"/>
<path d="M159.16 182.344C159.068 185.196 158.976 187.956 158.976 190.624L127.696 190.256L127.88 181.884L159.16 182.344Z" fill="white"/>
<path d="M134.872 109.48C134.596 109.02 136.988 103.5 136.16 94.7597C135.332 86.0197 119.416 82.9837 113.712 83.7197C108.008 84.4557 102.212 90.3437 101.016 96.0477C99.82 101.752 102.304 112.24 102.304 112.24L134.872 109.48Z" fill="white"/>
<path d="M102.304 112.884C102.028 112.884 101.752 112.7 101.66 112.332C101.568 111.872 99.0841 101.844 100.372 95.9562C101.66 89.7002 107.732 83.8122 113.62 83.0762C117.576 82.5242 127.604 83.9042 133.124 88.3202C135.24 89.7922 136.528 92.0922 136.896 94.6682C137.356 99.1762 136.896 103.776 135.792 108.192C135.7 108.652 135.608 109.112 135.516 109.296C135.608 109.664 135.332 110.032 134.964 110.124H134.872L102.304 112.884ZM115.644 84.3642C115 84.3642 114.448 84.3642 113.804 84.4562C108.468 85.1002 102.856 90.7122 101.66 96.3242C100.648 101.108 102.396 109.296 102.856 111.504L134.228 108.836C134.32 108.652 134.32 108.284 134.412 107.916C135.516 103.684 135.884 99.1762 135.516 94.8522C135.24 92.6442 134.044 90.7122 132.296 89.4242C128.064 86.0202 120.336 84.3642 115.644 84.3642Z" fill="#231F20"/>
<path d="M129.996 108.928C130.916 103.408 140.024 102.028 139.564 108.56C139.472 110.86 138.644 112.976 137.08 114.724C135.516 116.38 133.124 117.024 130.916 116.196" fill="white"/>
<path d="M132.94 117.208C132.204 117.208 131.468 117.024 130.732 116.748C130.364 116.656 130.18 116.196 130.364 115.828C130.548 115.46 130.916 115.276 131.284 115.46H131.376C133.308 116.104 135.424 115.644 136.804 114.172C138.184 112.608 139.012 110.584 139.012 108.468C139.196 106.352 138.184 105.064 136.344 104.88C133.676 104.604 131.284 106.352 130.732 109.02C130.64 109.388 130.364 109.664 129.996 109.572C129.628 109.48 129.352 109.204 129.444 108.836C130.088 105.524 133.216 103.224 136.62 103.592C138.644 103.776 140.668 105.248 140.484 108.652C140.392 111.044 139.472 113.436 137.816 115.184C136.436 116.472 134.78 117.208 132.94 117.208Z" fill="#231F20"/>
<path d="M107.18 108.928C106.26 103.408 97.0598 102.028 97.6118 108.56C97.7038 110.86 98.5318 112.976 100.096 114.724C101.66 116.38 104.052 117.024 106.26 116.196" fill="white"/>
<path d="M104.236 117.208C102.488 117.208 100.74 116.472 99.5439 115.184C97.8879 113.344 96.9679 111.044 96.8759 108.652C96.5999 105.248 98.7159 103.868 100.74 103.592C104.144 103.224 107.18 105.524 107.916 108.836C108.008 109.204 107.732 109.572 107.364 109.572C106.996 109.664 106.628 109.388 106.628 109.02C106.076 106.444 103.684 104.696 101.016 104.88C99.1759 105.064 98.2559 106.444 98.3479 108.468C98.4399 110.584 99.1759 112.608 100.556 114.172C101.936 115.644 104.052 116.196 105.984 115.46C106.352 115.276 106.72 115.46 106.904 115.736C107.088 116.104 106.904 116.472 106.628 116.656H106.536C105.708 117.024 104.972 117.208 104.236 117.208Z" fill="#231F20"/>
<path d="M107.18 134.136C107.18 134.136 110.492 142.048 117.668 142.048C121.808 142.14 125.672 140.116 127.88 136.62L127.604 132.756L126.868 123.74L126.224 115.368H109.664L109.112 122.268L108.928 124.476L107.18 134.136Z" fill="white"/>
<path d="M117.668 142.692C110.032 142.692 106.628 134.78 106.536 134.412C106.536 134.32 106.536 134.136 106.536 134.044L108.284 124.384L109.02 115.368C109.02 115 109.296 114.724 109.664 114.724H126.224C126.592 114.724 126.868 115 126.868 115.368L128.524 136.62C128.524 136.712 128.524 136.896 128.432 136.988C126.224 140.668 122.084 142.784 117.668 142.692ZM107.824 134.044C108.376 135.148 111.504 141.312 117.668 141.312C121.44 141.404 125.028 139.564 127.144 136.436L125.488 116.012H110.216L109.572 124.476L107.824 134.044Z" fill="#231F20"/>
<path d="M107.824 121.532C108.008 122.544 108.376 123.556 108.928 124.384C110.308 126.408 112.148 128.064 114.356 129.168C117.944 131.1 123.28 133.4 127.604 132.664L126.868 123.648C123.74 124.016 120.52 124.108 117.3 123.74C114.448 123.648 111.688 123.096 109.02 122.176C108.652 121.992 108.192 121.808 107.824 121.532Z" fill="#231F20"/>
<path d="M125.948 133.492C121.532 133.492 116.748 131.192 114.08 129.72C111.78 128.524 109.848 126.868 108.376 124.752C107.732 123.832 107.364 122.728 107.18 121.624C107.18 121.348 107.272 121.164 107.456 120.98C107.64 120.888 107.916 120.888 108.192 120.98C108.56 121.164 109.02 121.44 109.388 121.624C111.964 122.544 114.632 123.096 117.392 123.188C120.52 123.556 123.648 123.556 126.776 123.096C126.96 123.096 127.144 123.096 127.328 123.188C127.512 123.28 127.604 123.464 127.604 123.648L128.34 132.664C128.34 133.032 128.156 133.308 127.788 133.4C127.052 133.492 126.5 133.492 125.948 133.492ZM108.836 122.82C109.02 123.28 109.204 123.648 109.48 124.108C110.768 126.04 112.608 127.604 114.724 128.616C117.484 130.088 122.544 132.48 126.868 132.112L126.224 124.476C123.188 124.844 120.244 124.844 117.208 124.476C114.356 124.384 111.504 123.832 108.836 122.82Z" fill="#231F20"/>
<path d="M117.484 125.856H118.956C125.948 125.856 131.652 120.152 131.652 113.16V93.104H104.88V113.16C104.788 120.152 110.4 125.856 117.484 125.856Z" fill="white"/>
<path d="M131.56 93.1041V113.16C131.56 120.152 125.856 125.856 118.864 125.856H117.392C110.4 125.856 104.696 120.152 104.696 113.16V93.1041H131.56ZM131.56 91.7241H104.788C104.052 91.7241 103.408 92.3681 103.408 93.1041V113.16C103.408 120.888 109.664 127.144 117.484 127.236H118.956C126.684 127.236 132.94 120.98 133.032 113.16V93.1041C132.94 92.3681 132.296 91.7241 131.56 91.7241Z" fill="#231F20"/>
<path d="M118.404 113.62C117.76 113.62 117.208 113.62 116.564 113.528C116.196 113.528 115.92 113.252 115.736 112.976C114.724 111.32 117.024 105.064 117.76 103.132C117.852 102.764 118.22 102.58 118.588 102.672C118.956 102.764 119.14 103.132 119.048 103.5C119.048 103.5 119.048 103.5 119.048 103.592C117.576 107.548 116.564 111.32 116.932 112.148C118.036 112.24 119.232 112.24 120.336 112.148C120.704 112.056 121.072 112.332 121.072 112.7C121.072 113.068 120.888 113.436 120.52 113.436C119.692 113.62 119.048 113.62 118.404 113.62Z" fill="#231F20"/>
<path d="M136.16 94.7599C136.16 94.7599 130.916 102.488 127.88 100.924C124.844 99.3599 123.096 95.1279 117.668 95.0359C112.976 94.9439 110.216 101.844 106.352 100.832C103.96 100.188 102.028 98.4399 101.016 96.1399C105.34 89.7919 112.792 86.3879 120.428 87.1239C133.86 88.1359 136.16 94.7599 136.16 94.7599Z" fill="white"/>
<path d="M128.8 101.844C128.432 101.844 127.972 101.752 127.604 101.568C126.5 100.924 125.488 100.096 124.568 99.1759C122.82 97.5199 120.98 95.7719 117.668 95.7719C115.644 95.7719 113.896 97.2439 112.24 98.8079C110.4 100.464 108.56 102.212 106.168 101.568C103.592 100.832 101.384 98.9919 100.372 96.4159C100.28 96.2319 100.372 96.0479 100.464 95.8639C104.972 89.4239 112.608 85.8359 120.428 86.5719C134.136 87.5839 136.712 94.3919 136.804 94.6679C136.896 94.8519 136.804 95.1279 136.712 95.3119C136.252 95.8639 132.112 101.844 128.8 101.844ZM117.668 94.3919H117.76C121.624 94.4839 123.74 96.4159 125.58 98.2559C126.408 99.0839 127.328 99.8199 128.34 100.372C130.088 101.292 133.584 97.5199 135.516 94.6679C134.872 93.3799 131.652 88.5959 120.52 87.7679C113.252 87.1239 106.26 90.3439 101.936 96.2319C102.856 98.1639 104.512 99.6359 106.628 100.188C108.284 100.556 109.756 99.2679 111.412 97.7039C113.068 96.1399 115 94.3919 117.668 94.3919Z" fill="#231F20"/>
<path d="M101.016 96.1401C101.016 92.1841 101.476 88.2281 102.304 84.3641C103.776 79.0281 114.54 75.3481 120.244 76.3601C125.948 77.3721 133.676 81.6041 134.78 84.1801C135.884 86.7561 136.16 94.7601 136.16 94.7601C136.16 94.7601 114.356 83.3521 101.016 96.1401Z" fill="white"/>
<path d="M101.016 96.7839C100.648 96.7839 100.372 96.5079 100.372 96.1399C100.372 92.0919 100.832 88.1359 101.752 84.1799C103.316 78.3839 114.54 74.6119 120.428 75.6239C126.316 76.6359 134.228 80.9599 135.516 83.8119C136.712 86.4799 136.896 94.2999 136.896 94.6679C136.896 94.9439 136.804 95.1279 136.528 95.2199C136.344 95.3119 136.068 95.3119 135.884 95.2199C135.7 95.1279 114.356 84.1799 101.476 96.5079C101.384 96.7839 101.2 96.7839 101.016 96.7839ZM118.312 76.9119C112.792 76.9119 104.144 80.1319 102.948 84.5479C102.12 87.8599 101.752 91.2639 101.66 94.5759C113.528 84.7319 131.008 91.6319 135.424 93.6559C135.332 91.3559 135.056 86.2959 134.228 84.4559C133.216 82.2479 125.764 78.0159 120.152 77.0039C119.6 76.9119 118.956 76.9119 118.312 76.9119Z" fill="#231F20"/>
<path d="M119.048 121.808C117.116 121.716 115.276 121.164 113.712 120.244C113.344 120.06 113.252 119.692 113.436 119.324C113.62 118.956 113.988 118.864 114.356 119.048C116.84 120.336 118.956 120.796 120.704 120.244C121.716 119.968 122.544 119.324 123.096 118.404C123.28 118.036 123.648 117.944 124.016 118.128C124.384 118.312 124.476 118.68 124.292 119.048C123.556 120.244 122.452 121.164 121.164 121.624C120.428 121.716 119.784 121.808 119.048 121.808Z" fill="#231F20"/>
<path d="M124.033 103.862C124.439 103.835 124.716 103.032 124.652 102.069C124.589 101.106 124.208 100.347 123.803 100.373C123.397 100.4 123.12 101.203 123.184 102.166C123.247 103.129 123.628 103.888 124.033 103.862Z" fill="#231F20"/>
<path d="M112.718 104.69C113.123 104.663 113.401 103.861 113.337 102.898C113.273 101.934 112.893 101.175 112.487 101.202C112.082 101.229 111.805 102.031 111.868 102.995C111.932 103.958 112.312 104.717 112.718 104.69Z" fill="#231F20"/>
<path d="M122.544 194.304H110.768C110.4 194.304 110.124 194.028 110.124 193.66V177.468C110.124 177.1 110.4 176.824 110.768 176.824H122.544C122.912 176.824 123.188 177.1 123.188 177.468V193.66C123.188 194.028 122.912 194.304 122.544 194.304ZM111.504 192.924H121.9V178.02H111.412L111.504 192.924Z" fill="white"/>
<path d="M205.252 161.552C205.068 161.46 187.312 199.18 176.64 200.836C165.968 202.492 160.632 194.212 165.416 185.012C170.2 175.812 187.956 159.436 187.956 159.436L208.38 151.892L205.252 161.552Z" fill="white"/>
<path d="M173.88 201.756C169.924 201.756 166.612 200.284 164.68 197.616C162.288 194.304 162.288 189.428 164.68 184.828C169.372 175.628 186.668 159.712 187.312 159.068C187.404 158.976 187.496 158.976 187.496 158.976L207.92 151.432C208.196 151.34 208.472 151.432 208.656 151.616C208.84 151.8 208.932 152.076 208.84 152.352L205.804 162.012C205.804 162.104 205.712 162.196 205.712 162.288C205.62 162.472 205.16 163.3 204.7 164.128C192.372 188.14 182.988 200.836 176.548 201.848C175.72 201.664 174.8 201.756 173.88 201.756ZM188.14 160.08C186.668 161.368 170.292 176.732 165.876 185.38C163.668 189.612 163.668 193.844 165.784 196.788C167.9 199.732 171.764 200.928 176.456 200.192C180.504 199.548 188.508 192.648 203.504 163.3C204.056 162.196 204.332 161.644 204.516 161.368L207.092 153.18L188.14 160.08Z" fill="#231F20"/>
<path d="M194.948 173.972H159.068L175.996 128.708H211.784L194.948 173.972Z" fill="white"/>
<path d="M194.948 174.616H159.068C158.884 174.616 158.608 174.524 158.516 174.34C158.424 174.156 158.332 173.88 158.424 173.696L175.352 128.432C175.444 128.156 175.72 127.972 175.996 127.972H211.876C212.06 127.972 212.336 128.064 212.428 128.248C212.52 128.432 212.612 128.708 212.52 128.892L195.592 174.156C195.408 174.432 195.224 174.616 194.948 174.616ZM160.08 173.328H194.488L210.864 129.444H176.456L160.08 173.328Z" fill="#231F20"/>
<path d="M203.136 165.508C203.32 164.956 210.404 153.272 210.036 149.316C209.76 146.464 198.72 141.22 196.328 141.68C193.936 142.14 201.02 146.832 201.02 146.832C201.02 146.832 190.164 142.14 189.52 144.9C188.876 147.66 199.824 150.42 199.824 150.42C199.824 150.42 188.14 148.304 187.864 150.696C187.588 153.088 197.432 154.468 197.432 154.468C197.432 154.468 188.232 153.916 189.796 156.032C191.36 158.148 201.112 161 201.112 161" fill="white"/>
<path d="M203.136 166.152C203.044 166.152 202.952 166.152 202.86 166.152C202.492 166.06 202.308 165.692 202.492 165.324C202.676 164.864 202.952 164.404 203.228 163.944C204.792 161.092 209.668 152.444 209.3 149.408C209.3 149.224 209.116 148.488 207.276 147.2C203.872 144.624 198.26 142.416 196.512 142.416C197.892 143.888 199.548 145.268 201.296 146.372C201.572 146.556 201.664 147.016 201.48 147.292C201.296 147.568 200.928 147.752 200.652 147.568C197.432 146.188 191.728 144.256 190.256 144.992C190.164 144.992 190.072 145.084 190.072 145.176C189.796 146.464 194.948 148.672 199.916 149.868C200.284 149.96 200.468 150.328 200.376 150.696C200.284 151.064 199.916 151.248 199.548 151.248C193.568 150.236 188.692 150.236 188.416 150.972C188.324 151.8 192.648 153.272 197.432 154.008C197.8 154.1 198.076 154.376 197.984 154.744C197.984 155.112 197.616 155.388 197.248 155.388C194.028 155.204 190.9 155.388 190.256 155.848C191.452 157.32 197.616 159.436 201.204 160.54C201.572 160.632 201.756 161 201.664 161.368C201.572 161.736 201.204 161.92 200.836 161.828C199.824 161.552 190.808 158.884 189.152 156.676C188.784 156.308 188.784 155.756 188.968 155.296C189.244 154.744 190.256 154.376 191.36 154.192C188.968 153.456 186.852 152.352 187.036 150.88C187.128 150.512 187.312 150.144 187.68 149.868C188.6 149.132 190.808 149.04 193.108 149.224C190.532 148.12 188.416 146.648 188.784 144.992C188.876 144.532 189.244 144.072 189.704 143.888C191.084 143.152 194.12 143.888 196.788 144.716C195.592 143.612 195.04 142.692 195.132 142.14C195.224 141.68 195.684 141.312 196.144 141.312C198.26 140.944 204.884 143.98 208.104 146.372C209.668 147.568 210.496 148.58 210.588 149.592C210.956 152.628 207.368 159.436 204.332 164.956C203.964 165.6 203.78 165.968 203.688 166.152C203.596 166.06 203.412 166.152 203.136 166.152Z" fill="#231F20"/>
<path d="M188.232 127.328L185.932 133.584L200.192 133.216L202.492 127.328H188.232Z" fill="#231F20"/>
<path d="M185.932 134.228C185.748 134.228 185.564 134.136 185.38 133.952C185.288 133.768 185.196 133.584 185.288 133.308L187.588 127.052C187.68 126.776 187.956 126.592 188.232 126.592H202.492C202.676 126.592 202.952 126.684 203.044 126.868C203.136 127.052 203.228 127.236 203.136 127.512L200.836 133.308C200.744 133.584 200.468 133.676 200.284 133.676L185.932 134.228ZM188.692 127.972L186.852 132.94L199.732 132.572L201.48 128.064H188.692V127.972Z" fill="#231F20"/>
<path d="M198.812 128.432C198.996 127.88 198.996 127.236 198.812 126.684C198.444 125.764 197.616 125.028 196.604 124.936C195.592 124.844 194.672 125.028 193.844 125.672C193.016 126.224 192.464 127.052 192.28 127.972C191.912 129.628 192.924 131.284 194.58 131.652C194.672 131.652 194.764 131.652 194.948 131.744C196.696 131.744 198.444 130.088 198.812 128.432Z" fill="#231F20"/>
<path d="M195.132 132.296H194.948C193.936 132.204 193.016 131.744 192.372 130.824C191.728 129.904 191.452 128.8 191.636 127.696C191.912 126.592 192.556 125.672 193.476 125.028C194.396 124.292 195.592 124.016 196.788 124.2C197.984 124.384 199.088 125.212 199.456 126.408C199.64 127.144 199.732 127.88 199.548 128.524C198.996 130.64 197.156 132.112 195.132 132.296ZM196.052 125.488C195.408 125.488 194.764 125.764 194.212 126.132C193.568 126.592 193.108 127.236 192.924 127.972C192.74 128.708 192.924 129.444 193.384 129.996C193.752 130.548 194.304 130.824 194.948 130.916C196.512 130.824 197.8 129.72 198.168 128.248C198.26 127.788 198.26 127.328 198.168 126.868C197.892 126.132 197.248 125.672 196.512 125.488C196.328 125.488 196.144 125.488 196.052 125.488Z" fill="#231F20"/>
<path d="M63.204 213.992C63.204 213.992 57.408 204.608 48.944 204.884C43.148 205.068 34.5 209.392 34.5 209.392L73.876 249.228C73.876 249.228 86.572 258.888 88.596 255.852C90.62 252.816 91.816 249.688 90.62 247.664C89.424 245.64 82.708 242.144 82.708 242.144L81.788 234.048C81.788 234.048 77.096 235.704 75.532 234.876C73.968 234.048 63.204 213.992 63.204 213.992Z" fill="white"/>
<path d="M87.308 257.14C83.26 257.14 74.52 250.516 73.508 249.78L34.04 209.852C33.856 209.668 33.856 209.484 33.856 209.3C33.856 209.116 34.04 208.932 34.224 208.84C34.592 208.656 43.056 204.516 48.944 204.332H49.312C57.776 204.332 63.48 213.44 63.756 213.808C68.908 223.284 74.98 233.772 75.992 234.508C76.82 234.968 79.764 234.232 81.604 233.588C81.972 233.496 82.34 233.588 82.524 233.956C82.524 234.048 82.524 234.048 82.524 234.14L83.352 241.868C84.824 242.696 90.068 245.548 91.172 247.48C92.644 250.056 90.896 253.736 89.056 256.404C88.78 256.864 88.228 257.14 87.676 257.232C87.584 257.14 87.4 257.14 87.308 257.14ZM35.696 209.576L74.336 248.768C77.004 250.792 84.824 256.22 87.492 255.76C87.676 255.76 87.86 255.668 87.952 255.484C90.16 252.172 90.896 249.504 89.976 248.032C89.056 246.56 84.18 243.708 82.34 242.788C82.156 242.696 81.972 242.512 81.972 242.236L81.236 235.06C79.672 235.52 76.636 236.348 75.256 235.612C73.692 234.784 65.136 219.236 62.468 214.452C62.192 214.084 56.58 205.436 48.852 205.62C44.436 205.712 37.996 208.472 35.696 209.576Z" fill="#231F20"/>
<path d="M118.496 87.1238C120.427 87.1238 121.992 85.5586 121.992 83.6278C121.992 81.6971 120.427 80.1318 118.496 80.1318C116.565 80.1318 115 81.6971 115 83.6278C115 85.5586 116.565 87.1238 118.496 87.1238Z" fill="url(#paint2_linear_597_501)"/>
<defs>
<linearGradient id="paint0_linear_597_501" x1="89.2857" y1="130.951" x2="89.2857" y2="216.016" gradientUnits="userSpaceOnUse">
<stop stop-color="#68E1FD"/>
<stop offset="1" stop-color="#0D54DB"/>
</linearGradient>
<linearGradient id="paint1_linear_597_501" x1="143.382" y1="131.326" x2="143.382" y2="219.144" gradientUnits="userSpaceOnUse">
<stop stop-color="#68E1FD"/>
<stop offset="1" stop-color="#0D54DB"/>
</linearGradient>
<linearGradient id="paint2_linear_597_501" x1="118.496" y1="80.1318" x2="118.496" y2="87.1238" gradientUnits="userSpaceOnUse">
<stop stop-color="#68E1FD"/>
<stop offset="1" stop-color="#0D54DB"/>
</linearGradient>
</defs>
</svg>
