<svg width="79" height="19" viewBox="0 0 79 19" fill="none" xmlns="http://www.w3.org/2000/svg">
<g clip-path="url(#clip0_1_1925)">
<path d="M8.792 18.9981C5.92881 18.9981 3.74776 18.1747 2.24886 16.5278C0.749957 14.881 0.000337362 12.5428 0 9.51326C0 8.00704 0.228732 6.66253 0.686195 5.47974C1.14366 4.29695 1.77048 3.29821 2.56665 2.48351C3.37564 1.66069 4.34721 1.02866 5.41467 0.630824C6.51548 0.212137 7.70974 0.00279365 8.99746 0.00279365C9.6786 -0.00262442 10.3589 0.054471 11.0302 0.173408C11.5711 0.27082 12.1057 0.402607 12.6309 0.568021C13.023 0.690286 13.4054 0.843919 13.7745 1.02753C14.0781 1.18558 14.2974 1.3077 14.4324 1.39388L13.2897 4.70412C12.6864 4.38175 12.0519 4.12632 11.3966 3.94211C10.676 3.73277 9.85857 3.6281 8.94432 3.6281C8.33435 3.62767 7.72869 3.73383 7.15293 3.94211C6.56843 4.15268 6.03824 4.49872 5.60292 4.95376C5.15422 5.41955 4.79426 6.01967 4.52302 6.75412C4.25178 7.48856 4.11683 8.38211 4.11818 9.43476C4.11245 10.2272 4.20203 11.0172 4.38487 11.7867C4.56232 12.5135 4.85026 13.1398 5.24869 13.6656C5.64711 14.1914 6.16749 14.6082 6.80983 14.9159C7.45352 15.2226 8.23283 15.3759 9.14775 15.3759C9.6662 15.3801 10.1842 15.3451 10.6978 15.2712C11.1084 15.2107 11.5155 15.127 11.9173 15.0206C12.2385 14.9365 12.5529 14.8266 12.8576 14.6919C13.1274 14.5694 13.373 14.4557 13.5944 14.3507L14.6869 17.6353C14.1282 17.9856 13.3407 18.3003 12.3242 18.5794C11.3077 18.8585 10.1303 18.9981 8.792 18.9981Z" fill="url(#paint0_linear_1_1925)"/>
<path d="M29.1708 11.6945C29.1708 12.781 29.019 13.7754 28.7154 14.6776C28.4118 15.5799 27.9707 16.3506 27.3921 16.9898C26.8123 17.6321 26.1062 18.1384 25.3214 18.4746C24.5164 18.8235 23.6143 18.998 22.615 18.998C21.6323 18.998 20.7383 18.8235 19.933 18.4746C19.1484 18.1384 18.4426 17.6321 17.8633 16.9898C17.2874 16.3503 16.8385 15.5794 16.5167 14.6771C16.1949 13.7748 16.0339 12.7805 16.0339 11.694C16.0339 10.6082 16.1991 9.61833 16.5294 8.72443C16.8596 7.83053 17.3169 7.06818 17.9012 6.43735C18.4905 5.80391 19.2 5.30322 19.9851 4.96672C20.7891 4.61781 21.6662 4.44336 22.6166 4.44336C23.5821 4.44336 24.4672 4.61781 25.2718 4.96672C26.0537 5.30153 26.7588 5.80258 27.3415 6.43735C27.917 7.06818 28.3659 7.83036 28.6881 8.72391C29.0102 9.61745 29.1712 10.6076 29.1708 11.6945ZM25.3087 11.6945C25.3087 10.4855 25.0758 9.53511 24.6099 8.84323C24.144 8.15135 23.479 7.80524 22.615 7.80489C21.751 7.80489 21.0819 8.151 20.6076 8.84323C20.1332 9.53546 19.8961 10.4859 19.8961 11.6945C19.8961 12.9034 20.1332 13.8629 20.6076 14.573C21.0819 15.283 21.751 15.6378 22.615 15.6375C23.479 15.6375 24.144 15.2826 24.6099 14.573C25.0758 13.8633 25.3087 12.9038 25.3087 11.6945Z" fill="url(#paint1_linear_1_1925)"/>
<path d="M39.4365 11.3004C39.4365 10.0391 39.2798 9.14558 38.9664 8.61978C38.653 8.09398 38.115 7.83125 37.3526 7.8316C37.1164 7.8316 36.8708 7.84468 36.6158 7.87085C36.3607 7.89702 36.115 7.92772 35.8785 7.96296V18.6316H32.0928V5.28232C32.4146 5.1951 32.7916 5.10316 33.2238 5.00651C33.6559 4.90987 34.1132 4.82264 34.5957 4.74483C35.0798 4.66528 35.5749 4.60353 36.0809 4.55956C36.5869 4.5156 37.0866 4.4938 37.5798 4.49414C38.546 4.49414 39.3295 4.62115 39.9304 4.87515C40.5312 5.12915 41.0268 5.4313 41.4171 5.78161C41.9866 5.3648 42.617 5.04532 43.2844 4.83537C43.9872 4.60824 44.6352 4.49449 45.2287 4.49414C46.2957 4.49414 47.1729 4.64731 47.8601 4.95365C48.5473 5.25999 49.0935 5.69368 49.4987 6.25472C49.9055 6.81576 50.185 7.48147 50.3372 8.25186C50.4969 9.10021 50.5735 9.96305 50.5659 10.8273V18.6316H46.7802V11.3004C46.7802 10.0391 46.6235 9.14558 46.3101 8.61978C45.9967 8.09398 45.4587 7.83125 44.6963 7.8316C44.4939 7.8316 44.2102 7.88394 43.8451 7.98861C43.5272 8.07325 43.2232 8.20605 42.9429 8.3827C43.0635 8.79768 43.1401 9.22497 43.1716 9.65707C43.2053 10.104 43.2222 10.5815 43.2222 11.0895V18.6316H39.4365V11.3004Z" fill="url(#paint2_linear_1_1925)"/>
<path d="M53.3612 11.8278C53.3612 10.6014 53.5432 9.52835 53.9072 8.60863C54.2713 7.68892 54.7498 6.92237 55.3429 6.309C55.9245 5.70356 56.6211 5.22937 57.3888 4.91634C58.1454 4.60418 58.9527 4.44431 59.7672 4.44532C61.6639 4.44532 63.1629 5.04543 64.2644 6.24567C65.3659 7.4459 65.9165 9.21102 65.9162 11.541C65.9162 11.7685 65.9077 12.0181 65.8909 12.2899C65.874 12.5617 65.8571 12.8027 65.8403 13.0127H57.2486C57.3337 13.8187 57.698 14.458 58.3417 14.9308C58.9854 15.4036 59.8492 15.6401 60.9331 15.6405C61.6196 15.6412 62.3046 15.5751 62.9791 15.4432C63.6481 15.312 64.1943 15.1499 64.6177 14.957L65.1237 18.1369C64.8615 18.2646 64.5895 18.3697 64.3105 18.4509C63.9386 18.564 63.561 18.6561 63.1795 18.7267C62.7645 18.8056 62.3199 18.8713 61.8455 18.924C61.3729 18.9763 60.8979 19.0025 60.4226 19.0025C59.2199 19.0025 58.174 18.8187 57.2851 18.4509C56.3961 18.0832 55.6592 17.5793 55.0742 16.9395C54.4843 16.2907 54.0416 15.5143 53.7782 14.6665C53.4933 13.7494 53.3525 12.791 53.3612 11.8278ZM62.2544 10.33C62.2381 10.0001 62.1827 9.67349 62.0895 9.35756C62.0005 9.05044 61.8537 8.76459 61.6573 8.51652C61.4544 8.26487 61.2036 8.0591 60.9205 7.91204C60.624 7.75469 60.2556 7.67583 59.8153 7.67548C59.3919 7.67548 59.0277 7.74998 58.7228 7.89896C58.4308 8.03776 58.1708 8.23938 57.9601 8.49035C57.7535 8.74238 57.5941 9.03204 57.49 9.34447C57.3809 9.66475 57.3002 9.9946 57.2486 10.33H62.2544Z" fill="url(#paint3_linear_1_1925)"/>
<path d="M78.873 7.43686C78.5674 7.78751 78.1558 8.26063 77.6383 8.85621C77.1208 9.45179 76.5641 10.1088 75.9683 10.8272C75.3739 11.5459 74.7754 12.2992 74.1729 13.087C73.5704 13.8749 73.023 14.6371 72.5308 15.3736H78.998V18.6315H67.9465V16.3198C68.3021 15.6887 68.7299 15.0097 69.2299 14.2829C69.7298 13.5561 70.2549 12.825 70.8052 12.0895C71.3557 11.3537 71.9021 10.6398 72.4442 9.94794C72.9864 9.25606 73.4862 8.62977 73.9437 8.06908H68.2517V4.80908H78.873V7.43686Z" fill="url(#paint4_linear_1_1925)"/>
</g>
<defs>
<linearGradient id="paint0_linear_1_1925" x1="5.94928" y1="19.9951" x2="29.709" y2="18.6167" gradientUnits="userSpaceOnUse">
<stop stop-color="white"/>
<stop offset="1" stop-color="#999999"/>
</linearGradient>
<linearGradient id="paint1_linear_1_1925" x1="21.3553" y1="19.7618" x2="42.5817" y2="18.3243" gradientUnits="userSpaceOnUse">
<stop stop-color="white"/>
<stop offset="1" stop-color="#999999"/>
</linearGradient>
<linearGradient id="paint2_linear_1_1925" x1="39.576" y1="19.3736" x2="69.2768" y2="16.4616" gradientUnits="userSpaceOnUse">
<stop stop-color="white"/>
<stop offset="1" stop-color="#999999"/>
</linearGradient>
<linearGradient id="paint3_linear_1_1925" x1="58.4467" y1="19.7665" x2="78.7414" y2="18.4532" gradientUnits="userSpaceOnUse">
<stop stop-color="white"/>
<stop offset="1" stop-color="#999999"/>
</linearGradient>
<linearGradient id="paint4_linear_1_1925" x1="72.4232" y1="19.357" x2="90.2976" y2="18.2847" gradientUnits="userSpaceOnUse">
<stop stop-color="white"/>
<stop offset="1" stop-color="#999999"/>
</linearGradient>
<clipPath id="clip0_1_1925">
<rect width="79" height="19" fill="white"/>
</clipPath>
</defs>
</svg>
