<?xml version="1.0" encoding="UTF-8"?>
<svg id="Layer_2" data-name="Layer 2" xmlns="http://www.w3.org/2000/svg" viewBox="0 0 795.24 211.33">
  <defs>
    <style>
      .cls-1 {
        fill: #fff;
      }
    </style>
  </defs>
  <g id="Layer_2-2" data-name="Layer 2">
    <g id="Layer_1-2" data-name="Layer 1-2">
      <g>
        <g>
          <path class="cls-1" d="M194.18,183.79l-15.21-112.88c-1.56-11.55-11.41-20.16-23.06-20.16h-12.34c.05-5.59-.75-13.43-4.58-21.67-.79-1.69-13.69-28.23-41.38-29.06-20.77-.62-37.12,13.58-43.97,28.57-3.92,8.58-4.4,16.71-4.15,22.15h-10.99c-11.65,0-21.51,8.62-23.06,20.16L.22,183.79c-1.96,14.57,9.37,27.54,24.08,27.54h145.81c14.71,0,26.04-12.96,24.08-27.54h-.01ZM66.89,38.29c3.63-11.66,15.2-22.62,30.07-22.63,16.51-.01,28.98,13.48,31.04,26.51.5,3.16.35,6.07-.07,8.58h-62.15c-.38-3.31-.37-7.7,1.11-12.46ZM150.49,189.73H43.91c-10.75,0-19.03-9.47-17.6-20.13l11.11-82.51c1.14-8.44,8.34-14.74,16.86-14.74h85.83c8.52,0,15.72,6.3,16.86,14.74l11.11,82.51c1.43,10.65-6.85,20.13-17.6,20.13h.01Z"/>
          <path class="cls-1" d="M63.48,114.89c4.26-7.06,9.97-12.68,17.13-16.86,7.17-4.18,14.9-6.28,23.19-6.28,5.82,0,11.02.97,15.61,2.89,4.58,1.93,8.38,4.57,11.4,7.91,3.02,3.35,5.18,7.17,6.49,11.46l-18.34,6.44c-1.02-3.49-2.95-6.31-5.78-8.46-2.84-2.15-6.33-3.22-10.48-3.22-4.88,0-9.33,1.27-13.37,3.82s-7.24,5.93-9.6,10.15c-2.37,4.22-3.55,8.7-3.55,13.42,0,3.27.71,6.22,2.13,8.84s3.42,4.66,6,6.11c2.58,1.46,5.55,2.18,8.89,2.18,4.37,0,8.44-1.05,12.22-3.16s6.84-4.95,9.17-8.51l16.81,6.98c-2.47,3.93-5.66,7.53-9.55,10.8s-8.39,5.91-13.48,7.91-10.51,3-16.26,3c-6.77,0-12.81-1.33-18.12-3.98-5.31-2.66-9.46-6.46-12.44-11.41s-4.47-10.66-4.47-17.13c0-8.22,2.13-15.86,6.38-22.92l.02.02Z"/>
        </g>
        <g>
          <path class="cls-1" d="M306.35,149.55c-5.81,3.24-12.06,4.86-18.76,4.86-5.14,0-9.69-1.12-13.65-3.35-3.97-2.23-7.04-5.36-9.21-9.38-2.18-4.02-3.27-8.54-3.27-13.57,0-7.26,1.81-14.13,5.45-20.61,3.63-6.48,8.54-11.67,14.74-15.58,6.2-3.91,13.04-5.86,20.52-5.86,6.37,0,11.73,1.65,16.08,4.94,4.36,3.3,7.31,7.62,8.88,12.98l28.15-9.89c-2.01-6.59-5.34-12.45-9.97-17.59-4.64-5.14-10.47-9.19-17.51-12.15s-15.02-4.44-23.96-4.44c-12.73,0-24.6,3.21-35.6,9.63-11,6.42-19.77,15.05-26.3,25.89-6.53,10.84-9.8,22.56-9.8,35.18,0,9.94,2.29,18.71,6.87,26.3,4.58,7.6,10.95,13.43,19.1,17.51,8.15,4.08,17.42,6.12,27.81,6.12,8.82,0,17.14-1.54,24.96-4.61,7.82-3.07,14.72-7.12,20.69-12.15s10.86-10.56,14.66-16.59l-25.8-10.72c-3.58,5.47-8.27,9.83-14.07,13.07h0Z"/>
          <path class="cls-1" d="M429.83,94.68c-6.26-3.07-13.35-4.61-21.28-4.61-9.72,0-18.68,2.37-26.89,7.12-8.21,4.75-14.74,11.14-19.6,19.18-4.86,8.04-7.29,16.75-7.29,26.14,0,7.71,1.76,14.44,5.28,20.19s8.4,10.17,14.66,13.24c6.25,3.07,13.4,4.61,21.45,4.61,9.61,0,18.51-2.37,26.72-7.12s14.71-11.14,19.52-19.18c4.8-8.04,7.2-16.75,7.2-26.14,0-7.71-1.73-14.44-5.19-20.19s-8.32-10.16-14.58-13.24h0ZM418.52,142.93c-2.18,3.97-5.11,7.15-8.8,9.55-3.69,2.4-7.71,3.6-12.06,3.6-3.02,0-5.67-.67-7.96-2.01-2.29-1.34-4.05-3.21-5.28-5.61s-1.84-5.11-1.84-8.13c0-4.47,1.09-8.68,3.27-12.65,2.18-3.96,5.11-7.15,8.8-9.55s7.71-3.6,12.06-3.6c3.02,0,5.67.67,7.96,2.01,2.29,1.34,4.05,3.21,5.28,5.61s1.84,5.11,1.84,8.13c0,4.47-1.09,8.69-3.27,12.65Z"/>
          <path class="cls-1" d="M587.32,95.43c-4.69-3.57-10.39-5.36-17.09-5.36s-13.15,1.76-19.02,5.28c-3.53,2.12-6.73,4.72-9.6,7.8-1.47-2.78-3.38-5.21-5.73-7.3-4.36-3.85-9.66-5.78-15.92-5.78-5.59,0-10.81,1.59-15.67,4.77-2.64,1.73-5.21,3.97-7.7,6.7l2.08-9.8h-26.81l-18.6,87.12h26.81l10.22-48.42c.67-3.13,1.84-5.92,3.52-8.38s3.69-4.36,6.03-5.7c2.35-1.34,4.8-2.01,7.37-2.01,2.79,0,5.05.67,6.79,2.01,1.73,1.34,2.85,3.21,3.35,5.61s.42,5.22-.25,8.46l-10.22,48.42h26.81l10.22-48.42c.67-3.13,1.84-5.92,3.52-8.38s3.69-4.36,6.03-5.7c2.35-1.34,4.8-2.01,7.37-2.01,2.79,0,5.05.67,6.79,2.01,1.73,1.34,2.85,3.21,3.35,5.61s.42,5.22-.25,8.46l-10.22,48.42h26.81l10.56-50.1c1.45-6.81,1.23-13.18-.67-19.1-1.9-5.92-5.19-10.67-9.89-14.24v.03Z"/>
          <path class="cls-1" d="M687.09,97.61c-6.76-5.03-15-7.54-24.71-7.54s-18.68,2.37-26.89,7.12-14.74,11.14-19.6,19.18-7.29,16.75-7.29,26.14c0,7.71,1.76,14.44,5.28,20.19s8.4,10.17,14.66,13.24c6.25,3.07,13.4,4.61,21.45,4.61,8.93,0,17.28-2.12,25.05-6.37,7.76-4.24,13.88-9.61,18.35-16.08l-20.94-10.05c-2.68,3.13-5.78,5.53-9.3,7.2-3.52,1.68-7.4,2.51-11.64,2.51-3.24,0-6.14-.67-8.71-2.01s-4.55-3.32-5.95-5.95c-.76-1.43-1.31-3.03-1.65-4.78h63.56c3.24-9.72,3.8-18.79,1.68-27.23-2.12-8.43-6.56-15.16-13.32-20.19h-.03ZM647.72,116.29c3.85-2.29,7.85-3.43,11.98-3.43,3.69,0,6.84,1.01,9.47,3.02,2.62,2.01,4.41,4.55,5.36,7.62.15.48.27.95.37,1.42h-35.9c2.31-3.66,5.21-6.54,8.72-8.63h0Z"/>
          <polygon class="cls-1" points="795.24 91.75 721.52 91.75 716.49 115.2 753.91 115.2 707.61 157.09 702.92 178.87 776.64 178.87 781.67 155.41 744.25 155.41 790.55 113.53 795.24 91.75"/>
        </g>
      </g>
    </g>
  </g>
</svg>