<svg width="456" height="363" viewBox="0 0 456 363" fill="none" xmlns="http://www.w3.org/2000/svg">
<path d="M64.4783 91.7569L113.635 76.2529C114.821 75.8881 116.189 76.5265 116.553 77.8033L124.761 103.887C125.126 105.072 124.488 106.44 123.211 106.805L74.0543 122.309C72.8687 122.674 71.5007 122.035 71.1359 120.759L62.9279 94.6753C62.5631 93.3985 63.2927 92.1217 64.4783 91.7569Z" fill="white"/>
<path d="M74.0543 122.765C73.4159 122.765 72.7775 122.582 72.2303 122.309C71.3183 121.853 70.5887 121.032 70.3151 120.029L62.6543 95.6784C62.0159 93.672 63.1103 91.4832 65.2079 90.8448L112.632 75.888C114.638 75.2496 116.827 76.344 117.465 78.4416L125.126 102.792C125.765 104.798 124.67 106.987 122.573 107.626L75.1487 122.582C74.7839 122.765 74.4191 122.765 74.0543 122.765ZM113.817 76.9824C113.544 76.9824 113.27 76.9824 112.997 77.0736L65.5727 92.0304C64.2047 92.4864 63.3839 93.9456 63.8399 95.3136L71.5919 119.664C72.0479 121.032 73.4159 121.762 74.7839 121.397L122.208 106.44C123.576 105.984 124.305 104.525 123.941 103.157L116.28 78.8064C115.915 77.712 114.912 76.9824 113.817 76.9824Z" fill="#D1D3D4"/>
<path d="M94.8479 102.883C94.7567 102.883 94.7567 102.883 94.6655 102.883L63.4751 93.3985C63.1103 93.3073 62.9279 92.9425 63.0191 92.6689C63.1103 92.3953 63.4751 92.1217 63.7487 92.2129C63.7487 92.2129 63.7487 92.2129 63.8399 92.2129L94.6655 101.515L114.547 76.1617C114.821 75.8881 115.185 75.8881 115.459 76.1617C115.733 76.3441 115.733 76.7089 115.55 76.9825L95.3951 102.61C95.2127 102.792 95.0303 102.883 94.8479 102.883Z" fill="#D1D3D4"/>
<path d="M124.214 106.349C124.123 106.349 124.123 106.349 124.032 106.349L97.6752 99.144C97.3104 99.0528 97.128 98.688 97.2192 98.3232C97.3104 97.9584 97.6752 97.776 97.9488 97.8672L124.306 104.981C124.67 105.072 124.853 105.437 124.762 105.71C124.762 106.166 124.488 106.349 124.214 106.349Z" fill="#D1D3D4"/>
<path d="M72.7776 122.582C72.5952 122.582 72.504 122.491 72.4128 122.4C72.1392 122.218 72.1392 121.762 72.3216 121.488L89.832 100.512C90.0144 100.238 90.4704 100.238 90.744 100.421C91.0176 100.603 91.0176 101.059 90.8352 101.333L73.3248 122.309C73.1424 122.491 73.0512 122.582 72.7776 122.582Z" fill="#D1D3D4"/>
<path d="M97.2192 94.2192C96.9456 94.9488 96.4896 95.6784 95.8512 96.1344C95.2128 96.6816 94.4831 97.0464 93.6623 97.2288C93.0239 97.4112 92.2944 97.5024 91.5648 97.4112C90.9264 97.32 90.288 97.1376 89.6496 96.864C89.1024 96.5904 88.5552 96.1344 88.0992 95.5872C86.8224 93.9456 86.64 91.5744 87.7344 89.7504C88.464 88.5648 89.6495 87.744 90.9263 87.3792C91.5647 87.1968 92.1119 87.1968 92.7503 87.1968C93.3887 87.1968 93.936 87.3792 94.4832 87.6528C95.6688 88.2 96.4896 89.2944 96.7632 90.48C96.8544 90.8448 96.9456 91.3008 96.9456 91.7568C96.9456 92.1216 96.8544 92.3952 96.7632 92.76C96.672 93.0336 96.4896 93.3072 96.3072 93.4896C96.1248 93.672 95.9424 93.8544 95.76 94.0368C95.5776 94.128 95.3952 94.3104 95.2128 94.4016C95.0304 94.4928 94.9392 94.4928 94.7568 94.584C94.4832 94.6752 94.2096 94.6752 93.936 94.584C93.7536 94.4928 93.6624 94.3104 93.5712 94.128C93.3888 94.4016 93.2064 94.584 93.024 94.7664C92.7504 95.04 92.3856 95.2224 92.0208 95.2224C91.7472 95.3136 91.4736 95.3136 91.2 95.2224C90.9264 95.1312 90.6527 95.04 90.4703 94.9488C90.1967 94.7664 90.0144 94.584 89.9232 94.3104C89.7408 94.0368 89.6495 93.7632 89.5583 93.3984C89.4671 93.0336 89.4672 92.5776 89.4672 92.2128C89.4672 91.848 89.5584 91.4832 89.7408 91.1184C89.9232 90.7536 90.1056 90.48 90.3792 90.2064C90.6528 89.9328 91.0176 89.7504 91.4736 89.6592C91.7472 89.568 92.112 89.568 92.3856 89.568C92.6592 89.6592 92.9328 89.7504 93.1152 90.024L93.024 89.568L94.3008 89.2032L94.4832 91.9392C94.4832 92.0304 94.4832 92.2128 94.4832 92.304C94.4832 92.3952 94.4831 92.5776 94.5743 92.6688C94.5743 92.76 94.6656 92.9424 94.7568 93.0336C94.848 93.1248 94.9391 93.1248 95.0303 93.1248C95.2127 93.1248 95.304 93.0336 95.3952 92.9424C95.4864 92.8512 95.5776 92.6688 95.6688 92.4864C95.76 92.304 95.76 92.0304 95.76 91.7568C95.76 91.4832 95.6688 91.1184 95.6688 90.8448C95.5776 90.3888 95.3039 89.9328 95.0303 89.4768C94.7567 89.112 94.392 88.8384 94.0272 88.656C93.6624 88.4736 93.2063 88.3824 92.7503 88.2912C92.2943 88.2912 91.7472 88.2912 91.2912 88.4736C90.744 88.5648 90.288 88.8384 89.832 89.112C89.4672 89.3856 89.1024 89.7504 88.92 90.2064C88.6464 90.6624 88.5552 91.1184 88.464 91.5744C88.3728 92.1216 88.464 92.6688 88.5552 93.1248C88.6464 93.672 88.92 94.128 89.2848 94.584C89.5584 94.9488 89.9232 95.3136 90.3792 95.5872C90.8352 95.8608 91.2911 95.952 91.8383 96.0432C92.3856 96.0432 92.9328 96.0432 93.48 95.952C93.936 95.8608 94.392 95.6784 94.848 95.4048C95.2128 95.1312 95.5776 94.8576 95.8512 94.4928L97.3103 94.128L97.2192 94.2192ZM91.7472 91.1184C91.3824 91.2096 91.0176 91.4832 90.8352 91.848C90.744 92.0304 90.744 92.2128 90.6528 92.3952C90.6528 92.5776 90.6528 92.8512 90.744 93.0336C90.744 93.1248 90.8352 93.216 90.8352 93.3072C90.9264 93.4896 90.9264 93.5808 91.0176 93.672C91.1088 93.7632 91.2912 93.8544 91.4736 93.9456C91.656 94.0368 91.9296 94.0368 92.112 93.9456C92.2944 93.8544 92.568 93.7632 92.6592 93.672C92.8416 93.5808 92.9328 93.3984 92.9328 93.216C93.024 93.0336 93.024 92.8512 93.024 92.6688C93.024 92.4864 93.024 92.304 92.9328 92.1216C92.8416 91.848 92.6592 91.4832 92.4768 91.3008C92.3856 91.0272 92.112 91.0272 91.7472 91.1184Z" fill="#D1D3D4"/>
<path d="M59.736 255.005L67.488 240.96C67.8528 240.322 68.6736 240.048 69.312 240.413L95.5776 255.096C96.216 255.461 96.4896 256.282 96.1248 256.92L88.3728 270.874C88.008 271.512 87.1872 271.786 86.5488 271.421L60.192 256.829C59.5536 256.464 59.3712 255.643 59.736 255.005Z" fill="white"/>
<path d="M86.9135 272.059C86.4575 272.059 86.0927 271.968 85.7279 271.694L60.3743 257.558C59.1887 256.92 58.7327 255.37 59.3711 254.093L66.6671 241.051C67.0319 240.504 67.5791 240.048 68.2175 239.866C68.8559 239.683 69.5855 239.774 70.1327 240.048L95.4863 254.184C96.6719 254.822 97.1279 256.373 96.4895 257.65L89.1935 270.691C88.8287 271.238 88.2815 271.694 87.6431 271.877C87.4607 272.059 87.1871 272.059 86.9135 272.059ZM86.3663 270.6C87.0047 270.965 87.7343 270.691 88.0991 270.144L95.3951 257.102C95.7599 256.464 95.4863 255.734 94.9391 255.37L69.5855 241.234C68.9471 240.869 68.2175 241.142 67.8527 241.69L60.5567 254.731C60.1919 255.37 60.4655 256.099 61.0127 256.464L86.3663 270.6Z" fill="#D1D3D4"/>
<path d="M76.9727 258.197C76.6991 258.197 76.5167 258.014 76.4255 257.832L67.9439 240.778C67.7615 240.504 67.9439 240.048 68.2175 239.957C68.4911 239.774 68.9471 239.957 69.0383 240.23L77.3375 256.92L95.8511 255.278C96.2159 255.278 96.4895 255.552 96.4895 255.917C96.4895 256.19 96.3071 256.464 95.9423 256.555L76.9727 258.197Z" fill="#D1D3D4"/>
<path d="M87.2783 272.059C87.0047 272.059 86.8223 271.968 86.7311 271.695L79.2527 257.65C79.0703 257.376 79.1615 256.92 79.5263 256.738C79.7999 256.555 80.2559 256.646 80.4383 257.011L87.9167 271.056C88.0991 271.33 87.9167 271.786 87.6431 271.968C87.4607 272.059 87.3695 272.059 87.2783 272.059Z" fill="#D1D3D4"/>
<path d="M59.8271 256.738C59.4623 256.738 59.1887 256.464 59.1887 256.099C59.1887 255.734 59.4623 255.461 59.8271 255.461L75.6959 254.458C76.0607 254.458 76.3343 254.731 76.3343 255.096C76.3343 255.37 76.0607 255.643 75.7871 255.734L59.8271 256.738Z" fill="#D1D3D4"/>
<path d="M81.3504 255.37C80.8944 255.552 80.4384 255.643 79.9824 255.552C79.5264 255.461 79.0704 255.37 78.6144 255.096C78.2496 254.914 77.976 254.64 77.7024 254.275C77.4288 254.002 77.3376 253.637 77.1552 253.272C77.064 252.907 77.064 252.543 77.064 252.087C77.1552 251.722 77.2464 251.266 77.52 250.992C77.7024 250.627 77.976 250.354 78.3408 250.08C78.9792 249.624 79.8 249.442 80.5296 249.624C80.8944 249.715 81.3504 249.806 81.624 250.08C81.8976 250.262 82.1712 250.536 82.4448 250.81C82.6272 251.083 82.8096 251.357 82.9008 251.722C82.992 252.086 82.992 252.451 82.992 252.725C82.992 253.09 82.8096 253.455 82.6272 253.819C82.536 254.002 82.3536 254.184 82.1712 254.367C81.9888 254.458 81.8976 254.64 81.624 254.64C81.4416 254.731 81.3504 254.731 81.168 254.731C80.9856 254.731 80.8944 254.731 80.712 254.731C80.6208 254.731 80.4384 254.64 80.3472 254.64C80.256 254.64 80.1648 254.549 80.0736 254.549C79.8912 254.458 79.8 254.366 79.7088 254.184C79.6176 254.093 79.6176 254.002 79.7088 253.819C79.5264 253.819 79.344 253.819 79.2528 253.819C79.0704 253.819 78.7968 253.728 78.6144 253.637C78.432 253.546 78.3408 253.454 78.2496 253.272C78.1584 253.181 78.0672 252.998 78.0672 252.816C78.0672 252.634 78.0672 252.451 78.0672 252.36C78.0672 252.178 78.1584 251.995 78.2496 251.904C78.3408 251.722 78.5232 251.539 78.7056 251.357C78.888 251.174 79.0704 251.083 79.2528 250.992C79.4352 250.901 79.7088 250.901 79.8912 250.901C80.1648 250.901 80.3472 250.992 80.5296 251.175C80.712 251.266 80.8032 251.357 80.8944 251.539C80.9856 251.722 80.9856 251.813 80.9856 251.995L81.2592 251.722L81.8976 252.087L80.8944 253.272L80.712 253.455C80.6208 253.546 80.6208 253.546 80.5296 253.637C80.4384 253.728 80.4384 253.728 80.4384 253.819C80.4384 253.911 80.5296 253.91 80.5296 254.002C80.6208 254.093 80.712 254.093 80.8032 254.093C80.8944 254.093 80.9856 254.093 81.0768 254.002C81.168 253.91 81.3504 253.911 81.4416 253.819C81.5328 253.728 81.7152 253.546 81.8064 253.363C81.9888 253.09 82.08 252.816 82.08 252.543C82.1712 252.269 82.1712 251.995 82.08 251.813C81.9888 251.539 81.8976 251.357 81.7152 251.175C81.5328 250.992 81.3504 250.81 81.0768 250.627C80.8032 250.445 80.5296 250.354 80.256 250.263C79.9824 250.171 79.7088 250.171 79.4352 250.263C79.1616 250.354 78.888 250.445 78.7056 250.627C78.432 250.81 78.2496 251.083 78.0672 251.357C77.8848 251.63 77.7936 251.904 77.7024 252.269C77.6112 252.542 77.6112 252.816 77.7024 253.09C77.7936 253.363 77.8848 253.637 78.0672 253.911C78.2496 254.184 78.5232 254.366 78.7968 254.549C79.0704 254.731 79.2528 254.822 79.5264 254.914C79.8 255.005 80.0736 255.005 80.256 255.005L81.3504 255.37ZM80.5296 251.813C80.4384 251.722 80.3472 251.722 80.1648 251.722C80.0736 251.722 79.9824 251.722 79.8 251.722C79.7088 251.722 79.6176 251.813 79.5264 251.904C79.4352 251.995 79.344 252.086 79.2528 252.178L79.1616 252.36C79.1616 252.451 79.0704 252.542 79.0704 252.634C79.0704 252.725 79.0704 252.816 79.1616 252.907C79.2528 252.999 79.344 253.09 79.4352 253.181C79.5264 253.272 79.7088 253.272 79.8 253.272C79.8912 253.272 79.9824 253.272 80.1648 253.181C80.256 253.09 80.3472 253.09 80.4384 252.999C80.5296 252.907 80.6208 252.816 80.6208 252.725C80.712 252.542 80.8032 252.36 80.8032 252.178C80.8032 251.995 80.712 251.813 80.5296 251.813Z" fill="#D1D3D4"/>
<path d="M323.03 231.475L336.802 209.314C337.44 208.31 338.808 207.946 339.811 208.584L381.49 234.485C382.493 235.123 382.858 236.491 382.219 237.494L368.448 259.656C367.81 260.659 366.442 261.024 365.438 260.386L323.76 234.485C322.666 233.846 322.392 232.478 323.03 231.475Z" fill="white"/>
<path d="M366.259 261.024C365.53 261.024 364.891 260.842 364.344 260.477L324.216 235.488C322.483 234.394 321.936 232.114 323.03 230.381L335.89 209.77C336.437 208.949 337.258 208.311 338.17 208.128C339.173 207.855 340.176 208.037 340.997 208.584L381.125 233.573C382.858 234.667 383.405 236.947 382.31 238.68L369.451 259.291C368.722 260.386 367.536 261.024 366.259 261.024ZM364.982 259.383C366.168 260.112 367.627 259.747 368.357 258.562L381.216 237.951C381.946 236.765 381.581 235.306 380.395 234.576L340.267 209.587C339.72 209.223 339.082 209.131 338.443 209.314C337.805 209.496 337.258 209.861 336.893 210.408L324.034 231.019C323.304 232.205 323.669 233.664 324.854 234.394L364.982 259.383Z" fill="#D1D3D4"/>
<path d="M351.029 237.677C350.755 237.677 350.573 237.494 350.481 237.312L337.987 208.949C337.896 208.584 338.078 208.219 338.352 208.128C338.625 208.037 338.99 208.128 339.173 208.402L351.485 236.4L382.037 235.123C382.401 235.123 382.675 235.306 382.675 235.67C382.675 235.67 382.675 235.67 382.675 235.762C382.675 236.126 382.401 236.4 382.037 236.4L351.029 237.677Z" fill="#D1D3D4"/>
<path d="M366.715 261.024C366.441 261.024 366.259 260.842 366.168 260.659L355.041 237.221C354.859 236.947 355.041 236.491 355.315 236.4C355.589 236.218 356.045 236.4 356.136 236.674L367.262 260.112C367.445 260.386 367.262 260.842 366.989 260.933C366.897 261.024 366.806 261.024 366.715 261.024Z" fill="#D1D3D4"/>
<path d="M323.213 233.938C322.848 233.938 322.574 233.664 322.574 233.299C322.574 232.935 322.848 232.661 323.213 232.661L349.205 232.296C349.57 232.296 349.843 232.57 349.843 232.935C349.843 233.299 349.57 233.573 349.205 233.573L323.213 233.938Z" fill="#D1D3D4"/>
<path d="M358.325 233.846C357.595 234.12 356.774 234.211 356.045 234.029C355.315 233.846 354.586 233.573 353.947 233.117C353.4 232.752 352.944 232.296 352.579 231.749C352.214 231.202 351.941 230.654 351.85 230.016C351.758 229.378 351.758 228.739 351.85 228.101C351.941 227.462 352.214 226.824 352.67 226.277C353.4 225.182 354.586 224.453 355.862 224.27C357.139 224.088 358.416 224.362 359.51 225.182C359.966 225.547 360.422 225.912 360.696 226.368C361.061 226.824 361.243 227.371 361.426 227.918C361.608 228.466 361.608 229.013 361.517 229.651C361.426 230.29 361.152 230.837 360.787 231.384C360.605 231.749 360.24 232.022 359.966 232.296C359.693 232.478 359.419 232.661 359.146 232.752C358.872 232.843 358.598 232.934 358.325 232.934C358.051 232.934 357.869 232.934 357.595 232.843C357.413 232.752 357.23 232.752 357.048 232.661C356.866 232.57 356.774 232.478 356.592 232.387C356.318 232.296 356.136 232.022 356.045 231.749C355.954 231.566 356.045 231.384 356.136 231.201C355.862 231.201 355.589 231.201 355.315 231.201C354.95 231.11 354.677 231.019 354.403 230.837C354.221 230.654 354.038 230.472 353.856 230.289C353.765 230.107 353.674 229.834 353.674 229.56C353.674 229.286 353.674 229.013 353.765 228.739C353.856 228.466 353.947 228.192 354.13 227.918C354.312 227.645 354.586 227.371 354.95 227.097C355.224 226.915 355.589 226.733 355.862 226.641C356.592 226.459 357.322 226.55 357.96 227.006C358.234 227.189 358.416 227.371 358.598 227.645C358.69 227.918 358.781 228.192 358.69 228.465L359.146 228.009L360.149 228.739L358.325 230.563L358.051 230.837C357.96 230.928 357.869 231.019 357.778 231.11C357.686 231.202 357.686 231.293 357.595 231.475C357.595 231.566 357.686 231.658 357.778 231.749C357.869 231.84 358.051 231.84 358.142 231.931C358.325 231.931 358.507 231.931 358.598 231.84C358.781 231.749 358.963 231.658 359.146 231.475C359.328 231.293 359.602 231.019 359.693 230.837C359.966 230.472 360.149 230.016 360.24 229.56C360.422 228.739 360.24 227.918 359.693 227.189C359.419 226.824 359.054 226.55 358.69 226.277C358.325 226.003 357.778 225.73 357.322 225.638C356.866 225.547 356.41 225.547 355.954 225.638C355.498 225.73 355.042 225.912 354.677 226.185C354.221 226.459 353.947 226.824 353.582 227.28C353.309 227.736 353.035 228.192 352.944 228.739C352.853 229.195 352.853 229.651 352.944 230.107C353.035 230.563 353.218 231.019 353.491 231.384C353.765 231.84 354.13 232.205 354.586 232.478C354.95 232.752 355.406 232.934 355.862 233.117C356.227 233.208 356.683 233.299 357.139 233.299L358.325 233.846ZM357.23 227.918C357.048 227.827 356.866 227.736 356.683 227.645C356.501 227.645 356.318 227.645 356.136 227.645C355.954 227.736 355.771 227.736 355.68 227.918C355.498 228.01 355.406 228.192 355.224 228.374L355.042 228.648C354.95 228.739 354.95 228.922 354.95 229.013C354.95 229.195 354.95 229.286 355.042 229.469C355.133 229.651 355.315 229.834 355.498 229.925C355.68 230.016 355.862 230.107 356.045 230.198C356.227 230.198 356.41 230.198 356.592 230.107C356.774 230.016 356.957 229.925 357.048 229.833C357.139 229.742 357.322 229.56 357.413 229.377C357.595 229.104 357.686 228.83 357.686 228.557C357.595 228.283 357.413 228.101 357.23 227.918Z" fill="#D1D3D4"/>
<path d="M333.61 131.611C333.61 131.611 339.082 120.85 338.808 117.293C338.534 113.28 334.704 109.906 333.974 105.984C332.88 100.238 336.802 95.952 340.814 92.6688C342.182 91.392 343.733 90.48 345.374 89.7504C347.381 89.112 349.478 89.0208 351.394 89.568C359.419 91.1184 368.904 99.6912 368.904 108.355C368.904 117.658 351.394 144.197 351.394 144.197L333.61 131.611Z" fill="white"/>
<path d="M351.394 144.835C351.302 144.835 351.12 144.835 351.029 144.744L333.154 132.158C332.88 131.976 332.789 131.611 332.971 131.338C334.43 128.419 338.261 120.12 338.078 117.384C337.896 115.378 336.802 113.554 335.707 111.638C334.613 109.997 333.792 108.082 333.245 106.166C331.968 99.9647 336.346 95.4959 340.358 92.2127C341.726 90.9359 343.368 89.9327 345.101 89.2031C347.198 88.5647 349.387 88.4735 351.485 88.9295C359.875 90.4799 369.542 99.3263 369.542 108.355C369.542 117.749 352.67 143.467 351.941 144.562C351.85 144.744 351.667 144.835 351.485 144.835H351.394ZM334.339 131.429L351.211 143.285C353.674 139.454 368.266 116.563 368.266 108.355C368.266 100.147 358.963 91.6655 351.211 90.2063C349.296 89.7503 347.381 89.8415 345.466 90.3887C343.824 91.1183 342.365 92.0303 341.088 93.2159C337.44 96.2255 333.336 100.421 334.43 105.984C334.886 107.808 335.707 109.541 336.71 111.091C337.896 113.098 339.082 115.104 339.264 117.384C339.629 120.576 335.434 129.24 334.339 131.429Z" fill="#231F20"/>
<path d="M139.08 269.779L108.802 271.056C108.802 271.056 90.4704 309.634 96.4896 316.2C102.509 322.766 117.83 297.048 117.83 297.048L145.282 295.315L139.08 269.779Z" fill="white"/>
<path d="M98.8608 318.024C97.7664 318.024 96.7632 317.568 96.0336 316.747C93.3888 313.829 94.5744 305.165 99.7728 291.029C103.603 280.632 108.163 270.965 108.254 270.874C108.346 270.691 108.528 270.509 108.802 270.509L139.08 269.232C139.354 269.232 139.627 269.414 139.718 269.688L145.829 295.224C145.829 295.406 145.829 295.589 145.738 295.771C145.646 295.954 145.464 296.045 145.282 296.045L118.195 297.778C116.645 300.331 106.157 317.294 99.3168 318.024H98.8608ZM109.166 271.694C104.059 282.547 92.2032 310.728 96.9456 315.835C97.4928 316.474 98.3136 316.838 99.1344 316.656C105.701 315.926 117.101 296.957 117.192 296.683C117.283 296.501 117.466 296.41 117.739 296.41L144.37 294.768L138.624 270.418L109.166 271.694Z" fill="#231F20"/>
<path d="M296.126 293.765C296.126 293.765 316.738 314.832 319.382 314.832C322.027 314.832 358.416 286.195 357.048 281.726C355.68 277.258 324.216 286.925 324.216 286.925L310.536 275.798L296.126 293.765Z" fill="white"/>
<path d="M319.291 315.379C316.555 315.379 300.504 299.146 295.579 294.13C295.306 293.856 295.306 293.491 295.579 293.309L309.989 275.342C310.08 275.251 310.262 275.16 310.445 275.069C310.627 275.069 310.81 275.069 310.901 275.16L324.307 286.104C328.32 284.827 351.941 277.805 356.683 280.267C357.139 280.45 357.504 280.906 357.686 281.362C357.96 282.182 357.504 283.277 356.318 284.827C353.582 288.566 346.104 295.498 336.437 303.25C335.707 303.888 321.48 315.379 319.291 315.379ZM296.947 293.674C306.797 303.706 317.741 314.011 319.291 314.102C321.662 313.738 350.573 291.394 355.68 283.368C356.41 282.182 356.318 281.818 356.318 281.726C356.318 281.635 356.227 281.544 355.954 281.362C352.214 279.355 331.786 285.01 324.307 287.381C324.125 287.472 323.851 287.381 323.76 287.29L310.627 276.528L296.947 293.674Z" fill="#231F20"/>
<path d="M257.093 210.226L325.128 275.707L297.677 305.347L214.411 241.507L257.093 210.226Z" fill="#231F20"/>
<path d="M258.187 122.126C258.187 122.126 296.218 153.864 309.259 154.502L333.427 123.494L360.058 138.269C360.058 138.269 335.342 199.19 321.298 200.194C284.544 202.93 250.891 173.198 250.891 173.198L258.187 122.126Z" fill="url(#paint0_linear_1_773)"/>
<path d="M257.184 126.504C257.184 126.504 273.053 149.578 273.874 190.526C274.694 231.475 272.87 255.37 231.466 267.134C190.061 278.899 134.338 254.093 142.181 199.19C150.024 144.288 203.832 111.547 213.134 112.003C222.437 112.459 257.275 126.504 257.184 126.504Z" fill="url(#paint1_linear_1_773)"/>
<path d="M142.363 219.893C149.294 260.112 195.715 277.257 231.466 267.134C261.653 258.561 270.773 243.422 273.144 219.893H142.363Z" fill="#231F20"/>
<path d="M198.998 265.584C198.816 266.861 170.362 311.731 124.032 302.794L125.674 265.675C125.674 265.675 149.112 264.763 152.76 259.747C162.792 245.703 166.258 238.224 166.258 238.224L198.998 265.584Z" fill="#231F20"/>
<path d="M273.874 199.829C273.509 199.829 273.235 199.464 273.235 199.099C275.698 170.098 262.838 138.816 262.747 138.542C262.656 138.178 262.747 137.813 263.112 137.722C263.477 137.63 263.842 137.722 263.933 138.086C264.024 138.451 277.066 169.915 274.512 199.282C274.512 199.646 274.238 199.829 273.874 199.829Z" fill="#231F20"/>
<path d="M94.2095 228.922L111.811 143.741C112.632 139.728 116.554 137.174 120.475 137.995L280.896 171.192C284.909 172.013 287.462 175.934 286.642 179.856L269.04 265.037C268.219 269.05 264.298 271.603 260.376 270.782L99.9551 237.586C95.9423 236.765 93.3887 232.934 94.2095 228.922Z" fill="white"/>
<path d="M259.555 271.056C258.826 271.056 258.096 270.965 257.275 270.874L102.6 238.862C96.672 237.677 92.9328 231.84 94.1184 225.912L110.534 146.477C111.72 140.549 117.557 136.81 123.485 137.995L278.16 169.915C284.088 171.192 287.827 176.938 286.642 182.866L270.226 262.301C269.131 267.408 264.754 271.056 259.555 271.056ZM121.296 138.998C116.736 138.998 112.814 142.19 111.811 146.659L95.3952 226.094C94.3008 231.293 97.6752 236.4 102.874 237.494L257.549 269.506C262.747 270.6 267.854 267.226 268.949 262.027L285.365 182.592C286.459 177.394 283.085 172.286 277.886 171.192L123.12 139.181C122.573 139.09 121.934 138.998 121.296 138.998Z" fill="#231F20"/>
<path d="M188.328 214.877C188.146 214.877 187.963 214.786 187.872 214.694L115.824 140.093C115.55 139.819 115.55 139.454 115.824 139.181C116.098 138.907 116.462 138.907 116.736 139.181L188.51 213.418L283.814 173.654C284.179 173.563 284.544 173.654 284.635 174.019C284.726 174.384 284.635 174.749 284.27 174.84L188.51 214.786C188.51 214.877 188.419 214.877 188.328 214.877Z" fill="#231F20"/>
<path d="M264.389 269.779C264.206 269.779 264.024 269.688 263.933 269.597L201.917 208.858C201.643 208.584 201.643 208.219 201.917 207.946C202.19 207.672 202.555 207.672 202.829 207.946L264.845 268.685C265.118 268.958 265.118 269.323 264.845 269.597C264.754 269.779 264.571 269.87 264.389 269.779Z" fill="#231F20"/>
<path d="M96.7632 235.123C96.4896 235.123 96.3072 234.941 96.1248 234.667C96.0336 234.302 96.1248 233.938 96.4896 233.846L177.475 202.656C177.84 202.565 178.205 202.656 178.296 203.021C178.387 203.386 178.296 203.75 177.931 203.842L96.9456 235.032C96.9456 235.123 96.8544 235.123 96.7632 235.123Z" fill="#231F20"/>
<path d="M207.389 195.634C205.382 197.275 203.011 198.37 200.458 198.917C197.904 199.373 195.259 199.282 192.797 198.643C190.608 198.096 188.602 197.093 186.778 195.816C185.045 194.539 183.586 193.08 182.4 191.256C180.029 187.517 179.39 182.957 180.576 178.762C181.67 174.567 184.406 170.919 188.237 168.821C190.061 167.818 192.158 167.088 194.256 166.906C196.445 166.632 198.725 166.815 200.822 167.362C202.646 167.818 204.47 168.639 206.021 169.733C207.571 170.736 209.03 172.104 210.125 173.655C211.219 175.205 211.949 177.029 212.405 178.944C212.77 181.042 212.678 183.139 212.131 185.237C211.858 186.514 211.31 187.791 210.581 188.976C210.034 189.888 209.304 190.709 208.483 191.439C207.754 191.986 207.024 192.442 206.112 192.807C204.653 193.354 203.194 193.536 201.643 193.354C201.096 193.263 200.549 193.171 200.002 193.08C199.09 192.898 198.269 192.442 197.63 191.712C197.266 191.165 197.174 190.527 197.266 189.979H197.174C196.354 190.435 195.533 190.8 194.621 190.983C193.435 191.256 192.25 191.165 191.155 190.8C190.334 190.618 189.514 190.162 188.784 189.615C188.146 189.067 187.598 188.429 187.234 187.699C186.869 186.879 186.595 186.058 186.595 185.146C186.504 184.143 186.595 183.139 186.869 182.136C187.142 180.951 187.69 179.765 188.419 178.762C189.058 177.759 189.878 176.847 190.882 176.208C191.794 175.479 192.888 175.023 194.074 174.84C195.35 174.567 196.627 174.658 197.813 175.023C198.816 175.205 199.728 175.661 200.458 176.299C201.096 176.938 201.552 177.759 201.734 178.579H201.826L202.646 176.755L206.568 177.759L202.829 185.602L202.282 186.696C202.099 187.061 201.917 187.517 201.826 187.882C201.734 188.247 201.643 188.703 201.734 189.067C201.826 189.341 202.099 189.615 202.555 189.706C203.011 189.797 203.467 189.797 204.014 189.706C204.562 189.523 205.018 189.25 205.474 188.885C206.021 188.338 206.477 187.791 206.842 187.152C207.298 186.331 207.662 185.328 207.936 184.416C208.392 182.866 208.483 181.315 208.301 179.765C208.118 178.397 207.662 177.12 206.842 175.935C206.112 174.749 205.018 173.837 203.923 173.107C202.646 172.287 201.187 171.648 199.637 171.283C197.995 170.827 196.354 170.736 194.621 170.919C193.07 171.101 191.611 171.648 190.243 172.469C188.875 173.29 187.781 174.384 186.869 175.57C185.866 176.938 185.227 178.488 184.771 180.13C184.315 181.863 184.133 183.595 184.406 185.328C184.589 186.879 185.136 188.429 186.048 189.706C186.96 191.074 188.054 192.168 189.331 193.08C190.79 194.083 192.341 194.813 194.074 195.178C195.533 195.543 197.083 195.725 198.634 195.634C200.002 195.543 201.37 195.178 202.646 194.722L207.389 195.634ZM197.266 178.488C196.627 178.306 195.898 178.306 195.259 178.397C194.621 178.488 194.074 178.762 193.526 179.127C192.979 179.491 192.614 179.947 192.25 180.495C191.885 181.042 191.611 181.68 191.429 182.41C191.338 182.592 191.338 182.957 191.246 183.413C191.155 183.869 191.155 184.325 191.246 184.781C191.338 185.328 191.611 185.784 191.976 186.149C192.523 186.696 193.162 187.061 193.891 187.152C194.53 187.335 195.259 187.335 195.989 187.243C196.536 187.061 197.083 186.787 197.539 186.331C197.995 185.875 198.36 185.419 198.634 184.872C198.907 184.325 199.09 183.687 199.272 183.139C199.546 182.136 199.546 181.133 199.272 180.13C198.998 179.309 198.178 178.579 197.266 178.488Z" fill="#D1D3D4"/>
<path d="M176.837 210.226C176.837 210.226 194.347 226.003 195.989 230.107C197.63 234.211 184.589 226.55 185.501 227.462C186.413 228.374 196.718 242.054 192.158 247.07C187.598 252.086 179.664 255.461 175.378 253.09C171.091 250.718 154.128 226.55 154.128 226.55L176.837 210.226Z" fill="white"/>
<path d="M178.843 254.549C177.566 254.549 176.198 254.275 175.104 253.637C170.726 251.174 154.219 227.827 153.581 226.824C153.398 226.55 153.398 226.186 153.672 225.912L176.381 209.587C176.654 209.405 176.928 209.405 177.202 209.587C177.931 210.226 194.803 225.547 196.536 229.742C196.901 230.654 196.627 231.202 196.354 231.475C195.35 232.478 192.523 231.384 187.325 228.83C190.334 233.026 196.627 242.875 192.523 247.435C189.149 251.448 183.494 254.549 178.843 254.549ZM154.949 226.733C160.968 235.214 172.459 250.81 175.742 252.634C179.846 254.914 187.507 251.357 191.702 246.797C195.898 242.237 186.048 229.104 185.045 228.01C184.771 227.736 184.771 227.371 184.954 227.098C185.318 226.642 185.501 226.642 187.781 227.827C189.422 228.648 194.53 231.11 195.533 230.746C195.533 230.746 195.442 230.654 195.442 230.472C194.165 227.371 182.947 216.701 176.837 211.138L154.949 226.733Z" fill="#231F20"/>
<path d="M188.146 117.202C188.146 117.202 141.178 124.133 121.57 151.128C101.962 178.123 150.48 234.576 150.48 234.576L184.862 210.226L159.235 168.912C159.235 168.912 217.968 149.851 215.414 133.709C212.861 117.566 194.803 114.648 188.146 117.202Z" fill="url(#paint2_linear_1_773)"/>
<path d="M159.235 169.459C158.962 169.459 158.779 169.277 158.688 169.094C158.597 168.73 158.688 168.365 159.053 168.274L211.675 146.021C212.04 145.838 212.405 146.021 212.496 146.386C212.587 146.75 212.496 147.115 212.131 147.206L159.509 169.459C159.418 169.368 159.326 169.368 159.235 169.459Z" fill="#231F20"/>
<path d="M262.565 40.6849C262.565 40.6849 260.923 21.6241 255.542 19.2529C250.162 16.8817 230.736 21.3505 214.776 31.8385C198.816 42.3265 190.517 53.1793 190.061 56.2801C189.605 59.3809 193.891 79.2625 193.891 79.2625C193.891 79.2625 250.526 41.0497 260.923 40.9585" fill="white"/>
<path d="M193.8 79.992C193.709 79.992 193.618 79.992 193.526 79.9008C193.344 79.8096 193.162 79.6272 193.162 79.4448C192.979 78.624 188.875 59.472 189.331 56.28C189.787 53.088 197.904 42.2352 214.32 31.3824C229.824 21.168 249.614 16.0608 255.725 18.7056C261.288 21.168 262.93 38.6784 263.112 40.6848C263.112 41.0496 262.838 41.3232 262.565 41.4144C262.2 41.4144 261.926 41.232 261.835 40.8672C261.379 35.6688 259.373 21.8064 255.178 19.9824C250.07 17.7936 230.918 22.08 214.958 32.568C198.542 43.3296 190.882 54 190.517 56.5536C190.152 58.8336 192.797 72.3312 194.165 78.3504C201.278 73.5168 250.891 40.5024 260.832 40.4112C261.197 40.4112 261.47 40.6848 261.47 41.0496C261.47 41.4144 261.197 41.688 260.832 41.688C250.8 41.7792 194.712 79.536 194.165 79.9008C194.074 79.9008 193.982 79.9008 193.8 79.992Z" fill="#231F20"/>
<path d="M205.2 61.5697C205.2 61.5697 245.51 36.3073 265.574 34.3921C285.638 32.4769 287.462 37.7665 283.541 45.3361C279.619 52.9057 264.298 61.2049 264.298 61.2049L205.2 61.5697Z" fill="#231F20"/>
<path d="M289.469 108.994C289.925 112.733 279.984 125.866 264.754 136.08C264.115 136.445 263.568 136.901 262.93 137.266C247.882 146.568 228.547 150.125 211.128 136.901C192.888 123.221 176.928 86.376 194.347 69.7776C211.766 53.1792 245.419 44.6064 259.646 49.44C273.874 54.2736 272.506 66.2208 272.506 66.2208C272.87 70.5984 270.317 70.7808 270.317 70.7808C269.678 78.3504 274.238 86.2848 274.238 86.2848C279.619 87.0144 277.339 93.0336 277.339 93.0336C290.837 98.0496 284.635 106.349 284.635 106.349C284.635 106.349 289.013 105.254 289.469 108.994Z" fill="white"/>
<path d="M236.208 146.112C226.997 146.112 217.968 143.011 210.672 137.448C197.63 127.69 187.142 107.99 186.23 91.6656C185.683 82.272 188.328 74.6112 193.8 69.3216C211.31 52.5408 245.328 43.8768 259.829 48.8016C273.874 53.544 273.235 65.2176 273.144 66.2208C273.418 67.68 273.053 69.2304 272.141 70.416C271.776 70.7808 271.411 71.1456 270.864 71.328C270.499 77.712 273.782 84.3696 274.603 85.7376C275.88 85.92 277.066 86.6496 277.795 87.744C278.798 89.4768 278.434 91.5744 278.16 92.6688C282.811 94.4928 285.547 96.864 286.459 99.8736C287.006 101.789 286.733 103.795 285.821 105.528C286.824 105.437 287.827 105.71 288.648 106.258C289.469 106.896 290.016 107.808 290.107 108.902C290.746 114.83 275.606 129.514 265.118 136.627C264.48 136.992 263.842 137.448 263.294 137.813C254.266 143.376 245.054 146.112 236.208 146.112ZM249.706 48.7104C233.381 48.7104 208.757 56.8272 194.712 70.2336C189.422 75.2496 186.96 82.6368 187.507 91.5744C188.419 107.261 198.907 126.96 211.493 136.354C226.358 147.48 244.963 147.662 262.565 136.627C263.203 136.262 263.842 135.898 264.389 135.442C279.984 125.045 289.195 112.186 288.83 108.994C288.83 108.264 288.466 107.717 287.918 107.261C286.733 106.44 284.726 106.896 284.726 106.896C284.362 106.987 283.997 106.805 283.997 106.44C283.906 106.258 283.997 106.075 284.088 105.893C285.274 104.251 285.638 102.154 285.182 100.147C284.362 97.5024 281.717 95.2224 277.157 93.5808C276.792 93.4896 276.701 93.1248 276.792 92.76C276.792 92.76 277.795 90.024 276.701 88.2912C276.154 87.4704 275.15 86.9232 274.147 86.832C273.965 86.832 273.782 86.6496 273.691 86.5584C273.509 86.1936 269.04 78.3504 269.678 70.6896C269.678 70.416 269.952 70.1424 270.226 70.1424C270.317 70.1424 272.141 69.8688 271.867 66.2208V66.1296C271.958 65.6736 273.053 54.6384 259.464 49.9872C256.272 49.0752 252.989 48.6192 249.706 48.7104Z" fill="#231F20"/>
<path d="M289.469 108.994C289.925 112.733 279.984 125.866 264.754 136.08C264.115 136.445 263.568 136.901 262.93 137.266C244.142 138.907 241.68 130.426 241.68 130.426L241.406 133.527C233.563 130.243 231.648 119.847 231.648 119.847L230.371 123.312C230.371 123.312 226.45 119.117 227.909 108.629C229.368 98.1409 241.133 93.4897 241.133 93.4897C241.133 93.4897 227.818 88.2001 229.824 75.2497C231.83 62.2993 247.243 58.8337 255.36 66.5857C263.477 74.3377 270.317 70.9633 270.317 70.9633C269.678 78.5329 274.238 86.4673 274.238 86.4673C279.619 87.1969 277.339 93.2161 277.339 93.2161C290.837 98.2321 284.635 106.531 284.635 106.531C284.635 106.531 289.013 105.255 289.469 108.994Z" fill="white"/>
<path d="M258.187 138.086C248.064 138.086 243.778 134.712 242.045 132.523L241.954 133.618C241.954 133.8 241.862 133.982 241.68 134.074C241.498 134.165 241.315 134.165 241.133 134.074C235.205 131.52 232.56 125.227 231.557 121.944L231.01 123.403C230.918 123.586 230.736 123.768 230.554 123.768C230.371 123.859 230.098 123.768 230.006 123.586C229.824 123.403 225.902 119.026 227.362 108.355C228.638 99.6 236.482 94.8576 239.674 93.3072C236.299 91.5744 227.544 85.8288 229.277 74.976C230.006 69.2304 234.019 64.3968 239.582 62.5728C245.237 60.6576 251.53 61.9344 255.907 65.9472C263.568 73.2432 269.861 70.3248 270.134 70.2336C270.408 70.0512 270.864 70.2336 270.955 70.5072C271.046 70.5984 271.046 70.6896 271.046 70.872C270.499 77.4384 273.965 84.2784 274.694 85.7376C275.971 85.92 277.157 86.6496 277.886 87.744C278.89 89.4768 278.525 91.5744 278.251 92.6688C282.902 94.4928 285.638 96.864 286.55 99.8736C287.098 101.789 286.824 103.795 285.912 105.528C286.915 105.437 287.918 105.71 288.739 106.258C289.56 106.896 290.107 107.808 290.198 108.902C290.837 114.83 275.698 129.514 265.21 136.627C264.571 136.992 263.933 137.448 263.386 137.813C263.294 137.904 263.203 137.904 263.112 137.904C261.288 137.995 259.646 137.995 258.187 138.086ZM241.589 129.787C241.862 129.787 242.136 129.97 242.227 130.243C242.227 130.334 244.872 138.178 262.656 136.627C263.203 136.262 263.75 135.898 264.389 135.533C279.984 125.136 289.195 112.277 288.83 109.085C288.83 108.355 288.466 107.808 287.918 107.352C286.733 106.531 284.726 106.987 284.726 106.987C284.362 107.078 283.997 106.896 283.997 106.531C283.906 106.349 283.997 106.166 284.088 105.984C285.274 104.342 285.638 102.245 285.182 100.238C284.362 97.5936 281.717 95.3136 277.157 93.672C276.792 93.5808 276.701 93.216 276.792 92.8512C276.792 92.8512 277.795 90.1152 276.701 88.3824C276.154 87.5616 275.15 87.0144 274.147 86.9232C273.965 86.9232 273.782 86.7408 273.691 86.6496C273.509 86.2848 269.405 79.1712 269.678 71.784C267.398 72.4224 261.653 73.2432 254.995 66.9504C250.891 63.2112 245.146 62.0256 239.947 63.8496C234.84 65.4912 231.192 69.96 230.462 75.2496C228.547 87.6528 240.859 92.6688 241.406 92.8512C241.771 92.9424 241.862 93.3984 241.771 93.672C241.68 93.8544 241.589 93.9456 241.406 94.0368C241.315 94.128 230.006 98.5968 228.547 108.629C227.544 116.016 229.186 120.12 230.189 121.853L231.01 119.573C231.101 119.208 231.466 119.026 231.83 119.208C232.013 119.299 232.195 119.482 232.286 119.664C232.286 119.755 234.11 128.966 240.859 132.523L241.042 130.334C241.042 130.152 241.224 129.878 241.589 129.787Z" fill="#231F20"/>
<path d="M263.659 113.736C255.816 113.736 245.875 111.638 234.019 104.981C233.746 104.798 233.563 104.434 233.746 104.16C233.928 103.886 234.293 103.704 234.566 103.886H234.658C267.125 121.853 283.997 106.075 284.179 105.893C284.453 105.619 284.818 105.619 285.091 105.893C285.365 106.166 285.365 106.531 285.091 106.805C284.909 106.896 277.704 113.736 263.659 113.736Z" fill="#231F20"/>
<path d="M263.203 92.3953C263.112 92.3953 263.112 92.3953 263.021 92.3953C262.656 92.3041 262.474 91.9393 262.565 91.5745C264.389 84.3697 274.147 85.6465 274.238 85.6465C274.603 85.7377 274.877 86.0113 274.786 86.3761C274.694 86.7409 274.421 87.0145 274.056 86.9233C273.965 86.9233 265.301 85.8289 263.75 91.8481C263.75 92.2129 263.477 92.3953 263.203 92.3953Z" fill="#231F20"/>
<path d="M261.455 81.0434C262.647 80.8451 263.34 79.0329 263.001 76.9957C262.662 74.9585 261.421 73.4677 260.228 73.6659C259.036 73.8642 258.344 75.6764 258.682 77.7136C259.021 79.7509 260.262 81.2416 261.455 81.0434Z" fill="#231F20"/>
<path d="M248.338 95.0401C247.973 95.0401 247.699 94.7665 247.699 94.4017C247.699 94.2193 247.79 93.9457 247.973 93.8545C253.901 89.9329 262.474 89.1121 262.838 89.1121C263.203 89.1121 263.477 89.3857 263.477 89.7505C263.477 90.0241 263.294 90.2977 262.93 90.3889C262.838 90.3889 254.357 91.2097 248.702 94.9489C248.611 94.9489 248.429 95.0401 248.338 95.0401Z" fill="#231F20"/>
<path d="M270.226 89.9326C269.952 89.659 269.496 89.4766 269.131 89.3854C268.766 89.2942 268.31 89.3854 267.946 89.5678C267.581 89.9326 267.398 90.571 267.581 91.1182C267.763 91.939 268.31 92.5774 269.131 92.851C269.952 93.1246 270.773 92.6686 271.046 91.8478V91.7566C271.046 91.1182 270.773 90.3886 270.226 89.9326Z" fill="#231F20"/>
<path d="M272.597 91.9393C272.688 92.4865 273.144 92.9425 273.782 92.8513C273.874 92.8513 273.874 92.8513 273.965 92.8513C274.512 92.7601 274.968 92.4865 275.333 92.1217C275.606 91.7569 275.698 91.3921 275.789 91.0273C276.154 88.7473 273.235 89.3857 272.688 90.9361C272.597 91.2097 272.506 91.5745 272.597 91.9393Z" fill="#231F20"/>
<path d="M199.09 79.992C199.09 79.992 190.882 63.4848 181.214 76.8912C171.547 90.2976 181.306 105.802 196.718 102.062" fill="white"/>
<path d="M192.25 103.248C187.051 103.43 182.218 100.877 179.299 96.6816C175.378 90.8448 175.925 83.184 180.667 76.5264C183.494 72.6048 186.504 70.7808 189.605 71.0544C195.533 71.5104 199.454 79.3536 199.637 79.7184C199.819 79.992 199.637 80.448 199.363 80.5392C199.09 80.7216 198.725 80.5392 198.542 80.2656C198.542 80.1744 194.712 72.696 189.514 72.3312C186.869 72.1488 184.224 73.7904 181.67 77.256C177.202 83.3664 176.746 90.5712 180.302 95.952C183.677 100.968 189.878 103.066 196.536 101.515C196.901 101.424 197.266 101.606 197.357 101.971C197.448 102.336 197.266 102.701 196.901 102.792H196.81C195.35 103.066 193.709 103.248 192.25 103.248Z" fill="#231F20"/>
<path d="M239.126 106.896C239.126 106.896 250.526 123.494 265.118 121.67C279.71 119.846 282.264 108.082 282.264 108.082C282.264 108.082 263.294 116.198 239.126 106.896Z" fill="#231F20"/>
<path d="M196.627 86.6497C196.627 86.6497 193.618 79.5361 189.058 78.8977C184.498 78.2593 178.478 87.1057 183.038 92.3953C185.774 95.4961 189.787 97.2289 193.982 96.9553L192.979 94.0369C193.8 93.9457 194.621 93.7633 195.35 93.4897C195.624 93.2161 193.162 90.4801 194.256 90.2977C195.35 90.1153 196.08 90.9361 196.718 90.1153C197.357 89.2945 196.627 86.7409 196.627 86.6497Z" fill="#D1D3D4"/>
<path d="M191.338 67.6801C190.973 67.6801 190.699 67.4065 190.699 67.0417C190.699 66.8593 190.79 66.7681 190.882 66.5857C201.37 55.7329 213.59 46.7953 226.997 40.0465C248.52 29.5585 260.194 29.1025 260.65 29.1025C261.014 29.1025 261.288 29.3761 261.288 29.7409C261.288 30.1057 261.014 30.3793 260.65 30.3793C260.558 30.3793 248.702 30.8353 227.453 41.2321C214.138 47.8897 202.099 56.8273 191.702 67.4977C191.702 67.6801 191.52 67.6801 191.338 67.6801Z" fill="#231F20"/>
<path d="M249.614 82.3632C249.523 82.3632 249.341 82.3632 249.25 82.272C243.322 78.3504 240.312 79.536 240.312 79.6272C240.038 79.8096 239.582 79.6272 239.491 79.3536C239.309 79.08 239.491 78.624 239.765 78.5328C239.947 78.4416 243.322 76.8912 249.979 81.2688C250.253 81.4512 250.344 81.816 250.162 82.0896C250.162 82.0896 250.162 82.0896 250.162 82.1808C250.07 82.272 249.797 82.3632 249.614 82.3632Z" fill="#231F20"/>
<path d="M250.709 79.7185C250.435 79.7185 250.253 79.6273 250.162 79.3537C250.162 79.3537 247.517 74.6113 243.139 74.6113H243.048C242.683 74.6113 242.41 74.3377 242.41 73.9729C242.41 73.6081 242.683 73.3345 243.048 73.3345H243.23C248.338 73.3345 251.256 78.5329 251.347 78.8065C251.53 79.0801 251.438 79.5361 251.074 79.6273C250.891 79.7185 250.8 79.7185 250.709 79.7185Z" fill="#231F20"/>
<path d="M318.014 87.5616L335.981 58.1952C336.802 56.8272 338.626 56.3712 339.994 57.192L395.352 91.0272C396.72 91.848 397.176 93.672 396.355 95.04L378.389 124.406C377.568 125.774 375.744 126.23 374.376 125.41L319.018 91.5744C317.65 90.6624 317.194 88.9296 318.014 87.5616Z" fill="white"/>
<path d="M375.47 126.048C374.558 126.048 373.738 125.774 373.008 125.318L319.656 92.6688C317.467 91.3008 316.738 88.3824 318.106 86.1936L334.886 58.8336C336.254 56.6448 339.173 55.9152 341.362 57.2832L394.714 89.9328C396.902 91.3008 397.632 94.2192 396.264 96.408L379.483 123.768C378.571 125.227 377.112 126.048 375.47 126.048ZM373.646 124.315C375.288 125.318 377.386 124.771 378.389 123.221L395.17 95.8608C396.173 94.2192 395.626 92.1216 394.075 91.1184L340.723 58.4688C339.082 57.4656 336.984 58.0128 335.981 59.5632L319.2 86.9232C318.197 88.5648 318.744 90.6624 320.294 91.6656L373.646 124.315Z" fill="#231F20"/>
<path d="M355.042 95.3136C354.768 95.3136 354.586 95.1312 354.494 94.9488L337.622 57.4656C337.44 57.1008 337.622 56.736 337.987 56.6448C338.352 56.5536 338.717 56.6448 338.808 56.9184L355.498 93.9456L396.082 91.9392C396.446 91.9392 396.72 92.2128 396.72 92.5776C396.72 92.9424 396.446 93.216 396.082 93.216L355.042 95.3136Z" fill="#231F20"/>
<path d="M376.018 126.048C375.744 126.048 375.562 125.866 375.47 125.683L360.514 94.7665C360.331 94.4929 360.514 94.0369 360.787 93.9457C361.152 93.7633 361.517 93.9457 361.608 94.2193L376.656 125.136C376.838 125.41 376.656 125.866 376.382 125.957C376.291 126.048 376.2 126.048 376.018 126.048Z" fill="#231F20"/>
<path d="M318.288 90.6624C317.923 90.6624 317.65 90.3888 317.65 90.024C317.65 89.6592 317.923 89.3856 318.288 89.3856L352.67 88.656C353.035 88.656 353.309 88.9296 353.309 89.2944C353.309 89.6592 353.035 89.9328 352.67 89.9328L318.288 90.6624Z" fill="#231F20"/>
<path d="M364.618 90.3889C363.614 90.7537 362.611 90.8449 361.608 90.6625C360.605 90.4801 359.602 90.1153 358.781 89.5681C358.051 89.1121 357.413 88.4737 356.957 87.7441C356.501 87.0145 356.136 86.2849 355.954 85.4641C355.589 83.7313 355.954 81.9985 356.957 80.5393C357.413 79.8097 358.051 79.1713 358.781 78.7153C359.51 78.2593 360.24 77.9857 361.061 77.8033C362.794 77.5297 364.526 77.8945 365.986 78.8977C366.624 79.3537 367.171 79.9009 367.627 80.4481C368.083 81.0865 368.448 81.7249 368.63 82.4545C369.178 84.5521 368.448 86.8321 366.715 88.2001C366.35 88.4737 365.986 88.6561 365.621 88.8385C365.256 88.9297 364.891 89.0209 364.526 89.0209C364.253 89.0209 363.888 89.0209 363.614 88.9297C363.341 88.8385 363.067 88.7473 362.794 88.6561C362.611 88.5649 362.429 88.4737 362.246 88.2913C361.882 88.1089 361.699 87.8353 361.517 87.4705C361.426 87.1969 361.517 87.0145 361.608 86.7409C361.243 86.8321 360.878 86.8321 360.514 86.7409C360.058 86.6497 359.602 86.4673 359.237 86.1937C358.963 86.0113 358.69 85.7377 358.507 85.4641C358.325 85.1905 358.234 84.9169 358.234 84.5521C358.234 84.1873 358.234 83.8225 358.325 83.5489C358.416 83.1841 358.598 82.8193 358.872 82.4545C359.146 81.9985 359.51 81.7249 359.875 81.3601C360.24 81.0865 360.696 80.9041 361.152 80.7217C362.064 80.4481 363.067 80.6305 363.888 81.1777C364.253 81.3601 364.526 81.6337 364.709 81.9985C364.891 82.2721 364.982 82.6369 364.891 83.0017L365.438 82.4545L366.806 83.3665L364.344 85.9201L363.979 86.2849C363.888 86.3761 363.706 86.5585 363.614 86.6497C363.523 86.7409 363.432 86.9233 363.432 87.1057C363.432 87.2881 363.523 87.3793 363.614 87.4705C363.797 87.5617 363.979 87.6529 364.162 87.6529C364.344 87.6529 364.618 87.6529 364.8 87.5617C365.074 87.4705 365.347 87.2881 365.53 87.1057C366.259 86.4673 366.806 85.5553 367.08 84.5521C367.171 84.0049 367.171 83.4577 367.08 82.9105C366.989 82.3633 366.715 81.9073 366.35 81.4513C365.986 80.9953 365.53 80.5393 364.982 80.1745C364.435 79.8097 363.797 79.5361 363.158 79.3537C361.973 79.0801 360.696 79.3537 359.693 80.0833C359.146 80.4481 358.69 80.9041 358.325 81.4513C357.96 81.9985 357.595 82.6369 357.504 83.3665C357.413 84.0049 357.413 84.5521 357.504 85.1905C357.686 85.8289 357.96 86.3761 358.325 86.9233C358.69 87.4705 359.237 87.9265 359.784 88.3825C360.24 88.7473 360.878 89.0209 361.426 89.2033C361.973 89.3857 362.52 89.3857 363.067 89.3857L364.618 90.3889ZM363.158 82.5457C362.976 82.3633 362.702 82.2721 362.429 82.2721C362.155 82.2721 361.973 82.2721 361.699 82.3633C361.426 82.4545 361.243 82.5457 361.061 82.7281C360.878 82.9105 360.696 83.0929 360.514 83.3665C360.422 83.4577 360.422 83.5489 360.331 83.7313C360.24 83.9137 360.149 84.0961 360.149 84.2785C360.149 84.4609 360.149 84.7345 360.24 84.9169C360.331 85.1905 360.514 85.3729 360.787 85.5553C360.97 85.7377 361.243 85.8289 361.608 85.8289C361.882 85.8289 362.064 85.8289 362.338 85.7377C362.52 85.6465 362.794 85.4641 362.976 85.3729C363.158 85.1905 363.341 85.0081 363.432 84.8257C363.706 84.4609 363.797 84.0961 363.797 83.7313C363.706 83.0929 363.523 82.8193 363.158 82.5457Z" fill="#D1D3D4"/>
<path d="M351.029 116.472C353.582 110.544 345.557 104.981 345.557 104.981C345.557 104.981 355.224 109.906 360.605 107.534C365.986 105.163 345.648 95.4961 345.648 95.4961C345.648 95.4961 337.349 93.1249 334.339 100.786C334.339 100.786 332.88 103.339 334.339 107.808" fill="white"/>
<path d="M351.029 117.11C350.938 117.11 350.846 117.11 350.755 117.019C350.39 116.837 350.299 116.472 350.39 116.198C352.762 110.818 345.192 105.528 345.101 105.437C344.827 105.254 344.736 104.89 344.918 104.616C345.101 104.342 345.466 104.251 345.739 104.342C345.83 104.434 355.133 109.085 360.24 106.896C360.787 106.622 360.787 106.44 360.787 106.349C360.787 104.251 351.85 99.1441 345.466 96.0433C345.283 95.9521 337.805 93.9457 334.978 100.968C334.978 101.059 333.701 103.522 335.069 107.534C335.16 107.899 334.978 108.264 334.704 108.355C334.339 108.446 333.974 108.264 333.883 107.99C332.333 103.339 333.792 100.603 333.883 100.512C337.075 92.4865 345.83 94.9489 345.922 94.9489C348.749 96.2257 362.155 102.792 362.064 106.44C362.064 107.261 361.517 107.899 360.787 108.082C357.322 109.632 352.306 108.355 348.931 107.078C351.12 109.358 353.309 112.915 351.667 116.746C351.576 116.928 351.302 117.11 351.029 117.11Z" fill="#231F20"/>
<path d="M184.862 210.773C184.68 210.773 184.406 210.682 184.315 210.499L150.754 156.418C150.571 156.144 150.571 155.688 150.936 155.506C151.301 155.323 151.666 155.323 151.848 155.688C151.848 155.688 151.848 155.779 151.939 155.779L185.501 209.861C185.683 210.134 185.592 210.59 185.227 210.773C185.136 210.773 184.954 210.773 184.862 210.773Z" fill="#231F20"/>
<path d="M304.061 161.981C303.696 161.981 303.422 161.707 303.422 161.343C303.422 161.251 303.514 161.069 303.514 160.978L330.965 125.501C331.147 125.227 331.603 125.136 331.877 125.319C332.15 125.501 332.242 125.957 332.059 126.231C332.059 126.231 332.059 126.231 332.059 126.322L304.608 161.707C304.517 161.799 304.334 161.89 304.061 161.981Z" fill="#231F20"/>
<defs>
<linearGradient id="paint0_linear_1_773" x1="305.474" y1="122.126" x2="305.474" y2="200.372" gradientUnits="userSpaceOnUse">
<stop stop-color="#68E1FD"/>
<stop offset="1" stop-color="#0D54DB"/>
</linearGradient>
<linearGradient id="paint1_linear_1_773" x1="207.72" y1="111.999" x2="207.72" y2="270" gradientUnits="userSpaceOnUse">
<stop stop-color="#68E1FD"/>
<stop offset="1" stop-color="#0D54DB"/>
</linearGradient>
<linearGradient id="paint2_linear_1_773" x1="166.199" y1="116.388" x2="166.199" y2="234.576" gradientUnits="userSpaceOnUse">
<stop stop-color="#68E1FD"/>
<stop offset="1" stop-color="#0D54DB"/>
</linearGradient>
</defs>
</svg>
