<svg width="456" height="334" viewBox="0 0 456 334" fill="none" xmlns="http://www.w3.org/2000/svg">
<path d="M64.4783 151.757L113.635 136.253C114.821 135.888 116.189 136.526 116.553 137.803L124.761 163.886C125.126 165.072 124.488 166.44 123.211 166.805L74.0543 182.309C72.8687 182.673 71.5007 182.035 71.1359 180.758L62.9279 154.675C62.5631 153.398 63.2927 152.121 64.4783 151.757Z" fill="white"/>
<path d="M74.0544 182.765C73.416 182.765 72.7776 182.582 72.2304 182.309C71.3184 181.853 70.5888 181.032 70.3152 180.029L62.6544 155.678C62.016 153.672 63.1104 151.483 65.208 150.845L112.632 135.888C114.638 135.249 116.827 136.344 117.466 138.441L125.126 162.792C125.765 164.798 124.67 166.987 122.573 167.625L75.1488 182.582C74.784 182.765 74.4192 182.765 74.0544 182.765ZM113.818 136.982C113.544 136.982 113.27 136.982 112.997 137.073L65.5728 152.03C64.2048 152.486 63.384 153.945 63.84 155.313L71.592 179.664C72.048 181.032 73.416 181.761 74.784 181.397L122.208 166.44C123.576 165.984 124.306 164.525 123.941 163.157L116.28 138.806C115.915 137.712 114.912 136.982 113.818 136.982Z" fill="#D1D3D4"/>
<path d="M94.8481 162.883C94.7569 162.883 94.7569 162.883 94.6657 162.883L63.4753 153.398C63.1105 153.307 62.9281 152.942 63.0193 152.668C63.1105 152.395 63.4753 152.121 63.7489 152.212C63.7489 152.212 63.7489 152.212 63.8401 152.212L94.6657 161.515L114.547 136.161C114.821 135.888 115.186 135.888 115.459 136.161C115.733 136.344 115.733 136.708 115.551 136.982L95.3953 162.609C95.2129 162.792 95.0305 162.883 94.8481 162.883Z" fill="#D1D3D4"/>
<path d="M124.214 166.349C124.123 166.349 124.123 166.349 124.032 166.349L97.675 159.144C97.3102 159.053 97.1278 158.688 97.219 158.323C97.3102 157.958 97.675 157.776 97.9486 157.867L124.305 164.981C124.67 165.072 124.853 165.437 124.761 165.71C124.761 166.166 124.488 166.349 124.214 166.349Z" fill="#D1D3D4"/>
<path d="M72.7775 182.582C72.5951 182.582 72.5039 182.491 72.4127 182.4C72.1391 182.217 72.1391 181.761 72.3215 181.488L89.8319 160.512C90.0143 160.238 90.4703 160.238 90.7439 160.421C91.0175 160.603 91.0175 161.059 90.8351 161.333L73.3247 182.309C73.1423 182.491 73.0511 182.582 72.7775 182.582Z" fill="#D1D3D4"/>
<path d="M97.219 154.219C96.9454 154.949 96.4894 155.678 95.851 156.134C95.2126 156.682 94.483 157.046 93.6622 157.229C93.0238 157.411 92.2942 157.502 91.5646 157.411C90.9262 157.32 90.2878 157.138 89.6494 156.864C89.1022 156.59 88.555 156.134 88.099 155.587C86.8222 153.946 86.6398 151.574 87.7342 149.75C88.4638 148.565 89.6494 147.744 90.9262 147.379C91.5646 147.197 92.1118 147.197 92.7502 147.197C93.3886 147.197 93.9358 147.379 94.483 147.653C95.6686 148.2 96.4894 149.294 96.763 150.48C96.8542 150.845 96.9454 151.301 96.9454 151.757C96.9454 152.122 96.8542 152.395 96.763 152.76C96.6718 153.034 96.4894 153.307 96.307 153.49C96.1246 153.672 95.9422 153.854 95.7598 154.037C95.5774 154.128 95.395 154.31 95.2126 154.402C95.0302 154.493 94.939 154.493 94.7566 154.584C94.483 154.675 94.2094 154.675 93.9358 154.584C93.7534 154.493 93.6622 154.31 93.571 154.128C93.3886 154.402 93.2062 154.584 93.0238 154.766C92.7502 155.04 92.3854 155.222 92.0206 155.222C91.747 155.314 91.4734 155.314 91.1998 155.222C90.9262 155.131 90.6526 155.04 90.4702 154.949C90.1966 154.766 90.0142 154.584 89.923 154.31C89.7406 154.037 89.6494 153.763 89.5582 153.398C89.467 153.034 89.467 152.578 89.467 152.213C89.467 151.848 89.5582 151.483 89.7406 151.118C89.923 150.754 90.1054 150.48 90.379 150.206C90.6526 149.933 91.0174 149.75 91.4734 149.659C91.747 149.568 92.1118 149.568 92.3854 149.568C92.659 149.659 92.9326 149.75 93.115 150.024L93.0238 149.568L94.3006 149.203L94.483 151.939C94.483 152.03 94.483 152.213 94.483 152.304C94.483 152.395 94.483 152.578 94.5742 152.669C94.5742 152.76 94.6654 152.942 94.7566 153.034C94.8478 153.125 94.939 153.125 95.0302 153.125C95.2126 153.125 95.3038 153.034 95.395 152.942C95.4862 152.851 95.5774 152.669 95.6686 152.486C95.7598 152.304 95.7598 152.03 95.7598 151.757C95.7598 151.483 95.6686 151.118 95.6686 150.845C95.5774 150.389 95.3038 149.933 95.0302 149.477C94.7566 149.112 94.3918 148.838 94.027 148.656C93.6622 148.474 93.2062 148.382 92.7502 148.291C92.2942 148.291 91.747 148.291 91.291 148.474C90.7438 148.565 90.2878 148.838 89.8318 149.112C89.467 149.386 89.1022 149.75 88.9198 150.206C88.6462 150.662 88.555 151.118 88.4638 151.574C88.3726 152.122 88.4638 152.669 88.555 153.125C88.6462 153.672 88.9198 154.128 89.2846 154.584C89.5582 154.949 89.923 155.314 90.379 155.587C90.835 155.861 91.291 155.952 91.8382 156.043C92.3854 156.043 92.9326 156.043 93.4798 155.952C93.9358 155.861 94.3918 155.678 94.8478 155.405C95.2126 155.131 95.5774 154.858 95.851 154.493L97.3102 154.128L97.219 154.219ZM91.747 151.118C91.3822 151.21 91.0174 151.483 90.835 151.848C90.7438 152.03 90.7438 152.213 90.6526 152.395C90.6526 152.578 90.6526 152.851 90.7438 153.034C90.7438 153.125 90.835 153.216 90.835 153.307C90.9262 153.49 90.9262 153.581 91.0174 153.672C91.1086 153.763 91.291 153.854 91.4734 153.946C91.6558 154.037 91.9294 154.037 92.1118 153.946C92.2942 153.854 92.5678 153.763 92.659 153.672C92.8414 153.581 92.9326 153.398 92.9326 153.216C93.0238 153.034 93.0238 152.851 93.0238 152.669C93.0238 152.486 93.0238 152.304 92.9326 152.122C92.8414 151.848 92.659 151.483 92.4766 151.301C92.3854 151.027 92.1118 151.027 91.747 151.118Z" fill="#D1D3D4"/>
<path d="M59.7357 315.004L67.4877 300.96C67.8525 300.321 68.6733 300.048 69.3117 300.412L95.5773 315.096C96.2157 315.46 96.4893 316.281 96.1245 316.92L88.3725 330.873C88.0077 331.512 87.1869 331.785 86.5485 331.42L60.1917 316.828C59.5533 316.464 59.3709 315.643 59.7357 315.004Z" fill="white"/>
<path d="M86.9135 332.059C86.4575 332.059 86.0927 331.968 85.7279 331.694L60.3743 317.558C59.1887 316.92 58.7327 315.369 59.3711 314.093L66.6671 301.051C67.0319 300.504 67.5791 300.048 68.2175 299.865C68.8559 299.683 69.5855 299.774 70.1327 300.048L95.4863 314.184C96.6719 314.822 97.1279 316.373 96.4895 317.649L89.1935 330.691C88.8287 331.238 88.2815 331.694 87.6431 331.877C87.4607 332.059 87.1871 332.059 86.9135 332.059ZM86.3663 330.6C87.0047 330.965 87.7343 330.691 88.0991 330.144L95.3951 317.102C95.7599 316.464 95.4863 315.734 94.9391 315.369L69.5855 301.233C68.9471 300.869 68.2175 301.142 67.8527 301.689L60.5567 314.731C60.1919 315.369 60.4655 316.099 61.0127 316.464L86.3663 330.6Z" fill="#D1D3D4"/>
<path d="M76.9728 318.197C76.6992 318.197 76.5168 318.014 76.4256 317.832L67.944 300.778C67.7616 300.504 67.944 300.048 68.2176 299.957C68.4912 299.774 68.9472 299.957 69.0384 300.23L77.3376 316.92L95.8512 315.278C96.216 315.278 96.4896 315.552 96.4896 315.917C96.4896 316.19 96.3072 316.464 95.9424 316.555L76.9728 318.197Z" fill="#D1D3D4"/>
<path d="M87.2784 332.059C87.0048 332.059 86.8224 331.968 86.7312 331.694L79.2528 317.649C79.0704 317.376 79.1616 316.92 79.5264 316.737C79.8 316.555 80.256 316.646 80.4384 317.011L87.9168 331.056C88.0992 331.329 87.9168 331.785 87.6432 331.968C87.4608 332.059 87.3696 332.059 87.2784 332.059Z" fill="#D1D3D4"/>
<path d="M59.8274 316.738C59.4626 316.738 59.189 316.464 59.189 316.099C59.189 315.734 59.4626 315.461 59.8274 315.461L75.6962 314.458C76.061 314.458 76.3346 314.731 76.3346 315.096C76.3346 315.37 76.061 315.643 75.7874 315.734L59.8274 316.738Z" fill="#D1D3D4"/>
<path d="M81.3504 315.369C80.8944 315.552 80.4384 315.643 79.9824 315.552C79.5264 315.46 79.0704 315.369 78.6144 315.096C78.2496 314.913 77.976 314.64 77.7024 314.275C77.4288 314.001 77.3376 313.636 77.1552 313.272C77.064 312.907 77.064 312.542 77.064 312.086C77.1552 311.721 77.2464 311.265 77.52 310.992C77.7024 310.627 77.976 310.353 78.3408 310.08C78.9792 309.624 79.8 309.441 80.5296 309.624C80.8944 309.715 81.3504 309.806 81.624 310.08C81.8976 310.262 82.1712 310.536 82.4448 310.809C82.6272 311.083 82.8096 311.356 82.9008 311.721C82.992 312.086 82.992 312.451 82.992 312.724C82.992 313.089 82.8096 313.454 82.6272 313.819C82.536 314.001 82.3536 314.184 82.1712 314.366C81.9888 314.457 81.8976 314.64 81.624 314.64C81.4416 314.731 81.3504 314.731 81.168 314.731C80.9856 314.731 80.8944 314.731 80.712 314.731C80.6208 314.731 80.4384 314.64 80.3472 314.64C80.256 314.64 80.1648 314.548 80.0736 314.548C79.8912 314.457 79.8 314.366 79.7088 314.184C79.6176 314.092 79.6176 314.001 79.7088 313.819C79.5264 313.819 79.344 313.819 79.2528 313.819C79.0704 313.819 78.7968 313.728 78.6144 313.636C78.432 313.545 78.3408 313.454 78.2496 313.272C78.1584 313.18 78.0672 312.998 78.0672 312.816C78.0672 312.633 78.0672 312.451 78.0672 312.36C78.0672 312.177 78.1584 311.995 78.2496 311.904C78.3408 311.721 78.5232 311.539 78.7056 311.356C78.888 311.174 79.0704 311.083 79.2528 310.992C79.4352 310.9 79.7088 310.9 79.8912 310.9C80.1648 310.9 80.3472 310.992 80.5296 311.174C80.712 311.265 80.8032 311.356 80.8944 311.539C80.9856 311.721 80.9856 311.812 80.9856 311.995L81.2592 311.721L81.8976 312.086L80.8944 313.272L80.712 313.454C80.6208 313.545 80.6208 313.545 80.5296 313.636C80.4384 313.728 80.4384 313.728 80.4384 313.819C80.4384 313.91 80.5296 313.91 80.5296 314.001C80.6208 314.092 80.712 314.092 80.8032 314.092C80.8944 314.092 80.9856 314.092 81.0768 314.001C81.168 313.91 81.3504 313.91 81.4416 313.819C81.5328 313.728 81.7152 313.545 81.8064 313.363C81.9888 313.089 82.08 312.816 82.08 312.542C82.1712 312.268 82.1712 311.995 82.08 311.812C81.9888 311.539 81.8976 311.356 81.7152 311.174C81.5328 310.992 81.3504 310.809 81.0768 310.627C80.8032 310.444 80.5296 310.353 80.256 310.262C79.9824 310.171 79.7088 310.171 79.4352 310.262C79.1616 310.353 78.888 310.444 78.7056 310.627C78.432 310.809 78.2496 311.083 78.0672 311.356C77.8848 311.63 77.7936 311.904 77.7024 312.268C77.6112 312.542 77.6112 312.816 77.7024 313.089C77.7936 313.363 77.8848 313.636 78.0672 313.91C78.2496 314.184 78.5232 314.366 78.7968 314.548C79.0704 314.731 79.2528 314.822 79.5264 314.913C79.8 315.004 80.0736 315.004 80.256 315.004L81.3504 315.369ZM80.5296 311.812C80.4384 311.721 80.3472 311.721 80.1648 311.721C80.0736 311.721 79.9824 311.721 79.8 311.721C79.7088 311.721 79.6176 311.812 79.5264 311.904C79.4352 311.995 79.344 312.086 79.2528 312.177L79.1616 312.36C79.1616 312.451 79.0704 312.542 79.0704 312.633C79.0704 312.724 79.0704 312.816 79.1616 312.907C79.2528 312.998 79.344 313.089 79.4352 313.18C79.5264 313.272 79.7088 313.272 79.8 313.272C79.8912 313.272 79.9824 313.272 80.1648 313.18C80.256 313.089 80.3472 313.089 80.4384 312.998C80.5296 312.907 80.6208 312.816 80.6208 312.724C80.712 312.542 80.8032 312.36 80.8032 312.177C80.8032 311.995 80.712 311.812 80.5296 311.812Z" fill="#D1D3D4"/>
<path d="M323.031 291.475L336.802 269.313C337.44 268.31 338.808 267.945 339.811 268.584L381.49 294.485C382.493 295.123 382.858 296.491 382.219 297.494L368.448 319.656C367.81 320.659 366.442 321.024 365.439 320.385L323.76 294.485C322.666 293.846 322.392 292.478 323.031 291.475Z" fill="white"/>
<path d="M366.259 321.024C365.529 321.024 364.891 320.841 364.344 320.476L324.216 295.488C322.483 294.393 321.936 292.113 323.03 290.38L335.889 269.769C336.437 268.948 337.257 268.31 338.169 268.128C339.173 267.854 340.176 268.036 340.997 268.584L381.125 293.572C382.857 294.667 383.405 296.947 382.31 298.68L369.451 319.291C368.721 320.385 367.536 321.024 366.259 321.024ZM364.982 319.382C366.168 320.112 367.627 319.747 368.357 318.561L381.216 297.95C381.945 296.764 381.581 295.305 380.395 294.576L340.267 269.587C339.72 269.222 339.081 269.131 338.443 269.313C337.805 269.496 337.257 269.86 336.893 270.408L324.033 291.019C323.304 292.204 323.669 293.664 324.854 294.393L364.982 319.382Z" fill="#D1D3D4"/>
<path d="M351.029 297.677C350.755 297.677 350.573 297.494 350.481 297.312L337.987 268.949C337.896 268.584 338.078 268.219 338.352 268.128C338.625 268.037 338.99 268.128 339.173 268.402L351.485 296.4L382.037 295.123C382.401 295.123 382.675 295.306 382.675 295.67C382.675 295.67 382.675 295.67 382.675 295.762C382.675 296.126 382.401 296.4 382.037 296.4L351.029 297.677Z" fill="#D1D3D4"/>
<path d="M366.715 321.024C366.442 321.024 366.259 320.841 366.168 320.659L355.042 297.22C354.859 296.947 355.042 296.491 355.315 296.4C355.589 296.217 356.045 296.4 356.136 296.673L367.263 320.112C367.445 320.385 367.262 320.841 366.989 320.932C366.898 321.024 366.806 321.024 366.715 321.024Z" fill="#D1D3D4"/>
<path d="M323.213 293.937C322.848 293.937 322.574 293.664 322.574 293.299C322.574 292.934 322.848 292.661 323.213 292.661L349.205 292.296C349.569 292.296 349.843 292.57 349.843 292.934C349.843 293.299 349.569 293.573 349.205 293.573L323.213 293.937Z" fill="#D1D3D4"/>
<path d="M358.325 293.846C357.595 294.12 356.774 294.211 356.045 294.029C355.315 293.846 354.586 293.573 353.947 293.117C353.4 292.752 352.944 292.296 352.579 291.749C352.214 291.202 351.941 290.654 351.85 290.016C351.758 289.378 351.758 288.739 351.85 288.101C351.941 287.462 352.214 286.824 352.67 286.277C353.4 285.182 354.586 284.453 355.862 284.27C357.139 284.088 358.416 284.362 359.51 285.182C359.966 285.547 360.422 285.912 360.696 286.368C361.061 286.824 361.243 287.371 361.426 287.918C361.608 288.466 361.608 289.013 361.517 289.651C361.426 290.29 361.152 290.837 360.787 291.384C360.605 291.749 360.24 292.022 359.966 292.296C359.693 292.478 359.419 292.661 359.146 292.752C358.872 292.843 358.598 292.934 358.325 292.934C358.051 292.934 357.869 292.934 357.595 292.843C357.413 292.752 357.23 292.752 357.048 292.661C356.866 292.57 356.774 292.478 356.592 292.387C356.318 292.296 356.136 292.022 356.045 291.749C355.954 291.566 356.045 291.384 356.136 291.201C355.862 291.201 355.589 291.201 355.315 291.201C354.95 291.11 354.677 291.019 354.403 290.837C354.221 290.654 354.038 290.472 353.856 290.289C353.765 290.107 353.674 289.834 353.674 289.56C353.674 289.286 353.674 289.013 353.765 288.739C353.856 288.466 353.947 288.192 354.13 287.918C354.312 287.645 354.586 287.371 354.95 287.097C355.224 286.915 355.589 286.733 355.862 286.641C356.592 286.459 357.322 286.55 357.96 287.006C358.234 287.189 358.416 287.371 358.598 287.645C358.69 287.918 358.781 288.192 358.69 288.465L359.146 288.009L360.149 288.739L358.325 290.563L358.051 290.837C357.96 290.928 357.869 291.019 357.778 291.11C357.686 291.202 357.686 291.293 357.595 291.475C357.595 291.566 357.686 291.658 357.778 291.749C357.869 291.84 358.051 291.84 358.142 291.931C358.325 291.931 358.507 291.931 358.598 291.84C358.781 291.749 358.963 291.658 359.146 291.475C359.328 291.293 359.602 291.019 359.693 290.837C359.966 290.472 360.149 290.016 360.24 289.56C360.422 288.739 360.24 287.918 359.693 287.189C359.419 286.824 359.054 286.55 358.69 286.277C358.325 286.003 357.778 285.73 357.322 285.638C356.866 285.547 356.41 285.547 355.954 285.638C355.498 285.73 355.042 285.912 354.677 286.185C354.221 286.459 353.947 286.824 353.582 287.28C353.309 287.736 353.035 288.192 352.944 288.739C352.853 289.195 352.853 289.651 352.944 290.107C353.035 290.563 353.218 291.019 353.491 291.384C353.765 291.84 354.13 292.205 354.586 292.478C354.95 292.752 355.406 292.934 355.862 293.117C356.227 293.208 356.683 293.299 357.139 293.299L358.325 293.846ZM357.23 287.918C357.048 287.827 356.866 287.736 356.683 287.645C356.501 287.645 356.318 287.645 356.136 287.645C355.954 287.736 355.771 287.736 355.68 287.918C355.498 288.01 355.406 288.192 355.224 288.374L355.042 288.648C354.95 288.739 354.95 288.922 354.95 289.013C354.95 289.195 354.95 289.286 355.042 289.469C355.133 289.651 355.315 289.834 355.498 289.925C355.68 290.016 355.862 290.107 356.045 290.198C356.227 290.198 356.41 290.198 356.592 290.107C356.774 290.016 356.957 289.925 357.048 289.833C357.139 289.742 357.322 289.56 357.413 289.377C357.595 289.104 357.686 288.83 357.686 288.557C357.595 288.283 357.413 288.101 357.23 287.918Z" fill="#D1D3D4"/>
<path d="M333.61 191.611C333.61 191.611 339.082 180.849 338.808 177.293C338.535 173.28 334.704 169.905 333.975 165.984C332.88 160.238 336.802 155.952 340.815 152.669C342.183 151.392 343.733 150.48 345.375 149.75C347.381 149.112 349.479 149.021 351.394 149.568C359.419 151.118 368.904 159.691 368.904 168.355C368.904 177.657 351.394 204.197 351.394 204.197L333.61 191.611Z" fill="white"/>
<path d="M351.394 204.835C351.303 204.835 351.12 204.835 351.029 204.744L333.154 192.158C332.88 191.976 332.789 191.611 332.971 191.338C334.431 188.419 338.261 180.12 338.079 177.384C337.896 175.378 336.802 173.554 335.707 171.638C334.613 169.997 333.792 168.082 333.245 166.166C331.968 159.965 336.346 155.496 340.359 152.213C341.727 150.936 343.368 149.933 345.101 149.203C347.199 148.565 349.387 148.474 351.485 148.93C359.875 150.48 369.543 159.326 369.543 168.355C369.543 177.749 352.671 203.467 351.941 204.562C351.85 204.744 351.667 204.835 351.485 204.835H351.394ZM334.339 191.429L351.211 203.285C353.674 199.454 368.266 176.563 368.266 168.355C368.266 160.147 358.963 151.666 351.211 150.206C349.296 149.75 347.381 149.842 345.466 150.389C343.824 151.118 342.365 152.03 341.088 153.216C337.44 156.226 333.336 160.421 334.431 165.984C334.887 167.808 335.707 169.541 336.711 171.091C337.896 173.098 339.082 175.104 339.264 177.384C339.629 180.576 335.434 189.24 334.339 191.429Z" fill="#231F20"/>
<path d="M139.08 329.779L108.802 331.056C108.802 331.056 90.4706 369.634 96.4898 376.2C102.509 382.766 117.831 357.048 117.831 357.048L145.282 355.315L139.08 329.779Z" fill="white"/>
<path d="M98.8608 378.024C97.7664 378.024 96.7632 377.568 96.0336 376.747C93.3888 373.829 94.5744 365.165 99.7728 351.029C103.603 340.632 108.163 330.965 108.254 330.874C108.346 330.691 108.528 330.509 108.802 330.509L139.08 329.232C139.354 329.232 139.627 329.414 139.718 329.688L145.829 355.224C145.829 355.406 145.829 355.589 145.738 355.771C145.646 355.954 145.464 356.045 145.282 356.045L118.195 357.778C116.645 360.331 106.157 377.294 99.3168 378.024H98.8608ZM109.166 331.694C104.059 342.547 92.2032 370.728 96.9456 375.835C97.4928 376.474 98.3136 376.838 99.1344 376.656C105.701 375.926 117.101 356.957 117.192 356.683C117.283 356.501 117.466 356.41 117.739 356.41L144.37 354.768L138.624 330.418L109.166 331.694Z" fill="#231F20"/>
<path d="M257.093 270.226L325.128 335.707L297.677 365.347L214.411 301.507L257.093 270.226Z" fill="#231F20"/>
<path d="M258.187 182.126C258.187 182.126 296.218 213.864 309.259 214.502L333.427 183.494L360.058 198.269C360.058 198.269 335.342 259.19 321.298 260.194C284.544 262.93 250.891 233.198 250.891 233.198L258.187 182.126Z" fill="url(#paint0_linear_597_850)"/>
<path d="M257.184 186.504C257.184 186.504 273.053 209.578 273.874 250.526C274.694 291.475 272.87 315.37 231.466 327.134C190.061 338.899 134.338 314.093 142.181 259.19C150.024 204.288 203.832 171.547 213.134 172.003C222.437 172.459 257.275 186.504 257.184 186.504Z" fill="url(#paint1_linear_597_850)"/>
<path d="M142.363 279.893C149.294 320.112 195.715 337.257 231.466 327.134C261.653 318.561 270.773 303.422 273.144 279.893H142.363Z" fill="#231F20"/>
<path d="M198.999 325.584C198.816 326.861 170.362 371.731 124.032 362.794L125.674 325.675C125.674 325.675 149.112 324.763 152.76 319.747C162.792 305.703 166.258 298.224 166.258 298.224L198.999 325.584Z" fill="#231F20"/>
<path d="M273.874 259.829C273.509 259.829 273.235 259.464 273.235 259.099C275.698 230.098 262.838 198.816 262.747 198.543C262.656 198.178 262.747 197.813 263.112 197.722C263.477 197.631 263.842 197.722 263.933 198.087C264.024 198.451 277.066 229.915 274.512 259.282C274.512 259.647 274.238 259.829 273.874 259.829Z" fill="#231F20"/>
<path d="M94.2095 288.922L111.811 203.741C112.632 199.728 116.554 197.174 120.475 197.995L280.896 231.192C284.909 232.013 287.462 235.934 286.642 239.856L269.04 325.037C268.219 329.05 264.298 331.603 260.376 330.782L99.9551 297.586C95.9423 296.765 93.3887 292.934 94.2095 288.922Z" fill="white"/>
<path d="M259.555 331.056C258.826 331.056 258.096 330.965 257.275 330.874L102.6 298.863C96.6721 297.677 92.9329 291.84 94.1185 285.912L110.535 206.477C111.72 200.549 117.557 196.81 123.485 197.995L278.16 229.915C284.088 231.192 287.827 236.938 286.642 242.866L270.226 322.301C269.131 327.408 264.754 331.056 259.555 331.056ZM121.296 198.999C116.736 198.999 112.815 202.191 111.811 206.659L95.3953 286.095C94.3009 291.293 97.6753 296.4 102.874 297.495L257.549 329.506C262.747 330.6 267.854 327.226 268.949 322.027L285.365 242.592C286.459 237.394 283.085 232.287 277.887 231.192L123.12 199.181C122.573 199.09 121.935 198.999 121.296 198.999Z" fill="#231F20"/>
<path d="M188.328 274.877C188.146 274.877 187.964 274.786 187.872 274.694L115.824 200.093C115.551 199.819 115.551 199.454 115.824 199.181C116.098 198.907 116.463 198.907 116.736 199.181L188.511 273.418L283.815 233.654C284.18 233.563 284.544 233.654 284.636 234.019C284.727 234.384 284.636 234.749 284.271 234.84L188.511 274.786C188.511 274.877 188.42 274.877 188.328 274.877Z" fill="#231F20"/>
<path d="M264.389 329.779C264.207 329.779 264.024 329.688 263.933 329.597L201.917 268.857C201.644 268.584 201.644 268.219 201.917 267.945C202.191 267.672 202.556 267.672 202.829 267.945L264.845 328.685C265.119 328.958 265.119 329.323 264.845 329.597C264.754 329.779 264.572 329.87 264.389 329.779Z" fill="#231F20"/>
<path d="M96.7631 295.123C96.4895 295.123 96.3071 294.941 96.1247 294.667C96.0335 294.302 96.1247 293.938 96.4895 293.846L177.475 262.656C177.84 262.565 178.205 262.656 178.296 263.021C178.387 263.386 178.296 263.75 177.931 263.842L96.9455 295.032C96.9455 295.123 96.8543 295.123 96.7631 295.123Z" fill="#231F20"/>
<path d="M207.389 255.633C205.383 257.275 203.011 258.369 200.458 258.917C197.904 259.373 195.259 259.281 192.797 258.643C190.608 258.096 188.602 257.093 186.778 255.816C185.045 254.539 183.586 253.08 182.4 251.256C180.029 247.517 179.391 242.957 180.576 238.761C181.671 234.566 184.407 230.918 188.237 228.821C190.061 227.817 192.159 227.088 194.256 226.905C196.445 226.632 198.725 226.814 200.823 227.361C202.647 227.817 204.471 228.638 206.021 229.733C207.571 230.736 209.031 232.104 210.125 233.654C211.219 235.205 211.949 237.029 212.405 238.944C212.77 241.041 212.679 243.139 212.131 245.237C211.858 246.513 211.311 247.79 210.581 248.976C210.034 249.888 209.304 250.709 208.483 251.438C207.754 251.985 207.024 252.441 206.112 252.806C204.653 253.353 203.194 253.536 201.643 253.353C201.096 253.262 200.549 253.171 200.002 253.08C199.09 252.897 198.269 252.441 197.631 251.712C197.266 251.165 197.175 250.526 197.266 249.979H197.175C196.354 250.435 195.533 250.8 194.621 250.982C193.435 251.256 192.25 251.165 191.155 250.8C190.335 250.617 189.514 250.161 188.784 249.614C188.146 249.067 187.599 248.429 187.234 247.699C186.869 246.878 186.595 246.057 186.595 245.145C186.504 244.142 186.595 243.139 186.869 242.136C187.143 240.95 187.69 239.765 188.419 238.761C189.058 237.758 189.879 236.846 190.882 236.208C191.794 235.478 192.888 235.022 194.074 234.84C195.351 234.566 196.627 234.657 197.813 235.022C198.816 235.205 199.728 235.661 200.458 236.299C201.096 236.937 201.552 237.758 201.735 238.579H201.826L202.647 236.755L206.568 237.758L202.829 245.601L202.282 246.696C202.099 247.061 201.917 247.517 201.826 247.881C201.735 248.246 201.643 248.702 201.735 249.067C201.826 249.341 202.099 249.614 202.555 249.705C203.011 249.797 203.467 249.797 204.015 249.705C204.562 249.523 205.018 249.249 205.474 248.885C206.021 248.337 206.477 247.79 206.842 247.152C207.298 246.331 207.663 245.328 207.936 244.416C208.392 242.865 208.483 241.315 208.301 239.765C208.119 238.397 207.663 237.12 206.842 235.934C206.112 234.749 205.018 233.837 203.923 233.107C202.647 232.286 201.187 231.648 199.637 231.283C197.995 230.827 196.354 230.736 194.621 230.918C193.071 231.101 191.611 231.648 190.243 232.469C188.875 233.289 187.781 234.384 186.869 235.569C185.866 236.937 185.227 238.488 184.771 240.129C184.315 241.862 184.133 243.595 184.407 245.328C184.589 246.878 185.136 248.429 186.048 249.705C186.96 251.073 188.055 252.168 189.331 253.08C190.791 254.083 192.341 254.813 194.074 255.177C195.533 255.542 197.083 255.725 198.634 255.633C200.002 255.542 201.37 255.177 202.647 254.721L207.389 255.633ZM197.266 238.488C196.627 238.305 195.898 238.305 195.259 238.397C194.621 238.488 194.074 238.761 193.527 239.126C192.979 239.491 192.615 239.947 192.25 240.494C191.885 241.041 191.611 241.68 191.429 242.409C191.338 242.592 191.338 242.957 191.247 243.413C191.155 243.869 191.155 244.325 191.247 244.781C191.338 245.328 191.611 245.784 191.976 246.149C192.523 246.696 193.162 247.061 193.891 247.152C194.53 247.334 195.259 247.334 195.989 247.243C196.536 247.061 197.083 246.787 197.539 246.331C197.995 245.875 198.36 245.419 198.634 244.872C198.907 244.325 199.09 243.686 199.272 243.139C199.546 242.136 199.546 241.133 199.272 240.129C198.999 239.309 198.178 238.579 197.266 238.488Z" fill="#D1D3D4"/>
<path d="M176.837 270.226C176.837 270.226 194.347 286.003 195.989 290.107C197.63 294.211 184.589 286.55 185.501 287.462C186.413 288.374 196.718 302.054 192.158 307.07C187.598 312.086 179.664 315.461 175.378 313.09C171.091 310.718 154.128 286.55 154.128 286.55L176.837 270.226Z" fill="white"/>
<path d="M178.843 314.549C177.566 314.549 176.198 314.275 175.104 313.637C170.726 311.174 154.219 287.827 153.581 286.824C153.398 286.55 153.398 286.185 153.672 285.912L176.381 269.587C176.654 269.405 176.928 269.405 177.202 269.587C177.931 270.225 194.803 285.547 196.536 289.742C196.901 290.654 196.627 291.201 196.354 291.475C195.35 292.478 192.523 291.384 187.325 288.83C190.334 293.025 196.627 302.875 192.523 307.435C189.149 311.448 183.494 314.549 178.843 314.549ZM154.949 286.733C160.968 295.214 172.459 310.809 175.742 312.633C179.846 314.913 187.507 311.357 191.702 306.797C195.898 302.237 186.048 289.104 185.045 288.009C184.771 287.736 184.771 287.371 184.954 287.097C185.318 286.641 185.501 286.641 187.781 287.827C189.422 288.648 194.53 291.11 195.533 290.745C195.533 290.745 195.442 290.654 195.442 290.472C194.165 287.371 182.947 276.701 176.837 271.137L154.949 286.733Z" fill="#231F20"/>
<path d="M188.145 177.202C188.145 177.202 141.177 184.133 121.569 211.128C101.961 238.123 150.48 294.576 150.48 294.576L184.862 270.226L159.235 228.912C159.235 228.912 217.968 209.851 215.414 193.709C212.861 177.566 194.803 174.648 188.145 177.202Z" fill="url(#paint2_linear_597_850)"/>
<path d="M159.235 229.459C158.962 229.459 158.779 229.277 158.688 229.094C158.597 228.73 158.688 228.365 159.053 228.274L211.675 206.021C212.04 205.838 212.405 206.021 212.496 206.386C212.587 206.75 212.496 207.115 212.131 207.206L159.509 229.459C159.418 229.368 159.327 229.368 159.235 229.459Z" fill="#231F20"/>
<path d="M262.565 100.685C262.565 100.685 260.923 81.6239 255.542 79.2527C250.162 76.8815 230.736 81.3503 214.776 91.8383C198.816 102.326 190.517 113.179 190.061 116.28C189.605 119.381 193.891 139.262 193.891 139.262C193.891 139.262 250.526 101.049 260.923 100.958" fill="white"/>
<path d="M193.8 139.992C193.709 139.992 193.618 139.992 193.526 139.901C193.344 139.81 193.162 139.627 193.162 139.445C192.979 138.624 188.875 119.472 189.331 116.28C189.787 113.088 197.904 102.235 214.32 91.3824C229.824 81.168 249.614 76.0608 255.725 78.7056C261.288 81.168 262.93 98.6784 263.112 100.685C263.112 101.05 262.838 101.323 262.565 101.414C262.2 101.414 261.926 101.232 261.835 100.867C261.379 95.6688 259.373 81.8064 255.178 79.9824C250.07 77.7936 230.918 82.08 214.958 92.568C198.542 103.33 190.882 114 190.517 116.554C190.152 118.834 192.797 132.331 194.165 138.35C201.278 133.517 250.891 100.502 260.832 100.411C261.197 100.411 261.47 100.685 261.47 101.05C261.47 101.414 261.197 101.688 260.832 101.688C250.8 101.779 194.712 139.536 194.165 139.901C194.074 139.901 193.982 139.901 193.8 139.992Z" fill="#231F20"/>
<path d="M205.2 121.569C205.2 121.569 245.511 96.307 265.575 94.3918C285.639 92.4766 287.463 97.7662 283.541 105.336C279.619 112.905 264.298 121.205 264.298 121.205L205.2 121.569Z" fill="#231F20"/>
<path d="M289.469 168.994C289.925 172.733 279.984 185.866 264.754 196.08C264.115 196.445 263.568 196.901 262.93 197.266C247.882 206.568 228.548 210.125 211.128 196.901C192.888 183.221 176.928 146.376 194.348 129.778C211.767 113.179 245.42 104.606 259.647 109.44C273.874 114.274 272.506 126.221 272.506 126.221C272.871 130.598 270.317 130.781 270.317 130.781C269.679 138.35 274.239 146.285 274.239 146.285C279.62 147.014 277.34 153.034 277.34 153.034C290.837 158.05 284.635 166.349 284.635 166.349C284.635 166.349 289.013 165.254 289.469 168.994Z" fill="white"/>
<path d="M236.208 206.112C226.997 206.112 217.968 203.011 210.672 197.448C197.631 187.69 187.143 167.991 186.231 151.666C185.684 142.272 188.328 134.611 193.8 129.322C211.311 112.541 245.328 103.877 259.829 108.802C273.874 113.544 273.236 125.218 273.144 126.221C273.418 127.68 273.053 129.231 272.141 130.416C271.776 130.781 271.412 131.146 270.864 131.328C270.5 137.712 273.783 144.37 274.604 145.738C275.88 145.92 277.066 146.65 277.796 147.744C278.799 149.477 278.434 151.575 278.16 152.669C282.812 154.493 285.548 156.864 286.46 159.874C287.007 161.789 286.733 163.795 285.821 165.528C286.824 165.437 287.828 165.711 288.648 166.258C289.469 166.896 290.016 167.808 290.108 168.903C290.746 174.831 275.607 189.514 265.119 196.627C264.48 196.992 263.842 197.448 263.295 197.813C254.266 203.376 245.055 206.112 236.208 206.112ZM249.706 108.711C233.381 108.711 208.757 116.827 194.712 130.234C189.423 135.25 186.96 142.637 187.508 151.575C188.42 167.261 198.908 186.96 211.493 196.354C226.359 207.48 244.964 207.663 262.565 196.627C263.204 196.263 263.842 195.898 264.389 195.442C279.984 185.045 289.196 172.186 288.831 168.994C288.831 168.264 288.466 167.717 287.919 167.261C286.733 166.44 284.727 166.896 284.727 166.896C284.362 166.987 283.997 166.805 283.997 166.44C283.906 166.258 283.997 166.075 284.088 165.893C285.274 164.251 285.639 162.154 285.183 160.147C284.362 157.503 281.717 155.223 277.157 153.581C276.792 153.49 276.701 153.125 276.792 152.76C276.792 152.76 277.796 150.024 276.701 148.291C276.154 147.471 275.151 146.923 274.148 146.832C273.965 146.832 273.783 146.65 273.692 146.559C273.509 146.194 269.04 138.351 269.679 130.69C269.679 130.416 269.952 130.143 270.226 130.143C270.317 130.143 272.141 129.869 271.868 126.221V126.13C271.959 125.674 273.053 114.639 259.464 109.987C256.272 109.075 252.989 108.619 249.706 108.711Z" fill="#231F20"/>
<path d="M289.469 168.993C289.925 172.733 279.984 185.865 264.754 196.08C264.115 196.445 263.568 196.901 262.93 197.265C244.142 198.907 241.68 190.425 241.68 190.425L241.407 193.526C233.563 190.243 231.648 179.846 231.648 179.846L230.371 183.312C230.371 183.312 226.45 179.117 227.909 168.629C229.368 158.141 241.133 153.489 241.133 153.489C241.133 153.489 227.818 148.2 229.824 135.249C231.83 122.299 247.243 118.833 255.36 126.585C263.477 134.337 270.317 130.963 270.317 130.963C269.678 138.533 274.239 146.467 274.239 146.467C279.619 147.197 277.339 153.216 277.339 153.216C290.837 158.232 284.635 166.531 284.635 166.531C284.635 166.531 289.013 165.254 289.469 168.993Z" fill="white"/>
<path d="M258.187 198.086C248.064 198.086 243.778 194.712 242.045 192.523L241.954 193.618C241.954 193.8 241.863 193.982 241.68 194.074C241.498 194.165 241.315 194.165 241.133 194.074C235.205 191.52 232.56 185.227 231.557 181.944L231.01 183.403C230.919 183.586 230.736 183.768 230.554 183.768C230.371 183.859 230.098 183.768 230.007 183.586C229.824 183.403 225.903 179.026 227.362 168.355C228.639 159.6 236.482 154.858 239.674 153.307C236.299 151.574 227.544 145.829 229.277 134.976C230.007 129.23 234.019 124.397 239.583 122.573C245.237 120.658 251.53 121.934 255.907 125.947C263.568 133.243 269.861 130.325 270.135 130.234C270.408 130.051 270.864 130.234 270.955 130.507C271.047 130.598 271.047 130.69 271.047 130.872C270.499 137.438 273.965 144.278 274.695 145.738C275.971 145.92 277.157 146.65 277.887 147.744C278.89 149.477 278.525 151.574 278.251 152.669C282.903 154.493 285.639 156.864 286.551 159.874C287.098 161.789 286.824 163.795 285.912 165.528C286.915 165.437 287.919 165.71 288.739 166.258C289.56 166.896 290.107 167.808 290.199 168.902C290.837 174.83 275.698 189.514 265.21 196.627C264.571 196.992 263.933 197.448 263.386 197.813C263.295 197.904 263.203 197.904 263.112 197.904C261.288 197.995 259.647 197.995 258.187 198.086ZM241.589 189.787C241.863 189.787 242.136 189.97 242.227 190.243C242.227 190.334 244.872 198.178 262.656 196.627C263.203 196.262 263.751 195.898 264.389 195.533C279.984 185.136 289.195 172.277 288.831 169.085C288.831 168.355 288.466 167.808 287.919 167.352C286.733 166.531 284.727 166.987 284.727 166.987C284.362 167.078 283.997 166.896 283.997 166.531C283.906 166.349 283.997 166.166 284.088 165.984C285.274 164.342 285.639 162.245 285.183 160.238C284.362 157.594 281.717 155.314 277.157 153.672C276.792 153.581 276.701 153.216 276.792 152.851C276.792 152.851 277.795 150.115 276.701 148.382C276.154 147.562 275.151 147.014 274.147 146.923C273.965 146.923 273.783 146.741 273.691 146.65C273.509 146.285 269.405 139.171 269.679 131.784C267.399 132.422 261.653 133.243 254.995 126.95C250.891 123.211 245.146 122.026 239.947 123.85C234.84 125.491 231.192 129.96 230.463 135.25C228.547 147.653 240.859 152.669 241.407 152.851C241.771 152.942 241.863 153.398 241.771 153.672C241.68 153.854 241.589 153.946 241.407 154.037C241.315 154.128 230.007 158.597 228.547 168.629C227.544 176.016 229.186 180.12 230.189 181.853L231.01 179.573C231.101 179.208 231.466 179.026 231.831 179.208C232.013 179.299 232.195 179.482 232.287 179.664C232.287 179.755 234.111 188.966 240.859 192.523L241.042 190.334C241.042 190.152 241.224 189.878 241.589 189.787Z" fill="#231F20"/>
<path d="M263.659 173.736C255.816 173.736 245.875 171.638 234.019 164.981C233.746 164.798 233.563 164.434 233.746 164.16C233.928 163.886 234.293 163.704 234.567 163.886H234.658C267.125 181.853 283.997 166.075 284.179 165.893C284.453 165.619 284.818 165.619 285.091 165.893C285.365 166.166 285.365 166.531 285.091 166.805C284.909 166.896 277.704 173.736 263.659 173.736Z" fill="#231F20"/>
<path d="M263.203 152.395C263.112 152.395 263.112 152.395 263.021 152.395C262.656 152.304 262.474 151.939 262.565 151.575C264.389 144.37 274.147 145.647 274.238 145.647C274.603 145.738 274.877 146.011 274.786 146.376C274.694 146.741 274.421 147.015 274.056 146.923C273.965 146.923 265.301 145.829 263.75 151.848C263.75 152.213 263.477 152.395 263.203 152.395Z" fill="#231F20"/>
<path d="M261.455 141.043C262.648 140.845 263.34 139.033 263.001 136.996C262.662 134.958 261.421 133.468 260.229 133.666C259.036 133.864 258.344 135.676 258.683 137.714C259.021 139.751 260.263 141.242 261.455 141.043Z" fill="#231F20"/>
<path d="M248.338 155.04C247.973 155.04 247.699 154.766 247.699 154.401C247.699 154.219 247.79 153.945 247.973 153.854C253.901 149.933 262.474 149.112 262.838 149.112C263.203 149.112 263.477 149.385 263.477 149.75C263.477 150.024 263.294 150.297 262.93 150.389C262.838 150.389 254.357 151.209 248.702 154.949C248.611 154.949 248.429 155.04 248.338 155.04Z" fill="#231F20"/>
<path d="M270.226 149.933C269.952 149.659 269.496 149.477 269.131 149.385C268.766 149.294 268.31 149.385 267.946 149.568C267.581 149.933 267.398 150.571 267.581 151.118C267.763 151.939 268.31 152.577 269.131 152.851C269.952 153.125 270.773 152.669 271.046 151.848V151.757C271.046 151.118 270.773 150.389 270.226 149.933Z" fill="#231F20"/>
<path d="M272.597 151.939C272.688 152.487 273.144 152.943 273.782 152.851C273.874 152.851 273.874 152.851 273.965 152.851C274.512 152.76 274.968 152.487 275.333 152.122C275.606 151.757 275.698 151.392 275.789 151.027C276.154 148.747 273.235 149.386 272.688 150.936C272.597 151.21 272.506 151.575 272.597 151.939Z" fill="#231F20"/>
<path d="M199.09 139.992C199.09 139.992 190.882 123.485 181.215 136.891C171.547 150.298 181.306 165.802 196.719 162.062" fill="white"/>
<path d="M192.25 163.248C187.051 163.431 182.218 160.877 179.299 156.682C175.378 150.845 175.925 143.184 180.667 136.527C183.495 132.605 186.504 130.781 189.605 131.055C195.533 131.511 199.455 139.354 199.637 139.719C199.819 139.992 199.637 140.448 199.363 140.539C199.09 140.722 198.725 140.539 198.543 140.266C198.543 140.175 194.712 132.696 189.514 132.331C186.869 132.149 184.224 133.791 181.671 137.256C177.202 143.367 176.746 150.571 180.303 155.952C183.677 160.968 189.879 163.066 196.536 161.515C196.901 161.424 197.266 161.607 197.357 161.971C197.448 162.336 197.266 162.701 196.901 162.792H196.81C195.351 163.066 193.709 163.248 192.25 163.248Z" fill="#231F20"/>
<path d="M239.126 166.896C239.126 166.896 250.526 183.494 265.118 181.67C279.71 179.846 282.264 168.082 282.264 168.082C282.264 168.082 263.294 176.198 239.126 166.896Z" fill="#231F20"/>
<path d="M196.627 146.649C196.627 146.649 193.618 139.536 189.058 138.897C184.498 138.259 178.479 147.105 183.039 152.395C185.775 155.496 189.787 157.229 193.983 156.955L192.979 154.037C193.8 153.945 194.621 153.763 195.351 153.489C195.624 153.216 193.162 150.48 194.256 150.297C195.351 150.115 196.08 150.936 196.719 150.115C197.357 149.294 196.627 146.741 196.627 146.649Z" fill="#D1D3D4"/>
<path d="M191.338 127.68C190.973 127.68 190.699 127.407 190.699 127.042C190.699 126.859 190.79 126.768 190.882 126.586C201.37 115.733 213.59 106.795 226.997 100.047C248.52 89.5585 260.194 89.1025 260.65 89.1025C261.014 89.1025 261.288 89.3761 261.288 89.7409C261.288 90.1057 261.014 90.3793 260.65 90.3793C260.558 90.3793 248.702 90.8353 227.453 101.232C214.138 107.89 202.099 116.827 191.702 127.498C191.702 127.68 191.52 127.68 191.338 127.68Z" fill="#231F20"/>
<path d="M249.615 142.363C249.523 142.363 249.341 142.363 249.25 142.272C243.322 138.35 240.312 139.536 240.312 139.627C240.039 139.81 239.583 139.627 239.491 139.354C239.309 139.08 239.491 138.624 239.765 138.533C239.947 138.442 243.322 136.891 249.979 141.269C250.253 141.451 250.344 141.816 250.162 142.09C250.162 142.09 250.162 142.09 250.162 142.181C250.071 142.272 249.797 142.363 249.615 142.363Z" fill="#231F20"/>
<path d="M250.709 139.718C250.435 139.718 250.253 139.627 250.162 139.354C250.162 139.354 247.517 134.611 243.139 134.611H243.048C242.683 134.611 242.41 134.338 242.41 133.973C242.41 133.608 242.683 133.334 243.048 133.334H243.23C248.338 133.334 251.256 138.533 251.347 138.806C251.53 139.08 251.438 139.536 251.074 139.627C250.891 139.718 250.8 139.718 250.709 139.718Z" fill="#231F20"/>
<path d="M318.015 147.562L335.981 118.195C336.802 116.827 338.626 116.371 339.994 117.192L395.352 151.027C396.72 151.848 397.176 153.672 396.356 155.04L378.389 184.406C377.568 185.774 375.744 186.23 374.376 185.41L319.018 151.574C317.65 150.662 317.194 148.93 318.015 147.562Z" fill="white"/>
<path d="M375.471 186.048C374.559 186.048 373.738 185.775 373.008 185.319L319.656 152.669C317.467 151.301 316.738 148.383 318.106 146.194L334.887 118.834C336.255 116.645 339.173 115.915 341.362 117.283L394.714 149.933C396.902 151.301 397.632 154.219 396.264 156.408L379.483 183.768C378.571 185.227 377.112 186.048 375.471 186.048ZM373.647 184.315C375.288 185.319 377.386 184.771 378.389 183.221L395.17 155.861C396.173 154.219 395.626 152.122 394.075 151.119L340.723 118.469C339.082 117.466 336.984 118.013 335.981 119.563L319.2 146.923C318.197 148.565 318.744 150.663 320.295 151.666L373.647 184.315Z" fill="#231F20"/>
<path d="M355.042 155.314C354.768 155.314 354.586 155.131 354.494 154.949L337.622 117.466C337.44 117.101 337.622 116.736 337.987 116.645C338.352 116.554 338.717 116.645 338.808 116.919L355.498 153.946L396.082 151.939C396.446 151.939 396.72 152.213 396.72 152.578C396.72 152.943 396.446 153.216 396.082 153.216L355.042 155.314Z" fill="#231F20"/>
<path d="M376.018 186.048C375.744 186.048 375.562 185.865 375.471 185.683L360.514 154.766C360.331 154.493 360.514 154.037 360.787 153.945C361.152 153.763 361.517 153.945 361.608 154.219L376.656 185.136C376.839 185.409 376.656 185.865 376.383 185.957C376.291 186.048 376.2 186.048 376.018 186.048Z" fill="#231F20"/>
<path d="M318.288 150.663C317.924 150.663 317.65 150.389 317.65 150.024C317.65 149.659 317.924 149.386 318.288 149.386L352.671 148.656C353.036 148.656 353.309 148.93 353.309 149.295C353.309 149.659 353.036 149.933 352.671 149.933L318.288 150.663Z" fill="#231F20"/>
<path d="M364.618 150.389C363.614 150.754 362.611 150.845 361.608 150.662C360.605 150.48 359.602 150.115 358.781 149.568C358.051 149.112 357.413 148.474 356.957 147.744C356.501 147.014 356.136 146.285 355.954 145.464C355.589 143.731 355.954 141.998 356.957 140.539C357.413 139.81 358.051 139.171 358.781 138.715C359.51 138.259 360.24 137.986 361.061 137.803C362.794 137.53 364.526 137.894 365.986 138.898C366.624 139.354 367.171 139.901 367.627 140.448C368.083 141.086 368.448 141.725 368.631 142.454C369.178 144.552 368.448 146.832 366.715 148.2C366.351 148.474 365.986 148.656 365.621 148.838C365.256 148.93 364.891 149.021 364.527 149.021C364.253 149.021 363.888 149.021 363.615 148.93C363.341 148.838 363.067 148.747 362.794 148.656C362.611 148.565 362.429 148.474 362.247 148.291C361.882 148.109 361.699 147.835 361.517 147.47C361.426 147.197 361.517 147.014 361.608 146.741C361.243 146.832 360.878 146.832 360.514 146.741C360.058 146.65 359.602 146.467 359.237 146.194C358.963 146.011 358.69 145.738 358.507 145.464C358.325 145.19 358.234 144.917 358.234 144.552C358.234 144.187 358.234 143.822 358.325 143.549C358.416 143.184 358.598 142.819 358.872 142.454C359.146 141.998 359.511 141.725 359.875 141.36C360.24 141.086 360.696 140.904 361.152 140.722C362.064 140.448 363.067 140.63 363.888 141.178C364.253 141.36 364.526 141.634 364.709 141.998C364.891 142.272 364.983 142.637 364.891 143.002L365.439 142.454L366.807 143.366L364.344 145.92L363.979 146.285C363.888 146.376 363.706 146.558 363.615 146.65C363.523 146.741 363.432 146.923 363.432 147.106C363.432 147.288 363.523 147.379 363.615 147.47C363.797 147.562 363.979 147.653 364.162 147.653C364.344 147.653 364.618 147.653 364.8 147.562C365.074 147.47 365.347 147.288 365.53 147.106C366.259 146.467 366.806 145.555 367.08 144.552C367.171 144.005 367.171 143.458 367.08 142.91C366.989 142.363 366.715 141.907 366.351 141.451C365.986 140.995 365.53 140.539 364.983 140.174C364.435 139.81 363.797 139.536 363.159 139.354C361.973 139.08 360.696 139.354 359.693 140.083C359.146 140.448 358.69 140.904 358.325 141.451C357.96 141.998 357.595 142.637 357.504 143.366C357.413 144.005 357.413 144.552 357.504 145.19C357.686 145.829 357.96 146.376 358.325 146.923C358.69 147.47 359.237 147.926 359.784 148.382C360.24 148.747 360.878 149.021 361.426 149.203C361.973 149.386 362.52 149.386 363.067 149.386L364.618 150.389ZM363.159 142.546C362.976 142.363 362.702 142.272 362.429 142.272C362.155 142.272 361.973 142.272 361.699 142.363C361.426 142.454 361.243 142.546 361.061 142.728C360.878 142.91 360.696 143.093 360.514 143.366C360.422 143.458 360.423 143.549 360.331 143.731C360.24 143.914 360.149 144.096 360.149 144.278C360.149 144.461 360.149 144.734 360.24 144.917C360.331 145.19 360.514 145.373 360.787 145.555C360.97 145.738 361.243 145.829 361.608 145.829C361.882 145.829 362.064 145.829 362.338 145.738C362.52 145.646 362.794 145.464 362.976 145.373C363.158 145.19 363.341 145.008 363.432 144.826C363.706 144.461 363.797 144.096 363.797 143.731C363.706 143.093 363.523 142.819 363.159 142.546Z" fill="#D1D3D4"/>
<path d="M351.029 176.472C353.583 170.544 345.557 164.981 345.557 164.981C345.557 164.981 355.224 169.906 360.605 167.534C365.986 165.163 345.648 155.496 345.648 155.496C345.648 155.496 337.349 153.125 334.339 160.786C334.339 160.786 332.88 163.339 334.339 167.808" fill="white"/>
<path d="M351.029 177.11C350.938 177.11 350.846 177.11 350.755 177.019C350.39 176.837 350.299 176.472 350.39 176.198C352.762 170.818 345.192 165.528 345.101 165.437C344.827 165.254 344.736 164.89 344.918 164.616C345.101 164.342 345.466 164.251 345.739 164.342C345.83 164.434 355.133 169.085 360.24 166.896C360.787 166.622 360.787 166.44 360.787 166.349C360.787 164.251 351.85 159.144 345.466 156.043C345.283 155.952 337.805 153.946 334.978 160.968C334.978 161.059 333.701 163.522 335.069 167.534C335.16 167.899 334.978 168.264 334.704 168.355C334.339 168.446 333.974 168.264 333.883 167.99C332.333 163.339 333.792 160.603 333.883 160.512C337.075 152.486 345.83 154.949 345.922 154.949C348.749 156.226 362.155 162.792 362.064 166.44C362.064 167.261 361.517 167.899 360.787 168.082C357.322 169.632 352.306 168.355 348.931 167.078C351.12 169.358 353.309 172.915 351.667 176.746C351.576 176.928 351.302 177.11 351.029 177.11Z" fill="#231F20"/>
<path d="M184.862 270.773C184.68 270.773 184.406 270.682 184.315 270.499L150.754 216.418C150.571 216.144 150.571 215.688 150.936 215.506C151.301 215.323 151.666 215.323 151.848 215.688C151.848 215.688 151.848 215.779 151.939 215.779L185.501 269.861C185.683 270.134 185.592 270.59 185.227 270.773C185.136 270.773 184.954 270.773 184.862 270.773Z" fill="#231F20"/>
<path d="M304.061 221.981C303.696 221.981 303.422 221.707 303.422 221.343C303.422 221.251 303.514 221.069 303.514 220.978L330.965 185.501C331.147 185.227 331.603 185.136 331.877 185.319C332.15 185.501 332.242 185.957 332.059 186.231C332.059 186.231 332.059 186.231 332.059 186.322L304.608 221.707C304.517 221.799 304.334 221.89 304.061 221.981Z" fill="#231F20"/>
<defs>
<linearGradient id="paint0_linear_597_850" x1="305.474" y1="182.126" x2="305.474" y2="260.372" gradientUnits="userSpaceOnUse">
<stop stop-color="#68E1FD"/>
<stop offset="1" stop-color="#0D54DB"/>
</linearGradient>
<linearGradient id="paint1_linear_597_850" x1="207.72" y1="171.999" x2="207.72" y2="330" gradientUnits="userSpaceOnUse">
<stop stop-color="#68E1FD"/>
<stop offset="1" stop-color="#0D54DB"/>
</linearGradient>
<linearGradient id="paint2_linear_597_850" x1="166.199" y1="176.388" x2="166.199" y2="294.576" gradientUnits="userSpaceOnUse">
<stop stop-color="#68E1FD"/>
<stop offset="1" stop-color="#0D54DB"/>
</linearGradient>
</defs>
</svg>
