<svg width="382" height="309" viewBox="0 0 382 309" fill="none" xmlns="http://www.w3.org/2000/svg">
<path d="M23.913 204.905C23.6074 204.905 23.3018 204.676 23.3018 204.294C23.3018 203.912 23.531 203.682 23.913 203.682L58.675 201.772C58.9806 201.772 59.2862 202.002 59.2862 202.307C59.2862 202.613 59.057 202.918 58.7514 202.918L23.913 204.905Z" fill="#D1D3D4"/>
<path d="M107.265 311.712C107.189 311.712 107.036 311.712 106.96 311.636C106.731 311.483 106.654 311.101 106.807 310.872L123.844 284.361C123.997 284.132 124.379 284.056 124.608 284.208C124.837 284.361 124.914 284.743 124.761 284.972L107.724 311.483C107.647 311.636 107.495 311.712 107.265 311.712Z" fill="#D1D3D4"/>
<path d="M42.86 268.775C42.5544 268.775 42.3252 268.546 42.3252 268.164C42.3252 267.935 42.4016 267.782 42.6308 267.706L68.5304 253.19C68.836 253.037 69.1416 253.113 69.2944 253.419C69.4472 253.724 69.3708 254.03 69.0652 254.183L43.1656 268.699C43.0128 268.699 42.9364 268.775 42.86 268.775Z" fill="#D1D3D4"/>
<path d="M234.93 67.232C234.854 67.232 234.777 67.232 234.701 67.232C234.395 67.1556 234.242 66.7736 234.319 66.468L240.66 49.4308C240.736 49.1252 241.118 48.9724 241.424 49.0488C241.73 49.1252 241.882 49.5072 241.806 49.8128L235.465 66.85C235.388 67.0792 235.159 67.232 234.93 67.232Z" fill="#D1D3D4"/>
<path d="M330.353 170.219C330.048 170.219 329.818 169.99 329.818 169.608C329.818 169.302 330.048 169.073 330.277 169.073L357.399 164.642C357.704 164.565 358.01 164.794 358.086 165.176C358.163 165.482 357.934 165.788 357.628 165.864L330.506 170.295L330.353 170.219Z" fill="#D1D3D4"/>
<path d="M329.666 282.68C329.513 282.68 329.36 282.604 329.207 282.451L312.17 260.983C311.941 260.754 312.017 260.372 312.247 260.219C312.476 260.066 312.781 260.066 313.011 260.295L330.048 281.764C330.277 281.993 330.201 282.375 329.971 282.604C329.895 282.604 329.742 282.68 329.666 282.68Z" fill="#D1D3D4"/>
<path d="M64.0996 100.237C63.9468 100.237 63.794 100.16 63.7176 100.084L51.4936 89.617C51.2644 89.3878 51.188 89.0822 51.4172 88.7766C51.6464 88.5474 51.952 88.5474 52.1812 88.7002L64.4052 99.167C64.6344 99.3962 64.7108 99.7018 64.4816 100.007C64.4052 100.16 64.2524 100.237 64.0996 100.237Z" fill="#D1D3D4"/>
<path d="M283.75 339.598L285.049 302.468L257.239 298.266L255.558 339.98" fill="white"/>
<path d="M255.558 340.591C255.253 340.591 255.023 340.285 255.023 339.98L256.704 298.265C256.704 297.96 257.01 297.73 257.315 297.73C257.315 297.73 257.315 297.73 257.392 297.73L285.201 301.932C285.507 302.009 285.66 302.238 285.66 302.544L284.437 339.598C284.437 339.903 284.208 340.132 283.903 340.132C283.903 340.132 283.903 340.132 283.826 340.132C283.521 340.132 283.291 339.827 283.291 339.521L284.514 303.002L257.85 298.953L256.169 339.98C256.169 340.285 255.864 340.514 255.558 340.591Z" fill="#231F20"/>
<path d="M148.14 323.554L179.922 285.889L208.419 292.841L172.129 329.895" fill="white"/>
<path d="M172.129 330.43C171.976 330.43 171.824 330.354 171.747 330.278C171.518 330.048 171.518 329.666 171.747 329.437L207.273 293.071L180.151 286.424L148.598 323.86C148.369 324.089 147.987 324.089 147.758 323.936C147.528 323.707 147.528 323.325 147.681 323.096L179.54 285.431C179.693 285.278 179.922 285.202 180.151 285.278L208.572 292.23C208.878 292.307 209.03 292.612 208.954 292.918C208.954 292.994 208.878 293.071 208.801 293.147L172.588 330.201C172.435 330.354 172.282 330.43 172.129 330.43Z" fill="#231F20"/>
<path d="M271.373 133.776C271.373 133.776 228.13 145.618 228.589 147.299C229.047 148.98 237.451 180.151 237.451 180.151L264.344 173.428L271.373 133.776Z" fill="url(#paint0_linear_597_1005)"/>
<path d="M272.29 133.548C272.29 133.548 258.538 137.215 250.134 142.028C241.577 146.918 244.022 198.564 244.022 198.564L306.364 211.094C306.364 211.094 318.206 177.554 317.442 162.274C316.678 146.994 307.128 125.22 272.29 133.548Z" fill="url(#paint1_linear_597_1005)"/>
<path d="M241.195 173.352C241.118 173.352 241.042 173.352 240.966 173.352C240.66 173.199 240.507 172.894 240.66 172.588C244.786 162.58 250.898 147.3 251.05 146.23C251.05 145.925 251.28 145.695 251.585 145.695C251.891 145.695 252.196 146.001 252.196 146.307C252.196 147.223 244.862 165.33 241.73 173.047C241.653 173.199 241.424 173.352 241.195 173.352Z" fill="#231F20"/>
<path d="M276.033 127.206L271.602 140.424C271.602 140.424 271.526 148.293 280.235 147.605C285.43 147.147 290.167 144.396 293.147 140.042L296.814 116.358C295.515 115.212 294.598 113.607 294.446 111.85C294.293 110.551 294.293 109.176 294.522 107.877C294.904 106.12 295.592 104.439 296.432 102.835C292.23 101.994 288.563 100.314 285.66 97.0285C284.972 96.1881 284.361 95.3477 283.75 94.4309C283.444 94.0489 277.943 96.6465 277.332 96.8757C274.658 98.2509 271.984 100.161 270.38 102.758C269.081 104.974 268.622 107.495 268.164 109.94C267.553 113.378 267.171 116.892 267.171 120.33C267.4 127.13 276.033 127.206 276.033 127.206Z" fill="white"/>
<path d="M279.166 148.216C277.103 148.292 275.04 147.605 273.436 146.229C271.908 144.701 271.067 142.562 270.991 140.423C270.991 140.347 270.991 140.27 270.991 140.27L275.193 127.741C272.977 127.511 266.789 126.365 266.712 120.483C266.712 116.968 267.018 113.454 267.706 109.939C268.088 107.571 268.546 104.897 269.998 102.529C271.449 100.16 273.894 98.021 277.179 96.4166C283.673 93.2078 284.055 93.819 284.284 94.1246C284.819 94.965 285.43 95.8054 286.118 96.6458C288.716 99.549 292.001 101.306 296.585 102.223C296.89 102.299 297.12 102.605 297.043 102.911C297.043 102.987 297.043 102.987 296.967 103.063C296.126 104.591 295.515 106.196 295.057 107.953C294.828 109.175 294.751 110.474 294.98 111.697C295.133 113.301 295.897 114.829 297.12 115.899C297.272 116.051 297.349 116.204 297.349 116.433L293.682 140.117C293.682 140.194 293.682 140.27 293.605 140.347C290.626 144.854 285.736 147.757 280.312 148.292C279.93 148.216 279.548 148.216 279.166 148.216ZM272.213 140.499C272.29 142.333 272.977 144.09 274.276 145.389C275.651 146.688 277.638 147.223 280.235 146.993C285.201 146.535 289.785 143.937 292.612 139.812L296.203 116.586C294.904 115.364 294.064 113.683 293.911 111.926C293.682 110.551 293.758 109.175 293.987 107.8C294.369 106.272 294.904 104.744 295.668 103.293C291.237 102.299 287.875 100.389 285.278 97.4862C284.666 96.7222 284.055 95.8818 283.52 95.1178C281.534 95.8054 279.624 96.6458 277.714 97.5626C275.575 98.6322 272.672 100.466 270.991 103.216C269.692 105.355 269.31 107.877 268.852 110.245C268.24 113.683 267.858 117.121 267.858 120.559C267.935 126.595 275.651 126.747 276.033 126.747C276.339 126.747 276.568 126.977 276.568 127.359C276.568 127.435 276.568 127.511 276.568 127.511L272.213 140.499Z" fill="#231F20"/>
<path d="M292.23 114.218C292.612 113.225 293.376 112.461 294.216 111.926C295.057 111.467 296.05 111.162 296.967 111.085C297.501 110.933 298.036 110.933 298.571 111.085C298.953 111.238 299.259 111.391 299.564 111.62C300.252 112.155 300.787 112.843 301.016 113.683C301.092 114.371 301.016 115.135 300.787 115.822C300.557 116.586 300.252 117.274 299.87 117.961C298.189 120.712 294.522 121.552 291.848 119.795C291.848 119.795 291.771 119.795 291.771 119.719" fill="white"/>
<path d="M294.904 121.247C293.682 121.247 292.459 120.865 291.39 120.178C291.16 120.025 291.084 119.643 291.237 119.414C291.39 119.184 291.772 119.108 292.001 119.261C294.446 120.865 297.731 120.178 299.335 117.733C299.335 117.733 299.335 117.656 299.412 117.656C299.794 117.045 300.099 116.358 300.252 115.67C300.481 115.059 300.558 114.448 300.481 113.836C300.252 113.149 299.87 112.461 299.259 112.079C299.03 111.85 298.8 111.774 298.495 111.621C298.036 111.544 297.578 111.544 297.196 111.697C296.279 111.85 295.439 112.079 294.598 112.538C293.834 112.996 293.147 113.684 292.841 114.524C292.688 114.83 292.383 114.982 292.077 114.83C291.772 114.677 291.619 114.371 291.772 114.066C292.23 112.996 293.07 112.079 294.064 111.468C294.98 111.01 295.974 110.628 297.043 110.551C297.654 110.398 298.266 110.398 298.877 110.551C299.335 110.704 299.717 110.933 300.023 111.162C300.863 111.774 301.474 112.614 301.704 113.607C301.78 114.371 301.704 115.212 301.474 115.976C301.245 116.816 300.94 117.58 300.481 118.268C299.182 120.101 297.12 121.247 294.904 121.247Z" fill="#231F20"/>
<path d="M273.817 134.235C277.026 134.541 280.235 133.7 282.909 131.943C287.187 128.964 287.417 125.144 287.417 125.144C283.826 126.748 280.006 127.436 276.109 127.283L273.817 134.235Z" fill="#231F20"/>
<path d="M275.116 134.846C274.658 134.846 274.199 134.846 273.741 134.77C273.588 134.77 273.435 134.617 273.359 134.541C273.283 134.388 273.283 134.235 273.283 134.082L275.498 127.13C275.575 126.901 275.804 126.748 276.11 126.748C279.93 126.901 283.673 126.213 287.111 124.685C287.264 124.609 287.493 124.609 287.722 124.685C287.875 124.762 288.028 124.991 287.952 125.22C287.952 125.373 287.646 129.346 283.215 132.402C280.846 134.006 278.02 134.846 275.116 134.846ZM274.582 133.7C277.408 133.853 280.235 133.013 282.604 131.485C284.514 130.262 285.965 128.352 286.653 126.137C283.444 127.359 280.006 127.97 276.492 127.894L274.582 133.7Z" fill="#231F20"/>
<path d="M281.916 104.592C281.916 104.592 276.262 110.245 277.103 111.621C277.943 112.996 280.999 112.767 280.999 112.767" fill="white"/>
<path d="M280.541 113.302C279.548 113.302 277.409 113.149 276.568 111.85C275.651 110.322 279.242 106.349 281.458 104.134C281.687 103.905 282.069 103.905 282.298 104.134C282.527 104.363 282.527 104.745 282.298 104.898C279.624 107.648 277.332 110.551 277.561 111.239C278.02 112.003 279.853 112.156 280.923 112.079C281.229 112.079 281.534 112.309 281.534 112.614C281.534 112.92 281.305 113.225 280.999 113.225L280.541 113.302Z" fill="#231F20"/>
<path d="M273.283 115.975L284.208 115.822C284.208 115.822 283.749 123.233 277.332 123.615C270.914 123.997 273.283 115.975 273.283 115.975Z" fill="#231F20"/>
<path d="M284.514 104.591C284.819 103.98 285.43 103.522 286.118 103.445C287.34 103.216 288.028 104.668 288.028 104.668" fill="white"/>
<path d="M287.952 105.279C287.723 105.279 287.493 105.126 287.417 104.973C287.417 104.973 286.959 103.904 286.118 104.056C285.66 104.133 285.201 104.362 284.972 104.82C284.896 105.126 284.514 105.279 284.208 105.202C283.903 105.126 283.75 104.82 283.826 104.515C284.208 103.674 284.972 103.063 285.889 102.987C286.959 102.91 288.028 103.522 288.41 104.591C288.563 104.897 288.41 105.202 288.105 105.355C288.105 105.202 288.028 105.279 287.952 105.279Z" fill="#231F20"/>
<path d="M274.353 103.598C274.658 102.987 275.269 102.529 275.957 102.452C277.179 102.223 277.867 103.675 277.867 103.675" fill="white"/>
<path d="M277.867 104.286C277.638 104.286 277.408 104.133 277.332 103.98C277.332 103.98 276.874 102.911 276.033 103.063C275.575 103.14 275.116 103.369 274.887 103.827C274.811 104.133 274.429 104.286 274.123 104.209C273.818 104.133 273.665 103.827 273.741 103.522C274.123 102.681 274.887 102.07 275.728 101.994C276.797 101.917 277.867 102.529 278.249 103.598C278.402 103.904 278.249 104.209 277.943 104.362C278.02 104.286 277.943 104.286 277.867 104.286Z" fill="#231F20"/>
<path d="M305.142 210.329L296.203 329.437L147.758 299.106L246.39 197.876L305.142 210.329Z" fill="#231F20"/>
<path d="M241.195 122.927L66.8501 151.959L143.556 74.0312L241.195 122.927Z" fill="#231F20"/>
<path d="M66.85 152.571C66.6208 152.571 66.468 152.418 66.3152 152.266C66.1624 152.036 66.2388 151.807 66.3916 151.578L143.097 73.6499C143.25 73.4971 143.556 73.4207 143.785 73.5735L241.424 122.47C241.653 122.546 241.806 122.852 241.73 123.081C241.73 123.31 241.5 123.539 241.271 123.539L66.9264 152.571H66.85ZM143.708 74.7195L68.5308 151.12L239.438 122.622L143.708 74.7195Z" fill="#231F20"/>
<path d="M257.315 239.896L92.8259 269.463L67.0791 153.029L241.347 123.921L257.315 239.896Z" fill="#231F20"/>
<path d="M92.826 269.997C92.5204 269.997 92.2912 269.845 92.2912 269.539L66.5444 153.105C66.5444 152.953 66.5444 152.8 66.6208 152.647C66.6972 152.494 66.85 152.418 67.0028 152.418L241.271 123.386C241.424 123.386 241.577 123.386 241.73 123.462C241.882 123.539 241.959 123.691 241.959 123.844L257.926 239.743C258.003 240.049 257.774 240.354 257.468 240.354L92.9788 269.921L92.826 269.997ZM67.7668 153.487L93.2844 268.851L256.704 239.437L240.889 124.608L67.7668 153.487Z" fill="#231F20"/>
<path d="M106.654 230.881C106.654 230.881 76.3236 137.367 61.8076 108.947L224.158 64.7109L234.242 209.413L106.654 230.881Z" fill="url(#paint2_linear_597_1005)"/>
<path d="M90.2284 125.373C89.9228 125.373 89.6172 125.144 89.6172 124.838C89.6172 124.532 89.77 124.303 90.0756 124.303L209.489 93.3613C209.794 93.2849 210.1 93.4377 210.176 93.7433C210.253 94.0489 210.1 94.3545 209.794 94.4309L90.3812 125.373C90.3048 125.373 90.3048 125.373 90.2284 125.373Z" fill="white"/>
<path d="M95.2708 144.931C94.9652 144.931 94.736 144.778 94.736 144.472C94.6596 144.167 94.8888 143.861 95.1944 143.785L210.788 117.885C211.093 117.809 211.399 118.038 211.475 118.343C211.552 118.649 211.322 118.955 211.017 119.031L95.4236 144.931H95.2708Z" fill="white"/>
<path d="M105.203 163.267C104.897 163.267 104.592 163.038 104.592 162.732C104.592 162.426 104.821 162.197 105.05 162.121L215.601 140.653C215.907 140.576 216.212 140.805 216.289 141.111C216.365 141.416 216.136 141.646 215.83 141.722L105.279 163.191L105.203 163.267Z" fill="white"/>
<path d="M110.474 186.645C110.169 186.645 109.94 186.416 109.94 186.187C109.863 185.881 110.092 185.576 110.398 185.499L215.295 168.462C215.601 168.386 215.906 168.615 215.983 168.92C216.059 169.226 215.83 169.532 215.524 169.608L110.627 186.645H110.474Z" fill="white"/>
<path d="M165.711 198.029L67.0791 153.029L92.8259 269.463L257.315 239.896L241.347 123.921L165.711 198.029Z" fill="white"/>
<path d="M92.8262 269.998C92.5206 269.998 92.2914 269.845 92.2914 269.539L66.5446 153.106C66.4682 152.8 66.6974 152.495 67.003 152.418C67.0794 152.418 67.2322 152.418 67.3086 152.418L165.559 197.341L240.889 123.539C241.119 123.31 241.501 123.31 241.653 123.539C241.73 123.615 241.806 123.768 241.806 123.845L257.774 239.743C257.85 240.049 257.621 240.355 257.315 240.355L92.9026 269.921L92.8262 269.998ZM67.9198 154.023L93.2846 268.852L256.704 239.438L240.966 125.143L166.17 198.411C166.017 198.564 165.712 198.64 165.559 198.487L67.9198 154.023Z" fill="#231F20"/>
<path d="M257.315 239.896L92.9023 269.463L165.712 198.029L257.315 239.896Z" fill="white"/>
<path d="M92.9025 269.998C92.5969 269.998 92.3677 269.769 92.3677 269.387C92.3677 269.234 92.4441 269.081 92.5205 269.005L165.406 197.571C165.559 197.418 165.864 197.342 166.017 197.494L257.621 239.285C257.926 239.438 258.003 239.744 257.926 240.049C257.85 240.202 257.697 240.355 257.544 240.355L93.0553 269.922L92.9025 269.998ZM165.864 198.717L94.5833 268.546L255.405 239.591L165.864 198.717Z" fill="#231F20"/>
<path d="M257.315 239.896L92.9023 269.463L165.712 198.029L257.315 239.896Z" fill="white"/>
<path d="M92.9025 269.998C92.5969 269.998 92.3677 269.769 92.3677 269.387C92.3677 269.234 92.4441 269.081 92.5205 269.005L165.406 197.571C165.559 197.418 165.864 197.342 166.017 197.494L257.621 239.285C257.926 239.438 258.003 239.744 257.926 240.049C257.85 240.202 257.697 240.355 257.544 240.355L93.0553 269.922L92.9025 269.998ZM165.864 198.717L94.5833 268.546L255.405 239.591L165.864 198.717Z" fill="#231F20"/>
<path d="M299.03 152.877C299.03 152.877 211.857 197.113 198.564 199.634C185.27 202.155 169.532 197.724 170.143 201.544C170.754 205.364 178.394 207.197 178.394 207.197C178.394 207.197 154.404 211.017 155.627 213.539C156.849 216.06 172.664 212.927 172.664 212.927C172.664 212.927 153.106 218.581 157.46 221.179C161.815 223.776 175.796 218.046 175.796 218.046C175.796 218.046 154.939 228.742 160.669 229.43C166.399 230.117 176.484 224.387 176.484 224.387C176.484 224.387 160.669 232.639 167.01 233.25C173.352 233.861 267.476 200.398 299.03 181.451" fill="white"/>
<path d="M167.163 233.708H166.934C165.712 233.555 165.1 233.173 164.948 232.485C164.795 231.492 166.17 230.117 168.08 228.665C165.482 229.506 162.808 230.117 160.593 229.888C159.752 229.811 159.218 229.429 159.141 228.894C158.836 227.214 164.336 223.699 169.379 220.796C165.024 222.018 159.752 223.088 157.231 221.636C156.62 221.407 156.238 220.796 156.314 220.108C156.544 218.351 161.051 216.288 165.406 214.684C160.822 215.219 155.932 215.448 155.168 213.767C155.016 213.462 155.016 213.08 155.168 212.85C156.314 210.558 169.837 208.114 175.949 207.044C173.581 206.127 170.066 204.37 169.608 201.62C169.532 201.161 169.684 200.626 169.99 200.321C171.06 199.098 174.574 199.251 179.769 199.557C185.27 199.862 192.146 200.244 198.487 199.098C211.552 196.654 297.884 152.8 298.8 152.418C299.106 152.265 299.412 152.418 299.564 152.647C299.717 152.953 299.564 153.258 299.335 153.411C295.744 155.245 211.934 197.723 198.716 200.244C192.222 201.467 185.27 201.085 179.693 200.779C175.491 200.55 171.594 200.321 170.83 201.161C170.754 201.238 170.754 201.39 170.754 201.543C171.212 204.37 176.56 206.28 178.547 206.738C178.852 206.815 179.082 207.12 179.005 207.426C178.929 207.655 178.776 207.808 178.547 207.884C168.309 209.489 157.002 212.086 156.238 213.462C157.002 214.608 164.26 214.149 172.664 212.468C172.97 212.392 173.275 212.545 173.352 212.85C173.428 213.156 173.275 213.462 172.97 213.538C165.712 215.677 157.766 218.81 157.537 220.338C157.537 220.49 157.766 220.643 157.919 220.72C161.357 222.706 171.976 219.115 175.72 217.511C176.026 217.358 176.331 217.511 176.484 217.816C176.637 218.122 176.484 218.428 176.178 218.58C168.691 222.4 160.593 227.366 160.364 228.742C160.516 228.818 160.669 228.818 160.822 228.818C165.1 229.276 172.053 225.991 174.956 224.54L176.255 223.852C176.56 223.699 176.866 223.852 177.019 224.081C177.172 224.387 177.095 224.692 176.79 224.845C176.713 224.922 176.178 225.227 175.338 225.609C169.684 228.665 165.864 231.645 166.094 232.332C166.094 232.332 166.246 232.562 167.087 232.638C169.837 232.867 193.063 225.533 223.394 214.149C239.667 208.037 279.471 192.528 298.8 180.915C299.106 180.762 299.412 180.839 299.564 181.144C299.717 181.45 299.641 181.756 299.335 181.908C268.852 200.092 176.026 233.708 167.163 233.708Z" fill="#231F20"/>
<path d="M282.909 190.313C282.909 190.313 269.463 158.759 270.685 158.301C271.907 157.843 297.654 141.035 299.717 142.257C301.78 143.479 309.802 167.927 307.281 175.109C304.759 182.291 282.909 190.313 282.909 190.313Z" fill="url(#paint3_linear_597_1005)"/>
<path d="M286.271 190.389C286.042 190.389 285.813 190.236 285.736 190.007C285.66 189.701 285.813 189.396 286.118 189.319C286.271 189.243 304.989 182.902 312.4 173.505C312.629 173.275 313.011 173.352 313.24 173.581C313.393 173.734 313.393 173.963 313.317 174.192C305.677 183.895 287.264 190.16 286.5 190.389C286.347 190.389 286.347 190.389 286.271 190.389Z" fill="#231F20"/>
<path d="M301.245 121.782C300.94 121.782 300.71 121.477 300.71 121.171C300.71 120.942 300.863 120.713 301.092 120.636C305.371 119.337 308.809 116.205 310.413 112.156C312.094 108.03 312.476 103.523 311.559 99.1677C310.948 94.9657 309.114 90.9929 306.288 87.7841C303.232 84.5753 298.953 82.8181 295.133 83.2765L294.293 83.3529C293.682 83.4293 293.07 83.5057 292.459 83.5057C291.695 83.5057 290.931 83.3529 290.167 83.2001L289.709 83.1237C276.721 80.5261 264.115 88.9301 261.517 101.918C260.83 105.356 260.906 108.947 261.746 112.385C262.052 113.455 262.663 115.288 264.038 115.441C264.344 115.441 264.573 115.67 264.573 116.052C264.573 116.434 264.344 116.587 263.962 116.587C263.886 116.587 263.886 116.587 263.809 116.587C262.281 116.434 261.135 114.983 260.524 112.691C257.162 99.2441 265.414 85.6449 278.86 82.2833C282.451 81.3665 286.194 81.2901 289.862 82.0541L290.32 82.1305C291.542 82.5125 292.841 82.5125 294.064 82.2833C294.369 82.2069 294.675 82.2069 294.904 82.1305C299.182 81.6721 303.766 83.5057 307.052 87.0201C310.031 90.3817 311.941 94.5073 312.629 98.9385C313.546 103.523 313.164 108.259 311.406 112.614C309.42 117.198 305.676 120.636 301.322 121.782H301.245Z" fill="#231F20"/>
<path d="M292.459 82.9701C292.459 82.9701 298.265 78.6153 307.739 80.9837C317.213 83.3521 320.803 100.542 311.941 109.863C311.941 109.863 313.316 84.5745 292.459 82.9701Z" fill="#231F20"/>
<path d="M326.151 137.138C321.185 136.679 316.907 135.075 313.775 132.477C310.107 129.421 307.968 124.914 308.197 120.635C308.197 120.33 308.503 120.101 308.809 120.101C309.114 120.101 309.343 120.406 309.343 120.712C309.114 124.608 311.101 128.81 314.539 131.561C317.289 133.7 320.574 135.151 324.012 135.686C323.095 134.617 322.484 133.318 322.255 131.866C322.102 129.727 322.408 127.588 323.248 125.601C324.623 122.24 326.228 119.031 328.138 115.975C330.965 111.238 333.562 106.731 334.173 101.459C335.319 91.2214 327.985 81.977 317.747 80.831C315.379 80.6018 313.087 80.7546 310.795 81.3658C310.489 81.4422 310.184 81.2894 310.107 80.9838C310.031 80.6782 310.184 80.3726 310.489 80.2962C321.033 77.393 331.881 83.6578 334.785 94.201C335.472 96.6458 335.625 99.0906 335.319 101.612C334.708 107.113 331.881 111.926 329.131 116.586C327.221 119.566 325.617 122.775 324.318 126.06C323.554 127.817 323.248 129.803 323.401 131.713C323.554 133.547 324.7 135.228 326.381 135.992C326.686 136.145 326.839 136.45 326.686 136.756C326.61 136.985 326.381 137.138 326.151 137.138Z" fill="#231F20"/>
<path d="M274.734 162.962C274.429 162.962 274.123 162.733 274.123 162.427C274.123 162.198 274.199 162.045 274.429 161.969L297.501 147.758C297.731 147.605 298.113 147.682 298.265 147.911C298.418 148.14 298.342 148.522 298.113 148.675L275.04 162.885C274.963 162.885 274.811 162.962 274.734 162.962Z" fill="#231F20"/>
<path d="M278.86 230.193C278.784 230.193 278.707 230.193 278.554 230.117C278.325 229.964 278.172 229.659 278.325 229.353L290.549 207.044C290.702 206.815 290.931 206.662 291.237 206.739C291.466 206.815 291.695 207.044 291.695 207.273V227.061C291.695 227.367 291.466 227.672 291.084 227.672C290.702 227.672 290.473 227.443 290.473 227.061V209.489L279.318 229.811C279.242 230.117 279.089 230.193 278.86 230.193Z" fill="white"/>
<path d="M245.855 79.3789C245.855 79.3789 243.487 88.3941 235.923 88.5469C235.923 88.5469 243.869 90.7625 245.55 98.2497C245.55 98.2497 247.689 91.4501 254.794 89.6165C254.794 89.6929 248.377 87.4773 245.855 79.3789Z" fill="white"/>
<path d="M29.0322 147.604C29.0322 147.604 35.0678 156.237 29.7198 162.884C29.7198 162.884 37.4362 157.613 45.1526 161.662C45.1526 161.662 40.7978 154.862 44.3886 147.375C44.3886 147.375 37.8946 151.348 29.0322 147.604Z" fill="white"/>
<path d="M83.0469 77.3164C83.0469 77.3164 84.3457 92.3672 72.8857 96.722C72.8857 96.722 86.2557 95.8052 92.8261 106.272C92.8261 106.272 92.3677 94.7356 102.147 88.0888C102.223 88.0888 91.2981 88.318 83.0469 77.3164Z" fill="white"/>
<defs>
<linearGradient id="paint0_linear_597_1005" x1="249.979" y1="133.776" x2="249.979" y2="180.151" gradientUnits="userSpaceOnUse">
<stop stop-color="#68E1FD"/>
<stop offset="1" stop-color="#0D54DB"/>
</linearGradient>
<linearGradient id="paint1_linear_597_1005" x1="280.588" y1="131.708" x2="280.588" y2="211.094" gradientUnits="userSpaceOnUse">
<stop stop-color="#68E1FD"/>
<stop offset="1" stop-color="#0D54DB"/>
</linearGradient>
<linearGradient id="paint2_linear_597_1005" x1="148.025" y1="64.7109" x2="148.025" y2="230.881" gradientUnits="userSpaceOnUse">
<stop stop-color="#68E1FD"/>
<stop offset="1" stop-color="#0D54DB"/>
</linearGradient>
<linearGradient id="paint3_linear_597_1005" x1="289.186" y1="142.193" x2="289.186" y2="190.313" gradientUnits="userSpaceOnUse">
<stop stop-color="#68E1FD"/>
<stop offset="1" stop-color="#0D54DB"/>
</linearGradient>
</defs>
</svg>
