<svg width="448" height="340" viewBox="0 0 448 340" fill="none" xmlns="http://www.w3.org/2000/svg">
<path d="M411.801 163.968H237.888V350.425H411.801V163.968Z" fill="white"/>
<path d="M411.712 351.053H237.888C237.53 351.053 237.261 350.784 237.261 350.426V163.968C237.261 163.61 237.53 163.341 237.888 163.341H411.802C412.16 163.341 412.429 163.61 412.429 163.968V350.426C412.339 350.784 412.07 351.053 411.712 351.053ZM238.515 349.798H411.174V164.595H238.515V349.798Z" fill="#231F20"/>
<path d="M411.801 163.968H237.888V184.665H411.801V163.968Z" fill="white"/>
<path d="M411.712 185.203H237.888C237.53 185.203 237.261 184.934 237.261 184.576V163.968C237.261 163.61 237.53 163.341 237.888 163.341H411.802C412.16 163.341 412.429 163.61 412.429 163.968V184.576C412.429 184.934 412.07 185.203 411.712 185.203C411.802 185.203 411.802 185.203 411.712 185.203ZM238.515 183.949H411.174V164.506H238.515V183.949Z" fill="#231F20"/>
<path d="M247.117 176.602C248.601 176.602 249.805 175.398 249.805 173.914C249.805 172.429 248.601 171.226 247.117 171.226C245.632 171.226 244.429 172.429 244.429 173.914C244.429 175.398 245.632 176.602 247.117 176.602Z" fill="url(#paint0_linear_597_1081)"/>
<path d="M256.704 176.602C258.189 176.602 259.392 175.398 259.392 173.914C259.392 172.429 258.189 171.226 256.704 171.226C255.22 171.226 254.016 172.429 254.016 173.914C254.016 175.398 255.22 176.602 256.704 176.602Z" fill="#D1D3D4"/>
<path d="M266.202 176.602C267.686 176.602 268.89 175.398 268.89 173.914C268.89 172.429 267.686 171.226 266.202 171.226C264.717 171.226 263.514 172.429 263.514 173.914C263.514 175.398 264.717 176.602 266.202 176.602Z" fill="#D1D3D4"/>
<path d="M391.731 302.221H369.51C369.152 302.221 368.883 301.952 368.883 301.594C368.883 301.235 369.152 300.966 369.51 300.966H391.731C392.09 300.966 392.358 301.235 392.358 301.594C392.358 301.862 392.09 302.221 391.731 302.221Z" fill="#D1D3D4"/>
<path d="M383.488 315.392H369.51C369.152 315.392 368.883 315.123 368.883 314.765C368.883 314.406 369.152 314.138 369.51 314.138H383.488C383.846 314.138 384.115 314.406 384.115 314.765C384.115 315.123 383.846 315.392 383.488 315.392Z" fill="#D1D3D4"/>
<path d="M389.939 336.448H373.184C370.854 336.448 368.883 334.566 368.883 332.147V329.459C368.883 327.129 370.765 325.158 373.184 325.158H389.939C392.269 325.158 394.24 327.04 394.24 329.459V332.147C394.24 334.477 392.269 336.448 389.939 336.448ZM373.184 326.323C371.482 326.323 370.138 327.667 370.138 329.369V332.057C370.138 333.76 371.482 335.104 373.184 335.104H389.939C391.642 335.104 392.986 333.76 392.986 332.057V329.369C392.986 327.667 391.642 326.323 389.939 326.323H373.184Z" fill="#D1D3D4"/>
<path d="M313.869 265.843C313.869 265.843 275.072 271.399 269.875 265.843C264.678 260.288 252.762 228.749 252.762 228.749L238.874 240.128C238.874 240.128 249.267 299.264 266.829 298.906C284.39 298.547 323.814 284.122 323.814 284.122L313.869 265.843Z" fill="white"/>
<path d="M266.739 299.533C248.909 299.533 238.784 242.637 238.336 240.218C238.336 240.038 238.336 239.77 238.515 239.59L252.314 228.211C252.493 228.122 252.672 228.032 252.851 228.122C253.03 228.211 253.21 228.301 253.299 228.48C253.389 228.838 265.216 260.019 270.323 265.395C274.445 269.696 303.027 266.739 313.779 265.216C314.048 265.216 314.317 265.306 314.406 265.574L324.352 283.942C324.531 284.211 324.442 284.659 324.083 284.838H323.994C323.635 285.018 284.301 299.354 266.829 299.622L266.739 299.533ZM239.59 240.397C240.486 245.325 250.611 298.278 266.65 298.278H266.739C282.778 298.01 317.453 285.734 322.829 283.853L313.421 266.56C311.45 266.829 302.758 267.994 293.798 268.531C279.91 269.427 271.667 268.71 269.338 266.291C264.499 261.184 254.374 234.931 252.403 229.824L239.59 240.397Z" fill="#231F20"/>
<path d="M209.81 97.3032H36.4888V362.86H209.81V97.3032Z" fill="white"/>
<path d="M210.106 345.629H36.1029C35.7442 345.629 35.4751 345.273 35.4751 344.799V98.133C35.4751 97.6588 35.7442 97.3032 36.1029 97.3032H210.196C210.554 97.3032 210.824 97.6588 210.824 98.133V344.799C210.734 345.273 210.465 345.629 210.106 345.629ZM36.6411 343.97H209.478V98.9627H36.7308L36.6411 343.97Z" fill="#231F20"/>
<path d="M210.202 97.5742H36.2881V118.272H210.202V97.5742Z" fill="white"/>
<path d="M210.112 118.809H36.2878C35.9294 118.809 35.6606 118.541 35.6606 118.182V97.4846C35.6606 97.1262 35.9294 96.8574 36.2878 96.8574H210.201C210.56 96.8574 210.829 97.1262 210.829 97.4846V118.093C210.739 118.541 210.47 118.809 210.112 118.809ZM36.8254 117.555H209.485V98.1118H36.915L36.8254 117.555Z" fill="#231F20"/>
<path d="M45.5166 110.208C47.0012 110.208 48.2046 109.005 48.2046 107.52C48.2046 106.035 47.0012 104.832 45.5166 104.832C44.0321 104.832 42.8286 106.035 42.8286 107.52C42.8286 109.005 44.0321 110.208 45.5166 110.208Z" fill="url(#paint1_linear_597_1081)"/>
<path d="M55.0142 110.208C56.4987 110.208 57.7022 109.005 57.7022 107.52C57.7022 106.035 56.4987 104.832 55.0142 104.832C53.5296 104.832 52.3262 106.035 52.3262 107.52C52.3262 109.005 53.5296 110.208 55.0142 110.208Z" fill="#D1D3D4"/>
<path d="M64.6016 110.208C66.0861 110.208 67.2896 109.005 67.2896 107.52C67.2896 106.035 66.0861 104.832 64.6016 104.832C63.117 104.832 61.9136 106.035 61.9136 107.52C61.9136 109.005 63.117 110.208 64.6016 110.208Z" fill="#D1D3D4"/>
<path d="M86.8224 139.776H55.0144C54.656 139.776 54.3872 139.507 54.3872 139.149C54.3872 138.79 54.656 138.521 55.0144 138.521H86.8224C87.1808 138.521 87.4496 138.79 87.4496 139.149C87.4496 139.507 87.1808 139.776 86.8224 139.776Z" fill="#D1D3D4"/>
<path d="M70.9632 157.696H55.0144C54.656 157.696 54.3872 157.427 54.3872 157.069C54.3872 156.71 54.656 156.441 55.0144 156.441H70.9632C71.3216 156.441 71.5904 156.71 71.5904 157.069C71.5904 157.427 71.3216 157.696 70.9632 157.696Z" fill="#D1D3D4"/>
<path d="M62.9886 189.235C57.6126 189.235 53.2222 184.845 53.2222 179.469C53.2222 174.093 57.6126 169.792 62.899 169.792C68.275 169.792 72.6654 174.182 72.6654 179.469C72.6654 184.934 68.3646 189.235 62.9886 189.235ZM62.9886 171.046C58.3294 171.046 54.4766 174.81 54.4766 179.469C54.4766 184.128 58.2398 187.891 62.899 187.891C67.5582 187.891 71.411 184.128 71.411 179.469C71.5006 174.899 67.6478 171.046 62.9886 171.046Z" fill="#D1D3D4"/>
<path d="M62.9886 182.784C62.7198 182.784 62.6302 182.694 62.451 182.515L58.7774 177.498C58.5982 177.229 58.5982 176.781 58.9566 176.602C59.2254 176.422 59.6734 176.422 59.8526 176.691L63.0782 181.082L75.8014 168.538C76.0702 168.269 76.4286 168.269 76.6974 168.538C76.9662 168.806 76.9662 169.165 76.6974 169.434L63.4366 182.515C63.347 182.694 63.1678 182.784 62.9886 182.784Z" fill="#D1D3D4"/>
<path d="M79.5658 262.009L78.0454 343.602H144.941L142.914 279.24L79.5658 262.009Z" fill="#231F20"/>
<path d="M145.302 345.629H78.6748C78.495 345.629 78.3152 345.299 78.2252 344.969C78.1353 344.309 78.0454 343.65 78.0454 342.99L82.1815 264.495C82.2714 263.175 82.5412 262.516 82.9008 262.516L141.795 301.104C142.065 301.104 142.245 301.764 142.245 302.753L145.932 342.66C146.021 343.98 145.842 345.299 145.572 345.629C145.392 345.629 145.392 345.629 145.302 345.629ZM79.3941 341.011H144.403L141.166 305.391L83.2605 267.463L79.3941 341.011Z" fill="#231F20"/>
<path d="M167.194 202.406L204.826 247.744L188.25 254.553L147.93 211.635L167.194 202.406Z" fill="white"/>
<path d="M188.25 255.181C188.071 255.181 187.892 255.091 187.802 255.001L147.482 212.083C147.303 211.904 147.303 211.725 147.303 211.545C147.303 211.366 147.482 211.187 147.661 211.097L166.925 201.869C167.194 201.779 167.463 201.779 167.642 202.048L205.274 247.385C205.364 247.565 205.453 247.744 205.364 247.923C205.274 248.102 205.184 248.281 205.005 248.371L188.429 255.181C188.429 255.181 188.34 255.181 188.25 255.181ZM148.916 211.814L188.34 253.837L203.751 247.565L166.925 203.213L148.916 211.814Z" fill="#231F20"/>
<path d="M155.815 178.752L174.9 203.661L148.916 217.907L155.815 178.752Z" fill="url(#paint2_linear_597_1081)"/>
<path d="M155.815 178.752C154.202 176.153 118.093 164.864 106.176 173.197C94.2596 181.529 81.7156 246.221 78.4004 266.201L150.708 284.838C150.708 284.838 164.596 192.998 155.815 178.752Z" fill="url(#paint3_linear_597_1081)"/>
<path d="M154.381 268.621C153.933 268.621 153.754 268.262 153.754 267.904C153.844 267.366 160.205 211.456 158.144 197.478C158.055 197.12 158.324 196.851 158.682 196.762C159.04 196.672 159.309 196.941 159.399 197.299C161.459 211.456 155.277 265.754 155.008 268.083C154.919 268.442 154.65 268.621 154.381 268.621Z" fill="#231F20"/>
<path d="M135.834 163.161C131.891 161.817 128.307 160.115 125.44 156.8C124.096 155.456 123.29 153.753 122.931 151.961C122.752 150.08 123.648 148.019 125.44 147.481C123.738 146.316 122.663 144.435 122.663 142.284C122.663 140.224 123.2 138.252 124.186 136.46C125.44 134.131 127.501 131.891 130.189 131.801C129.203 129.74 128.307 127.411 129.203 125.35C129.741 124.364 130.547 123.468 131.443 122.841C133.235 121.497 135.117 120.243 137.088 119.257C138.163 118.72 139.507 118.272 140.493 118.988C141.658 114.777 145.152 111.552 149.543 110.745C151.603 110.297 153.843 110.566 155.725 111.552C156.352 111.82 161.011 115.942 160.743 115.942C163.789 115.046 168.717 115.852 170.957 118.182C172.928 120.332 173.645 123.289 172.749 126.067C174.989 127.321 176.871 129.024 178.394 131.084C179.917 133.145 180.365 135.833 179.648 138.342C178.842 140.761 176.423 142.643 173.914 142.284C176.064 144.524 176.154 148.019 174.183 150.348C172.122 152.588 168.986 153.395 166.119 152.32C165.76 152.14 165.312 152.051 164.954 152.051C164.506 152.23 164.058 152.499 163.699 152.857C162.355 153.843 160.832 153.484 159.399 154.112C157.517 154.918 155.725 156.71 154.023 157.785C152.32 158.95 150.528 160.025 148.647 161.011C146.586 162.086 144.704 163.788 142.375 164.505C140.403 165.132 139.239 164.236 137.357 163.609L135.834 163.161Z" fill="white"/>
<path d="M140.941 165.312C140.045 165.312 139.059 165.043 138.253 164.685C137.894 164.505 137.446 164.416 136.998 164.237L135.565 163.789C132.16 162.624 128.218 160.921 124.902 157.248C123.469 155.814 122.573 154.022 122.304 152.051C122.125 150.259 122.842 148.467 124.275 147.392C122.931 146.048 122.035 144.256 122.035 142.374C122.035 140.224 122.573 138.073 123.648 136.192C124.365 134.848 126.246 131.891 129.203 131.353C128.307 129.382 127.68 127.142 128.576 125.171C129.203 124.096 130.01 123.2 130.995 122.483C132.787 121.049 134.669 119.885 136.73 118.809C137.715 118.182 138.88 118.003 139.955 118.182C141.389 114.061 144.973 111.014 149.274 110.208C151.514 109.76 153.843 110.118 155.904 111.104C157.696 112.448 159.309 113.881 160.922 115.405C164.058 114.688 168.986 115.494 171.405 117.913C173.466 120.064 174.272 123.11 173.466 125.977C175.616 127.232 177.408 128.934 178.842 130.905C180.454 133.145 180.902 136.013 180.186 138.701C179.469 140.941 177.498 142.643 175.168 143.091C176.691 145.6 176.422 148.646 174.63 150.886C172.39 153.305 168.986 154.201 165.85 153.037H165.76C165.491 152.947 165.222 152.857 164.954 152.857C164.685 152.947 164.416 153.126 164.237 153.305L163.968 153.485C163.162 154.022 162.266 154.291 161.28 154.381C160.742 154.47 160.115 154.56 159.578 154.829C158.323 155.456 157.069 156.262 155.994 157.248C155.456 157.696 154.829 158.144 154.291 158.502C152.499 159.667 150.707 160.742 148.826 161.817C148.109 162.176 147.482 162.624 146.765 163.072C145.421 164.057 143.987 164.774 142.464 165.312C141.926 165.312 141.389 165.401 140.941 165.312ZM139.238 119.168C138.522 119.257 137.894 119.437 137.357 119.795C135.386 120.781 133.594 121.945 131.802 123.289C130.906 123.827 130.189 124.633 129.741 125.529C128.934 127.321 129.83 129.561 130.726 131.533C130.816 131.712 130.816 131.981 130.726 132.16C130.637 132.339 130.458 132.429 130.189 132.429C127.322 132.518 125.44 135.475 124.723 136.729C123.738 138.432 123.2 140.313 123.29 142.195C123.29 144.077 124.275 145.779 125.798 146.854C125.978 146.944 126.157 147.213 126.067 147.481C126.067 147.75 125.888 147.929 125.619 148.019C124.096 148.557 123.379 150.438 123.558 151.872C123.827 153.574 124.634 155.097 125.888 156.352C128.934 159.846 132.698 161.459 136.013 162.534L137.446 162.982C137.894 163.161 138.342 163.341 138.79 163.43C139.776 163.968 141.03 164.147 142.106 163.789C143.539 163.251 144.883 162.534 146.138 161.638C146.854 161.19 147.571 160.742 148.288 160.384C150.17 159.398 151.962 158.323 153.664 157.158C154.202 156.8 154.739 156.352 155.366 155.904C156.531 154.918 157.786 154.112 159.13 153.395C159.757 153.126 160.474 152.947 161.101 152.857C161.907 152.768 162.624 152.589 163.251 152.141L163.43 151.961C163.789 151.603 164.326 151.334 164.774 151.245C165.222 151.245 165.67 151.334 166.118 151.513H166.208C168.806 152.499 171.674 151.782 173.555 149.721C175.258 147.661 175.168 144.525 173.376 142.553C173.197 142.374 173.107 142.105 173.286 141.837C173.376 141.568 173.645 141.478 173.914 141.478C176.243 141.568 178.304 140.134 179.021 137.894C179.648 135.565 179.2 133.145 177.856 131.264C176.422 129.293 174.63 127.59 172.48 126.425C172.211 126.246 172.122 125.977 172.211 125.709C173.018 123.2 172.39 120.422 170.509 118.451C168.358 116.301 163.699 115.494 160.922 116.301C160.563 116.39 160.294 116.211 160.115 115.942C158.592 114.509 157.069 113.075 155.366 111.821C153.574 110.925 151.514 110.656 149.542 111.104C145.421 111.91 142.195 114.867 141.03 118.809C140.941 118.989 140.851 119.168 140.672 119.257C140.493 119.347 140.224 119.257 140.045 119.168C139.776 118.989 139.507 118.899 139.238 118.899V119.168Z" fill="#231F20"/>
<path d="M164.685 153.664C164.685 153.664 167.552 163.699 165.85 165.043C164.147 166.387 160.832 164.057 160.832 164.057" fill="url(#paint4_linear_597_1081)"/>
<path d="M164.506 166.028C163.072 165.849 161.639 165.401 160.384 164.505C160.116 164.326 159.936 163.968 160.116 163.609C160.295 163.34 160.653 163.161 161.012 163.34C161.012 163.34 161.101 163.34 161.101 163.43C161.908 163.968 164.327 165.312 165.402 164.416C166.208 163.788 165.312 158.323 164.058 153.753C163.968 153.395 164.058 153.036 164.416 152.947C164.775 152.857 165.133 152.947 165.223 153.305V153.395C165.94 155.814 168 163.878 166.119 165.401C165.671 165.849 165.044 166.028 164.506 166.028Z" fill="#231F20"/>
<path d="M168.627 135.027C169.075 135.475 169.344 136.102 169.344 136.729C169.613 138.969 169.434 141.209 168.896 143.36C168 147.571 166.746 151.782 165.312 155.904C163.52 161.369 161.639 166.835 159.578 172.211C158.323 175.616 149.274 172.838 148.019 171.315L145.063 185.472C145.063 185.472 140.403 185.292 134.221 179.558C128.039 173.824 128.487 172.121 128.487 172.121L134.131 156.441C134.131 156.441 140.045 158.412 145.869 152.409C146.765 151.424 147.571 149.721 148.647 149.004C149.991 148.108 151.514 148.288 152.679 147.033C153.754 145.779 154.202 144.076 153.843 142.464C153.754 142.105 153.664 141.657 153.933 141.478C154.112 141.388 154.291 141.299 154.56 141.299C156.979 140.851 158.592 138.521 158.234 136.102C158.234 136.102 158.234 136.102 158.234 136.012C160.474 136.729 162.714 134.937 164.506 133.235C163.968 133.772 168 134.489 168.09 134.579C168.359 134.668 168.627 134.848 168.807 135.027H168.627Z" fill="white"/>
<path d="M145.062 186.009C144.883 186.009 140.045 185.74 133.773 180.006C127.77 174.54 127.77 172.48 127.859 171.942L133.504 156.262C133.594 155.904 133.952 155.814 134.31 155.904C134.49 155.993 139.955 157.606 145.421 152.051C145.779 151.603 146.138 151.155 146.406 150.707C146.854 149.9 147.571 149.184 148.288 148.556C148.826 148.198 149.453 147.929 150.17 147.75C150.976 147.571 151.693 147.212 152.23 146.675C153.216 145.6 153.574 144.076 153.306 142.643C153.126 142.105 153.216 141.478 153.574 141.03C153.843 140.851 154.112 140.672 154.47 140.672C155.546 140.492 156.442 139.955 156.979 139.059C157.606 138.252 157.786 137.177 157.606 136.192C157.517 136.012 157.606 135.744 157.786 135.564C157.965 135.385 158.144 135.385 158.413 135.475C160.384 136.102 162.445 134.4 164.058 132.876C164.326 132.608 164.685 132.608 164.954 132.876C165.043 132.966 165.133 133.056 165.133 133.145C166.029 133.504 167.014 133.772 168 133.952L168.269 134.041C168.627 134.131 168.896 134.31 169.165 134.579C169.702 135.116 169.971 135.833 170.061 136.64C170.509 138.969 169.971 141.478 169.613 143.449C168.806 147.302 167.731 151.155 166.387 154.918L166.029 156.083C164.237 161.548 162.355 167.014 160.294 172.39C159.846 173.555 158.771 174.272 157.517 174.361C154.739 174.809 150.528 173.555 148.557 172.39L145.779 185.561C145.6 185.83 145.331 186.009 145.062 186.009ZM129.024 172.3C129.024 172.3 129.203 174.092 134.579 179.02C139.328 183.411 143.181 184.396 144.525 184.665L147.392 171.046C147.482 170.777 147.661 170.598 147.84 170.598C148.109 170.508 148.288 170.598 148.467 170.777C149.184 171.673 154.022 173.465 157.158 173.017C158.144 172.838 158.771 172.48 158.95 171.852C161.011 166.476 162.893 161.011 164.685 155.635L165.043 154.47C166.387 150.796 167.373 147.033 168.269 143.18C168.806 141.12 168.896 138.969 168.717 136.819C168.717 136.371 168.538 135.833 168.179 135.475C168 135.385 167.821 135.206 167.642 135.116H167.552C166.387 134.937 165.312 134.579 164.237 134.131C162.714 135.564 160.832 136.908 158.771 136.729C158.771 137.804 158.502 138.79 157.875 139.686C157.069 140.851 155.904 141.568 154.56 141.836C154.47 141.836 154.381 141.836 154.291 141.836C154.381 141.926 154.381 142.105 154.381 142.195C154.739 143.987 154.291 145.958 153.037 147.302C152.32 148.019 151.424 148.556 150.438 148.736C149.901 148.915 149.363 149.094 148.915 149.363C148.288 149.9 147.75 150.438 147.392 151.155C147.034 151.692 146.675 152.14 146.227 152.678C141.21 157.785 136.192 157.337 134.49 156.979L129.024 172.3Z" fill="#231F20"/>
<path d="M150.349 150.707C150.618 149.273 150.528 147.84 149.991 146.406C149.722 145.331 149.363 144.256 148.826 143.27C148.288 142.284 147.303 141.568 146.138 141.388C145.152 141.299 144.167 141.747 143.45 142.374C142.733 143.091 142.195 143.897 141.927 144.883C140.403 149.004 141.21 153.664 144.077 157.068C143.987 156.889 143.987 156.8 143.898 156.62" fill="white"/>
<path d="M143.987 157.786C143.808 157.786 143.629 157.696 143.539 157.606C140.582 154.022 139.776 149.184 141.299 144.794C141.658 143.718 142.195 142.822 143.002 142.016C143.808 141.21 144.973 140.762 146.227 140.851C147.571 141.03 148.736 141.837 149.363 143.002C149.99 143.987 150.349 145.152 150.618 146.317C151.155 147.75 151.245 149.363 150.976 150.886C150.886 151.245 150.528 151.424 150.259 151.334C149.901 151.245 149.722 150.886 149.811 150.618C149.811 150.618 149.811 150.618 149.811 150.528C150.08 149.184 149.901 147.84 149.453 146.586C149.184 145.51 148.826 144.525 148.378 143.629C147.93 142.822 147.123 142.195 146.138 142.106C145.331 142.106 144.525 142.374 143.987 142.912C143.36 143.539 142.912 144.346 142.554 145.152C141.21 148.826 141.747 152.947 144.077 156.083C144.256 156.173 144.346 156.262 144.435 156.442L144.614 156.89C144.704 157.158 144.614 157.517 144.435 157.696C144.256 157.786 144.166 157.786 143.987 157.786Z" fill="#231F20"/>
<path d="M148.019 171.226C148.019 171.226 143.808 168.269 142.643 164.416C142.643 164.416 140.314 172.838 146.675 177.587L148.019 171.226Z" fill="#231F20"/>
<path d="M146.676 178.214C146.586 178.214 146.407 178.214 146.317 178.125C139.687 173.197 142.016 164.416 142.016 164.326C142.106 164.058 142.375 163.878 142.644 163.878C142.912 163.878 143.181 164.058 143.271 164.326C144.346 168 148.378 170.778 148.378 170.778C148.557 170.957 148.647 171.136 148.647 171.405L147.303 177.766C147.303 177.946 147.124 178.125 146.944 178.214C146.855 178.125 146.765 178.214 146.676 178.214ZM142.912 166.656C142.733 169.165 142.912 173.466 146.228 176.422L147.213 171.494C145.6 170.24 144.077 168.538 142.912 166.656Z" fill="#231F20"/>
<path d="M162.904 148.121C163.29 147.051 163.263 146.06 162.844 145.909C162.425 145.758 161.773 146.504 161.387 147.575C161.001 148.646 161.028 149.636 161.447 149.787C161.866 149.938 162.518 149.192 162.904 148.121Z" fill="#231F20"/>
<path d="M160.742 163.968L155.366 159.667C155.366 159.667 151.245 166.477 153.216 170.061C155.187 173.645 159.398 167.552 160.742 163.968Z" fill="url(#paint5_linear_597_1081)"/>
<path d="M154.829 171.853C153.933 171.853 153.126 171.315 152.768 170.419C150.528 166.566 154.739 159.667 154.918 159.398C155.008 159.219 155.187 159.129 155.366 159.129C155.546 159.129 155.725 159.129 155.904 159.219L161.28 163.52C161.459 163.699 161.549 163.968 161.459 164.237C160.653 166.566 157.786 171.584 155.098 171.853H154.829ZM155.546 160.653C154.65 162.355 152.32 167.104 153.843 169.792C154.291 170.509 154.65 170.598 154.918 170.598C156.442 170.509 158.771 167.193 160.026 164.237L155.546 160.653Z" fill="#231F20"/>
<path d="M240.54 179.962L117.241 274.502L166.965 339.352L290.264 244.811L240.54 179.962Z" fill="white"/>
<path d="M166.925 340.032C166.746 340.032 166.567 339.942 166.387 339.763L116.659 274.982C116.57 274.893 116.48 274.713 116.57 274.534C116.57 274.355 116.659 274.176 116.839 274.086L240.128 179.469C240.397 179.289 240.755 179.289 241.024 179.558L290.752 244.339C290.842 244.429 290.931 244.608 290.842 244.787C290.842 244.966 290.752 245.145 290.573 245.235L167.283 339.853C167.194 339.942 167.015 340.032 166.925 340.032ZM118.093 274.713L167.015 338.509L289.408 244.697L240.487 180.902L118.093 274.713Z" fill="#231F20"/>
<path d="M177.408 319.424H177.318C177.139 319.424 176.96 319.334 176.87 319.155C176.781 319.066 176.691 318.886 176.602 318.797C172.39 313.331 164.506 312.256 159.04 316.467C158.771 316.646 158.413 316.646 158.144 316.378L137.178 289.049C136.998 288.781 136.998 288.422 137.267 288.153C142.733 283.942 143.808 276.147 139.597 270.592C139.507 270.502 139.418 270.323 139.328 270.233C139.238 270.144 139.149 269.965 139.149 269.785C139.149 269.606 139.238 269.427 139.418 269.337L229.645 200.077C229.914 199.897 230.362 199.897 230.541 200.256C230.63 200.345 230.72 200.525 230.81 200.614C235.021 206.08 242.906 207.155 248.371 202.944C248.461 202.854 248.64 202.765 248.819 202.854C248.998 202.854 249.178 202.944 249.267 203.123L270.234 230.451C270.413 230.72 270.413 231.078 270.144 231.347C264.678 235.558 263.603 243.443 267.814 248.909C267.904 248.998 267.994 249.178 268.083 249.267C268.173 249.357 268.262 249.536 268.262 249.715C268.262 249.894 268.173 250.074 267.994 250.163L177.766 319.334C177.677 319.334 177.587 319.424 177.408 319.424ZM166.656 312.614C170.867 312.614 174.899 314.585 177.498 317.901L266.739 249.446C262.349 243.622 263.245 235.379 268.89 230.63L248.73 204.288C242.726 208.499 234.483 207.245 230.003 201.421L140.762 269.875C145.152 275.699 144.256 284.032 138.611 288.691L158.771 315.034C161.101 313.421 163.878 312.525 166.656 312.614Z" fill="#D1D3D4"/>
<path d="M137.805 215.757C137.805 215.757 176.154 262.528 183.053 264.23C189.952 265.933 201.421 263.872 200.615 267.546C199.808 271.219 188.787 271.219 188.787 271.219C188.787 271.219 202.317 277.133 200.615 281.075C198.912 285.018 192.551 288.333 186.816 285.824C181.082 283.315 177.856 279.104 172.928 276.685C168 274.266 121.05 230.899 121.05 230.899L137.805 215.757Z" fill="white"/>
<path d="M191.027 287.347C189.504 287.347 187.981 287.078 186.637 286.451C183.77 285.107 181.171 283.404 178.752 281.344C176.871 279.731 174.899 278.387 172.659 277.222C167.642 274.803 122.573 233.049 120.691 231.347C120.602 231.257 120.512 231.078 120.512 230.899C120.512 230.72 120.602 230.54 120.691 230.451L137.357 215.398C137.447 215.308 137.626 215.219 137.805 215.219C137.984 215.219 138.163 215.308 138.253 215.398C148.915 228.39 177.677 262.348 183.143 263.603C186.099 264.14 189.056 264.409 192.103 264.409C196.314 264.499 199.629 264.588 200.794 266.022C201.152 266.47 201.242 267.097 201.152 267.635C200.525 270.592 194.791 271.398 191.386 271.667C195.507 273.728 202.675 277.849 201.242 281.254C200.077 283.584 198.106 285.465 195.597 286.361C194.163 286.988 192.64 287.347 191.027 287.347ZM122.035 230.899C127.143 235.558 168.627 273.907 173.197 276.147C175.437 277.312 177.498 278.745 179.469 280.448C181.799 282.419 184.307 284.121 187.085 285.376C189.594 286.451 192.461 286.451 195.059 285.376C197.21 284.569 199.002 283.046 200.077 280.896C201.063 278.566 193.895 274.176 188.519 271.846C188.25 271.756 188.071 271.398 188.16 271.129C188.25 270.86 188.429 270.592 188.787 270.592C192.819 270.592 199.45 269.696 199.987 267.456C200.077 267.276 199.987 267.008 199.898 266.918C199.181 265.932 195.597 265.843 192.192 265.753C189.056 265.753 186.01 265.484 182.963 264.947C176.243 263.334 142.195 222.118 137.805 216.742L122.035 230.899Z" fill="#231F20"/>
<path d="M124.902 192.102L140.672 212.71L118.272 233.408L104.832 217.907" fill="url(#paint6_linear_597_1081)"/>
<path d="M118.272 234.035C118.093 234.035 117.914 233.946 117.824 233.856L104.384 218.355C104.115 218.086 104.205 217.728 104.474 217.459C104.742 217.19 105.101 217.28 105.37 217.549L118.362 232.512L139.866 212.71L124.454 192.55C124.365 192.192 124.454 191.834 124.813 191.744C124.992 191.654 125.261 191.654 125.44 191.834L141.21 212.442C141.389 212.71 141.389 213.069 141.12 213.248L118.72 233.856C118.63 233.946 118.451 233.946 118.272 234.035Z" fill="#231F20"/>
<path d="M356.518 220.148C360.192 220.416 363.865 221.402 367.181 223.104C372.915 225.882 378.47 230.452 379.814 236.634C380.889 241.741 378.918 246.938 376.499 251.508C374.08 256.077 371.033 260.468 369.689 265.485C368.345 270.503 368.973 276.506 372.915 279.821C367.718 277.492 362.342 275.072 358.131 271.22C355.622 268.98 353.561 266.023 353.293 262.708C353.113 259.93 354.189 257.332 355.264 254.733C356.877 250.97 358.579 247.117 358.848 243.085C359.117 239.053 357.593 234.573 354.009 232.423C350.873 230.631 340.838 230.81 342.361 225.165C343.616 220.864 352.934 220.058 356.518 220.148Z" fill="white"/>
<path d="M372.826 280.538C372.736 280.538 372.647 280.538 372.557 280.448C367.36 278.119 361.984 275.699 357.594 271.757C354.547 268.979 352.755 265.843 352.576 262.797C352.397 260.019 353.383 257.331 354.547 254.554L354.727 254.016C356.25 250.522 357.773 246.848 358.042 243.085C358.311 238.695 356.519 234.842 353.562 233.05C352.307 232.512 350.963 232.064 349.619 231.795C346.663 231.079 343.258 230.272 342.003 228.122C341.466 227.136 341.376 225.971 341.735 224.986C343.079 220.058 352.845 219.251 356.519 219.431C360.282 219.699 364.045 220.685 367.45 222.477C371.571 224.448 378.829 228.928 380.352 236.455C381.248 240.845 380.173 245.683 376.947 251.776C376.32 252.941 375.603 254.106 374.976 255.271C373.095 258.496 371.213 261.901 370.138 265.575C368.973 269.786 369.063 275.879 373.184 279.283C373.453 279.463 373.453 279.911 373.274 280.179C373.274 280.448 373.095 280.538 372.826 280.538ZM355.712 220.775C351.501 220.775 343.975 221.85 342.989 225.434C342.72 226.151 342.81 226.957 343.168 227.584C344.154 229.287 347.29 230.003 349.978 230.631C351.501 230.899 352.935 231.347 354.279 231.975C357.683 233.946 359.655 238.336 359.386 243.175C359.117 247.207 357.504 250.88 355.981 254.554L355.802 255.091C354.637 257.779 353.741 260.199 353.92 262.708C354.189 266.112 356.608 268.979 358.579 270.861C362.074 273.997 366.285 276.237 370.586 278.119C367.987 274.266 368.077 269.069 369.152 265.306C370.227 261.543 372.199 258.048 374.08 254.733C374.707 253.568 375.424 252.403 376.051 251.239C379.098 245.504 380.173 240.845 379.277 236.813C377.843 229.824 370.944 225.523 367.002 223.642C363.776 221.939 360.192 220.954 356.608 220.775H355.712Z" fill="#231F20"/>
<path d="M352.038 221.402C353.293 223.552 353.741 225.971 353.382 228.39C353.293 230.003 352.665 231.616 351.68 232.87C350.336 234.394 348.365 235.11 346.393 234.931C345.497 234.931 344.691 234.573 343.974 233.946C343.526 233.408 343.168 232.691 343.078 231.974C342.003 226.957 345.677 211.546 352.038 221.402Z" fill="#231F20"/>
<path d="M346.842 235.648C346.662 235.648 346.483 235.648 346.304 235.648C345.229 235.648 344.243 235.2 343.526 234.483C342.989 233.856 342.63 233.05 342.541 232.154C341.734 228.48 343.347 219.251 347.021 217.728C348.813 217.011 350.694 218.086 352.576 221.043C353.92 223.283 354.368 225.882 354.01 228.48C353.92 230.272 353.293 231.885 352.218 233.318C350.784 234.842 348.902 235.648 346.842 235.648ZM348.006 218.803C347.827 218.803 347.558 218.803 347.379 218.893C344.602 219.968 342.899 228.301 343.706 231.885C343.795 232.512 344.064 233.139 344.422 233.587C344.96 234.035 345.677 234.394 346.394 234.394C348.186 234.573 349.977 233.856 351.142 232.512C352.038 231.347 352.576 229.914 352.666 228.39C353.024 226.15 352.576 223.821 351.411 221.76C350.605 220.326 349.261 218.803 348.006 218.803Z" fill="#231F20"/>
<path d="M318.886 254.733C320.41 256.525 322.65 257.51 326.413 257.062C329.549 256.614 332.506 255.45 335.014 253.568C345.139 246.4 350.336 234.214 348.454 221.939C346.394 209.843 334.298 197.747 321.306 202.406C316.826 204.019 313.331 207.514 311.718 211.994C310.016 211.277 307.955 211.994 306.701 213.338C303.296 216.743 303.475 220.326 305.267 224.269C308.224 230.899 311.898 237.171 314.586 243.891C316.109 247.923 316.736 252.134 318.886 254.733Z" fill="white"/>
<path d="M324.8 257.779C322.381 257.959 319.962 256.973 318.439 255.091C316.915 253.299 316.109 250.701 315.303 248.103C314.944 246.848 314.496 245.504 313.959 244.16C312.346 240.218 310.464 236.365 308.583 232.602C307.239 230.003 305.895 227.315 304.64 224.538C302.49 219.789 302.938 216.026 306.163 212.89C307.507 211.456 309.389 210.829 311.271 211.187C313.063 206.797 316.557 203.392 320.947 201.869C326.055 199.987 331.789 200.615 336.448 203.482C343.079 207.514 347.648 214.234 348.992 221.85C350.874 234.304 345.587 246.759 335.373 254.106C332.775 255.987 329.728 257.242 326.503 257.69C325.965 257.779 325.427 257.779 324.8 257.779ZM319.424 254.375C320.947 256.167 323.187 256.883 326.413 256.525C329.459 256.077 332.327 254.912 334.746 253.12C344.602 246.131 349.709 234.125 347.917 222.119C346.573 214.861 342.272 208.499 336 204.647C331.699 201.959 326.323 201.421 321.575 203.123C317.274 204.647 313.959 208.051 312.435 212.263C312.346 212.442 312.256 212.531 312.077 212.621C311.898 212.711 311.719 212.711 311.539 212.621C310.016 211.994 308.224 212.8 307.149 213.786C304.282 216.653 303.923 219.699 305.895 224.09C307.149 226.778 308.493 229.466 309.747 232.064C311.629 235.827 313.6 239.77 315.213 243.712C315.751 245.056 316.109 246.4 316.557 247.744C317.274 250.343 317.991 252.672 319.424 254.375Z" fill="#231F20"/>
<path d="M309.21 226.778C309.21 226.778 301.325 233.498 301.952 235.559C302.579 237.619 306.701 237.53 306.701 237.53" fill="url(#paint7_linear_597_1081)"/>
<path d="M306.611 238.157C305.894 238.157 302.041 238.067 301.325 235.738C300.608 233.408 306.79 227.943 308.761 226.33C309.03 226.061 309.389 226.151 309.657 226.419C309.926 226.688 309.837 227.047 309.568 227.315C305.894 230.451 302.221 234.394 302.489 235.379C302.937 236.723 305.715 236.903 306.611 236.903C306.969 236.903 307.238 237.171 307.238 237.53C307.328 237.888 307.059 238.157 306.611 238.157C306.701 238.157 306.701 238.157 306.611 238.157Z" fill="#231F20"/>
<path d="M304.909 272.026C313.779 272.743 328.922 263.783 329.011 263.424C330.893 257.69 332.954 245.952 332.954 245.952C332.954 245.952 326.95 244.25 325.427 236.096C323.904 227.943 316.467 226.688 313.51 216.026C309.21 217.907 308.493 224.179 307.418 228.122C305.894 233.677 304.461 239.232 303.206 244.787C302.4 248.371 311.45 250.97 313.331 250.432C311.898 254.016 309.12 261.184 304.909 272.026Z" fill="white"/>
<path d="M305.894 272.742C305.536 272.742 305.267 272.742 304.909 272.742C304.73 272.742 304.55 272.653 304.461 272.474C304.371 272.295 304.371 272.115 304.371 271.936C310.285 256.704 310.643 255.808 312.346 251.328C310.016 251.239 305.894 249.894 303.834 248.013C302.848 247.296 302.4 246.042 302.579 244.877C303.834 239.322 305.267 233.677 306.88 228.211C307.059 227.584 307.238 226.867 307.418 226.061C308.314 222.208 309.478 217.37 313.331 215.667C313.51 215.578 313.69 215.578 313.869 215.667C314.048 215.757 314.138 215.847 314.227 216.026C315.75 221.402 318.349 224.269 320.858 227.046C323.187 229.645 325.427 232.064 326.234 236.186C327.667 243.802 333.043 245.415 333.312 245.504C333.581 245.594 333.85 245.862 333.76 246.221C333.67 246.669 331.699 258.048 329.818 263.782C329.37 264.589 314.675 272.742 305.894 272.742ZM305.894 271.488H305.984C314.138 271.488 327.04 264.32 328.474 263.155C330.086 258.138 331.878 248.73 332.237 246.49C330.624 245.863 326.144 243.443 324.89 236.365C324.173 232.602 322.202 230.451 319.872 227.853C317.542 225.255 314.765 222.298 313.152 217.101C310.374 218.803 309.389 222.925 308.582 226.24C308.403 227.047 308.224 227.763 308.045 228.39C306.522 233.856 305.088 239.501 303.834 245.056C303.744 245.863 304.102 246.579 304.73 247.027C307.059 249.178 312.077 250.343 313.152 249.984C313.421 249.895 313.6 249.984 313.779 250.163C313.958 250.343 313.958 250.611 313.869 250.79C311.898 255.987 311.898 256.077 305.894 271.488Z" fill="#231F20"/>
<path d="M304.461 240.845C304.461 240.845 307.955 244.698 311.539 240.934L304.461 240.845Z" fill="url(#paint8_linear_597_1081)"/>
<path d="M308.134 243.264C306.521 243.175 305.088 242.458 304.013 241.293C303.744 241.024 303.744 240.666 304.013 240.397C304.281 240.128 304.64 240.128 304.909 240.397C305.715 241.293 306.88 241.831 308.134 241.92C309.299 241.831 310.285 241.383 311.001 240.487C311.27 240.218 311.629 240.218 311.897 240.487C312.166 240.755 312.166 241.114 311.897 241.383C311.001 242.458 309.657 243.175 308.134 243.264Z" fill="#231F20"/>
<path d="M313.242 250.521C313.242 250.521 317.901 251.597 321.037 249.088C321.037 249.088 318.349 257.421 310.375 257.779L313.242 250.521Z" fill="#231F20"/>
<path d="M310.464 258.407C310.285 258.407 310.106 258.317 309.927 258.138C309.837 257.959 309.747 257.779 309.837 257.511L312.615 250.253C312.704 249.984 313.063 249.805 313.331 249.895C313.331 249.895 317.811 250.88 320.589 248.551C320.858 248.371 321.216 248.371 321.485 248.64C321.664 248.819 321.664 248.999 321.575 249.267C321.664 249.357 318.707 258.048 310.464 258.407ZM313.69 251.239L311.45 257.063C316.019 256.435 318.528 252.851 319.693 250.611C317.722 251.418 315.661 251.597 313.69 251.239Z" fill="#231F20"/>
<path d="M312.643 224.889C312.88 223.776 312.719 222.798 312.283 222.706C311.848 222.613 311.302 223.44 311.065 224.553C310.828 225.666 310.989 226.644 311.424 226.736C311.86 226.829 312.405 226.002 312.643 224.889Z" fill="#231F20"/>
<path d="M319.603 232.871C320.141 231.527 321.037 230.362 322.201 229.556C323.008 228.749 323.904 228.122 324.889 227.674C325.875 227.136 327.129 227.136 328.115 227.584C329.011 228.122 329.549 228.928 329.817 229.914C329.997 230.9 329.997 231.885 329.728 232.871C328.742 237.172 325.517 240.576 321.216 241.831L321.574 241.562" fill="white"/>
<path d="M321.306 242.368C320.947 242.368 320.678 242.1 320.678 241.741C320.678 241.562 320.768 241.293 320.947 241.204L321.395 240.935C321.574 240.845 321.754 240.845 321.843 240.845C325.517 239.501 328.205 236.365 329.101 232.602C329.37 231.706 329.37 230.81 329.19 229.914C329.011 229.108 328.563 228.391 327.846 228.032C326.95 227.674 325.965 227.674 325.158 228.122C324.262 228.57 323.366 229.197 322.56 229.914C321.485 230.72 320.678 231.706 320.141 232.96C320.051 233.319 319.693 233.498 319.334 233.319C319.066 233.229 318.886 232.871 318.976 232.602C319.514 231.168 320.499 229.914 321.754 228.928C322.65 228.122 323.546 227.405 324.621 226.868C325.786 226.33 327.219 226.33 328.384 226.868C329.37 227.495 330.176 228.48 330.355 229.645C330.534 230.72 330.534 231.796 330.266 232.871C329.19 237.351 325.786 240.935 321.306 242.279C321.395 242.279 321.306 242.279 321.306 242.368Z" fill="#231F20"/>
<path d="M303.475 265.485C303.475 265.485 330.355 254.643 338.688 264.141C347.021 273.639 351.68 295.501 348.186 342.989L285.376 340.839C285.376 340.659 290.394 271.309 303.475 265.485Z" fill="url(#paint9_linear_597_1081)"/>
<path d="M266.201 279.821C263.334 277.312 239.232 245.325 238.873 240.128C238.515 234.931 236.365 225.792 235.11 226.419C233.856 227.046 233.229 235.379 233.229 235.379C233.229 235.379 227.315 224.717 224.717 224.717C222.118 224.717 216.205 231.706 216.563 235.379C216.921 239.053 244.518 304.909 257.331 306.79C270.144 308.672 303.654 293.619 306.701 292.992C309.747 292.365 320.947 267.904 306.701 264.32C306.79 264.32 269.158 282.33 266.201 279.821Z" fill="white"/>
<path d="M259.84 307.507C259.034 307.507 258.138 307.418 257.331 307.328C243.891 305.357 216.384 239.411 216.026 235.379C215.846 233.05 217.907 229.645 219.878 227.494C220.595 226.688 223.014 224.09 224.806 224C227.046 224 230.81 229.734 232.781 233.229C233.139 230.093 233.677 226.33 234.842 225.792C235.11 225.613 235.469 225.702 235.738 225.882C237.53 226.867 239.232 235.827 239.501 240.038C239.77 244.877 263.155 276.326 266.56 279.283C268.352 280.627 288.243 272.384 306.432 263.603C306.522 263.514 306.701 263.514 306.88 263.603C311.898 264.858 314.496 268.89 314.406 275.072C314.227 282.867 309.299 293.082 306.88 293.53C306.253 293.619 303.923 294.515 301.056 295.68C290.931 299.712 270.771 307.507 259.84 307.507ZM224.806 225.344C224.09 225.344 222.566 226.33 220.774 228.39C218.534 230.899 217.101 233.677 217.28 235.29C217.638 239.501 245.683 304.371 257.51 306.074C267.366 307.507 289.766 298.726 300.608 294.515C303.834 293.261 305.984 292.454 306.701 292.275C308.045 292.006 313.062 283.046 313.242 274.982C313.331 269.427 311.27 266.022 306.88 264.858C305.446 265.574 296.755 269.696 287.885 273.459C267.994 281.971 266.47 280.717 265.843 280.179C263.155 277.85 238.605 245.683 238.336 240.038C238.067 235.2 236.365 228.301 235.379 227.046C234.842 228.032 234.214 231.885 233.946 235.29C233.946 235.558 233.766 235.827 233.498 235.827C233.229 235.917 232.96 235.738 232.781 235.558C229.914 230.72 226.15 225.344 224.806 225.344Z" fill="#231F20"/>
<defs>
<linearGradient id="paint0_linear_597_1081" x1="247.117" y1="171.226" x2="247.117" y2="176.602" gradientUnits="userSpaceOnUse">
<stop stop-color="#68E1FD"/>
<stop offset="1" stop-color="#0D54DB"/>
</linearGradient>
<linearGradient id="paint1_linear_597_1081" x1="45.5166" y1="104.832" x2="45.5166" y2="110.208" gradientUnits="userSpaceOnUse">
<stop stop-color="#68E1FD"/>
<stop offset="1" stop-color="#0D54DB"/>
</linearGradient>
<linearGradient id="paint2_linear_597_1081" x1="161.908" y1="178.752" x2="161.908" y2="217.907" gradientUnits="userSpaceOnUse">
<stop stop-color="#68E1FD"/>
<stop offset="1" stop-color="#0D54DB"/>
</linearGradient>
<linearGradient id="paint3_linear_597_1081" x1="118.563" y1="170.179" x2="118.563" y2="284.838" gradientUnits="userSpaceOnUse">
<stop stop-color="#68E1FD"/>
<stop offset="1" stop-color="#0D54DB"/>
</linearGradient>
<linearGradient id="paint4_linear_597_1081" x1="163.611" y1="153.664" x2="163.611" y2="165.46" gradientUnits="userSpaceOnUse">
<stop stop-color="white"/>
<stop offset="1" stop-color="#C9C9C9"/>
</linearGradient>
<linearGradient id="paint5_linear_597_1081" x1="156.712" y1="159.667" x2="156.712" y2="171.151" gradientUnits="userSpaceOnUse">
<stop stop-color="white"/>
<stop offset="1" stop-color="#C9C9C9"/>
</linearGradient>
<linearGradient id="paint6_linear_597_1081" x1="122.752" y1="192.102" x2="122.752" y2="233.408" gradientUnits="userSpaceOnUse">
<stop stop-color="#68E1FD"/>
<stop offset="1" stop-color="#0D54DB"/>
</linearGradient>
<linearGradient id="paint7_linear_597_1081" x1="305.563" y1="226.778" x2="305.563" y2="237.53" gradientUnits="userSpaceOnUse">
<stop stop-color="white"/>
<stop offset="1" stop-color="#C9C9C9"/>
</linearGradient>
<linearGradient id="paint8_linear_597_1081" x1="308" y1="240.845" x2="308" y2="242.584" gradientUnits="userSpaceOnUse">
<stop stop-color="white"/>
<stop offset="1" stop-color="#C9C9C9"/>
</linearGradient>
<linearGradient id="paint9_linear_597_1081" x1="317.367" y1="260.242" x2="317.367" y2="342.989" gradientUnits="userSpaceOnUse">
<stop stop-color="#68E1FD"/>
<stop offset="1" stop-color="#0D54DB"/>
</linearGradient>
</defs>
</svg>
