<svg width="378" height="244" viewBox="0 0 378 244" fill="none" xmlns="http://www.w3.org/2000/svg">
<path d="M376.802 67.968H202.888V254.426H376.802V67.968Z" fill="white"/>
<path d="M376.712 255.053H202.888C202.53 255.053 202.261 254.784 202.261 254.426V67.968C202.261 67.6096 202.53 67.3408 202.888 67.3408H376.802C377.16 67.3408 377.429 67.6096 377.429 67.968V254.426C377.339 254.784 377.07 255.053 376.712 255.053ZM203.515 253.798H376.174V68.5952H203.515V253.798Z" fill="#231F20"/>
<path d="M376.802 67.968H202.888V88.6656H376.802V67.968Z" fill="white"/>
<path d="M376.712 89.2032H202.888C202.53 89.2032 202.261 88.9344 202.261 88.576V67.968C202.261 67.6096 202.53 67.3408 202.888 67.3408H376.802C377.16 67.3408 377.429 67.6096 377.429 67.968V88.576C377.429 88.9344 377.07 89.2032 376.712 89.2032C376.802 89.2032 376.802 89.2032 376.712 89.2032ZM203.515 87.9488H376.174V68.5056H203.515V87.9488Z" fill="#231F20"/>
<path d="M212.117 80.6016C213.601 80.6016 214.805 79.3982 214.805 77.9136C214.805 76.4291 213.601 75.2256 212.117 75.2256C210.632 75.2256 209.429 76.4291 209.429 77.9136C209.429 79.3982 210.632 80.6016 212.117 80.6016Z" fill="url(#paint0_linear_96_27)"/>
<path d="M221.704 80.6016C223.188 80.6016 224.392 79.3982 224.392 77.9136C224.392 76.4291 223.188 75.2256 221.704 75.2256C220.219 75.2256 219.016 76.4291 219.016 77.9136C219.016 79.3982 220.219 80.6016 221.704 80.6016Z" fill="#D1D3D4"/>
<path d="M231.201 80.6016C232.686 80.6016 233.889 79.3982 233.889 77.9136C233.889 76.4291 232.686 75.2256 231.201 75.2256C229.717 75.2256 228.513 76.4291 228.513 77.9136C228.513 79.3982 229.717 80.6016 231.201 80.6016Z" fill="#D1D3D4"/>
<path d="M356.731 206.221H334.51C334.152 206.221 333.883 205.952 333.883 205.594C333.883 205.235 334.152 204.966 334.51 204.966H356.731C357.089 204.966 357.358 205.235 357.358 205.594C357.358 205.862 357.089 206.221 356.731 206.221Z" fill="#D1D3D4"/>
<path d="M348.488 219.392H334.51C334.152 219.392 333.883 219.123 333.883 218.765C333.883 218.406 334.152 218.138 334.51 218.138H348.488C348.846 218.138 349.115 218.406 349.115 218.765C349.115 219.123 348.846 219.392 348.488 219.392Z" fill="#D1D3D4"/>
<path d="M354.939 240.448H338.184C335.854 240.448 333.883 238.566 333.883 236.147V233.459C333.883 231.13 335.765 229.158 338.184 229.158H354.939C357.269 229.158 359.24 231.04 359.24 233.459V236.147C359.24 238.477 357.269 240.448 354.939 240.448ZM338.184 230.323C336.481 230.323 335.137 231.667 335.137 233.37V236.058C335.137 237.76 336.481 239.104 338.184 239.104H354.939C356.641 239.104 357.985 237.76 357.985 236.058V233.37C357.985 231.667 356.641 230.323 354.939 230.323H338.184Z" fill="#D1D3D4"/>
<path d="M278.869 169.843C278.869 169.843 240.072 175.398 234.875 169.843C229.678 164.288 217.762 132.749 217.762 132.749L203.874 144.128C203.874 144.128 214.267 203.264 231.829 202.906C249.39 202.547 288.814 188.122 288.814 188.122L278.869 169.843Z" fill="white"/>
<path d="M231.739 203.533C213.909 203.533 203.784 146.637 203.336 144.218C203.336 144.038 203.336 143.77 203.515 143.59L217.314 132.211C217.493 132.122 217.672 132.032 217.851 132.122C218.03 132.211 218.21 132.301 218.299 132.48C218.389 132.838 230.216 164.019 235.323 169.395C239.445 173.696 268.027 170.739 278.779 169.216C279.048 169.216 279.317 169.306 279.406 169.574L289.352 187.942C289.531 188.211 289.442 188.659 289.083 188.838H288.994C288.635 189.018 249.301 203.354 231.829 203.622L231.739 203.533ZM204.59 144.397C205.486 149.325 215.611 202.278 231.65 202.278H231.739C247.778 202.01 282.453 189.734 287.829 187.853L278.421 170.56C276.45 170.829 267.758 171.994 258.798 172.531C244.91 173.427 236.667 172.71 234.338 170.291C229.499 165.184 219.374 138.931 217.403 133.824L204.59 144.397Z" fill="#231F20"/>
<path d="M174.81 1.30325H1.48877V266.86H174.81V1.30325Z" fill="white"/>
<path d="M175.106 249.629H1.10294C0.744175 249.629 0.475098 249.273 0.475098 248.799V2.13299C0.475098 1.65886 0.744175 1.30325 1.10294 1.30325H175.196C175.554 1.30325 175.824 1.65886 175.824 2.13299V248.799C175.734 249.273 175.465 249.629 175.106 249.629ZM1.6411 247.97H174.478V2.96271H1.73079L1.6411 247.97Z" fill="#231F20"/>
<path d="M175.202 1.5744H1.28809V22.272H175.202V1.5744Z" fill="white"/>
<path d="M175.112 22.8096H1.28809C0.929689 22.8096 0.660889 22.5408 0.660889 22.1824V1.48481C0.660889 1.12641 0.929689 0.857605 1.28809 0.857605H175.202C175.56 0.857605 175.829 1.12641 175.829 1.48481V22.0928C175.739 22.5408 175.47 22.8096 175.112 22.8096ZM1.82569 21.5552H174.485V2.11201H1.91529L1.82569 21.5552Z" fill="#231F20"/>
<path d="M10.5169 14.208C12.0014 14.208 13.2049 13.0045 13.2049 11.52C13.2049 10.0355 12.0014 8.832 10.5169 8.832C9.03232 8.832 7.82886 10.0355 7.82886 11.52C7.82886 13.0045 9.03232 14.208 10.5169 14.208Z" fill="url(#paint1_linear_96_27)"/>
<path d="M20.0144 14.208C21.499 14.208 22.7024 13.0045 22.7024 11.52C22.7024 10.0355 21.499 8.832 20.0144 8.832C18.5299 8.832 17.3264 10.0355 17.3264 11.52C17.3264 13.0045 18.5299 14.208 20.0144 14.208Z" fill="#D1D3D4"/>
<path d="M29.6016 14.208C31.0861 14.208 32.2896 13.0045 32.2896 11.52C32.2896 10.0355 31.0861 8.832 29.6016 8.832C28.117 8.832 26.9136 10.0355 26.9136 11.52C26.9136 13.0045 28.117 14.208 29.6016 14.208Z" fill="#D1D3D4"/>
<path d="M51.8224 43.776H20.0144C19.656 43.776 19.3872 43.5072 19.3872 43.1488C19.3872 42.7904 19.656 42.5216 20.0144 42.5216H51.8224C52.1808 42.5216 52.4496 42.7904 52.4496 43.1488C52.4496 43.5072 52.1808 43.776 51.8224 43.776Z" fill="#D1D3D4"/>
<path d="M35.9632 61.696H20.0144C19.656 61.696 19.3872 61.4272 19.3872 61.0688C19.3872 60.7104 19.656 60.4416 20.0144 60.4416H35.9632C36.3216 60.4416 36.5904 60.7104 36.5904 61.0688C36.5904 61.4272 36.3216 61.696 35.9632 61.696Z" fill="#D1D3D4"/>
<path d="M27.9888 93.2352C22.6128 93.2352 18.2224 88.8448 18.2224 83.4688C18.2224 78.0928 22.6128 73.792 27.8992 73.792C33.2752 73.792 37.6656 78.1824 37.6656 83.4688C37.6656 88.9344 33.3648 93.2352 27.9888 93.2352ZM27.9888 75.0464C23.3296 75.0464 19.4768 78.8096 19.4768 83.4688C19.4768 88.128 23.24 91.8912 27.8992 91.8912C32.5584 91.8912 36.4112 88.128 36.4112 83.4688C36.5008 78.8992 32.648 75.0464 27.9888 75.0464Z" fill="#D1D3D4"/>
<path d="M27.9888 86.784C27.72 86.784 27.6304 86.6944 27.4512 86.5152L23.7776 81.4976C23.5984 81.2288 23.5984 80.7808 23.9568 80.6016C24.2256 80.4224 24.6736 80.4224 24.8528 80.6912L28.0784 85.0816L40.8016 72.5376C41.0704 72.2688 41.4288 72.2688 41.6976 72.5376C41.9664 72.8064 41.9664 73.1648 41.6976 73.4336L28.4368 86.5152C28.3472 86.6944 28.168 86.784 27.9888 86.784Z" fill="#D1D3D4"/>
<path d="M44.5655 166.009L43.0452 247.602H109.941L107.914 183.24L44.5655 166.009Z" fill="#231F20"/>
<path d="M110.302 249.629H43.6746C43.4947 249.629 43.3149 249.299 43.225 248.969C43.1351 248.31 43.0452 247.65 43.0452 246.99L47.1813 168.495C47.2712 167.175 47.5409 166.516 47.9006 166.516L106.795 205.104C107.065 205.104 107.245 205.764 107.245 206.753L110.931 246.66C111.021 247.98 110.841 249.299 110.572 249.629C110.392 249.629 110.392 249.629 110.302 249.629ZM44.3939 245.011H109.403L106.166 209.392L48.2603 171.463L44.3939 245.011Z" fill="#231F20"/>
<path d="M132.193 106.406L169.825 151.744L153.249 158.554L112.929 115.635L132.193 106.406Z" fill="white"/>
<path d="M153.249 159.181C153.07 159.181 152.891 159.091 152.801 159.002L112.481 116.083C112.302 115.904 112.302 115.725 112.302 115.546C112.302 115.366 112.481 115.187 112.661 115.098L131.925 105.869C132.193 105.779 132.462 105.779 132.641 106.048L170.273 151.386C170.363 151.565 170.453 151.744 170.363 151.923C170.273 152.102 170.184 152.282 170.005 152.371L153.429 159.181C153.429 159.181 153.339 159.181 153.249 159.181ZM113.915 115.814L153.339 157.837L168.75 151.565L131.925 107.213L113.915 115.814Z" fill="#231F20"/>
<path d="M120.814 82.752L139.899 107.661L113.915 121.907L120.814 82.752Z" fill="url(#paint2_linear_96_27)"/>
<path d="M120.814 82.752C119.201 80.1536 83.0927 68.864 71.1759 77.1968C59.2591 85.5296 46.7151 150.221 43.3999 170.202L115.707 188.838C115.707 188.838 129.595 96.9984 120.814 82.752Z" fill="url(#paint3_linear_96_27)"/>
<path d="M119.381 172.621C118.933 172.621 118.753 172.262 118.753 171.904C118.843 171.366 125.205 115.456 123.144 101.478C123.054 101.12 123.323 100.851 123.681 100.762C124.04 100.672 124.309 100.941 124.398 101.299C126.459 115.456 120.277 169.754 120.008 172.083C119.918 172.442 119.649 172.621 119.381 172.621Z" fill="#231F20"/>
<path d="M100.834 67.1616C96.8912 65.8176 93.3072 64.1152 90.44 60.8C89.096 59.456 88.2896 57.7536 87.9312 55.9616C87.752 54.08 88.648 52.0192 90.44 51.4816C88.7376 50.3168 87.6624 48.4352 87.6624 46.2848C87.6624 44.224 88.2 42.2528 89.1856 40.4608C90.44 38.1312 92.5008 35.8912 95.1888 35.8016C94.2032 33.7408 93.3072 31.4112 94.2032 29.3504C94.7408 28.3648 95.5472 27.4688 96.4432 26.8416C98.2352 25.4976 100.117 24.2432 102.088 23.2576C103.163 22.72 104.507 22.272 105.493 22.9888C106.658 18.7776 110.152 15.552 114.542 14.7456C116.603 14.2976 118.843 14.5664 120.725 15.552C121.352 15.8208 126.011 19.9424 125.742 19.9424C128.789 19.0464 133.717 19.8528 135.957 22.1824C137.928 24.3328 138.645 27.2896 137.749 30.0672C139.989 31.3216 141.87 33.024 143.394 35.0848C144.917 37.1456 145.365 39.8336 144.648 42.3424C143.842 44.7616 141.422 46.6432 138.914 46.2848C141.064 48.5248 141.154 52.0192 139.182 54.3488C137.122 56.5888 133.986 57.3952 131.118 56.32C130.76 56.1408 130.312 56.0512 129.954 56.0512C129.506 56.2304 129.058 56.4992 128.699 56.8576C127.355 57.8432 125.832 57.4848 124.398 58.112C122.517 58.9184 120.725 60.7104 119.022 61.7856C117.32 62.9504 115.528 64.0256 113.646 65.0112C111.586 66.0864 109.704 67.7888 107.374 68.5056C105.403 69.1328 104.238 68.2368 102.357 67.6096L100.834 67.1616Z" fill="white"/>
<path d="M105.941 69.312C105.045 69.312 104.059 69.0432 103.253 68.6848C102.894 68.5056 102.446 68.416 101.998 68.2368L100.565 67.7888C97.16 66.624 93.2176 64.9216 89.9024 61.248C88.4688 59.8144 87.5728 58.0224 87.304 56.0512C87.1248 54.2592 87.8416 52.4672 89.2752 51.392C87.9312 50.048 87.0352 48.256 87.0352 46.3744C87.0352 44.224 87.5728 42.0736 88.648 40.192C89.3648 38.848 91.2464 35.8912 94.2032 35.3536C93.3072 33.3824 92.68 31.1424 93.576 29.1712C94.2032 28.096 95.0096 27.2 95.9952 26.4832C97.7872 25.0496 99.6688 23.8848 101.73 22.8096C102.715 22.1824 103.88 22.0032 104.955 22.1824C106.389 18.0608 109.973 15.0144 114.274 14.208C116.514 13.76 118.843 14.1184 120.904 15.104C122.696 16.448 124.309 17.8816 125.922 19.4048C129.058 18.688 133.986 19.4944 136.405 21.9136C138.466 24.064 139.272 27.1104 138.466 29.9776C140.616 31.232 142.408 32.9344 143.842 34.9056C145.454 37.1456 145.902 40.0128 145.186 42.7008C144.469 44.9408 142.498 46.6432 140.168 47.0912C141.691 49.6 141.422 52.6464 139.63 54.8864C137.39 57.3056 133.986 58.2016 130.85 57.0368H130.76C130.491 56.9472 130.222 56.8576 129.954 56.8576C129.685 56.9472 129.416 57.1264 129.237 57.3056L128.968 57.4848C128.162 58.0224 127.266 58.2912 126.28 58.3808C125.742 58.4704 125.115 58.56 124.578 58.8288C123.323 59.456 122.069 60.2624 120.994 61.248C120.456 61.696 119.829 62.144 119.291 62.5024C117.499 63.6672 115.707 64.7424 113.826 65.8176C113.109 66.176 112.482 66.624 111.765 67.072C110.421 68.0576 108.987 68.7744 107.464 69.312C106.926 69.312 106.389 69.4016 105.941 69.312ZM104.238 23.168C103.522 23.2576 102.894 23.4368 102.357 23.7952C100.386 24.7808 98.5936 25.9456 96.8016 27.2896C95.9056 27.8272 95.1888 28.6336 94.7408 29.5296C93.9344 31.3216 94.8304 33.5616 95.7264 35.5328C95.816 35.712 95.816 35.9808 95.7264 36.16C95.6368 36.3392 95.4576 36.4288 95.1888 36.4288C92.3216 36.5184 90.44 39.4752 89.7232 40.7296C88.7376 42.432 88.2 44.3136 88.2896 46.1952C88.2896 48.0768 89.2752 49.7792 90.7984 50.8544C90.9776 50.944 91.1568 51.2128 91.0672 51.4816C91.0672 51.7504 90.888 51.9296 90.6192 52.0192C89.096 52.5568 88.3792 54.4384 88.5584 55.872C88.8272 57.5744 89.6336 59.0976 90.888 60.352C93.9344 63.8464 97.6976 65.4592 101.013 66.5344L102.446 66.9824C102.894 67.1616 103.342 67.3408 103.79 67.4304C104.776 67.968 106.03 68.1472 107.106 67.7888C108.539 67.2512 109.883 66.5344 111.138 65.6384C111.854 65.1904 112.571 64.7424 113.288 64.384C115.17 63.3984 116.962 62.3232 118.664 61.1584C119.202 60.8 119.739 60.352 120.366 59.904C121.531 58.9184 122.786 58.112 124.13 57.3952C124.757 57.1264 125.474 56.9472 126.101 56.8576C126.907 56.768 127.624 56.5888 128.251 56.1408L128.43 55.9616C128.789 55.6032 129.326 55.3344 129.774 55.2448C130.222 55.2448 130.67 55.3344 131.118 55.5136H131.208C133.806 56.4992 136.674 55.7824 138.555 53.7216C140.258 51.6608 140.168 48.5248 138.376 46.5536C138.197 46.3744 138.107 46.1056 138.286 45.8368C138.376 45.568 138.645 45.4784 138.914 45.4784C141.243 45.568 143.304 44.1344 144.021 41.8944C144.648 39.5648 144.2 37.1456 142.856 35.264C141.422 33.2928 139.63 31.5904 137.48 30.4256C137.211 30.2464 137.122 29.9776 137.211 29.7088C138.018 27.2 137.39 24.4224 135.509 22.4512C133.358 20.3008 128.699 19.4944 125.922 20.3008C125.563 20.3904 125.294 20.2112 125.115 19.9424C123.592 18.5088 122.069 17.0752 120.366 15.8208C118.574 14.9248 116.514 14.656 114.542 15.104C110.421 15.9104 107.195 18.8672 106.03 22.8096C105.941 22.9888 105.851 23.168 105.672 23.2576C105.493 23.3472 105.224 23.2576 105.045 23.168C104.776 22.9888 104.507 22.8992 104.238 22.8992V23.168Z" fill="#231F20"/>
<path d="M129.685 57.664C129.685 57.664 132.552 67.6992 130.85 69.0432C129.147 70.3872 125.832 68.0576 125.832 68.0576" fill="url(#paint4_linear_96_27)"/>
<path d="M129.506 70.0288C128.072 69.8496 126.638 69.4016 125.384 68.5056C125.115 68.3264 124.936 67.968 125.115 67.6096C125.294 67.3408 125.653 67.1616 126.011 67.3408C126.011 67.3408 126.101 67.3408 126.101 67.4304C126.907 67.968 129.326 69.312 130.402 68.416C131.208 67.7888 130.312 62.3232 129.058 57.7536C128.968 57.3952 129.058 57.0368 129.416 56.9472C129.774 56.8576 130.133 56.9472 130.222 57.3056V57.3952C130.939 59.8144 133 67.8784 131.118 69.4016C130.67 69.8496 130.043 70.0288 129.506 70.0288Z" fill="#231F20"/>
<path d="M133.627 39.0272C134.075 39.4752 134.344 40.1024 134.344 40.7296C134.613 42.9696 134.434 45.2096 133.896 47.36C133 51.5712 131.746 55.7824 130.312 59.904C128.52 65.3696 126.638 70.8352 124.578 76.2112C123.323 79.616 114.274 76.8384 113.019 75.3152L110.062 89.472C110.062 89.472 105.403 89.2928 99.2208 83.5584C93.0384 77.824 93.4864 76.1216 93.4864 76.1216L99.1312 60.4416C99.1312 60.4416 105.045 62.4128 110.869 56.4096C111.765 55.424 112.571 53.7216 113.646 53.0048C114.99 52.1088 116.514 52.288 117.678 51.0336C118.754 49.7792 119.202 48.0768 118.843 46.464C118.754 46.1056 118.664 45.6576 118.933 45.4784C119.112 45.3888 119.291 45.2992 119.56 45.2992C121.979 44.8512 123.592 42.5216 123.234 40.1024C123.234 40.1024 123.234 40.1024 123.234 40.0128C125.474 40.7296 127.714 38.9376 129.506 37.2352C128.968 37.7728 133 38.4896 133.09 38.5792C133.358 38.6688 133.627 38.848 133.806 39.0272H133.627Z" fill="white"/>
<path d="M110.062 90.0096C109.883 90.0096 105.045 89.7408 98.7726 84.0064C92.7694 78.5408 92.7694 76.48 92.859 75.9424L98.5038 60.2624C98.5934 59.904 98.9518 59.8144 99.3102 59.904C99.4894 59.9936 104.955 61.6064 110.421 56.0512C110.779 55.6032 111.137 55.1552 111.406 54.7072C111.854 53.9008 112.571 53.184 113.288 52.5568C113.825 52.1984 114.453 51.9296 115.169 51.7504C115.976 51.5712 116.693 51.2128 117.23 50.6752C118.216 49.6 118.574 48.0768 118.305 46.6432C118.126 46.1056 118.216 45.4784 118.574 45.0304C118.843 44.8512 119.112 44.672 119.47 44.672C120.545 44.4928 121.441 43.9552 121.979 43.0592C122.606 42.2528 122.785 41.1776 122.606 40.192C122.517 40.0128 122.606 39.744 122.785 39.5648C122.965 39.3856 123.144 39.3856 123.413 39.4752C125.384 40.1024 127.445 38.4 129.057 36.8768C129.326 36.608 129.685 36.608 129.953 36.8768C130.043 36.9664 130.133 37.056 130.133 37.1456C131.029 37.504 132.014 37.7728 133 37.952L133.269 38.0416C133.627 38.1312 133.896 38.3104 134.165 38.5792C134.702 39.1168 134.971 39.8336 135.061 40.64C135.509 42.9696 134.971 45.4784 134.613 47.4496C133.806 51.3024 132.731 55.1552 131.387 58.9184L131.029 60.0832C129.237 65.5488 127.355 71.0144 125.294 76.3904C124.846 77.5552 123.771 78.272 122.517 78.3616C119.739 78.8096 115.528 77.5552 113.557 76.3904L110.779 89.5616C110.6 89.8304 110.331 90.0096 110.062 90.0096ZM94.0238 76.3008C94.0238 76.3008 94.203 78.0928 99.579 83.0208C104.328 87.4112 108.181 88.3968 109.525 88.6656L112.392 75.0464C112.481 74.7776 112.661 74.5984 112.84 74.5984C113.109 74.5088 113.288 74.5984 113.467 74.7776C114.184 75.6736 119.022 77.4656 122.158 77.0176C123.144 76.8384 123.771 76.48 123.95 75.8528C126.011 70.4768 127.893 65.0112 129.685 59.6352L130.043 58.4704C131.387 54.7968 132.373 51.0336 133.269 47.1808C133.806 45.12 133.896 42.9696 133.717 40.8192C133.717 40.3712 133.537 39.8336 133.179 39.4752C133 39.3856 132.821 39.2064 132.641 39.1168H132.552C131.387 38.9376 130.312 38.5792 129.237 38.1312C127.713 39.5648 125.832 40.9088 123.771 40.7296C123.771 41.8048 123.502 42.7904 122.875 43.6864C122.069 44.8512 120.904 45.568 119.56 45.8368C119.47 45.8368 119.381 45.8368 119.291 45.8368C119.381 45.9264 119.381 46.1056 119.381 46.1952C119.739 47.9872 119.291 49.9584 118.037 51.3024C117.32 52.0192 116.424 52.5568 115.438 52.736C114.901 52.9152 114.363 53.0944 113.915 53.3632C113.288 53.9008 112.75 54.4384 112.392 55.1552C112.033 55.6928 111.675 56.1408 111.227 56.6784C106.209 61.7856 101.192 61.3376 99.4894 60.9792L94.0238 76.3008Z" fill="#231F20"/>
<path d="M115.349 54.7072C115.618 53.2736 115.528 51.84 114.99 50.4064C114.721 49.3312 114.363 48.256 113.826 47.2704C113.288 46.2848 112.302 45.568 111.138 45.3888C110.152 45.2992 109.166 45.7472 108.45 46.3744C107.733 47.0912 107.195 47.8976 106.926 48.8832C105.403 53.0048 106.21 57.664 109.077 61.0688C108.987 60.8896 108.987 60.8 108.898 60.6208" fill="white"/>
<path d="M108.987 61.7856C108.808 61.7856 108.629 61.696 108.539 61.6064C105.582 58.0224 104.776 53.184 106.299 48.7936C106.658 47.7184 107.195 46.8224 108.002 46.016C108.808 45.2096 109.973 44.7616 111.227 44.8512C112.571 45.0304 113.736 45.8368 114.363 47.0016C114.99 47.9872 115.349 49.152 115.618 50.3168C116.155 51.7504 116.245 53.3632 115.976 54.8864C115.886 55.2448 115.528 55.424 115.259 55.3344C114.901 55.2448 114.722 54.8864 114.811 54.6176C114.811 54.6176 114.811 54.6176 114.811 54.528C115.08 53.184 114.901 51.84 114.453 50.5856C114.184 49.5104 113.826 48.5248 113.378 47.6288C112.93 46.8224 112.123 46.1952 111.138 46.1056C110.331 46.1056 109.525 46.3744 108.987 46.912C108.36 47.5392 107.912 48.3456 107.554 49.152C106.21 52.8256 106.747 56.9472 109.077 60.0832C109.256 60.1728 109.346 60.2624 109.435 60.4416L109.614 60.8896C109.704 61.1584 109.614 61.5168 109.435 61.696C109.256 61.7856 109.166 61.7856 108.987 61.7856Z" fill="#231F20"/>
<path d="M113.019 75.2256C113.019 75.2256 108.808 72.2688 107.643 68.416C107.643 68.416 105.314 76.8384 111.675 81.5872L113.019 75.2256Z" fill="#231F20"/>
<path d="M111.675 82.2144C111.586 82.2144 111.406 82.2144 111.317 82.1248C104.686 77.1968 107.016 68.416 107.016 68.3264C107.106 68.0576 107.374 67.8784 107.643 67.8784C107.912 67.8784 108.181 68.0576 108.27 68.3264C109.346 72 113.378 74.7776 113.378 74.7776C113.557 74.9568 113.646 75.136 113.646 75.4048L112.302 81.7664C112.302 81.9456 112.123 82.1248 111.944 82.2144C111.854 82.1248 111.765 82.2144 111.675 82.2144ZM107.912 70.656C107.733 73.1648 107.912 77.4656 111.227 80.4224L112.213 75.4944C110.6 74.24 109.077 72.5376 107.912 70.656Z" fill="#231F20"/>
<path d="M127.904 52.1215C128.29 51.0507 128.263 50.0603 127.844 49.9094C127.425 49.7584 126.773 50.5041 126.387 51.5749C126.001 52.6457 126.028 53.636 126.447 53.787C126.866 53.9379 127.518 53.1922 127.904 52.1215Z" fill="#231F20"/>
<path d="M125.742 67.968L120.366 63.6672C120.366 63.6672 116.245 70.4768 118.216 74.0608C120.187 77.6448 124.398 71.552 125.742 67.968Z" fill="url(#paint5_linear_96_27)"/>
<path d="M119.829 75.8528C118.933 75.8528 118.126 75.3152 117.768 74.4192C115.528 70.5664 119.739 63.6672 119.918 63.3984C120.008 63.2192 120.187 63.1296 120.366 63.1296C120.545 63.1296 120.725 63.1296 120.904 63.2192L126.28 67.52C126.459 67.6992 126.549 67.968 126.459 68.2368C125.653 70.5664 122.785 75.584 120.097 75.8528H119.829ZM120.545 64.6528C119.649 66.3552 117.32 71.104 118.843 73.792C119.291 74.5088 119.649 74.5984 119.918 74.5984C121.441 74.5088 123.771 71.1936 125.025 68.2368L120.545 64.6528Z" fill="#231F20"/>
<path d="M205.54 83.962L82.2407 178.503L131.964 243.352L255.263 148.811L205.54 83.962Z" fill="white"/>
<path d="M131.925 244.032C131.746 244.032 131.566 243.942 131.387 243.763L81.6592 178.982C81.5696 178.893 81.48 178.714 81.5696 178.534C81.5696 178.355 81.6592 178.176 81.8384 178.086L205.128 83.4688C205.397 83.2896 205.755 83.2896 206.024 83.5584L255.752 148.339C255.842 148.429 255.931 148.608 255.842 148.787C255.842 148.966 255.752 149.146 255.573 149.235L132.283 243.853C132.194 243.942 132.014 244.032 131.925 244.032ZM83.0928 178.714L132.014 242.509L254.408 148.698L205.486 84.9024L83.0928 178.714Z" fill="#231F20"/>
<path d="M142.408 223.424H142.318C142.139 223.424 141.96 223.334 141.87 223.155C141.781 223.066 141.691 222.886 141.602 222.797C137.39 217.331 129.506 216.256 124.04 220.467C123.771 220.646 123.413 220.646 123.144 220.378L102.178 193.05C101.998 192.781 101.998 192.422 102.267 192.154C107.733 187.942 108.808 180.147 104.597 174.592C104.507 174.502 104.418 174.323 104.328 174.234C104.238 174.144 104.149 173.965 104.149 173.786C104.149 173.606 104.238 173.427 104.418 173.338L194.645 104.077C194.914 103.898 195.362 103.898 195.541 104.256C195.63 104.346 195.72 104.525 195.81 104.614C200.021 110.08 207.906 111.155 213.371 106.944C213.461 106.854 213.64 106.765 213.819 106.854C213.998 106.854 214.178 106.944 214.267 107.123L235.234 134.451C235.413 134.72 235.413 135.078 235.144 135.347C229.678 139.558 228.603 147.443 232.814 152.909C232.904 152.998 232.994 153.178 233.083 153.267C233.173 153.357 233.262 153.536 233.262 153.715C233.262 153.894 233.173 154.074 232.994 154.163L142.766 223.334C142.677 223.334 142.587 223.424 142.408 223.424ZM131.656 216.614C135.867 216.614 139.899 218.586 142.498 221.901L231.739 153.446C227.349 147.622 228.245 139.379 233.89 134.63L213.73 108.288C207.726 112.499 199.483 111.245 195.003 105.421L105.762 173.875C110.152 179.699 109.256 188.032 103.611 192.691L123.771 219.034C126.101 217.421 128.878 216.525 131.656 216.614Z" fill="#D1D3D4"/>
<path d="M102.805 119.757C102.805 119.757 141.154 166.528 148.053 168.23C154.952 169.933 166.421 167.872 165.614 171.546C164.808 175.219 153.787 175.219 153.787 175.219C153.787 175.219 167.317 181.133 165.614 185.075C163.912 189.018 157.55 192.333 151.816 189.824C146.082 187.315 142.856 183.104 137.928 180.685C133 178.266 86.0496 134.899 86.0496 134.899L102.805 119.757Z" fill="white"/>
<path d="M156.027 191.347C154.504 191.347 152.981 191.078 151.637 190.451C148.77 189.107 146.171 187.405 143.752 185.344C141.87 183.731 139.899 182.387 137.659 181.222C132.642 178.803 87.5728 137.05 85.6912 135.347C85.6016 135.258 85.512 135.078 85.512 134.899C85.512 134.72 85.6016 134.541 85.6912 134.451L102.357 119.398C102.446 119.309 102.626 119.219 102.805 119.219C102.984 119.219 103.163 119.309 103.253 119.398C113.915 132.39 142.677 166.349 148.142 167.603C151.099 168.141 154.056 168.41 157.102 168.41C161.314 168.499 164.629 168.589 165.794 170.022C166.152 170.47 166.242 171.098 166.152 171.635C165.525 174.592 159.79 175.398 156.386 175.667C160.507 177.728 167.675 181.85 166.242 185.254C165.077 187.584 163.106 189.466 160.597 190.362C159.163 190.989 157.64 191.347 156.027 191.347ZM87.0352 134.899C92.1424 139.558 133.627 177.907 138.197 180.147C140.437 181.312 142.498 182.746 144.469 184.448C146.798 186.419 149.307 188.122 152.085 189.376C154.594 190.451 157.461 190.451 160.059 189.376C162.21 188.57 164.002 187.046 165.077 184.896C166.062 182.566 158.894 178.176 153.518 175.846C153.25 175.757 153.07 175.398 153.16 175.13C153.25 174.861 153.429 174.592 153.787 174.592C157.819 174.592 164.45 173.696 164.987 171.456C165.077 171.277 164.987 171.008 164.898 170.918C164.181 169.933 160.597 169.843 157.192 169.754C154.056 169.754 151.01 169.485 147.963 168.947C141.243 167.334 107.195 126.118 102.805 120.742L87.0352 134.899Z" fill="#231F20"/>
<path d="M89.9024 96.1024L105.672 116.71L83.272 137.408L69.832 121.907" fill="url(#paint6_linear_96_27)"/>
<path d="M83.272 138.035C83.0928 138.035 82.9136 137.946 82.824 137.856L69.384 122.355C69.1152 122.086 69.2048 121.728 69.4736 121.459C69.7424 121.19 70.1008 121.28 70.3696 121.549L83.3616 136.512L104.866 116.71L89.4544 96.5504C89.3648 96.192 89.4544 95.8336 89.8128 95.744C89.992 95.6544 90.2608 95.6544 90.44 95.8336L106.21 116.442C106.389 116.71 106.389 117.069 106.12 117.248L83.72 137.856C83.6304 137.946 83.4512 137.946 83.272 138.035Z" fill="#231F20"/>
<path d="M321.518 124.147C325.192 124.416 328.866 125.402 332.181 127.104C337.915 129.882 343.47 134.451 344.814 140.634C345.89 145.741 343.918 150.938 341.499 155.507C339.08 160.077 336.034 164.467 334.69 169.485C333.346 174.502 333.973 180.506 337.915 183.821C332.718 181.491 327.342 179.072 323.131 175.219C320.622 172.979 318.562 170.022 318.293 166.707C318.114 163.93 319.189 161.331 320.264 158.733C321.877 154.97 323.579 151.117 323.848 147.085C324.117 143.053 322.594 138.573 319.01 136.422C315.874 134.63 305.838 134.81 307.362 129.165C308.616 124.864 317.934 124.058 321.518 124.147Z" fill="white"/>
<path d="M337.826 184.538C337.736 184.538 337.646 184.538 337.557 184.448C332.36 182.118 326.984 179.699 322.594 175.757C319.547 172.979 317.755 169.843 317.576 166.797C317.397 164.019 318.382 161.331 319.547 158.554L319.726 158.016C321.25 154.522 322.773 150.848 323.042 147.085C323.31 142.694 321.518 138.842 318.562 137.05C317.307 136.512 315.963 136.064 314.619 135.795C311.662 135.078 308.258 134.272 307.003 132.122C306.466 131.136 306.376 129.971 306.734 128.986C308.078 124.058 317.845 123.251 321.518 123.43C325.282 123.699 329.045 124.685 332.45 126.477C336.571 128.448 343.829 132.928 345.352 140.454C346.248 144.845 345.173 149.683 341.947 155.776C341.32 156.941 340.603 158.106 339.976 159.27C338.094 162.496 336.213 165.901 335.138 169.574C333.973 173.786 334.062 179.878 338.184 183.283C338.453 183.462 338.453 183.91 338.274 184.179C338.274 184.448 338.094 184.538 337.826 184.538ZM320.712 124.774C316.501 124.774 308.974 125.85 307.989 129.434C307.72 130.15 307.81 130.957 308.168 131.584C309.154 133.286 312.29 134.003 314.978 134.63C316.501 134.899 317.934 135.347 319.278 135.974C322.683 137.946 324.654 142.336 324.386 147.174C324.117 151.206 322.504 154.88 320.981 158.554L320.802 159.091C319.637 161.779 318.741 164.198 318.92 166.707C319.189 170.112 321.608 172.979 323.579 174.861C327.074 177.997 331.285 180.237 335.586 182.118C332.987 178.266 333.077 173.069 334.152 169.306C335.227 165.542 337.198 162.048 339.08 158.733C339.707 157.568 340.424 156.403 341.051 155.238C344.098 149.504 345.173 144.845 344.277 140.813C342.843 133.824 335.944 129.523 332.002 127.642C328.776 125.939 325.192 124.954 321.608 124.774H320.712Z" fill="#231F20"/>
<path d="M317.038 125.402C318.293 127.552 318.741 129.971 318.382 132.39C318.293 134.003 317.665 135.616 316.68 136.87C315.336 138.394 313.365 139.11 311.393 138.931C310.497 138.931 309.691 138.573 308.974 137.946C308.526 137.408 308.168 136.691 308.078 135.974C307.003 130.957 310.677 115.546 317.038 125.402Z" fill="#231F20"/>
<path d="M311.842 139.648C311.662 139.648 311.483 139.648 311.304 139.648C310.229 139.648 309.243 139.2 308.526 138.483C307.989 137.856 307.63 137.05 307.541 136.154C306.734 132.48 308.347 123.251 312.021 121.728C313.813 121.011 315.694 122.086 317.576 125.043C318.92 127.283 319.368 129.882 319.01 132.48C318.92 134.272 318.293 135.885 317.218 137.318C315.784 138.842 313.902 139.648 311.842 139.648ZM313.006 122.803C312.827 122.803 312.558 122.803 312.379 122.893C309.602 123.968 307.899 132.301 308.706 135.885C308.795 136.512 309.064 137.139 309.422 137.587C309.96 138.035 310.677 138.394 311.394 138.394C313.186 138.573 314.977 137.856 316.142 136.512C317.038 135.347 317.576 133.914 317.666 132.39C318.024 130.15 317.576 127.821 316.411 125.76C315.605 124.326 314.261 122.803 313.006 122.803Z" fill="#231F20"/>
<path d="M283.886 158.733C285.41 160.525 287.65 161.51 291.413 161.062C294.549 160.614 297.506 159.45 300.014 157.568C310.139 150.4 315.336 138.214 313.454 125.939C311.394 113.843 299.298 101.747 286.306 106.406C281.826 108.019 278.331 111.514 276.718 115.994C275.016 115.277 272.955 115.994 271.701 117.338C268.296 120.742 268.475 124.326 270.267 128.269C273.224 134.899 276.898 141.171 279.586 147.891C281.109 151.923 281.736 156.134 283.886 158.733Z" fill="white"/>
<path d="M289.8 161.779C287.381 161.958 284.962 160.973 283.438 159.091C281.915 157.299 281.109 154.701 280.302 152.102C279.944 150.848 279.496 149.504 278.958 148.16C277.346 144.218 275.464 140.365 273.582 136.602C272.238 134.003 270.894 131.315 269.64 128.538C267.49 123.789 267.938 120.026 271.163 116.89C272.507 115.456 274.389 114.829 276.27 115.187C278.062 110.797 281.557 107.392 285.947 105.869C291.054 103.987 296.789 104.614 301.448 107.482C308.078 111.514 312.648 118.234 313.992 125.85C315.874 138.304 310.587 150.758 300.373 158.106C297.774 159.987 294.728 161.242 291.502 161.69C290.965 161.779 290.427 161.779 289.8 161.779ZM284.424 158.374C285.947 160.166 288.187 160.883 291.413 160.525C294.459 160.077 297.326 158.912 299.746 157.12C309.602 150.131 314.709 138.125 312.917 126.118C311.573 118.861 307.272 112.499 301 108.646C296.699 105.958 291.323 105.421 286.574 107.123C282.274 108.646 278.958 112.051 277.435 116.262C277.346 116.442 277.256 116.531 277.077 116.621C276.898 116.71 276.718 116.71 276.539 116.621C275.016 115.994 273.224 116.8 272.149 117.786C269.282 120.653 268.923 123.699 270.894 128.09C272.149 130.778 273.493 133.466 274.747 136.064C276.629 139.827 278.6 143.77 280.213 147.712C280.75 149.056 281.109 150.4 281.557 151.744C282.274 154.342 282.99 156.672 284.424 158.374Z" fill="#231F20"/>
<path d="M274.21 130.778C274.21 130.778 266.325 137.498 266.952 139.558C267.579 141.619 271.701 141.53 271.701 141.53" fill="url(#paint7_linear_96_27)"/>
<path d="M271.611 142.157C270.894 142.157 267.041 142.067 266.325 139.738C265.608 137.408 271.79 131.942 273.761 130.33C274.03 130.061 274.389 130.15 274.657 130.419C274.926 130.688 274.837 131.046 274.568 131.315C270.894 134.451 267.221 138.394 267.489 139.379C267.937 140.723 270.715 140.902 271.611 140.902C271.969 140.902 272.238 141.171 272.238 141.53C272.328 141.888 272.059 142.157 271.611 142.157C271.701 142.157 271.701 142.157 271.611 142.157Z" fill="#231F20"/>
<path d="M269.909 176.026C278.779 176.742 293.922 167.782 294.011 167.424C295.893 161.69 297.954 149.952 297.954 149.952C297.954 149.952 291.95 148.25 290.427 140.096C288.904 131.942 281.467 130.688 278.51 120.026C274.21 121.907 273.493 128.179 272.418 132.122C270.894 137.677 269.461 143.232 268.206 148.787C267.4 152.371 276.45 154.97 278.331 154.432C276.898 158.016 274.12 165.184 269.909 176.026Z" fill="white"/>
<path d="M270.894 176.742C270.536 176.742 270.267 176.742 269.909 176.742C269.73 176.742 269.55 176.653 269.461 176.474C269.371 176.294 269.371 176.115 269.371 175.936C275.285 160.704 275.643 159.808 277.346 155.328C275.016 155.238 270.894 153.894 268.834 152.013C267.848 151.296 267.4 150.042 267.579 148.877C268.834 143.322 270.267 137.677 271.88 132.211C272.059 131.584 272.238 130.867 272.418 130.061C273.314 126.208 274.478 121.37 278.331 119.667C278.51 119.578 278.69 119.578 278.869 119.667C279.048 119.757 279.138 119.846 279.227 120.026C280.75 125.402 283.349 128.269 285.858 131.046C288.187 133.645 290.427 136.064 291.234 140.186C292.667 147.802 298.043 149.414 298.312 149.504C298.581 149.594 298.85 149.862 298.76 150.221C298.67 150.669 296.699 162.048 294.818 167.782C294.37 168.589 279.675 176.742 270.894 176.742ZM270.894 175.488H270.984C279.138 175.488 292.04 168.32 293.474 167.155C295.086 162.138 296.878 152.73 297.237 150.49C295.624 149.862 291.144 147.443 289.89 140.365C289.173 136.602 287.202 134.451 284.872 131.853C282.542 129.254 279.765 126.298 278.152 121.101C275.374 122.803 274.389 126.925 273.582 130.24C273.403 131.046 273.224 131.763 273.045 132.39C271.522 137.856 270.088 143.501 268.834 149.056C268.744 149.862 269.102 150.579 269.73 151.027C272.059 153.178 277.077 154.342 278.152 153.984C278.421 153.894 278.6 153.984 278.779 154.163C278.958 154.342 278.958 154.611 278.869 154.79C276.898 159.987 276.898 160.077 270.894 175.488Z" fill="#231F20"/>
<path d="M269.461 144.845C269.461 144.845 272.955 148.698 276.539 144.934L269.461 144.845Z" fill="url(#paint8_linear_96_27)"/>
<path d="M273.134 147.264C271.521 147.174 270.088 146.458 269.013 145.293C268.744 145.024 268.744 144.666 269.013 144.397C269.281 144.128 269.64 144.128 269.909 144.397C270.715 145.293 271.88 145.83 273.134 145.92C274.299 145.83 275.285 145.382 276.001 144.486C276.27 144.218 276.629 144.218 276.897 144.486C277.166 144.755 277.166 145.114 276.897 145.382C276.001 146.458 274.657 147.174 273.134 147.264Z" fill="#231F20"/>
<path d="M278.241 154.522C278.241 154.522 282.901 155.597 286.037 153.088C286.037 153.088 283.349 161.421 275.374 161.779L278.241 154.522Z" fill="#231F20"/>
<path d="M275.464 162.406C275.285 162.406 275.105 162.317 274.926 162.138C274.837 161.958 274.747 161.779 274.837 161.51L277.614 154.253C277.704 153.984 278.062 153.805 278.331 153.894C278.331 153.894 282.811 154.88 285.589 152.55C285.857 152.371 286.216 152.371 286.485 152.64C286.664 152.819 286.664 152.998 286.574 153.267C286.664 153.357 283.707 162.048 275.464 162.406ZM278.689 155.238L276.449 161.062C281.019 160.435 283.528 156.851 284.693 154.611C282.721 155.418 280.661 155.597 278.689 155.238Z" fill="#231F20"/>
<path d="M277.643 128.889C277.88 127.776 277.719 126.798 277.284 126.706C276.848 126.613 276.303 127.44 276.065 128.553C275.828 129.666 275.989 130.644 276.425 130.736C276.86 130.829 277.406 130.002 277.643 128.889Z" fill="#231F20"/>
<path d="M284.603 136.87C285.141 135.526 286.037 134.362 287.202 133.555C288.008 132.749 288.904 132.122 289.89 131.674C290.875 131.136 292.13 131.136 293.115 131.584C294.011 132.122 294.549 132.928 294.818 133.914C294.997 134.899 294.997 135.885 294.728 136.87C293.742 141.171 290.517 144.576 286.216 145.83L286.574 145.562" fill="white"/>
<path d="M286.306 146.368C285.947 146.368 285.678 146.099 285.678 145.741C285.678 145.562 285.768 145.293 285.947 145.203L286.395 144.934C286.574 144.845 286.754 144.845 286.843 144.845C290.517 143.501 293.205 140.365 294.101 136.602C294.37 135.706 294.37 134.81 294.19 133.914C294.011 133.107 293.563 132.39 292.846 132.032C291.95 131.674 290.965 131.674 290.158 132.122C289.262 132.57 288.366 133.197 287.56 133.914C286.485 134.72 285.678 135.706 285.141 136.96C285.051 137.318 284.693 137.498 284.334 137.318C284.066 137.229 283.886 136.87 283.976 136.602C284.514 135.168 285.499 133.914 286.754 132.928C287.65 132.122 288.546 131.405 289.621 130.867C290.786 130.33 292.219 130.33 293.384 130.867C294.37 131.494 295.176 132.48 295.355 133.645C295.534 134.72 295.534 135.795 295.266 136.87C294.19 141.35 290.786 144.934 286.306 146.278C286.395 146.278 286.306 146.278 286.306 146.368Z" fill="#231F20"/>
<path d="M268.475 169.485C268.475 169.485 295.355 158.643 303.688 168.141C312.021 177.638 316.68 199.501 313.186 246.989L250.376 244.838C250.376 244.659 255.394 175.309 268.475 169.485Z" fill="url(#paint9_linear_96_27)"/>
<path d="M231.202 183.821C228.334 181.312 204.232 149.325 203.874 144.128C203.515 138.931 201.365 129.792 200.11 130.419C198.856 131.046 198.229 139.379 198.229 139.379C198.229 139.379 192.315 128.717 189.717 128.717C187.118 128.717 181.205 135.706 181.563 139.379C181.922 143.053 209.518 208.909 222.331 210.79C235.144 212.672 268.654 197.619 271.701 196.992C274.747 196.365 285.947 171.904 271.701 168.32C271.79 168.32 234.158 186.33 231.202 183.821Z" fill="white"/>
<path d="M224.84 211.507C224.034 211.507 223.138 211.418 222.331 211.328C208.891 209.357 181.384 143.411 181.026 139.379C180.846 137.05 182.907 133.645 184.878 131.494C185.595 130.688 188.014 128.09 189.806 128C192.046 128 195.81 133.734 197.781 137.229C198.139 134.093 198.677 130.33 199.842 129.792C200.11 129.613 200.469 129.702 200.738 129.882C202.53 130.867 204.232 139.827 204.501 144.038C204.77 148.877 228.155 180.326 231.56 183.283C233.352 184.627 253.243 176.384 271.432 167.603C271.522 167.514 271.701 167.514 271.88 167.603C276.898 168.858 279.496 172.89 279.406 179.072C279.227 186.867 274.299 197.082 271.88 197.53C271.253 197.619 268.923 198.515 266.056 199.68C255.931 203.712 235.771 211.507 224.84 211.507ZM189.806 129.344C189.09 129.344 187.566 130.33 185.774 132.39C183.534 134.899 182.101 137.677 182.28 139.29C182.638 143.501 210.683 208.371 222.51 210.074C232.366 211.507 254.766 202.726 265.608 198.515C268.834 197.261 270.984 196.454 271.701 196.275C273.045 196.006 278.062 187.046 278.242 178.982C278.331 173.427 276.27 170.022 271.88 168.858C270.446 169.574 261.755 173.696 252.885 177.459C232.994 185.971 231.47 184.717 230.843 184.179C228.155 181.85 203.605 149.683 203.336 144.038C203.067 139.2 201.365 132.301 200.379 131.046C199.842 132.032 199.214 135.885 198.946 139.29C198.946 139.558 198.766 139.827 198.498 139.827C198.229 139.917 197.96 139.738 197.781 139.558C194.914 134.72 191.15 129.344 189.806 129.344Z" fill="#231F20"/>
<defs>
<linearGradient id="paint0_linear_96_27" x1="212.117" y1="75.2256" x2="212.117" y2="80.6016" gradientUnits="userSpaceOnUse">
<stop stop-color="#68E1FD"/>
<stop offset="1" stop-color="#0D54DB"/>
</linearGradient>
<linearGradient id="paint1_linear_96_27" x1="10.5169" y1="8.832" x2="10.5169" y2="14.208" gradientUnits="userSpaceOnUse">
<stop stop-color="#68E1FD"/>
<stop offset="1" stop-color="#0D54DB"/>
</linearGradient>
<linearGradient id="paint2_linear_96_27" x1="126.907" y1="82.752" x2="126.907" y2="121.907" gradientUnits="userSpaceOnUse">
<stop stop-color="#68E1FD"/>
<stop offset="1" stop-color="#0D54DB"/>
</linearGradient>
<linearGradient id="paint3_linear_96_27" x1="83.5623" y1="74.1789" x2="83.5623" y2="188.838" gradientUnits="userSpaceOnUse">
<stop stop-color="#68E1FD"/>
<stop offset="1" stop-color="#0D54DB"/>
</linearGradient>
<linearGradient id="paint4_linear_96_27" x1="128.611" y1="57.664" x2="128.611" y2="69.4609" gradientUnits="userSpaceOnUse">
<stop stop-color="white"/>
<stop offset="1" stop-color="#C9C9C9"/>
</linearGradient>
<linearGradient id="paint5_linear_96_27" x1="121.712" y1="63.6672" x2="121.712" y2="75.1517" gradientUnits="userSpaceOnUse">
<stop stop-color="white"/>
<stop offset="1" stop-color="#C9C9C9"/>
</linearGradient>
<linearGradient id="paint6_linear_96_27" x1="87.752" y1="96.1024" x2="87.752" y2="137.408" gradientUnits="userSpaceOnUse">
<stop stop-color="#68E1FD"/>
<stop offset="1" stop-color="#0D54DB"/>
</linearGradient>
<linearGradient id="paint7_linear_96_27" x1="270.563" y1="130.778" x2="270.563" y2="141.53" gradientUnits="userSpaceOnUse">
<stop stop-color="white"/>
<stop offset="1" stop-color="#C9C9C9"/>
</linearGradient>
<linearGradient id="paint8_linear_96_27" x1="273" y1="144.845" x2="273" y2="146.584" gradientUnits="userSpaceOnUse">
<stop stop-color="white"/>
<stop offset="1" stop-color="#C9C9C9"/>
</linearGradient>
<linearGradient id="paint9_linear_96_27" x1="282.367" y1="164.242" x2="282.367" y2="246.989" gradientUnits="userSpaceOnUse">
<stop stop-color="#68E1FD"/>
<stop offset="1" stop-color="#0D54DB"/>
</linearGradient>
</defs>
</svg>
