<svg width="527" height="340" viewBox="0 0 527 340" fill="none" xmlns="http://www.w3.org/2000/svg">
<path d="M425.802 163.968H251.888V350.426H425.802V163.968Z" fill="white"/>
<path d="M425.712 351.053H251.888C251.53 351.053 251.261 350.784 251.261 350.426V163.968C251.261 163.61 251.53 163.341 251.888 163.341H425.802C426.16 163.341 426.429 163.61 426.429 163.968V350.426C426.339 350.784 426.07 351.053 425.712 351.053ZM252.515 349.798H425.174V164.595H252.515V349.798Z" fill="#231F20"/>
<path d="M425.802 163.968H251.888V184.666H425.802V163.968Z" fill="white"/>
<path d="M425.712 185.203H251.888C251.53 185.203 251.261 184.934 251.261 184.576V163.968C251.261 163.61 251.53 163.341 251.888 163.341H425.802C426.16 163.341 426.429 163.61 426.429 163.968V184.576C426.429 184.934 426.07 185.203 425.712 185.203C425.802 185.203 425.802 185.203 425.712 185.203ZM252.515 183.949H425.174V164.506H252.515V183.949Z" fill="#231F20"/>
<path d="M261.117 176.602C262.601 176.602 263.805 175.398 263.805 173.914C263.805 172.429 262.601 171.226 261.117 171.226C259.632 171.226 258.429 172.429 258.429 173.914C258.429 175.398 259.632 176.602 261.117 176.602Z" fill="url(#paint0_linear_75_27)"/>
<path d="M270.704 176.602C272.188 176.602 273.392 175.398 273.392 173.914C273.392 172.429 272.188 171.226 270.704 171.226C269.219 171.226 268.016 172.429 268.016 173.914C268.016 175.398 269.219 176.602 270.704 176.602Z" fill="#D1D3D4"/>
<path d="M280.201 176.602C281.686 176.602 282.889 175.398 282.889 173.914C282.889 172.429 281.686 171.226 280.201 171.226C278.717 171.226 277.513 172.429 277.513 173.914C277.513 175.398 278.717 176.602 280.201 176.602Z" fill="#D1D3D4"/>
<path d="M405.731 302.221H383.51C383.152 302.221 382.883 301.952 382.883 301.594C382.883 301.235 383.152 300.966 383.51 300.966H405.731C406.089 300.966 406.358 301.235 406.358 301.594C406.358 301.862 406.089 302.221 405.731 302.221Z" fill="#D1D3D4"/>
<path d="M397.488 315.392H383.51C383.152 315.392 382.883 315.123 382.883 314.765C382.883 314.406 383.152 314.138 383.51 314.138H397.488C397.846 314.138 398.115 314.406 398.115 314.765C398.115 315.123 397.846 315.392 397.488 315.392Z" fill="#D1D3D4"/>
<path d="M403.939 336.448H387.184C384.854 336.448 382.883 334.566 382.883 332.147V329.459C382.883 327.13 384.765 325.158 387.184 325.158H403.939C406.269 325.158 408.24 327.04 408.24 329.459V332.147C408.24 334.477 406.269 336.448 403.939 336.448ZM387.184 326.323C385.481 326.323 384.137 327.667 384.137 329.37V332.058C384.137 333.76 385.481 335.104 387.184 335.104H403.939C405.641 335.104 406.985 333.76 406.985 332.058V329.37C406.985 327.667 405.641 326.323 403.939 326.323H387.184Z" fill="#D1D3D4"/>
<path d="M327.869 265.843C327.869 265.843 289.072 271.398 283.875 265.843C278.678 260.288 266.762 228.749 266.762 228.749L252.874 240.128C252.874 240.128 263.267 299.264 280.829 298.906C298.39 298.547 337.814 284.122 337.814 284.122L327.869 265.843Z" fill="white"/>
<path d="M280.739 299.533C262.909 299.533 252.784 242.637 252.336 240.218C252.336 240.038 252.336 239.77 252.515 239.59L266.314 228.211C266.493 228.122 266.672 228.032 266.851 228.122C267.03 228.211 267.21 228.301 267.299 228.48C267.389 228.838 279.216 260.019 284.323 265.395C288.445 269.696 317.027 266.739 327.779 265.216C328.048 265.216 328.317 265.306 328.406 265.574L338.352 283.942C338.531 284.211 338.442 284.659 338.083 284.838H337.994C337.635 285.018 298.301 299.354 280.829 299.622L280.739 299.533ZM253.59 240.397C254.486 245.325 264.611 298.278 280.65 298.278H280.739C296.778 298.01 331.453 285.734 336.829 283.853L327.421 266.56C325.45 266.829 316.758 267.994 307.798 268.531C293.91 269.427 285.667 268.71 283.338 266.291C278.499 261.184 268.374 234.931 266.403 229.824L253.59 240.397Z" fill="#231F20"/>
<path d="M223.81 97.3033H50.4888V362.86H223.81V97.3033Z" fill="white"/>
<path d="M224.106 345.629H50.1029C49.7442 345.629 49.4751 345.273 49.4751 344.799V98.133C49.4751 97.6589 49.7442 97.3033 50.1029 97.3033H224.196C224.554 97.3033 224.824 97.6589 224.824 98.133V344.799C224.734 345.273 224.465 345.629 224.106 345.629ZM50.6411 343.97H223.478V98.9627H50.7308L50.6411 343.97Z" fill="#231F20"/>
<path d="M224.202 97.5744H50.2881V118.272H224.202V97.5744Z" fill="white"/>
<path d="M224.112 118.81H50.2881C49.9297 118.81 49.6609 118.541 49.6609 118.182V97.4848C49.6609 97.1264 49.9297 96.8576 50.2881 96.8576H224.202C224.56 96.8576 224.829 97.1264 224.829 97.4848V118.093C224.739 118.541 224.47 118.81 224.112 118.81ZM50.8257 117.555H223.485V98.112H50.9153L50.8257 117.555Z" fill="#231F20"/>
<path d="M59.5169 110.208C61.0014 110.208 62.2049 109.005 62.2049 107.52C62.2049 106.035 61.0014 104.832 59.5169 104.832C58.0323 104.832 56.8289 106.035 56.8289 107.52C56.8289 109.005 58.0323 110.208 59.5169 110.208Z" fill="url(#paint1_linear_75_27)"/>
<path d="M69.0144 110.208C70.499 110.208 71.7024 109.005 71.7024 107.52C71.7024 106.035 70.499 104.832 69.0144 104.832C67.5299 104.832 66.3264 106.035 66.3264 107.52C66.3264 109.005 67.5299 110.208 69.0144 110.208Z" fill="#D1D3D4"/>
<path d="M78.6016 110.208C80.0861 110.208 81.2896 109.005 81.2896 107.52C81.2896 106.035 80.0861 104.832 78.6016 104.832C77.117 104.832 75.9136 106.035 75.9136 107.52C75.9136 109.005 77.117 110.208 78.6016 110.208Z" fill="#D1D3D4"/>
<path d="M100.822 139.776H69.0144C68.656 139.776 68.3872 139.507 68.3872 139.149C68.3872 138.79 68.656 138.522 69.0144 138.522H100.822C101.181 138.522 101.45 138.79 101.45 139.149C101.45 139.507 101.181 139.776 100.822 139.776Z" fill="#D1D3D4"/>
<path d="M84.9632 157.696H69.0144C68.656 157.696 68.3872 157.427 68.3872 157.069C68.3872 156.71 68.656 156.442 69.0144 156.442H84.9632C85.3216 156.442 85.5904 156.71 85.5904 157.069C85.5904 157.427 85.3216 157.696 84.9632 157.696Z" fill="#D1D3D4"/>
<path d="M76.9888 189.235C71.6128 189.235 67.2224 184.845 67.2224 179.469C67.2224 174.093 71.6128 169.792 76.8992 169.792C82.2752 169.792 86.6656 174.182 86.6656 179.469C86.6656 184.934 82.3648 189.235 76.9888 189.235ZM76.9888 171.046C72.3296 171.046 68.4768 174.81 68.4768 179.469C68.4768 184.128 72.24 187.891 76.8992 187.891C81.5584 187.891 85.4112 184.128 85.4112 179.469C85.5008 174.899 81.648 171.046 76.9888 171.046Z" fill="#D1D3D4"/>
<path d="M76.9888 182.784C76.72 182.784 76.6304 182.694 76.4512 182.515L72.7776 177.498C72.5984 177.229 72.5984 176.781 72.9568 176.602C73.2256 176.422 73.6736 176.422 73.8528 176.691L77.0784 181.082L89.8016 168.538C90.0704 168.269 90.4288 168.269 90.6976 168.538C90.9664 168.806 90.9664 169.165 90.6976 169.434L77.4368 182.515C77.3472 182.694 77.168 182.784 76.9888 182.784Z" fill="#D1D3D4"/>
<path d="M93.5655 262.009L92.0452 343.602H158.941L156.914 279.24L93.5655 262.009Z" fill="#231F20"/>
<path d="M159.302 345.629H92.6746C92.4947 345.629 92.3149 345.299 92.225 344.969C92.1351 344.31 92.0452 343.65 92.0452 342.99L96.1813 264.495C96.2712 263.175 96.5409 262.516 96.9006 262.516L155.795 301.104C156.065 301.104 156.245 301.764 156.245 302.753L159.931 342.66C160.021 343.98 159.841 345.299 159.572 345.629C159.392 345.629 159.392 345.629 159.302 345.629ZM93.3939 341.011H158.403L155.166 305.392L97.2603 267.463L93.3939 341.011Z" fill="#231F20"/>
<path d="M181.193 202.406L218.825 247.744L202.249 254.554L161.929 211.635L181.193 202.406Z" fill="white"/>
<path d="M202.249 255.181C202.07 255.181 201.891 255.091 201.801 255.002L161.481 212.083C161.302 211.904 161.302 211.725 161.302 211.546C161.302 211.366 161.481 211.187 161.661 211.098L180.925 201.869C181.193 201.779 181.462 201.779 181.641 202.048L219.273 247.386C219.363 247.565 219.453 247.744 219.363 247.923C219.273 248.102 219.184 248.282 219.005 248.371L202.429 255.181C202.429 255.181 202.339 255.181 202.249 255.181ZM162.915 211.814L202.339 253.837L217.75 247.565L180.925 203.213L162.915 211.814Z" fill="#231F20"/>
<path d="M169.814 178.752L188.899 203.661L162.915 217.907L169.814 178.752Z" fill="url(#paint2_linear_75_27)"/>
<path d="M169.814 178.752C168.201 176.154 132.093 164.864 120.176 173.197C108.259 181.53 95.7151 246.221 92.3999 266.202L164.707 284.838C164.707 284.838 178.595 192.998 169.814 178.752Z" fill="url(#paint3_linear_75_27)"/>
<path d="M168.381 268.621C167.933 268.621 167.753 268.262 167.753 267.904C167.843 267.366 174.205 211.456 172.144 197.478C172.054 197.12 172.323 196.851 172.681 196.762C173.04 196.672 173.309 196.941 173.398 197.299C175.459 211.456 169.277 265.754 169.008 268.083C168.918 268.442 168.649 268.621 168.381 268.621Z" fill="#231F20"/>
<path d="M149.834 163.162C145.891 161.818 142.307 160.115 139.44 156.8C138.096 155.456 137.29 153.754 136.931 151.962C136.752 150.08 137.648 148.019 139.44 147.482C137.738 146.317 136.662 144.435 136.662 142.285C136.662 140.224 137.2 138.253 138.186 136.461C139.44 134.131 141.501 131.891 144.189 131.802C143.203 129.741 142.307 127.411 143.203 125.35C143.741 124.365 144.547 123.469 145.443 122.842C147.235 121.498 149.117 120.243 151.088 119.258C152.163 118.72 153.507 118.272 154.493 118.989C155.658 114.778 159.152 111.552 163.542 110.746C165.603 110.298 167.843 110.566 169.725 111.552C170.352 111.821 175.011 115.942 174.742 115.942C177.789 115.046 182.717 115.853 184.957 118.182C186.928 120.333 187.645 123.29 186.749 126.067C188.989 127.322 190.87 129.024 192.394 131.085C193.917 133.146 194.365 135.834 193.648 138.342C192.842 140.762 190.422 142.643 187.914 142.285C190.064 144.525 190.154 148.019 188.182 150.349C186.122 152.589 182.986 153.395 180.118 152.32C179.76 152.141 179.312 152.051 178.954 152.051C178.506 152.23 178.058 152.499 177.699 152.858C176.355 153.843 174.832 153.485 173.398 154.112C171.517 154.918 169.725 156.71 168.022 157.786C166.32 158.95 164.528 160.026 162.646 161.011C160.586 162.086 158.704 163.789 156.374 164.506C154.403 165.133 153.238 164.237 151.357 163.61L149.834 163.162Z" fill="white"/>
<path d="M154.941 165.312C154.045 165.312 153.059 165.043 152.253 164.685C151.894 164.506 151.446 164.416 150.998 164.237L149.565 163.789C146.16 162.624 142.218 160.922 138.902 157.248C137.469 155.814 136.573 154.022 136.304 152.051C136.125 150.259 136.842 148.467 138.275 147.392C136.931 146.048 136.035 144.256 136.035 142.374C136.035 140.224 136.573 138.074 137.648 136.192C138.365 134.848 140.246 131.891 143.203 131.354C142.307 129.382 141.68 127.142 142.576 125.171C143.203 124.096 144.01 123.2 144.995 122.483C146.787 121.05 148.669 119.885 150.73 118.81C151.715 118.182 152.88 118.003 153.955 118.182C155.389 114.061 158.973 111.014 163.274 110.208C165.514 109.76 167.843 110.118 169.904 111.104C171.696 112.448 173.309 113.882 174.922 115.405C178.058 114.688 182.986 115.494 185.405 117.914C187.466 120.064 188.272 123.11 187.466 125.978C189.616 127.232 191.408 128.934 192.842 130.906C194.454 133.146 194.902 136.013 194.186 138.701C193.469 140.941 191.498 142.643 189.168 143.091C190.691 145.6 190.422 148.646 188.63 150.886C186.39 153.306 182.986 154.202 179.85 153.037H179.76C179.491 152.947 179.222 152.858 178.954 152.858C178.685 152.947 178.416 153.126 178.237 153.306L177.968 153.485C177.162 154.022 176.266 154.291 175.28 154.381C174.742 154.47 174.115 154.56 173.578 154.829C172.323 155.456 171.069 156.262 169.994 157.248C169.456 157.696 168.829 158.144 168.291 158.502C166.499 159.667 164.707 160.742 162.826 161.818C162.109 162.176 161.482 162.624 160.765 163.072C159.421 164.058 157.987 164.774 156.464 165.312C155.926 165.312 155.389 165.402 154.941 165.312ZM153.238 119.168C152.522 119.258 151.894 119.437 151.357 119.795C149.386 120.781 147.594 121.946 145.802 123.29C144.906 123.827 144.189 124.634 143.741 125.53C142.934 127.322 143.83 129.562 144.726 131.533C144.816 131.712 144.816 131.981 144.726 132.16C144.637 132.339 144.458 132.429 144.189 132.429C141.322 132.518 139.44 135.475 138.723 136.73C137.738 138.432 137.2 140.314 137.29 142.195C137.29 144.077 138.275 145.779 139.798 146.854C139.978 146.944 140.157 147.213 140.067 147.482C140.067 147.75 139.888 147.93 139.619 148.019C138.096 148.557 137.379 150.438 137.558 151.872C137.827 153.574 138.634 155.098 139.888 156.352C142.934 159.846 146.698 161.459 150.013 162.534L151.446 162.982C151.894 163.162 152.342 163.341 152.79 163.43C153.776 163.968 155.03 164.147 156.106 163.789C157.539 163.251 158.883 162.534 160.138 161.638C160.854 161.19 161.571 160.742 162.288 160.384C164.17 159.398 165.962 158.323 167.664 157.158C168.202 156.8 168.739 156.352 169.366 155.904C170.531 154.918 171.786 154.112 173.13 153.395C173.757 153.126 174.474 152.947 175.101 152.858C175.907 152.768 176.624 152.589 177.251 152.141L177.43 151.962C177.789 151.603 178.326 151.334 178.774 151.245C179.222 151.245 179.67 151.334 180.118 151.514H180.208C182.806 152.499 185.674 151.782 187.555 149.722C189.258 147.661 189.168 144.525 187.376 142.554C187.197 142.374 187.107 142.106 187.286 141.837C187.376 141.568 187.645 141.478 187.914 141.478C190.243 141.568 192.304 140.134 193.021 137.894C193.648 135.565 193.2 133.146 191.856 131.264C190.422 129.293 188.63 127.59 186.48 126.426C186.211 126.246 186.122 125.978 186.211 125.709C187.018 123.2 186.39 120.422 184.509 118.451C182.358 116.301 177.699 115.494 174.922 116.301C174.563 116.39 174.294 116.211 174.115 115.942C172.592 114.509 171.069 113.075 169.366 111.821C167.574 110.925 165.514 110.656 163.542 111.104C159.421 111.91 156.195 114.867 155.03 118.81C154.941 118.989 154.851 119.168 154.672 119.258C154.493 119.347 154.224 119.258 154.045 119.168C153.776 118.989 153.507 118.899 153.238 118.899V119.168Z" fill="#231F20"/>
<path d="M178.685 153.664C178.685 153.664 181.552 163.699 179.85 165.043C178.147 166.387 174.832 164.058 174.832 164.058" fill="url(#paint4_linear_75_27)"/>
<path d="M178.506 166.029C177.072 165.85 175.638 165.402 174.384 164.506C174.115 164.326 173.936 163.968 174.115 163.61C174.294 163.341 174.653 163.162 175.011 163.341C175.011 163.341 175.101 163.341 175.101 163.43C175.907 163.968 178.326 165.312 179.402 164.416C180.208 163.789 179.312 158.323 178.058 153.754C177.968 153.395 178.058 153.037 178.416 152.947C178.774 152.858 179.133 152.947 179.222 153.306V153.395C179.939 155.814 182 163.878 180.118 165.402C179.67 165.85 179.043 166.029 178.506 166.029Z" fill="#231F20"/>
<path d="M182.627 135.027C183.075 135.475 183.344 136.102 183.344 136.73C183.613 138.97 183.434 141.21 182.896 143.36C182 147.571 180.746 151.782 179.312 155.904C177.52 161.37 175.638 166.835 173.578 172.211C172.323 175.616 163.274 172.838 162.019 171.315L159.062 185.472C159.062 185.472 154.403 185.293 148.221 179.558C142.038 173.824 142.486 172.122 142.486 172.122L148.131 156.442C148.131 156.442 154.045 158.413 159.869 152.41C160.765 151.424 161.571 149.722 162.646 149.005C163.99 148.109 165.514 148.288 166.678 147.034C167.754 145.779 168.202 144.077 167.843 142.464C167.754 142.106 167.664 141.658 167.933 141.478C168.112 141.389 168.291 141.299 168.56 141.299C170.979 140.851 172.592 138.522 172.234 136.102C172.234 136.102 172.234 136.102 172.234 136.013C174.474 136.73 176.714 134.938 178.506 133.235C177.968 133.773 182 134.49 182.09 134.579C182.358 134.669 182.627 134.848 182.806 135.027H182.627Z" fill="white"/>
<path d="M159.062 186.01C158.883 186.01 154.045 185.741 147.773 180.006C141.769 174.541 141.769 172.48 141.859 171.942L147.504 156.262C147.593 155.904 147.952 155.814 148.31 155.904C148.489 155.994 153.955 157.606 159.421 152.051C159.779 151.603 160.137 151.155 160.406 150.707C160.854 149.901 161.571 149.184 162.288 148.557C162.825 148.198 163.453 147.93 164.169 147.75C164.976 147.571 165.693 147.213 166.23 146.675C167.216 145.6 167.574 144.077 167.305 142.643C167.126 142.106 167.216 141.478 167.574 141.03C167.843 140.851 168.112 140.672 168.47 140.672C169.545 140.493 170.441 139.955 170.979 139.059C171.606 138.253 171.785 137.178 171.606 136.192C171.517 136.013 171.606 135.744 171.785 135.565C171.965 135.386 172.144 135.386 172.413 135.475C174.384 136.102 176.445 134.4 178.057 132.877C178.326 132.608 178.685 132.608 178.953 132.877C179.043 132.966 179.133 133.056 179.133 133.146C180.029 133.504 181.014 133.773 182 133.952L182.269 134.042C182.627 134.131 182.896 134.31 183.165 134.579C183.702 135.117 183.971 135.834 184.061 136.64C184.509 138.97 183.971 141.478 183.613 143.45C182.806 147.302 181.731 151.155 180.387 154.918L180.029 156.083C178.237 161.549 176.355 167.014 174.294 172.39C173.846 173.555 172.771 174.272 171.517 174.362C168.739 174.81 164.528 173.555 162.557 172.39L159.779 185.562C159.6 185.83 159.331 186.01 159.062 186.01ZM143.024 172.301C143.024 172.301 143.203 174.093 148.579 179.021C153.328 183.411 157.181 184.397 158.525 184.666L161.392 171.046C161.481 170.778 161.661 170.598 161.84 170.598C162.109 170.509 162.288 170.598 162.467 170.778C163.184 171.674 168.022 173.466 171.158 173.018C172.144 172.838 172.771 172.48 172.95 171.853C175.011 166.477 176.893 161.011 178.685 155.635L179.043 154.47C180.387 150.797 181.373 147.034 182.269 143.181C182.806 141.12 182.896 138.97 182.717 136.819C182.717 136.371 182.537 135.834 182.179 135.475C182 135.386 181.821 135.206 181.641 135.117H181.552C180.387 134.938 179.312 134.579 178.237 134.131C176.713 135.565 174.832 136.909 172.771 136.73C172.771 137.805 172.502 138.79 171.875 139.686C171.069 140.851 169.904 141.568 168.56 141.837C168.47 141.837 168.381 141.837 168.291 141.837C168.381 141.926 168.381 142.106 168.381 142.195C168.739 143.987 168.291 145.958 167.037 147.302C166.32 148.019 165.424 148.557 164.438 148.736C163.901 148.915 163.363 149.094 162.915 149.363C162.288 149.901 161.75 150.438 161.392 151.155C161.033 151.693 160.675 152.141 160.227 152.678C155.209 157.786 150.192 157.338 148.489 156.979L143.024 172.301Z" fill="#231F20"/>
<path d="M164.349 150.707C164.618 149.274 164.528 147.84 163.99 146.406C163.721 145.331 163.363 144.256 162.826 143.27C162.288 142.285 161.302 141.568 160.138 141.389C159.152 141.299 158.166 141.747 157.45 142.374C156.733 143.091 156.195 143.898 155.926 144.883C154.403 149.005 155.21 153.664 158.077 157.069C157.987 156.89 157.987 156.8 157.898 156.621" fill="white"/>
<path d="M157.987 157.786C157.808 157.786 157.629 157.696 157.539 157.606C154.582 154.022 153.776 149.184 155.299 144.794C155.658 143.718 156.195 142.822 157.002 142.016C157.808 141.21 158.973 140.762 160.227 140.851C161.571 141.03 162.736 141.837 163.363 143.002C163.99 143.987 164.349 145.152 164.618 146.317C165.155 147.75 165.245 149.363 164.976 150.886C164.886 151.245 164.528 151.424 164.259 151.334C163.901 151.245 163.722 150.886 163.811 150.618C163.811 150.618 163.811 150.618 163.811 150.528C164.08 149.184 163.901 147.84 163.453 146.586C163.184 145.51 162.826 144.525 162.378 143.629C161.93 142.822 161.123 142.195 160.138 142.106C159.331 142.106 158.525 142.374 157.987 142.912C157.36 143.539 156.912 144.346 156.554 145.152C155.21 148.826 155.747 152.947 158.077 156.083C158.256 156.173 158.346 156.262 158.435 156.442L158.614 156.89C158.704 157.158 158.614 157.517 158.435 157.696C158.256 157.786 158.166 157.786 157.987 157.786Z" fill="#231F20"/>
<path d="M162.019 171.226C162.019 171.226 157.808 168.269 156.643 164.416C156.643 164.416 154.314 172.838 160.675 177.587L162.019 171.226Z" fill="#231F20"/>
<path d="M160.675 178.214C160.586 178.214 160.406 178.214 160.317 178.125C153.686 173.197 156.016 164.416 156.016 164.326C156.106 164.058 156.374 163.878 156.643 163.878C156.912 163.878 157.181 164.058 157.27 164.326C158.346 168 162.378 170.778 162.378 170.778C162.557 170.957 162.646 171.136 162.646 171.405L161.302 177.766C161.302 177.946 161.123 178.125 160.944 178.214C160.854 178.125 160.765 178.214 160.675 178.214ZM156.912 166.656C156.733 169.165 156.912 173.466 160.227 176.422L161.213 171.494C159.6 170.24 158.077 168.538 156.912 166.656Z" fill="#231F20"/>
<path d="M176.904 148.121C177.29 147.051 177.263 146.06 176.844 145.909C176.425 145.758 175.773 146.504 175.387 147.575C175.001 148.646 175.028 149.636 175.447 149.787C175.866 149.938 176.518 149.192 176.904 148.121Z" fill="#231F20"/>
<path d="M174.742 163.968L169.366 159.667C169.366 159.667 165.245 166.477 167.216 170.061C169.187 173.645 173.398 167.552 174.742 163.968Z" fill="url(#paint5_linear_75_27)"/>
<path d="M168.829 171.853C167.933 171.853 167.126 171.315 166.768 170.419C164.528 166.566 168.739 159.667 168.918 159.398C169.008 159.219 169.187 159.13 169.366 159.13C169.545 159.13 169.725 159.13 169.904 159.219L175.28 163.52C175.459 163.699 175.549 163.968 175.459 164.237C174.653 166.566 171.785 171.584 169.097 171.853H168.829ZM169.545 160.653C168.649 162.355 166.32 167.104 167.843 169.792C168.291 170.509 168.649 170.598 168.918 170.598C170.441 170.509 172.771 167.194 174.025 164.237L169.545 160.653Z" fill="#231F20"/>
<path d="M254.54 179.962L131.241 274.503L180.964 339.352L304.263 244.811L254.54 179.962Z" fill="white"/>
<path d="M180.925 340.032C180.746 340.032 180.566 339.942 180.387 339.763L130.659 274.982C130.57 274.893 130.48 274.714 130.57 274.534C130.57 274.355 130.659 274.176 130.838 274.086L254.128 179.469C254.397 179.29 254.755 179.29 255.024 179.558L304.752 244.339C304.842 244.429 304.931 244.608 304.842 244.787C304.842 244.966 304.752 245.146 304.573 245.235L181.283 339.853C181.194 339.942 181.014 340.032 180.925 340.032ZM132.093 274.714L181.014 338.509L303.408 244.698L254.486 180.902L132.093 274.714Z" fill="#231F20"/>
<path d="M191.408 319.424H191.318C191.139 319.424 190.96 319.334 190.87 319.155C190.781 319.066 190.691 318.886 190.602 318.797C186.39 313.331 178.506 312.256 173.04 316.467C172.771 316.646 172.413 316.646 172.144 316.378L151.178 289.05C150.998 288.781 150.998 288.422 151.267 288.154C156.733 283.942 157.808 276.147 153.597 270.592C153.507 270.502 153.418 270.323 153.328 270.234C153.238 270.144 153.149 269.965 153.149 269.786C153.149 269.606 153.238 269.427 153.418 269.338L243.645 200.077C243.914 199.898 244.362 199.898 244.541 200.256C244.63 200.346 244.72 200.525 244.81 200.614C249.021 206.08 256.906 207.155 262.371 202.944C262.461 202.854 262.64 202.765 262.819 202.854C262.998 202.854 263.178 202.944 263.267 203.123L284.234 230.451C284.413 230.72 284.413 231.078 284.144 231.347C278.678 235.558 277.603 243.443 281.814 248.909C281.904 248.998 281.994 249.178 282.083 249.267C282.173 249.357 282.262 249.536 282.262 249.715C282.262 249.894 282.173 250.074 281.994 250.163L191.766 319.334C191.677 319.334 191.587 319.424 191.408 319.424ZM180.656 312.614C184.867 312.614 188.899 314.586 191.498 317.901L280.739 249.446C276.349 243.622 277.245 235.379 282.89 230.63L262.73 204.288C256.726 208.499 248.483 207.245 244.003 201.421L154.762 269.875C159.152 275.699 158.256 284.032 152.611 288.691L172.771 315.034C175.101 313.421 177.878 312.525 180.656 312.614Z" fill="#D1D3D4"/>
<path d="M151.805 215.757C151.805 215.757 190.154 262.528 197.053 264.23C203.952 265.933 215.421 263.872 214.614 267.546C213.808 271.219 202.787 271.219 202.787 271.219C202.787 271.219 216.317 277.133 214.614 281.075C212.912 285.018 206.55 288.333 200.816 285.824C195.082 283.315 191.856 279.104 186.928 276.685C182 274.266 135.05 230.899 135.05 230.899L151.805 215.757Z" fill="white"/>
<path d="M205.027 287.347C203.504 287.347 201.981 287.078 200.637 286.451C197.77 285.107 195.171 283.405 192.752 281.344C190.87 279.731 188.899 278.387 186.659 277.222C181.642 274.803 136.573 233.05 134.691 231.347C134.602 231.258 134.512 231.078 134.512 230.899C134.512 230.72 134.602 230.541 134.691 230.451L151.357 215.398C151.446 215.309 151.626 215.219 151.805 215.219C151.984 215.219 152.163 215.309 152.253 215.398C162.915 228.39 191.677 262.349 197.142 263.603C200.099 264.141 203.056 264.41 206.102 264.41C210.314 264.499 213.629 264.589 214.794 266.022C215.152 266.47 215.242 267.098 215.152 267.635C214.525 270.592 208.79 271.398 205.386 271.667C209.507 273.728 216.675 277.85 215.242 281.254C214.077 283.584 212.106 285.466 209.597 286.362C208.163 286.989 206.64 287.347 205.027 287.347ZM136.035 230.899C141.142 235.558 182.627 273.907 187.197 276.147C189.437 277.312 191.498 278.746 193.469 280.448C195.798 282.419 198.307 284.122 201.085 285.376C203.594 286.451 206.461 286.451 209.059 285.376C211.21 284.57 213.002 283.046 214.077 280.896C215.062 278.566 207.894 274.176 202.518 271.846C202.25 271.757 202.07 271.398 202.16 271.13C202.25 270.861 202.429 270.592 202.787 270.592C206.819 270.592 213.45 269.696 213.987 267.456C214.077 267.277 213.987 267.008 213.898 266.918C213.181 265.933 209.597 265.843 206.192 265.754C203.056 265.754 200.01 265.485 196.963 264.947C190.243 263.334 156.195 222.118 151.805 216.742L136.035 230.899Z" fill="#231F20"/>
<path d="M138.902 192.102L154.672 212.71L132.272 233.408L118.832 217.907" fill="url(#paint6_linear_75_27)"/>
<path d="M132.272 234.035C132.093 234.035 131.914 233.946 131.824 233.856L118.384 218.355C118.115 218.086 118.205 217.728 118.474 217.459C118.742 217.19 119.101 217.28 119.37 217.549L132.362 232.512L153.866 212.71L138.454 192.55C138.365 192.192 138.454 191.834 138.813 191.744C138.992 191.654 139.261 191.654 139.44 191.834L155.21 212.442C155.389 212.71 155.389 213.069 155.12 213.248L132.72 233.856C132.63 233.946 132.451 233.946 132.272 234.035Z" fill="#231F20"/>
<path d="M370.518 220.147C374.192 220.416 377.866 221.402 381.181 223.104C386.915 225.882 392.47 230.451 393.814 236.634C394.89 241.741 392.918 246.938 390.499 251.507C388.08 256.077 385.034 260.467 383.69 265.485C382.346 270.502 382.973 276.506 386.915 279.821C381.718 277.491 376.342 275.072 372.131 271.219C369.622 268.979 367.562 266.022 367.293 262.707C367.114 259.93 368.189 257.331 369.264 254.733C370.877 250.97 372.579 247.117 372.848 243.085C373.117 239.053 371.594 234.573 368.01 232.422C364.874 230.63 354.838 230.81 356.362 225.165C357.616 220.864 366.934 220.058 370.518 220.147Z" fill="white"/>
<path d="M386.826 280.538C386.736 280.538 386.646 280.538 386.557 280.448C381.36 278.118 375.984 275.699 371.594 271.757C368.547 268.979 366.755 265.843 366.576 262.797C366.397 260.019 367.382 257.331 368.547 254.554L368.726 254.016C370.25 250.522 371.773 246.848 372.042 243.085C372.31 238.694 370.518 234.842 367.562 233.05C366.307 232.512 364.963 232.064 363.619 231.795C360.662 231.078 357.258 230.272 356.003 228.122C355.466 227.136 355.376 225.971 355.734 224.986C357.078 220.058 366.845 219.251 370.518 219.43C374.282 219.699 378.045 220.685 381.45 222.477C385.571 224.448 392.829 228.928 394.352 236.454C395.248 240.845 394.173 245.683 390.947 251.776C390.32 252.941 389.603 254.106 388.976 255.27C387.094 258.496 385.213 261.901 384.138 265.574C382.973 269.786 383.062 275.878 387.184 279.283C387.453 279.462 387.453 279.91 387.274 280.179C387.274 280.448 387.094 280.538 386.826 280.538ZM369.712 220.774C365.501 220.774 357.974 221.85 356.989 225.434C356.72 226.15 356.81 226.957 357.168 227.584C358.154 229.286 361.29 230.003 363.978 230.63C365.501 230.899 366.934 231.347 368.278 231.974C371.683 233.946 373.654 238.336 373.386 243.174C373.117 247.206 371.504 250.88 369.981 254.554L369.802 255.091C368.637 257.779 367.741 260.198 367.92 262.707C368.189 266.112 370.608 268.979 372.579 270.861C376.074 273.997 380.285 276.237 384.586 278.118C381.987 274.266 382.077 269.069 383.152 265.306C384.227 261.542 386.198 258.048 388.08 254.733C388.707 253.568 389.424 252.403 390.051 251.238C393.098 245.504 394.173 240.845 393.277 236.813C391.843 229.824 384.944 225.523 381.002 223.642C377.776 221.939 374.192 220.954 370.608 220.774H369.712Z" fill="#231F20"/>
<path d="M366.038 221.402C367.293 223.552 367.741 225.971 367.382 228.39C367.293 230.003 366.665 231.616 365.68 232.87C364.336 234.394 362.365 235.11 360.393 234.931C359.497 234.931 358.691 234.573 357.974 233.946C357.526 233.408 357.168 232.691 357.078 231.974C356.003 226.957 359.677 211.546 366.038 221.402Z" fill="#231F20"/>
<path d="M360.842 235.648C360.662 235.648 360.483 235.648 360.304 235.648C359.229 235.648 358.243 235.2 357.526 234.483C356.989 233.856 356.63 233.05 356.541 232.154C355.734 228.48 357.347 219.251 361.021 217.728C362.813 217.011 364.694 218.086 366.576 221.043C367.92 223.283 368.368 225.882 368.01 228.48C367.92 230.272 367.293 231.885 366.218 233.318C364.784 234.842 362.902 235.648 360.842 235.648ZM362.006 218.803C361.827 218.803 361.558 218.803 361.379 218.893C358.602 219.968 356.899 228.301 357.706 231.885C357.795 232.512 358.064 233.139 358.422 233.587C358.96 234.035 359.677 234.394 360.394 234.394C362.186 234.573 363.977 233.856 365.142 232.512C366.038 231.347 366.576 229.914 366.666 228.39C367.024 226.15 366.576 223.821 365.411 221.76C364.605 220.326 363.261 218.803 362.006 218.803Z" fill="#231F20"/>
<path d="M332.886 254.733C334.41 256.525 336.65 257.51 340.413 257.062C343.549 256.614 346.506 255.45 349.014 253.568C359.139 246.4 364.336 234.214 362.454 221.939C360.394 209.843 348.298 197.747 335.306 202.406C330.826 204.019 327.331 207.514 325.718 211.994C324.016 211.277 321.955 211.994 320.701 213.338C317.296 216.742 317.475 220.326 319.267 224.269C322.224 230.899 325.898 237.171 328.586 243.891C330.109 247.923 330.736 252.134 332.886 254.733Z" fill="white"/>
<path d="M338.8 257.779C336.381 257.958 333.962 256.973 332.438 255.091C330.915 253.299 330.109 250.701 329.302 248.102C328.944 246.848 328.496 245.504 327.958 244.16C326.346 240.218 324.464 236.365 322.582 232.602C321.238 230.003 319.894 227.315 318.64 224.538C316.49 219.789 316.938 216.026 320.163 212.89C321.507 211.456 323.389 210.829 325.27 211.187C327.062 206.797 330.557 203.392 334.947 201.869C340.054 199.987 345.789 200.614 350.448 203.482C357.078 207.514 361.648 214.234 362.992 221.85C364.874 234.304 359.587 246.758 349.373 254.106C346.774 255.987 343.728 257.242 340.502 257.69C339.965 257.779 339.427 257.779 338.8 257.779ZM333.424 254.374C334.947 256.166 337.187 256.883 340.413 256.525C343.459 256.077 346.326 254.912 348.746 253.12C358.602 246.131 363.709 234.125 361.917 222.118C360.573 214.861 356.272 208.499 350 204.646C345.699 201.958 340.323 201.421 335.574 203.123C331.274 204.646 327.958 208.051 326.435 212.262C326.346 212.442 326.256 212.531 326.077 212.621C325.898 212.71 325.718 212.71 325.539 212.621C324.016 211.994 322.224 212.8 321.149 213.786C318.282 216.653 317.923 219.699 319.894 224.09C321.149 226.778 322.493 229.466 323.747 232.064C325.629 235.827 327.6 239.77 329.213 243.712C329.75 245.056 330.109 246.4 330.557 247.744C331.274 250.342 331.99 252.672 333.424 254.374Z" fill="#231F20"/>
<path d="M323.21 226.778C323.21 226.778 315.325 233.498 315.952 235.558C316.579 237.619 320.701 237.53 320.701 237.53" fill="url(#paint7_linear_75_27)"/>
<path d="M320.611 238.157C319.894 238.157 316.041 238.067 315.325 235.738C314.608 233.408 320.79 227.942 322.761 226.33C323.03 226.061 323.389 226.15 323.657 226.419C323.926 226.688 323.837 227.046 323.568 227.315C319.894 230.451 316.221 234.394 316.489 235.379C316.937 236.723 319.715 236.902 320.611 236.902C320.969 236.902 321.238 237.171 321.238 237.53C321.328 237.888 321.059 238.157 320.611 238.157C320.701 238.157 320.701 238.157 320.611 238.157Z" fill="#231F20"/>
<path d="M318.909 272.026C327.779 272.742 342.922 263.782 343.011 263.424C344.893 257.69 346.954 245.952 346.954 245.952C346.954 245.952 340.95 244.25 339.427 236.096C337.904 227.942 330.467 226.688 327.51 216.026C323.21 217.907 322.493 224.179 321.418 228.122C319.894 233.677 318.461 239.232 317.206 244.787C316.4 248.371 325.45 250.97 327.331 250.432C325.898 254.016 323.12 261.184 318.909 272.026Z" fill="white"/>
<path d="M319.894 272.742C319.536 272.742 319.267 272.742 318.909 272.742C318.73 272.742 318.55 272.653 318.461 272.474C318.371 272.294 318.371 272.115 318.371 271.936C324.285 256.704 324.643 255.808 326.346 251.328C324.016 251.238 319.894 249.894 317.834 248.013C316.848 247.296 316.4 246.042 316.579 244.877C317.834 239.322 319.267 233.677 320.88 228.211C321.059 227.584 321.238 226.867 321.418 226.061C322.314 222.208 323.478 217.37 327.331 215.667C327.51 215.578 327.69 215.578 327.869 215.667C328.048 215.757 328.138 215.846 328.227 216.026C329.75 221.402 332.349 224.269 334.858 227.046C337.187 229.645 339.427 232.064 340.234 236.186C341.667 243.802 347.043 245.414 347.312 245.504C347.581 245.594 347.85 245.862 347.76 246.221C347.67 246.669 345.699 258.048 343.818 263.782C343.37 264.589 328.675 272.742 319.894 272.742ZM319.894 271.488H319.984C328.138 271.488 341.04 264.32 342.474 263.155C344.086 258.138 345.878 248.73 346.237 246.49C344.624 245.862 340.144 243.443 338.89 236.365C338.173 232.602 336.202 230.451 333.872 227.853C331.542 225.254 328.765 222.298 327.152 217.101C324.374 218.803 323.389 222.925 322.582 226.24C322.403 227.046 322.224 227.763 322.045 228.39C320.522 233.856 319.088 239.501 317.834 245.056C317.744 245.862 318.102 246.579 318.73 247.027C321.059 249.178 326.077 250.342 327.152 249.984C327.421 249.894 327.6 249.984 327.779 250.163C327.958 250.342 327.958 250.611 327.869 250.79C325.898 255.987 325.898 256.077 319.894 271.488Z" fill="#231F20"/>
<path d="M318.461 240.845C318.461 240.845 321.955 244.698 325.539 240.934L318.461 240.845Z" fill="url(#paint8_linear_75_27)"/>
<path d="M322.134 243.264C320.521 243.174 319.088 242.458 318.013 241.293C317.744 241.024 317.744 240.666 318.013 240.397C318.281 240.128 318.64 240.128 318.909 240.397C319.715 241.293 320.88 241.83 322.134 241.92C323.299 241.83 324.285 241.382 325.001 240.486C325.27 240.218 325.629 240.218 325.897 240.486C326.166 240.755 326.166 241.114 325.897 241.382C325.001 242.458 323.657 243.174 322.134 243.264Z" fill="#231F20"/>
<path d="M327.241 250.522C327.241 250.522 331.901 251.597 335.037 249.088C335.037 249.088 332.349 257.421 324.374 257.779L327.241 250.522Z" fill="#231F20"/>
<path d="M324.464 258.406C324.285 258.406 324.105 258.317 323.926 258.138C323.837 257.958 323.747 257.779 323.837 257.51L326.614 250.253C326.704 249.984 327.062 249.805 327.331 249.894C327.331 249.894 331.811 250.88 334.589 248.55C334.857 248.371 335.216 248.371 335.485 248.64C335.664 248.819 335.664 248.998 335.574 249.267C335.664 249.357 332.707 258.048 324.464 258.406ZM327.689 251.238L325.449 257.062C330.019 256.435 332.528 252.851 333.693 250.611C331.721 251.418 329.661 251.597 327.689 251.238Z" fill="#231F20"/>
<path d="M326.643 224.889C326.88 223.776 326.719 222.798 326.284 222.706C325.848 222.613 325.303 223.44 325.065 224.553C324.828 225.666 324.989 226.644 325.425 226.736C325.86 226.829 326.406 226.002 326.643 224.889Z" fill="#231F20"/>
<path d="M333.603 232.87C334.141 231.526 335.037 230.362 336.202 229.555C337.008 228.749 337.904 228.122 338.89 227.674C339.875 227.136 341.13 227.136 342.115 227.584C343.011 228.122 343.549 228.928 343.818 229.914C343.997 230.899 343.997 231.885 343.728 232.87C342.742 237.171 339.517 240.576 335.216 241.83L335.574 241.562" fill="white"/>
<path d="M335.306 242.368C334.947 242.368 334.678 242.099 334.678 241.741C334.678 241.562 334.768 241.293 334.947 241.203L335.395 240.934C335.574 240.845 335.754 240.845 335.843 240.845C339.517 239.501 342.205 236.365 343.101 232.602C343.37 231.706 343.37 230.81 343.19 229.914C343.011 229.107 342.563 228.39 341.846 228.032C340.95 227.674 339.965 227.674 339.158 228.122C338.262 228.57 337.366 229.197 336.56 229.914C335.485 230.72 334.678 231.706 334.141 232.96C334.051 233.318 333.693 233.498 333.334 233.318C333.066 233.229 332.886 232.87 332.976 232.602C333.514 231.168 334.499 229.914 335.754 228.928C336.65 228.122 337.546 227.405 338.621 226.867C339.786 226.33 341.219 226.33 342.384 226.867C343.37 227.494 344.176 228.48 344.355 229.645C344.534 230.72 344.534 231.795 344.266 232.87C343.19 237.35 339.786 240.934 335.306 242.278C335.395 242.278 335.306 242.278 335.306 242.368Z" fill="#231F20"/>
<path d="M317.475 265.485C317.475 265.485 344.355 254.643 352.688 264.141C361.021 273.638 365.68 295.501 362.186 342.989L299.376 340.838C299.376 340.659 304.394 271.309 317.475 265.485Z" fill="url(#paint9_linear_75_27)"/>
<path d="M280.202 279.821C277.334 277.312 253.232 245.325 252.874 240.128C252.515 234.931 250.365 225.792 249.11 226.419C247.856 227.046 247.229 235.379 247.229 235.379C247.229 235.379 241.315 224.717 238.717 224.717C236.118 224.717 230.205 231.706 230.563 235.379C230.922 239.053 258.518 304.909 271.331 306.79C284.144 308.672 317.654 293.619 320.701 292.992C323.747 292.365 334.947 267.904 320.701 264.32C320.79 264.32 283.158 282.33 280.202 279.821Z" fill="white"/>
<path d="M273.84 307.507C273.034 307.507 272.138 307.418 271.331 307.328C257.891 305.357 230.384 239.411 230.026 235.379C229.846 233.05 231.907 229.645 233.878 227.494C234.595 226.688 237.014 224.09 238.806 224C241.046 224 244.81 229.734 246.781 233.229C247.139 230.093 247.677 226.33 248.842 225.792C249.11 225.613 249.469 225.702 249.738 225.882C251.53 226.867 253.232 235.827 253.501 240.038C253.77 244.877 277.155 276.326 280.56 279.283C282.352 280.627 302.243 272.384 320.432 263.603C320.522 263.514 320.701 263.514 320.88 263.603C325.898 264.858 328.496 268.89 328.406 275.072C328.227 282.867 323.299 293.082 320.88 293.53C320.253 293.619 317.923 294.515 315.056 295.68C304.931 299.712 284.771 307.507 273.84 307.507ZM238.806 225.344C238.09 225.344 236.566 226.33 234.774 228.39C232.534 230.899 231.101 233.677 231.28 235.29C231.638 239.501 259.683 304.371 271.51 306.074C281.366 307.507 303.766 298.726 314.608 294.515C317.834 293.261 319.984 292.454 320.701 292.275C322.045 292.006 327.062 283.046 327.242 274.982C327.331 269.427 325.27 266.022 320.88 264.858C319.446 265.574 310.755 269.696 301.885 273.459C281.994 281.971 280.47 280.717 279.843 280.179C277.155 277.85 252.605 245.683 252.336 240.038C252.067 235.2 250.365 228.301 249.379 227.046C248.842 228.032 248.214 231.885 247.946 235.29C247.946 235.558 247.766 235.827 247.498 235.827C247.229 235.917 246.96 235.738 246.781 235.558C243.914 230.72 240.15 225.344 238.806 225.344Z" fill="#231F20"/>
<circle opacity="0.3" cx="1" cy="1" r="1" transform="matrix(-0.779574 -0.62631 -0.62631 0.779574 404.757 189.215)" fill="#0D54DB"/>
<circle opacity="0.3" cx="1" cy="1" r="1" transform="matrix(0.434376 -0.900732 -0.900732 -0.434376 265.837 78.3267)" fill="#0D54DB"/>
<circle opacity="0.3" cx="1" cy="1" r="1" transform="matrix(0.996191 -0.0872031 -0.0872031 -0.996191 486.454 259.266)" fill="#0D54DB"/>
<circle opacity="0.3" cx="1" cy="1" r="1" transform="matrix(0.137782 -0.990463 -0.990463 -0.137782 122.951 66.634)" fill="#0D54DB"/>
<circle opacity="0.3" cx="1" cy="1" r="1" transform="matrix(0.921668 -0.387979 -0.387979 -0.921668 423.449 130.487)" fill="#0D54DB"/>
<circle opacity="0.3" cx="1" cy="1" r="1" transform="matrix(-0.240121 -0.970743 -0.970743 0.240121 31.4216 231.941)" fill="#0D54DB"/>
<circle opacity="0.3" cx="1" cy="1" r="1" transform="matrix(-0.779574 -0.62631 -0.62631 0.779574 378.514 162.215)" fill="#0D54DB"/>
<circle opacity="0.3" cx="1" cy="1" r="1" transform="matrix(0.434376 -0.900732 -0.900732 -0.434376 286.224 46.6702)" fill="#0D54DB"/>
<circle opacity="0.3" cx="1" cy="1" r="1" transform="matrix(0.996191 -0.0872031 -0.0872031 -0.996191 524.083 260.601)" fill="#0D54DB"/>
<circle opacity="0.3" cx="1" cy="1" r="1" transform="matrix(0.137782 -0.990463 -0.990463 -0.137782 132.667 30.2566)" fill="#0D54DB"/>
<circle opacity="0.3" cx="1" cy="1" r="1" transform="matrix(0.921668 -0.387979 -0.387979 -0.921668 459.681 120.239)" fill="#0D54DB"/>
<circle opacity="0.3" cx="1" cy="1" r="1" transform="matrix(-0.240121 -0.970743 -0.970743 0.240121 44.0046 156.329)" fill="#0D54DB"/>
<circle opacity="0.3" cx="1" cy="1" r="1" transform="matrix(-0.225509 -0.974241 -0.974241 0.225509 224.323 63.2446)" fill="#0D54DB"/>
<circle opacity="0.3" cx="1" cy="1" r="1" transform="matrix(0.721988 -0.691906 -0.691906 -0.721988 478.19 215.876)" fill="#0D54DB"/>
<circle opacity="0.3" cx="1" cy="1" r="1" transform="matrix(-0.512926 -0.858433 -0.858433 0.512926 78.8125 64.9849)" fill="#0D54DB"/>
<circle opacity="0.3" cx="1" cy="1" r="1" transform="matrix(0.475513 -0.879709 -0.879709 -0.475513 402.3 91.7104)" fill="#0D54DB"/>
<circle opacity="0.3" cx="1" cy="1" r="1" transform="matrix(-0.795178 -0.606376 -0.606376 0.795178 6.91016 208.582)" fill="#0D54DB"/>
<circle opacity="0.3" cx="1" cy="1" r="1" transform="matrix(-1 0 0 1 400.702 259.259)" fill="#0D54DB"/>
<circle opacity="0.3" cx="1" cy="1" r="1" transform="matrix(-0.225509 -0.974241 -0.974241 0.225509 196.684 90.1711)" fill="#0D54DB"/>
<circle opacity="0.3" cx="1" cy="1" r="1" transform="matrix(0.721988 -0.691906 -0.691906 -0.721988 440.918 205.888)" fill="#0D54DB"/>
<circle opacity="0.3" cx="1" cy="1" r="1" transform="matrix(-0.512926 -0.858433 -0.858433 0.512926 60.7427 99.0801)" fill="#0D54DB"/>
<circle opacity="0.3" cx="1" cy="1" r="1" transform="matrix(0.475513 -0.879709 -0.879709 -0.475513 363.759 93.6128)" fill="#0D54DB"/>
<circle opacity="0.3" cx="1" cy="1" r="1" transform="matrix(-0.795178 -0.606376 -0.606376 0.795178 2.80322 246.951)" fill="#0D54DB"/>
<defs>
<linearGradient id="paint0_linear_75_27" x1="261.117" y1="171.226" x2="261.117" y2="176.602" gradientUnits="userSpaceOnUse">
<stop stop-color="#68E1FD"/>
<stop offset="1" stop-color="#0D54DB"/>
</linearGradient>
<linearGradient id="paint1_linear_75_27" x1="59.5169" y1="104.832" x2="59.5169" y2="110.208" gradientUnits="userSpaceOnUse">
<stop stop-color="#68E1FD"/>
<stop offset="1" stop-color="#0D54DB"/>
</linearGradient>
<linearGradient id="paint2_linear_75_27" x1="175.907" y1="178.752" x2="175.907" y2="217.907" gradientUnits="userSpaceOnUse">
<stop stop-color="#68E1FD"/>
<stop offset="1" stop-color="#0D54DB"/>
</linearGradient>
<linearGradient id="paint3_linear_75_27" x1="132.562" y1="170.179" x2="132.562" y2="284.838" gradientUnits="userSpaceOnUse">
<stop stop-color="#68E1FD"/>
<stop offset="1" stop-color="#0D54DB"/>
</linearGradient>
<linearGradient id="paint4_linear_75_27" x1="177.611" y1="153.664" x2="177.611" y2="165.461" gradientUnits="userSpaceOnUse">
<stop stop-color="white"/>
<stop offset="1" stop-color="#C9C9C9"/>
</linearGradient>
<linearGradient id="paint5_linear_75_27" x1="170.712" y1="159.667" x2="170.712" y2="171.152" gradientUnits="userSpaceOnUse">
<stop stop-color="white"/>
<stop offset="1" stop-color="#C9C9C9"/>
</linearGradient>
<linearGradient id="paint6_linear_75_27" x1="136.752" y1="192.102" x2="136.752" y2="233.408" gradientUnits="userSpaceOnUse">
<stop stop-color="#68E1FD"/>
<stop offset="1" stop-color="#0D54DB"/>
</linearGradient>
<linearGradient id="paint7_linear_75_27" x1="319.563" y1="226.778" x2="319.563" y2="237.53" gradientUnits="userSpaceOnUse">
<stop stop-color="white"/>
<stop offset="1" stop-color="#C9C9C9"/>
</linearGradient>
<linearGradient id="paint8_linear_75_27" x1="322" y1="240.845" x2="322" y2="242.584" gradientUnits="userSpaceOnUse">
<stop stop-color="white"/>
<stop offset="1" stop-color="#C9C9C9"/>
</linearGradient>
<linearGradient id="paint9_linear_75_27" x1="331.367" y1="260.242" x2="331.367" y2="342.989" gradientUnits="userSpaceOnUse">
<stop stop-color="#68E1FD"/>
<stop offset="1" stop-color="#0D54DB"/>
</linearGradient>
</defs>
</svg>
