<svg width="434" height="324" viewBox="0 0 434 324" fill="none" xmlns="http://www.w3.org/2000/svg">
<path d="M54.9443 353.797L152.768 333.139C155.806 332.531 158.323 328.625 158.323 324.372V109.542C158.323 105.375 155.893 101.469 152.768 100.775L54.9443 80.2033C50.6043 79.2485 47.1323 82.6337 47.1323 87.6681V346.332C47.1323 351.367 50.6911 354.665 54.9443 353.797Z" fill="#231F20"/>
<path d="M53.6423 354.491C52.1667 354.491 50.6911 353.97 49.4759 353.016C47.5663 351.366 46.5247 348.849 46.6115 346.332V87.6679C46.5247 85.1507 47.5663 82.6335 49.4759 80.9843C51.0383 79.6823 53.1215 79.2483 55.1179 79.6823L152.855 100.341C156.153 101.035 158.844 105.115 158.844 109.628V324.545C158.844 329.059 156.24 333.138 152.855 333.833L55.1179 354.318C54.5971 354.404 54.0763 354.491 53.6423 354.491ZM54.8575 353.276L152.594 332.617C155.372 332.01 157.715 328.364 157.715 324.371V109.541C157.715 105.635 155.459 101.903 152.594 101.295L54.8575 80.7239C53.2083 80.3767 51.4723 80.7239 50.1703 81.7655C48.5211 83.2411 47.6531 85.4111 47.7399 87.6679V346.332C47.6531 348.589 48.5211 350.672 50.1703 352.234C51.5591 353.276 53.2083 353.623 54.8575 353.276Z" fill="#231F20"/>
<path d="M63.4509 351.54L158.844 331.489C161.795 330.882 164.226 326.976 164.226 322.896V110.323C164.226 106.157 161.795 102.337 158.844 101.73L63.4509 81.5053C59.2845 80.6373 55.8125 83.9357 55.8125 88.8833V344.162C55.8125 349.11 59.1977 352.495 63.4509 351.54Z" fill="white"/>
<path d="M62.0619 352.321C60.5863 352.321 59.1975 351.8 58.0691 350.932C56.1595 349.283 55.1179 346.766 55.2047 344.248V88.8829C55.1179 86.3657 56.1595 83.8485 58.0691 82.1993C59.6315 80.9841 61.6279 80.4633 63.5375 80.8973L158.931 101.122C162.229 101.816 164.833 105.896 164.833 110.322V322.896C164.833 327.409 162.229 331.402 158.931 332.096L63.5375 352.147C63.0167 352.234 62.5827 352.321 62.0619 352.321ZM62.0619 82.0257C60.8467 82.0257 59.7183 82.4597 58.7635 83.1541C57.1143 84.6297 56.2463 86.7129 56.3331 88.8829V344.162C56.2463 346.332 57.1143 348.502 58.7635 349.89C59.9787 350.932 61.6279 351.279 63.2771 350.932L158.67 330.881C161.361 330.274 163.618 326.715 163.618 322.896V110.322C163.618 106.503 161.448 102.858 158.67 102.337L63.2771 82.1125C62.8431 82.0257 62.4959 82.0257 62.0619 82.0257Z" fill="#231F20"/>
<path d="M70.3945 334.354C69.1793 334.354 68.0509 333.92 67.0961 333.138C65.5337 331.75 64.7525 329.753 64.7525 327.67V106.33C64.6657 104.247 65.5337 102.25 67.0961 100.862C68.3113 99.8201 69.8737 99.4729 71.4361 99.7333L153.289 114.836C156.066 115.357 158.149 118.569 158.149 122.301V311.699C158.149 315.344 155.979 318.643 153.289 319.077L71.3493 334.18C71.0021 334.267 70.6549 334.354 70.3945 334.354ZM70.3945 100.862C69.4397 100.862 68.5717 101.209 67.8773 101.816C66.6621 102.945 65.9677 104.594 65.9677 106.33V327.67C65.8809 329.406 66.5753 331.055 67.7905 332.184C68.6585 332.965 69.9605 333.312 71.0889 333.052L152.941 317.948C155.111 317.514 156.847 314.737 156.847 311.699V122.301C156.847 119.263 155.111 116.486 152.941 116.052L71.1757 100.948C70.9153 100.948 70.6549 100.862 70.3945 100.862Z" fill="#D1D3D4"/>
<path d="M130.287 104.767H130.2L112.84 101.295C112.493 101.295 112.232 100.948 112.319 100.601C112.406 100.254 112.666 99.9935 113.013 100.08H113.1L130.547 103.465C130.894 103.552 131.068 103.899 130.981 104.16C130.807 104.507 130.547 104.681 130.287 104.767Z" fill="#D1D3D4"/>
<path d="M110.149 100.861H110.062L106.851 100.254C106.504 100.167 106.33 99.9066 106.33 99.5594C106.417 99.2122 106.677 99.0386 107.024 99.0386L110.236 99.6462C110.583 99.733 110.757 99.9934 110.757 100.341C110.67 100.601 110.41 100.861 110.149 100.861Z" fill="#D1D3D4"/>
<path d="M51.1252 140.79C50.778 140.79 50.5176 140.529 50.5176 140.182V113.621C50.5176 113.274 50.778 113.014 51.1252 113.014C51.4724 113.014 51.7328 113.274 51.7328 113.621V140.182C51.7328 140.529 51.4724 140.79 51.1252 140.79Z" fill="#D1D3D4"/>
<path d="M378.969 353.797L281.232 333.138C278.194 332.531 275.677 328.625 275.677 324.372V109.542C275.677 105.375 278.107 101.469 281.232 100.775L378.969 80.1164C383.309 79.1616 386.781 82.5468 386.781 87.5812V346.245C386.868 351.366 383.309 354.665 378.969 353.797Z" fill="#231F20"/>
<path d="M380.358 354.491C379.837 354.491 379.316 354.404 378.882 354.317L281.145 333.659C277.847 332.965 275.156 328.885 275.156 324.371V109.541C275.156 105.028 277.76 101.035 281.145 100.254L378.882 79.5954C380.879 79.1614 382.962 79.5954 384.524 80.8974C386.434 82.5466 387.475 85.0638 387.389 87.581V346.245C387.475 348.762 386.434 351.279 384.524 352.929C383.396 353.97 381.92 354.491 380.358 354.491ZM379.143 353.276C380.792 353.623 382.528 353.276 383.83 352.234C385.479 350.759 386.434 348.589 386.347 346.332V87.6678C386.434 85.411 385.566 83.3278 383.83 81.7654C382.528 80.7238 380.792 80.2898 379.143 80.7238L281.406 101.382C278.628 101.99 276.285 105.635 276.285 109.628V324.545C276.285 328.451 278.541 332.183 281.406 332.791L379.143 353.276Z" fill="#231F20"/>
<path d="M370.636 351.54L275.156 331.489C272.118 330.881 269.774 326.975 269.774 322.896V110.322C269.774 106.156 272.205 102.337 275.156 101.729L370.636 81.5048C374.802 80.6368 378.274 83.9352 378.274 88.8828V344.162C378.188 349.109 374.802 352.494 370.636 351.54Z" fill="white"/>
<path d="M371.938 352.321C371.417 352.321 370.983 352.234 370.463 352.147L275.069 332.096C271.771 331.402 269.167 327.322 269.167 322.896V110.322C269.167 105.809 271.771 101.816 275.069 101.122L370.463 80.8971C372.372 80.4631 374.455 80.8971 375.931 82.1991C377.841 83.8483 378.882 86.3655 378.795 88.8827V344.162C378.882 346.679 377.841 349.196 375.931 350.845C374.803 351.8 373.414 352.321 371.938 352.321ZM370.723 351.019C372.285 351.366 373.935 351.019 375.15 349.977C376.799 348.502 377.667 346.418 377.58 344.248V88.8827C377.667 86.7127 376.799 84.5427 375.15 83.1539C373.935 82.1123 372.285 81.7651 370.723 82.1123L275.33 102.337C272.639 102.944 270.382 106.503 270.382 110.322V322.896C270.382 326.715 272.552 330.36 275.33 330.881L370.723 351.019Z" fill="#231F20"/>
<path d="M363.605 334.353C363.258 334.353 362.911 334.353 362.564 334.267L280.711 319.163C277.934 318.643 275.851 315.431 275.851 311.785V122.301C275.851 118.655 278.021 115.357 280.711 114.836L362.564 99.7329C364.126 99.3857 365.689 99.8197 366.904 100.861C368.466 102.25 369.247 104.247 369.161 106.33V327.67C369.247 329.753 368.379 331.749 366.904 333.138C366.036 333.919 364.821 334.353 363.605 334.353ZM280.972 116.051C278.802 116.485 277.066 119.263 277.066 122.301V311.699C277.066 314.737 278.802 317.514 280.972 317.948L362.824 333.051C364.039 333.312 365.255 332.965 366.123 332.183C367.338 331.055 368.032 329.406 367.945 327.67V106.33C368.032 104.594 367.338 102.945 366.123 101.816C365.168 101.035 363.953 100.688 362.824 100.948L280.972 116.051Z" fill="#D1D3D4"/>
<path d="M303.8 104.767C303.453 104.767 303.192 104.507 303.192 104.16C303.192 103.899 303.366 103.639 303.626 103.639L320.986 100.254C321.334 100.167 321.681 100.34 321.768 100.688C321.854 101.035 321.681 101.382 321.334 101.469H321.247L303.887 104.941L303.8 104.767Z" fill="#D1D3D4"/>
<path d="M323.851 100.861C323.591 100.861 323.33 100.688 323.244 100.341C323.157 99.9933 323.417 99.7329 323.678 99.6461L326.889 99.0385C327.236 98.9517 327.497 99.2121 327.584 99.4725C327.67 99.8197 327.41 100.08 327.15 100.167L323.938 100.775L323.851 100.861Z" fill="#D1D3D4"/>
<path d="M382.875 140.789C382.528 140.789 382.268 140.529 382.268 140.182V113.621C382.268 113.274 382.528 113.013 382.875 113.013C383.222 113.013 383.483 113.274 383.483 113.621V140.182C383.483 140.529 383.222 140.789 382.875 140.789Z" fill="#D1D3D4"/>
<path d="M298.679 290.954C298.679 290.954 291.648 290.78 290.346 276.198C289.044 261.615 291.735 244.255 294.773 244.082C297.811 243.908 307.012 264.132 305.97 271.684C304.928 279.236 308.053 291.388 298.679 290.954Z" fill="#231F20"/>
<path d="M299.112 291.475H298.592C298.244 291.475 291.04 290.954 289.738 276.198C288.61 263.612 290.432 247.727 293.384 244.255C293.731 243.821 294.165 243.561 294.686 243.474C295.467 243.561 296.248 243.995 296.682 244.603C300.675 248.856 307.358 265.001 306.404 271.684C306.143 273.767 306.056 275.851 306.143 278.021C306.143 282.621 306.143 287.482 303.626 289.825C302.411 290.954 300.762 291.561 299.112 291.475ZM294.772 244.516C294.512 244.603 294.338 244.689 294.252 244.95C291.734 247.901 289.651 262.917 290.866 276.111C292.082 289.912 298.678 290.346 298.678 290.346C300.241 290.52 301.716 290.086 302.932 289.044C305.102 286.961 305.102 282.361 305.102 277.934C305.015 275.764 305.102 273.594 305.362 271.424C306.23 265.174 299.72 249.29 295.901 245.21C295.206 244.603 294.859 244.516 294.772 244.516Z" fill="#231F20"/>
<path d="M313.174 245.297C311.699 245.297 262.83 242.346 250.678 247.728C238.526 253.109 214.049 257.015 203.806 257.015C193.564 257.015 170.128 250.158 167.177 253.63C164.225 257.102 169.954 261.963 171.517 266.303C173.079 270.643 210.924 292.169 240.262 296.075C269.601 299.981 280.537 283.229 291.127 284.878C309.355 287.742 301.89 284.357 301.89 284.357L313.174 245.297Z" fill="white"/>
<path d="M248.942 297.203C246.078 297.203 243.127 297.03 240.262 296.596C210.75 292.69 172.558 270.99 170.996 266.389C170.388 264.827 169.52 263.438 168.565 262.049C166.569 258.924 164.486 255.8 166.743 253.196C168.565 251.026 175.683 252.154 187.227 254.15C193.39 255.192 199.727 256.32 203.806 256.32C214.135 256.32 238.266 252.414 250.418 247.12C257.709 243.908 278.801 243.04 311.525 244.602L313.174 244.689H313.956L302.585 283.923C303.626 284.444 304.147 285.051 303.973 285.659C303.8 286.266 303.539 287.308 291.04 285.312C287.221 284.704 283.228 286.7 278.194 289.218C271.337 292.69 262.309 297.203 248.942 297.203ZM170.996 253.109C169.347 253.109 168.131 253.369 167.611 253.89C165.961 255.8 167.697 258.49 169.52 261.355C170.562 262.83 171.43 264.393 172.037 266.042C173.253 269.601 210.577 291.474 240.262 295.38C258.317 297.811 269.427 292.256 277.586 288.176C282.794 285.572 286.961 283.489 291.127 284.183C298.679 285.398 301.369 285.398 302.324 285.312C302.064 285.138 301.803 284.964 301.543 284.878L301.109 284.704L312.306 245.991H311.352C279.322 244.429 257.883 245.297 250.852 248.422C238.526 253.803 214.222 257.709 203.719 257.709C199.553 257.709 193.13 256.581 186.967 255.452C181.238 254.237 174.902 253.109 170.996 253.109Z" fill="#231F20"/>
<path d="M273.68 257.796C273.68 257.796 203.893 283.055 151.813 270.209L147.907 244.689L170.128 218.823C170.128 218.823 215.698 228.458 254.324 207.799L277.847 232.537L273.68 257.796Z" fill="url(#paint0_linear_597_1192)"/>
<path d="M184.797 274.375C173.687 274.462 162.576 273.247 151.726 270.729L151.379 270.643L147.386 244.516L169.954 218.129L170.301 218.215C170.735 218.302 216.132 227.503 254.063 207.279L254.497 207.105L278.541 232.364L274.201 258.317L273.854 258.404C273.333 258.577 228.891 274.375 184.797 274.375ZM152.334 269.688C201.723 281.666 267.778 259.185 273.073 257.362L277.152 232.711L254.15 208.581C217.607 227.85 174.641 220.299 170.301 219.517L148.515 244.863L152.334 269.688Z" fill="#231F20"/>
<path d="M196.428 251.026C180.023 250.939 163.705 248.943 147.733 245.297L148.081 244.082C148.428 244.169 187.922 254.237 222.642 247.554C259.879 240.349 277.413 232.103 277.673 232.017L278.194 233.145C278.02 233.232 260.313 241.565 222.902 248.769C214.135 250.331 205.282 251.113 196.428 251.026Z" fill="#231F20"/>
<path d="M198.078 245.731C184.276 245.818 170.562 244.69 156.934 242.52C156.674 242.52 156.5 242.346 156.5 242.086C156.414 241.912 156.5 241.652 156.587 241.478L173.947 222.556C174.121 222.382 174.294 222.295 174.555 222.382C213.702 230.281 257.275 219.431 257.709 219.257C257.883 219.17 258.056 219.257 258.23 219.344L272.812 230.194C272.986 230.281 273.073 230.541 273.073 230.715C273.073 230.888 272.899 231.149 272.726 231.236C248.942 242.78 220.732 245.731 198.078 245.731ZM158.236 241.565C167.003 242.954 226.895 251.634 271.25 230.715L257.709 220.646C253.89 221.601 212.226 231.236 174.642 223.771L158.236 241.565Z" fill="white"/>
<path d="M267.083 259.706C267.083 259.706 251.546 266.216 240.262 263.612C237.485 262.917 214.569 261.442 214.483 266.563C214.309 277.934 249.116 284.444 261.528 279.236" fill="white"/>
<path d="M249.55 281.666C238.96 281.666 226.027 278.802 219.083 274.115C215.698 271.771 213.962 269.254 213.962 266.563C213.962 265.782 214.396 265.001 215.004 264.567C219.43 261.095 238.092 262.483 240.436 263.004C251.373 265.521 266.65 259.185 266.823 259.098C267.084 258.925 267.518 259.098 267.604 259.359C267.778 259.619 267.604 260.053 267.344 260.14C267.344 260.14 267.344 260.14 267.257 260.14C266.65 260.4 251.46 266.65 240.089 264.046C237.398 263.438 219.517 262.31 215.698 265.348C215.351 265.608 215.09 265.955 215.09 266.389C215.09 268.646 216.566 270.903 219.691 272.899C229.326 279.409 251.894 282.447 261.268 278.455C261.615 278.368 261.962 278.541 262.049 278.802C262.136 279.062 262.049 279.409 261.702 279.583C258.664 281.059 254.324 281.666 249.55 281.666Z" fill="#231F20"/>
<path d="M329.492 234.62C328.538 234.273 295.033 243.995 294.686 243.995C294.338 243.995 309.355 259.619 298.592 290.867L331.402 299.634C331.402 299.634 340.69 287.221 341.818 267.431C342.946 247.64 329.492 234.62 329.492 234.62Z" fill="#231F20"/>
<path d="M331.489 300.241H331.316L298.505 291.475C298.332 291.388 298.245 291.301 298.158 291.214C298.071 291.041 298.071 290.954 298.158 290.78C301.022 282.361 306.491 261.008 294.599 244.776C294.252 244.342 294.165 244.169 294.252 243.821C294.339 243.648 294.512 243.561 294.686 243.474L298.592 242.346C326.455 234.447 329.146 233.926 329.666 234.1C329.753 234.1 329.84 234.187 329.84 234.187C329.927 234.273 343.381 247.554 342.339 267.431C341.298 287.308 331.923 299.807 331.836 299.981C331.836 300.155 331.663 300.241 331.489 300.241ZM299.373 290.52L331.316 299.026C332.704 297.03 340.43 285.138 341.384 267.344C342.339 249.116 330.795 236.53 329.319 235.055C326.976 235.315 306.664 241.131 298.939 243.301L295.641 244.255C307.359 260.574 302.324 281.666 299.373 290.52Z" fill="#231F20"/>
<path d="M188.443 256.147C165.354 256.147 149.122 251.98 148.862 251.98C148.515 251.894 148.341 251.633 148.428 251.286C148.515 250.939 148.775 250.765 149.122 250.852H149.209C149.643 250.939 191.394 261.528 236.096 248.508C236.443 248.422 236.79 248.595 236.877 248.942C236.964 249.29 236.79 249.637 236.443 249.724C220.732 254.064 204.587 256.234 188.443 256.147Z" fill="#231F20"/>
<path d="M201.549 261.789C201.202 261.789 200.942 261.529 200.942 261.181C200.942 260.834 201.202 260.574 201.549 260.574C239.481 260.574 274.896 240.436 275.243 240.263C275.503 240.089 275.937 240.176 276.111 240.436C276.284 240.697 276.197 241.131 275.937 241.304C275.937 241.304 275.937 241.304 275.85 241.304C275.503 241.565 239.828 261.789 201.549 261.789Z" fill="#231F20"/>
<path d="M186.707 269.948C174.468 269.862 162.316 267.952 150.598 264.306C150.251 264.22 150.077 263.872 150.251 263.525C150.338 263.178 150.685 263.004 151.032 263.178C151.292 263.265 175.162 271.511 199.814 267.865C200.161 267.778 200.421 268.039 200.508 268.386C200.595 268.733 200.334 268.994 199.987 269.08C195.56 269.601 191.134 269.948 186.707 269.948Z" fill="#231F20"/>
<path d="M120.652 197.557C120.652 197.557 129.592 201.463 135.321 187.054C141.05 172.645 143.828 148.688 137.838 147.039C131.849 145.39 105.809 176.464 120.652 197.557Z" fill="#231F20"/>
<path d="M123.43 198.598C122.388 198.598 121.433 198.425 120.479 198.078C120.392 198.078 120.305 197.991 120.218 197.904C111.365 185.405 116.746 168.826 124.645 157.455C129.679 150.338 135.235 145.737 137.925 146.518C138.967 146.866 139.835 147.647 140.269 148.688C143.567 155.372 140.529 175.249 135.755 187.228C133.499 192.783 130.634 196.342 126.989 197.817C125.947 198.338 124.732 198.512 123.43 198.598ZM120.999 197.123C122.909 197.73 124.905 197.644 126.728 196.862C130.027 195.474 132.804 192.088 134.887 186.88C140.009 173.947 142.265 154.938 139.401 149.209C139.141 148.428 138.533 147.82 137.752 147.56C135.842 147.039 130.634 150.945 125.6 158.15C117.875 169 112.667 185.058 120.999 197.123Z" fill="#231F20"/>
<path d="M158.931 195.213C158.931 195.213 198.078 213.528 201.55 205.89C186.447 199.987 172.732 178.461 172.732 178.461" fill="white"/>
<path d="M197.036 208.407C185.752 208.407 159.886 196.341 158.757 195.821L159.278 194.692C159.625 194.866 191.741 209.795 199.727 206.844C200.074 206.757 200.421 206.497 200.682 206.237C185.839 199.987 172.906 179.763 172.298 178.895L173.34 178.2C173.427 178.374 187.054 199.64 201.81 205.369L202.418 205.629L202.157 206.237C201.723 207.105 201.029 207.712 200.161 207.973C199.119 208.32 198.078 208.407 197.036 208.407Z" fill="#231F20"/>
<path d="M197.817 180.717L166.396 204.761C166.396 204.761 205.108 245.47 285.138 218.215L270.99 191.394C270.99 191.394 243.213 202.33 220.819 196.341C202.591 191.567 197.817 180.717 197.817 180.717Z" fill="url(#paint1_linear_597_1192)"/>
<path d="M232.711 228.197C220.125 228.284 207.539 226.287 195.561 222.295C175.944 215.524 166.049 205.282 165.962 205.195L165.528 204.674L198.078 179.676L198.425 180.37C198.512 180.457 203.373 191.047 220.993 195.734C242.953 201.636 270.469 190.873 270.729 190.786L271.25 190.613L286.006 218.562L285.312 218.823C265.001 225.68 247.467 228.197 232.711 228.197ZM167.264 204.848C169.434 206.931 179.069 215.351 195.995 221.166C213.702 227.242 243.387 231.582 284.183 217.868L270.643 192.175C266.737 193.651 241.304 202.504 220.646 196.949C204.848 192.696 199.033 184.103 197.644 181.585L167.264 204.848Z" fill="#231F20"/>
<path d="M236.356 222.468C225.246 222.468 214.222 220.906 203.633 217.781C186.012 212.573 175.77 204.761 175.683 204.674C175.51 204.587 175.423 204.414 175.423 204.153C175.423 203.98 175.51 203.806 175.683 203.633L198.946 185.752C199.206 185.578 199.553 185.578 199.727 185.839C228.892 214.656 267.431 197.643 267.778 197.47C268.038 197.383 268.386 197.47 268.559 197.73L277.5 214.743C277.586 214.917 277.586 215.09 277.5 215.264C277.413 215.437 277.326 215.524 277.152 215.611C263.959 220.038 250.244 222.381 236.356 222.468ZM176.985 204.153C182.367 207.886 221.08 232.711 276.111 214.656L267.778 198.772C263.004 200.681 226.982 214.135 199.206 187.054L176.985 204.153Z" fill="white"/>
<path d="M163.965 197.47C159.104 199.553 153.723 200.942 144.522 199.379C129.853 196.862 114.75 184.971 114.75 184.971C114.75 184.971 118.829 158.41 130.46 146.952C130.46 146.952 140.616 154.07 149.817 147.647C156.24 143.133 184.016 126.467 190.96 121.173C194.345 118.655 197.991 114.576 201.984 113.1C204.588 112.145 207.712 113.013 207.018 116.399C205.89 120.999 203.633 125.165 200.334 128.551C197.036 131.936 193.477 134.974 189.745 137.665C199.553 133.498 207.973 126.988 216.653 120.912C217.174 120.478 217.868 120.131 218.562 120.131C222.295 120.218 219.778 128.551 219.083 130.2C215.524 138.099 207.712 142.786 200.248 146.518C208.233 145.563 214.83 140.529 221.774 136.883C224.986 135.234 228.458 134.193 227.937 139.227C227.503 142.786 223.944 145.303 221.253 147.126C212.486 153.115 202.591 158.063 194.172 164.399C195.04 166.743 201.202 167.35 203.546 168.739C206.584 170.475 208.841 173.426 209.535 176.898C211.879 188.877 207.452 199.119 201.723 197.47C195.994 195.821 198.078 178.461 188.269 175.249C182.714 173.426 178.808 176.985 175.596 182.28" fill="white"/>
<path d="M151.813 200.681C149.296 200.681 146.866 200.421 144.348 199.987C129.679 197.47 114.402 185.578 114.316 185.405C114.142 185.231 114.055 185.057 114.142 184.797C114.316 183.669 118.395 157.889 130.026 146.431C130.2 146.258 130.547 146.171 130.808 146.345C130.894 146.432 140.703 153.115 149.383 147.039C152.16 145.129 158.757 140.963 165.875 136.536C175.596 130.46 186.62 123.603 190.613 120.565C191.568 119.784 192.609 118.916 193.738 117.961C196.342 115.704 198.946 113.447 201.897 112.406C203.459 111.711 205.369 111.885 206.758 112.927C207.712 113.795 208.06 115.184 207.712 116.399C206.844 120.652 204.501 124.818 200.855 128.811C198.946 130.894 196.862 132.804 194.606 134.54C201.029 131.155 206.844 126.988 212.66 122.909L216.392 120.305C217.087 119.784 217.868 119.437 218.736 119.35C219.517 119.35 220.298 119.784 220.732 120.478C222.295 122.909 220.385 128.985 219.778 130.373C216.74 136.97 210.924 141.397 204.674 144.956C208.928 143.654 212.834 141.397 216.653 139.14C218.302 138.185 220.038 137.231 221.774 136.276C223.51 135.408 226.114 134.193 227.676 135.234C228.631 135.929 228.978 137.231 228.805 139.227C228.371 143.133 224.291 145.911 221.861 147.56C218.042 150.164 213.875 152.681 209.882 155.025C204.935 157.976 199.814 161.101 195.213 164.486C195.994 165.441 198.338 166.222 200.334 166.743C201.636 167.09 202.938 167.524 204.067 168.131C207.278 169.954 209.535 172.992 210.316 176.638C211.966 184.884 210.49 193.13 206.758 196.602C205.456 197.904 203.546 198.425 201.81 197.991C199.032 197.21 197.991 193.39 196.689 188.963C195.213 183.582 193.564 177.506 188.269 175.77C183.756 174.294 180.023 176.378 176.378 182.54C176.204 182.801 175.857 182.887 175.51 182.714C175.162 182.54 175.162 182.193 175.336 181.846C177.853 177.679 181.933 172.298 188.703 174.555C194.606 176.464 196.342 182.887 197.904 188.529C199.032 192.609 199.987 196.081 202.157 196.689C203.546 197.036 205.022 196.689 205.976 195.647C208.928 192.956 210.924 185.578 209.188 176.811C208.494 173.513 206.41 170.736 203.459 169.086C202.331 168.565 201.202 168.132 199.987 167.784C197.296 167.003 194.606 166.135 193.911 164.399C193.824 164.139 193.911 163.878 194.085 163.705C198.859 160.146 204.154 156.934 209.362 153.896C213.354 151.553 217.434 149.035 221.253 146.431C224.204 144.435 227.329 142.092 227.676 138.967C227.763 137.925 227.763 136.623 227.069 136.102C226.548 135.755 225.333 135.668 222.382 137.144C220.732 138.012 218.996 138.967 217.347 139.921C212.139 142.959 206.758 145.998 200.595 146.779C200.334 146.779 200.074 146.605 199.9 146.345C199.814 146.084 199.9 145.737 200.248 145.65C207.799 141.831 215.264 137.231 218.823 129.592C219.43 128.203 221.08 122.735 219.864 120.912C219.691 120.565 219.257 120.391 218.91 120.391C218.302 120.478 217.781 120.739 217.347 121.086C216.132 121.954 214.83 122.822 213.615 123.69C206.324 128.898 198.772 134.193 190.266 137.838C190.005 137.925 189.658 137.838 189.484 137.578C189.311 137.317 189.398 136.97 189.658 136.797C193.477 134.106 196.949 131.068 200.248 127.769C203.72 123.95 205.976 119.958 206.758 115.965C207.018 115.184 206.844 114.229 206.237 113.621C205.108 112.927 203.72 112.84 202.591 113.361C199.9 114.316 197.383 116.572 194.866 118.742C193.738 119.697 192.783 120.565 191.741 121.346C187.748 124.384 176.725 131.241 166.916 137.317C159.886 141.744 153.202 145.824 150.511 147.733C142.178 153.549 132.978 148.601 130.894 147.299C120.478 157.889 116.225 181.151 115.704 184.276C117.874 185.925 131.676 196.081 144.956 198.338C154.244 199.9 159.625 198.425 164.052 196.515C164.399 196.341 164.746 196.515 164.833 196.862C164.92 197.21 164.833 197.557 164.486 197.643C160.32 199.813 156.153 200.681 151.813 200.681Z" fill="#231F20"/>
<path d="M137.838 146.952C137.838 146.952 126.988 152.073 120.652 172.471C118.048 180.63 118.048 189.397 120.652 197.556L96.9557 190.352C96.9557 190.352 86.8001 173.426 90.0985 154.417C94.1781 130.981 116.052 133.064 116.052 133.064C118.656 133.585 137.838 146.952 137.838 146.952Z" fill="#231F20"/>
<path d="M120.652 198.077C120.565 198.077 120.565 198.077 120.479 198.077L96.7821 190.873C96.6953 190.873 96.5217 190.786 96.5217 190.613C96.4349 190.439 86.2793 173.253 89.5777 154.33C93.7441 130.721 115.878 132.457 116.139 132.543C118.743 133.238 136.103 145.216 138.099 146.605C138.273 146.692 138.359 146.865 138.359 147.126C138.359 147.299 138.186 147.473 138.012 147.56C137.925 147.647 127.336 152.855 121.086 172.732C118.569 180.804 118.569 189.397 121.086 197.47C121.173 197.73 121.086 198.077 120.739 198.164C120.739 198.077 120.652 198.077 120.652 198.077ZM97.3897 189.918L119.871 196.775C117.614 188.79 117.701 180.283 120.218 172.385C125.687 154.938 134.28 148.601 136.884 147.039C131.068 143.046 117.961 134.106 116.052 133.672C115.271 133.585 94.6989 132.023 90.7061 154.591C87.6681 172.037 96.3481 188.009 97.3897 189.918Z" fill="#231F20"/>
<defs>
<linearGradient id="paint0_linear_597_1192" x1="212.877" y1="207.799" x2="212.877" y2="273.851" gradientUnits="userSpaceOnUse">
<stop stop-color="#68E1FD"/>
<stop offset="1" stop-color="#0D54DB"/>
</linearGradient>
<linearGradient id="paint1_linear_597_1192" x1="225.767" y1="180.717" x2="225.767" y2="227.611" gradientUnits="userSpaceOnUse">
<stop stop-color="#68E1FD"/>
<stop offset="1" stop-color="#0D54DB"/>
</linearGradient>
</defs>
</svg>
