<svg width="491" height="303" viewBox="0 0 491 303" fill="none" xmlns="http://www.w3.org/2000/svg">
<path d="M251.224 63.8602H94.1161L93.7441 57.1642C93.0001 46.9962 100.44 38.1922 110.608 37.3242C111.228 37.3242 111.724 37.2002 112.344 37.3242H229.896C241.056 37.4482 250.232 46.1282 250.976 57.1642L251.224 63.8602Z" fill="white"/>
<path d="M251.224 64.4801H94.1162C93.7442 64.4801 93.4962 64.2321 93.4962 63.8601L93.0002 57.1641C92.2562 46.7481 100.068 37.5721 110.484 36.8281C111.104 36.8281 111.6 36.8281 112.22 36.8281H229.772C241.18 36.9521 250.604 45.8801 251.472 57.1641L251.844 63.8601C251.844 63.9841 251.844 64.2321 251.72 64.3561C251.596 64.3561 251.348 64.4801 251.224 64.4801ZM94.6122 63.2401H250.48L250.108 57.2881C249.364 46.6241 240.436 38.1921 229.648 38.0681H112.22C102.424 37.9441 94.3642 45.7561 94.1162 55.5521C94.1162 56.0481 94.1162 56.6681 94.1162 57.1641L94.6122 63.2401Z" fill="#231F20"/>
<path d="M267.344 324.012H110.112L94.1162 64.1079H251.224L267.344 324.012Z" fill="white"/>
<path d="M267.344 324.632H110.112C109.74 324.632 109.492 324.384 109.492 324.012L93.3721 64.1083C93.3721 63.9843 93.3721 63.7363 93.4961 63.6123C93.6201 63.4883 93.7441 63.3643 93.9921 63.3643H251.224C251.596 63.3643 251.844 63.6123 251.844 63.9843L267.964 323.888C267.964 324.012 267.964 324.26 267.84 324.384C267.716 324.632 267.468 324.632 267.344 324.632ZM110.732 323.392H266.6L250.604 64.7283H94.7361L110.732 323.392Z" fill="#231F20"/>
<path d="M177.072 53.5681H158.596C158.224 53.5681 157.976 53.3201 157.976 52.9481C157.976 52.5761 158.224 52.3281 158.596 52.3281H177.072C177.444 52.3281 177.692 52.5761 177.692 52.9481C177.692 53.3201 177.32 53.5681 177.072 53.5681Z" fill="#231F20"/>
<path d="M185.504 53.5681H181.288C180.916 53.5681 180.668 53.3201 180.668 52.9481C180.668 52.5761 180.916 52.3281 181.288 52.3281H185.504C185.876 52.3281 186.124 52.5761 186.124 52.9481C186.124 53.3201 185.752 53.5681 185.504 53.5681Z" fill="#231F20"/>
<path d="M243.908 177.072H176.7C176.328 177.072 176.08 176.824 176.08 176.452L169.756 88.784C169.756 88.66 169.756 88.412 169.88 88.288C170.004 88.164 170.128 88.04 170.376 88.04H236.096C236.468 88.04 236.716 88.288 236.716 88.66L244.528 176.328C244.528 176.452 244.528 176.7 244.404 176.824C244.28 176.948 244.032 176.948 243.908 177.072ZM177.32 175.832H243.288L235.476 89.28H170.996L177.32 175.832Z" fill="#D1D3D4"/>
<path d="M198.152 269.7C197.78 269.7 197.532 269.452 197.532 269.204C196.168 257.176 195.052 243.164 195.052 243.04C195.052 242.668 195.3 242.42 195.548 242.42C197.656 242.172 199.516 241.056 200.756 239.32C204.724 233.74 202.74 222.704 202.74 222.704C202.74 222.456 202.74 222.332 202.864 222.208C202.988 222.084 203.236 221.96 203.36 221.96L209.684 222.456C210.056 222.456 210.304 222.828 210.304 223.076C210.304 223.2 209.684 234.112 213.032 237.212C213.652 237.832 214.52 238.08 215.264 237.956C216.256 237.832 217 237.336 217.62 236.468C220.224 232.624 218.24 223.324 218.24 223.2C218.24 223.076 218.24 222.828 218.364 222.704C218.488 222.58 218.612 222.456 218.86 222.456H224.192C224.564 222.456 224.812 222.704 224.812 223.076C225.06 226.548 225.556 230.02 226.424 233.368C226.672 234.98 227.664 236.468 229.028 237.336C230.764 238.204 232.748 238.576 234.732 238.08C234.856 238.08 235.104 238.08 235.228 238.204C235.352 238.328 235.476 238.452 235.476 238.576C237.708 249.488 240.064 268.832 240.064 269.08C240.064 269.204 240.064 269.452 239.94 269.576C239.816 269.7 239.692 269.824 239.444 269.824L198.152 269.7ZM196.416 243.412C196.664 246.14 197.532 257.92 198.772 268.46L238.824 268.336C238.328 264.864 236.344 248.992 234.36 239.196C232.376 239.444 230.268 239.072 228.408 238.08C226.796 236.964 225.556 235.228 225.184 233.244C224.316 230.02 223.82 226.672 223.572 223.324H219.604C220.1 225.804 221.216 233.244 218.736 236.84C217.992 237.956 216.876 238.576 215.512 238.824C214.272 239.072 213.156 238.576 212.288 237.832C208.94 234.732 209.064 225.804 209.188 223.448L204.228 223.076C204.6 225.804 205.592 234.732 201.872 239.94C200.632 241.676 198.648 242.916 196.416 243.412Z" fill="#D1D3D4"/>
<path d="M130.82 273.296C130.448 273.296 130.2 273.048 130.2 272.676L127.348 227.54C127.348 227.416 127.348 227.168 127.472 227.044C127.596 226.92 127.72 226.796 127.968 226.796L170.376 226.548C170.748 226.548 170.996 226.796 170.996 227.044L175.832 271.808C175.832 271.932 175.832 272.18 175.708 272.304C175.584 272.428 175.46 272.552 175.212 272.552L159.092 272.8C158.844 272.8 158.472 272.552 158.472 272.304L153.636 251.844L151.9 271.808C151.9 272.18 151.652 272.428 151.28 272.428L130.82 273.296ZM128.588 228.16L131.44 271.932L150.66 271.188L152.768 247.876C152.768 247.628 153.016 247.38 153.388 247.38C153.636 247.38 154.008 247.504 154.008 247.876L159.712 271.56L174.716 271.436L170.004 227.912L128.588 228.16Z" fill="#D1D3D4"/>
<path d="M128.712 233.12C128.34 233.12 128.092 232.872 128.092 232.5C128.092 232.128 128.34 231.88 128.712 231.88L170.252 231.26C170.624 231.26 170.872 231.508 170.872 231.756C170.872 231.756 170.872 231.756 170.872 231.88C170.872 232.252 170.624 232.5 170.252 232.5L128.712 233.12Z" fill="#D1D3D4"/>
<path d="M153.884 179.056H125.612C122.264 179.056 119.412 176.328 119.288 172.98C119.164 169.756 121.52 167.028 124.744 166.904C124.868 166.904 124.992 166.904 125.116 166.904H153.388C156.736 166.904 159.588 169.632 159.712 172.98C159.836 176.204 157.356 178.932 154.256 179.056C154.008 179.056 154.008 179.056 153.884 179.056Z" fill="url(#paint0_linear_597_423)"/>
<path d="M166.284 297.352H145.576C142.228 297.352 139.376 294.624 139.252 291.276C139.128 288.052 141.484 285.324 144.708 285.2C144.832 285.2 144.956 285.2 145.08 285.2H165.788C169.136 285.2 171.988 287.928 172.112 291.276C172.236 294.5 169.756 297.228 166.656 297.352C166.532 297.228 166.408 297.352 166.284 297.352Z" fill="#D1D3D4"/>
<path d="M234.608 297.352H213.9C210.552 297.352 207.7 294.624 207.576 291.276C207.452 288.052 209.932 285.324 213.032 285.2C213.156 285.2 213.28 285.2 213.404 285.2H234.112C237.46 285.2 240.312 287.928 240.436 291.276C240.56 294.5 238.08 297.228 234.98 297.352C234.732 297.228 234.608 297.352 234.608 297.352Z" fill="#D1D3D4"/>
<path d="M151.032 90.5201L113.708 89.7761C113.336 89.7761 113.088 89.5281 113.088 89.1561C113.088 88.7841 113.336 88.5361 113.708 88.5361L151.032 89.2801C151.404 89.2801 151.652 89.5281 151.652 89.9001C151.652 90.2721 151.404 90.5201 151.032 90.5201Z" fill="#D1D3D4"/>
<path d="M151.776 102.92L114.452 102.176C114.08 102.176 113.832 101.928 113.832 101.556C113.832 101.184 114.08 100.936 114.452 100.936L151.776 101.68C152.148 101.68 152.396 101.928 152.396 102.3C152.396 102.672 152.148 102.92 151.776 102.92Z" fill="#D1D3D4"/>
<path d="M152.52 115.32L115.196 114.576C114.824 114.576 114.576 114.328 114.576 113.956C114.576 113.584 114.824 113.336 115.196 113.336L152.52 114.08C152.892 114.08 153.14 114.328 153.14 114.7C153.14 115.072 152.892 115.32 152.52 115.32Z" fill="#D1D3D4"/>
<path d="M153.388 127.844L116.064 127.1C115.692 127.1 115.444 126.852 115.444 126.48C115.444 126.108 115.692 125.86 115.94 125.86C115.94 125.86 115.94 125.86 116.064 125.86L153.388 126.604C153.76 126.604 154.008 126.852 154.008 127.224C154.008 127.596 153.636 127.844 153.388 127.844Z" fill="#D1D3D4"/>
<path d="M154.132 140.244L116.808 139.5C116.436 139.5 116.188 139.252 116.188 138.88C116.188 138.508 116.436 138.26 116.808 138.26L154.132 139.004C154.504 139.004 154.752 139.252 154.752 139.624C154.752 139.996 154.38 140.244 154.132 140.244Z" fill="#D1D3D4"/>
<path d="M143.344 152.396L117.552 151.9C117.18 151.9 116.932 151.652 116.932 151.28C116.932 150.908 117.18 150.66 117.552 150.66L143.344 151.156C143.716 151.156 143.964 151.404 143.964 151.776C143.964 152.148 143.716 152.396 143.344 152.396Z" fill="#D1D3D4"/>
<path d="M206.584 119.164C206.584 119.164 199.764 118.42 191.208 124C182.652 129.58 170.5 136.896 170.5 136.896C170.5 136.896 171.368 137.516 175.212 148.428L190.96 142.972C190.96 142.972 192.696 159.712 193.44 167.152L166.036 209.312C166.036 209.312 174.592 216.504 181.784 211.296C181.784 211.296 183.52 218.736 189.348 217.744C195.176 216.752 197.16 212.908 197.16 212.908C197.16 212.908 199.144 219.108 203.98 218.364C208.816 217.62 211.42 212.66 211.42 212.66C211.42 212.66 213.9 219.108 219.976 218.116C223.572 217.496 226.548 214.768 227.54 211.296C227.54 211.296 234.236 224.192 247.628 209.932L230.02 167.152L233.492 142.352L244.652 151.156C244.652 151.156 252.216 151.776 250.48 141.98C250.48 141.98 236.096 123.628 229.524 120.528C222.952 117.428 206.584 119.164 206.584 119.164Z" fill="white"/>
<path d="M203.236 218.984C200.136 218.984 198.028 216.256 197.036 214.148C195.176 216.38 192.448 217.868 189.472 218.364C184.884 219.108 182.28 215.14 181.412 212.288C174.096 216.876 165.664 209.932 165.54 209.808C165.292 209.56 165.292 209.312 165.416 208.94L192.696 167.028C192.076 160.456 190.712 147.188 190.34 143.84L175.336 149.048C174.964 149.172 174.716 148.924 174.592 148.676C170.996 138.632 170.128 137.392 170.004 137.392C169.88 137.268 169.756 137.144 169.756 136.896C169.756 136.648 169.88 136.524 170.128 136.4C170.252 136.4 182.28 129.084 190.836 123.504C199.392 117.924 205.84 118.42 206.584 118.544C207.824 118.42 223.324 116.932 229.896 120.032C236.468 123.132 250.48 140.864 251.1 141.732C251.1 141.856 251.224 141.856 251.224 141.98C251.844 145.452 251.348 148.18 249.86 149.916C248.496 151.28 246.636 152.024 244.776 151.9C244.652 151.9 244.528 151.776 244.404 151.776L234.112 143.716L230.764 167.276L248.372 209.808C248.496 210.056 248.372 210.304 248.248 210.428C243.412 215.512 238.824 217.868 234.732 217.248C231.88 216.752 229.4 215.14 227.788 212.784C226.424 216.008 223.572 218.24 220.1 218.86C215.264 219.604 212.412 215.884 211.296 214.024C209.684 216.628 207.08 218.364 203.98 218.984C203.856 218.86 203.484 218.86 203.236 218.984ZM197.16 212.164C197.408 212.164 197.656 212.412 197.656 212.66C197.78 212.908 199.516 218.364 203.732 217.744C208.196 217 210.676 212.412 210.676 212.412C210.8 212.164 211.048 212.04 211.296 212.04C211.544 212.04 211.792 212.164 211.792 212.412C211.916 212.66 214.272 218.364 219.728 217.496C223.076 216.876 225.804 214.396 226.796 211.172C226.92 210.924 227.044 210.8 227.292 210.676C227.54 210.676 227.788 210.8 227.912 211.048C227.912 211.048 230.144 215.388 234.608 216.008C238.204 216.504 242.296 214.396 246.76 209.808L229.4 167.4C229.4 167.276 229.4 167.152 229.4 167.028L232.872 142.228C232.872 141.98 232.996 141.856 233.244 141.732C233.492 141.608 233.74 141.732 233.864 141.856L244.776 150.536C246.264 150.536 247.628 150.04 248.744 148.924C249.984 147.56 250.356 145.204 249.86 142.228C248.62 140.616 235.352 124 229.152 121.024C222.704 118.048 206.584 119.66 206.336 119.784H206.212C206.212 119.784 199.516 119.164 191.208 124.62C183.768 129.58 173.476 135.656 170.996 137.144C172.608 140.616 173.972 144.088 175.212 147.684L190.464 142.476C190.588 142.352 190.836 142.352 190.96 142.476C191.084 142.6 191.208 142.724 191.208 142.972C191.208 143.096 193.068 159.836 193.688 167.152C193.688 167.276 193.688 167.4 193.564 167.524L166.408 209.188C168.144 210.552 175.212 215.016 181.04 210.8C181.288 210.552 181.66 210.676 181.908 210.924C181.908 211.048 182.032 211.048 182.032 211.172C182.156 211.42 183.768 217.992 188.976 217.124C194.432 216.256 196.292 212.66 196.292 212.536C196.788 212.288 196.912 212.164 197.16 212.164Z" fill="#231F20"/>
<path d="M202.616 122.636C202.244 122.636 201.996 122.388 201.996 122.016C201.996 121.892 201.996 121.768 202.12 121.644C206.336 117.18 214.892 114.328 216.752 113.832C217.248 112.344 217.124 110.608 216.38 109.244C216.008 108.624 215.636 108.128 215.14 107.632C213.9 106.144 212.412 104.16 212.784 102.176C213.28 100.564 214.396 99.1998 215.884 98.5798C216.752 97.9598 217.992 97.8358 218.984 98.2078C220.968 99.0758 221.712 102.052 221.712 102.176C221.836 102.548 221.588 102.92 221.216 102.92C220.844 103.044 220.472 102.796 220.472 102.424C220.348 101.68 219.604 99.8198 218.488 99.3238C217.868 99.0758 217.124 99.1998 216.504 99.5718C215.264 100.068 214.396 101.06 214.024 102.3C213.776 103.788 215.016 105.4 216.132 106.764C216.628 107.384 217 107.88 217.496 108.5C218.364 110.36 218.488 112.468 217.868 114.452C217.868 114.7 217.62 114.824 217.496 114.824C217.372 114.824 207.452 117.8 203.112 122.512C202.864 122.636 202.74 122.636 202.616 122.636Z" fill="#231F20"/>
<path d="M228.78 124.248C228.532 124.248 228.408 124.124 228.284 124C225.556 119.908 221.588 116.684 217 114.824C216.628 114.7 216.504 114.328 216.628 114.08C216.752 113.708 217.124 113.584 217.372 113.708C222.208 115.692 226.424 119.04 229.276 123.38C229.4 123.628 229.4 124 229.028 124.248C229.028 124.248 228.904 124.248 228.78 124.248Z" fill="#231F20"/>
<path d="M215.636 128.712C214.52 128.712 213.404 128.588 212.288 128.464C201.004 126.976 200.26 120.156 200.136 119.908C200.136 119.536 200.384 119.288 200.632 119.288C201.004 119.288 201.252 119.536 201.376 119.784C201.376 120.032 202.12 125.86 212.412 127.224C218.86 127.968 225.432 126.232 230.516 122.264C230.764 122.016 231.136 122.016 231.384 122.388C231.632 122.636 231.632 123.008 231.26 123.256C226.92 126.728 221.34 128.712 215.636 128.712Z" fill="#231F20"/>
<path d="M291.524 113.212C291.524 113.212 285.696 126.728 287.432 128.092C289.168 129.456 293.632 128.464 293.632 128.464" fill="white"/>
<path d="M290.408 129.332C289.168 129.456 288.052 129.084 287.06 128.464C285.2 126.976 288.796 118.048 291.028 112.84C291.152 112.468 291.524 112.344 291.772 112.468C292.144 112.592 292.268 112.964 292.144 113.212V113.336C289.168 120.156 287.184 126.604 287.804 127.472C289.044 128.464 292.268 127.968 293.508 127.72C293.88 127.596 294.128 127.844 294.252 128.216C294.376 128.588 294.128 128.836 293.756 128.96C292.64 129.208 291.524 129.332 290.408 129.332Z" fill="#231F20"/>
<path d="M311.116 150.784L307.644 143.592C307.644 143.592 302.064 147.56 296.112 138.632C290.16 129.704 288.92 94.8599 288.92 94.8599C288.92 94.8599 304.42 116.684 308.76 113.088C307.892 106.764 311.488 102.796 315.952 110.608C319.424 116.684 312.604 120.404 312.604 120.404L318.308 141.98" fill="white"/>
<path d="M311.116 151.404C310.868 151.404 310.62 151.28 310.62 151.032L307.52 144.46C306.156 145.08 304.792 145.204 303.304 144.956C300.576 144.46 298.096 142.476 295.74 138.88C289.788 129.828 288.548 96.224 288.548 94.736C288.548 94.488 288.672 94.24 288.92 94.116C289.168 93.992 289.416 94.116 289.664 94.364C293.136 99.324 303.18 112.096 307.644 112.716C307.892 112.716 308.14 112.716 308.388 112.716C308.016 109.12 308.884 106.392 310.744 105.772C311.86 105.4 313.968 105.524 316.696 110.236C317.688 111.848 318.06 113.832 317.564 115.692C316.82 117.8 315.456 119.536 313.596 120.652L319.3 141.856C319.424 142.228 319.176 142.476 318.804 142.6C318.432 142.724 318.184 142.476 318.06 142.104L312.232 120.528C312.108 120.28 312.232 119.908 312.48 119.784C314.216 118.792 315.58 117.18 316.2 115.196C316.572 113.708 316.324 111.972 315.456 110.732C313.844 107.88 312.108 106.392 310.992 106.764C309.876 107.136 309.008 109.368 309.504 112.716C309.504 112.964 309.38 113.088 309.256 113.336C308.636 113.708 308.016 113.956 307.272 113.832C302.436 113.088 293.012 101.06 289.664 96.596C290.036 104.16 291.648 130.448 296.608 138.012C298.716 141.236 300.948 143.096 303.304 143.468C304.668 143.716 306.032 143.468 307.272 142.724C307.396 142.6 307.644 142.6 307.768 142.6C307.892 142.6 308.14 142.724 308.14 142.972L311.612 150.164C311.736 150.412 311.612 150.784 311.364 151.032C311.24 151.404 311.116 151.404 311.116 151.404Z" fill="#231F20"/>
<path d="M295.728 116.407C296.34 116.339 296.672 114.794 296.469 112.956C296.266 111.119 295.605 109.684 294.992 109.751C294.379 109.819 294.048 111.364 294.251 113.202C294.454 115.039 295.115 116.474 295.728 116.407Z" fill="#231F20"/>
<path d="M378.2 201.252C377.828 201.252 377.58 201.004 377.58 200.756C377.58 200.384 377.828 200.136 378.076 200.012C392.088 198.276 404.116 187.488 405.976 174.964C406.72 169.632 405.976 163.804 403.744 157.108C401.884 151.28 398.66 145.824 394.568 141.36C387.872 134.664 378.944 131.44 370.14 128.34C365.676 126.852 361.212 125.116 356.996 123.132C346.828 118.172 342.984 110.36 338.892 102.052C337.032 98.2078 335.048 94.4878 332.692 90.8918C324.26 77.8718 307.024 74.1518 294.004 82.5838C293.88 82.7078 293.756 82.7078 293.632 82.8318L292.392 83.5758C291.152 84.4438 289.788 85.3118 288.3 85.9318C287.68 86.1798 287.06 86.3038 286.44 86.5518C285.944 86.6758 285.324 86.7998 284.828 87.0478C279.248 89.1558 276.272 95.3558 278.38 100.936C279.496 104.16 282.1 106.64 285.448 107.632C285.82 107.756 285.944 108.128 285.944 108.376C285.82 108.748 285.448 108.872 285.2 108.872C278.876 106.888 275.28 100.192 277.14 93.8678C278.256 90.2718 280.984 87.4198 284.456 86.0558C284.952 85.8078 285.572 85.6838 286.192 85.5598C286.812 85.4358 287.308 85.1878 287.928 85.0638C289.292 84.4438 290.532 83.6998 291.772 82.8318L293.012 82.0878C306.404 73.1598 324.632 76.7558 333.56 90.1478C333.684 90.2718 333.684 90.3958 333.808 90.5198C336.164 94.1158 338.272 97.9598 340.132 101.928C344.348 110.36 347.944 117.552 357.74 122.388C361.956 124.372 366.296 126.108 370.76 127.596C379.564 130.696 388.74 134.044 395.56 140.988C399.9 145.576 403.124 151.156 405.108 157.232C407.464 164.176 408.332 170.128 407.464 175.584C405.356 188.232 392.832 199.392 378.2 201.252Z" fill="#231F20"/>
<path d="M307.148 186C307.148 186 293.88 187.612 266.476 167.524C239.072 147.436 230.144 111.972 228.408 110.112C226.672 108.252 225.928 108.128 223.572 107.756C220.596 107.26 217.992 105.524 216.256 102.92C216.008 102.672 215.884 102.3 216.008 101.928C216.132 101.432 216.628 101.06 217.248 101.06C217.744 101.184 218.364 101.308 218.86 101.68C219.852 102.176 220.968 102.424 222.208 102.548C222.58 102.548 222.952 102.548 223.324 102.3C223.944 101.928 224.192 101.184 224.192 100.44C224.192 98.0837 222.704 93.8677 219.604 95.2317C218.488 95.7277 217.868 96.8437 217.992 98.0837C218.116 98.3317 218.116 98.7037 217.992 98.9517C217.744 99.3237 217.372 99.4477 217 99.3237C214.892 99.1997 213.28 97.3397 213.528 95.2317C213.652 93.1237 215.512 91.5117 217.62 91.7597C217.744 91.7597 217.868 91.7597 218.116 91.8837L214.024 91.0157C213.156 90.8917 212.288 90.6437 211.42 90.1477C210.676 89.6517 210.18 88.7837 210.304 87.7917C210.428 87.2957 210.676 86.9237 210.924 86.5517C212.536 84.8157 215.14 84.4437 217.496 84.1957C221.34 83.8237 225.308 83.4517 229.028 84.5677C236.468 86.7997 240.188 92.7517 243.908 99.0757C255.564 119.536 272.8 136.4 293.508 147.56C302.808 152.52 313.348 156.736 323.888 155.992" fill="white"/>
<path d="M306.28 186.62C302.808 186.62 289.664 185.256 266.104 167.896C243.66 151.28 233.368 124.372 229.524 114.328C229.028 112.964 228.532 111.724 227.912 110.484C226.424 108.872 225.804 108.748 223.572 108.376H223.448C220.224 107.88 217.496 106.02 215.76 103.292C215.512 102.92 215.388 102.424 215.388 101.928C215.512 101.06 216.38 100.44 217.248 100.44C217.744 100.564 218.364 100.688 218.736 100.936L218.984 101.06C219.976 101.556 220.968 101.804 222.084 101.804C222.332 101.804 222.58 101.804 222.828 101.68C223.324 101.432 223.324 100.688 223.324 100.44C223.324 98.8277 222.58 96.5957 221.464 95.8517C220.968 95.4797 220.224 95.4797 219.604 95.8517C218.736 96.2237 218.24 97.0917 218.364 98.0837V98.2076C218.488 98.5796 218.364 98.9517 218.24 99.3237C217.868 99.9436 217.248 100.192 216.628 100.068C214.148 99.9436 212.412 97.8357 212.536 95.3557C212.66 93.9917 213.28 92.7516 214.396 92.0076L214.644 91.8836L213.404 91.6357C212.412 91.5117 211.42 91.1397 210.552 90.6437C209.56 90.0237 209.064 88.9076 209.188 87.6676C209.312 87.1716 209.56 86.5517 210.056 86.1797C211.792 84.3197 214.52 83.8237 217 83.5757C221.216 83.0797 225.06 82.8316 228.78 83.9476C236.22 86.1796 239.94 91.7597 244.032 98.7037C255.688 119.164 272.8 135.78 293.508 146.94C301.692 151.28 312.604 156.116 323.516 155.248C323.888 155.248 324.136 155.496 324.136 155.744C324.136 156.116 323.888 156.364 323.516 156.364C312.232 157.232 301.196 152.272 292.764 147.932C271.932 136.648 254.572 119.784 242.792 99.1997C238.824 92.3797 235.352 87.0477 228.284 84.9397C224.812 83.9477 221.092 84.1956 217 84.5676C214.644 84.8156 212.288 85.1877 210.8 86.7997C210.552 87.0477 210.428 87.2956 210.304 87.6676C210.304 88.2876 210.552 89.0317 211.172 89.4037C211.916 89.7757 212.66 90.0236 213.528 90.1476L217.62 91.0157C217.992 91.1397 218.116 91.3877 218.116 91.7597C217.992 92.1317 217.744 92.2557 217.372 92.2557C215.636 91.8837 214.024 92.9997 213.652 94.7357C213.404 95.7277 213.652 96.5957 214.272 97.3397C214.768 98.0837 215.636 98.4557 216.504 98.5797C216.628 98.5797 216.752 98.5797 217 98.5797C217 98.4557 217 98.3316 217 98.2076V98.0837C216.876 96.5957 217.62 95.2317 218.984 94.6117C219.976 94.1157 221.092 94.1157 221.96 94.7357C223.696 95.8517 224.44 98.8277 224.44 100.316C224.564 101.308 224.068 102.176 223.324 102.672C222.828 102.92 222.332 102.92 221.836 102.92C220.596 102.92 219.356 102.548 218.24 102.052L217.992 101.928C217.62 101.68 217.248 101.556 216.876 101.556C216.628 101.556 216.256 101.68 216.256 101.804C216.256 101.928 216.38 102.176 216.504 102.3C217.992 104.656 220.472 106.392 223.324 106.888H223.448C225.804 107.26 226.796 107.384 228.532 109.368C229.276 110.732 229.896 112.096 230.392 113.584C234.236 123.628 244.404 150.288 266.476 166.656C293.136 186.372 306.528 185.008 306.652 185.008C307.024 185.008 307.272 185.132 307.272 185.504C307.272 185.876 307.024 186.124 306.776 186.248C306.9 186.62 306.528 186.62 306.28 186.62Z" fill="#231F20"/>
<path d="M248.992 230.764C247.504 228.78 225.556 183.024 225.556 183.024L249.86 183.52L271.312 226.424L248.992 230.764Z" fill="#2E2E2E"/>
<path d="M248.992 231.384C248.744 231.384 248.62 231.26 248.496 231.136C247.008 229.152 225.928 185.132 225.06 183.272C224.936 183.148 224.936 182.9 225.06 182.652C225.184 182.528 225.432 182.404 225.556 182.404L249.86 182.9C250.108 182.9 250.356 183.024 250.356 183.272L271.808 226.176C271.932 226.3 271.932 226.548 271.808 226.672C271.684 226.796 271.56 226.92 271.312 227.044L248.992 231.384ZM226.672 183.644C232.748 196.416 247.256 226.424 249.364 230.02L270.568 225.804L249.612 184.016L226.672 183.644Z" fill="#D0D0D0"/>
<path d="M249.488 224.812L230.02 185.752L248.868 186.62L266.104 222.952L249.488 224.812Z" fill="url(#paint1_linear_597_423)"/>
<path d="M383.904 245.396C383.904 245.396 401.388 266.848 401.016 283.34C400.644 299.832 396.676 303.304 396.676 303.304L400.892 325.128L310 325.376L315.208 267.716L383.904 245.396Z" fill="#231F20"/>
<path d="M309.876 326.12C309.752 326.12 309.504 325.996 309.38 325.872C309.256 325.748 309.256 325.624 309.256 325.376L314.464 267.716C314.464 267.468 314.712 267.22 314.836 267.22L383.656 244.776C383.904 244.652 384.152 244.776 384.276 245.024C385.02 245.892 402.008 266.848 401.512 283.464C401.016 297.848 398.04 302.56 397.172 303.552L401.388 325.128C401.388 325.252 401.388 325.5 401.264 325.624C401.14 325.748 401.016 325.872 400.768 325.872L309.876 326.12ZM315.58 268.336L310.496 324.88L400.024 324.632L395.932 303.428C395.932 303.18 395.932 302.932 396.18 302.808C396.18 302.808 399.9 299.212 400.396 283.216C400.892 268.212 385.888 248.744 383.78 246.016L315.58 268.336Z" fill="#231F20"/>
<path d="M309.752 273.172C309.752 273.172 307.52 270.816 305.66 237.956C303.8 205.096 286.564 205.344 293.136 171.988C299.088 141.98 320.044 140.368 333.684 141.98C362.824 145.452 355.756 181.536 389.856 247.38C389.732 247.38 368.28 290.036 309.752 273.172Z" fill="url(#paint2_linear_597_423)"/>
<path d="M305.288 184.512C306.28 184.512 312.604 211.916 311.736 216.628C310.744 221.712 296.112 220.596 292.764 220.596C287.928 220.596 273.916 221.96 269.824 219.48C266.352 217.372 262.384 214.892 259.656 211.916C257.424 209.56 255.688 206.708 253.332 204.228C252.34 203.112 251.348 202.244 250.108 201.5C248.992 201.004 247.628 200.508 246.388 200.384C245.768 200.136 245.024 200.26 244.404 200.508C243.784 200.88 243.536 201.624 243.66 202.368C243.784 203.112 244.032 203.732 244.404 204.352C245.148 205.84 249.488 211.792 248.62 213.28C247.752 214.768 240.56 213.156 238.824 212.908C234.236 212.412 233.12 216.504 233.988 220.224C235.848 228.408 246.14 232.004 252.96 234.98C261.392 238.7 270.196 241.552 279.124 243.536C292.64 246.388 306.28 248 320.044 248.248C329.096 248.62 343.604 248.744 348.688 239.444C358.732 221.464 341.496 176.7 341.496 176.7" fill="white"/>
<path d="M325.128 249.116C323.144 249.116 321.408 248.992 320.044 248.992C306.28 248.62 292.392 247.132 278.876 244.156C269.824 242.172 261.02 239.32 252.588 235.6L250.48 234.608C243.536 231.632 234.98 227.912 233.368 220.348C232.624 218.116 233.12 215.636 234.484 213.652C235.6 212.412 237.336 211.916 238.948 212.164C239.32 212.164 239.94 212.288 240.684 212.412C242.42 212.66 247.504 213.652 248.124 212.784C248.744 211.916 245.768 207.452 244.9 206.088C244.528 205.468 244.156 204.848 243.908 204.6C243.536 203.98 243.288 203.236 243.164 202.368C243.04 201.376 243.412 200.508 244.156 200.012C244.9 199.64 245.768 199.516 246.636 199.888C249.488 200.136 252.092 201.624 253.952 203.856C255.192 205.096 256.308 206.46 257.424 207.948C258.292 209.188 259.284 210.304 260.4 211.544C263.252 214.272 266.476 216.628 269.824 218.612L270.444 218.984C273.42 220.844 282.348 220.472 288.424 220.1C290.284 219.976 291.896 219.976 293.012 219.976H294.624C298.964 220.1 310.744 220.472 311.488 216.504C312.232 212.164 306.404 186.992 305.288 185.008C305.164 184.884 305.04 184.636 305.04 184.512C305.04 184.14 305.288 183.892 305.66 183.892C305.908 183.892 306.032 184.016 306.28 184.14C307.644 185.752 313.596 211.916 312.728 216.628C311.736 221.712 300.204 221.34 294.624 221.092H293.012C291.896 221.092 290.284 221.216 288.424 221.216C281.976 221.464 273.048 221.96 269.824 219.852L269.204 219.48C265.732 217.496 262.384 215.016 259.532 212.164C258.416 211.048 257.424 209.684 256.556 208.568C255.564 207.204 254.448 205.84 253.208 204.6C252.34 203.608 251.224 202.74 250.108 201.996C248.992 201.5 247.752 201.128 246.512 200.88C246.016 200.756 245.52 200.756 245.024 200.88C244.652 201.128 244.528 201.624 244.528 202.12C244.652 202.74 244.9 203.36 245.148 203.856C245.272 204.104 245.644 204.724 246.016 205.344C248.248 208.94 250.108 212.04 249.24 213.404C248.372 214.768 244.776 214.396 240.56 213.652C239.816 213.528 239.196 213.404 238.824 213.404C237.584 213.156 236.344 213.528 235.352 214.52C234.236 216.132 233.988 218.24 234.484 220.1C236.096 227.044 244.28 230.64 250.976 233.492C251.72 233.74 252.464 234.112 253.084 234.484C261.516 238.204 270.196 241.056 279.124 242.916C292.64 245.768 306.28 247.38 320.044 247.628C327.484 247.876 342.984 248.496 348.192 239.196C357.988 221.588 341.124 177.444 341 177.072C340.876 176.7 341 176.452 341.372 176.328C341.744 176.204 341.992 176.328 342.116 176.7C342.86 178.56 359.228 221.836 349.184 239.94C344.72 247.876 333.312 249.116 325.128 249.116Z" fill="#231F20"/>
<path d="M339.884 170.996C339.636 170.996 339.388 170.872 339.264 170.624L331.204 153.016C331.08 152.768 331.204 152.396 331.452 152.148C331.824 152.024 332.072 152.148 332.32 152.396L340.38 169.88C340.504 170.128 340.38 170.5 340.132 170.748C340.132 170.996 340.008 170.996 339.884 170.996Z" fill="#231F20"/>
<path d="M294.624 133.92C294.252 133.92 294.004 133.92 294.004 133.92C293.632 133.92 293.384 133.548 293.508 133.176C293.508 132.804 293.88 132.556 294.252 132.68C294.5 132.68 301.444 133.548 303.676 123.752C303.8 123.38 304.048 123.256 304.42 123.256C304.792 123.38 304.916 123.628 304.916 124C302.684 133.176 296.484 133.92 294.624 133.92Z" fill="#231F20"/>
<path d="M359.228 322.028C358.98 322.028 358.732 321.904 358.732 321.532L349.432 280.612C349.308 280.364 349.556 279.992 349.804 279.992C350.052 279.868 350.424 280.116 350.424 280.364L359.724 321.284C359.848 321.532 359.6 321.904 359.352 321.904L359.228 322.028Z" fill="white"/>
<path d="M356.5 291.276C356.376 291.276 356.252 291.276 356.128 291.152C355.88 290.904 355.88 290.656 356.128 290.408C356.128 290.284 361.584 283.96 360.592 277.388C360.592 277.14 360.716 276.768 361.088 276.768C361.336 276.768 361.708 276.892 361.708 277.264C362.7 284.456 357.12 290.904 356.872 291.152C356.748 291.152 356.624 291.276 356.5 291.276Z" fill="white"/>
<defs>
<linearGradient id="paint0_linear_597_423" x1="139.5" y1="166.904" x2="139.5" y2="179.056" gradientUnits="userSpaceOnUse">
<stop stop-color="#68E1FD"/>
<stop offset="1" stop-color="#0D54DB"/>
</linearGradient>
<linearGradient id="paint1_linear_597_423" x1="248.062" y1="185.752" x2="248.062" y2="224.812" gradientUnits="userSpaceOnUse">
<stop stop-color="#68E1FD"/>
<stop offset="1" stop-color="#0D54DB"/>
</linearGradient>
<linearGradient id="paint2_linear_597_423" x1="340.753" y1="141.556" x2="340.753" y2="277.117" gradientUnits="userSpaceOnUse">
<stop stop-color="#68E1FD"/>
<stop offset="1" stop-color="#0D54DB"/>
</linearGradient>
</defs>
</svg>
