<svg width="466" height="357" viewBox="0 0 466 357" fill="none" xmlns="http://www.w3.org/2000/svg">
<path d="M35.8818 99.6309H430.118V330.86H110.535L86.769 366.369V330.86H35.8818V99.6309Z" fill="white"/>
<path d="M86.769 367.022H86.5826C86.303 366.928 86.1166 366.649 86.1166 366.369V331.419H35.7886C35.4158 331.419 35.1362 331.14 35.1362 330.767V99.6309C35.1362 99.2581 35.4158 98.9785 35.7886 98.9785H430.025C430.397 98.9785 430.677 99.2581 430.677 99.6309V330.86C430.677 331.233 430.397 331.513 430.025 331.513H110.908L87.3282 366.742C87.235 366.928 87.0486 367.022 86.769 367.022ZM36.441 330.115H86.769C87.1418 330.115 87.4214 330.394 87.4214 330.767V364.133L109.976 330.394C110.069 330.208 110.255 330.115 110.535 330.115H429.465V100.283H36.5342L36.441 330.115Z" fill="#231F20"/>
<path d="M125.447 283.794C152.213 283.794 173.911 281.457 173.911 278.575C173.911 275.692 152.213 273.355 125.447 273.355C98.6815 273.355 76.9834 275.692 76.9834 278.575C76.9834 281.457 98.6815 283.794 125.447 283.794Z" fill="#D1D3D4"/>
<path d="M110.256 245.023L105.223 178.572L159.932 176.335L164.126 245.396L110.256 245.023Z" fill="url(#paint0_linear_597_948)"/>
<path d="M185.748 263.01H99.8173C95.4369 263.01 91.8953 259.469 91.8953 255.088C91.8953 254.063 92.0817 253.038 92.4545 252.013L95.4369 244.93L83.2277 170.649L65.0537 166.082C64.6809 165.989 64.4945 165.616 64.5877 165.244C64.6809 164.871 65.0537 164.684 65.3333 164.778L83.9733 169.438C84.2529 169.531 84.4393 169.717 84.4393 169.997L96.7417 244.836C96.7417 244.93 96.7417 245.116 96.7417 245.209L93.6661 252.479C92.2681 255.834 93.8525 259.748 97.3009 261.146C98.1397 261.519 98.9785 261.612 99.8173 261.612H185.748C186.121 261.612 186.4 261.892 186.4 262.265C186.4 262.731 186.121 263.01 185.748 263.01Z" fill="#231F20"/>
<path d="M168.599 279.973C172.253 279.973 175.216 277.01 175.216 273.355C175.216 269.701 172.253 266.738 168.599 266.738C164.944 266.738 161.981 269.701 161.981 273.355C161.981 277.01 164.944 279.973 168.599 279.973Z" fill="#231F20"/>
<path d="M105.223 279.973C108.877 279.973 111.84 277.01 111.84 273.355C111.84 269.701 108.877 266.738 105.223 266.738C101.568 266.738 98.6055 269.701 98.6055 273.355C98.6055 277.01 101.568 279.973 105.223 279.973Z" fill="#231F20"/>
<path d="M181.833 246.048L101.588 245.489C101.215 245.489 101.029 245.21 100.936 244.93L94.6914 190.781C94.6914 190.594 94.6914 190.408 94.8778 190.222C94.971 190.035 95.1574 190.035 95.3438 190.035L199.914 191.713C200.287 191.713 200.567 191.992 200.567 192.365C200.567 192.458 200.567 192.552 200.567 192.552L182.393 245.489C182.393 245.862 182.113 246.048 181.833 246.048ZM102.147 244.184L181.367 244.65L199.075 193.018L96.0894 191.34L102.147 244.184Z" fill="#231F20"/>
<path d="M115.661 245.582C115.289 245.582 115.009 245.302 115.009 244.93L112.399 190.967C112.399 190.594 112.679 190.314 112.959 190.314C113.331 190.314 113.611 190.594 113.611 190.967L116.221 244.93C116.314 245.302 116.034 245.582 115.661 245.582Z" fill="#231F20"/>
<path d="M132.624 245.675C132.251 245.675 131.971 245.396 131.971 245.023V191.34C131.971 190.967 132.251 190.688 132.624 190.688C132.996 190.688 133.276 190.967 133.276 191.34V245.023C133.276 245.396 132.903 245.675 132.624 245.675Z" fill="#231F20"/>
<path d="M152.009 245.675C151.637 245.675 151.357 245.303 151.357 245.023L154.06 191.713C154.06 191.34 154.339 191.153 154.712 191.153C155.085 191.153 155.365 191.433 155.365 191.806L152.662 245.116C152.569 245.396 152.289 245.675 152.009 245.675Z" fill="#231F20"/>
<path d="M168.599 245.675C168.133 245.582 167.946 245.302 167.946 244.929L174.563 191.899C174.563 191.526 174.936 191.246 175.309 191.339C175.682 191.433 175.961 191.712 175.868 192.085L169.251 245.116C169.251 245.489 168.971 245.675 168.599 245.675Z" fill="#231F20"/>
<path d="M148.747 182.02C148.374 182.02 148.095 181.74 148.095 181.367C148.095 181.181 148.468 165.896 144.553 156.297C143.435 153.501 141.105 151.73 137.75 151.077C131.505 149.866 123.024 152.941 119.576 156.483C114.636 161.702 118.83 179.783 118.923 179.969C119.016 180.342 118.83 180.715 118.457 180.808C118.084 180.901 117.712 180.715 117.618 180.342C117.432 179.597 113.145 161.329 118.644 155.644C122.278 151.823 131.132 148.561 137.936 149.866C141.664 150.611 144.367 152.662 145.672 155.924C149.679 165.896 149.306 180.901 149.306 181.554C149.4 181.74 149.12 182.02 148.747 182.02Z" fill="#231F20"/>
<path d="M96.0894 245.676C95.7166 245.676 95.437 245.396 95.437 245.023C95.437 244.651 95.7166 244.371 96.0894 244.371L101.588 244.185C101.961 244.185 102.241 244.464 102.241 244.837C102.241 245.21 101.961 245.489 101.588 245.489L96.0894 245.676Z" fill="#231F20"/>
<path d="M190.501 208.396C202.288 208.396 211.844 198.84 211.844 187.053C211.844 175.265 202.288 165.71 190.501 165.71C178.714 165.71 169.158 175.265 169.158 187.053C169.158 198.84 178.714 208.396 190.501 208.396Z" fill="white"/>
<path d="M190.501 208.954C178.385 208.954 168.506 199.168 168.506 186.959C168.506 174.75 178.292 164.964 190.501 164.964C202.71 164.964 212.496 174.75 212.496 186.959C212.403 199.168 202.617 208.954 190.501 208.954ZM190.501 166.362C179.131 166.362 169.811 175.589 169.811 187.052C169.811 198.516 179.037 207.743 190.501 207.743C201.965 207.743 211.191 198.516 211.191 187.052C211.098 175.589 201.871 166.362 190.501 166.362Z" fill="#231F20"/>
<path d="M203.642 180.528C203.549 180.715 203.363 180.901 203.176 181.088C198.05 186.214 192.924 191.34 187.798 196.466C187.519 196.838 186.959 197.025 186.587 196.745C186.493 196.652 186.4 196.559 186.307 196.466C183.418 193.483 180.529 190.501 177.64 187.518C177.267 187.239 177.173 186.68 177.453 186.307C177.546 186.214 177.546 186.12 177.64 186.12L179.783 184.163C180.063 183.79 180.622 183.697 180.902 183.977C180.995 183.977 180.995 184.07 181.088 184.163L186.214 189.382C186.773 189.942 187.146 189.942 187.705 189.382L199.728 177.453C200.008 177.08 200.567 176.987 200.94 177.173C201.033 177.266 201.126 177.36 201.219 177.453C201.871 178.105 202.524 178.758 203.27 179.503C203.456 179.69 203.549 179.876 203.642 180.062V180.528Z" fill="url(#paint1_linear_597_948)"/>
<path d="M319.07 176.894C319.07 177.453 318.977 178.012 318.79 178.478C318.604 178.944 318.324 179.41 317.951 179.69C317.579 180.063 317.113 180.342 316.647 180.529C316.181 180.715 315.621 180.808 315.062 180.808C314.503 180.808 313.944 180.715 313.478 180.529C313.012 180.342 312.546 180.063 312.173 179.69C311.8 179.317 311.521 178.944 311.334 178.478C310.961 177.453 310.961 176.335 311.334 175.309C311.521 174.843 311.8 174.471 312.173 174.098C312.546 173.725 313.012 173.445 313.478 173.259C313.944 173.073 314.503 172.979 315.062 172.979C315.621 172.979 316.181 173.073 316.647 173.259C317.113 173.445 317.579 173.725 317.951 174.098C318.324 174.471 318.604 174.843 318.79 175.309C318.977 175.869 319.07 176.335 319.07 176.894ZM317.579 176.894C317.579 176.521 317.485 176.241 317.392 175.869C317.299 175.589 317.113 175.309 316.926 175.03C316.74 174.75 316.46 174.564 316.181 174.471C315.528 174.191 314.689 174.191 314.037 174.471C313.757 174.564 313.478 174.843 313.291 175.03C313.105 175.309 312.919 175.589 312.825 175.869C312.732 176.148 312.639 176.521 312.639 176.894C312.639 177.267 312.732 177.546 312.825 177.919C312.919 178.199 313.105 178.478 313.291 178.758C313.478 179.037 313.757 179.224 314.037 179.317C314.689 179.597 315.528 179.597 316.181 179.317C316.46 179.224 316.74 178.944 316.926 178.758C317.113 178.478 317.299 178.199 317.392 177.919C317.485 177.639 317.579 177.267 317.579 176.894Z" fill="#231F20"/>
<path d="M321.167 174.191C321.167 173.912 321.167 173.632 321.167 173.352H322.565C322.565 173.539 322.565 173.818 322.565 174.005C322.565 174.284 322.565 174.471 322.565 174.564C322.751 174.098 323.124 173.725 323.497 173.539C323.87 173.259 324.336 173.166 324.895 173.166C325.081 173.166 325.268 173.166 325.454 173.259L325.361 174.657C325.175 174.564 324.895 174.564 324.709 174.564C324.429 174.564 324.056 174.657 323.777 174.75C323.497 174.844 323.311 175.03 323.124 175.31C322.938 175.496 322.845 175.776 322.751 176.055C322.658 176.335 322.658 176.708 322.658 176.987V180.902H321.167V175.123C321.167 174.75 321.167 174.471 321.167 174.191Z" fill="#231F20"/>
<path d="M332.444 179.597C332.165 180.063 331.792 180.435 331.326 180.622C330.86 180.808 330.301 180.995 329.835 180.995C329.276 180.995 328.81 180.901 328.25 180.715C327.784 180.529 327.412 180.249 327.039 179.876C326.666 179.503 326.48 179.131 326.293 178.665C326.107 178.199 326.014 177.639 326.014 177.173C326.014 176.614 326.107 176.148 326.293 175.682C326.48 175.216 326.759 174.843 327.039 174.471C327.412 174.098 327.784 173.818 328.25 173.632C328.716 173.445 329.276 173.352 329.742 173.352C330.301 173.352 330.86 173.445 331.326 173.725C331.699 173.911 332.072 174.284 332.351 174.657V169.158H333.842V180.995H332.444V179.597ZM327.598 176.987C327.598 177.36 327.691 177.639 327.784 178.012C327.878 178.292 328.064 178.665 328.25 178.851C328.437 179.131 328.716 179.317 328.996 179.41C329.369 179.597 329.648 179.597 330.021 179.597C330.394 179.597 330.767 179.503 331.046 179.41C331.699 179.131 332.165 178.571 332.351 178.012C332.444 177.733 332.538 177.36 332.538 176.987C332.538 176.614 332.444 176.335 332.351 175.962C332.258 175.682 332.072 175.403 331.885 175.123C331.699 174.843 331.419 174.657 331.046 174.564C330.767 174.377 330.394 174.377 330.021 174.377C329.648 174.377 329.276 174.471 328.996 174.564C328.716 174.657 328.437 174.937 328.25 175.123C328.064 175.403 327.878 175.682 327.784 175.962C327.598 176.335 327.598 176.707 327.598 176.987Z" fill="#231F20"/>
<path d="M343.442 176.987V177.266C343.442 177.359 343.442 177.453 343.442 177.546H337.57C337.57 178.198 337.85 178.757 338.316 179.13C338.502 179.317 338.782 179.503 339.061 179.596C339.807 179.876 340.553 179.783 341.298 179.41C341.578 179.223 341.858 178.944 342.137 178.571L343.162 179.41C342.79 179.876 342.324 180.342 341.764 180.528C340.739 180.994 339.528 180.994 338.409 180.621C337.477 180.249 336.731 179.503 336.359 178.571C336.172 178.105 336.079 177.546 336.079 176.987C336.079 176.427 336.172 175.868 336.359 175.402C336.545 174.936 336.825 174.47 337.197 174.191C337.57 173.818 337.943 173.538 338.409 173.352C338.875 173.165 339.434 173.072 339.9 173.072C340.366 173.072 340.925 173.165 341.391 173.352C341.857 173.538 342.23 173.818 342.51 174.097C342.789 174.47 343.069 174.843 343.255 175.309C343.349 175.868 343.442 176.427 343.442 176.987ZM341.951 176.334C341.951 176.055 341.858 175.775 341.764 175.495C341.578 175.029 341.205 174.563 340.739 174.377C340.46 174.284 340.087 174.191 339.807 174.191C339.528 174.191 339.248 174.284 338.875 174.377C338.596 174.47 338.409 174.657 338.129 174.843C337.943 175.029 337.757 175.216 337.663 175.495C337.57 175.775 337.477 176.055 337.477 176.334H341.951Z" fill="#231F20"/>
<path d="M345.399 174.191C345.399 173.911 345.399 173.631 345.399 173.352H346.797C346.797 173.538 346.797 173.725 346.797 174.004C346.797 174.284 346.797 174.47 346.797 174.563C346.983 174.097 347.356 173.725 347.729 173.538C348.288 173.165 349.034 173.072 349.686 173.165L349.593 174.563C349.407 174.47 349.127 174.47 348.941 174.47C348.661 174.47 348.288 174.563 348.009 174.657C347.729 174.75 347.543 174.936 347.356 175.216C347.17 175.402 347.077 175.682 346.983 175.961C346.89 176.241 346.89 176.614 346.89 176.893V180.808H345.399V175.029C345.492 174.75 345.399 174.47 345.399 174.191Z" fill="#231F20"/>
<path d="M289.945 173.911C289.945 173.631 289.945 173.352 289.852 173.072H291.25C291.25 173.259 291.25 173.445 291.25 173.725C291.25 174.004 291.25 174.191 291.25 174.284C291.436 173.818 291.809 173.445 292.182 173.259C292.555 172.979 293.021 172.886 293.58 172.886C293.766 172.886 293.953 172.886 294.139 172.979L294.046 174.377C293.86 174.284 293.58 174.284 293.394 174.284C293.114 174.284 292.741 174.377 292.462 174.47C292.182 174.563 291.996 174.75 291.809 175.029C291.623 175.216 291.53 175.495 291.436 175.775C291.343 176.055 291.343 176.427 291.343 176.707V180.621H289.945V174.843C289.945 174.47 289.945 174.191 289.945 173.911Z" fill="#231F20"/>
<path d="M302.201 176.94V177.22C302.201 177.313 302.201 177.406 302.201 177.5H296.33C296.33 178.152 296.609 178.711 297.075 179.084C297.262 179.27 297.541 179.457 297.821 179.55C298.566 179.83 299.312 179.736 300.058 179.364C300.43 179.177 300.71 178.898 300.896 178.525L301.922 179.364C301.549 179.83 301.083 180.296 300.524 180.482C299.498 180.948 298.287 180.948 297.168 180.575C296.702 180.389 296.33 180.109 295.957 179.83C295.584 179.457 295.304 179.084 295.118 178.618C294.745 177.593 294.745 176.474 295.118 175.449C295.304 174.983 295.584 174.517 295.957 174.238C296.33 173.865 296.702 173.585 297.168 173.399C297.634 173.212 298.194 173.119 298.66 173.119C299.126 173.119 299.685 173.212 300.151 173.399C300.617 173.585 300.99 173.865 301.269 174.144C301.549 174.517 301.828 174.89 302.015 175.356C302.201 175.822 302.201 176.381 302.201 176.94ZM300.71 176.288C300.71 176.008 300.617 175.729 300.617 175.449C300.524 175.17 300.43 174.983 300.244 174.797C300.058 174.61 299.871 174.424 299.592 174.331C299.312 174.238 298.939 174.144 298.66 174.144C298.38 174.144 298.1 174.238 297.728 174.331C297.448 174.424 297.262 174.61 296.982 174.797C296.796 174.983 296.609 175.17 296.516 175.449C296.423 175.729 296.33 176.008 296.33 176.288H300.71Z" fill="#231F20"/>
<path d="M380.535 204.015H260.028C259.655 204.015 259.375 203.735 259.375 203.362C259.375 202.99 259.655 202.71 260.028 202.71H380.535C380.908 202.71 381.188 202.99 381.188 203.362C381.188 203.735 380.908 204.015 380.535 204.015Z" fill="#D1D3D4"/>
<path d="M365.064 230.391H260.028C259.655 230.391 259.375 230.111 259.375 229.738C259.375 229.366 259.655 229.086 260.028 229.086H365.064C365.437 229.086 365.717 229.366 365.717 229.738C365.717 230.111 365.437 230.391 365.064 230.391Z" fill="#D1D3D4"/>
<path d="M268.602 250.521H355.092C359.845 250.521 363.666 254.343 363.666 259.096V265.899C363.666 270.653 359.845 274.474 355.092 274.474H268.602C263.849 274.474 260.028 270.653 260.028 265.899V259.096C260.028 254.343 263.849 250.521 268.602 250.521Z" fill="#D1D3D4"/>
<line x1="305.23" y1="177.012" x2="308.259" y2="177.012" stroke="black" stroke-width="2"/>
<defs>
<linearGradient id="paint0_linear_597_948" x1="134.674" y1="176.335" x2="134.674" y2="245.396" gradientUnits="userSpaceOnUse">
<stop stop-color="#68E1FD"/>
<stop offset="1" stop-color="#0D54DB"/>
</linearGradient>
<linearGradient id="paint1_linear_597_948" x1="190.466" y1="177.08" x2="190.466" y2="196.88" gradientUnits="userSpaceOnUse">
<stop stop-color="#68E1FD"/>
<stop offset="1" stop-color="#0D54DB"/>
</linearGradient>
</defs>
</svg>
