<svg width="125" height="125" viewBox="0 0 125 125" fill="none" xmlns="http://www.w3.org/2000/svg">
<g clip-path="url(#clip0_597_290)">
<path d="M12.375 8H8V12.375H12.375V8Z" fill="white"/>
<path d="M16.75 8H12.375V12.375H16.75V8Z" fill="white"/>
<path d="M21.125 8H16.75V12.375H21.125V8Z" fill="white"/>
<path d="M25.5 8H21.125V12.375H25.5V8Z" fill="white"/>
<path d="M29.875 8H25.5V12.375H29.875V8Z" fill="white"/>
<path d="M34.25 8H29.875V12.375H34.25V8Z" fill="white"/>
<path d="M38.625 8H34.25V12.375H38.625V8Z" fill="white"/>
<path d="M47.375 8H43V12.375H47.375V8Z" fill="white"/>
<path d="M51.75 8H47.375V12.375H51.75V8Z" fill="white"/>
<path d="M56.125 8H51.75V12.375H56.125V8Z" fill="white"/>
<path d="M60.5 8H56.125V12.375H60.5V8Z" fill="white"/>
<path d="M78 8H73.625V12.375H78V8Z" fill="white"/>
<path d="M91.125 8H86.75V12.375H91.125V8Z" fill="white"/>
<path d="M95.5 8H91.125V12.375H95.5V8Z" fill="white"/>
<path d="M99.875 8H95.5V12.375H99.875V8Z" fill="white"/>
<path d="M104.25 8H99.875V12.375H104.25V8Z" fill="white"/>
<path d="M108.625 8H104.25V12.375H108.625V8Z" fill="white"/>
<path d="M113 8H108.625V12.375H113V8Z" fill="white"/>
<path d="M117.375 8H113V12.375H117.375V8Z" fill="white"/>
<path d="M12.375 12.375H8V16.75H12.375V12.375Z" fill="white"/>
<path d="M38.625 12.375H34.25L34.25 16.75H38.625V12.375Z" fill="white"/>
<path d="M60.5 12.375H56.125V16.75H60.5V12.375Z" fill="white"/>
<path d="M69.25 12.375H64.875V16.75H69.25V12.375Z" fill="white"/>
<path d="M73.625 12.375H69.25V16.75H73.625L73.625 12.375Z" fill="white"/>
<path d="M91.125 12.375H86.75V16.75H91.125V12.375Z" fill="white"/>
<path d="M117.375 12.375H113V16.75H117.375V12.375Z" fill="white"/>
<path d="M12.375 16.75H8V21.125H12.375V16.75Z" fill="white"/>
<path d="M21.125 16.75H16.75V21.125H21.125V16.75Z" fill="white"/>
<path d="M25.5 16.75H21.125V21.125H25.5V16.75Z" fill="white"/>
<path d="M29.875 16.75H25.5V21.125H29.875V16.75Z" fill="white"/>
<path d="M38.625 16.75H34.25V21.125H38.625V16.75Z" fill="white"/>
<path d="M47.375 16.75H43V21.125H47.375V16.75Z" fill="white"/>
<path d="M51.75 16.75H47.375V21.125H51.75V16.75Z" fill="white"/>
<path d="M60.5 16.75H56.125V21.125H60.5V16.75Z" fill="white"/>
<path d="M69.25 16.75H64.875V21.125H69.25V16.75Z" fill="white"/>
<path d="M73.625 16.75H69.25V21.125H73.625V16.75Z" fill="white"/>
<path d="M82.375 16.75H78V21.125H82.375V16.75Z" fill="white"/>
<path d="M91.125 16.75H86.75V21.125H91.125V16.75Z" fill="white"/>
<path d="M99.875 16.75H95.5V21.125H99.875V16.75Z" fill="white"/>
<path d="M104.25 16.75H99.875V21.125H104.25V16.75Z" fill="white"/>
<path d="M108.625 16.75H104.25V21.125H108.625V16.75Z" fill="white"/>
<path d="M117.375 16.75H113V21.125H117.375V16.75Z" fill="white"/>
<path d="M12.375 21.125H8V25.5H12.375V21.125Z" fill="white"/>
<path d="M21.125 21.125H16.75V25.5H21.125V21.125Z" fill="white"/>
<path d="M25.5 21.125H21.125V25.5H25.5V21.125Z" fill="white"/>
<path d="M29.875 21.125H25.5V25.5H29.875V21.125Z" fill="white"/>
<path d="M38.625 21.125H34.25V25.5H38.625V21.125Z" fill="white"/>
<path d="M47.375 21.125H43V25.5H47.375V21.125Z" fill="white"/>
<path d="M51.75 21.125H47.375V25.5H51.75V21.125Z" fill="white"/>
<path d="M56.125 21.125H51.75V25.5H56.125V21.125Z" fill="white"/>
<path d="M60.5 21.125H56.125V25.5H60.5V21.125Z" fill="white"/>
<path d="M73.625 21.125H69.25V25.5H73.625V21.125Z" fill="white"/>
<path d="M91.125 21.125H86.75V25.5H91.125V21.125Z" fill="white"/>
<path d="M99.875 21.125H95.5V25.5H99.875V21.125Z" fill="white"/>
<path d="M104.25 21.125H99.875V25.5H104.25V21.125Z" fill="white"/>
<path d="M108.625 21.125H104.25V25.5H108.625V21.125Z" fill="white"/>
<path d="M117.375 21.125H113V25.5H117.375V21.125Z" fill="white"/>
<path d="M12.375 25.5H8V29.875H12.375V25.5Z" fill="white"/>
<path d="M21.125 25.5H16.75V29.875H21.125V25.5Z" fill="white"/>
<path d="M25.5 25.5H21.125V29.875H25.5V25.5Z" fill="white"/>
<path d="M29.875 25.5H25.5V29.875H29.875V25.5Z" fill="white"/>
<path d="M38.625 25.5H34.25V29.875H38.625V25.5Z" fill="white"/>
<path d="M51.75 25.5H47.375V29.875H51.75V25.5Z" fill="white"/>
<path d="M56.125 25.5H51.75V29.875H56.125V25.5Z" fill="white"/>
<path d="M64.875 25.5H60.5V29.875H64.875V25.5Z" fill="white"/>
<path d="M69.25 25.5H64.875V29.875H69.25V25.5Z" fill="white"/>
<path d="M82.375 25.5H78V29.875H82.375V25.5Z" fill="white"/>
<path d="M91.125 25.5H86.75V29.875H91.125V25.5Z" fill="white"/>
<path d="M99.875 25.5H95.5V29.875H99.875V25.5Z" fill="white"/>
<path d="M104.25 25.5H99.875V29.875H104.25V25.5Z" fill="white"/>
<path d="M108.625 25.5H104.25V29.875H108.625V25.5Z" fill="white"/>
<path d="M117.375 25.5H113V29.875H117.375V25.5Z" fill="white"/>
<path d="M12.375 29.875H8V34.25H12.375V29.875Z" fill="white"/>
<path d="M38.625 29.875H34.25V34.25H38.625V29.875Z" fill="white"/>
<path d="M47.375 29.875H43V34.25H47.375V29.875Z" fill="white"/>
<path d="M51.75 29.875H47.375V34.25H51.75V29.875Z" fill="white"/>
<path d="M64.875 29.875H60.5V34.25H64.875V29.875Z" fill="white"/>
<path d="M73.625 29.875H69.25V34.25H73.625V29.875Z" fill="white"/>
<path d="M91.125 29.875H86.75V34.25H91.125V29.875Z" fill="white"/>
<path d="M117.375 29.875H113V34.25H117.375V29.875Z" fill="white"/>
<path d="M12.375 34.25H8V38.625H12.375V34.25Z" fill="white"/>
<path d="M16.75 34.25L12.375 34.25V38.625H16.75V34.25Z" fill="white"/>
<path d="M21.125 34.25H16.75V38.625H21.125V34.25Z" fill="white"/>
<path d="M25.5 34.25H21.125V38.625H25.5V34.25Z" fill="white"/>
<path d="M29.875 34.25H25.5V38.625H29.875V34.25Z" fill="white"/>
<path d="M34.25 34.25L29.875 34.25V38.625H34.25L34.25 34.25Z" fill="white"/>
<path d="M38.625 34.25H34.25L34.25 38.625H38.625V34.25Z" fill="white"/>
<path d="M47.375 34.25H43V38.625H47.375V34.25Z" fill="white"/>
<path d="M56.125 34.25L51.75 34.25V38.625H56.125V34.25Z" fill="white"/>
<path d="M64.875 34.25H60.5V38.625H64.875V34.25Z" fill="white"/>
<path d="M73.625 34.25H69.25V38.625H73.625V34.25Z" fill="white"/>
<path d="M82.375 34.25H78V38.625H82.375V34.25Z" fill="white"/>
<path d="M91.125 34.25H86.75V38.625H91.125V34.25Z" fill="white"/>
<path d="M95.5 34.25L91.125 34.25V38.625H95.5V34.25Z" fill="white"/>
<path d="M99.875 34.25H95.5V38.625H99.875V34.25Z" fill="white"/>
<path d="M104.25 34.25H99.875V38.625H104.25V34.25Z" fill="white"/>
<path d="M108.625 34.25H104.25V38.625H108.625V34.25Z" fill="white"/>
<path d="M113 34.25L108.625 34.25V38.625H113V34.25Z" fill="white"/>
<path d="M117.375 34.25H113V38.625H117.375V34.25Z" fill="white"/>
<path d="M47.375 38.625H43V43H47.375V38.625Z" fill="white"/>
<path d="M56.125 38.625H51.75V43H56.125V38.625Z" fill="white"/>
<path d="M69.25 38.625H64.875V43H69.25V38.625Z" fill="white"/>
<path d="M82.375 38.625H78V43H82.375V38.625Z" fill="white"/>
<path d="M12.375 43H8V47.375H12.375V43Z" fill="white"/>
<path d="M16.75 43H12.375V47.375H16.75V43Z" fill="white"/>
<path d="M25.5 43H21.125V47.375H25.5V43Z" fill="white"/>
<path d="M38.625 43H34.25V47.375H38.625V43Z" fill="white"/>
<path d="M43 43H38.625V47.375H43V43Z" fill="white"/>
<path d="M51.75 43H47.375V47.375H51.75V43Z" fill="white"/>
<path d="M69.25 43H64.875V47.375H69.25V43Z" fill="white"/>
<path d="M86.75 43H82.375V47.375H86.75V43Z" fill="white"/>
<path d="M91.125 43H86.75V47.375H91.125V43Z" fill="white"/>
<path d="M95.5 43H91.125V47.375H95.5V43Z" fill="white"/>
<path d="M104.25 43H99.875V47.375H104.25V43Z" fill="white"/>
<path d="M108.625 43H104.25V47.375H108.625V43Z" fill="white"/>
<path d="M117.375 43H113V47.375H117.375V43Z" fill="white"/>
<path d="M12.375 47.375H8V51.75H12.375V47.375Z" fill="white"/>
<path d="M25.5 47.375H21.125V51.75H25.5V47.375Z" fill="white"/>
<path d="M29.875 47.375H25.5V51.75H29.875V47.375Z" fill="white"/>
<path d="M43 47.375H38.625V51.75H43V47.375Z" fill="white"/>
<path d="M47.375 47.375H43V51.75H47.375V47.375Z" fill="white"/>
<path d="M60.5 47.375H56.125V51.75H60.5V47.375Z" fill="white"/>
<path d="M69.25 47.375H64.875V51.75H69.25V47.375Z" fill="white"/>
<path d="M73.625 47.375H69.25V51.75H73.625V47.375Z" fill="white"/>
<path d="M82.375 47.375H78V51.75H82.375V47.375Z" fill="white"/>
<path d="M86.75 47.375H82.375V51.75H86.75V47.375Z" fill="white"/>
<path d="M91.125 47.375H86.75V51.75H91.125V47.375Z" fill="white"/>
<path d="M95.5 47.375H91.125V51.75H95.5V47.375Z" fill="white"/>
<path d="M99.875 47.375H95.5V51.75H99.875V47.375Z" fill="white"/>
<path d="M104.25 47.375H99.875V51.75H104.25V47.375Z" fill="white"/>
<path d="M108.625 47.375H104.25V51.75H108.625V47.375Z" fill="white"/>
<path d="M12.375 51.75H8V56.125H12.375V51.75Z" fill="white"/>
<path d="M16.75 51.75H12.375V56.125H16.75V51.75Z" fill="white"/>
<path d="M21.125 51.75H16.75V56.125H21.125V51.75Z" fill="white"/>
<path d="M25.5 51.75H21.125V56.125H25.5V51.75Z" fill="white"/>
<path d="M34.25 51.75H29.875V56.125H34.25V51.75Z" fill="white"/>
<path d="M38.625 51.75H34.25V56.125H38.625V51.75Z" fill="white"/>
<path d="M43 51.75H38.625V56.125H43V51.75Z" fill="white"/>
<path d="M47.375 51.75H43V56.125H47.375V51.75Z" fill="white"/>
<path d="M60.5 51.75H56.125V56.125H60.5V51.75Z" fill="white"/>
<path d="M64.875 51.75H60.5V56.125H64.875V51.75Z" fill="white"/>
<path d="M69.25 51.75H64.875V56.125H69.25V51.75Z" fill="white"/>
<path d="M86.75 51.75H82.375V56.125H86.75V51.75Z" fill="white"/>
<path d="M95.5 51.75H91.125V56.125H95.5V51.75Z" fill="white"/>
<path d="M104.25 51.75H99.875V56.125H104.25V51.75Z" fill="white"/>
<path d="M108.625 51.75H104.25V56.125H108.625V51.75Z" fill="white"/>
<path d="M12.375 56.125H8V60.5H12.375V56.125Z" fill="white"/>
<path d="M16.75 56.125H12.375V60.5H16.75V56.125Z" fill="white"/>
<path d="M21.125 56.125H16.75V60.5H21.125V56.125Z" fill="white"/>
<path d="M51.75 56.125H47.375V60.5H51.75V56.125Z" fill="white"/>
<path d="M64.875 56.125H60.5V60.5H64.875V56.125Z" fill="white"/>
<path d="M69.25 56.125H64.875V60.5H69.25V56.125Z" fill="white"/>
<path d="M73.625 56.125H69.25V60.5H73.625V56.125Z" fill="white"/>
<path d="M78 56.125H73.625V60.5H78V56.125Z" fill="white"/>
<path d="M95.5 56.125H91.125V60.5H95.5V56.125Z" fill="white"/>
<path d="M113 56.125H108.625V60.5H113V56.125Z" fill="white"/>
<path d="M117.375 56.125H113V60.5H117.375V56.125Z" fill="white"/>
<path d="M16.75 60.5H12.375V64.875H16.75V60.5Z" fill="white"/>
<path d="M21.125 60.5H16.75V64.875H21.125V60.5Z" fill="white"/>
<path d="M25.5 60.5H21.125V64.875H25.5V60.5Z" fill="white"/>
<path d="M29.875 60.5H25.5V64.875H29.875V60.5Z" fill="white"/>
<path d="M38.625 60.5H34.25V64.875H38.625V60.5Z" fill="white"/>
<path d="M47.375 60.5H43V64.875H47.375V60.5Z" fill="white"/>
<path d="M56.125 60.5H51.75V64.875H56.125V60.5Z" fill="white"/>
<path d="M64.875 60.5H60.5V64.875H64.875V60.5Z" fill="white"/>
<path d="M69.25 60.5H64.875V64.875H69.25V60.5Z" fill="white"/>
<path d="M82.375 60.5H78V64.875H82.375V60.5Z" fill="white"/>
<path d="M113 60.5H108.625V64.875H113V60.5Z" fill="white"/>
<path d="M12.375 64.875H8V69.25H12.375V64.875Z" fill="white"/>
<path d="M16.75 64.875H12.375V69.25H16.75V64.875Z" fill="white"/>
<path d="M34.25 64.875H29.875V69.25H34.25L34.25 64.875Z" fill="white"/>
<path d="M47.375 64.875H43V69.25H47.375V64.875Z" fill="white"/>
<path d="M51.75 64.875H47.375V69.25H51.75V64.875Z" fill="white"/>
<path d="M56.125 64.875H51.75V69.25H56.125V64.875Z" fill="white"/>
<path d="M73.625 64.875H69.25V69.25H73.625V64.875Z" fill="white"/>
<path d="M91.125 64.875H86.75V69.25H91.125V64.875Z" fill="white"/>
<path d="M95.5 64.875H91.125V69.25H95.5V64.875Z" fill="white"/>
<path d="M99.875 64.875H95.5V69.25H99.875V64.875Z" fill="white"/>
<path d="M113 64.875H108.625V69.25H113V64.875Z" fill="white"/>
<path d="M25.5 69.25H21.125V73.625H25.5V69.25Z" fill="white"/>
<path d="M29.875 69.25H25.5V73.625H29.875V69.25Z" fill="white"/>
<path d="M38.625 69.25H34.25L34.25 73.625H38.625V69.25Z" fill="white"/>
<path d="M51.75 69.25H47.375V73.625H51.75V69.25Z" fill="white"/>
<path d="M64.875 69.25H60.5V73.625H64.875V69.25Z" fill="white"/>
<path d="M69.25 69.25H64.875V73.625H69.25V69.25Z" fill="white"/>
<path d="M78 69.25H73.625L73.625 73.625H78V69.25Z" fill="white"/>
<path d="M82.375 69.25H78V73.625H82.375V69.25Z" fill="white"/>
<path d="M86.75 69.25H82.375V73.625H86.75V69.25Z" fill="white"/>
<path d="M91.125 69.25H86.75V73.625H91.125V69.25Z" fill="white"/>
<path d="M95.5 69.25H91.125V73.625H95.5V69.25Z" fill="white"/>
<path d="M99.875 69.25H95.5V73.625H99.875V69.25Z" fill="white"/>
<path d="M108.625 69.25H104.25V73.625H108.625V69.25Z" fill="white"/>
<path d="M113 69.25H108.625V73.625H113V69.25Z" fill="white"/>
<path d="M12.375 73.625H8V78H12.375V73.625Z" fill="white"/>
<path d="M21.125 73.625L16.75 73.625V78H21.125V73.625Z" fill="white"/>
<path d="M29.875 73.625H25.5V78H29.875V73.625Z" fill="white"/>
<path d="M43 73.625L38.625 73.625V78H43V73.625Z" fill="white"/>
<path d="M47.375 73.625L43 73.625V78H47.375V73.625Z" fill="white"/>
<path d="M69.25 73.625H64.875V78H69.25V73.625Z" fill="white"/>
<path d="M82.375 73.625H78V78H82.375V73.625Z" fill="white"/>
<path d="M104.25 73.625H99.875V78H104.25V73.625Z" fill="white"/>
<path d="M113 73.625H108.625V78H113V73.625Z" fill="white"/>
<path d="M16.75 78H12.375V82.375H16.75V78Z" fill="white"/>
<path d="M34.25 78H29.875V82.375H34.25V78Z" fill="white"/>
<path d="M38.625 78H34.25V82.375H38.625V78Z" fill="white"/>
<path d="M43 78H38.625V82.375H43V78Z" fill="white"/>
<path d="M47.375 78H43V82.375H47.375V78Z" fill="white"/>
<path d="M51.75 78H47.375V82.375H51.75V78Z" fill="white"/>
<path d="M56.125 78H51.75V82.375H56.125V78Z" fill="white"/>
<path d="M60.5 78H56.125V82.375H60.5V78Z" fill="white"/>
<path d="M69.25 78H64.875V82.375H69.25V78Z" fill="white"/>
<path d="M73.625 78H69.25V82.375H73.625V78Z" fill="white"/>
<path d="M78 78H73.625V82.375H78V78Z" fill="white"/>
<path d="M82.375 78H78V82.375H82.375V78Z" fill="white"/>
<path d="M86.75 78H82.375V82.375H86.75V78Z" fill="white"/>
<path d="M91.125 78H86.75V82.375H91.125V78Z" fill="white"/>
<path d="M95.5 78H91.125V82.375H95.5V78Z" fill="white"/>
<path d="M99.875 78H95.5V82.375H99.875V78Z" fill="white"/>
<path d="M104.25 78H99.875V82.375H104.25V78Z" fill="white"/>
<path d="M108.625 78H104.25V82.375H108.625V78Z" fill="white"/>
<path d="M60.5 82.375H56.125V86.75H60.5V82.375Z" fill="white"/>
<path d="M64.875 82.375H60.5V86.75H64.875V82.375Z" fill="white"/>
<path d="M69.25 82.375H64.875V86.75H69.25V82.375Z" fill="white"/>
<path d="M73.625 82.375H69.25V86.75H73.625V82.375Z" fill="white"/>
<path d="M78 82.375H73.625V86.75H78V82.375Z" fill="white"/>
<path d="M82.375 82.375H78V86.75H82.375V82.375Z" fill="white"/>
<path d="M99.875 82.375H95.5V86.75H99.875V82.375Z" fill="white"/>
<path d="M104.25 82.375H99.875V86.75H104.25V82.375Z" fill="white"/>
<path d="M108.625 82.375H104.25V86.75H108.625V82.375Z" fill="white"/>
<path d="M113 82.375H108.625V86.75H113V82.375Z" fill="white"/>
<path d="M117.375 82.375H113V86.75H117.375V82.375Z" fill="white"/>
<path d="M12.375 86.75H8V91.125H12.375V86.75Z" fill="white"/>
<path d="M16.75 86.75H12.375V91.125H16.75V86.75Z" fill="white"/>
<path d="M21.125 86.75H16.75V91.125H21.125V86.75Z" fill="white"/>
<path d="M25.5 86.75H21.125V91.125H25.5V86.75Z" fill="white"/>
<path d="M29.875 86.75H25.5V91.125H29.875V86.75Z" fill="white"/>
<path d="M34.25 86.75H29.875V91.125H34.25V86.75Z" fill="white"/>
<path d="M38.625 86.75H34.25V91.125H38.625V86.75Z" fill="white"/>
<path d="M47.375 86.75H43V91.125H47.375V86.75Z" fill="white"/>
<path d="M56.125 86.75H51.75V91.125H56.125V86.75Z" fill="white"/>
<path d="M60.5 86.75H56.125V91.125H60.5V86.75Z" fill="white"/>
<path d="M64.875 86.75H60.5V91.125H64.875V86.75Z" fill="white"/>
<path d="M69.25 86.75H64.875V91.125H69.25V86.75Z" fill="white"/>
<path d="M73.625 86.75H69.25V91.125H73.625V86.75Z" fill="white"/>
<path d="M78 86.75H73.625V91.125H78V86.75Z" fill="white"/>
<path d="M82.375 86.75H78V91.125H82.375V86.75Z" fill="white"/>
<path d="M91.125 86.75H86.75V91.125H91.125V86.75Z" fill="white"/>
<path d="M99.875 86.75H95.5V91.125H99.875V86.75Z" fill="white"/>
<path d="M104.25 86.75H99.875V91.125H104.25V86.75Z" fill="white"/>
<path d="M108.625 86.75H104.25V91.125H108.625V86.75Z" fill="white"/>
<path d="M117.375 86.75H113V91.125H117.375V86.75Z" fill="white"/>
<path d="M12.375 91.125H8V95.5H12.375V91.125Z" fill="white"/>
<path d="M38.625 91.125H34.25L34.25 95.5H38.625V91.125Z" fill="white"/>
<path d="M51.75 91.125H47.375V95.5H51.75V91.125Z" fill="white"/>
<path d="M56.125 91.125H51.75V95.5H56.125V91.125Z" fill="white"/>
<path d="M60.5 91.125H56.125V95.5H60.5V91.125Z" fill="white"/>
<path d="M69.25 91.125H64.875V95.5H69.25V91.125Z" fill="white"/>
<path d="M78 91.125H73.625L73.625 95.5H78V91.125Z" fill="white"/>
<path d="M82.375 91.125H78V95.5H82.375V91.125Z" fill="white"/>
<path d="M99.875 91.125H95.5V95.5H99.875V91.125Z" fill="white"/>
<path d="M117.375 91.125H113V95.5H117.375V91.125Z" fill="white"/>
<path d="M12.375 95.5H8V99.875H12.375V95.5Z" fill="white"/>
<path d="M21.125 95.5H16.75V99.875H21.125V95.5Z" fill="white"/>
<path d="M25.5 95.5H21.125V99.875H25.5V95.5Z" fill="white"/>
<path d="M29.875 95.5H25.5V99.875H29.875V95.5Z" fill="white"/>
<path d="M38.625 95.5H34.25V99.875H38.625V95.5Z" fill="white"/>
<path d="M64.875 95.5H60.5V99.875H64.875V95.5Z" fill="white"/>
<path d="M69.25 95.5H64.875V99.875H69.25V95.5Z" fill="white"/>
<path d="M73.625 95.5H69.25V99.875H73.625L73.625 95.5Z" fill="white"/>
<path d="M78 95.5H73.625L73.625 99.875H78V95.5Z" fill="white"/>
<path d="M82.375 95.5H78V99.875H82.375V95.5Z" fill="white"/>
<path d="M86.75 95.5H82.375V99.875H86.75V95.5Z" fill="white"/>
<path d="M91.125 95.5H86.75V99.875H91.125V95.5Z" fill="white"/>
<path d="M95.5 95.5H91.125V99.875H95.5V95.5Z" fill="white"/>
<path d="M99.875 95.5H95.5V99.875H99.875V95.5Z" fill="white"/>
<path d="M104.25 95.5H99.875V99.875H104.25V95.5Z" fill="white"/>
<path d="M108.625 95.5H104.25V99.875H108.625V95.5Z" fill="white"/>
<path d="M113 95.5H108.625V99.875H113V95.5Z" fill="white"/>
<path d="M117.375 95.5H113V99.875H117.375V95.5Z" fill="white"/>
<path d="M12.375 99.875H8V104.25H12.375V99.875Z" fill="white"/>
<path d="M21.125 99.875H16.75V104.25H21.125V99.875Z" fill="white"/>
<path d="M25.5 99.875H21.125V104.25H25.5V99.875Z" fill="white"/>
<path d="M29.875 99.875H25.5V104.25H29.875V99.875Z" fill="white"/>
<path d="M38.625 99.875H34.25V104.25H38.625V99.875Z" fill="white"/>
<path d="M47.375 99.875H43V104.25H47.375V99.875Z" fill="white"/>
<path d="M60.5 99.875H56.125V104.25H60.5V99.875Z" fill="white"/>
<path d="M82.375 99.875H78V104.25H82.375V99.875Z" fill="white"/>
<path d="M99.875 99.875H95.5V104.25H99.875V99.875Z" fill="white"/>
<path d="M104.25 99.875H99.875V104.25H104.25V99.875Z" fill="white"/>
<path d="M117.375 99.875H113V104.25H117.375V99.875Z" fill="white"/>
<path d="M12.375 104.25H8V108.625H12.375V104.25Z" fill="white"/>
<path d="M21.125 104.25H16.75V108.625H21.125V104.25Z" fill="white"/>
<path d="M25.5 104.25H21.125V108.625H25.5V104.25Z" fill="white"/>
<path d="M29.875 104.25H25.5V108.625H29.875V104.25Z" fill="white"/>
<path d="M38.625 104.25H34.25V108.625H38.625V104.25Z" fill="white"/>
<path d="M60.5 104.25H56.125V108.625H60.5V104.25Z" fill="white"/>
<path d="M64.875 104.25H60.5V108.625H64.875V104.25Z" fill="white"/>
<path d="M73.625 104.25H69.25V108.625H73.625V104.25Z" fill="white"/>
<path d="M82.375 104.25H78V108.625H82.375V104.25Z" fill="white"/>
<path d="M86.75 104.25H82.375V108.625H86.75V104.25Z" fill="white"/>
<path d="M91.125 104.25H86.75V108.625H91.125V104.25Z" fill="white"/>
<path d="M104.25 104.25H99.875V108.625H104.25V104.25Z" fill="white"/>
<path d="M108.625 104.25H104.25V108.625H108.625V104.25Z" fill="white"/>
<path d="M113 104.25H108.625V108.625H113V104.25Z" fill="white"/>
<path d="M117.375 104.25H113V108.625H117.375V104.25Z" fill="white"/>
<path d="M12.375 108.625H8V113H12.375V108.625Z" fill="white"/>
<path d="M38.625 108.625H34.25V113H38.625V108.625Z" fill="white"/>
<path d="M47.375 108.625H43V113H47.375V108.625Z" fill="white"/>
<path d="M51.75 108.625H47.375V113H51.75V108.625Z" fill="white"/>
<path d="M64.875 108.625H60.5V113H64.875V108.625Z" fill="white"/>
<path d="M73.625 108.625H69.25V113H73.625V108.625Z" fill="white"/>
<path d="M82.375 108.625H78V113H82.375V108.625Z" fill="white"/>
<path d="M91.125 108.625H86.75V113H91.125V108.625Z" fill="white"/>
<path d="M104.25 108.625H99.875V113H104.25V108.625Z" fill="white"/>
<path d="M108.625 108.625H104.25V113H108.625V108.625Z" fill="white"/>
<path d="M117.375 108.625H113V113H117.375V108.625Z" fill="white"/>
<path d="M12.375 113H8V117.375H12.375V113Z" fill="white"/>
<path d="M16.75 113H12.375V117.375H16.75V113Z" fill="white"/>
<path d="M21.125 113H16.75V117.375H21.125V113Z" fill="white"/>
<path d="M25.5 113H21.125V117.375H25.5V113Z" fill="white"/>
<path d="M29.875 113H25.5V117.375H29.875V113Z" fill="white"/>
<path d="M34.25 113H29.875V117.375H34.25L34.25 113Z" fill="white"/>
<path d="M38.625 113H34.25L34.25 117.375H38.625V113Z" fill="white"/>
<path d="M47.375 113H43V117.375H47.375V113Z" fill="white"/>
<path d="M64.875 113H60.5V117.375H64.875V113Z" fill="white"/>
<path d="M69.25 113H64.875V117.375H69.25V113Z" fill="white"/>
<path d="M78 113H73.625L73.625 117.375H78V113Z" fill="white"/>
<path d="M82.375 113H78V117.375H82.375V113Z" fill="white"/>
<path d="M86.75 113H82.375V117.375H86.75V113Z" fill="white"/>
<path d="M91.125 113H86.75V117.375H91.125V113Z" fill="white"/>
<path d="M104.25 113H99.875V117.375H104.25V113Z" fill="white"/>
<path d="M117.375 113H113V117.375H117.375V113Z" fill="white"/>
</g>
<defs>
<clipPath id="clip0_597_290">
<rect width="125" height="125" fill="white"/>
</clipPath>
</defs>
</svg>
