<svg width="149" height="148" viewBox="0 0 149 148" fill="none" xmlns="http://www.w3.org/2000/svg">
<path opacity="0.8" d="M148.728 122.948L148.719 123.594C148.382 136.888 137.667 147.604 124.372 147.94L123.728 147.948H106.679V146.948H123.728C136.982 146.948 147.728 136.203 147.728 122.948V117.58H148.728V122.948ZM44.3848 1H25C11.7453 1 1.00024 11.7454 1 25V36.5986H0V25C0.000234769 11.4089 10.8458 0.350183 24.3545 0.0078125L25 0H44.3848V1Z" fill="#B1B1B1"/>
<g clip-path="url(#clip0_86_31)">
<path d="M23.375 19H19V23.375H23.375V19Z" fill="white"/>
<path d="M27.75 19H23.375V23.375H27.75V19Z" fill="white"/>
<path d="M32.125 19H27.75V23.375H32.125V19Z" fill="white"/>
<path d="M36.5 19H32.125V23.375H36.5V19Z" fill="white"/>
<path d="M40.875 19H36.5V23.375H40.875V19Z" fill="white"/>
<path d="M45.25 19H40.875V23.375H45.25V19Z" fill="white"/>
<path d="M49.625 19H45.25V23.375H49.625V19Z" fill="white"/>
<path d="M58.375 19H54V23.375H58.375V19Z" fill="white"/>
<path d="M62.75 19H58.375V23.375H62.75V19Z" fill="white"/>
<path d="M67.125 19H62.75V23.375H67.125V19Z" fill="white"/>
<path d="M71.5 19H67.125V23.375H71.5V19Z" fill="white"/>
<path d="M89 19H84.625V23.375H89V19Z" fill="white"/>
<path d="M102.125 19H97.75V23.375H102.125V19Z" fill="white"/>
<path d="M106.5 19H102.125V23.375H106.5V19Z" fill="white"/>
<path d="M110.875 19H106.5V23.375H110.875V19Z" fill="white"/>
<path d="M115.25 19H110.875V23.375H115.25V19Z" fill="white"/>
<path d="M119.625 19H115.25V23.375H119.625V19Z" fill="white"/>
<path d="M124 19H119.625V23.375H124V19Z" fill="white"/>
<path d="M128.375 19H124V23.375H128.375V19Z" fill="white"/>
<path d="M23.375 23.375H19V27.75H23.375V23.375Z" fill="white"/>
<path d="M49.625 23.375H45.25L45.25 27.75H49.625V23.375Z" fill="white"/>
<path d="M71.5 23.375H67.125V27.75H71.5V23.375Z" fill="white"/>
<path d="M80.25 23.375H75.875V27.75H80.25V23.375Z" fill="white"/>
<path d="M84.625 23.375H80.25V27.75H84.625L84.625 23.375Z" fill="white"/>
<path d="M102.125 23.375H97.75V27.75H102.125V23.375Z" fill="white"/>
<path d="M128.375 23.375H124V27.75H128.375V23.375Z" fill="white"/>
<path d="M23.375 27.75H19V32.125H23.375V27.75Z" fill="white"/>
<path d="M32.125 27.75H27.75V32.125H32.125V27.75Z" fill="white"/>
<path d="M36.5 27.75H32.125V32.125H36.5V27.75Z" fill="white"/>
<path d="M40.875 27.75H36.5V32.125H40.875V27.75Z" fill="white"/>
<path d="M49.625 27.75H45.25V32.125H49.625V27.75Z" fill="white"/>
<path d="M58.375 27.75H54V32.125H58.375V27.75Z" fill="white"/>
<path d="M62.75 27.75H58.375V32.125H62.75V27.75Z" fill="white"/>
<path d="M71.5 27.75H67.125V32.125H71.5V27.75Z" fill="white"/>
<path d="M80.25 27.75H75.875V32.125H80.25V27.75Z" fill="white"/>
<path d="M84.625 27.75H80.25V32.125H84.625V27.75Z" fill="white"/>
<path d="M93.375 27.75H89V32.125H93.375V27.75Z" fill="white"/>
<path d="M102.125 27.75H97.75V32.125H102.125V27.75Z" fill="white"/>
<path d="M110.875 27.75H106.5V32.125H110.875V27.75Z" fill="white"/>
<path d="M115.25 27.75H110.875V32.125H115.25V27.75Z" fill="white"/>
<path d="M119.625 27.75H115.25V32.125H119.625V27.75Z" fill="white"/>
<path d="M128.375 27.75H124V32.125H128.375V27.75Z" fill="white"/>
<path d="M23.375 32.125H19V36.5H23.375V32.125Z" fill="white"/>
<path d="M32.125 32.125H27.75V36.5H32.125V32.125Z" fill="white"/>
<path d="M36.5 32.125H32.125V36.5H36.5V32.125Z" fill="white"/>
<path d="M40.875 32.125H36.5V36.5H40.875V32.125Z" fill="white"/>
<path d="M49.625 32.125H45.25V36.5H49.625V32.125Z" fill="white"/>
<path d="M58.375 32.125H54V36.5H58.375V32.125Z" fill="white"/>
<path d="M62.75 32.125H58.375V36.5H62.75V32.125Z" fill="white"/>
<path d="M67.125 32.125H62.75V36.5H67.125V32.125Z" fill="white"/>
<path d="M71.5 32.125H67.125V36.5H71.5V32.125Z" fill="white"/>
<path d="M84.625 32.125H80.25V36.5H84.625V32.125Z" fill="white"/>
<path d="M102.125 32.125H97.75V36.5H102.125V32.125Z" fill="white"/>
<path d="M110.875 32.125H106.5V36.5H110.875V32.125Z" fill="white"/>
<path d="M115.25 32.125H110.875V36.5H115.25V32.125Z" fill="white"/>
<path d="M119.625 32.125H115.25V36.5H119.625V32.125Z" fill="white"/>
<path d="M128.375 32.125H124V36.5H128.375V32.125Z" fill="white"/>
<path d="M23.375 36.5H19V40.875H23.375V36.5Z" fill="white"/>
<path d="M32.125 36.5H27.75V40.875H32.125V36.5Z" fill="white"/>
<path d="M36.5 36.5H32.125V40.875H36.5V36.5Z" fill="white"/>
<path d="M40.875 36.5H36.5V40.875H40.875V36.5Z" fill="white"/>
<path d="M49.625 36.5H45.25V40.875H49.625V36.5Z" fill="white"/>
<path d="M62.75 36.5H58.375V40.875H62.75V36.5Z" fill="white"/>
<path d="M67.125 36.5H62.75V40.875H67.125V36.5Z" fill="white"/>
<path d="M75.875 36.5H71.5V40.875H75.875V36.5Z" fill="white"/>
<path d="M80.25 36.5H75.875V40.875H80.25V36.5Z" fill="white"/>
<path d="M93.375 36.5H89V40.875H93.375V36.5Z" fill="white"/>
<path d="M102.125 36.5H97.75V40.875H102.125V36.5Z" fill="white"/>
<path d="M110.875 36.5H106.5V40.875H110.875V36.5Z" fill="white"/>
<path d="M115.25 36.5H110.875V40.875H115.25V36.5Z" fill="white"/>
<path d="M119.625 36.5H115.25V40.875H119.625V36.5Z" fill="white"/>
<path d="M128.375 36.5H124V40.875H128.375V36.5Z" fill="white"/>
<path d="M23.375 40.875H19V45.25H23.375V40.875Z" fill="white"/>
<path d="M49.625 40.875H45.25V45.25H49.625V40.875Z" fill="white"/>
<path d="M58.375 40.875H54V45.25H58.375V40.875Z" fill="white"/>
<path d="M62.75 40.875H58.375V45.25H62.75V40.875Z" fill="white"/>
<path d="M75.875 40.875H71.5V45.25H75.875V40.875Z" fill="white"/>
<path d="M84.625 40.875H80.25V45.25H84.625V40.875Z" fill="white"/>
<path d="M102.125 40.875H97.75V45.25H102.125V40.875Z" fill="white"/>
<path d="M128.375 40.875H124V45.25H128.375V40.875Z" fill="white"/>
<path d="M23.375 45.25H19V49.625H23.375V45.25Z" fill="white"/>
<path d="M27.75 45.25L23.375 45.25V49.625H27.75V45.25Z" fill="white"/>
<path d="M32.125 45.25H27.75V49.625H32.125V45.25Z" fill="white"/>
<path d="M36.5 45.25H32.125V49.625H36.5V45.25Z" fill="white"/>
<path d="M40.875 45.25H36.5V49.625H40.875V45.25Z" fill="white"/>
<path d="M45.25 45.25L40.875 45.25V49.625H45.25L45.25 45.25Z" fill="white"/>
<path d="M49.625 45.25H45.25L45.25 49.625H49.625V45.25Z" fill="white"/>
<path d="M58.375 45.25H54V49.625H58.375V45.25Z" fill="white"/>
<path d="M67.125 45.25L62.75 45.25V49.625H67.125V45.25Z" fill="white"/>
<path d="M75.875 45.25H71.5V49.625H75.875V45.25Z" fill="white"/>
<path d="M84.625 45.25H80.25V49.625H84.625V45.25Z" fill="white"/>
<path d="M93.375 45.25H89V49.625H93.375V45.25Z" fill="white"/>
<path d="M102.125 45.25H97.75V49.625H102.125V45.25Z" fill="white"/>
<path d="M106.5 45.25L102.125 45.25V49.625H106.5V45.25Z" fill="white"/>
<path d="M110.875 45.25H106.5V49.625H110.875V45.25Z" fill="white"/>
<path d="M115.25 45.25H110.875V49.625H115.25V45.25Z" fill="white"/>
<path d="M119.625 45.25H115.25V49.625H119.625V45.25Z" fill="white"/>
<path d="M124 45.25L119.625 45.25V49.625H124V45.25Z" fill="white"/>
<path d="M128.375 45.25H124V49.625H128.375V45.25Z" fill="white"/>
<path d="M58.375 49.625H54V54H58.375V49.625Z" fill="white"/>
<path d="M67.125 49.625H62.75V54H67.125V49.625Z" fill="white"/>
<path d="M80.25 49.625H75.875V54H80.25V49.625Z" fill="white"/>
<path d="M93.375 49.625H89V54H93.375V49.625Z" fill="white"/>
<path d="M23.375 54H19V58.375H23.375V54Z" fill="white"/>
<path d="M27.75 54H23.375V58.375H27.75V54Z" fill="white"/>
<path d="M36.5 54H32.125V58.375H36.5V54Z" fill="white"/>
<path d="M49.625 54H45.25V58.375H49.625V54Z" fill="white"/>
<path d="M54 54H49.625V58.375H54V54Z" fill="white"/>
<path d="M62.75 54H58.375V58.375H62.75V54Z" fill="white"/>
<path d="M80.25 54H75.875V58.375H80.25V54Z" fill="white"/>
<path d="M97.75 54H93.375V58.375H97.75V54Z" fill="white"/>
<path d="M102.125 54H97.75V58.375H102.125V54Z" fill="white"/>
<path d="M106.5 54H102.125V58.375H106.5V54Z" fill="white"/>
<path d="M115.25 54H110.875V58.375H115.25V54Z" fill="white"/>
<path d="M119.625 54H115.25V58.375H119.625V54Z" fill="white"/>
<path d="M128.375 54H124V58.375H128.375V54Z" fill="white"/>
<path d="M23.375 58.375H19V62.75H23.375V58.375Z" fill="white"/>
<path d="M36.5 58.375H32.125V62.75H36.5V58.375Z" fill="white"/>
<path d="M40.875 58.375H36.5V62.75H40.875V58.375Z" fill="white"/>
<path d="M54 58.375H49.625V62.75H54V58.375Z" fill="white"/>
<path d="M58.375 58.375H54V62.75H58.375V58.375Z" fill="white"/>
<path d="M71.5 58.375H67.125V62.75H71.5V58.375Z" fill="white"/>
<path d="M80.25 58.375H75.875V62.75H80.25V58.375Z" fill="white"/>
<path d="M84.625 58.375H80.25V62.75H84.625V58.375Z" fill="white"/>
<path d="M93.375 58.375H89V62.75H93.375V58.375Z" fill="white"/>
<path d="M97.75 58.375H93.375V62.75H97.75V58.375Z" fill="white"/>
<path d="M102.125 58.375H97.75V62.75H102.125V58.375Z" fill="white"/>
<path d="M106.5 58.375H102.125V62.75H106.5V58.375Z" fill="white"/>
<path d="M110.875 58.375H106.5V62.75H110.875V58.375Z" fill="white"/>
<path d="M115.25 58.375H110.875V62.75H115.25V58.375Z" fill="white"/>
<path d="M119.625 58.375H115.25V62.75H119.625V58.375Z" fill="white"/>
<path d="M23.375 62.75H19V67.125H23.375V62.75Z" fill="white"/>
<path d="M27.75 62.75H23.375V67.125H27.75V62.75Z" fill="white"/>
<path d="M32.125 62.75H27.75V67.125H32.125V62.75Z" fill="white"/>
<path d="M36.5 62.75H32.125V67.125H36.5V62.75Z" fill="white"/>
<path d="M45.25 62.75H40.875V67.125H45.25V62.75Z" fill="white"/>
<path d="M49.625 62.75H45.25V67.125H49.625V62.75Z" fill="white"/>
<path d="M54 62.75H49.625V67.125H54V62.75Z" fill="white"/>
<path d="M58.375 62.75H54V67.125H58.375V62.75Z" fill="white"/>
<path d="M71.5 62.75H67.125V67.125H71.5V62.75Z" fill="white"/>
<path d="M75.875 62.75H71.5V67.125H75.875V62.75Z" fill="white"/>
<path d="M80.25 62.75H75.875V67.125H80.25V62.75Z" fill="white"/>
<path d="M97.75 62.75H93.375V67.125H97.75V62.75Z" fill="white"/>
<path d="M106.5 62.75H102.125V67.125H106.5V62.75Z" fill="white"/>
<path d="M115.25 62.75H110.875V67.125H115.25V62.75Z" fill="white"/>
<path d="M119.625 62.75H115.25V67.125H119.625V62.75Z" fill="white"/>
<path d="M23.375 67.125H19V71.5H23.375V67.125Z" fill="white"/>
<path d="M27.75 67.125H23.375V71.5H27.75V67.125Z" fill="white"/>
<path d="M32.125 67.125H27.75V71.5H32.125V67.125Z" fill="white"/>
<path d="M62.75 67.125H58.375V71.5H62.75V67.125Z" fill="white"/>
<path d="M75.875 67.125H71.5V71.5H75.875V67.125Z" fill="white"/>
<path d="M80.25 67.125H75.875V71.5H80.25V67.125Z" fill="white"/>
<path d="M84.625 67.125H80.25V71.5H84.625V67.125Z" fill="white"/>
<path d="M89 67.125H84.625V71.5H89V67.125Z" fill="white"/>
<path d="M106.5 67.125H102.125V71.5H106.5V67.125Z" fill="white"/>
<path d="M124 67.125H119.625V71.5H124V67.125Z" fill="white"/>
<path d="M128.375 67.125H124V71.5H128.375V67.125Z" fill="white"/>
<path d="M27.75 71.5H23.375V75.875H27.75V71.5Z" fill="white"/>
<path d="M32.125 71.5H27.75V75.875H32.125V71.5Z" fill="white"/>
<path d="M36.5 71.5H32.125V75.875H36.5V71.5Z" fill="white"/>
<path d="M40.875 71.5H36.5V75.875H40.875V71.5Z" fill="white"/>
<path d="M49.625 71.5H45.25V75.875H49.625V71.5Z" fill="white"/>
<path d="M58.375 71.5H54V75.875H58.375V71.5Z" fill="white"/>
<path d="M67.125 71.5H62.75V75.875H67.125V71.5Z" fill="white"/>
<path d="M75.875 71.5H71.5V75.875H75.875V71.5Z" fill="white"/>
<path d="M80.25 71.5H75.875V75.875H80.25V71.5Z" fill="white"/>
<path d="M93.375 71.5H89V75.875H93.375V71.5Z" fill="white"/>
<path d="M124 71.5H119.625V75.875H124V71.5Z" fill="white"/>
<path d="M23.375 75.875H19V80.25H23.375V75.875Z" fill="white"/>
<path d="M27.75 75.875H23.375V80.25H27.75V75.875Z" fill="white"/>
<path d="M45.25 75.875H40.875V80.25H45.25L45.25 75.875Z" fill="white"/>
<path d="M58.375 75.875H54V80.25H58.375V75.875Z" fill="white"/>
<path d="M62.75 75.875H58.375V80.25H62.75V75.875Z" fill="white"/>
<path d="M67.125 75.875H62.75V80.25H67.125V75.875Z" fill="white"/>
<path d="M84.625 75.875H80.25V80.25H84.625V75.875Z" fill="white"/>
<path d="M102.125 75.875H97.75V80.25H102.125V75.875Z" fill="white"/>
<path d="M106.5 75.875H102.125V80.25H106.5V75.875Z" fill="white"/>
<path d="M110.875 75.875H106.5V80.25H110.875V75.875Z" fill="white"/>
<path d="M124 75.875H119.625V80.25H124V75.875Z" fill="white"/>
<path d="M36.5 80.25H32.125V84.625H36.5V80.25Z" fill="white"/>
<path d="M40.875 80.25H36.5V84.625H40.875V80.25Z" fill="white"/>
<path d="M49.625 80.25H45.25L45.25 84.625H49.625V80.25Z" fill="white"/>
<path d="M62.75 80.25H58.375V84.625H62.75V80.25Z" fill="white"/>
<path d="M75.875 80.25H71.5V84.625H75.875V80.25Z" fill="white"/>
<path d="M80.25 80.25H75.875V84.625H80.25V80.25Z" fill="white"/>
<path d="M89 80.25H84.625L84.625 84.625H89V80.25Z" fill="white"/>
<path d="M93.375 80.25H89V84.625H93.375V80.25Z" fill="white"/>
<path d="M97.75 80.25H93.375V84.625H97.75V80.25Z" fill="white"/>
<path d="M102.125 80.25H97.75V84.625H102.125V80.25Z" fill="white"/>
<path d="M106.5 80.25H102.125V84.625H106.5V80.25Z" fill="white"/>
<path d="M110.875 80.25H106.5V84.625H110.875V80.25Z" fill="white"/>
<path d="M119.625 80.25H115.25V84.625H119.625V80.25Z" fill="white"/>
<path d="M124 80.25H119.625V84.625H124V80.25Z" fill="white"/>
<path d="M23.375 84.625H19V89H23.375V84.625Z" fill="white"/>
<path d="M32.125 84.625L27.75 84.625V89H32.125V84.625Z" fill="white"/>
<path d="M40.875 84.625H36.5V89H40.875V84.625Z" fill="white"/>
<path d="M54 84.625L49.625 84.625V89H54V84.625Z" fill="white"/>
<path d="M58.375 84.625L54 84.625V89H58.375V84.625Z" fill="white"/>
<path d="M80.25 84.625H75.875V89H80.25V84.625Z" fill="white"/>
<path d="M93.375 84.625H89V89H93.375V84.625Z" fill="white"/>
<path d="M115.25 84.625H110.875V89H115.25V84.625Z" fill="white"/>
<path d="M124 84.625H119.625V89H124V84.625Z" fill="white"/>
<path d="M27.75 89H23.375V93.375H27.75V89Z" fill="white"/>
<path d="M45.25 89H40.875V93.375H45.25V89Z" fill="white"/>
<path d="M49.625 89H45.25V93.375H49.625V89Z" fill="white"/>
<path d="M54 89H49.625V93.375H54V89Z" fill="white"/>
<path d="M58.375 89H54V93.375H58.375V89Z" fill="white"/>
<path d="M62.75 89H58.375V93.375H62.75V89Z" fill="white"/>
<path d="M67.125 89H62.75V93.375H67.125V89Z" fill="white"/>
<path d="M71.5 89H67.125V93.375H71.5V89Z" fill="white"/>
<path d="M80.25 89H75.875V93.375H80.25V89Z" fill="white"/>
<path d="M84.625 89H80.25V93.375H84.625V89Z" fill="white"/>
<path d="M89 89H84.625V93.375H89V89Z" fill="white"/>
<path d="M93.375 89H89V93.375H93.375V89Z" fill="white"/>
<path d="M97.75 89H93.375V93.375H97.75V89Z" fill="white"/>
<path d="M102.125 89H97.75V93.375H102.125V89Z" fill="white"/>
<path d="M106.5 89H102.125V93.375H106.5V89Z" fill="white"/>
<path d="M110.875 89H106.5V93.375H110.875V89Z" fill="white"/>
<path d="M115.25 89H110.875V93.375H115.25V89Z" fill="white"/>
<path d="M119.625 89H115.25V93.375H119.625V89Z" fill="white"/>
<path d="M71.5 93.375H67.125V97.75H71.5V93.375Z" fill="white"/>
<path d="M75.875 93.375H71.5V97.75H75.875V93.375Z" fill="white"/>
<path d="M80.25 93.375H75.875V97.75H80.25V93.375Z" fill="white"/>
<path d="M84.625 93.375H80.25V97.75H84.625V93.375Z" fill="white"/>
<path d="M89 93.375H84.625V97.75H89V93.375Z" fill="white"/>
<path d="M93.375 93.375H89V97.75H93.375V93.375Z" fill="white"/>
<path d="M110.875 93.375H106.5V97.75H110.875V93.375Z" fill="white"/>
<path d="M115.25 93.375H110.875V97.75H115.25V93.375Z" fill="white"/>
<path d="M119.625 93.375H115.25V97.75H119.625V93.375Z" fill="white"/>
<path d="M124 93.375H119.625V97.75H124V93.375Z" fill="white"/>
<path d="M128.375 93.375H124V97.75H128.375V93.375Z" fill="white"/>
<path d="M23.375 97.75H19V102.125H23.375V97.75Z" fill="white"/>
<path d="M27.75 97.75H23.375V102.125H27.75V97.75Z" fill="white"/>
<path d="M32.125 97.75H27.75V102.125H32.125V97.75Z" fill="white"/>
<path d="M36.5 97.75H32.125V102.125H36.5V97.75Z" fill="white"/>
<path d="M40.875 97.75H36.5V102.125H40.875V97.75Z" fill="white"/>
<path d="M45.25 97.75H40.875V102.125H45.25V97.75Z" fill="white"/>
<path d="M49.625 97.75H45.25V102.125H49.625V97.75Z" fill="white"/>
<path d="M58.375 97.75H54V102.125H58.375V97.75Z" fill="white"/>
<path d="M67.125 97.75H62.75V102.125H67.125V97.75Z" fill="white"/>
<path d="M71.5 97.75H67.125V102.125H71.5V97.75Z" fill="white"/>
<path d="M75.875 97.75H71.5V102.125H75.875V97.75Z" fill="white"/>
<path d="M80.25 97.75H75.875V102.125H80.25V97.75Z" fill="white"/>
<path d="M84.625 97.75H80.25V102.125H84.625V97.75Z" fill="white"/>
<path d="M89 97.75H84.625V102.125H89V97.75Z" fill="white"/>
<path d="M93.375 97.75H89V102.125H93.375V97.75Z" fill="white"/>
<path d="M102.125 97.75H97.75V102.125H102.125V97.75Z" fill="white"/>
<path d="M110.875 97.75H106.5V102.125H110.875V97.75Z" fill="white"/>
<path d="M115.25 97.75H110.875V102.125H115.25V97.75Z" fill="white"/>
<path d="M119.625 97.75H115.25V102.125H119.625V97.75Z" fill="white"/>
<path d="M128.375 97.75H124V102.125H128.375V97.75Z" fill="white"/>
<path d="M23.375 102.125H19V106.5H23.375V102.125Z" fill="white"/>
<path d="M49.625 102.125H45.25L45.25 106.5H49.625V102.125Z" fill="white"/>
<path d="M62.75 102.125H58.375V106.5H62.75V102.125Z" fill="white"/>
<path d="M67.125 102.125H62.75V106.5H67.125V102.125Z" fill="white"/>
<path d="M71.5 102.125H67.125V106.5H71.5V102.125Z" fill="white"/>
<path d="M80.25 102.125H75.875V106.5H80.25V102.125Z" fill="white"/>
<path d="M89 102.125H84.625L84.625 106.5H89V102.125Z" fill="white"/>
<path d="M93.375 102.125H89V106.5H93.375V102.125Z" fill="white"/>
<path d="M110.875 102.125H106.5V106.5H110.875V102.125Z" fill="white"/>
<path d="M128.375 102.125H124V106.5H128.375V102.125Z" fill="white"/>
<path d="M23.375 106.5H19V110.875H23.375V106.5Z" fill="white"/>
<path d="M32.125 106.5H27.75V110.875H32.125V106.5Z" fill="white"/>
<path d="M36.5 106.5H32.125V110.875H36.5V106.5Z" fill="white"/>
<path d="M40.875 106.5H36.5V110.875H40.875V106.5Z" fill="white"/>
<path d="M49.625 106.5H45.25V110.875H49.625V106.5Z" fill="white"/>
<path d="M75.875 106.5H71.5V110.875H75.875V106.5Z" fill="white"/>
<path d="M80.25 106.5H75.875V110.875H80.25V106.5Z" fill="white"/>
<path d="M84.625 106.5H80.25V110.875H84.625L84.625 106.5Z" fill="white"/>
<path d="M89 106.5H84.625L84.625 110.875H89V106.5Z" fill="white"/>
<path d="M93.375 106.5H89V110.875H93.375V106.5Z" fill="white"/>
<path d="M97.75 106.5H93.375V110.875H97.75V106.5Z" fill="white"/>
<path d="M102.125 106.5H97.75V110.875H102.125V106.5Z" fill="white"/>
<path d="M106.5 106.5H102.125V110.875H106.5V106.5Z" fill="white"/>
<path d="M110.875 106.5H106.5V110.875H110.875V106.5Z" fill="white"/>
<path d="M115.25 106.5H110.875V110.875H115.25V106.5Z" fill="white"/>
<path d="M119.625 106.5H115.25V110.875H119.625V106.5Z" fill="white"/>
<path d="M124 106.5H119.625V110.875H124V106.5Z" fill="white"/>
<path d="M128.375 106.5H124V110.875H128.375V106.5Z" fill="white"/>
<path d="M23.375 110.875H19V115.25H23.375V110.875Z" fill="white"/>
<path d="M32.125 110.875H27.75V115.25H32.125V110.875Z" fill="white"/>
<path d="M36.5 110.875H32.125V115.25H36.5V110.875Z" fill="white"/>
<path d="M40.875 110.875H36.5V115.25H40.875V110.875Z" fill="white"/>
<path d="M49.625 110.875H45.25V115.25H49.625V110.875Z" fill="white"/>
<path d="M58.375 110.875H54V115.25H58.375V110.875Z" fill="white"/>
<path d="M71.5 110.875H67.125V115.25H71.5V110.875Z" fill="white"/>
<path d="M93.375 110.875H89V115.25H93.375V110.875Z" fill="white"/>
<path d="M110.875 110.875H106.5V115.25H110.875V110.875Z" fill="white"/>
<path d="M115.25 110.875H110.875V115.25H115.25V110.875Z" fill="white"/>
<path d="M128.375 110.875H124V115.25H128.375V110.875Z" fill="white"/>
<path d="M23.375 115.25H19V119.625H23.375V115.25Z" fill="white"/>
<path d="M32.125 115.25H27.75V119.625H32.125V115.25Z" fill="white"/>
<path d="M36.5 115.25H32.125V119.625H36.5V115.25Z" fill="white"/>
<path d="M40.875 115.25H36.5V119.625H40.875V115.25Z" fill="white"/>
<path d="M49.625 115.25H45.25V119.625H49.625V115.25Z" fill="white"/>
<path d="M71.5 115.25H67.125V119.625H71.5V115.25Z" fill="white"/>
<path d="M75.875 115.25H71.5V119.625H75.875V115.25Z" fill="white"/>
<path d="M84.625 115.25H80.25V119.625H84.625V115.25Z" fill="white"/>
<path d="M93.375 115.25H89V119.625H93.375V115.25Z" fill="white"/>
<path d="M97.75 115.25H93.375V119.625H97.75V115.25Z" fill="white"/>
<path d="M102.125 115.25H97.75V119.625H102.125V115.25Z" fill="white"/>
<path d="M115.25 115.25H110.875V119.625H115.25V115.25Z" fill="white"/>
<path d="M119.625 115.25H115.25V119.625H119.625V115.25Z" fill="white"/>
<path d="M124 115.25H119.625V119.625H124V115.25Z" fill="white"/>
<path d="M128.375 115.25H124V119.625H128.375V115.25Z" fill="white"/>
<path d="M23.375 119.625H19V124H23.375V119.625Z" fill="white"/>
<path d="M49.625 119.625H45.25V124H49.625V119.625Z" fill="white"/>
<path d="M58.375 119.625H54V124H58.375V119.625Z" fill="white"/>
<path d="M62.75 119.625H58.375V124H62.75V119.625Z" fill="white"/>
<path d="M75.875 119.625H71.5V124H75.875V119.625Z" fill="white"/>
<path d="M84.625 119.625H80.25V124H84.625V119.625Z" fill="white"/>
<path d="M93.375 119.625H89V124H93.375V119.625Z" fill="white"/>
<path d="M102.125 119.625H97.75V124H102.125V119.625Z" fill="white"/>
<path d="M115.25 119.625H110.875V124H115.25V119.625Z" fill="white"/>
<path d="M119.625 119.625H115.25V124H119.625V119.625Z" fill="white"/>
<path d="M128.375 119.625H124V124H128.375V119.625Z" fill="white"/>
<path d="M23.375 124H19V128.375H23.375V124Z" fill="white"/>
<path d="M27.75 124H23.375V128.375H27.75V124Z" fill="white"/>
<path d="M32.125 124H27.75V128.375H32.125V124Z" fill="white"/>
<path d="M36.5 124H32.125V128.375H36.5V124Z" fill="white"/>
<path d="M40.875 124H36.5V128.375H40.875V124Z" fill="white"/>
<path d="M45.25 124H40.875V128.375H45.25L45.25 124Z" fill="white"/>
<path d="M49.625 124H45.25L45.25 128.375H49.625V124Z" fill="white"/>
<path d="M58.375 124H54V128.375H58.375V124Z" fill="white"/>
<path d="M75.875 124H71.5V128.375H75.875V124Z" fill="white"/>
<path d="M80.25 124H75.875V128.375H80.25V124Z" fill="white"/>
<path d="M89 124H84.625L84.625 128.375H89V124Z" fill="white"/>
<path d="M93.375 124H89V128.375H93.375V124Z" fill="white"/>
<path d="M97.75 124H93.375V128.375H97.75V124Z" fill="white"/>
<path d="M102.125 124H97.75V128.375H102.125V124Z" fill="white"/>
<path d="M115.25 124H110.875V128.375H115.25V124Z" fill="white"/>
<path d="M128.375 124H124V128.375H128.375V124Z" fill="white"/>
</g>
<defs>
<clipPath id="clip0_86_31">
<rect width="125" height="125" fill="white" transform="translate(11 11)"/>
</clipPath>
</defs>
</svg>
