<svg width="458" height="319" viewBox="0 0 458 319" fill="none" xmlns="http://www.w3.org/2000/svg">
<path d="M95.4473 276.784V285.174L196.94 379.495L406.246 307.302V299.097L95.4473 276.784Z" fill="#231F20"/>
<path d="M196.94 380.14C196.757 380.14 196.665 380.048 196.482 379.956L94.9893 285.635C94.8977 285.543 94.8062 285.359 94.8062 285.174V276.876C94.8062 276.692 94.8977 276.508 94.9893 276.415C95.0809 276.323 95.2641 276.231 95.4473 276.231L406.246 298.543C406.613 298.543 406.887 298.82 406.796 299.189V307.395C406.796 307.671 406.613 307.948 406.338 308.04L197.123 380.14C197.123 380.14 197.032 380.14 196.94 380.14ZM95.997 284.898L197.123 378.757L405.605 306.934V299.65L96.0886 277.522V284.898H95.997Z" fill="#231F20"/>
<path d="M95.4471 276.785L51.7539 126.037L267.014 81.5049L297.7 214.181L95.4471 276.785Z" fill="white"/>
<path d="M95.4472 277.43C95.3556 277.43 95.264 277.43 95.1724 277.338C94.9892 277.245 94.8976 277.153 94.8976 276.969L51.2044 126.222C51.1128 126.037 51.2044 125.853 51.296 125.669C51.3876 125.484 51.5708 125.392 51.754 125.392L267.014 80.8594C267.38 80.7672 267.655 81.0438 267.747 81.3204L298.433 213.996C298.524 214.365 298.341 214.642 297.975 214.734L95.6304 277.338L95.4472 277.43ZM52.5784 126.498L95.8136 275.955L296.967 213.72L266.556 82.2424L52.5784 126.498Z" fill="#231F20"/>
<path d="M297.7 214.181L95.4473 276.784L197.123 368.708L406.246 299.097L297.7 214.181Z" fill="white"/>
<path d="M197.123 369.353C196.94 369.353 196.848 369.261 196.665 369.169L94.9892 277.245C94.806 277.061 94.7144 276.877 94.806 276.6C94.8976 276.416 94.9892 276.231 95.264 276.139L297.517 213.535C297.7 213.443 297.975 213.535 298.066 213.627L406.612 298.544C406.796 298.728 406.887 298.912 406.887 299.189C406.796 299.466 406.704 299.65 406.429 299.65L197.306 369.261C197.215 369.353 197.215 369.353 197.123 369.353ZM96.638 277.061L197.215 367.97L404.872 298.82L297.608 214.826L96.638 277.061Z" fill="#231F20"/>
<path d="M294.403 225.982L119.355 283.423L165.888 324.636L345.973 264.43L294.403 225.982Z" fill="white"/>
<path d="M165.888 325.281C165.705 325.281 165.613 325.189 165.43 325.097L118.897 283.884C118.622 283.607 118.622 283.238 118.805 282.962C118.897 282.869 118.989 282.777 119.08 282.777L294.128 225.429C294.311 225.337 294.494 225.429 294.677 225.521L346.34 263.968C346.523 264.153 346.615 264.337 346.615 264.614C346.615 264.89 346.431 265.075 346.157 265.075L166.071 325.281C166.071 325.189 165.979 325.189 165.888 325.281ZM120.637 283.607L166.071 323.806L344.599 264.153L294.219 226.72L120.637 283.607Z" fill="#D1D3D4"/>
<path d="M306.585 287.387L239.076 308.409L269.579 332.381L336.081 309.884L306.585 287.387Z" fill="white"/>
<path d="M269.579 333.026C269.396 333.026 269.304 332.934 269.212 332.934L238.618 308.962C238.435 308.778 238.343 308.593 238.343 308.317C238.343 308.04 238.526 307.856 238.801 307.856L306.402 286.834C306.585 286.742 306.768 286.834 306.952 286.926L336.355 309.423C336.538 309.607 336.63 309.792 336.63 310.068C336.63 310.345 336.447 310.529 336.172 310.529L269.762 333.026C269.762 333.026 269.67 333.026 269.579 333.026ZM240.45 308.685L269.762 331.735L334.706 309.7L306.494 288.125L240.45 308.685Z" fill="#D1D3D4"/>
<path d="M101.676 264.43L62.8379 134.243L259.32 92.0156L287.533 209.571L101.676 264.43Z" fill="white"/>
<path d="M101.676 265.075C101.401 265.075 101.127 264.891 101.035 264.614L62.1966 134.428C62.105 134.243 62.1966 134.059 62.2882 133.874C62.3798 133.69 62.563 133.598 62.7462 133.598L259.228 91.3701C259.595 91.2779 259.869 91.5545 259.961 91.8311L288.174 209.386C288.265 209.755 288.082 210.032 287.716 210.124L101.859 264.983C101.768 265.075 101.768 265.075 101.676 265.075ZM63.6622 134.704L102.134 263.6L286.8 209.11L258.862 92.7531L63.6622 134.704Z" fill="#231F20"/>
<path d="M66.6851 147.889C66.3187 147.889 66.0439 147.612 66.0439 147.243C66.0439 146.967 66.2271 146.69 66.5019 146.598L262.068 103.448C262.434 103.356 262.801 103.541 262.892 103.817C262.984 104.186 262.801 104.555 262.526 104.647H262.434L66.8683 147.889H66.6851Z" fill="#231F20"/>
<path d="M75.8451 140.789C77.2616 140.789 78.4099 139.633 78.4099 138.208C78.4099 136.782 77.2616 135.626 75.8451 135.626C74.4286 135.626 73.2803 136.782 73.2803 138.208C73.2803 139.633 74.4286 140.789 75.8451 140.789Z" fill="url(#paint0_linear_597_1268)"/>
<path d="M85.0965 138.392C86.513 138.392 87.6613 137.236 87.6613 135.811C87.6613 134.385 86.513 133.229 85.0965 133.229C83.68 133.229 82.5317 134.385 82.5317 135.811C82.5317 137.236 83.68 138.392 85.0965 138.392Z" fill="#D1D3D4"/>
<path d="M93.9818 136.364C95.3983 136.364 96.5466 135.208 96.5466 133.782C96.5466 132.357 95.3983 131.201 93.9818 131.201C92.5653 131.201 91.417 132.357 91.417 133.782C91.417 135.208 92.5653 136.364 93.9818 136.364Z" fill="#D1D3D4"/>
<path d="M113.218 156.648L233.031 128.342C235.687 127.697 238.252 129.357 238.893 132.03L239.809 135.903C240.45 138.577 238.802 141.158 236.145 141.804L116.332 170.109C113.676 170.754 111.111 169.095 110.47 166.421L109.554 162.549C109.004 159.967 110.653 157.293 113.218 156.648Z" fill="#D1D3D4"/>
<path d="M256.388 196.386C256.388 196.386 201.428 218.145 149.583 205.237C97.7372 192.329 66.7764 147.243 66.7764 147.243L94.5312 240.457C94.5312 240.457 114.225 252.72 162.865 252.075C224.97 251.337 266.831 220.173 266.831 220.173L252.633 195.74" fill="white"/>
<path d="M159.659 252.812C113.676 252.812 94.4396 241.195 94.2564 241.011C94.1648 240.919 93.9816 240.826 93.9816 240.642L66.1352 147.428C66.0436 147.059 66.2268 146.69 66.5932 146.598C66.868 146.506 67.1428 146.598 67.326 146.875C67.6008 147.336 98.7448 191.868 149.766 204.592C193.459 215.471 239.809 201.457 252.724 197.031L252.175 196.109C251.992 195.833 252.083 195.372 252.358 195.187C252.633 195.003 253.091 195.095 253.274 195.372L253.915 196.478C255.381 195.925 256.114 195.648 256.205 195.648C256.572 195.556 256.938 195.648 257.03 196.017C257.121 196.386 257.03 196.755 256.663 196.847C256.572 196.847 255.839 197.124 254.556 197.585L267.38 219.805C267.564 220.081 267.472 220.45 267.197 220.635C266.739 220.911 224.42 251.89 162.865 252.628L159.659 252.812ZM95.0808 240.089C97.2792 241.38 117.523 252.075 162.865 251.522C220.573 250.876 261.243 223.493 266.006 220.081L253.274 198.23C240.542 202.656 193.642 216.854 149.4 205.883C105.523 195.003 76.3028 160.797 68.4252 150.563L95.0808 240.089Z" fill="#231F20"/>
<path d="M178.62 229.486C158.834 229.486 136.118 226.167 115.416 215.195C115.141 215.01 114.958 214.642 115.141 214.365C115.324 214.088 115.691 213.904 116.057 214.088C166.254 240.826 229.092 221.464 229.733 221.28C230.099 221.188 230.466 221.372 230.557 221.741C230.649 222.11 230.466 222.479 230.099 222.571C213.336 227.089 196.024 229.486 178.62 229.486Z" fill="#D1D3D4"/>
<path d="M167.536 241.748C126.225 241.748 99.2943 222.479 98.9279 222.294C98.6531 222.11 98.5615 221.649 98.7447 221.372C98.9279 221.096 99.3859 221.003 99.6607 221.188C100.027 221.464 137.217 247.926 191.078 238.337C191.444 238.245 191.719 238.521 191.81 238.798C191.902 239.167 191.627 239.443 191.261 239.536C183.475 241.011 175.506 241.748 167.536 241.748Z" fill="#D1D3D4"/>
<path d="M126.591 209.663C126.499 209.663 126.408 209.663 126.316 209.57C85.9205 191.13 76.1193 168.449 75.9361 168.173C75.7529 167.804 75.9361 167.435 76.3025 167.343C76.6689 167.158 77.0353 167.343 77.1269 167.712C77.1269 167.804 79.5085 173.336 86.8365 181.173C93.5233 188.364 105.981 198.967 126.774 208.464C127.141 208.648 127.232 209.017 127.141 209.294C127.049 209.478 126.866 209.663 126.591 209.663Z" fill="#D1D3D4"/>
<path d="M198.772 216.946C198.406 216.946 198.131 216.67 198.131 216.301C198.131 215.932 198.406 215.656 198.772 215.656C198.955 215.656 221.214 215.563 231.382 210.677C231.748 210.492 232.114 210.677 232.206 210.953C232.298 211.23 232.206 211.691 231.931 211.783C221.58 216.946 199.688 216.946 198.772 216.946Z" fill="#D1D3D4"/>
<path d="M242.648 199.797L259.778 226.535L274.708 221.464L253.366 188.272L242.648 199.797Z" fill="white"/>
<path d="M259.777 227.181C259.594 227.181 259.319 227.089 259.228 226.904L242.007 200.166C241.824 199.89 241.915 199.613 242.099 199.336L252.816 187.811C252.907 187.627 253.182 187.627 253.365 187.627C253.549 187.627 253.732 187.719 253.823 187.904L275.075 221.096C275.258 221.372 275.166 221.833 274.8 222.018H274.708L259.869 227.089C259.961 227.181 259.869 227.181 259.777 227.181ZM243.473 199.89L260.052 225.798L273.609 221.188L253.182 189.379L243.473 199.89Z" fill="#231F20"/>
<path d="M323.165 208.925C323.165 208.925 323.439 228.656 312.081 242.947C300.723 257.238 265.457 264.337 265.457 264.337L276.54 220.911L323.165 208.925Z" fill="url(#paint1_linear_597_1268)"/>
<path d="M265.457 265.075C265.273 265.075 265.09 264.983 264.999 264.891C264.815 264.706 264.815 264.522 264.815 264.245L275.899 220.819C275.991 220.635 276.174 220.45 276.357 220.358L322.981 208.372C323.165 208.372 323.348 208.372 323.531 208.464C323.714 208.556 323.806 208.741 323.806 209.017C323.806 209.202 323.989 229.117 312.539 243.408C301.089 257.699 267.014 264.798 265.548 265.075H265.457ZM277.09 221.557L266.281 263.6C272.143 262.309 301.455 255.21 311.531 242.578C321.333 230.223 322.432 213.627 322.523 209.847L277.09 221.557Z" fill="#231F20"/>
<path d="M284.235 148.258C284.235 148.258 266.556 139.867 248.877 144.477C231.198 149.087 210.313 178.407 210.313 178.407L254.19 186.06L284.235 148.258Z" fill="url(#paint2_linear_597_1268)"/>
<path d="M254.19 186.705H254.098L210.222 179.052C209.856 178.96 209.672 178.684 209.672 178.315C209.672 178.223 209.764 178.13 209.764 178.038C210.588 176.84 231.015 148.442 248.694 143.832C266.373 139.222 284.326 147.612 284.51 147.704C284.693 147.797 284.784 147.981 284.876 148.165C284.968 148.35 284.876 148.534 284.784 148.719L254.648 186.521C254.556 186.705 254.373 186.797 254.19 186.705ZM211.413 177.946L253.915 185.322L283.227 148.534C279.655 147.059 264.266 141.158 249.06 145.123C233.488 149.087 214.985 173.059 211.413 177.946Z" fill="#231F20"/>
<path d="M244.48 185.045C256.572 167.251 277.823 147.243 304.57 129.91C345.149 103.541 380.69 112.392 392.689 116.633C395.346 117.555 397.086 120.229 396.811 123.087C395.712 135.903 389.025 172.137 348.538 198.507C321.791 215.932 294.952 227.089 273.884 230.869C273.884 230.869 265.915 226.167 255.656 210.216C245.396 194.265 244.48 185.045 244.48 185.045Z" fill="url(#paint3_linear_597_1268)"/>
<path d="M273.884 231.606C273.792 231.606 273.701 231.606 273.518 231.514C273.151 231.33 265.365 226.535 255.106 210.677C244.847 194.818 243.839 185.598 243.748 185.23C243.748 185.045 243.748 184.953 243.839 184.769C256.388 166.329 278.372 146.137 304.112 129.449C344.416 103.264 379.59 111.377 392.781 116.172C395.712 117.186 397.636 120.136 397.361 123.363C396.17 137.47 389.117 173.059 348.813 199.244C323.073 215.932 295.776 227.826 273.884 231.791V231.606ZM245.122 185.23C245.396 186.705 247.045 195.648 256.205 209.939C265.365 224.23 272.693 229.486 273.976 230.315C295.685 226.351 322.707 214.641 348.172 198.045C388.018 172.137 394.979 137.009 396.17 123.179C396.353 120.597 394.888 118.2 392.414 117.37C379.316 112.76 344.691 104.647 304.845 130.555C279.472 147.059 257.671 166.974 245.122 185.23Z" fill="#231F20"/>
<path d="M396.811 123.179C395.254 139.038 389.666 154.251 380.69 167.435L345.973 113.222C361.545 110.363 377.667 111.562 392.689 116.633C395.346 117.647 397.086 120.321 396.811 123.179Z" fill="white"/>
<path d="M380.781 168.081C380.598 168.081 380.323 167.988 380.232 167.804L345.424 113.59C345.332 113.406 345.332 113.222 345.424 112.945C345.515 112.761 345.698 112.576 345.882 112.576C367.682 108.796 384.72 113.129 392.964 116.08C395.895 117.094 397.819 120.044 397.544 123.271C396.811 132.03 393.697 149.456 381.331 167.896C381.148 167.988 380.964 168.081 380.781 168.081ZM347.072 113.683L380.781 166.237C392.598 148.35 395.529 131.569 396.262 123.087C396.445 120.505 394.979 118.108 392.506 117.278C384.537 114.42 368.14 110.179 347.072 113.683Z" fill="#231F20"/>
<path d="M332.325 183.478C345.984 183.478 357.057 172.333 357.057 158.584C357.057 144.835 345.984 133.69 332.325 133.69C318.666 133.69 307.593 144.835 307.593 158.584C307.593 172.333 318.666 183.478 332.325 183.478Z" fill="white"/>
<path d="M332.416 184.123C318.401 184.123 307.043 172.69 307.043 158.584C307.043 144.477 318.401 133.044 332.416 133.044C346.431 133.044 357.789 144.477 357.789 158.584C357.789 167.251 353.393 175.364 346.156 180.066C342.034 182.648 337.271 184.123 332.416 184.123ZM332.325 134.335C318.951 134.335 308.142 145.215 308.142 158.676C308.142 172.137 318.951 183.017 332.325 183.017C345.698 183.017 356.507 172.137 356.507 158.676C356.507 147.243 348.538 137.378 337.454 134.888C335.714 134.52 334.065 134.335 332.325 134.335Z" fill="#231F20"/>
<path d="M332.325 173.981C340.773 173.981 347.622 167.088 347.622 158.584C347.622 150.08 340.773 143.187 332.325 143.187C323.876 143.187 317.027 150.08 317.027 158.584C317.027 167.088 323.876 173.981 332.325 173.981Z" fill="#231F20"/>
<path d="M332.416 174.627C323.623 174.627 316.478 167.435 316.478 158.676C316.478 149.825 323.623 142.633 332.325 142.633C341.118 142.633 348.263 149.825 348.263 158.584C348.263 164.024 345.515 169.095 340.935 172.045C338.462 173.705 335.439 174.534 332.416 174.627ZM332.325 143.832C329.485 143.832 326.737 144.662 324.447 146.229C317.669 150.655 315.654 159.782 320.05 166.605C324.447 173.428 333.516 175.457 340.294 171.031C347.072 166.605 349.088 157.477 344.691 150.655C341.943 146.413 337.363 143.832 332.325 143.832Z" fill="#231F20"/>
<path d="M342.584 152.591C342.309 152.591 342.126 152.499 342.034 152.222C341.851 151.853 337.088 143.555 327.195 148.165C326.92 148.35 326.462 148.165 326.371 147.889C326.187 147.612 326.371 147.151 326.645 147.059C337.637 141.988 343.042 151.577 343.133 151.669C343.317 151.946 343.225 152.407 342.859 152.499C342.767 152.499 342.675 152.499 342.584 152.591Z" fill="white"/>
<path d="M344.325 157.939C343.958 157.939 343.683 157.57 343.683 157.201C343.683 156.371 343.592 155.541 343.225 154.804C343.042 154.527 343.134 154.066 343.5 153.882C343.775 153.697 344.233 153.79 344.416 154.158V154.251C344.874 155.173 345.057 156.187 344.966 157.293C344.874 157.662 344.599 157.939 344.325 157.939Z" fill="white"/>
<path d="M252.266 184.308C252.083 184.308 251.992 184.216 251.9 184.216C251.625 184.031 251.534 183.57 251.808 183.294C260.968 172.23 270.77 161.719 281.121 151.853C281.395 151.577 281.762 151.577 282.037 151.853C282.311 152.13 282.311 152.499 282.037 152.775C271.686 162.641 261.976 173.059 252.816 184.123C252.633 184.123 252.45 184.216 252.266 184.308Z" fill="white"/>
<path d="M281.029 202.01C263.167 213.627 240.175 224.968 238.16 221.925C236.145 218.883 255.93 202.379 273.792 190.762C291.654 179.144 302.829 179.882 302.829 179.882C302.829 179.882 298.891 190.393 281.029 202.01Z" fill="url(#paint4_linear_597_1268)"/>
<path d="M239.626 222.94C238.893 223.032 238.16 222.755 237.611 222.202C237.153 221.557 235.87 219.436 248.145 208.925C256.205 202.102 264.633 195.833 273.518 190.116C291.38 178.499 302.463 179.145 302.921 179.145C303.105 179.145 303.288 179.237 303.379 179.421C303.471 179.606 303.471 179.79 303.471 179.974C303.288 180.435 299.257 190.854 281.395 202.471C269.579 210.216 246.771 223.032 239.626 222.94ZM301.914 180.528C298.891 180.62 288.723 181.818 274.251 191.315C265.457 197.031 257.03 203.301 249.061 210.032C240.084 217.776 238.435 221.003 238.801 221.557C240.267 223.769 260.877 214.457 280.846 201.457C295.319 192.053 300.54 183.201 301.914 180.528Z" fill="#231F20"/>
<path d="M170.651 193.805L167.445 190.485L162.865 191.131L165.155 187.074L163.048 182.925L167.628 183.847L170.926 180.528L171.475 185.138L175.506 187.258L171.384 189.287L170.651 193.805Z" fill="url(#paint5_linear_597_1268)"/>
<path d="M212.604 197.954L210.588 195.833L207.84 196.294L209.214 193.805L207.932 191.223L210.68 191.776L212.695 189.748L213.062 192.606L215.626 193.897L213.062 195.096L212.604 197.954Z" fill="url(#paint6_linear_597_1268)"/>
<path d="M193.55 277.707L186.864 273.742L179.81 277.061L181.459 269.409L176.146 263.692L183.932 262.862L187.688 256.04L190.802 263.231L198.405 264.706L192.634 269.87L193.55 277.707Z" fill="url(#paint7_linear_597_1268)"/>
<path d="M146.743 229.578L142.529 225.061L136.484 225.983L139.415 220.635L136.667 215.103L142.713 216.302L147.018 211.968L147.842 218.053L153.247 220.912L147.659 223.493L146.743 229.578Z" fill="url(#paint8_linear_597_1268)"/>
<defs>
<linearGradient id="paint0_linear_597_1268" x1="75.8451" y1="135.626" x2="75.8451" y2="140.789" gradientUnits="userSpaceOnUse">
<stop stop-color="#68E1FD"/>
<stop offset="1" stop-color="#0D54DB"/>
</linearGradient>
<linearGradient id="paint1_linear_597_1268" x1="294.311" y1="208.925" x2="294.311" y2="264.337" gradientUnits="userSpaceOnUse">
<stop stop-color="#68E1FD"/>
<stop offset="1" stop-color="#0D54DB"/>
</linearGradient>
<linearGradient id="paint2_linear_597_1268" x1="247.274" y1="143.094" x2="247.274" y2="186.06" gradientUnits="userSpaceOnUse">
<stop stop-color="#68E1FD"/>
<stop offset="1" stop-color="#0D54DB"/>
</linearGradient>
<linearGradient id="paint3_linear_597_1268" x1="320.66" y1="111.73" x2="320.66" y2="230.869" gradientUnits="userSpaceOnUse">
<stop stop-color="#68E1FD"/>
<stop offset="1" stop-color="#0D54DB"/>
</linearGradient>
<linearGradient id="paint4_linear_597_1268" x1="270.423" y1="179.873" x2="270.423" y2="222.426" gradientUnits="userSpaceOnUse">
<stop stop-color="#68E1FD"/>
<stop offset="1" stop-color="#0D54DB"/>
</linearGradient>
<linearGradient id="paint5_linear_597_1268" x1="169.185" y1="180.528" x2="169.185" y2="193.805" gradientUnits="userSpaceOnUse">
<stop stop-color="#68E1FD"/>
<stop offset="1" stop-color="#0D54DB"/>
</linearGradient>
<linearGradient id="paint6_linear_597_1268" x1="211.733" y1="189.748" x2="211.733" y2="197.954" gradientUnits="userSpaceOnUse">
<stop stop-color="#68E1FD"/>
<stop offset="1" stop-color="#0D54DB"/>
</linearGradient>
<linearGradient id="paint7_linear_597_1268" x1="187.276" y1="256.04" x2="187.276" y2="277.707" gradientUnits="userSpaceOnUse">
<stop stop-color="#68E1FD"/>
<stop offset="1" stop-color="#0D54DB"/>
</linearGradient>
<linearGradient id="paint8_linear_597_1268" x1="144.865" y1="211.968" x2="144.865" y2="229.578" gradientUnits="userSpaceOnUse">
<stop stop-color="#68E1FD"/>
<stop offset="1" stop-color="#0D54DB"/>
</linearGradient>
</defs>
</svg>
