<svg width="434" height="343" viewBox="0 0 434 343" fill="none" xmlns="http://www.w3.org/2000/svg">
<path d="M307.758 345.013C307.758 345.013 329.753 344.232 342.878 308.939C356.01 273.655 337.8 217.122 307.168 201.263C276.536 185.396 196.116 177.463 169.859 216.037C151.805 242.554 121.182 328.165 129.436 343.285C137.639 358.328 168.071 355.212 170.623 342.886C174.216 325.5 183.539 309.034 186.273 298.636C184.32 304.876 179.451 339.232 176.812 358.423C175.866 365.333 180.787 375.289 187.757 375.436L297.594 378.335C304.755 378.483 310.874 367.772 309.902 360.68L307.767 345.013H307.758Z" fill="url(#paint0_linear_597_746)"/>
<path d="M285.286 193.061C285.286 193.061 282.005 235.185 253.014 231.357C218.302 226.774 216.358 190.873 216.358 190.873C216.358 190.873 244.802 182.124 285.286 193.061Z" fill="#1F1C1D"/>
<path d="M276.415 97.5807C274.913 96.9991 273.325 96.6085 271.736 96.4262C265.391 95.6884 265.278 97.0599 260.366 92.9542C253.3 87.0432 243.535 83.6406 234.369 83.0504C216.124 81.8352 202.835 91.0099 206.992 111.017C208.659 119.012 212.903 126.225 217.677 132.839C227.981 147.126 242.554 160.085 260.131 161.422C265.339 161.821 275.139 161.37 278.915 157.152C289.713 145.147 293.523 127.266 288.567 111.894C287.499 108.604 286.05 105.401 283.828 102.763C281.857 100.445 279.271 98.6744 276.432 97.572H276.415V97.5807Z" fill="white"/>
<path d="M263.247 162.186C262.084 162.186 261.008 162.142 260.071 162.073C249.394 161.257 233.284 155.598 217.139 133.221C211.107 124.862 207.782 118.057 206.341 111.147C204.536 102.459 205.916 95.1935 210.325 90.1243C215.273 84.4389 223.823 81.6961 234.395 82.3991C244.282 83.0415 253.899 86.7131 260.774 92.4593C264.237 95.3497 265.079 95.3844 267.865 95.4973C268.872 95.5407 270.122 95.5841 271.806 95.7837C273.412 95.966 275.018 96.3566 276.58 96.9555C276.615 96.9555 276.641 96.9729 276.667 96.9815C279.679 98.1533 282.326 100.011 284.322 102.354C286.328 104.733 287.916 107.788 289.183 111.703C294.226 127.353 290.39 145.364 279.392 157.594C276.137 161.222 268.733 162.186 263.247 162.186ZM231.21 83.5883C222.495 83.5883 215.507 86.1663 211.315 90.975C207.183 95.7229 205.899 102.606 207.617 110.878C209.015 117.597 212.278 124.254 218.19 132.448C234.039 154.417 249.767 159.972 260.166 160.762C265.253 161.153 274.809 160.736 278.42 156.709C289.114 144.817 292.846 127.309 287.942 112.085C286.727 108.335 285.217 105.419 283.324 103.17C281.484 101.009 279.036 99.2817 276.25 98.1967C276.224 98.1967 276.198 98.1794 276.172 98.1707C274.696 97.6065 273.177 97.2246 271.65 97.051C270.018 96.86 268.794 96.8079 267.813 96.7732C264.931 96.6604 263.742 96.6083 259.94 93.4314C253.37 87.937 243.796 84.2914 234.317 83.6751C233.258 83.6057 232.225 83.5709 231.21 83.5709V83.5883Z" fill="#1F1C1D"/>
<path d="M263.23 162.776C267.874 162.776 276.103 162.142 279.844 157.985C290.98 145.598 294.869 127.353 289.747 111.503C288.463 107.511 286.84 104.377 284.756 101.938C282.699 99.5163 279.965 97.5806 276.858 96.3915C275.252 95.7578 273.568 95.3412 271.867 95.1416C270.165 94.9419 268.898 94.8898 267.891 94.8551C265.2 94.7509 264.471 94.7076 261.164 91.9473C254.203 86.123 244.455 82.3993 234.439 81.7483C223.667 81.0452 214.926 83.8662 209.865 89.6818C205.326 94.9072 203.902 102.355 205.742 111.234C207.192 118.23 210.551 125.105 216.645 133.542C225.628 145.998 240.454 161.17 260.036 162.637C260.435 162.672 261.607 162.741 263.256 162.741L263.221 162.776H263.23Z" fill="#1F1C1D"/>
<path d="M228.952 176.933V204.466C228.952 204.466 235.41 219.639 253.43 215.047C271.458 210.455 273.663 197.505 273.663 197.505L272.847 146.501C272.847 146.501 259.358 139.505 262.961 110.357C262.961 110.357 242.979 120.539 216.062 117.449C216.062 117.449 210.551 149.322 212.486 163.358C214.352 176.95 228.701 176.699 228.961 176.898V176.933H228.952Z" fill="white"/>
<path d="M246.955 216.557C233.562 216.557 228.414 204.857 228.353 204.726C228.319 204.648 228.301 204.561 228.301 204.475V177.48C218.797 176.603 212.955 171.621 211.835 163.444C209.909 149.478 215.195 118.647 215.42 117.336C215.481 116.998 215.794 116.763 216.141 116.798C242.537 119.836 262.475 109.88 262.674 109.776C262.891 109.663 263.143 109.689 263.343 109.819C263.542 109.958 263.646 110.193 263.612 110.436C260.114 138.802 273.021 145.85 273.16 145.919C273.368 146.032 273.507 146.249 273.507 146.484L274.323 197.487C274.323 197.487 274.323 197.565 274.314 197.609C274.288 197.739 271.823 211.028 253.604 215.672C251.199 216.288 248.986 216.549 246.963 216.549L246.955 216.557ZM229.603 204.336C230.28 205.811 236.652 218.649 253.274 214.422C270.061 210.143 272.83 198.355 273.012 197.461L272.205 146.892C270.061 145.564 259.298 137.526 262.179 111.451C257.683 113.456 239.611 120.652 216.601 118.169C215.863 122.631 211.375 150.555 213.129 163.271C214.179 170.918 219.5 175.379 228.518 176.195C229.039 176.239 229.178 176.256 229.36 176.395C229.517 176.516 229.612 176.707 229.612 176.907V204.344L229.603 204.336Z" fill="#1F1C1D"/>
<path d="M262.258 145.763C262.84 143.289 264.246 141.024 266.182 139.401C268.004 137.882 270.253 136.962 272.475 136.146C273.707 135.694 274.992 135.278 276.268 135.408C277.188 135.495 278.039 135.877 278.854 136.311C280.755 137.344 282.509 138.828 283.264 140.833C283.88 142.456 283.767 144.27 283.55 145.989C283.316 147.872 282.951 149.747 282.231 151.501C280.781 154.99 277.908 157.863 274.402 159.295C270.895 160.728 266.824 160.684 263.352 159.191" fill="white"/>
<path d="M269.011 160.988C266.989 160.988 264.975 160.58 263.1 159.773C262.77 159.634 262.623 159.243 262.761 158.913C262.9 158.584 263.282 158.427 263.621 158.575C266.945 160.016 270.79 160.05 274.167 158.679C277.526 157.316 280.243 154.599 281.64 151.24C282.239 149.782 282.639 148.133 282.916 145.893C283.125 144.27 283.238 142.56 282.665 141.05C281.901 139.028 280.009 137.665 278.55 136.875C277.873 136.51 277.057 136.128 276.215 136.05C275.052 135.929 273.846 136.337 272.709 136.753C270.704 137.482 268.412 138.394 266.607 139.896C264.758 141.449 263.447 143.585 262.9 145.911C262.822 146.258 262.466 146.475 262.119 146.397C261.772 146.319 261.555 145.963 261.633 145.616C262.241 143.02 263.708 140.633 265.773 138.906C267.744 137.265 270.157 136.311 272.257 135.538C273.533 135.069 274.913 134.618 276.346 134.757C277.422 134.861 278.377 135.313 279.175 135.738C281.545 137.022 283.168 138.706 283.889 140.599C284.557 142.369 284.444 144.27 284.218 146.067C283.923 148.419 283.507 150.173 282.856 151.744C281.328 155.424 278.342 158.393 274.67 159.894C272.874 160.623 270.947 160.997 269.028 160.997L269.011 160.988Z" fill="#1F1C1D"/>
<path d="M230.003 135.825C230.003 135.825 220.203 149.747 222.391 152.239C224.578 154.756 230.923 153.272 230.923 153.272" fill="white"/>
<path d="M227.052 154.348C225.159 154.348 223.059 153.992 221.904 152.664C219.561 149.991 227.104 138.811 229.473 135.443C229.682 135.148 230.09 135.078 230.376 135.287C230.671 135.495 230.741 135.903 230.532 136.189C225.958 142.682 221.739 150.503 222.877 151.805C224.465 153.619 229.117 153.02 230.775 152.629C231.123 152.551 231.478 152.768 231.557 153.115C231.635 153.463 231.418 153.818 231.07 153.897C230.923 153.931 229.109 154.348 227.052 154.348Z" fill="#1F1C1D"/>
<path d="M238.97 141.158C240.258 141.079 241.21 139.544 241.098 137.731C240.987 135.917 239.852 134.512 238.565 134.591C237.278 134.67 236.326 136.205 236.437 138.018C236.549 139.832 237.683 141.237 238.97 141.158Z" fill="#1F1C1D"/>
<path d="M220.009 137.19C220.136 135.377 219.197 133.835 217.911 133.744C216.624 133.654 215.478 135.05 215.351 136.862C215.223 138.675 216.163 140.217 217.449 140.308C218.736 140.398 219.882 139.002 220.009 137.19Z" fill="#1F1C1D"/>
<path d="M211.923 150.78C204.788 150.78 198.442 145.65 197.175 138.385C195.752 130.261 201.203 122.492 209.327 121.069C210.195 120.921 211.063 120.852 211.914 120.852H211.931C219.222 120.852 225.42 126.06 226.67 133.238C227.356 137.17 226.47 141.137 224.17 144.409C221.87 147.681 218.433 149.869 214.492 150.555C213.632 150.702 212.773 150.78 211.923 150.78ZM211.905 122.162C211.124 122.162 210.334 122.232 209.544 122.362C202.131 123.664 197.149 130.755 198.451 138.168C199.753 145.581 206.836 150.563 214.266 149.279C217.86 148.645 220.993 146.657 223.094 143.663C225.194 140.677 226.001 137.048 225.377 133.464C224.239 126.91 218.58 122.154 211.923 122.154H211.905V122.162Z" fill="#1F1C1D"/>
<path d="M245.983 150.78C242.771 150.78 239.664 149.808 237.007 147.95C233.588 145.546 231.313 141.961 230.593 137.856C229.873 133.741 230.801 129.592 233.197 126.181C235.601 122.761 239.186 120.487 243.292 119.766C244.273 119.602 245.184 119.523 246.026 119.523C249.22 119.523 252.319 120.513 254.966 122.37C258.386 124.766 260.669 128.351 261.381 132.465C262.101 136.58 261.173 140.729 258.777 144.14C256.373 147.56 252.788 149.834 248.682 150.554C247.779 150.711 246.877 150.78 245.983 150.78ZM246.017 120.817C245.253 120.817 244.412 120.895 243.509 121.042C239.75 121.702 236.461 123.785 234.265 126.919C232.069 130.052 231.218 133.854 231.878 137.621C232.537 141.388 234.62 144.669 237.754 146.874C240.861 149.061 244.663 149.903 248.465 149.261C252.224 148.601 255.513 146.518 257.709 143.385C259.905 140.251 260.756 136.449 260.096 132.682C259.437 128.915 257.353 125.634 254.22 123.429C251.79 121.719 248.951 120.817 246.026 120.817H246.017Z" fill="#1F1C1D"/>
<path d="M228.953 176.933C228.953 176.933 246.096 180.891 256.199 175.128C256.199 175.128 245.028 198.217 228.953 195.812V176.933Z" fill="#1F1C1D"/>
<path d="M247.623 160.189C247.623 160.189 237.971 171.387 225.229 165.979L247.623 160.189Z" fill="white"/>
<path d="M232.216 168.097C229.951 168.097 227.529 167.663 224.986 166.587C224.656 166.448 224.5 166.066 224.639 165.736C224.777 165.406 225.159 165.25 225.489 165.389C237.633 170.545 247.042 159.877 247.137 159.773C247.372 159.504 247.788 159.469 248.057 159.703C248.326 159.938 248.361 160.346 248.127 160.624C248.049 160.719 241.547 168.106 232.225 168.106L232.216 168.097Z" fill="#1F1C1D"/>
<path d="M142.109 214.604L155.225 281.935L120.999 285.589L107.736 217.954L142.109 214.604Z" fill="white"/>
<path d="M120.999 286.24C120.695 286.24 120.418 286.023 120.357 285.711L107.094 218.076C107.059 217.894 107.094 217.712 107.207 217.564C107.32 217.417 107.485 217.321 107.667 217.304L142.04 213.953C142.369 213.919 142.673 214.144 142.743 214.474L155.858 281.796C155.893 281.978 155.858 282.161 155.745 282.308C155.632 282.456 155.476 282.551 155.294 282.569L121.077 286.232C121.077 286.232 121.034 286.232 121.008 286.232L120.999 286.24ZM108.509 218.536L121.52 284.878L154.443 281.353L141.58 215.307L108.509 218.528V218.536Z" fill="#1F1C1D"/>
<path d="M137.587 218.38L150.702 285.702L116.477 289.365L103.214 221.73L137.587 218.38Z" fill="white"/>
<path d="M116.477 290.016C116.173 290.016 115.895 289.799 115.835 289.487L102.571 221.852C102.537 221.67 102.571 221.488 102.684 221.34C102.797 221.192 102.962 221.097 103.144 221.08L137.517 217.729C137.856 217.694 138.159 217.92 138.22 218.25L151.336 285.572C151.37 285.754 151.336 285.937 151.223 286.084C151.11 286.232 150.954 286.327 150.772 286.345L116.555 290.007C116.555 290.007 116.512 290.007 116.486 290.007L116.477 290.016ZM103.986 222.303L116.998 288.645L149.921 285.121L137.057 219.075L103.986 222.295V222.303Z" fill="#1F1C1D"/>
<path d="M103.214 221.731L107.736 217.955L142.109 214.604L137.587 218.38L103.214 221.731Z" fill="white"/>
<path d="M103.214 222.381C102.953 222.381 102.719 222.225 102.615 221.982C102.502 221.722 102.58 221.418 102.797 221.227L107.319 217.46C107.424 217.373 107.545 217.321 107.675 217.312L142.048 213.962C142.361 213.936 142.604 214.092 142.717 214.361C142.829 214.621 142.751 214.925 142.534 215.116L138.012 218.883C137.908 218.97 137.786 219.022 137.656 219.031L103.283 222.381C103.283 222.381 103.24 222.381 103.223 222.381H103.214ZM107.997 218.588L105.254 220.88L137.326 217.755L140.069 215.463L107.997 218.588Z" fill="#1F1C1D"/>
<path d="M150.702 285.702L155.224 281.935L142.109 214.604L137.586 218.38L150.702 285.702Z" fill="white"/>
<path d="M150.702 286.353C150.632 286.353 150.554 286.344 150.485 286.318C150.268 286.24 150.112 286.058 150.06 285.832L136.944 218.51C136.901 218.276 136.988 218.041 137.17 217.885L141.692 214.118C141.866 213.97 142.109 213.927 142.326 214.005C142.543 214.083 142.699 214.265 142.751 214.491L155.867 281.813C155.91 282.048 155.823 282.282 155.641 282.438L151.119 286.205C150.997 286.301 150.849 286.353 150.702 286.353ZM138.298 218.632L151.127 284.495L154.504 281.674L141.675 215.811L138.298 218.632Z" fill="#1F1C1D"/>
<path d="M103.032 259.28C103.032 259.28 102.294 252.658 109.246 248.352C116.199 244.047 126.476 237.086 128.125 240.072C129.783 243.049 116.381 251 116.381 251C116.381 251 133.264 239.568 135.825 244.125C138.385 248.682 118.508 257.961 118.508 257.961C118.508 257.961 132.092 248.63 134.08 253.291C136.068 257.952 120.678 264.914 120.678 264.914C120.678 264.914 131.433 260.279 133.42 263.256C135.408 266.233 126.494 270.278 120.34 273.264C114.185 276.25 114.828 281.015 114.828 281.015L116.468 289.365L131.467 287.759C131.467 287.759 137.578 299.365 141.145 306.239C144.019 311.777 156.822 329.293 155.875 339.562C154.929 349.83 135.382 360.099 122.353 345.412C108.812 330.153 101.651 272.535 103.023 259.28H103.032Z" fill="white"/>
<path d="M137.656 353.38C133.056 353.38 127.197 351.844 121.876 345.837C108.17 330.387 100.983 273.151 102.381 259.272C102.311 258.464 102.008 252.067 108.908 247.788C109.681 247.31 110.497 246.798 111.339 246.269C117.493 242.406 124.471 238.023 127.414 238.787C127.987 238.934 128.429 239.264 128.699 239.75C129.393 240.991 128.299 242.719 126.502 244.481C129.61 243.057 132.683 242.059 134.601 242.51C135.426 242.701 136.033 243.135 136.398 243.795C136.754 244.429 136.806 245.14 136.554 245.913C136.016 247.588 133.95 249.506 131.407 251.329C131.953 251.303 132.466 251.347 132.908 251.477C133.742 251.72 134.349 252.249 134.679 253.022C135.929 255.947 131.763 259.376 127.674 261.91C132.353 261.007 133.681 262.474 133.959 262.882C134.34 263.455 134.445 264.106 134.262 264.775C133.481 267.639 127.266 270.634 121.781 273.272L120.617 273.837C115.001 276.562 115.444 280.737 115.462 280.919L116.981 288.645L131.381 287.108C131.65 287.082 131.901 287.212 132.023 287.455C132.023 287.455 138.134 299.061 141.701 305.935C142.309 307.098 143.394 308.869 144.661 310.909C149.374 318.547 157.264 331.324 156.501 339.614C156.014 344.891 150.989 350.116 144.27 352.321C142.795 352.807 140.443 353.38 137.63 353.38H137.656ZM126.589 239.993C123.786 239.993 117.041 244.229 112.033 247.38C111.191 247.909 110.366 248.422 109.594 248.908C103.093 252.935 103.657 258.959 103.683 259.219C103.683 259.263 103.683 259.315 103.683 259.358C102.311 272.587 109.611 330.066 122.848 344.987C130.921 354.083 140.252 352.286 143.897 351.089C150.034 349.075 154.799 344.205 155.233 339.501C155.954 331.645 148.211 319.094 143.585 311.595C142.257 309.442 141.206 307.741 140.581 306.534C137.405 300.415 132.205 290.528 131.112 288.454L116.555 290.007C116.217 290.033 115.913 289.816 115.843 289.487L114.203 281.136C114.168 280.885 113.578 275.824 120.071 272.673L121.234 272.109C125.947 269.835 132.396 266.728 133.021 264.436C133.108 264.132 133.065 263.872 132.891 263.612C131.728 261.867 125.209 263.672 120.947 265.504C120.617 265.643 120.236 265.504 120.097 265.165C119.949 264.835 120.097 264.453 120.426 264.306C126.155 261.719 134.766 256.503 133.499 253.534C133.325 253.117 133.021 252.866 132.561 252.727C131.554 252.432 130.027 252.753 128.334 253.378C123.846 256.164 119.159 258.369 118.803 258.534C118.499 258.681 118.135 258.56 117.961 258.265C117.796 257.97 117.883 257.596 118.161 257.405C118.89 256.902 123.56 253.751 127.778 252.189C131.433 249.914 134.722 247.406 135.33 245.505C135.469 245.08 135.452 244.732 135.278 244.42C135.087 244.081 134.775 243.864 134.314 243.76C131.546 243.109 125.148 246.382 120.574 249.107C119.02 250.149 117.614 251.008 116.729 251.538C116.425 251.72 116.034 251.624 115.843 251.329C115.652 251.034 115.739 250.635 116.026 250.444C116.199 250.322 117.614 249.376 119.628 248.161C124.385 244.949 128.204 241.538 127.561 240.366C127.501 240.254 127.388 240.106 127.093 240.028C126.945 239.993 126.78 239.976 126.589 239.976V239.993Z" fill="#1F1C1D"/>
<path d="M197.592 287.325C207.2 284.279 265.183 333.885 279.635 337.973C294.087 342.061 298.905 317.836 297.299 307.975C295.693 298.115 206.22 261.068 206.22 261.068C198.677 255.722 192.34 255.774 186.117 255.895C178.07 256.051 167.515 258.013 160.545 259.315C148.185 261.624 152.933 266.198 157.481 265.799C165.493 265.096 176.343 264.323 176.343 264.323C176.343 264.323 170.727 265.929 169.382 269.41C168.045 272.891 171.786 282.256 174.468 287.603C177.15 292.95 185.171 293.757 190.526 294.026C195.882 294.295 199.354 289.374 192.931 288.202C187.393 287.195 185.839 286.796 185.839 286.796C185.839 286.796 192.071 289.079 197.583 287.334L197.592 287.325Z" fill="white"/>
<path d="M282.803 339.084C281.727 339.084 280.607 338.919 279.453 338.598C272.943 336.758 258.1 326.09 242.389 314.798C223.84 301.465 202.808 286.353 197.783 287.951C197.071 288.176 196.342 288.341 195.621 288.445C197.019 289.305 197.097 290.407 197.036 290.962C196.81 292.898 194.12 294.842 190.483 294.66C184.172 294.348 176.586 293.289 173.878 287.881C171.291 282.717 167.307 272.952 168.765 269.158C169.434 267.414 171.031 266.12 172.567 265.235C168.679 265.521 162.516 265.99 157.516 266.433C155.112 266.641 152.265 265.547 152.004 263.629C151.796 262.119 153.089 260.027 160.406 258.664C167.394 257.362 177.949 255.392 186.082 255.236C192.01 255.123 198.729 254.993 206.515 260.487C216.028 264.428 296.301 297.959 297.915 307.862C298.54 311.725 298.184 317.298 296.978 322.419C295.537 328.547 293.028 333.451 289.912 336.229C287.777 338.13 285.39 339.084 282.777 339.084H282.803ZM198.529 286.544C205.343 286.544 223.744 299.773 243.162 313.73C258.777 324.953 273.524 335.56 279.817 337.34C283.307 338.329 286.423 337.626 289.079 335.257C295.476 329.545 297.846 315.345 296.656 308.071C295.389 300.276 230.767 271.927 205.976 261.659C205.933 261.641 205.89 261.615 205.846 261.589C198.381 256.295 192.158 256.416 186.134 256.529C178.114 256.685 167.62 258.638 160.676 259.94C154.643 261.069 153.219 262.674 153.324 263.447C153.445 264.358 155.363 265.313 157.438 265.131C165.363 264.428 176.204 263.664 176.317 263.655C176.647 263.638 176.942 263.864 177.003 264.193C177.063 264.523 176.864 264.844 176.543 264.931C176.491 264.949 171.222 266.494 170.015 269.627C168.939 272.431 171.743 280.642 175.076 287.3C177.48 292.108 184.624 293.063 190.578 293.367C193.573 293.514 195.639 291.952 195.769 290.815C195.873 289.93 194.779 289.192 192.835 288.836C192.349 288.749 191.898 288.662 191.472 288.584C188.269 288.35 185.795 287.464 185.631 287.404C185.301 287.282 185.127 286.935 185.231 286.605C185.335 286.275 185.674 286.084 186.012 286.162C186.03 286.162 187.332 286.492 191.55 287.273C193.373 287.412 195.448 287.326 197.409 286.709C197.739 286.605 198.121 286.553 198.538 286.553L198.529 286.544Z" fill="#1F1C1D"/>
<path d="M180.9 269.124C180.9 269.124 171.075 271.884 169.903 275.989L180.9 269.124Z" fill="white"/>
<path d="M169.903 276.649C169.842 276.649 169.781 276.649 169.72 276.623C169.373 276.527 169.173 276.163 169.278 275.816C170.545 271.415 180.31 268.62 180.727 268.498C181.082 268.403 181.43 268.603 181.525 268.95C181.621 269.297 181.421 269.653 181.074 269.757C178.435 270.495 171.404 273.099 170.528 276.18C170.449 276.467 170.189 276.649 169.903 276.649Z" fill="#1F1C1D"/>
<path d="M176.343 264.966C176.039 264.966 175.761 264.749 175.701 264.436C175.631 264.08 175.866 263.742 176.221 263.681L179.832 263.013C180.18 262.952 180.527 263.178 180.588 263.534C180.657 263.889 180.423 264.228 180.067 264.289L176.456 264.957C176.456 264.957 176.378 264.966 176.334 264.966H176.343Z" fill="#1F1C1D"/>
<path d="M182.506 275.017C182.506 275.017 174.694 276.84 171.578 281.015L182.506 275.017Z" fill="white"/>
<path d="M171.569 281.657C171.43 281.657 171.3 281.614 171.179 281.527C170.892 281.31 170.831 280.902 171.048 280.616C174.269 276.302 182.02 274.453 182.35 274.375C182.697 274.297 183.053 274.514 183.131 274.861C183.209 275.208 182.992 275.564 182.645 275.642C182.567 275.659 175.024 277.456 172.09 281.388C171.96 281.562 171.769 281.649 171.569 281.649V281.657Z" fill="#1F1C1D"/>
<path d="M184.78 280.095C184.78 280.095 177.211 281.405 173.574 285.702L184.78 280.095Z" fill="white"/>
<path d="M173.565 286.353C173.418 286.353 173.27 286.301 173.14 286.197C172.862 285.962 172.836 285.554 173.062 285.277C176.812 280.85 184.337 279.505 184.658 279.452C185.006 279.392 185.353 279.626 185.414 279.982C185.474 280.338 185.24 280.676 184.884 280.737C184.815 280.754 177.506 282.056 174.06 286.119C173.93 286.275 173.748 286.353 173.565 286.353Z" fill="#1F1C1D"/>
<path d="M310.293 297.915C310.189 297.915 310.076 297.889 309.98 297.837C301.795 293.332 294.799 291.796 289.765 293.393C285.755 294.66 284.322 297.498 284.314 297.525C284.157 297.846 283.767 297.985 283.446 297.828C283.125 297.672 282.986 297.281 283.142 296.96C283.211 296.821 284.791 293.619 289.322 292.16C294.791 290.407 301.951 291.935 310.605 296.691C310.918 296.865 311.039 297.264 310.866 297.577C310.744 297.794 310.527 297.915 310.293 297.915Z" fill="#1F1C1D"/>
<path d="M291.987 345.664C282.482 345.664 276.892 342.79 273.759 340.143C269.696 336.723 268.768 332.991 268.724 332.835C268.637 332.487 268.854 332.131 269.202 332.053C269.549 331.967 269.905 332.184 269.991 332.531C270.13 333.104 273.707 346.506 297.316 344.084C297.663 344.049 297.993 344.309 298.028 344.665C298.063 345.021 297.802 345.342 297.446 345.377C295.493 345.577 293.679 345.672 291.987 345.672V345.664Z" fill="#1F1C1D"/>
<path d="M289.261 293.523C288.905 293.523 288.61 293.236 288.61 292.872C288.61 291.127 289.235 289.626 290.485 288.41C294.313 284.695 302.707 284.921 303.071 284.938C303.427 284.947 303.714 285.251 303.696 285.607C303.688 285.963 303.401 286.266 303.028 286.232C302.95 286.232 294.825 286.006 291.397 289.339C290.398 290.311 289.912 291.466 289.921 292.863C289.921 293.219 289.635 293.514 289.27 293.514L289.261 293.523Z" fill="#1F1C1D"/>
<path d="M154.157 305.632C153.966 305.632 153.775 305.545 153.645 305.38C145.182 294.634 137.656 298.714 137.344 298.887C137.031 299.061 136.632 298.957 136.459 298.644C136.276 298.332 136.389 297.941 136.702 297.759C136.788 297.707 138.967 296.483 142.292 296.743C145.312 296.978 149.913 298.523 154.678 304.581C154.904 304.868 154.851 305.276 154.574 305.493C154.452 305.588 154.313 305.632 154.174 305.632H154.157Z" fill="#1F1C1D"/>
<path d="M106.261 204.587H67.1138V210.906H106.261V204.587Z" fill="#D1D3D4"/>
<path d="M98.2403 212.946H67.1138V219.265H98.2403V212.946Z" fill="#D1D3D4"/>
<path d="M92.5635 221.73H67.1138V228.05H92.5635V221.73Z" fill="#D1D3D4"/>
<path d="M139.245 125.565H73.2765C69.8913 125.565 67.1484 128.308 67.1484 131.693V190.005C67.1484 193.39 69.8913 196.133 73.2765 196.133H115.331L121.607 207.929L123.039 196.133H139.253C142.638 196.133 145.381 193.39 145.381 190.005V131.693C145.381 128.308 142.638 125.565 139.253 125.565H139.245Z" fill="#1F1C1D"/>
<path d="M123.317 159.087C122.379 159.087 121.616 158.323 121.616 157.386C121.616 152.603 119.749 148.107 116.373 144.722C115.704 144.054 115.704 142.977 116.373 142.309C117.041 141.641 118.118 141.641 118.786 142.309C122.813 146.336 125.027 151.692 125.027 157.386C125.027 158.323 124.263 159.087 123.326 159.087H123.317Z" fill="white"/>
<path d="M89.2042 159.087C88.2668 159.087 87.5029 158.323 87.5029 157.386C87.5029 151.692 89.7163 146.336 93.7439 142.309C94.4122 141.641 95.4885 141.641 96.1569 142.309C96.8253 142.977 96.8253 144.054 96.1569 144.722C92.7717 148.107 90.9142 152.603 90.9142 157.386C90.9142 158.323 90.1503 159.087 89.2129 159.087H89.2042Z" fill="white"/>
<path d="M122.249 169.373C119.671 167.194 118.195 164.009 118.195 160.632V155.876C118.195 149.878 113.734 144.904 107.962 144.071V142.231C107.962 141.284 107.198 140.529 106.26 140.529C105.323 140.529 104.559 141.293 104.559 142.231V144.071C98.7869 144.904 94.3254 149.869 94.3254 155.876V160.632C94.3254 164.009 92.8498 167.194 90.2545 169.39C89.5948 169.954 89.2129 170.788 89.2129 171.656C89.2129 173.305 90.5496 174.642 92.1988 174.642H120.339C121.989 174.642 123.325 173.305 123.325 171.656C123.325 170.779 122.943 169.955 122.266 169.373H122.249Z" fill="white"/>
<path d="M106.261 181.464C109.351 181.464 111.929 179.259 112.528 176.352H99.9937C100.584 179.268 103.171 181.464 106.261 181.464Z" fill="white"/>
<defs>
<linearGradient id="paint0_linear_597_746" x1="237.625" y1="188.153" x2="237.625" y2="378.337" gradientUnits="userSpaceOnUse">
<stop stop-color="#68E1FD"/>
<stop offset="1" stop-color="#0D54DB"/>
</linearGradient>
</defs>
</svg>
