<svg width="376" height="305" viewBox="0 0 376 305" fill="none" xmlns="http://www.w3.org/2000/svg">
<path d="M124.08 107.062C102.009 107.062 77.4787 95.6239 65.379 89.1567C66.0257 86.8556 66.71 83.4115 65.2963 82.6369C63.89 81.8699 62.2356 84.7651 61.2505 86.8782C59.0923 85.6524 57.859 84.8779 57.7913 84.8403C55.5052 83.4039 52.4897 84.0883 51.0534 86.3743C49.6171 88.6604 50.3014 91.6759 52.5875 93.1123C54.1215 94.0823 90.6387 116.823 124.08 116.823C126.78 116.823 128.968 114.634 128.968 111.935C128.968 109.235 126.78 107.047 124.08 107.047V107.062Z" fill="#201D1D"/>
<path d="M251.349 72.6957C249.288 70.951 246.198 71.2142 244.46 73.2822C244.423 73.3274 243.731 74.1245 242.468 75.4405C241.219 73.8162 239.407 71.8384 238.324 72.44C237.121 73.1093 238.369 76.4933 239.294 78.5914C230.917 86.5475 212.794 101.257 188.264 107.1C185.639 107.724 184.015 110.363 184.639 112.988C185.233 115.469 187.609 117.049 190.083 116.695C190.234 116.673 190.377 116.643 190.527 116.612C227.849 107.716 250.965 80.727 251.928 79.584C253.665 77.5235 253.409 74.4403 251.341 72.6957H251.349Z" fill="#201D1D"/>
<path d="M122.125 282.601C121.862 282.601 121.599 282.579 121.335 282.534C118.673 282.098 116.861 279.586 117.297 276.924C117.448 275.999 132.397 184.082 135.661 150.859C135.924 148.174 138.316 146.211 141.008 146.474C143.692 146.738 145.655 149.129 145.392 151.821C142.091 185.345 127.096 277.57 126.945 278.495C126.554 280.894 124.479 282.601 122.125 282.601Z" fill="#201D1D"/>
<path d="M178.344 279.45C175.953 279.45 173.863 277.698 173.509 275.262C173.013 271.802 161.297 190.143 160.236 153.633C160.161 150.934 162.282 148.685 164.981 148.602C167.674 148.542 169.93 150.648 170.012 153.347C171.058 189.301 183.067 273.028 183.187 273.87C183.571 276.54 181.721 279.022 179.044 279.405C178.811 279.435 178.57 279.458 178.344 279.458V279.45Z" fill="#201D1D"/>
<path d="M114.74 270.998C114.74 270.998 106.777 278.15 103.242 282.887C100.31 286.82 105.092 286.82 110.582 287.241C117.124 287.738 125.652 284.722 128.367 284.143C131.081 283.564 127.916 272.502 127.916 272.502C127.916 272.502 126.133 274.517 124.035 274.036C122.554 273.698 120.892 271.171 119.651 269.983C117.215 267.644 114.733 270.991 114.733 270.991L114.74 270.998Z" fill="url(#paint0_linear_597_1349)"/>
<path d="M185.737 267.584C185.737 267.584 194.219 275.202 197.979 280.248C201.107 284.436 196.009 284.436 190.166 284.887C183.202 285.421 174.118 282.21 171.231 281.594C168.343 280.977 171.712 269.201 171.712 269.201C171.712 269.201 173.607 271.344 175.84 270.84C177.42 270.479 179.194 267.787 180.503 266.524C183.097 264.027 185.737 267.591 185.737 267.591V267.584Z" fill="url(#paint1_linear_597_1349)"/>
<path d="M104.596 166.274L111.364 141.007C107.529 134.089 105.513 126.336 105.513 118.47C105.513 92.7439 126.441 71.8232 152.16 71.8232C177.878 71.8232 198.806 92.7514 198.806 118.47C198.806 144.188 177.878 165.116 152.16 165.116C144.437 165.116 136.812 163.169 129.983 159.461L104.588 166.267L104.596 166.274Z" fill="white"/>
<path d="M104.596 166.726C104.476 166.726 104.363 166.681 104.272 166.59C104.16 166.478 104.115 166.312 104.152 166.154L110.875 141.068C107.07 134.134 105.055 126.328 105.055 118.47C105.055 92.4959 126.186 71.3647 152.16 71.3647C178.134 71.3647 199.265 92.4959 199.265 118.47C199.265 144.444 178.134 165.575 152.16 165.575C144.452 165.575 136.774 163.635 129.931 159.958L104.709 166.711C104.671 166.718 104.633 166.726 104.588 166.726H104.596ZM152.167 72.2747C126.697 72.2747 105.972 92.9998 105.972 118.47C105.972 126.231 107.98 133.946 111.77 140.789C111.83 140.895 111.845 141.015 111.808 141.128L105.243 165.635L129.878 159.033C129.991 159.003 130.111 159.018 130.209 159.071C136.962 162.733 144.557 164.665 152.167 164.665C177.638 164.665 198.363 143.94 198.363 118.47C198.363 92.9998 177.638 72.2747 152.167 72.2747Z" fill="#393636"/>
<path fill-rule="evenodd" clip-rule="evenodd" d="M169.523 124.96C167.606 123.809 165.102 122.531 162.846 123.456C161.109 124.163 160.003 126.885 158.875 128.269C158.296 128.983 157.612 129.088 156.724 128.735C150.212 126.141 145.219 121.794 141.624 115.801C141.015 114.868 141.128 114.139 141.857 113.274C142.94 111.996 144.309 110.544 144.602 108.822C144.895 107.1 144.091 105.085 143.376 103.551C142.467 101.588 141.451 98.7979 139.489 97.685C137.684 96.6622 135.307 97.2338 133.698 98.5422C130.923 100.806 129.585 104.348 129.622 107.86C129.63 108.86 129.758 109.852 129.991 110.815C130.555 113.131 131.623 115.289 132.826 117.35C133.736 118.899 134.721 120.403 135.789 121.854C139.271 126.584 143.61 130.698 148.625 133.773C151.13 135.308 153.837 136.654 156.634 137.579C159.77 138.616 162.567 139.692 165.951 139.052C169.501 138.376 172.998 136.187 174.404 132.766C174.818 131.751 175.028 130.63 174.795 129.555C174.314 127.344 171.321 126.028 169.531 124.96H169.523Z" fill="#3B3838"/>
<path d="M88.5557 318.953C88.2699 318.953 87.9842 318.931 87.6984 318.885C84.6603 318.412 82.5698 315.569 83.0435 312.531C87.8789 281.248 93.8723 241.963 93.9325 241.565C94.3987 238.527 97.2263 236.429 100.279 236.895C103.317 237.361 105.408 240.204 104.949 243.242C104.889 243.633 98.8957 282.932 94.0603 314.231C93.6317 316.983 91.2629 318.953 88.5632 318.953H88.5557Z" fill="white"/>
<path d="M88.5556 319.404C88.2473 319.404 87.9314 319.382 87.6306 319.337C86.0439 319.088 84.6377 318.239 83.6901 316.945C82.7426 315.644 82.3516 314.058 82.5997 312.463C86.8711 284.865 91.9697 251.423 93.4361 241.835L93.4887 241.505C93.9925 238.218 97.0682 235.947 100.354 236.459C101.949 236.699 103.347 237.549 104.302 238.842C105.257 240.136 105.649 241.73 105.408 243.317L105.355 243.648C103.889 253.243 98.7828 286.685 94.5114 314.306C94.0527 317.261 91.556 319.412 88.5631 319.412L88.5556 319.404ZM99.437 237.286C96.9554 237.286 94.7671 239.106 94.3836 241.632L94.3309 241.963C92.8645 251.551 87.766 284.993 83.4946 312.591C83.2841 313.945 83.6149 315.291 84.4271 316.396C85.2393 317.502 86.4274 318.224 87.7735 318.434C88.0367 318.472 88.2999 318.494 88.5631 318.494C91.0597 318.494 93.233 316.629 93.6165 314.155C97.8879 286.534 102.994 253.093 104.46 243.497L104.513 243.166C104.716 241.813 104.385 240.467 103.573 239.361C102.761 238.263 101.573 237.542 100.219 237.331C99.9559 237.293 99.7002 237.271 99.4445 237.271L99.437 237.286Z" fill="#393636"/>
<path d="M142.737 321.164C139.872 321.164 137.443 318.969 137.195 316.066C134.187 280.963 126.576 241.347 126.494 240.949C125.907 237.926 127.885 235.008 130.908 234.421C133.931 233.842 136.849 235.812 137.435 238.836C137.51 239.234 145.241 279.413 148.294 315.118C148.557 318.187 146.286 320.879 143.218 321.142C143.06 321.157 142.895 321.164 142.737 321.164Z" fill="white"/>
<path d="M142.737 321.623C139.639 321.623 137.007 319.202 136.743 316.111C133.743 281.09 126.125 241.437 126.05 241.046C125.742 239.467 126.073 237.858 126.975 236.527C127.877 235.196 129.246 234.293 130.825 233.985C134.081 233.368 137.255 235.504 137.886 238.753C137.962 239.151 145.692 279.346 148.753 315.081C149.039 318.389 146.572 321.315 143.263 321.6C143.09 321.616 142.917 321.623 142.744 321.623H142.737ZM131.961 234.782C131.645 234.782 131.322 234.812 130.998 234.872C129.66 235.128 128.494 235.895 127.727 237.031C126.96 238.166 126.682 239.527 126.945 240.866C127.02 241.257 134.645 280.955 137.653 316.028C137.894 318.803 140.376 320.909 143.188 320.691C146.001 320.45 148.091 317.968 147.85 315.156C144.797 279.466 137.074 239.324 136.999 238.926C136.525 236.482 134.375 234.782 131.968 234.782H131.961Z" fill="#393636"/>
<path d="M89.6158 223.201C89.4428 226.164 86.9913 228.457 84.051 228.457C83.9457 228.457 83.848 228.457 83.7352 228.45C68.4019 227.593 56.3097 222.035 47.7821 211.943C31.5539 192.73 34.5619 164.131 34.7048 162.936C35.0507 159.875 37.8105 157.672 40.8712 158.025C43.9243 158.371 46.1277 161.116 45.7817 164.169C45.7817 164.184 45.7592 164.379 45.7291 164.733C46.9323 164.801 48.8048 165.184 49.9553 166.763C51.2412 168.523 47.6843 169.711 45.5787 170.245C45.6539 178.652 47.188 193.993 56.3323 204.792C62.807 212.432 72.2371 216.643 84.3668 217.32C87.4425 217.501 89.7888 220.125 89.6233 223.201H89.6158Z" fill="white"/>
<path d="M84.0584 228.909C83.9456 228.909 83.8328 228.909 83.7049 228.901C68.2589 228.036 56.0539 222.427 47.436 212.237C31.0424 192.82 34.1181 164.094 34.2534 162.883C34.4339 161.281 35.2235 159.845 36.4869 158.845C37.7427 157.845 39.3219 157.386 40.9161 157.574C44.2174 157.943 46.5937 160.928 46.2253 164.222C46.2253 164.252 46.2253 164.289 46.2177 164.327C47.4134 164.47 49.1881 164.944 50.3161 166.508C50.7673 167.124 50.7147 167.658 50.5868 168.004C50.2184 169.019 48.6843 169.892 46.0297 170.606C46.1425 178.878 47.7142 193.933 56.6781 204.514C63.0701 212.056 72.3949 216.215 84.3968 216.884C87.7131 217.08 90.2624 219.93 90.0819 223.239C89.8939 226.427 87.2544 228.924 84.0659 228.924L84.0584 228.909ZM40.2243 158.431C39.0737 158.431 37.9683 158.815 37.0509 159.544C35.983 160.394 35.3062 161.612 35.1558 162.981C35.0205 164.177 31.9824 192.527 48.1278 211.65C56.5728 221.644 68.5597 227.149 83.7651 227.999C83.8779 228.006 83.9681 228.006 84.0584 228.006C86.7656 228.006 89.0141 225.886 89.172 223.179C89.3299 220.366 87.1641 217.945 84.3441 217.779C72.0865 217.095 62.5436 212.823 55.9862 205.085C46.714 194.136 45.195 178.555 45.1198 170.245C45.1198 170.035 45.2627 169.854 45.4657 169.802C47.8872 169.192 49.4814 168.403 49.7446 167.688C49.7897 167.561 49.8273 167.35 49.5942 167.034C48.5188 165.56 46.699 165.244 45.7064 165.184C45.5861 165.184 45.4733 165.124 45.3905 165.034C45.3078 164.944 45.2702 164.823 45.2777 164.703C45.3003 164.44 45.3153 164.267 45.3229 164.177C45.6462 161.319 43.6158 158.785 40.8184 158.476C40.6228 158.454 40.4198 158.446 40.2243 158.446V158.431Z" fill="#393636"/>
<path d="M61.5809 206.778L57.8359 227.849L80.8095 233.496L84.1635 213.034C84.1635 213.034 74.3499 211.049 69.9958 209.928C65.6417 208.808 61.5809 206.77 61.5809 206.77V206.778Z" fill="white"/>
<path d="M80.8095 233.947C80.8095 233.947 80.7344 233.947 80.7043 233.932L57.7307 228.285C57.4975 228.224 57.3471 227.999 57.3923 227.766L61.1372 206.695C61.1598 206.552 61.25 206.431 61.3779 206.371C61.5057 206.311 61.6561 206.311 61.784 206.371C61.8216 206.394 65.8448 208.402 70.1086 209.492C74.41 210.598 84.156 212.568 84.2537 212.59C84.4944 212.635 84.6523 212.869 84.6147 213.109L81.2607 233.571C81.2382 233.699 81.1705 233.804 81.0652 233.879C80.99 233.932 80.9073 233.955 80.8171 233.955L80.8095 233.947ZM58.3548 227.51L80.4411 232.939L83.6446 213.395C81.7044 212.996 73.6806 211.35 69.883 210.372C66.4539 209.492 63.1827 208.033 61.9268 207.439L58.3623 227.51H58.3548Z" fill="#393636"/>
<path d="M190.534 285.038C188.135 285.489 185.639 284.324 184.503 282.03C183.142 279.27 184.27 275.931 187.03 274.57C187.436 274.367 183.729 271.231 185.255 270.096C185.691 269.772 191.098 271.878 191.565 271.472C195.753 267.877 200.807 261.162 197.776 250.98C188.376 219.358 132.796 235.338 132.239 235.511C129.276 236.376 126.193 234.692 125.321 231.744C124.449 228.796 126.133 225.698 129.081 224.825C129.735 224.63 145.407 220.05 162.771 220.186C193.821 220.434 204.762 235.338 208.462 247.807C214.328 267.539 200.243 280.481 191.971 284.557C191.504 284.79 191.023 284.948 190.534 285.038Z" fill="white"/>
<path d="M189.512 285.587C187.256 285.587 185.127 284.309 184.105 282.225C182.698 279.375 183.759 275.931 186.466 274.352C186.361 274.209 186.218 274.036 186.09 273.878C185.338 272.946 184.315 271.675 184.443 270.63C184.488 270.261 184.676 269.945 184.985 269.72C185.338 269.457 185.932 269.592 188.331 270.306C189.369 270.615 190.903 271.058 191.331 271.058C195.685 267.298 200.228 260.801 197.34 251.1C195.437 244.708 191.444 239.828 185.466 236.594C166.305 226.239 132.698 235.835 132.367 235.932C129.179 236.865 125.817 235.037 124.885 231.864C123.945 228.683 125.765 225.322 128.953 224.382C129.615 224.186 145.301 219.584 162.77 219.719C194.099 219.967 205.146 235.053 208.898 247.664C214.854 267.689 200.558 280.812 192.174 284.955C191.677 285.203 191.158 285.376 190.625 285.474C190.256 285.542 189.88 285.579 189.512 285.579V285.587ZM185.466 270.509C185.398 270.577 185.361 270.66 185.345 270.757C185.263 271.419 186.225 272.607 186.797 273.322C187.353 274.006 187.579 274.292 187.511 274.63C187.481 274.766 187.368 274.916 187.241 274.976C184.706 276.225 183.661 279.3 184.909 281.834C185.925 283.887 188.196 285.023 190.444 284.602C190.895 284.519 191.339 284.369 191.76 284.158C199.912 280.135 213.801 267.389 208.018 247.942C204.356 235.624 193.527 220.885 162.755 220.644C162.5 220.644 162.244 220.644 161.988 220.644C144.963 220.644 129.848 225.081 129.201 225.269C126.501 226.074 124.952 228.924 125.749 231.623C126.547 234.323 129.404 235.872 132.111 235.083C132.45 234.985 166.418 225.284 185.894 235.812C192.091 239.166 196.234 244.227 198.212 250.86C201.25 261.072 196.437 267.9 191.858 271.818C191.474 272.149 190.752 271.991 188.068 271.194C187.12 270.908 185.842 270.532 185.458 270.517L185.466 270.509Z" fill="#393636"/>
<path d="M149.362 218.035C149.362 218.035 160.807 216.749 166.951 216.727C173.087 216.704 175.953 217.411 175.953 217.411L174.727 236.188L154.769 235.782L149.362 218.028V218.035Z" fill="white"/>
<path d="M174.734 236.64H174.727L154.769 236.233C154.573 236.233 154.4 236.098 154.348 235.91L148.941 218.155C148.903 218.028 148.918 217.885 148.993 217.772C149.069 217.659 149.189 217.584 149.324 217.569C149.437 217.554 160.867 216.283 166.959 216.26C173.065 216.238 175.953 216.93 176.073 216.96C176.283 217.012 176.426 217.208 176.419 217.426L175.193 236.203C175.178 236.444 174.982 236.624 174.742 236.624L174.734 236.64ZM155.107 235.339L174.306 235.73L175.479 217.779C174.531 217.599 171.719 217.178 166.951 217.185C161.665 217.208 152.302 218.178 149.956 218.434L155.107 235.346V235.339Z" fill="#393636"/>
<path d="M150.001 176.395L88.9638 173.976C84.2494 173.789 80.2762 177.459 80.0894 182.173L77.6699 243.21C77.483 247.925 81.1532 251.898 85.8675 252.085L146.905 254.504C151.619 254.691 155.592 251.021 155.779 246.306L158.198 185.269C158.385 180.555 154.715 176.582 150.001 176.395Z" fill="white"/>
<path d="M147.234 254.966C147.114 254.966 146.993 254.966 146.873 254.966L85.8407 252.544C80.8851 252.349 77.0123 248.153 77.2078 243.197L79.6292 182.165C79.727 179.766 80.7497 177.54 82.5169 175.908C84.2841 174.276 86.5852 173.434 88.9766 173.524L150.009 175.946C154.965 176.141 158.837 180.337 158.642 185.293L156.22 246.325C156.025 251.161 152.032 254.966 147.234 254.966ZM146.911 254.048C147.016 254.048 147.129 254.048 147.234 254.048C151.55 254.048 155.145 250.627 155.318 246.28L157.739 185.248C157.912 180.788 154.431 177.021 149.979 176.84L88.9465 174.419C84.5022 174.231 80.7196 177.728 80.5391 182.18L78.1177 243.212C77.9447 247.671 81.4265 251.439 85.8783 251.619L146.911 254.041V254.048Z" fill="#393636"/>
<path d="M147.971 304.786C147.971 304.786 154.663 308.41 163.041 313.141C173.147 318.856 177.923 322.796 159.521 322.112C150.046 321.758 141.443 321.886 134.359 321.179C130.08 320.751 134.337 310.095 135.728 308.14C135.728 308.14 134.886 313.186 142.519 312.291C145.293 311.967 147.971 304.778 147.971 304.778V304.786Z" fill="url(#paint2_linear_597_1349)"/>
<path d="M163.312 322.646C162.184 322.646 160.92 322.623 159.499 322.57C156.198 322.45 153.024 322.382 149.949 322.322C144.293 322.209 138.947 322.097 134.314 321.638C133.435 321.548 132.773 321.074 132.404 320.269C130.983 317.141 134.277 309.41 135.36 307.884C135.48 307.711 135.706 307.651 135.901 307.726C136.097 307.809 136.209 308.012 136.172 308.222C136.172 308.237 135.954 309.674 136.969 310.734C137.977 311.779 139.827 312.155 142.459 311.847C144.504 311.606 146.82 306.553 147.535 304.628C147.58 304.507 147.677 304.41 147.798 304.364C147.918 304.319 148.061 304.327 148.174 304.387C148.241 304.425 154.964 308.064 163.251 312.749C170.456 316.818 172.839 318.856 172.366 320.517C172.065 321.593 170.666 322.646 163.297 322.646H163.312ZM135.39 309.674C134.081 312.366 132.246 317.728 133.232 319.893C133.465 320.412 133.841 320.675 134.405 320.736C138.999 321.194 144.331 321.3 149.971 321.412C153.047 321.472 156.235 321.54 159.537 321.66C169.501 322.029 171.313 320.946 171.508 320.269C171.952 318.698 165.319 314.945 162.823 313.531C155.769 309.546 149.851 306.312 148.211 305.425C147.512 307.169 145.196 312.433 142.579 312.742C139.639 313.088 137.533 312.614 136.315 311.343C135.803 310.809 135.533 310.208 135.39 309.666V309.674Z" fill="#393636"/>
<path d="M128.554 204.431C127.283 204.363 126.193 205.341 126.125 206.612C126.058 207.883 127.035 208.973 128.306 209.041C129.577 209.108 130.667 208.131 130.735 206.86C130.803 205.589 129.825 204.499 128.554 204.431Z" fill="#3B3838"/>
<path d="M118.147 206.83C112.808 206.537 108.22 210.65 107.935 215.99C107.641 221.329 111.755 225.916 117.094 226.202C122.433 226.495 127.02 222.382 127.306 217.042C127.599 211.703 123.486 207.116 118.147 206.83ZM117.282 222.72C113.86 222.532 111.228 219.599 111.416 216.178C111.604 212.756 114.537 210.124 117.959 210.312C121.38 210.5 124.012 213.433 123.824 216.854C123.636 220.276 120.704 222.908 117.282 222.72Z" fill="#3B3838"/>
<path d="M124.238 236.602L108.536 235.745C102.024 235.391 97.0079 229.804 97.3613 223.284L98.2186 207.575C98.5721 201.062 104.159 196.046 110.679 196.4L126.381 197.257C132.893 197.611 137.909 203.198 137.556 209.718L136.698 225.427C136.345 231.939 130.758 236.955 124.238 236.602ZM110.469 200.115C105.994 199.874 102.159 203.311 101.911 207.785L101.054 223.494C100.813 227.969 104.25 231.804 108.724 232.052L124.426 232.91C128.9 233.15 132.735 229.713 132.984 225.239L133.841 209.53C134.081 205.055 130.645 201.22 126.163 200.972L110.461 200.115H110.469Z" fill="#3B3838"/>
<path d="M97.9478 288.941C96.8799 295.92 95.767 303.101 94.7067 309.997C93.8644 310.561 91.7438 311.584 87.7657 311.163C85.3593 310.907 84.0734 310.508 83.4116 310.11C84.5923 302.5 85.8255 294.491 87.0212 286.745C89.7059 287.768 93.3155 288.67 97.9478 288.941Z" fill="#201D1D"/>
<path d="M147.43 306.086C146.512 308.169 144.542 312.05 142.519 312.29C139.368 312.659 137.661 312.02 136.744 311.14C136.022 303.597 135.104 295.949 134.134 288.602C137.15 288.663 140.977 288.407 145.211 287.369C146.016 293.475 146.783 299.792 147.43 306.079V306.086Z" fill="#201D1D"/>
<path d="M308.29 95.579C305.643 95.1052 303.093 96.8649 302.612 99.5195C302.409 100.64 302.184 101.745 301.958 102.843C300.484 101.843 298.506 100.82 297.799 102.001C297.017 103.31 299.281 105.927 300.883 107.521C296.611 124.441 289.008 137.879 278.653 146.67C269.772 154.212 261.839 155.799 261.643 155.837C258.996 156.311 257.229 158.83 257.688 161.484C258.101 163.861 260.162 165.538 262.5 165.538C262.779 165.538 263.057 165.515 263.343 165.462C264.914 165.192 301.98 158.13 312.238 101.249C312.719 98.5945 310.952 96.0528 308.297 95.5715L308.29 95.579Z" fill="white"/>
<path d="M262.493 165.989C259.891 165.989 257.68 164.124 257.236 161.56C256.733 158.672 258.673 155.905 261.56 155.386C261.636 155.371 269.562 153.784 278.36 146.317C288.512 137.699 296.122 124.336 300.379 107.656C297.694 104.934 296.694 102.949 297.408 101.761C297.626 101.392 297.972 101.144 298.386 101.054C299.168 100.888 300.258 101.234 301.649 102.091C301.83 101.212 302.003 100.324 302.168 99.4293C302.687 96.5341 305.47 94.609 308.372 95.1204C309.779 95.376 310.997 96.1581 311.809 97.3312C312.621 98.5044 312.929 99.9256 312.681 101.324C302.364 158.514 265.005 165.628 263.418 165.899C263.117 165.951 262.809 165.981 262.5 165.981L262.493 165.989ZM298.807 101.926C298.717 101.926 298.641 101.933 298.581 101.949C298.401 101.986 298.273 102.076 298.183 102.234C297.829 102.828 298.431 104.438 301.198 107.205C301.311 107.318 301.356 107.483 301.319 107.634C297.032 124.614 289.294 138.233 278.947 147.016C269.975 154.634 262.057 156.22 261.726 156.281C259.327 156.709 257.718 159.01 258.131 161.402C258.5 163.53 260.335 165.079 262.493 165.079C262.749 165.079 263.004 165.056 263.252 165.011C264.817 164.741 301.574 157.739 311.779 101.166C311.989 100.001 311.734 98.8202 311.057 97.8501C310.38 96.88 309.365 96.2258 308.199 96.0152C305.785 95.5866 303.477 97.1884 303.048 99.5948C302.845 100.723 302.62 101.836 302.394 102.934C302.364 103.084 302.259 103.204 302.123 103.265C301.988 103.325 301.822 103.302 301.702 103.219C300.13 102.152 299.258 101.926 298.807 101.926Z" fill="#393636"/>
<path d="M216.079 164.267C215.861 164.342 194.452 172.11 181.645 170.208C172.847 168.899 166.274 166.026 151.881 159.74C149.339 158.634 146.594 157.431 143.579 156.123C143.511 153.739 143.286 150.641 142.564 150.302C141.752 149.919 140.669 152.769 140.067 154.611C139.067 154.182 138.052 153.746 136.991 153.295C134.51 152.235 131.637 153.393 130.577 155.874C129.517 158.356 130.675 161.229 133.156 162.289C138.902 164.733 143.714 166.839 147.963 168.696C162.717 175.141 170.117 178.382 180.201 179.878C182.029 180.149 183.961 180.269 185.954 180.269C200.656 180.269 218.583 173.765 219.441 173.449C221.975 172.516 223.276 169.711 222.343 167.177C221.418 164.643 218.614 163.342 216.072 164.267H216.079Z" fill="white"/>
<path d="M185.962 180.72C183.864 180.72 181.909 180.585 180.141 180.322C169.997 178.818 162.575 175.569 147.783 169.11C143.549 167.26 138.751 165.162 132.984 162.703C130.276 161.544 129.005 158.401 130.164 155.694C131.322 152.987 134.465 151.723 137.172 152.874L139.797 153.994C141.052 150.317 141.812 149.986 142.068 149.881C142.301 149.783 142.541 149.783 142.76 149.881C143.113 150.046 143.842 150.392 144.023 155.814C146.941 157.078 149.603 158.236 152.062 159.319C166.417 165.59 172.967 168.455 181.706 169.756C194.272 171.629 215.042 164.161 215.922 163.838C218.689 162.823 221.757 164.252 222.772 167.019C223.788 169.786 222.359 172.855 219.599 173.87C218.839 174.148 200.761 180.72 185.954 180.72H185.962ZM135.074 153.355C133.352 153.355 131.705 154.363 130.991 156.047C130.524 157.138 130.517 158.341 130.953 159.439C131.397 160.537 132.239 161.402 133.329 161.86C139.105 164.319 143.903 166.417 148.136 168.267C162.853 174.697 170.238 177.923 180.262 179.419C181.984 179.675 183.901 179.803 185.954 179.803C200.596 179.803 218.524 173.291 219.283 173.012C221.577 172.17 222.757 169.621 221.915 167.32C221.073 165.026 218.516 163.838 216.222 164.68C215.335 165.004 194.362 172.546 181.563 170.644C172.704 169.328 166.117 166.447 151.686 160.138C149.152 159.033 146.399 157.83 143.384 156.521C143.226 156.453 143.113 156.296 143.113 156.115C142.97 151.197 142.376 150.701 142.346 150.686C142.18 150.761 141.481 151.693 140.481 154.731C140.443 154.852 140.353 154.949 140.24 155.002C140.128 155.055 139.992 155.055 139.872 155.002L136.796 153.686C136.232 153.445 135.646 153.333 135.067 153.333L135.074 153.355Z" fill="#393636"/>
<path d="M228.059 304.838C225.48 304.838 223.329 302.822 223.186 300.221C222.742 292.129 221.238 264.335 220.471 246.362C219.569 225.269 223.163 191.549 223.314 190.128C223.6 187.443 225.999 185.503 228.698 185.789C231.383 186.074 233.323 188.488 233.037 191.173C233 191.511 229.367 225.584 230.24 245.941C231.007 263.854 232.511 291.603 232.955 299.679C233.105 302.371 231.037 304.68 228.345 304.83C228.255 304.83 228.164 304.83 228.074 304.83L228.059 304.838Z" fill="white"/>
<path d="M228.059 305.297C225.224 305.297 222.885 303.078 222.727 300.251C222.284 292.189 220.78 264.478 220.005 246.385C219.103 225.254 222.697 191.504 222.855 190.083C223.171 187.158 225.803 185.037 228.736 185.345C231.661 185.661 233.789 188.301 233.473 191.226C233.436 191.564 229.811 225.63 230.676 245.934C231.443 263.922 232.947 291.61 233.391 299.672C233.466 301.093 232.985 302.469 232.037 303.53C231.082 304.59 229.773 305.222 228.352 305.297C228.254 305.297 228.157 305.304 228.059 305.304V305.297ZM228.172 186.218C225.938 186.218 224.006 187.91 223.757 190.173C223.607 191.594 220.013 225.284 220.915 246.34C221.689 264.426 223.193 292.129 223.63 300.191C223.765 302.62 225.841 304.5 228.3 304.379C229.48 304.312 230.571 303.793 231.36 302.913C232.15 302.033 232.548 300.89 232.488 299.709C232.045 291.648 230.548 263.959 229.773 245.964C228.901 225.6 232.533 191.466 232.571 191.128C232.834 188.699 231.067 186.503 228.638 186.24C228.48 186.225 228.322 186.218 228.164 186.218H228.172Z" fill="#393636"/>
<path d="M219.937 294.257C219.937 294.257 210.417 302.808 206.198 308.463C202.694 313.163 208.409 313.163 214.967 313.666C222.78 314.261 232.97 310.659 236.218 309.967C239.467 309.275 232.962 294.543 232.962 294.543C232.962 294.543 233.564 298.469 231.052 297.897C229.277 297.491 227.292 294.468 225.818 293.054C222.908 290.257 219.945 294.257 219.945 294.257H219.937Z" fill="url(#paint3_linear_597_1349)"/>
<path d="M296.145 291.731C294.671 291.731 293.219 291.069 292.257 289.813C275.427 267.802 250.777 195.294 249.739 192.218C248.874 189.662 250.243 186.887 252.799 186.022C255.356 185.157 258.131 186.526 258.996 189.083C259.244 189.82 284.165 263.132 300.025 283.872C301.664 286.015 301.258 289.084 299.115 290.723C298.228 291.4 297.182 291.731 296.152 291.731H296.145Z" fill="white"/>
<path d="M296.145 292.182C294.468 292.182 292.919 291.415 291.896 290.084C275.036 268.035 250.348 195.437 249.303 192.362C248.363 189.572 249.859 186.534 252.649 185.586C255.439 184.646 258.477 186.142 259.425 188.932C259.673 189.669 284.542 262.877 300.379 283.594C302.168 285.933 301.717 289.294 299.378 291.084C298.438 291.806 297.318 292.182 296.137 292.182H296.145ZM254.364 186.218C253.898 186.218 253.416 186.293 252.95 186.451C250.634 187.233 249.386 189.76 250.168 192.076C251.205 195.151 275.848 267.607 292.618 289.542C293.46 290.648 294.746 291.287 296.145 291.287C297.122 291.287 298.055 290.971 298.837 290.377C299.777 289.655 300.379 288.618 300.537 287.437C300.694 286.264 300.386 285.098 299.664 284.158C283.737 263.328 258.816 189.978 258.567 189.241C257.943 187.391 256.214 186.225 254.364 186.225V186.218Z" fill="#393636"/>
<path fill-rule="evenodd" clip-rule="evenodd" d="M217.064 207.446L214.906 232.36C214.906 232.36 232.954 234.323 241.196 234.323C240.805 225.299 242.377 214.703 242.377 214.703L248.265 213.523L256.108 231.571L279.646 223.727L267.486 196.264L217.072 207.446H217.064Z" fill="#3B3838"/>
<path d="M255.983 122.18L196.807 135.255C192.2 136.273 189.291 140.833 190.308 145.44L203.384 204.616C204.402 209.223 208.962 212.133 213.569 211.115L272.745 198.039C277.352 197.021 280.261 192.461 279.244 187.854L266.168 128.678C265.15 124.071 260.59 121.162 255.983 122.18Z" fill="white"/>
<path d="M211.725 211.764C207.597 211.764 203.867 208.898 202.942 204.71L189.865 145.535C189.346 143.189 189.775 140.782 191.068 138.752C192.361 136.729 194.362 135.323 196.715 134.804L255.89 121.727C258.237 121.208 260.643 121.636 262.673 122.93C264.696 124.223 266.102 126.224 266.621 128.577L279.699 187.752C280.218 190.098 279.789 192.505 278.495 194.535C277.202 196.558 275.202 197.964 272.848 198.483L213.673 211.56C213.019 211.703 212.372 211.771 211.733 211.771L211.725 211.764ZM257.838 122.426C257.251 122.426 256.665 122.486 256.078 122.621L196.903 135.699C192.549 136.661 189.79 140.993 190.752 145.347L203.829 204.522C204.792 208.876 209.116 211.643 213.478 210.673L272.652 197.596C277.007 196.633 279.766 192.302 278.804 187.948L265.726 128.773C265.26 126.66 263.997 124.862 262.177 123.697C260.861 122.855 259.365 122.426 257.838 122.426Z" fill="#393636"/>
<path d="M288.67 285.128C288.67 285.128 289.843 297.348 291.092 299.8C292.348 302.259 287.587 301.251 287.587 305.011C287.587 308.771 295.356 309.237 302.62 308.876C309.884 308.515 310.388 300.965 307.884 294.468C305.38 287.971 302.236 278.699 298.04 274.69C298.04 274.69 295.498 274.187 295.536 276.097C295.581 278.142 298.145 282.662 296.183 284.466C290.836 289.385 288.663 285.121 288.663 285.121L288.67 285.128Z" fill="url(#paint4_linear_597_1349)"/>
<path d="M244.114 192.406L239.038 169.892L246.543 168.2L245.874 158.566L236.94 160.582L235.579 154.536C235.008 151.986 235.692 149.219 239.693 148.317L243.753 147.399L241.964 139.473C241.964 139.473 238.136 139.676 234.609 140.473C227.247 142.135 223.442 147.677 225.262 155.754L226.863 162.853L218.682 164.695L220.78 174.013L228.961 172.17L234.037 194.685L244.107 192.414L244.114 192.406Z" fill="#3B3838"/>
<path d="M232.834 297.844C232.285 297.995 231.676 298.04 231.044 297.897C229.27 297.499 227.284 294.475 225.811 293.054C224.743 292.031 223.675 291.919 222.742 292.189C222.457 286.91 222.103 280.097 221.742 272.931C223.697 274.171 226.863 275.202 231.586 274.202C232.09 283.963 232.571 292.874 232.834 297.844Z" fill="white"/>
<path d="M231.826 298.439C231.533 298.439 231.24 298.408 230.946 298.341C229.555 298.025 228.142 296.378 226.901 294.927C226.397 294.34 225.923 293.784 225.502 293.378C224.682 292.595 223.825 292.347 222.878 292.626C222.75 292.663 222.599 292.641 222.486 292.558C222.374 292.475 222.306 292.347 222.298 292.212C222.013 286.933 221.659 280.12 221.298 272.953C221.291 272.788 221.374 272.622 221.524 272.54C221.674 272.457 221.855 272.457 221.998 272.547C223.735 273.653 226.795 274.758 231.503 273.758C231.631 273.728 231.766 273.758 231.871 273.841C231.977 273.923 232.044 274.044 232.044 274.179C232.413 281.315 232.766 288.001 233.037 293.024L233.293 297.822C233.308 298.032 233.165 298.228 232.962 298.281C232.586 298.386 232.202 298.439 231.834 298.439H231.826ZM223.592 291.618C224.494 291.618 225.359 291.994 226.126 292.731C226.577 293.167 227.066 293.739 227.585 294.34C228.736 295.686 230.044 297.213 231.142 297.453C231.541 297.544 231.947 297.551 232.36 297.483L232.127 293.069C231.864 288.174 231.518 281.691 231.157 274.743C227.029 275.51 224.111 274.713 222.231 273.735C222.562 280.36 222.893 286.64 223.163 291.633C223.306 291.618 223.442 291.603 223.584 291.603L223.592 291.618Z" fill="#393636"/>
<path d="M296.182 284.474C293.009 287.399 290.949 287.076 289.806 286.331C286.579 281.443 283.143 275.036 279.684 267.855C281.067 268.223 282.887 268.441 285.038 268.065C286.888 267.734 288.174 266.396 289.061 264.847C291.355 269.554 293.618 273.848 295.776 277.48C296.386 279.744 297.777 283.007 296.182 284.474Z" fill="white"/>
<path d="M291.55 287.302C290.731 287.302 290.069 287.046 289.558 286.708C289.505 286.677 289.46 286.632 289.43 286.58C286.422 282.015 283.008 275.781 279.278 268.05C279.203 267.892 279.225 267.704 279.338 267.562C279.451 267.426 279.631 267.366 279.804 267.411C281.466 267.855 283.196 267.923 284.963 267.614C286.437 267.351 287.685 266.343 288.67 264.614C288.753 264.471 288.911 264.381 289.076 264.388C289.242 264.388 289.392 264.493 289.467 264.644C291.851 269.539 294.107 273.781 296.168 277.247C296.19 277.285 296.205 277.323 296.213 277.36C296.311 277.729 296.431 278.12 296.559 278.526C297.213 280.692 298.033 283.384 296.491 284.805C294.446 286.692 292.814 287.302 291.55 287.302ZM290.129 286.001C291.603 286.896 293.581 286.256 295.874 284.143C296.995 283.113 296.273 280.722 295.686 278.796C295.566 278.398 295.453 278.014 295.355 277.661C293.4 274.36 291.265 270.367 289.016 265.779C287.956 267.321 286.647 268.238 285.121 268.517C283.549 268.787 282 268.787 280.503 268.509C284.03 275.773 287.271 281.654 290.129 286.008V286.001Z" fill="#393636"/>
<path d="M289.948 302.357C289.821 302.357 289.7 302.304 289.61 302.206C289.445 302.018 289.46 301.732 289.648 301.567C293.34 298.288 298.326 300.033 298.536 300.108C298.769 300.191 298.897 300.454 298.807 300.687C298.724 300.92 298.461 301.048 298.228 300.958C298.183 300.943 293.528 299.326 290.249 302.244C290.159 302.319 290.054 302.357 289.948 302.357Z" fill="#393636"/>
<path d="M275.134 225.69C274.946 225.69 274.765 225.57 274.705 225.382C274.63 225.141 274.758 224.885 274.991 224.81L279.037 223.464L274.269 212.688C274.171 212.462 274.269 212.192 274.502 212.094C274.728 211.996 274.999 212.094 275.096 212.327L280.067 223.554C280.12 223.675 280.12 223.802 280.067 223.923C280.014 224.043 279.917 224.126 279.796 224.171L275.284 225.675C275.239 225.69 275.187 225.697 275.141 225.697L275.134 225.69Z" fill="white"/>
<path d="M256.108 232.03C255.935 232.03 255.762 231.924 255.695 231.759L248.964 216.275C248.867 216.042 248.964 215.779 249.198 215.681C249.423 215.583 249.694 215.681 249.792 215.914L256.357 231.022L259.801 229.871C260.034 229.796 260.297 229.917 260.372 230.157C260.447 230.398 260.32 230.654 260.086 230.729L256.244 232.007C256.199 232.022 256.146 232.03 256.101 232.03H256.108Z" fill="white"/>
<path d="M241.196 234.774C239.233 234.774 236.549 234.661 233.195 234.443C232.947 234.428 232.759 234.21 232.774 233.962C232.789 233.714 233.014 233.526 233.255 233.541C236.323 233.744 238.827 233.857 240.722 233.872C240.489 227.345 241.219 220.201 241.677 216.471C241.708 216.222 241.941 216.049 242.181 216.08C242.429 216.11 242.61 216.335 242.572 216.583C242.196 219.637 241.339 227.48 241.64 234.308C241.64 234.428 241.602 234.549 241.512 234.639C241.429 234.729 241.309 234.782 241.181 234.782L241.196 234.774Z" fill="white"/>
<path d="M218.756 233.21C218.756 233.21 218.726 233.21 218.711 233.21C216.365 232.977 214.861 232.811 214.861 232.811C214.613 232.781 214.44 232.563 214.455 232.323L215.997 214.545C216.019 214.297 216.245 214.117 216.485 214.132C216.734 214.154 216.922 214.372 216.899 214.621L215.395 231.954C216.004 232.022 217.207 232.142 218.794 232.3C219.042 232.323 219.223 232.548 219.2 232.796C219.178 233.029 218.982 233.202 218.749 233.202L218.756 233.21Z" fill="white"/>
<defs>
<linearGradient id="paint0_linear_597_1349" x1="115.909" y1="269.153" x2="115.909" y2="287.296" gradientUnits="userSpaceOnUse">
<stop stop-color="#68E1FD"/>
<stop offset="1" stop-color="#0D54DB"/>
</linearGradient>
<linearGradient id="paint1_linear_597_1349" x1="184.496" y1="265.636" x2="184.496" y2="284.947" gradientUnits="userSpaceOnUse">
<stop stop-color="#68E1FD"/>
<stop offset="1" stop-color="#0D54DB"/>
</linearGradient>
<linearGradient id="paint2_linear_597_1349" x1="152.238" y1="304.778" x2="152.238" y2="322.189" gradientUnits="userSpaceOnUse">
<stop stop-color="#68E1FD"/>
<stop offset="1" stop-color="#0D54DB"/>
</linearGradient>
<linearGradient id="paint3_linear_597_1349" x1="221.13" y1="292.061" x2="221.13" y2="313.732" gradientUnits="userSpaceOnUse">
<stop stop-color="#68E1FD"/>
<stop offset="1" stop-color="#0D54DB"/>
</linearGradient>
<linearGradient id="paint4_linear_597_1349" x1="298.417" y1="274.63" x2="298.417" y2="308.977" gradientUnits="userSpaceOnUse">
<stop stop-color="#68E1FD"/>
<stop offset="1" stop-color="#0D54DB"/>
</linearGradient>
</defs>
</svg>
