<svg width="474" height="363" viewBox="0 0 474 363" fill="none" xmlns="http://www.w3.org/2000/svg">
<path d="M262.492 153.159C270.036 153.159 276.152 147.043 276.152 139.498C276.152 131.953 270.036 125.837 262.492 125.837C254.947 125.837 248.831 131.953 248.831 139.498C248.831 147.043 254.947 153.159 262.492 153.159Z" fill="white"/>
<path d="M262.492 153.87C254.567 153.87 248.12 147.423 248.12 139.498C248.12 131.573 254.567 125.126 262.492 125.126C270.417 125.126 276.863 131.573 276.863 139.498C276.863 147.423 270.417 153.87 262.492 153.87ZM262.492 126.548C255.353 126.548 249.542 132.36 249.542 139.498C249.542 146.637 255.353 152.448 262.492 152.448C269.63 152.448 275.441 146.637 275.441 139.498C275.441 132.36 269.63 126.548 262.492 126.548Z" fill="url(#paint0_linear_597_642)"/>
<path d="M262.492 205.555C270.036 205.555 276.152 199.439 276.152 191.894C276.152 184.349 270.036 178.233 262.492 178.233C254.947 178.233 248.831 184.349 248.831 191.894C248.831 199.439 254.947 205.555 262.492 205.555Z" fill="white"/>
<path d="M262.492 206.266C254.567 206.266 248.12 199.819 248.12 191.894C248.12 183.969 254.567 177.522 262.492 177.522C270.417 177.522 276.863 183.969 276.863 191.894C276.863 199.819 270.417 206.266 262.492 206.266ZM262.492 178.944C255.353 178.944 249.542 184.756 249.542 191.894C249.542 199.033 255.353 204.844 262.492 204.844C269.63 204.844 275.441 199.033 275.441 191.894C275.441 184.756 269.63 178.944 262.492 178.944Z" fill="url(#paint1_linear_597_642)"/>
<path d="M262.492 257.951C270.036 257.951 276.152 251.835 276.152 244.29C276.152 236.745 270.036 230.629 262.492 230.629C254.947 230.629 248.831 236.745 248.831 244.29C248.831 251.835 254.947 257.951 262.492 257.951Z" fill="white"/>
<path d="M262.492 258.662C254.567 258.662 248.12 252.215 248.12 244.29C248.12 236.365 254.567 229.918 262.492 229.918C270.417 229.918 276.863 236.365 276.863 244.29C276.863 252.215 270.417 258.662 262.492 258.662ZM262.492 231.34C255.353 231.34 249.542 237.152 249.542 244.29C249.542 251.429 255.353 257.24 262.492 257.24C269.63 257.24 275.441 251.429 275.441 244.29C275.441 237.152 269.63 231.34 262.492 231.34Z" fill="#CACACA"/>
<path d="M262.492 310.347C270.036 310.347 276.152 304.231 276.152 296.686C276.152 289.141 270.036 283.025 262.492 283.025C254.947 283.025 248.831 289.141 248.831 296.686C248.831 304.231 254.947 310.347 262.492 310.347Z" fill="white"/>
<path d="M262.492 311.058C254.567 311.058 248.12 304.611 248.12 296.686C248.12 288.761 254.567 282.314 262.492 282.314C270.417 282.314 276.863 288.761 276.863 296.686C276.863 304.611 270.417 311.058 262.492 311.058ZM262.492 283.736C255.353 283.736 249.542 289.548 249.542 296.686C249.542 303.825 255.353 309.636 262.492 309.636C269.63 309.636 275.441 303.825 275.441 296.686C275.441 289.548 269.63 283.736 262.492 283.736Z" fill="#CACACA"/>
<path d="M390.946 127.695H291.861C291.472 127.695 291.15 127.373 291.15 126.984C291.15 126.596 291.472 126.273 291.861 126.273H390.946C391.335 126.273 391.657 126.596 391.657 126.984C391.657 127.373 391.335 127.695 390.946 127.695Z" fill="#CACACA"/>
<path d="M365.985 136.038H291.861C291.472 136.038 291.15 135.715 291.15 135.327C291.15 134.938 291.472 134.616 291.861 134.616H365.985C366.374 134.616 366.696 134.938 366.696 135.327C366.696 135.715 366.374 136.038 365.985 136.038Z" fill="#CACACA"/>
<path d="M379.2 144.38H291.861C291.472 144.38 291.15 144.058 291.15 143.669C291.15 143.28 291.472 142.958 291.861 142.958H379.2C379.589 142.958 379.911 143.28 379.911 143.669C379.911 144.058 379.589 144.38 379.2 144.38Z" fill="#CACACA"/>
<path d="M341.403 152.723H291.861C291.472 152.723 291.15 152.4 291.15 152.012C291.15 151.623 291.472 151.301 291.861 151.301H341.403C341.792 151.301 342.114 151.623 342.114 152.012C342.114 152.4 341.792 152.723 341.403 152.723Z" fill="#CACACA"/>
<path d="M390.946 180.091H291.861C291.472 180.091 291.15 179.769 291.15 179.38C291.15 178.992 291.472 178.669 291.861 178.669H390.946C391.335 178.669 391.657 178.992 391.657 179.38C391.657 179.769 391.335 180.091 390.946 180.091Z" fill="#CACACA"/>
<path d="M365.985 188.434H291.861C291.472 188.434 291.15 188.111 291.15 187.723C291.15 187.334 291.472 187.012 291.861 187.012H365.985C366.374 187.012 366.696 187.334 366.696 187.723C366.696 188.111 366.374 188.434 365.985 188.434Z" fill="#CACACA"/>
<path d="M379.2 196.776H291.861C291.472 196.776 291.15 196.454 291.15 196.065C291.15 195.676 291.472 195.354 291.861 195.354H379.2C379.589 195.354 379.911 195.676 379.911 196.065C379.911 196.454 379.589 196.776 379.2 196.776Z" fill="#CACACA"/>
<path d="M341.403 205.119H291.861C291.472 205.119 291.15 204.796 291.15 204.408C291.15 204.019 291.472 203.697 291.861 203.697H341.403C341.792 203.697 342.114 204.019 342.114 204.408C342.114 204.796 341.792 205.119 341.403 205.119Z" fill="#CACACA"/>
<path d="M390.946 232.487H291.861C291.472 232.487 291.15 232.165 291.15 231.776C291.15 231.388 291.472 231.065 291.861 231.065H390.946C391.335 231.065 391.657 231.388 391.657 231.776C391.657 232.165 391.335 232.487 390.946 232.487Z" fill="#CACACA"/>
<path d="M365.985 240.83H291.861C291.472 240.83 291.15 240.507 291.15 240.119C291.15 239.73 291.472 239.408 291.861 239.408H365.985C366.374 239.408 366.696 239.73 366.696 240.119C366.696 240.507 366.374 240.83 365.985 240.83Z" fill="#CACACA"/>
<path d="M379.2 249.172H291.861C291.472 249.172 291.15 248.85 291.15 248.461C291.15 248.072 291.472 247.75 291.861 247.75H379.2C379.589 247.75 379.911 248.072 379.911 248.461C379.911 248.85 379.589 249.172 379.2 249.172Z" fill="#CACACA"/>
<path d="M341.403 257.515H291.861C291.472 257.515 291.15 257.192 291.15 256.804C291.15 256.415 291.472 256.093 291.861 256.093H341.403C341.792 256.093 342.114 256.415 342.114 256.804C342.114 257.192 341.792 257.515 341.403 257.515Z" fill="#CACACA"/>
<path d="M390.946 284.883H291.861C291.472 284.883 291.15 284.561 291.15 284.172C291.15 283.784 291.472 283.461 291.861 283.461H390.946C391.335 283.461 391.657 283.784 391.657 284.172C391.657 284.561 391.335 284.883 390.946 284.883Z" fill="#CACACA"/>
<path d="M365.985 293.226H291.861C291.472 293.226 291.15 292.903 291.15 292.515C291.15 292.126 291.472 291.804 291.861 291.804H365.985C366.374 291.804 366.696 292.126 366.696 292.515C366.696 292.903 366.374 293.226 365.985 293.226Z" fill="#CACACA"/>
<path d="M379.2 301.568H291.861C291.472 301.568 291.15 301.246 291.15 300.857C291.15 300.468 291.472 300.146 291.861 300.146H379.2C379.589 300.146 379.911 300.468 379.911 300.857C379.911 301.246 379.589 301.568 379.2 301.568Z" fill="#CACACA"/>
<path d="M341.403 309.911H291.861C291.472 309.911 291.15 309.588 291.15 309.2C291.15 308.811 291.472 308.489 291.861 308.489H341.403C341.792 308.489 342.114 308.811 342.114 309.2C342.114 309.588 341.792 309.911 341.403 309.911Z" fill="#CACACA"/>
<path d="M263.117 146.257C262.805 146.257 262.52 146.049 262.435 145.746C260.387 138.74 254.149 137.308 253.884 137.251C253.505 137.166 253.258 136.787 253.344 136.408C253.429 136.029 253.808 135.782 254.187 135.858C254.462 135.915 260.311 137.233 263.089 143.395C265.004 138.256 270.891 126.577 285.888 122.747C286.268 122.652 286.656 122.88 286.751 123.259C286.846 123.638 286.618 124.027 286.239 124.122C273.261 127.44 266.047 137.839 263.809 145.736C263.724 146.039 263.449 146.248 263.127 146.257H263.117Z" fill="#CACACA"/>
<path d="M263.117 197.639C262.804 197.639 262.52 197.431 262.435 197.127C260.378 190.093 253.95 188.643 253.884 188.633C253.495 188.548 253.258 188.178 253.334 187.79C253.419 187.401 253.798 187.164 254.178 187.24C254.453 187.297 260.302 188.614 263.079 194.776C264.994 189.638 270.881 177.959 285.879 174.129C286.258 174.034 286.647 174.262 286.741 174.641C286.836 175.02 286.609 175.409 286.229 175.504C273.251 178.822 266.037 189.221 263.8 197.118C263.714 197.421 263.44 197.63 263.117 197.639Z" fill="#CACACA"/>
<path d="M196.729 238.612C196.729 238.612 221.5 220.078 227.738 215.13C233.976 210.172 222.42 212.93 215.082 218.249C220.77 211.091 228.477 204.853 227.738 203.384C227.008 201.915 216.912 206.683 211.593 211.641C219.301 199.535 228.108 198.246 227.188 195.127C226.269 192.008 212.323 199.895 208.285 207.053C208.285 207.053 213.376 198.957 217.092 193.108C219.661 189.069 211.774 189.619 204.436 200.445C199.611 207.565 186.822 220.998 186.822 220.998" fill="white"/>
<path d="M196.729 239.323C196.511 239.323 196.302 239.228 196.16 239.038C195.923 238.725 195.99 238.28 196.303 238.043C196.549 237.853 221.14 219.462 227.293 214.57C228.146 213.888 228.525 213.471 228.686 213.234C227.103 213.101 220.609 215.111 215.49 218.817C215.206 219.026 214.807 218.988 214.561 218.732C214.315 218.476 214.296 218.078 214.523 217.794C217.007 214.665 219.917 211.679 222.249 209.271C224.325 207.129 226.657 204.73 227.027 203.801C227.027 203.801 227.018 203.801 227.008 203.801C225.217 203.801 217.073 207.498 212.077 212.153C211.812 212.399 211.414 212.409 211.139 212.181C210.864 211.954 210.797 211.556 210.997 211.252C215.462 204.237 220.249 200.824 223.425 198.559C225.615 196.994 226.752 196.141 226.506 195.326C226.496 195.288 226.468 195.184 226.136 195.146C223.159 194.805 213.433 200.777 209.546 206.389C209.129 207.043 208.892 207.432 208.892 207.432C208.693 207.754 208.257 207.858 207.925 207.669C207.593 207.47 207.479 207.043 207.669 206.711C207.868 206.361 208.086 206.01 208.333 205.659C209.821 203.299 213.575 197.326 216.495 192.738C216.865 192.15 216.95 191.705 216.817 191.619C215.926 191.032 210.513 192.766 205.024 200.862C200.218 207.944 187.856 220.95 187.334 221.5C187.059 221.785 186.614 221.794 186.33 221.529C186.045 221.254 186.036 220.808 186.301 220.524C186.424 220.391 199.109 207.053 203.839 200.066C209.48 191.752 215.547 189.098 217.595 190.434C217.936 190.652 218.941 191.534 217.689 193.506C216.315 195.667 214.76 198.132 213.338 200.379C217.955 196.511 223.681 193.449 226.297 193.752C227.397 193.876 227.757 194.549 227.871 194.947C228.411 196.776 226.752 197.952 224.25 199.744C221.851 201.45 218.505 203.839 215.101 208.01C219.765 204.815 225.501 202.104 227.463 202.464C228.013 202.559 228.26 202.863 228.373 203.09C228.99 204.322 227.349 206.086 223.264 210.295C221.823 211.774 220.173 213.48 218.543 215.291C223.387 212.703 228.942 210.977 230.013 212.39C230.895 213.546 228.99 215.054 228.184 215.698C222.012 220.6 197.402 239.01 197.156 239.199C197.032 239.294 196.881 239.342 196.729 239.342V239.323Z" fill="#201D1D"/>
<path d="M188.292 219.841C188.292 219.841 194.71 198.189 199.488 198.559C202.152 198.767 197.289 211.215 197.289 211.215C197.289 211.215 201.697 214.514 202.427 220.752" fill="white"/>
<path d="M202.417 221.462C202.057 221.462 201.754 221.197 201.716 220.837C201.033 214.997 196.9 211.812 196.852 211.783C196.597 211.594 196.502 211.252 196.615 210.958C198.796 205.384 200.095 199.914 199.412 199.251C199.384 199.251 199.365 199.251 199.336 199.251C196.445 199.251 191.544 211.357 188.965 220.04C188.851 220.42 188.453 220.628 188.083 220.524C187.704 220.41 187.496 220.012 187.6 219.642C188.7 215.935 194.445 197.449 199.526 197.848C199.981 197.886 200.37 198.123 200.626 198.521C201.905 200.559 199.241 208.058 198.123 210.996C199.289 212.03 202.484 215.3 203.119 220.675C203.166 221.064 202.882 221.415 202.493 221.462C202.465 221.462 202.436 221.462 202.408 221.462H202.417Z" fill="#201D1D"/>
<path d="M163.094 306.071L161.786 372.668C154.145 375.825 142.067 379.684 130.18 378.944C130.18 378.944 130.644 381.712 128.881 385.95C127.117 390.187 83.8128 387.097 83.8128 387.097C83.8128 387.097 78.9306 368.213 76.0013 351.575C73.0625 334.938 74.5319 313.902 74.5319 313.902L163.094 306.071Z" fill="#201D1D"/>
<path d="M161.624 234.639L187.562 215.556L200.767 237.569L161.131 274.759" fill="url(#paint2_linear_597_642)"/>
<path d="M98.1938 114.756C98.3929 114.329 98.6015 113.893 98.81 113.466C102.811 105.494 110.84 100.46 119.675 99.8245C130.17 98.63 135.659 103.929 138.797 105.133C139.432 105.38 140.143 105.332 140.825 105.313C143.025 105.257 145.234 105.55 147.338 106.214C153.074 107.996 157.577 115.239 160.127 120.301C165.113 130.208 168.251 140.911 170.422 151.746C172.432 161.852 174.859 173.039 172.062 183.211C169.322 193.184 165.056 203.09 158.932 211.461C147.679 226.838 129.43 237.218 110.395 237.73C99.0755 238.033 87.8891 235 77.3758 230.772C71.3465 228.354 65.3172 225.416 60.8711 220.676C52.4718 211.745 51.5238 196.881 58.3399 186.699C65.7343 175.655 78.6271 169.853 85.9836 158.553C94.0985 146.077 91.8991 128.302 98.1843 114.737L98.1938 114.756Z" fill="#201D1D"/>
<path d="M76.9774 272.806C73.9344 232.431 65.0706 188.244 78.1719 176.603C88.7232 165.16 133.251 171.522 149.879 180.328C156.24 185.713 163.094 198.919 167.985 218.978C169.711 226.032 163.644 239.73 163.577 247.362C163.388 272.559 165.625 296.819 166.516 309.01C166.516 309.01 146.94 320.263 106.337 321.732C79.4043 322.709 69.147 317.817 69.147 317.817C69.147 317.817 78.0108 286.58 76.9774 272.806Z" fill="url(#paint3_linear_597_642)"/>
<path d="M164.649 283.774C164.279 283.774 163.966 283.48 163.938 283.101C163.142 269.839 162.791 258.14 162.876 247.352C162.905 244.044 163.995 239.759 165.151 235.218C166.678 229.236 168.251 223.045 167.303 219.149C164.962 209.555 162.118 201.251 158.847 194.454C158.676 194.103 158.828 193.676 159.179 193.506C159.539 193.335 159.956 193.487 160.127 193.838C163.435 200.72 166.317 209.119 168.678 218.808C169.711 223.055 168.09 229.416 166.526 235.569C165.388 240.024 164.317 244.224 164.298 247.362C164.213 258.121 164.564 269.782 165.36 283.016C165.379 283.405 165.085 283.746 164.696 283.765C164.677 283.765 164.668 283.765 164.649 283.765V283.774Z" fill="#201D1D"/>
<path d="M153.671 249.011C153.671 249.011 157.093 250.158 161.738 249.343C164.857 248.793 170.839 246.035 172.318 244.508C172.318 244.508 167.455 250.443 164.611 259.183C161.416 269.014 159.292 279.916 158.003 286.344C158.003 286.344 156.534 291.662 138.256 291.216C138.256 291.216 144.494 260.577 153.671 249.011Z" fill="white"/>
<path d="M140.427 291.946C139.726 291.946 139.005 291.946 138.247 291.918C138.038 291.918 137.839 291.813 137.707 291.652C137.574 291.491 137.526 291.273 137.564 291.064C137.82 289.804 143.944 260.122 153.121 248.566C153.311 248.329 153.624 248.234 153.908 248.329C153.936 248.338 157.235 249.409 161.625 248.632C164.753 248.082 170.545 245.323 171.816 244.006C172.081 243.731 172.517 243.712 172.802 243.968C173.086 244.224 173.124 244.65 172.877 244.944C172.83 245.001 168.062 250.888 165.293 259.392C162.241 268.796 160.127 279.366 158.866 285.68L158.705 286.467C158.534 287.092 156.705 291.937 140.418 291.937L140.427 291.946ZM139.138 290.515C155.557 290.78 157.311 286.173 157.33 286.125L157.472 285.405C158.743 279.063 160.857 268.436 163.938 258.956C165.597 253.855 167.91 249.722 169.588 247.115C167.104 248.404 163.9 249.665 161.862 250.026C158.07 250.699 155.074 250.111 153.936 249.807C145.964 260.283 140.2 285.576 139.129 290.496L139.138 290.515Z" fill="#201D1D"/>
<path d="M132.606 264.397C132.606 264.397 145.025 255.998 148.779 256.472C153.263 257.041 143.186 265.487 144.864 265.772C145.764 265.924 149.585 266.872 151.718 266.265C156.913 264.786 162.184 260.7 164.213 261.629C167.085 262.937 166.658 274.237 164.051 278.105C161.435 281.973 151.708 283.869 149.054 283.632C146.4 283.395 132.388 278.646 132.388 278.646L132.616 264.397H132.606Z" fill="white"/>
<path d="M149.528 284.362C149.329 284.362 149.149 284.362 148.987 284.343C146.267 284.106 132.729 279.518 132.151 279.319C131.857 279.224 131.667 278.94 131.667 278.636L131.895 264.388C131.895 264.16 132.018 263.942 132.208 263.81C133.497 262.937 144.996 255.287 148.874 255.77C149.945 255.903 150.372 256.434 150.542 256.861C151.111 258.302 149.509 260.406 147.186 263.203C146.655 263.847 145.973 264.672 145.613 265.194C146.93 265.459 149.888 266.047 151.519 265.582C153.68 264.966 155.898 263.857 157.861 262.89C160.752 261.449 163.037 260.321 164.506 260.994C165.34 261.373 165.966 262.302 166.374 263.743C167.464 267.621 166.876 275.195 164.639 278.513C162.013 282.409 152.931 284.372 149.528 284.372V284.362ZM133.099 278.143C138.048 279.812 147.139 282.76 149.111 282.931C151.604 283.149 161.046 281.281 163.463 277.717C165.274 275.034 166.08 267.924 165.009 264.122C164.734 263.127 164.345 262.473 163.918 262.283C163.056 261.895 160.743 263.051 158.496 264.16C156.486 265.165 154.201 266.293 151.907 266.947C149.926 267.516 146.788 266.881 145.281 266.578C145.053 266.53 144.873 266.492 144.74 266.473C144.39 266.417 144.134 266.208 144.01 265.895C143.736 265.165 144.333 264.407 146.077 262.293C147.186 260.947 149.509 258.15 149.205 257.373C149.177 257.306 149.006 257.211 148.684 257.174C145.944 256.832 136.929 262.359 133.308 264.776L133.099 278.134V278.143Z" fill="#201D1D"/>
<path d="M140.418 186.292C140.418 186.292 136.152 190.292 128.521 191.098C116.026 192.416 111.646 181.201 111.646 181.201C110.954 172.546 110.168 163.89 109.485 155.235C109.02 149.329 105.541 137.27 111.087 133.166C112.623 132.028 114.424 131.289 116.026 130.236C120.776 127.127 123.459 121.126 122.605 115.504C124.776 118.007 127.07 120.614 130.151 121.809C132.702 122.795 135.517 122.709 138.247 122.624C140.94 122.529 144.258 121.875 146.912 122.321C149.766 122.804 148.865 122.264 149.661 124.7C150.619 127.639 150.287 131.677 150.552 134.749C151.026 140.314 151.662 145.916 151.794 151.5C151.51 161.35 141.878 164.374 141.878 164.374L140.409 186.282L140.418 186.292Z" fill="white"/>
<path d="M126.53 191.913C115.211 191.913 111.03 181.57 110.983 181.457C110.954 181.39 110.945 181.324 110.935 181.258C110.622 177.295 110.281 173.342 109.949 169.379C109.551 164.687 109.153 159.984 108.783 155.292C108.689 154.078 108.452 152.552 108.215 150.941C107.257 144.674 105.949 136.095 110.679 132.597C111.58 131.924 112.566 131.393 113.514 130.881C114.263 130.473 114.964 130.094 115.647 129.648C120.15 126.71 122.719 120.936 121.913 115.618C121.866 115.305 122.027 115.002 122.321 114.869C122.605 114.736 122.947 114.812 123.155 115.049C125.165 117.372 127.44 119.998 130.426 121.154C132.882 122.102 135.726 121.998 138.238 121.922C139.1 121.894 140.02 121.809 141.006 121.714C143.054 121.515 145.177 121.316 147.045 121.628C147.462 121.695 147.803 121.742 148.069 121.79C149.377 121.979 149.728 122.074 150.021 123.325C150.088 123.6 150.173 123.979 150.344 124.491C151.026 126.596 151.083 129.127 151.14 131.582C151.168 132.692 151.187 133.744 151.273 134.701C151.387 136.057 151.51 137.422 151.633 138.787C152.012 142.949 152.41 147.253 152.515 151.5C152.249 160.487 144.551 164.108 142.561 164.895L141.12 186.348C141.11 186.528 141.025 186.699 140.902 186.822C140.722 186.993 136.38 191.003 128.597 191.818C127.886 191.894 127.194 191.932 126.53 191.932V191.913ZM112.348 181.04C112.812 182.158 117.126 191.591 128.445 190.396C134.825 189.723 138.807 186.709 139.726 185.95L141.177 164.336C141.195 164.042 141.395 163.795 141.67 163.701C142.039 163.587 150.827 160.695 151.093 151.49C150.988 147.329 150.6 143.044 150.22 138.91C150.097 137.545 149.974 136.18 149.851 134.815C149.765 133.81 149.737 132.739 149.718 131.601C149.661 129.25 149.614 126.823 148.998 124.918C148.817 124.359 148.713 123.942 148.647 123.638C148.618 123.515 148.58 123.382 148.561 123.297C148.429 123.259 148.144 123.221 147.879 123.183C147.595 123.145 147.253 123.098 146.817 123.022C145.13 122.738 143.101 122.937 141.148 123.117C140.143 123.212 139.205 123.306 138.295 123.335C135.65 123.42 132.645 123.524 129.924 122.472C127.317 121.467 125.279 119.533 123.496 117.561C123.496 122.757 120.785 127.989 116.443 130.824C115.723 131.298 114.955 131.715 114.206 132.123C113.258 132.635 112.357 133.118 111.542 133.734C107.504 136.721 108.736 144.816 109.637 150.723C109.883 152.363 110.12 153.908 110.224 155.178C110.594 159.871 110.992 164.563 111.39 169.256C111.722 173.181 112.054 177.105 112.376 181.03L112.348 181.04Z" fill="#201D1D"/>
<path d="M116.851 144.418C115.334 140.465 110.054 137.735 105.949 138.901C100.64 140.408 101.446 146.532 103.636 150.277C104.953 152.543 107.219 154.249 109.769 154.894C112.31 155.548 115.116 155.131 117.363 153.775" fill="white"/>
<path d="M112.205 155.917C111.324 155.917 110.442 155.813 109.58 155.586C106.83 154.884 104.432 153.083 103.01 150.637C101.673 148.352 100.536 144.636 101.73 141.669C102.413 139.963 103.806 138.768 105.75 138.218C110.139 136.976 115.855 139.858 117.514 144.162C117.656 144.532 117.476 144.94 117.107 145.082C116.746 145.224 116.329 145.044 116.187 144.674C114.803 141.062 109.826 138.541 106.148 139.593C104.621 140.029 103.588 140.911 103.057 142.209C102.119 144.532 102.981 147.765 104.242 149.926C105.456 152.012 107.589 153.614 109.93 154.22C112.272 154.827 114.917 154.429 116.974 153.178C117.306 152.969 117.742 153.083 117.95 153.415C118.149 153.746 118.045 154.192 117.713 154.391C116.054 155.396 114.13 155.917 112.196 155.917H112.205Z" fill="#201D1D"/>
<path d="M137.043 132.378C137.043 132.378 145.11 141.024 143.84 142.968C142.57 144.911 138.067 144.494 138.067 144.494" fill="white"/>
<path d="M139.119 145.243C138.55 145.243 138.133 145.205 138 145.196C137.612 145.158 137.318 144.816 137.356 144.418C137.394 144.029 137.725 143.736 138.133 143.774C139.195 143.868 142.399 143.859 143.252 142.57C143.736 141.773 140.532 137.147 136.531 132.862C136.266 132.578 136.275 132.123 136.569 131.857C136.853 131.592 137.308 131.601 137.574 131.895C140.114 134.616 145.869 141.185 144.447 143.356C143.376 144.987 140.693 145.243 139.138 145.243H139.119Z" fill="#201D1D"/>
<path d="M139.499 164.943C139.499 164.943 132.55 167.095 123.439 162.582C123.439 162.582 128.16 175.342 140.684 175.048L141.888 164.383L139.499 164.952V164.943Z" fill="#201D1D"/>
<path d="M140.257 175.759C127.705 175.759 122.823 162.952 122.776 162.829C122.671 162.554 122.747 162.25 122.965 162.051C123.183 161.862 123.496 161.814 123.752 161.947C132.502 166.279 139.214 164.289 139.29 164.27C139.309 164.27 139.318 164.27 139.337 164.26L141.726 163.691C141.954 163.644 142.191 163.691 142.361 163.852C142.532 164.004 142.627 164.232 142.598 164.469L141.394 175.134C141.357 175.484 141.063 175.759 140.702 175.769C140.551 175.769 140.409 175.769 140.257 175.769V175.759ZM124.899 164.033C126.634 167.313 131.317 174.224 140.048 174.337L141.072 165.303L139.688 165.635C139.176 165.786 133.099 167.474 124.909 164.033H124.899Z" fill="#201D1D"/>
<path d="M127.417 136.83C128.14 136.809 128.687 135.46 128.641 133.817C128.595 132.174 127.971 130.858 127.249 130.879C126.527 130.899 125.979 132.248 126.026 133.891C126.072 135.534 126.695 136.85 127.417 136.83Z" fill="#201D1D"/>
<path d="M144.378 135.151C145.099 135.092 145.574 133.717 145.441 132.078C145.308 130.439 144.616 129.159 143.896 129.217C143.176 129.276 142.7 130.652 142.833 132.29C142.966 133.929 143.658 135.21 144.378 135.151Z" fill="#201D1D"/>
<path d="M75.2145 180.717C74.7215 181.817 28.0135 258.757 50.7655 268.54C70.7494 282.153 132.284 296.165 132.284 296.165L137.043 260.226C137.043 260.226 120.453 257.875 107.996 255.382C95.5396 252.889 83.955 248.973 83.955 248.973L75.2145 180.717Z" fill="url(#paint4_linear_597_642)"/>
<path d="M137.043 260.937C137.043 260.937 136.977 260.937 136.948 260.937C128.245 259.733 84.7891 253.438 83.4999 247.836C81.4806 239.086 92.2783 218.742 92.7429 217.888C92.923 217.538 93.359 217.414 93.7003 217.595C94.0511 217.784 94.1743 218.211 93.9942 218.561C93.8805 218.77 82.9879 239.294 84.8839 247.523C85.5949 250.604 112.016 256.045 137.138 259.534C137.526 259.591 137.801 259.951 137.744 260.34C137.697 260.7 137.394 260.956 137.043 260.956V260.937Z" fill="#201D1D"/>
<path d="M133.118 153.766C133.118 153.766 142.456 160.781 145.869 149.86L133.118 153.766Z" fill="white"/>
<path d="M139.252 156.695C135.877 156.695 132.834 154.448 132.682 154.334C132.369 154.097 132.303 153.652 132.54 153.339C132.777 153.026 133.213 152.96 133.535 153.197C133.573 153.225 137.507 156.126 140.901 155.026C142.816 154.401 144.257 152.6 145.177 149.651C145.291 149.272 145.689 149.064 146.068 149.187C146.447 149.301 146.656 149.699 146.532 150.078C145.471 153.491 143.717 155.614 141.328 156.382C140.636 156.61 139.934 156.695 139.242 156.695H139.252Z" fill="#201D1D"/>
<path d="M132.284 296.876C132.218 296.876 132.152 296.876 132.085 296.848L75.6792 280.4C75.3 280.286 75.0819 279.897 75.1957 279.518C75.3095 279.139 75.6981 278.93 76.0773 279.035L131.678 295.245L134.73 271.015C134.777 270.626 135.128 270.351 135.526 270.398C135.915 270.446 136.19 270.806 136.143 271.195L132.986 296.25C132.957 296.459 132.844 296.639 132.673 296.753C132.559 296.829 132.417 296.867 132.284 296.867V296.876Z" fill="#201D1D"/>
<path d="M130.549 378.916C130.549 378.916 130.502 378.916 130.474 378.916C130.085 378.878 129.8 378.527 129.838 378.129L133.014 348.769C133.024 348.637 133.081 348.523 133.156 348.419L140.74 338.389C140.977 338.076 141.423 338.009 141.736 338.246C142.049 338.483 142.115 338.929 141.878 339.242L134.408 349.12L131.251 378.281C131.213 378.641 130.9 378.916 130.54 378.916H130.549Z" fill="white"/>
<defs>
<linearGradient id="paint0_linear_597_642" x1="262.492" y1="125.126" x2="262.492" y2="153.87" gradientUnits="userSpaceOnUse">
<stop stop-color="#68E1FD"/>
<stop offset="1" stop-color="#0D54DB"/>
</linearGradient>
<linearGradient id="paint1_linear_597_642" x1="262.492" y1="177.522" x2="262.492" y2="206.266" gradientUnits="userSpaceOnUse">
<stop stop-color="#68E1FD"/>
<stop offset="1" stop-color="#0D54DB"/>
</linearGradient>
<linearGradient id="paint2_linear_597_642" x1="180.949" y1="215.556" x2="180.949" y2="274.759" gradientUnits="userSpaceOnUse">
<stop stop-color="#68E1FD"/>
<stop offset="1" stop-color="#0D54DB"/>
</linearGradient>
<linearGradient id="paint3_linear_597_642" x1="118.721" y1="170.427" x2="118.721" y2="321.861" gradientUnits="userSpaceOnUse">
<stop stop-color="#68E1FD"/>
<stop offset="1" stop-color="#0D54DB"/>
</linearGradient>
<linearGradient id="paint4_linear_597_642" x1="90.7822" y1="180.717" x2="90.7822" y2="296.165" gradientUnits="userSpaceOnUse">
<stop stop-color="#68E1FD"/>
<stop offset="1" stop-color="#0D54DB"/>
</linearGradient>
</defs>
</svg>
