<svg width="496" height="347" viewBox="0 0 496 347" fill="none" xmlns="http://www.w3.org/2000/svg">
<path d="M376.167 350.473L410.986 375.868L425.171 120.131L386.583 137.094L376.167 350.473Z" fill="url(#paint0_linear_597_1711)"/>
<path d="M410.986 376.563C410.887 376.563 410.688 376.563 410.589 376.464L375.77 351.069C375.571 350.969 375.472 350.672 375.472 350.473L385.888 137.094C385.888 136.797 386.087 136.598 386.285 136.499L424.874 119.536C425.072 119.437 425.37 119.437 425.568 119.635C425.767 119.734 425.866 120.032 425.866 120.23L411.68 375.869C411.68 376.166 411.482 376.365 411.283 376.464C411.184 376.464 411.085 376.563 410.986 376.563ZM376.96 350.077L410.391 374.48L424.477 121.222L387.376 137.491L376.96 350.077Z" fill="#231F20"/>
<path d="M410.986 375.868L429.635 375.273L441.639 127.273L425.171 120.131L410.986 375.868Z" fill="url(#paint1_linear_597_1711)"/>
<path d="M410.986 376.563C410.787 376.563 410.589 376.464 410.49 376.365C410.391 376.266 410.292 376.067 410.292 375.869L424.477 120.231C424.477 119.834 424.775 119.536 425.172 119.536C425.271 119.536 425.37 119.536 425.469 119.635L441.936 126.778C442.234 126.877 442.333 127.175 442.333 127.472L430.33 375.472C430.33 375.869 430.032 376.167 429.636 376.167L410.986 376.563ZM425.767 121.223L411.68 375.175L428.941 374.679L440.845 127.77L425.767 121.223Z" fill="#231F20"/>
<path d="M418.724 133.523L407.613 342.835L381.325 324.384L391.444 144.535L418.724 133.523Z" fill="white"/>
<path d="M418.723 133.523L407.613 342.835L381.325 324.383L391.443 144.534L418.723 133.523ZM418.723 132.134C418.525 132.134 418.326 132.134 418.227 132.233L390.947 143.244C390.451 143.443 390.154 143.939 390.054 144.435L379.936 324.284C379.936 324.78 380.134 325.177 380.531 325.475L406.819 343.926C407.018 344.124 407.315 344.223 407.613 344.124C407.811 344.124 408.01 344.124 408.208 344.025C408.704 343.827 409.002 343.331 409.002 342.835L420.112 133.523C420.112 133.027 419.914 132.63 419.517 132.332C419.318 132.233 419.021 132.134 418.723 132.134Z" fill="#231F20"/>
<path d="M392.535 356.922C392.237 356.922 391.939 356.922 391.642 356.823C389.063 355.93 387.079 351.267 387.079 346.109C387.079 342.538 388.071 339.661 389.658 338.57C390.352 338.074 391.245 337.875 392.138 338.173C394.717 339.066 396.701 343.728 396.701 348.887C396.701 352.458 395.709 355.335 394.122 356.426C393.626 356.723 393.13 356.922 392.535 356.922ZM391.245 339.363C390.947 339.363 390.65 339.463 390.451 339.661C389.261 340.554 388.467 343.034 388.467 346.109C388.467 350.97 390.352 354.938 392.138 355.533C392.535 355.632 393.031 355.632 393.328 355.335C394.519 354.442 395.312 351.962 395.312 348.887C395.312 344.026 393.427 340.058 391.642 339.463C391.543 339.363 391.344 339.264 391.245 339.363Z" fill="#231F20"/>
<path d="M398.586 137.392C398.288 137.392 398.09 137.194 397.991 136.995C397.892 136.599 397.991 136.202 398.388 136.103L404.736 133.523C405.133 133.424 405.53 133.623 405.629 134.019C405.728 134.317 405.629 134.714 405.332 134.813L398.983 137.392C398.784 137.293 398.685 137.293 398.586 137.392Z" fill="#231F20"/>
<path d="M407.117 133.622C406.819 133.622 406.621 133.424 406.522 133.225C406.323 132.829 406.522 132.432 406.919 132.333L408.109 131.837C408.506 131.638 408.902 131.837 409.002 132.233C409.101 132.63 409.002 133.027 408.605 133.126L407.415 133.622C407.315 133.622 407.216 133.622 407.117 133.622Z" fill="#231F20"/>
<path d="M119.833 350.474L85.0142 375.869L70.8286 120.132L109.417 137.095L119.833 350.474Z" fill="url(#paint2_linear_597_1711)"/>
<path d="M85.0143 376.563C84.9151 376.563 84.8159 376.563 84.7167 376.464C84.5183 376.365 84.3199 376.167 84.3199 375.869L70.1343 120.231C70.1343 120.032 70.2335 119.735 70.4319 119.635C70.6303 119.536 70.9279 119.437 71.1263 119.536L109.616 136.499C109.814 136.599 110.013 136.797 110.013 137.095L120.429 350.474C120.429 350.672 120.329 350.97 120.131 351.069L85.3119 376.464C85.3119 376.464 85.2127 376.563 85.0143 376.563ZM71.6223 121.223L85.7087 374.48L119.139 350.176L108.723 137.591L71.6223 121.223Z" fill="#231F20"/>
<path d="M85.0141 375.869L66.3645 375.274L54.3613 127.274L70.8285 120.132L85.0141 375.869Z" fill="url(#paint3_linear_597_1711)"/>
<path d="M85.0142 376.564L66.3646 375.969C65.9678 375.969 65.6702 375.671 65.6702 375.274L53.667 127.274C53.667 126.976 53.8654 126.679 54.0638 126.58L70.531 119.437C70.8286 119.239 71.3246 119.437 71.4238 119.735C71.4238 119.834 71.523 119.933 71.523 120.032L85.7086 375.671C85.7086 375.869 85.6094 376.068 85.5102 376.167C85.411 376.465 85.2126 376.564 85.0142 376.564ZM67.059 374.58L84.3198 375.076L70.2334 121.124L55.155 127.671L67.059 374.58Z" fill="#231F20"/>
<path d="M77.2764 133.523L88.3868 342.835L114.675 324.384L104.556 144.535L77.2764 133.523Z" fill="white"/>
<path d="M77.2765 133.524L104.556 144.535L114.675 324.384L88.3869 342.836L77.2765 133.524ZM77.2765 132.135C76.4829 132.135 75.8877 132.73 75.8877 133.524V133.623L86.9981 342.935C86.9981 343.431 87.2957 343.927 87.7917 344.125C87.9901 344.224 88.1885 344.224 88.3869 344.224C88.6845 344.224 88.9821 344.125 89.1805 344.026L115.468 325.575C115.865 325.277 116.064 324.88 116.064 324.384L105.945 144.535C105.945 144.039 105.548 143.543 105.052 143.344L77.7725 132.333C77.5741 132.135 77.4749 132.135 77.2765 132.135Z" fill="#231F20"/>
<path d="M103.465 356.922C102.87 356.922 102.275 356.723 101.878 356.426C100.291 355.235 99.2988 352.359 99.2988 348.887C99.2988 343.728 101.283 339.066 103.862 338.173C104.656 337.875 105.648 338.074 106.342 338.57C107.929 339.76 108.921 342.637 108.921 346.109C108.921 351.267 106.937 355.93 104.358 356.823C104.06 356.823 103.763 356.922 103.465 356.922ZM104.755 339.363C104.656 339.363 104.457 339.363 104.358 339.463C102.572 340.058 100.688 343.927 100.688 348.887C100.688 351.962 101.481 354.442 102.672 355.335C102.969 355.632 103.465 355.731 103.862 355.533C105.648 354.938 107.532 351.069 107.532 346.109C107.532 343.034 106.739 340.554 105.548 339.661C105.35 339.463 105.052 339.363 104.755 339.363Z" fill="#231F20"/>
<path d="M97.414 137.393C97.3148 137.393 97.2156 137.393 97.1164 137.393L90.7676 134.814C90.47 134.615 90.2716 134.218 90.47 133.921C90.6684 133.623 90.966 133.524 91.2636 133.623L97.6124 136.202C98.0092 136.401 98.1084 136.798 98.0092 137.095C97.91 137.294 97.7116 137.393 97.414 137.393Z" fill="#231F20"/>
<path d="M88.8828 133.623C88.7836 133.623 88.6844 133.623 88.5852 133.524L87.3948 133.028C86.998 132.829 86.8988 132.433 87.0972 132.135C87.2956 131.738 87.6924 131.639 87.99 131.837L89.1804 132.333C89.5772 132.532 89.6764 132.929 89.5772 133.226C89.3788 133.425 89.1804 133.623 88.8828 133.623Z" fill="#231F20"/>
<path d="M135.507 223.2C135.507 223.2 148.403 226.374 155.645 223.299C162.886 220.224 164.771 213.379 172.905 212.684C181.04 211.99 202.169 211.097 202.169 211.097L203.459 192.348C203.459 192.348 190.265 177.27 176.973 175.98C163.68 174.691 142.848 194.432 135.408 197.11L135.507 223.2Z" fill="white"/>
<path d="M147.312 225.382C143.245 225.283 139.276 224.787 135.308 223.894C135.011 223.795 134.812 223.497 134.812 223.2V197.011C134.812 196.713 135.011 196.416 135.308 196.317C137.59 195.523 141.459 192.745 145.923 189.67C155.149 183.222 167.846 174.294 177.072 175.187C190.563 176.477 203.459 191.158 203.955 191.753C204.054 191.853 204.153 192.051 204.153 192.249L202.864 211.097C202.864 211.494 202.566 211.693 202.169 211.693C201.971 211.693 180.941 212.585 172.905 213.28C168.441 213.677 165.961 215.859 163.084 218.537C161.001 220.72 158.521 222.505 155.744 223.795C153.165 225.085 150.189 225.581 147.312 225.382ZM136.201 222.704C138.681 223.299 149.296 225.382 155.347 222.704C157.926 221.414 160.307 219.728 162.291 217.645C165.168 214.966 167.945 212.387 172.905 211.99C180.147 211.395 198.003 210.601 201.574 210.403L202.764 192.547C201.078 190.761 188.976 177.766 176.972 176.576C168.243 175.782 155.843 184.413 146.716 190.761C142.451 193.737 138.681 196.317 136.201 197.408V222.704Z" fill="#231F20"/>
<path d="M97.1168 241.849L137.392 231.632C137.392 231.632 132.829 209.808 137.392 193.737H93.0496C93.0496 193.737 88.3872 202.864 90.272 218.934C92.1568 235.004 97.1168 241.849 97.1168 241.849Z" fill="#231F20"/>
<path d="M97.1167 242.544C96.9183 242.544 96.7199 242.445 96.5215 242.247C96.3231 241.949 91.3631 235.204 89.4783 219.034C87.5935 202.864 92.1567 193.837 92.3551 193.341C92.4543 193.143 92.7519 192.944 92.9503 192.944H137.293C137.491 192.944 137.689 193.044 137.888 193.242C137.987 193.44 138.086 193.639 137.987 193.837C133.523 209.511 137.987 231.236 137.987 231.434C138.086 231.831 137.888 232.128 137.491 232.228L97.2159 242.445C97.2159 242.544 97.2159 242.544 97.1167 242.544ZM93.4463 194.532C92.6527 196.416 89.2799 205.047 90.8671 218.935C92.4543 232.624 96.3231 239.469 97.4143 241.056L136.499 231.136C135.805 227.466 132.63 208.816 136.4 194.432L93.4463 194.532Z" fill="#231F20"/>
<path d="M171.219 187.19H239.469C241.552 187.19 243.238 188.877 243.238 190.96V231.334C243.238 233.418 241.552 235.104 239.469 235.104H171.219C169.136 235.104 167.45 233.418 167.45 231.334V190.96C167.45 188.877 169.136 187.19 171.219 187.19Z" fill="white"/>
<path d="M237.981 187.191C240.857 187.191 243.238 189.571 243.238 192.448V229.747C243.238 232.624 240.857 235.005 237.981 235.005H172.707C169.83 235.005 167.449 232.624 167.449 229.747V192.448C167.449 189.571 169.83 187.191 172.707 187.191H237.981ZM237.981 185.802H172.707C169.037 185.802 166.061 188.778 166.061 192.448V229.847C166.061 233.517 169.037 236.493 172.707 236.493H237.981C241.651 236.493 244.627 233.517 244.627 229.847V192.448C244.627 188.778 241.651 185.802 237.981 185.802Z" fill="#231F20"/>
<path d="M243.238 196.714H167.45V208.419H243.238V196.714Z" fill="#D1D3D4"/>
<path d="M158.621 215.065C158.621 215.065 176.377 215.958 183.817 213.776C191.257 211.593 192.745 205.939 189.472 202.467C186.198 198.995 178.56 202.269 169.433 201.078C160.307 199.888 158.621 199.193 158.621 199.193" fill="white"/>
<path d="M167.053 215.959C162.489 215.959 158.918 215.76 158.621 215.76C158.224 215.76 157.926 215.463 157.926 215.066C157.926 214.669 158.224 214.372 158.621 214.372C158.621 214.372 158.621 214.372 158.72 214.372C158.918 214.372 176.377 215.264 183.718 213.181C187.289 212.189 189.67 210.205 190.365 207.824C190.761 206.138 190.265 204.352 189.075 203.063C187.389 201.277 184.214 201.575 180.048 201.872C176.477 202.269 172.905 202.269 169.433 201.872C160.406 200.583 158.521 199.988 158.521 199.988C158.125 199.888 157.926 199.492 158.125 199.095C158.224 198.698 158.621 198.5 159.017 198.698C159.117 198.698 160.902 199.293 169.731 200.583C173.203 200.98 176.675 200.98 180.048 200.583C184.512 200.186 187.984 199.988 190.166 202.17C191.753 203.757 192.349 206.039 191.853 208.221C191.059 211.098 188.281 213.38 184.214 214.57C180.147 215.76 172.806 215.959 167.053 215.959Z" fill="#231F20"/>
<path d="M220.521 231.235C215.958 231.235 212.188 227.465 212.188 222.902C212.188 218.339 215.958 214.569 220.521 214.569C225.084 214.569 228.854 218.339 228.854 222.902C228.854 227.565 225.184 231.235 220.521 231.235ZM220.521 215.958C216.652 215.958 213.577 219.033 213.577 222.902C213.577 226.771 216.652 229.846 220.521 229.846C224.39 229.846 227.465 226.771 227.465 222.902C227.465 219.033 224.39 215.958 220.521 215.958Z" fill="#D1D3D4"/>
<path d="M231.037 231.235C226.474 231.235 222.704 227.465 222.704 222.902C222.704 218.339 226.474 214.569 231.037 214.569C235.6 214.569 239.37 218.339 239.37 222.902C239.271 227.565 235.6 231.235 231.037 231.235ZM231.037 215.958C227.168 215.958 224.093 219.033 224.093 222.902C224.093 226.771 227.168 229.846 231.037 229.846C234.906 229.846 237.981 226.771 237.981 222.902C237.981 219.033 234.806 215.958 231.037 215.958Z" fill="#D1D3D4"/>
<path d="M179.254 222.605H174.096C173.699 222.605 173.401 222.307 173.401 221.91C173.401 221.513 173.699 221.216 174.096 221.216H179.254C179.651 221.216 179.949 221.513 179.949 221.91C179.949 222.208 179.552 222.605 179.254 222.605Z" fill="#D1D3D4"/>
<path d="M187.785 222.605H182.627C182.23 222.605 181.933 222.307 181.933 221.91C181.933 221.513 182.23 221.216 182.627 221.216H187.785C188.182 221.216 188.48 221.513 188.48 221.91C188.48 222.208 188.182 222.605 187.785 222.605Z" fill="#D1D3D4"/>
<path d="M196.416 222.605H191.158C190.761 222.605 190.464 222.307 190.464 221.91C190.464 221.513 190.761 221.216 191.158 221.216H196.416C196.813 221.216 197.11 221.513 197.11 221.91C197.11 222.208 196.813 222.605 196.416 222.605Z" fill="#D1D3D4"/>
<path d="M204.947 222.605H199.789C199.392 222.605 199.094 222.307 199.094 221.91C199.094 221.513 199.392 221.216 199.789 221.216H204.947C205.344 221.216 205.641 221.513 205.641 221.91C205.641 222.208 205.344 222.605 204.947 222.605Z" fill="#D1D3D4"/>
<path d="M191.158 229.351H173.997C173.6 229.351 173.302 229.053 173.302 228.656C173.302 228.26 173.6 227.962 173.997 227.962H191.158C191.555 227.962 191.853 228.26 191.853 228.656C191.853 229.053 191.555 229.351 191.158 229.351Z" fill="#D1D3D4"/>
<path d="M352.358 238.18H260.202V328.055H352.358V238.18Z" fill="white"/>
<path d="M352.359 238.18V328.055H260.202V238.18H352.359ZM352.359 236.791H260.202C259.408 236.791 258.813 237.386 258.813 238.18V328.055C258.813 328.849 259.408 329.444 260.202 329.444H352.359C353.152 329.444 353.747 328.849 353.747 328.055V238.18C353.747 237.386 353.152 236.791 352.359 236.791Z" fill="#231F20"/>
<path d="M345.117 188.282C342.141 184.81 337.38 183.223 332.816 182.43C328.253 181.636 323.492 181.338 319.226 179.553C316.052 178.263 313.175 176.279 309.802 175.982C306.429 175.684 302.461 178.362 303.156 181.636C303.552 183.422 305.04 184.711 306.528 185.802C309.604 188.084 312.778 190.167 316.052 192.052C313.175 191.556 309.802 191.258 307.62 193.242C305.735 194.929 305.437 197.706 305.338 200.186C305.14 207.726 306.33 215.265 308.81 222.407C309.604 224.788 310.695 227.268 312.778 228.657C315.06 230.244 318.135 230.343 320.912 230.343L365.354 230.046C367.239 230.046 365.949 200.881 363.37 197.905C361.088 195.326 358.608 196.02 355.434 195.623C349.879 195.127 348.391 192.151 345.117 188.282Z" fill="white"/>
<path d="M320.119 231.037C317.639 231.037 314.663 230.938 312.381 229.252C310.1 227.565 309.108 225.184 308.215 222.605C305.735 215.364 304.445 207.824 304.644 200.186C304.743 197.607 305.04 194.631 307.124 192.746C308.81 191.357 310.992 190.762 313.076 191.06C310.695 189.572 308.413 187.984 306.231 186.397C304.644 185.207 302.957 183.818 302.56 181.834C302.263 180.346 302.759 178.858 303.751 177.767C305.338 176.08 307.62 175.188 309.901 175.287C312.282 175.584 314.663 176.378 316.746 177.668C317.639 178.064 318.631 178.56 319.524 178.957C322.698 180.048 325.872 180.842 329.245 181.14C330.535 181.338 331.725 181.536 333.015 181.735C339.066 182.826 343.034 184.81 345.712 187.885C346.208 188.48 346.704 189.076 347.101 189.572C349.581 192.548 351.168 194.631 355.632 195.028C356.327 195.127 357.021 195.127 357.716 195.127C359.898 195.226 362.08 195.226 364.064 197.508C366.644 200.484 368.032 226.573 366.445 230.045C366.346 230.442 365.949 230.74 365.552 230.74L321.111 231.037H320.119ZM312.282 192.448C310.695 192.349 309.207 192.845 307.917 193.837C306.231 195.325 305.933 197.904 305.933 200.285C305.735 207.725 306.925 215.165 309.405 222.308C310.199 224.589 311.191 226.871 313.076 228.26C315.06 229.748 317.837 229.847 320.813 229.847L364.957 229.549C366.148 226.672 365.056 201.178 362.775 198.599C361.188 196.813 359.6 196.813 357.418 196.714C356.724 196.714 356.029 196.615 355.236 196.615C350.276 196.119 348.292 193.639 345.812 190.663C345.316 190.167 344.919 189.572 344.423 188.976C341.943 186.199 338.173 184.413 332.519 183.322C331.328 183.124 330.039 182.925 328.848 182.727C325.476 182.33 322.103 181.536 318.829 180.445C317.837 180.048 316.845 179.552 315.952 179.156C313.968 178.064 311.786 177.271 309.604 176.973C307.719 176.874 305.834 177.568 304.544 178.957C303.85 179.751 303.453 180.743 303.652 181.834C303.949 183.421 305.437 184.612 306.826 185.604C309.802 187.786 312.976 189.968 316.25 191.853C316.548 192.052 316.647 192.349 316.548 192.647C316.448 192.944 316.151 193.143 315.754 193.143C314.564 192.944 313.373 192.845 312.183 192.746L312.282 192.448Z" fill="#231F20"/>
<path d="M284.109 246.909C283.712 246.909 283.415 246.612 283.415 246.215C283.415 243.933 284.307 190.365 306.231 190.365C315.555 190.365 322.202 199.789 326.071 218.439C327.856 227.565 328.848 236.791 329.146 246.116C329.146 246.512 328.848 246.81 328.451 246.81C328.055 246.81 327.757 246.512 327.757 246.116C327.757 245.52 326.864 191.655 306.33 191.655C285.795 191.655 284.903 245.52 284.903 246.116C284.903 246.612 284.506 246.909 284.109 246.909Z" fill="#231F20"/>
<path d="M397.594 240.164L360.691 231.633C360.691 231.633 365.255 209.809 360.691 193.738L401.661 192.052C401.661 192.052 406.323 201.178 404.439 217.249C402.554 233.319 397.594 240.263 397.594 240.164Z" fill="#231F20"/>
<path d="M397.594 240.858C397.495 240.858 397.495 240.858 397.396 240.858L360.493 232.327C360.096 232.228 359.898 231.93 359.997 231.533C359.997 231.335 364.461 209.61 359.997 193.937C359.898 193.738 359.997 193.54 360.096 193.341C360.196 193.143 360.394 193.044 360.592 193.044L401.562 191.357C401.86 191.357 402.058 191.457 402.157 191.754C402.356 192.151 406.919 201.178 405.034 217.348C403.149 233.517 398.189 240.263 397.991 240.561C397.991 240.858 397.792 240.957 397.594 240.858ZM361.485 231.137L397.296 239.37C398.288 237.783 402.256 230.839 403.844 217.249C405.431 203.361 402.157 194.73 401.264 192.845L361.584 194.532C365.255 208.817 362.18 227.466 361.485 231.137Z" fill="#231F20"/>
<path d="M334.007 224.887C333.908 224.887 333.908 224.887 333.808 224.887C320.813 221.018 318.829 213.281 318.73 212.983C318.631 212.586 318.928 212.289 319.226 212.189C319.623 212.09 319.92 212.289 320.02 212.685C320.02 212.785 322.004 219.927 334.106 223.597C334.503 223.697 334.701 224.093 334.602 224.49C334.602 224.689 334.304 224.887 334.007 224.887Z" fill="#231F20"/>
<path d="M307.421 192.25C311.587 191.655 315.754 191.456 319.92 191.556C322.698 191.655 326.071 192.349 326.864 194.928C327.261 196.615 326.765 198.301 325.575 199.492C324.384 200.682 322.896 201.575 321.309 202.17C323.789 202.17 326.864 202.666 327.757 204.948C328.253 206.634 327.658 208.42 326.269 209.511C324.88 210.503 323.293 211.296 321.706 211.594C324.483 212.09 327.856 213.28 328.154 216.058C328.451 218.836 325.475 220.423 322.896 221.316C323.69 222.804 325.971 222.407 327.162 223.498C328.352 224.589 328.055 226.672 326.864 227.764C325.575 228.756 324.087 229.351 322.499 229.45C319.226 229.847 315.952 229.946 312.679 229.748C310.695 229.648 308.413 229.351 307.024 227.863C305.635 226.375 305.834 223.399 307.719 222.804C304.445 222.605 301.866 219.728 302.163 216.356C302.263 214.868 302.957 213.479 304.048 212.388C302.263 211.693 300.973 210.007 300.675 208.023C300.576 206.138 301.37 204.253 302.759 203.063C295.219 199.293 301.965 192.944 307.421 192.25Z" fill="white"/>
<path d="M316.547 230.64C315.357 230.64 314.067 230.541 312.678 230.541C310.397 230.441 308.115 230.045 306.627 228.458C305.635 227.366 305.238 225.878 305.635 224.49C305.734 224.093 305.933 223.696 306.131 223.299C302.56 222.208 300.675 218.438 301.766 214.867C301.965 214.074 302.362 213.379 302.858 212.784C301.27 211.792 300.179 210.106 299.981 208.32C299.782 206.534 300.477 204.749 301.667 203.459C298.89 201.773 298.592 199.789 298.79 198.4C299.386 195.027 303.75 192.15 307.322 191.654C311.488 191.059 315.754 190.861 320.019 190.96C324.186 191.059 326.864 192.448 327.658 194.829C328.154 196.713 327.558 198.698 326.17 200.086C325.475 200.781 324.781 201.277 323.987 201.773C325.773 202.07 327.757 202.864 328.55 204.848C329.344 206.832 328.154 209.014 326.864 210.205C326.07 210.8 325.178 211.395 324.285 211.693C327.856 212.883 328.848 214.768 328.947 216.256C329.146 218.538 327.459 220.522 324.285 221.811C324.682 222.01 325.078 222.109 325.475 222.208C326.269 222.307 327.062 222.704 327.757 223.2C328.352 223.795 328.749 224.589 328.749 225.482C328.749 226.672 328.352 227.763 327.459 228.557C326.07 229.648 324.384 230.342 322.698 230.442C320.515 230.541 318.531 230.64 316.547 230.64ZM307.421 192.25L307.52 192.944C304.445 193.341 300.675 195.821 300.179 198.499C299.882 200.086 300.874 201.475 303.056 202.566C303.254 202.666 303.354 202.864 303.453 203.062C303.453 203.261 303.354 203.558 303.254 203.658C301.965 204.749 301.27 206.336 301.37 208.022C301.568 209.709 302.659 211.197 304.246 211.792C304.445 211.891 304.643 212.09 304.643 212.288C304.742 212.486 304.643 212.784 304.445 212.883C302.362 214.966 302.262 218.339 304.246 220.422C305.139 221.414 306.429 222.01 307.718 222.01C308.115 222.01 308.413 222.406 308.413 222.704C308.413 223.002 308.214 223.2 307.917 223.299C307.421 223.498 307.024 223.994 306.826 224.49C306.627 225.482 306.826 226.474 307.421 227.168C308.611 228.458 310.595 228.755 312.579 228.854C315.754 229.053 319.027 229.053 322.202 228.656C323.69 228.557 325.078 228.061 326.17 227.168C326.666 226.672 326.963 225.978 326.963 225.184C326.963 224.688 326.765 224.291 326.467 223.994C325.971 223.597 325.376 223.398 324.682 223.299C323.59 223.2 322.598 222.505 322.003 221.613C321.904 221.414 321.904 221.216 322.003 221.018C322.102 220.819 322.202 220.72 322.4 220.621C323.59 220.224 327.36 218.835 327.162 216.157C326.963 213.776 323.888 212.784 321.309 212.288C321.011 212.189 320.714 211.99 320.714 211.693C320.714 211.395 320.912 211.098 321.21 210.998C322.797 210.602 324.285 210.006 325.574 209.014C326.765 208.122 327.261 206.633 326.864 205.245C326.269 203.757 324.384 202.963 321.11 202.864C320.813 202.864 320.515 202.665 320.416 202.269C320.317 201.971 320.515 201.674 320.813 201.475C322.301 200.88 323.59 200.086 324.781 198.995C325.872 198.003 326.269 196.515 325.971 195.126C325.277 192.845 322.102 192.25 319.622 192.25C315.456 192.15 311.29 192.349 307.222 192.944L307.421 192.25Z" fill="#231F20"/>
<path d="M306.032 203.856C305.636 203.856 305.338 203.559 305.338 203.162C305.338 202.765 305.636 202.468 306.032 202.468L321.408 201.476C321.805 201.476 322.103 201.674 322.103 202.071C322.103 202.071 322.103 202.071 322.103 202.17C322.103 202.567 321.805 202.864 321.508 202.864L306.032 203.856Z" fill="#231F20"/>
<path d="M308.115 213.082C307.719 213.082 307.421 212.785 307.421 212.388C307.421 211.991 307.719 211.693 308.115 211.693L321.706 210.999C322.102 210.999 322.4 211.197 322.4 211.594C322.4 211.991 322.102 212.289 321.706 212.289L308.115 213.082Z" fill="#231F20"/>
<path d="M310.992 223.002C310.595 223.002 310.298 222.705 310.298 222.407C310.298 222.01 310.595 221.713 310.893 221.613L322.698 220.721C323.095 220.721 323.392 220.919 323.392 221.316C323.392 221.713 323.095 222.01 322.797 222.109L310.992 223.002Z" fill="#231F20"/>
<path d="M289.764 262.186H272.205C271.808 262.186 271.511 261.888 271.511 261.491C271.511 261.094 271.808 260.797 272.205 260.797H289.764C290.16 260.797 290.458 261.094 290.458 261.491C290.458 261.888 290.16 262.186 289.764 262.186Z" fill="#D1D3D4"/>
<defs>
<linearGradient id="paint0_linear_597_1711" x1="400.669" y1="120.131" x2="400.669" y2="375.868" gradientUnits="userSpaceOnUse">
<stop stop-color="#68E1FD"/>
<stop offset="1" stop-color="#0D54DB"/>
</linearGradient>
<linearGradient id="paint1_linear_597_1711" x1="426.312" y1="120.131" x2="426.312" y2="375.868" gradientUnits="userSpaceOnUse">
<stop stop-color="#68E1FD"/>
<stop offset="1" stop-color="#0D54DB"/>
</linearGradient>
<linearGradient id="paint2_linear_597_1711" x1="95.331" y1="120.132" x2="95.331" y2="375.869" gradientUnits="userSpaceOnUse">
<stop stop-color="#68E1FD"/>
<stop offset="1" stop-color="#0D54DB"/>
</linearGradient>
<linearGradient id="paint3_linear_597_1711" x1="69.6877" y1="120.132" x2="69.6877" y2="375.869" gradientUnits="userSpaceOnUse">
<stop stop-color="#68E1FD"/>
<stop offset="1" stop-color="#0D54DB"/>
</linearGradient>
</defs>
</svg>
