<svg width="93" height="88" viewBox="0 0 93 88" fill="none" xmlns="http://www.w3.org/2000/svg">
<g style="mix-blend-mode:screen" opacity="0.85" filter="url(#filter0_f_87_35)">
<rect x="25" y="50" width="43" height="13" rx="6.5" fill="#0754E3"/>
</g>
<rect x="15" width="63" height="63" rx="20" fill="url(#paint0_linear_87_35)"/>
<g clip-path="url(#clip0_87_35)">
<path fill-rule="evenodd" clip-rule="evenodd" d="M53.375 46.875C55.6293 46.875 57.7913 45.9795 59.3854 44.3854C60.9795 42.7913 61.875 40.6293 61.875 38.375C61.875 36.1207 60.9795 33.9587 59.3854 32.3646C57.7913 30.7705 55.6293 29.875 53.375 29.875C51.1207 29.875 48.9587 30.7705 47.3646 32.3646C45.7705 33.9587 44.875 36.1207 44.875 38.375C44.875 40.6293 45.7705 42.7913 47.3646 44.3854C48.9587 45.9795 51.1207 46.875 53.375 46.875ZM64 38.375C64 41.1929 62.8806 43.8954 60.888 45.888C58.8954 47.8806 56.1929 49 53.375 49C50.5571 49 47.8546 47.8806 45.862 45.888C43.8694 43.8954 42.75 41.1929 42.75 38.375C42.75 35.5571 43.8694 32.8546 45.862 30.862C47.8546 28.8694 50.5571 27.75 53.375 27.75C56.1929 27.75 58.8954 28.8694 60.888 30.862C62.8806 32.8546 64 35.5571 64 38.375Z" fill="white"/>
<path d="M50.0558 40.381C50.1557 41.6475 51.1566 42.6335 52.9522 42.7525V43.6875H53.7491V42.7461C55.6085 42.6165 56.6943 41.622 56.6943 40.1813C56.6943 38.868 55.8656 38.1922 54.3781 37.8438L53.7491 37.695V35.145C54.5481 35.2364 55.0538 35.672 55.175 36.2755H56.5732C56.4733 35.0536 55.4257 34.0995 53.7491 33.9954V33.0625H52.9522V34.0187C51.3648 34.1739 50.2853 35.128 50.2853 36.4795C50.2853 37.6737 51.0886 38.4345 52.4252 38.7447L52.9522 38.8744V41.5774C52.1362 41.4541 51.5943 41.0036 51.4732 40.381H50.0558ZM52.9458 37.5038C52.1617 37.3231 51.7367 36.9512 51.7367 36.3945C51.7367 35.7697 52.1957 35.3022 52.9522 35.1662V37.5038H52.9458ZM53.8638 39.089C54.818 39.31 55.2557 39.667 55.2557 40.2981C55.2557 41.0185 54.7096 41.5115 53.7491 41.6029V39.0635L53.8638 39.089Z" fill="white"/>
<path d="M32.125 15C31.5614 15 31.0209 15.2239 30.6224 15.6224C30.2239 16.0209 30 16.5614 30 17.125V34.125C30 34.6886 30.2239 35.2291 30.6224 35.6276C31.0209 36.0261 31.5614 36.25 32.125 36.25H40.8014C40.9246 35.519 41.1095 34.8092 41.3496 34.125H36.375C36.375 32.9978 35.9272 31.9168 35.1302 31.1198C34.3332 30.3228 33.2522 29.875 32.125 29.875V21.375C33.2522 21.375 34.3332 20.9272 35.1302 20.1302C35.9272 19.3332 36.375 18.2522 36.375 17.125H57.625C57.625 18.2522 58.0728 19.3332 58.8698 20.1302C59.6668 20.9272 60.7478 21.375 61.875 21.375V28.872C62.6825 29.5945 63.3986 30.419 64 31.3243V17.125C64 16.5614 63.7761 16.0209 63.3776 15.6224C62.9791 15.2239 62.4386 15 61.875 15H32.125Z" fill="white"/>
<path d="M51.2458 25.8014L51.25 25.625C51.2496 24.8932 51.0601 24.1738 50.7001 23.5366C50.34 22.8995 49.8215 22.3661 49.1948 21.9881C48.5681 21.6102 47.8544 21.4005 47.1228 21.3793C46.3912 21.3582 45.6666 21.5263 45.0191 21.8674C44.3716 22.2086 43.8231 22.7111 43.4269 23.3264C43.0306 23.9417 42.8 24.6489 42.7572 25.3796C42.7145 26.1102 42.8612 26.8395 43.1831 27.4967C43.505 28.154 43.9911 28.717 44.5945 29.1313C46.43 27.383 48.7463 26.2234 51.2458 25.8014Z" fill="white"/>
</g>
<defs>
<filter id="filter0_f_87_35" x="0.4" y="25.4" width="92.2" height="62.2" filterUnits="userSpaceOnUse" color-interpolation-filters="sRGB">
<feFlood flood-opacity="0" result="BackgroundImageFix"/>
<feBlend mode="normal" in="SourceGraphic" in2="BackgroundImageFix" result="shape"/>
<feGaussianBlur stdDeviation="12.3" result="effect1_foregroundBlur_87_35"/>
</filter>
<linearGradient id="paint0_linear_87_35" x1="-58" y1="-93" x2="64.5" y2="63" gradientUnits="userSpaceOnUse">
<stop stop-color="#666666"/>
<stop offset="1"/>
</linearGradient>
<clipPath id="clip0_87_35">
<rect width="34" height="34" fill="white" transform="translate(30 15)"/>
</clipPath>
</defs>
</svg>
