<svg width="93" height="88" viewBox="0 0 93 88" fill="none" xmlns="http://www.w3.org/2000/svg">
<g style="mix-blend-mode:screen" opacity="0.85" filter="url(#filter0_f_87_34)">
<rect x="25" y="50" width="43" height="13" rx="6.5" fill="#0754E3"/>
</g>
<rect x="15" width="63" height="63" rx="20" fill="url(#paint0_linear_87_34)"/>
<path d="M47 40.8683C47.6937 40.8683 48.2561 40.3059 48.2561 39.6122C48.2561 38.9185 47.6937 38.3561 47 38.3561C46.3063 38.3561 45.7439 38.9185 45.7439 39.6122C45.7439 40.3059 46.3063 40.8683 47 40.8683Z" fill="white"/>
<path d="M47.0001 36.3539C46.7496 36.3539 46.5094 36.2544 46.3323 36.0773C46.1552 35.9002 46.0557 35.66 46.0557 35.4095V24.0762C46.0557 23.8257 46.1552 23.5855 46.3323 23.4083C46.5094 23.2312 46.7496 23.1317 47.0001 23.1317C47.2506 23.1317 47.4908 23.2312 47.6679 23.4083C47.8451 23.5855 47.9446 23.8257 47.9446 24.0762V35.4095C47.9446 35.66 47.8451 35.9002 47.6679 36.0773C47.4908 36.2544 47.2506 36.3539 47.0001 36.3539Z" fill="white"/>
<path d="M44.2253 16.5877C44.4878 16.1099 44.8738 15.7115 45.343 15.434C45.8122 15.1566 46.3474 15.0103 46.8925 15.0105C47.4376 15.0107 47.9726 15.1573 48.4416 15.4351C48.9106 15.7129 49.2964 16.1116 49.5585 16.5896L62.6769 40.7296C62.9285 41.1927 63.0554 41.7133 63.0451 42.2403C63.0349 42.7673 62.8878 43.2826 62.6184 43.7356C62.349 44.1886 61.9664 44.5639 61.5083 44.8245C61.0502 45.0851 60.5321 45.2222 60.005 45.2223H33.7986C33.2656 45.2342 32.7388 45.1058 32.2711 44.8499C31.8033 44.594 31.4111 44.2197 31.1336 43.7644C30.8562 43.3091 30.7033 42.7889 30.6904 42.2559C30.6774 41.7229 30.8048 41.1959 31.0597 40.7277L44.2253 16.5877ZM32.72 41.6315C32.6227 41.8104 32.5746 42.0119 32.5805 42.2154C32.5864 42.419 32.6461 42.6173 32.7536 42.7903C32.8611 42.9633 33.0125 43.1046 33.1924 43.2C33.3724 43.2954 33.5743 43.3414 33.7778 43.3334H60.005C60.2048 43.3333 60.401 43.2812 60.5746 43.1824C60.7481 43.0836 60.893 42.9413 60.995 42.7696C61.097 42.5979 61.1526 42.4026 61.1564 42.2029C61.1602 42.0032 61.112 41.806 61.0165 41.6306L47.901 17.4953C47.8016 17.3147 47.6556 17.1641 47.4781 17.0591C47.3007 16.9542 47.0983 16.8988 46.8922 16.8987C46.686 16.8986 46.4836 16.9538 46.3061 17.0586C46.1285 17.1633 45.9823 17.3138 45.8828 17.4943L32.7191 41.6315H32.72Z" fill="white"/>
<defs>
<filter id="filter0_f_87_34" x="0.4" y="25.4" width="92.2" height="62.2" filterUnits="userSpaceOnUse" color-interpolation-filters="sRGB">
<feFlood flood-opacity="0" result="BackgroundImageFix"/>
<feBlend mode="normal" in="SourceGraphic" in2="BackgroundImageFix" result="shape"/>
<feGaussianBlur stdDeviation="12.3" result="effect1_foregroundBlur_87_34"/>
</filter>
<linearGradient id="paint0_linear_87_34" x1="-58" y1="-93" x2="64.5" y2="63" gradientUnits="userSpaceOnUse">
<stop stop-color="#666666"/>
<stop offset="1"/>
</linearGradient>
</defs>
</svg>
