<svg width="93" height="88" viewBox="0 0 93 88" fill="none" xmlns="http://www.w3.org/2000/svg">
<g style="mix-blend-mode:screen" opacity="0.85" filter="url(#filter0_f_87_33)">
<rect x="25" y="50" width="43" height="13" rx="6.5" fill="#0754E3"/>
</g>
<rect x="15" width="63" height="63" rx="20" fill="url(#paint0_linear_87_33)"/>
<path d="M33.0909 20.3496H60.6713C61.6224 20.3496 62.3357 20.8251 62.8112 21.5384C63.2867 22.2517 63.7622 23.2028 63.7622 24.1538V40.0839C63.7622 41.0349 63.2867 41.986 62.8112 42.6993C62.3357 43.4125 61.3846 43.8881 60.6713 43.8881H33.0909C32.3776 43.6503 31.4266 43.1748 30.951 42.4615C30.4755 41.7482 30 40.7972 30 39.8461V23.916C30 22.965 30.4755 22.0139 30.951 21.3007C31.4266 20.8251 32.3776 20.3496 33.0909 20.3496ZM60.6713 21.5384H33.0909C32.6154 21.5384 31.9021 21.7762 31.6643 22.2517C31.4266 22.7272 31.1888 23.4405 31.1888 23.916V39.8461C31.1888 40.5594 31.4266 41.0349 31.9021 41.5104C32.3776 41.986 32.8531 42.2237 33.3287 42.2237H60.9091C61.3846 42.2237 62.0979 41.986 62.3357 41.5104C62.8112 41.0349 63.049 40.5594 63.049 39.8461V23.916C63.049 23.2028 62.8112 22.7272 62.3357 22.2517C61.8601 21.7762 61.3846 21.5384 60.6713 21.5384Z" fill="white"/>
<path d="M39.986 25.1049L36.8951 34.6153C36.4196 35.5664 36.6573 36.5174 38.3217 36.5174C39.986 36.5174 40.4615 35.8042 40.6993 34.6153L44.028 25.1049H45.93L42.6014 34.3776C42.1259 36.2797 41.1748 37.4685 38.3217 37.4685C35.4685 37.4685 34.5175 36.5174 34.993 34.6153L38.3217 25.1049H39.986Z" fill="white"/>
<path d="M48.5454 25.1049H51.6363C54.4894 25.1049 55.4405 26.2937 54.7272 28.1958L54.4894 28.9091C54.0139 30.8112 52.8251 31.7622 49.4964 31.7622H48.0699L46.1678 37.2307H44.5034L48.5454 25.1049ZM48.5454 30.8112H49.7342C51.874 30.8112 52.3496 30.0979 52.8251 28.9091L53.0629 28.1958C53.5384 27.007 53.3006 26.2937 51.3985 26.2937H49.9719L48.5454 30.8112Z" fill="white"/>
<path d="M59.4824 25.1049L55.4405 37.2307H53.7761L57.8181 25.1049H59.4824Z" fill="white"/>
<defs>
<filter id="filter0_f_87_33" x="0.4" y="25.4" width="92.2" height="62.2" filterUnits="userSpaceOnUse" color-interpolation-filters="sRGB">
<feFlood flood-opacity="0" result="BackgroundImageFix"/>
<feBlend mode="normal" in="SourceGraphic" in2="BackgroundImageFix" result="shape"/>
<feGaussianBlur stdDeviation="12.3" result="effect1_foregroundBlur_87_33"/>
</filter>
<linearGradient id="paint0_linear_87_33" x1="-58" y1="-93" x2="64.5" y2="63" gradientUnits="userSpaceOnUse">
<stop stop-color="#666666"/>
<stop offset="1"/>
</linearGradient>
</defs>
</svg>
