<svg width="93" height="88" viewBox="0 0 93 88" fill="none" xmlns="http://www.w3.org/2000/svg">
<g style="mix-blend-mode:screen" opacity="0.85" filter="url(#filter0_f_87_32)">
<rect x="25" y="50" width="43" height="13" rx="6.5" fill="#0754E3"/>
</g>
<rect x="15" width="63" height="63" rx="20" fill="url(#paint0_linear_87_32)"/>
<path d="M47 38.375C45.7391 38.375 44.5066 38.0011 43.4582 37.3006C42.4099 36.6001 41.5928 35.6045 41.1103 34.4396C40.6278 33.2747 40.5015 31.9929 40.7475 30.7563C40.9935 29.5197 41.6006 28.3838 42.4922 27.4922C43.3838 26.6006 44.5197 25.9935 45.7563 25.7475C46.9929 25.5015 48.2747 25.6278 49.4396 26.1103C50.6045 26.5928 51.6001 27.4099 52.3006 28.4582C53.0011 29.5066 53.375 30.7391 53.375 32C53.3841 32.8397 53.2254 33.6728 52.9083 34.4503C52.5911 35.2279 52.1219 35.9343 51.5281 36.5281C50.9343 37.1219 50.2279 37.5911 49.4503 37.9083C48.6728 38.2254 47.8397 38.3841 47 38.375ZM47 27.75C46.4384 27.7372 45.88 27.8384 45.3586 28.0475C44.8372 28.2565 44.3636 28.5691 43.9663 28.9663C43.5691 29.3636 43.2565 29.8372 43.0475 30.3586C42.8384 30.88 42.7372 31.4384 42.75 32C42.7372 32.5616 42.8384 33.12 43.0475 33.6414C43.2565 34.1628 43.5691 34.6364 43.9663 35.0337C44.3636 35.4309 44.8372 35.7435 45.3586 35.9525C45.88 36.1616 46.4384 36.2628 47 36.25C47.5616 36.2628 48.12 36.1616 48.6414 35.9525C49.1628 35.7435 49.6364 35.4309 50.0337 35.0337C50.4309 34.6364 50.7435 34.1628 50.9525 33.6414C51.1616 33.12 51.2628 32.5616 51.25 32C51.2628 31.4384 51.1616 30.88 50.9525 30.3586C50.7435 29.8372 50.4309 29.3636 50.0337 28.9663C49.6364 28.5691 49.1628 28.2565 48.6414 28.0475C48.12 27.8384 47.5616 27.7372 47 27.75Z" fill="white"/>
<path d="M61.1366 26.7343L58.6291 22.3907C58.3837 21.9649 57.998 21.6374 57.538 21.4642C57.078 21.2909 56.5721 21.2827 56.1067 21.4409L53.5206 22.3153C53.0749 22.0153 52.6092 21.7462 52.1266 21.5099L51.5922 18.8335C51.4959 18.3516 51.2355 17.918 50.8554 17.6065C50.4753 17.2949 49.999 17.1248 49.5076 17.125H44.4926C44.0011 17.1248 43.5248 17.2949 43.1447 17.6065C42.7646 17.918 42.5043 18.3516 42.4079 18.8335L41.8735 21.5099C41.3855 21.7436 40.9144 22.0109 40.4636 22.31L37.8923 21.4409C37.4272 21.2833 36.9218 21.2918 36.4623 21.465C36.0027 21.6382 35.6174 21.9653 35.3721 22.3907L32.8646 26.7343C32.6189 27.1596 32.5282 27.6568 32.6078 28.1415C32.6874 28.6261 32.9325 29.0682 33.3012 29.3926L35.3529 31.1957C35.3349 31.4634 35.3126 31.7291 35.3126 32C35.3126 32.2741 35.3232 32.5451 35.3423 32.8139L33.3023 34.6074C32.9332 34.9315 32.6877 35.3735 32.6077 35.8581C32.5277 36.3428 32.6181 36.8402 32.8635 37.2657L35.371 41.6093C35.6163 42.0353 36.0019 42.363 36.4619 42.5365C36.9219 42.7099 37.4278 42.7183 37.8934 42.5602L40.4795 41.6847C40.925 41.9853 41.3908 42.2548 41.8735 42.4911L42.4079 45.1665C42.5043 45.6484 42.7646 46.082 43.1447 46.3935C43.5248 46.7051 44.0011 46.8752 44.4926 46.875H49.1251V44.75H44.4926L43.7382 40.9781C42.6946 40.5905 41.7259 40.0254 40.8747 39.3079L37.2123 40.5468L34.7048 36.2032L37.6001 33.6586C37.402 32.5598 37.3995 31.4347 37.5927 30.3351L34.7048 27.7968L37.2123 23.4532L40.8535 24.6858C41.7107 23.9672 42.687 23.4041 43.7382 23.0219L44.4926 19.25H49.5076L50.2619 23.0219C51.3055 23.4096 52.2742 23.9746 53.1254 24.6921L56.7878 23.4532L59.2953 27.7968L56.3224 30.402L57.7228 32L60.6978 29.3926C61.0669 29.0685 61.3124 28.6265 61.3924 28.1419C61.4724 27.6572 61.382 27.1598 61.1366 26.7343Z" fill="white"/>
<path d="M54.4375 42.8162L51.6856 40.0643L50.1875 41.5625L54.4375 45.8125L61.875 38.375L60.3769 36.8768L54.4375 42.8162Z" fill="white"/>
<defs>
<filter id="filter0_f_87_32" x="0.4" y="25.4" width="92.2" height="62.2" filterUnits="userSpaceOnUse" color-interpolation-filters="sRGB">
<feFlood flood-opacity="0" result="BackgroundImageFix"/>
<feBlend mode="normal" in="SourceGraphic" in2="BackgroundImageFix" result="shape"/>
<feGaussianBlur stdDeviation="12.3" result="effect1_foregroundBlur_87_32"/>
</filter>
<linearGradient id="paint0_linear_87_32" x1="-58" y1="-93" x2="64.5" y2="63" gradientUnits="userSpaceOnUse">
<stop stop-color="#666666"/>
<stop offset="1"/>
</linearGradient>
</defs>
</svg>
