<svg xmlns="http://www.w3.org/2000/svg" viewBox="0 0 788.64 788.64"><defs><style>.cls-1{fill:#fff;}</style></defs><g id="Layer_2" data-name="Layer 2"><g id="Layer_1-2" data-name="Layer 1"><circle cx="394.32" cy="394.32" r="394.32"/><path class="cls-1" d="M419.92,626.47q-108.53,0-165.36-60.37T197.73,394.64q0-55.22,17.34-98.57t47.52-73.21q30.18-29.87,71.92-45.28t90.55-15.41a290.35,290.35,0,0,1,51.37,4.18A335.93,335.93,0,0,1,516.89,176a199.11,199.11,0,0,1,28.9,11.24q11.57,5.78,16.7,9l-28.9,80.91Q513,266.22,485.75,258.5t-62-7.71a136.83,136.83,0,0,0-45.28,7.71,102.42,102.42,0,0,0-39.17,24.72q-17,17-27.29,44t-10.28,65.5a233.57,233.57,0,0,0,6.75,57.48q6.74,26.65,21.83,45.91t39.49,30.51q24.41,11.24,59.08,11.24a269.73,269.73,0,0,0,39.18-2.57,288.75,288.75,0,0,0,30.82-6.1,160.94,160.94,0,0,0,23.76-8q10.27-4.49,18.63-8.35l27.61,80.27q-21.2,12.85-59.72,23.12T419.92,626.47Z"/></g></g></svg>